<?xml version="1.0" encoding="utf-8"?>
<!-- Generator: Adobe Illustrator 19.0.0, SVG Export Plug-In . SVG Version: 6.00 Build 0)  -->
<svg version="1.1" id="Amelia_Williams" xmlns="http://www.w3.org/2000/svg" xmlns:xlink="http://www.w3.org/1999/xlink" x="0px"
	 y="0px" viewBox="0 0 300 250" style="enable-background:new 0 0 300 250;" xml:space="preserve">
<g id="XMLID_1_">
	<path id="XMLID_164_" d="M46.8,179.5c0.1-4.1,1.2-7.9,3.4-11.3c1.4-2.1,3.2-2.7,5.7-2.1c0.2,0,0.3,0.1,0.5,0.1
		c-0.5-1.4-1-2.6-1.3-4c-0.7-3.1,0.4-5.9,1.9-8.5c1.8-3.1,4.7-5.2,7.3-7.6c0.8-0.7,1.6-1.5,2.4-2.2c0.3-0.3,0.6-0.5,0.9-0.8l0.2,0.2
		c-0.2,0.4-0.3,0.8-0.6,1.1c-1.5,1.6-3,3.1-4.6,4.6c-2.7,2.5-5.1,5.2-6.2,8.8c-1,3.5-0.5,6.6,2.2,9.2c0.9,0.9,2.1,1.4,3.1,2.1
		c2,1.2,4,2.6,6.4,2.6c2.6,0,6.1-0.9,7.3-3.7c-1-1.1-2.3-1.8-3.8-1.7c-1.4,0.1-2.8,0.4-4.4,0.7c1.3-1.3,2.6-1.9,4.2-1.8
		c1.6,0,3.1,0.5,4.3,1.6c0.6-1.1,2.4-16.6,2.2-18.4c-3.5-0.9-5.5,0.2-8.6,4.8l0.8-2.1c0.3-0.7,0.6-1.4,0.8-2.2
		c0.5-1.7,1.5-2.7,3.1-3.2c1.5-0.5,3-0.8,4.6-0.5c0.4,0.1,1-0.2,1.3-0.5c1.9-2,4.4-3.5,7-4.3c2.7-0.8,5.3-1.6,7.7-3.2
		c3.3-2.2,5-5.4,6-9.1c0.5-2.2,1.1-4.4,1.7-6.6c0.1-0.3,0.2-0.5,0.2-0.7l0.3,0c-0.1,0.8,0,1.6-0.2,2.3c-0.5,2.3-0.9,4.7-1.5,6.9
		c-1.4,4.8-4.6,8-9.2,9.9c-2.2,0.9-4.5,1.6-6.8,2.4c-1.6,0.6-2.8,1.8-4.2,3.2c2.7,0.7,5.2,1,7.8,1.1c-0.9,0.8-2,0.9-3,0.8
		c-2.1-0.3-4.1-0.8-6.2-1.2c-2.6-0.5-5.1-0.5-7.2,1.3c-0.4,0.4-0.7,0.8-0.9,1.4c0.1,0,0.2,0,0.3-0.1c2-2,4.4-2.2,7.1-1.5
		c1.9,0.5,3.8,1.2,5.7,1.4c2,0.2,3.9,0.2,5.9,0c2.6-0.2,5.1-0.9,7.4-2c3.5-1.7,6.2-4.1,7.3-7.9c0.7-2.5,1.1-5.1,1.6-7.6
		c0.8-3.8,0-7.8,1-11.6c0.7-2.6,1.3-5.2,3.5-7c1-0.8,2-1.5,3.2-1.9c2.3-0.9,3.8-2.5,4.7-4.7c1.9-4.5,3.6-9.1,5.5-13.6
		c0.7-1.7,0.8-3.5,0.9-5.4c0.1-0.5,0.2-0.9,0.3-1.4l0.5,0c0.3,2.7,0.5,5.3,0.8,8.2l1.4-3.2l0.4,0.1c0,0.3,0.1,0.6,0.1,0.8
		c-0.4,2.8-0.8,5.6-1.2,8.3c0,0.3-0.3,0.6-0.4,0.9c-0.2-0.3-0.6-0.7-0.6-1c0-1.4,0.2-2.7,0.3-4c0-0.2,0-0.5,0-0.7
		c-1.4,0.1-1.5,0-1.8-2c-0.4,1.1-0.8,2.3-1.2,3.4c-1.3,3.4-2.5,6.9-3.9,10.3c-1,2.5-2.7,4.2-5.3,5.2c-2.2,0.7-3.9,2.4-4.7,4.5
		c-1,2.6-1.7,5.3-1.7,8.1c0,4.3-0.4,8.6-1.4,12.7c-0.8,3.1-2.1,6.1-4.7,8.2c-2.8,2.3-6.1,3.9-9.8,4.2c-2.5,0.3-4.9,0.5-7.4,0.4
		c-1.9-0.1-3.9-0.7-5.9-1.1c-0.2,1.4-0.4,2.8-0.5,4.3c-0.5,4.4-0.9,8.8-1.5,13.2c-0.5,3.9-3.2,5.9-6.7,6.5c-3.1,0.6-6,0-8.6-1.9
		c-2.1-1.5-4.2-3-6.8-3.6c-1.2-0.3-2.2,0-3.1,0.9c-0.7,0.8-1.4,1.7-2.1,2.6l0.2,0.2c0.8-0.4,1.7-0.9,2.5-1.2
		c0.8-0.2,1.7-0.3,2.6-0.1c2.5,0.6,4.6,1.9,6.8,3.2c2.1,1.2,4.2,2.5,6.4,3c3.2,0.8,6.1,0.6,8.1-3.2c1.7-3.3,2.9-6.8,4.3-10.2
		c0.2-0.5,0.4-1.1,0.6-1.6L82,161c-0.1,0.9-0.1,1.8-0.3,2.7c-1.1,3.6-2.5,7.1-4.6,10.3c-0.7,1.1-1.9,1.9-2.9,3
		c0.7-0.3,1.5-0.4,2.2-0.8c1.6-0.8,2.5-2.3,3.3-3.8c1.6-3.1,2.7-6.4,3.5-9.8c0.6-2.7,1.5-5.3,2.3-7.9c0.2-0.4,0.3-0.8,0.6-1.1
		l0.3,0.1c0,0.4,0.1,0.8,0,1.2c-1.1,4.4-2.2,8.8-3.4,13.2c-0.3,1.1-0.9,2.1-1.4,3.2c-0.2,0.5-0.2,0.8,0.3,1c0.9,0.4,1.8,0.8,2.8,1
		c1.2,0.2,2.4,0.2,3.7,0.2c1.4,0,2.4-0.6,3.1-1.8c1-1.8,1-3.8,1.2-5.7c0.2-2.2,0.2-4.4,0.7-6.6c0.6-2.5,1.8-4.7,4.3-5.7
		c1-0.4,2.1-0.7,3-0.6c2.1,0.3,4.2,0.7,6.2,1.4c2.8,1,5.1,0.2,6.1-2.5c0.5-1.5,0.9-3.1,1-4.7c0.2-2.3-0.1-4.6,0.1-6.8
		c0.3-4.9,1.7-9.4,5.3-12.9c2.8-2.8,5.5-5.6,7.5-9.1c0.1-0.2,0.3-0.4,0.5-0.6l0.3,0.1c-0.1,0.5-0.1,1.2-0.4,1.6
		c-0.9,1.4-1.8,2.9-2.9,4.2c-1.7,2-3.6,4-5.5,5.9c-2.5,2.7-3.4,6.1-3.7,9.7c-0.2,3.2-0.1,6.4-0.3,9.6c-0.1,2-0.8,4-2.2,5.6
		c-1.6,1.7-3.7,2.1-6,1.3c-1.8-0.6-3.6-1.1-5.4-1.4c-3.4-0.5-6.2,1.6-7,5.3c-0.4,2-0.5,4-0.6,6.1c-0.1,1.9-0.3,3.7-1,5.5
		c-1,2.5-2.5,3.6-5.1,3.5c-1.3,0-2.6-0.2-3.9-0.4c-0.8-0.1-1.5-0.4-2.1-0.8c-0.8-0.5-1.1-0.4-1.5,0.4c-1,1.9-2.5,3.4-4.7,3.8
		c-1.3,0.3-2.6,0.4-3.8,0.2c-3.6-0.6-6.8-2.1-10-3.9c-2-1.2-4-2.2-6.1-3c-2.1-0.9-4.5,0-5.9,2.2c-1,1.7-1.7,3.6-2.5,5.4
		C47,178.8,46.9,179.2,46.8,179.5z"/>
	<path id="XMLID_330_" d="M233.7,156.2c-0.2-1.6-0.4-3.2-0.4-4.9c-0.1-2.6-1.8-4-3.5-5.7c-0.1,1.4,0,2.7-0.2,3.9s-0.4,2.7-1.1,3.6
		c-1.2,1.7-0.7,3.1,0.1,4.6c0.8,1.4,1.2,3,1.3,4.7c0.1,1.9-0.8,3.2-2.2,4.2c-1,0.7-2.1,1.3-3.3,1.8c-2.4,0.8-3.4,2.4-3.3,4.9
		c0,0.6,0.1,1.2,0.1,1.7c0.2,3.8-1,6.9-4.2,9.1c-0.2,0.1-0.3,0.3-0.5,0.4c0,0,0,0.1,0,0.2c2.5-0.9,4.3-2.2,5.4-4.6
		c0.8-1.9,0.6-3.8,0.6-5.7c0-0.9,0.2-1.8,0.2-2.6l0.4,0c0.1,0.9,0.1,1.7,0.3,2.6c1,5.8-1.4,10-7,11.7c-1.5,0.4-2.9,0.8-4.4,1.3
		c-2.9,0.9-4.8,2.9-5.9,5.6c-0.8,2.2-1.9,4.2-3.5,5.9c1.6,0.7,3.1,0.1,3.7-1.3c0.7-1.6,1.2-3.3,2-4.9c0.7-1.6,2.1-2.9,3.7-3.4
		c0.3-0.1,0.7-0.1,1.4-0.2c-0.3,0.4-0.4,0.7-0.6,0.7c-2.6,1-3.7,3.1-4.5,5.5c-0.2,0.7-0.5,1.3-0.7,2c-0.9,2.9-3.3,3.2-5.4,2.9
		c-0.4,0-0.9,0-1.1,0.2c-1.4,1.5-3.3,1.9-5.1,1.9c-2.2,0-4.2,0.3-6.1,1.7c-2.1,1.5-4.3,2.9-6.1,4.8c-1.4,1.5-3.4,2.1-5.4,2.5
		c-3.8,0.8-7-0.8-10.1-2.8c-0.3-0.2-0.6-0.3-0.9-0.3c-2.6-0.2-5,0.4-7.2,2.1c-1.3,1-2.7,2-4.1,2.8c0.5-0.6,1.1-1.2,1.7-1.8
		c1.7-1.8,3.5-3.5,6.1-4c2.8-0.6,5.6-0.7,8.4,0.5c3.2,1.4,7.4,1.2,10-1.9c0.8-1,1.8-1.7,2.7-2.6c1.5-1.5,3.6-2.2,5.7-2
		c0.9,0,1.7-0.1,2.3-0.8c0.5-0.5,1.1-0.8,1.7-1.2c1.8-1.2,3.8-1.3,5.9-0.8c0.4,0.1,0.9-0.1,1.2-0.3c1.7-1.7,2.9-3.7,3.4-6
		c0.7-2.8,2.1-5.2,4.4-6.9c1.9-1.4,3.8-2.8,5.7-4.1c1.9-1.3,2.5-2.8,1.9-5.1c-0.4-1.6-0.3-3.3-0.3-4.9c0-2.9,1.9-4.3,4.2-5.5
		c0.7-0.4,1.5-0.7,2.3-1.1c1.6-0.8,2.1-1.8,1.6-3.5c-0.3-0.8-0.6-1.6-1-2.3c-0.9-1.7-0.9-3.5-0.5-5.4c0.2-0.7,0.5-1.4,1-2
		c1.1-1.3,1.6-3,1.6-4.7c0-2,0-4-0.1-6c0-0.3-0.1-0.6-0.3-0.9c-0.4-0.8-0.8-1.7-1.4-2.5c-1.7-2.3-1.9-5-2.2-7.6c0-0.3,0.2-0.7,0.3-1
		c0.2,0.3,0.5,0.5,0.6,0.8c0.2,0.7,0.3,1.5,0.4,2.2c0.2,1.9,1,3.7,2.1,5.2c0.4,0.5,0.7,1.1,1,1.7c1.1,2.7,3,4.8,5,6.9
		c1.3,1.4,2.8,2.8,3,4.8c0.2,2,0.6,4-0.3,6L233.7,156.2z M209.4,186.6l0.2,0.2c2-0.6,4-1.2,5.4-2.9c0.3-0.4,0.8-0.6,1.2-0.9
		c2.4-1.6,3.5-3.9,3.5-6.8c0-1.1,0-2.2,0-3.4c0-2.4,1-4.2,3.3-5.2c0.8-0.4,1.7-0.7,2.5-1.2c1.7-0.9,3.3-1.8,2.9-4.4
		c-0.2-1.3-0.6-2.5-1.1-3.7c-0.8-1.9-1.7-3.8,0-5.7c0.1-0.1,0.1-0.2,0.2-0.4c1.1-2.2,0.9-4.6,1-6.9c0.1-1.4-0.7-2.1-1.5-2.8
		c0,1.3,0,2.6,0,3.9c0,2.1-0.7,4.1-2,5.6c-0.5,0.6-0.8,1.3-0.9,2.1c-0.2,1.5,0,3,0.8,4.3c0.4,0.6,0.7,1.3,0.8,2.1
		c0.5,2.2,0.1,4.1-2.3,5c-0.9,0.3-1.7,0.7-2.5,1.2c-1.3,0.7-2.7,1.5-3,2.9c-0.4,1.8-0.4,3.6-0.1,5.5c0.7,4,0.3,5.2-3,7.5
		c-0.5,0.3-1,0.6-1.5,0.9C212.1,184.6,210.8,185.6,209.4,186.6z M174.3,210v0.4c0.9,0,1.7,0.1,2.6,0c2.6-0.2,4.9-0.9,6.7-2.9
		c1-1.1,2.3-2.1,3.6-3c0.8-0.6,1.8-1.1,2.6-1.7c-1.4-0.3-2.6,0.2-3.7,1c-1.3,1.1-2.5,2.2-3.7,3.4c-1.9,1.9-4,3.1-6.8,2.8
		C175.2,210,174.7,209.9,174.3,210z M194.2,201c1.7,0.5,4.7-0.1,5.4-1.2C198,199.2,195.6,199.7,194.2,201z"/>
	<path id="XMLID_325_" d="M60,205.5c-2.1-0.4-4.3-0.7-6.3-1.1s-3.7,0.4-4.8,1.9c-1.2,1.7-2.1,3.6-2.9,5.6c-1.3,3-2.4,6.2-5,8.4
		c-1.2,1-2.6,1.6-4,2.4c-0.1,0-0.1,0.1-0.2,0.1c-1.9-0.3-3.7-0.7-5.6-1.1c-0.1,0-0.2-0.2-0.5-0.5c2.4,0.5,4.5,0,6.6-0.8
		c1.1-0.4,1.9-1.1,2.4-2.1c0.9-1.9,1.7-3.8,2.4-5.7c1.1-3,2.2-6.1,3.3-9.2c0.5-1.4,1.5-2.2,2.8-2.8c3.7-1.7,7.5-2.2,11.5-0.7
		c0.1,0.1,0.3,0,0.8,0.1c-1-1.9-1.9-3.7-2.9-5.3c-1.1-1.8-2.4-3.4-3.4-5.2c-1.3-2.3-0.8-4.7,0.3-7c0.7-1.5,1.6-2.6,3.1-3.4
		c1.5-0.8,3.4-0.5,4.3,0.9c-1.6-0.3-3.2-0.4-4.6,0.5c-1.4,1-2,2.4-2.4,4c-0.4,1.6-0.7,3.2,0.3,4.7c0.2-1.4,0.4-2.8,0.6-4.2
		c0.3-2.1,3.2-3.6,5.1-3.4c0.4,0.1,0.8,0.3,1.2,0.6c-2.6,0.4-5,0.9-5.4,3.9c1.1-0.6,2.3-1.5,3.6-1.9c1.7-0.5,3.4-0.2,4.8,1
		c1,0.8,2,1.7,2.9,2.5c0.3,0.3,0.7,0.5,1,0.8c0.3-1.6,0.5-3.1,0.9-4.6c0.3-1,0.8-1.9,1.4-2.8c0.2-0.3,0.7-0.4,1-0.6
		c-0.6,1.7-1.3,3.1-1.8,4.7c-0.6,2.2-0.4,4.4,0,6.6c0.3,2,0.5,4,0.9,6.1c0.2-1.1,0.6-2.1,0.7-3.2c0.2-1.9,0.3-3.8,0.2-5.7
		c0-2.5,1-4.6,2.5-6.5c2-2.5,4.6-4.2,7.6-5.2c1.6-0.6,3.3-0.7,4.9-0.4c1,0.2,2,0.3,3,0.2c0.8,0,1.6-0.3,2.2-1.1
		c1.9-2.6,2.8-5.5,3.2-8.7c0.4-2.7,0.3-5.5,1.7-8c0.5-0.8,1.1-1.5,1.8-2.1c1-0.9,4.2-0.7,5.2,0.2c0.1,0.1,0.1,0.2,0.1,0.5
		c-1-0.1-1.9,0-2.7-0.2c-1.6-0.4-2.5,0.5-3.2,1.7c-0.7,1.2-1.3,2.5-1.3,4c-0.1,1.7-0.3,3.4-0.6,5.2c-0.5,3.2-1.7,6.2-3.8,8.6
		c-0.9,1.1-2.3,1.2-3.6,0.9c-6-1.1-10.6,1.2-14.2,5.8c-1.3,1.6-1.9,3.4-1.8,5.6c0.7-0.3,1.4-0.5,2-0.9c1.4-0.8,2.7-1.6,4.1-2.5
		c3.7-2.4,7.4-2.8,11.4-0.7c0.3,0.2,0.5,0.3,0.8,0.5l-0.1,0.2c-1.2-0.2-2.5-0.2-3.7-0.6c-2.4-0.6-4.5-0.3-6.6,1
		c-2.4,1.5-5,2.7-7.5,4.2c-0.3,0.2-0.4,0.7-0.4,1.1c0.1,4-1.1,7.6-3.7,10.7c-1.7,2-3.8,3-6.4,2.9c-1.1-0.1-1.6,0.3-2.1,1.3
		c-2.4,5.1-6.5,8.4-11.5,10.7c-0.1,0-0.2,0-0.3,0C53.7,214.3,58.4,211.3,60,205.5z M70.1,196.8c-0.2-2-0.5-3.6-0.6-5.1
		c-0.1-1-0.5-1.6-1.3-2.1c-0.7-0.4-1.2-1-1.8-1.5c-1.2-0.9-2.4-1.8-3.7-2.6c-1.5-0.8-3-0.3-4.1,0.8c-1.1,0.9-1.8,2.2-1.3,3.6
		c0.4,1.5,1.2,2.9,1.9,4.2c1.1,2,2.6,3.8,3,6.2c0,0.2,0.1,0.4,0.3,0.5c1.9,0.9,3.9,1.5,6,0.6c0.8-0.3,1.3-0.8,1.3-1.6
		C69.9,198.6,70,197.5,70.1,196.8L70.1,196.8z M41.2,218.6c0.3-0.3,0.7-0.7,0.9-1.1c1-2,2-3.9,2.9-5.9c0.9-2,1.6-4.1,3.1-5.8
		c1.6-1.8,3.4-2.9,6-2.3c1.9,0.4,3.9,0.6,5.8,0.9c0.3,0,0.7,0,0.9-0.1c0.7-0.7,0.3-2.5-0.6-2.8c-4-1.6-7.9-1.3-11.7,0.5
		c-0.8,0.4-1.4,1-1.9,1.8c-0.6,1.1-1.2,2.2-1.6,3.4C43.7,210.9,42.4,214.8,41.2,218.6z M62.4,202.1v2.3c2.6,0.4,4.7-0.3,5.7-1.8
		C66.2,203.3,64.4,203,62.4,202.1L62.4,202.1z"/>
	<path id="XMLID_155_" d="M142.2,40.3c-2.9,0-5.6,0.3-8.2,1.7c-0.9,0.5-1.6,1.1-2.7,1.8c6.6,2.3,10.3,6.9,12.6,13
		c0.1,0.2-0.1,0.5-0.2,0.9c-0.4-0.5-0.6-0.7-0.7-1c-1.1-2.9-3.2-5.1-5.1-7.5c-1-1.3-2.7-2.2-4.2-3c-2.3-1.1-4.7-2.1-7.2-2.9
		c-3.2-1-6.3-0.1-8.9,1.8c-5.2,3.9-7.5,9.4-7.7,15.8c-0.2,5.1-0.1,10.1-0.5,15.2c-0.3,3.2-1.2,6.4-1.9,9.6c-0.6,2.7-1.7,5.2-3.2,7.5
		c-2,3.2-4.9,5.6-8.5,6.8c-2.6,0.9-5,2.3-7.2,4c-2.1,1.6-3.4,3.8-3.3,6.5c0,1.7,0.6,3.4,1,5.2c0.1,0.4,0.2,0.7,0.1,1.2
		c-0.3-0.4-0.6-0.8-0.9-1.2c-2.3-4.2-1.5-9.8,2.9-12.8c2.9-2,6.2-3.4,9.3-5c2.5-1.3,4.6-3.3,5.9-5.7c2.3-4,3.1-8.4,4.1-12.8
		c0.9-3.7,0.9-7.4,0.7-11.2c-0.1-2.1,0.1-4.1,0.2-6.2c0.1-1.5-0.1-3.1,0.3-4.5c0.6-2.3,1.5-4.4,2.2-6.6c0.1-0.3,0.2-0.5,0.3-0.7
		c-2.6-0.9-4.9-0.7-6.2,1.5c-0.9,1.6-1.7,3.2-2.4,4.9c-0.7,1.9-1.2,3.8-1.7,5.7c-0.2,1-0.3,2.1-0.3,3.1c-0.1,4.1,0,8.2-0.3,12.3
		c-0.2,3-0.6,6-1.1,9c-0.1,0.9-0.7,1.7-1.3,2.6c0.1-1.4,0.3-2.8,0.4-4.2c0.3-2.9,0.6-5.7,0.7-8.6c0.2-4,0.1-8.1,0.3-12.1
		c0.1-1.5,0.4-3,0.8-4.4c0.9-3.2,1.8-6.5,3.8-9.3c1.5-2.2,3.6-3,6.1-2.2c0.5,0.2,1,0.6,1.5,0.9c0.6-0.8,1.3-1.6,1.9-2.4
		c2.4-2.9,5.5-4.5,9.1-5.1c1-0.2,2,0,2.9,0c0.4,0,1-0.1,1.2-0.4c1.6-2,3.7-3.4,5.9-4.6c1.3-0.7,2.8-1.1,4.3-1.3
		c2.4-0.3,4.8-0.3,7.2,0.4c1,0.3,1.6,1.1,1.5,1.9c-6.9-2.2-12.9-1.2-17.9,4.5c0.9,0.3,1.6,0.6,2.4,0.9c0.2,0.1,0.6-0.1,0.8-0.3
		c2.7-2.4,6-3.4,9.6-3.4c0.6,0,1.1,0.3,1.7,0.5C142.2,40.2,142.2,40.3,142.2,40.3z"/>
	<path id="XMLID_320_" d="M167.4,141.1l-0.1-1c2,1.1,3.5-0.2,5.1-0.9c1.2-0.5,2.3-1.3,3.5-1.9c0.6-0.3,1.3-0.5,2-0.7
		c0.4-0.2,0.9-0.4,1.3-0.6l-0.1-0.3l1.7,0.8c0-0.4,0-0.6,0-1l2.1,1c-0.1-0.5-0.2-0.7-0.3-1.2c2.3,1.7,4.4,0.4,6.5,0.2
		c2-0.2,4.1-0.7,5.6-2.4c0.1-0.1,0.2-0.1,0.4-0.2c0.1,0,0.3,0,0.4,0c-0.1,0.3-0.1,0.5-0.2,0.7c-0.2,0.5-0.9,0.8-0.2,1.4
		c0.1,0-0.3,0.5-0.4,0.8c-1.2,2.1-2.5,4.2-3.7,6.3c-0.5,0.9-1.1,1.9-1.6,2.8c-0.2,0.3-0.4,0.7-0.6,1l-0.6-0.4c1.5-2.9,2.6-6,4.5-8.6
		l-13.4,10.7l-0.1-0.3c-0.4,0.1-0.8,0.2-1.1,0.4c-0.4,0.4-0.7,1-1.5,0.6c-0.1-0.1-0.5,0.2-0.7,0.3c-2.9,0.9-5.8,2-8.7,2.8
		c-1.4,0.4-2.9,0.3-4.3,0.4c-0.7,0-1.4,0-2.2,0c0.6,1.5,2,1.7,3.3,2.6c-1.2,0.1-2.4-0.3-3.4-1.1c-2.1-1.7-4-3.5-6.1-5
		c-1.1-0.8-2.6-1.2-3.9-1.8c-0.4-0.1-0.7-0.3-1-0.6c0.3-0.1,0.6-0.3,0.9-0.3c2.3-0.4,4.5-1.1,6.5-2.3c2.5-1.3,5-2.4,7.9-2.1
		C165.6,141.4,166.5,141.2,167.4,141.1z M164.4,144.5c-0.8-0.7-1.1-2.2-2.5-1.7c-1,0.3-1.2,1.2-1.2,2.3c-0.6-0.4-1.1-1.1-1.6-1.1
		c-1-0.1-0.6,0.9-0.9,1.5c-0.9-1-1.5-0.8-2.2,0.3l-1.2,0.1c0.1,0.5,0.1,1.1,0.3,1.5c0.1,0.3,0.6,0.5,0.9,0.7c0.4-0.8,0.8,0,1.1,0.1
		c0.7,0.2,1.3,0.5,2.1,0.7c0-0.6-0.1-0.9-0.1-1.3l0.3-0.2c0.3,0.5,0.7,0.9,1.1,1.3c0.2,0.2,0.7,0.4,0.8,0.2c0.2-0.2,0.3-0.6,0.5-1
		c0-0.2,0-0.4,0-0.6l1.7,1.5l1.3-2.4c0.2,1.5,1.4,1.4,2.4,1.2c1.1-0.2,2.6,0,3-1.6c1.5,0.8,5-0.5,5.3-2c1,0.6,1.9,0,2.8-0.4
		s1.9-0.8,1.6-2.3c0.7,1.1,1.7,1.1,2.5,0.8c0.4-0.1,0.6-1.1,0.9-1.6c0.4,0.6,1,0.4,1.5-0.1c0.4-0.4,0.8-1,1.2-1.5
		c1,0.2,1.7-0.1,2.1-1.2c1.5,0.2,2.1-0.1,2.4-1.4c-1.7,0.3-3.4,0.6-5,0.9c-0.2,0-0.3,0.2-0.5,0.2c-0.5,0-1.1-0.2-1.6,0
		c-0.4,0.2-0.6,0.8-0.9,1.3c-0.6-0.6-0.9-1.4-2.2-1.1c-1.3,0.3-1.3,1-1.5,1.9c-2.8-0.9-3.4-0.4-4.2,3c-0.9-0.8-1.6-2-3.1-1.6
		c-1.3,0.4-2.1,1.2-2.4,2.6C167.5,141.8,165.6,142.2,164.4,144.5z M180.3,144.8c2.6-1,4.7-2.9,6.8-4.7c-0.4,0-1,0-1.2,0.2
		c-0.7,1.3-2.6,1.1-3.1,2.6c-0.1,0.2-0.4,0.3-0.6,0.3c-1.6-0.2-2.7,0.8-3.9,1.4c-0.7,0.4-1.7,0.5-2.3,1c-1.4,1.3-3,2-4.8,1.9
		c-0.2,0-0.4,0.1-0.6,0.2c-1.7,1.1-3.5,1.2-5.4,0.8c-0.2,0-0.6,0-0.8,0.2c-0.6,0.9-1.3,1.2-2,0.6c-0.8,0.2-1.4,0.5-1.9,0.5
		c-0.9,0-1.8-0.3-2.7-0.4l-0.1,0.4c1.2,0.7,2.3,1.4,3.9,1c0.8-0.2,1.9,0.3,2.8-0.3c0.1,0,0.2,0.1,0.3,0c1.5-0.2,2.9-0.4,4.3-0.5
		c0.1,0,0.1-0.1,0.2-0.1c0.5-0.2,0.9-0.5,1.4-0.6c1.4-0.4,2.8-0.6,4.1-1.1c1.2-0.5,2.6-0.8,3.2-2.3
		C179.4,146.4,179.8,145.4,180.3,144.8z"/>
	<path id="XMLID_151_" d="M99.3,107.3c0.2,0.1,0.4,0.1,0.6,0.2c5.4,0.1,10.6-0.4,15.1-3.7c0.8-0.6,1.4-1.3,2.1-1.9
		c0.2-0.2,0.5-0.2,0.7-0.3c0,0.3,0,0.7-0.1,0.8c-1.6,1.3-3.2,2.8-5,3.9c-3.3,2-7,2.5-10.8,2.4c-0.9,0-1.8,0-2.7,0
		c-0.8,0-1.3,0.3-1.6,1c-1.4,3-1.5,6.2-0.7,9.3c1.1,4.4,1,8.6-1,12.7c-1.1,2.2-2.9,3.2-5.2,3.5c3.6-1.8,4.8-5,5.4-8.6
		c0.5-3,0-6-0.5-9c-0.6-4.2-0.2-8.3,3-11.4c1.9-1.9,4.1-3.5,6.8-4c2.5-0.5,4.9-1.3,6.9-3c1.8-1.5,2.6-3.6,3.1-5.7
		c1.3-5.5,2-11.2,1.9-16.9c-0.1-5,0.2-10.1,0.4-15.1c0.2-3.7,1.7-7.3,4.3-10c2.1-2.2,4.9-2.6,7.7-2.2c1.4,0.2,2.7,0.9,4,1.4
		c2.7,1.1,4.3,3.5,6.1,5.6c0.1,0.1,0.2,0.3,0.2,0.4c0,0.4,0,0.7,0,1.1c-0.3-0.2-0.6-0.4-0.9-0.6c-2.2-2.2-4.1-4.8-7.2-6
		c-2.7-1.1-5.4-1-8,0.1c-0.7,0.3-1.2,0.8-1.6,1.3c-1.8,2.5-3.4,5-3.4,8.2c-0.1,5.3-0.6,10.5-0.3,15.8c0.3,5.9-0.6,11.6-1.9,17.3
		c-1.1,4.9-4.1,8.1-9.1,9.1c-2.6,0.5-5.1,1.7-7.2,3.3C100.2,106.4,99.8,106.8,99.3,107.3z"/>
	<path id="XMLID_150_" d="M114.2,171.6c-0.2,0.3-0.4,0.5-0.5,0.6c-2.8,1.1-3.6,3.6-4.1,6.2c-0.3,1.9-0.3,3.9-0.4,5.9
		c0,0.5-0.1,1-0.2,1.9c1.1-1.4,1.2-2.8,1.5-4.1c0.3-1.3,0.3-2.8,0.7-4.1c0.9-3.3,4.1-6.6,8.3-6c1.2,0.2,2.3,0.4,3.6,0.1
		c1.5-0.4,2.8-1.2,3.8-2.4c2.3-2.6,3.7-5.9,4.1-9.4c0.2-1.5,0.3-3.1,0.4-4.6l0.3-0.1c0.2,0.6,0.4,1.2,0.4,1.8c0,5.1-1.5,9.6-5,13.3
		c-0.4,0.4-0.7,0.9-1,1.4c0.6-0.3,1.2-0.6,1.7-0.9c2.9-2.1,4.4-5.2,5.7-8.4c0.8-2,1.1-4.2,1-6.4c-0.1-2.6-0.1-5.2-0.2-7.7
		c0-0.4-0.3-0.9-0.5-1.3c-0.4-1-0.9-1.9-1.2-2.9c-0.1-0.3,0-0.7,0-1.3c1.7,2.6,3.1,5.1,4.8,7.3c1.7,2.2,3.8,4,5.7,6.1
		c-2.8-1.9-5.5-4.1-7.9-6.7c0.1,2.8,0.2,5.4,0.3,8c0.1,3.2-1.1,5.9-2.4,8.6c-0.9,2-2.2,3.7-3.9,5.2c-1.5,1.3-3.2,2.1-5.2,2.2
		c-1.2,0.1-2.5,0-3.7-0.3c-4-0.9-7.8,1.8-8.4,5.9c-0.4,3.1-1,6.2-2.6,8.9c-1.1,1.8-2.4,3.6-4.2,4.6c-1.5,0.9-3.3,1.2-5,1.6
		c-2.3,0.5-4.8,0.3-7-0.6c-4.5-1.9-8.8-1.3-13,1.2c-0.2,0.2-0.5,0.2-0.8,0.1c0.5-0.5,1-1.2,1.6-1.6c3-2,6.4-2.5,9.9-1.6
		c1.9,0.5,3.7,1.2,5.6,1.5c2.7,0.4,5.3-0.4,7.8-1.4c0.6-0.3,1.2-0.9,1.6-1.5c1.5-2.4,2-5,2.2-7.8c0.2-2.3,0.2-4.7,1-6.9
		c0.6-1.4,1.3-2.7,2.5-3.6C112.4,171.6,113.3,171.4,114.2,171.6z"/>
	<path id="XMLID_149_" d="M102.1,179.4c0.4-2,0.9-4.1,1.3-6.1c0.5-2.3,1.1-4.6,2.8-6.3c1.2-1.2,2.5-1.7,4.2-1.5
		c3.3,0.3,6.6,0.6,9.9-0.2c1.1-0.3,2-0.9,2.3-1.9c0.4-1.2,0.9-2.6,0.9-3.8c0-5.5,0.3-10.9,0.9-16.3c0.1-0.9,0.3-1.8,0.4-2.7
		c0.1-0.4,0.2-0.7,0.4-1l0.3,0.1c0,0.8,0.1,1.6,0,2.4c-0.6,6.1-0.8,12.3-0.9,18.4c0,1.3-0.6,2.7-1.1,3.9c-0.6,1.2-1.6,1.9-3,2.3
		c-3.3,0.9-6.6,0.6-9.9,0.4c-3-0.2-4.8,1-5.5,4c-0.8,2.9-1.3,5.9-2.1,8.8c-0.5,1.9-1.1,3.9-2.1,5.6c-1.9,3.5-4.7,5.5-9.6,4.2
		c-1.1-0.3-2.3-0.6-3.5-0.8c-2.3-0.5-4.2,0.1-5.8,1.8c-1,1.1-2.4,1.4-4.1,0.9c0.2-0.1,0.5-0.1,0.7-0.2c0.8-0.4,1.9-0.7,2.5-1.3
		c2.4-2.7,5.3-2.9,8.6-2c1.3,0.4,2.6,0.7,4,0.9c2.7,0.4,5.5-1.8,6.1-4.6c0.7-3.6,0.8-7.2,0.7-10.8c-0.1-2.5,0.4-5.1,1.7-7.3
		c1.5-2.5,3.9-3.8,6.8-3.8c1.4,0,2.9,0.2,4.4,0.3c1.3,0,2.6,0.1,3.8-0.2c1.3-0.3,2-1.6,2.4-2.8c0.2-0.6,0.5-1.2,0.8-1.8
		c0.7,0.9,0.3,1.7,0,2.5c-0.6,1.7-2,3.4-4.4,3.4c-1.2,0-2.5,0-3.7-0.2c-3-0.3-5.9-0.3-8.3,2c-1.6,1.5-2.1,3.6-2.2,5.6
		C101.9,173.8,102,176.6,102.1,179.4L102.1,179.4z"/>
	<path id="XMLID_148_" d="M250.5,102.9c-0.8,1.7-2.2,2-4.8,0.6c-1.9-1.1-3.6-2.8-5.3-4.3c-2.3-2-4.3-4.3-7.2-5.4
		c-0.8-0.3-1.7-0.6-2.5-1c1.8-0.3,3.5,0.3,4.9,1.3c1.9,1.3,3.7,2.8,5.4,4.3c1.7,1.3,3.2,2.8,5,4.1c0.6,0.5,1.5,0.5,2.3,0.8
		c0.6,0.2,1-0.1,1.2-0.7c0.2-0.6-0.2-0.8-0.7-1.1c-0.3-0.2-0.7-0.3-1-0.5c-0.3-0.3-0.5-0.6-0.8-0.9c0.1-0.1,0.2-0.2,0.3-0.3
		c0.5,0.3,1,0.5,1.5,0.8c0.8,0.5,1.6,1.2,2.5,1.6c1.6,0.8,2.1,2.2,2.3,3.7c0.4,3-1.5,6.2-4.4,7.3c-1.5,0.6-3.1,1.2-4.7,1.4
		c-1.5,0.1-3.2-0.2-4.7-0.5c-2.5-0.6-5-1-7.1-2.6c-0.2-0.2-0.5-0.5-0.7-0.7l0.2-0.2c0.3,0.1,0.5,0.1,0.8,0.2c3.1,1.7,6.6,2.5,10,2.8
		c1.6,0.2,3.3-0.5,4.9-1c0.7-0.2,1.3-0.6,1.9-1c-5,0.6-9.5-0.6-13.2-4c0-0.1,0-0.2,0.1-0.3c0.3,0.1,0.6,0,0.9,0.2
		c0.8,0.4,1.5,0.9,2.3,1.3c2.5,1.3,5.3,2,8.2,1.8c1.7-0.1,3-1,3.9-2.6c-3.7,1-7.2,0.8-10.5-1.3c-1.5-0.9-2.7-2.2-4.1-3.4
		c-2.6-2.2-5.2-4.6-8-6.7c-1.1-0.8-2.3-1.2-3.7-1.4c-2.8-0.2-5.7-0.3-8.4,1c-0.8,0.4-1.6,1.1-2.3,1.6c-0.2,0.2-0.5,0.3-0.7,0.4
		c0-0.3,0-0.7,0.2-0.9c0.8-0.7,1.5-1.5,2.4-2c2-1.2,4.3-1.3,6.5-1.2c0.8,0,1.6,0,2.7,0c-4.3-2.1-8.3-1.2-12.4,0.3
		c0.1-1.1,0.8-1.2,1.3-1.5c3.3-1.3,6.6-1.4,10.1-0.3c2.9,0.9,5.1,2.8,7.3,4.7c2.9,2.5,5.7,5.2,8.6,7.7c1.8,1.6,4,2.2,6.3,2.3
		c0.7,0,1.5,0,2.2,0c1.4,0,2.3-0.5,2.4-1.6C252.1,104.2,252.3,103.8,250.5,102.9z"/>
	<path id="XMLID_147_" d="M134.3,63.8c-2.3-1.3-4.7-1.2-7.2-1c-2.7,0.3-4.1,2.5-5.9,4c0.3-2,1.6-3.6,3.4-4.4c3.5-1.6,7-1.5,10.5,0.7
		l1-1c-3.8-2.7-7.7-2.2-11.7-1c2-2.5,8.3-2.3,12.4,0.3c0.6-0.4,1.2-0.8,1.9-1.1c0.2-0.1,0.5,0,0.8,0.1c-0.1,0.3-0.1,0.6-0.3,0.7
		c-2.9,2.1-5,4.9-7.2,7.6c-2.5,3.1-3.7,6.7-4.3,10.5c-0.2,1.1-0.7,2.1-1.1,3.1c0,0.1-0.3,0.1-0.7,0.4c0.6-6.5,2.3-12.3,6.8-17.2
		c-2.4-0.4-4.4-1-6.5,0.1c-1.8,0.9-2.8,2.4-3.6,4.1c-0.9,2.2-1.4,4.5-1.3,6.8c0.2,5.7-0.6,11.4-1.7,17c-0.2,1.2-0.6,2.3-1,3.4
		c-0.7,2-1.9,3.8-3.9,4.8c-1.8,0.9-3.7,1.9-5.5,2.8c-0.5,0.2-1,0.2-1.6,0.4l-0.1-0.3c0.6-0.3,1.2-0.7,1.8-1c1.7-1,3.4-1.9,5-2.9
		c1.7-1,2.9-2.7,3.3-4.6c0.6-2.5,1.2-5.1,1.6-7.6c0.4-2.8,0.7-5.7,0.9-8.5c0.1-1.8-0.1-3.7,0-5.5c0.1-2.3,0.7-4.5,1.9-6.5
		c1.9-3.3,4.9-4.6,8.6-4c0.6,0.1,1.1,0.2,1.7,0.4C133.5,64.9,133.5,64.9,134.3,63.8z"/>
	<path id="XMLID_146_" d="M244.9,117.2c0.1,0.5,0.3,0.8,0.3,1.2c0.2,3.2,0.8,6.3,3.1,8.9c1.4,1.5,1.6,2.6,1.5,4.2
		c0.9-0.1,1.5-0.6,1.4-1.4c-0.1-1.1-0.1-2.2-0.4-3.2c-1-3.1-1.4-6.3-0.8-9.5c0.1-0.4,0.2-0.9,0.4-1.3l0.3,0c0,0.3,0,0.7,0,1
		c-0.4,3.3,0,6.7,1.1,9.8c0.4,1.1,0.4,2.4,0.3,3.6c0,1.2-2.1,2.7-3.6,2.9c-1.3,0.1-2.7,0-4.2,0c2.2,2.7,3.1,5.6,2.8,8.9
		c-0.2,1.8-0.2,3.6-1.4,5.4c0-1.5,0-2.9,0-4.2c-0.1-2.5-1.1-4.6-2.7-6.3c-1.5-1.6-3.4-2.9-5.1-4.3c-3.9-3.2-6.6-7.2-7.8-12.1
		c-0.5-2-1.1-4.1-1.3-6.2c-0.2-1.6,0.1-3.2,0.3-4.9c0-0.3,0.3-0.6,0.5-1.1c0.2,0.3,0.3,0.5,0.3,0.6c-1.1,6.5,0.9,12.3,4,17.7
		c1.3,2.2,3.5,4,5.6,5.7c2.1,1.8,4.5,3.2,5.9,5.8c0.1,0.2,0.3,0.3,0.5,0.5c-0.2-1.5-0.8-2.8-1.8-3.9c-1.7-1.9-3.6-3.7-5.3-5.6
		c-2-2.2-4.2-4.4-5-7.5c-0.1-0.2-0.1-0.3-0.1-0.5c0-0.4,0-0.7,0.1-1.1c0.3,0.3,0.6,0.5,0.7,0.8c1.5,4.3,4.9,7.1,7.8,10.3
		c1.3,1.3,2.5,1.6,4.2,1.2c2.2-0.5,2.8-1.5,1.7-3.5c-0.5-0.9-1.1-1.7-1.7-2.5c-1.9-2.6-2.2-5.6-2-8.6c0-0.1,0.1-0.3,0.1-0.4
		C244.6,117.5,244.7,117.4,244.9,117.2z"/>
	<path id="XMLID_145_" d="M126.1,180.9c1.7,0.9,3.4,0.7,5.1,0.3c2.8-0.6,5.2-2.1,6.5-4.8c1.5-3.1,3-6.2,4.5-9.2
		c0.2-0.4,0.5-0.8,0.7-1.2l0.4,0.2c-0.2,0.9-0.3,1.8-0.6,2.7c-1.2,3.4-2.8,6.6-4.9,9.5c-1.8,2.6-4.5,3.8-7.5,4.2
		c-1.5,0.2-3-0.1-4.5-0.3c-1-0.1-2-0.1-3-0.3c-1.5-0.2-2.6,0.5-3.3,1.7c-0.8,1.2-1.6,2.5-2.1,3.8c-1.2,3.3-3.8,5.2-6.8,6.6
		c-3.3,1.6-6.9,2.1-10.5,1.5l-0.1-0.3c1.2-0.2,2.4-0.6,3.6-0.7c3.7-0.1,7.3-1.5,10.2-3.9c0.8-0.7,1.4-1.7,2-2.7
		c1-1.7,1.9-3.5,2.8-5.2c1.4-2.5,3.7-3.3,6.4-3.6c0.4,0,0.9,0,1.3,0c4.5,0.1,7.5-2.4,9.8-5.8c0.9-1.3,1.6-2.7,2.1-4.1
		c1-2.6,1.8-5.3,2.8-8c0.1-0.3,0.4-0.6,0.7-0.9c0.1,0.4,0.4,0.7,0.3,1.1c-0.1,0.9-0.3,1.8-0.6,2.7c-1.1,3.2-1.7,6.7-3.7,9.6
		c-2,2.9-4.5,5.2-7.9,6.3C128.7,180.6,127.4,180.7,126.1,180.9z"/>
	<path id="XMLID_308_" d="M172.5,99.6l-1.7,0.9c0.3-3,5.2-8,8.4-7.9l-1,0.3l0.1,0.4l1.7,0.7l0.6-1.5c0.1,0.3,0.2,0.7,0.4,1.3l1.4-1
		l-0.9-0.4c0.1-0.2,0.1-0.3,0.1-0.3c0.9-0.2,1.7-0.5,2.6-0.4c1.5,0.1,3,0.4,4.5,0.6c0.1,0,0.1-0.1,0.2,0c1.4,0.5,1.4,0.5,2.3,0.2
		c-0.1,0.2-0.1,0.3-0.1,0.4c0,0.1-0.1,0.2-0.2,0.4l1.8,1.3l-0.1,0.4c-0.5-0.1-1.1,0-1.6-0.3c-0.8-0.4-1.6-0.5-2.4,0
		c-0.2,0.1-0.4,0.2-0.7,0.2c-0.4-0.1-0.7-0.2-1-0.4c0.2-0.2,0.5-0.4,0.7-0.5c0.1-0.1,0.2-0.2,0.3-0.3l-2.4,0.6l-0.1-0.3
		c0.2-0.2,0.4-0.5,0.6-0.7c0-0.1-0.1-0.2-0.1-0.2l-1.7,0.5c1.8,1,2.4,2.3,2.1,3.9l5.2-0.4l0.1,0.5c-0.3,0.1-0.6,0.4-0.9,0.4
		c-3,0-5.6,1-8.2,2.3c-1.6,0.8-3.3,1.1-5.1,1.2c-1.1,0-2.2,0.2-3.3,0.2c-0.3,0-0.6,0-0.8-0.2c1.4-1.2,3.1-0.7,4.7-1
		c-0.9-1.2-1.5-2.5-1-4l-0.3-0.1c-1,1.1-2,2.1-3,3.2c-0.8,0.9-1.6,1.7-2.5,2.6c-0.2,0.2-0.6,0.1-0.9,0.2c0.1-0.3,0.2-0.6,0.3-0.8
		C171.3,101,171.9,100.3,172.5,99.6l4.3-4.5l-0.7-0.7C174.5,96,173.2,97.7,172.5,99.6z M180.6,96.9c-0.6-0.4-0.9-0.8-1.2-0.7
		c-0.3,0-0.6,0.4-0.9,0.7c0.3,0.3,0.5,0.7,0.8,0.7S180.1,97.2,180.6,96.9L180.6,96.9z M176.6,94.1c0,0.1,0,0.2,0,0.4l1.8,0.3
		l0.1-0.3l-0.7-1.1L176.6,94.1z M181.6,98.2c0.3-0.3,0.5-0.6,0.5-0.7c-0.1-0.3-0.4-0.5-0.6-0.7c-0.2,0.2-0.5,0.4-0.6,0.7
		C180.9,97.7,181.3,97.9,181.6,98.2L181.6,98.2z"/>
	<path id="XMLID_300_" d="M130.8,117.5c0.9-4.6,4.5-5.8,8.2-6.5c-0.2-1.2-0.3-2.3-0.5-3.6c-1.9,1-3.5,2.7-5,4.4
		c-0.5-0.7-0.9-0.7-1.3,0c-0.5,0.7-1.1,1.4-1.7,2c-0.3,0.3-0.9,0.4-1.3,0.6l-0.2-0.3l2.5-3l-0.8-0.6c1.3-0.1,1.7-0.5,1.9-1.7
		c0-0.1,0.1-0.2,0.2-0.3c0.5-0.4,1.1-0.7,1.4-1.3c0.7-1.1,1.7-1.8,2.7-2.5c3.4-2.3,6.6-2.5,10.5-1.1c1.5,0.5,2.8,1.4,4.2,2.2
		c0.4,0.2,0.7,0.6,1.2,1.1c-1.1,0-1.9,0.1-2.7,0s-1.5-0.4-2.4-0.6v2.9l4.8-0.9l0.1,0.2c-0.4,0.2-0.7,0.5-1.1,0.6
		c-1.6,0.4-3.2,0.6-4.8,1c-1.9,0.4-3.8,0.9-5.7,1.3c-1.2,0.3-2.5,0.5-3.7,0.7c-2.5,0.5-4.5,1.8-5.8,4.1
		C131.3,116.8,131,117.1,130.8,117.5z M149.7,106.2c-0.9-1-3.9-2.2-5.5-2.1C146,105.6,148,105.4,149.7,106.2z M141.5,103.8
		c0.7,0.9,1.4,1.4,2.5,1c0-0.4-0.1-0.7-0.1-1H141.5z M139,106.3c-1.3-1.1-2-0.9-2.7,0.5L139,106.3z M142.2,107.6
		c-0.5-0.4-0.8-0.8-1-0.7c-0.3,0.1-0.6,0.4-0.7,0.8c-0.1,0.2,0.4,0.7,0.5,0.7C141.3,108.3,141.6,108,142.2,107.6z M138.9,105
		l2.2,0.3C140.3,104,140.2,103.9,138.9,105L138.9,105z M134.6,108.6l2.1-0.7C135.6,107.1,135,107.4,134.6,108.6z"/>
	<path id="XMLID_133_" d="M82.8,112.2c-1-0.4-1.5-1.3-1.6-2.3c-0.4-3.9,0.8-7.1,4.4-9.3c3.1-2,6-4.3,8.2-7.4
		c1.5-2.2,2.4-4.8,2.6-7.5c0.3-3.9,0.3-7.7,0.5-11.6c0.1-3.2,0-6.5,0.4-9.7c0.5-3.8,1.2-7.6,2.3-11.3c1.1-3.8,3.8-6.3,7.8-7.1
		c1.5-0.3,3.9,0,5.5,1c-0.8,0.1-1.4,0.4-1.9,0.3c-4.8-0.7-8.8,1.8-10.2,6.3c-1,3.3-1.7,6.6-2,10c-0.4,4-0.2,8.1-0.5,12.1
		c-0.3,4.3,0,8.7-1.1,13c-0.9,3.3-2.4,6.2-5,8.5c-1.7,1.5-3.5,2.8-5.3,4.1c-2,1.5-3.8,3.1-4.2,5.7C82.2,108.7,82,110.4,82.8,112.2z"
		/>
	<path id="XMLID_132_" d="M166,228.6c1.4,0.5,2.8,1.2,4.2,1.3c2.2,0.2,4.5,0.1,6.7,0s4.4-0.4,6.6-0.6c7.4-0.7,13.6-3.5,18.1-9.8
		c2.2-3,4.2-6.1,5.7-9.5c1-2.2,2.7-3.4,4.8-4.1c1.6-0.6,3.3-0.9,4.9-1.2c0.2-0.1,0.5,0.1,0.8,0.1l0.1,0.3c-0.9,0.3-1.7,0.6-2.6,0.9
		c-1.4,0.5-2.9,1-4.3,1.6c-1.4,0.6-2.2,1.7-2.8,3c-2,4.1-4.3,8-7.4,11.3c-1.6,1.7-3.6,3.1-5.4,4.6c-0.3,0.2-0.6,0.4-0.8,0.8
		c0.7-0.3,1.3-0.5,2-0.8c3.7-1.8,6.7-4.3,8.7-8c0.8-1.5,1.8-3,2.6-4.6c1.3-2.5,3.1-4.7,5.8-5.8c0.4-0.2,0.9-0.3,1.4-0.4
		c0.1,0.1,0.1,0.2,0.2,0.3c-0.3,0.2-0.5,0.6-0.8,0.7c-3.3,1.3-4.9,4.1-6.5,7c-1.4,2.5-2.9,4.9-4.7,7.2c-1.9,2.5-4.7,3.8-7.4,5.1
		c-1.4,0.7-2.9,1.3-4.4,1.6c-1.9,0.4-3.9,0.3-5.8,0.5c-3.5,0.3-7,0.5-10.6,0.9c-3.1,0.3-5.9-0.3-8.6-1.9c-0.2-0.1-0.4-0.3-0.6-0.4
		C166,228.7,166.1,228.7,166,228.6z"/>
	<path id="XMLID_131_" d="M209.8,179.5c-1.1-2.3-1.4-4.8-1.7-7.3c-0.2-2.5-0.2-5.1-0.3-7.7l-1.1,0.6c0.5-1.4,0.9-2.6,1.3-3.8
		l-0.4-0.2l-1,1.4l-0.4-0.3c0.6-1.3,1.2-2.6,1.7-3.9l-0.3-0.2l-1.1,1.3c1-2.8,1.9-5.5,2.9-8.3h0.2c-0.3,5.8-0.5,11.6-0.8,17.6
		c1-0.3,1.9-0.4,2.5-0.8c0.6-0.4,1.2-1.1,1.3-1.8c0.3-1.8,0.4-3.7,0.5-5.6c0.1-1.7,0-3.3,0.2-5c0.3-2,1.4-2.5,3.3-2.2
		c2.2,0.4,2.7,0.1,3.2-2.1c0.9-3.5,0.9-7,1-10.5c0.1-2.1,0.3-4.1,0.4-6.2c0-0.2,0.1-0.3,0.3-0.7c0.2,0.6,0.4,1,0.4,1.4
		c0.1,5.5,0.4,11-1,16.4c-0.1,0.6-0.3,1.1-0.6,1.6c-0.7,1.2-1.6,1.6-3.3,1.4c-2.4-0.3-3,0.2-3,2.7c0,1.8,0.2,3.7,0.2,5.5
		c-0.1,1.3-0.3,2.6-0.6,3.8c-0.3,1.3-1.3,2.3-2.6,2.5c-1.2,0.2-1.9,1-1.8,2.2c0,1.2,0.1,2.3,0.3,3.4c0.2,1.5,0.4,3,0.6,4.5
		L209.8,179.5z"/>
	<path id="XMLID_130_" d="M232.4,60c0.5,0,1-0.1,1.5,0c2.7,0.5,5.2,1.6,7.2,3.6c1.7,1.7,1.9,4.1,0.6,6.1c-0.5,0.8-0.8,1.8-1.4,2.6
		c-2.5,3.8-6.1,5.1-10.4,4.4c-3.5-0.6-7-1.5-10.5-2.4c-2.4-0.6-4.8-0.4-7.2,0c-1,0.2-2,0.2-3,0l0-0.3c0.2-0.1,0.4-0.2,0.5-0.3
		c3.7-1.1,7.7-1.2,11.4-0.1c2.4,0.7,4.8,1.4,7.3,1.8c2.5,0.4,5,0.7,7.4-0.5c0.5-0.3,1-0.6,1.5-1.1c-5,0.9-9.3-0.9-13.5-3.1
		c-0.4-0.2-0.7-0.5-1.1-0.8l0.1-0.3c0.4,0.1,0.8,0.2,1.3,0.3c2.8,1.2,5.6,2.4,8.6,2.7c1.7,0.2,3.5-0.1,5.2-0.3
		c0.5-0.1,1-0.6,1.5-0.9c0-0.1-0.1-0.2-0.1-0.3c-0.6,0.1-1.2,0.2-1.7,0.2c-1.8-0.2-3.6-0.4-5.3-0.7c-0.9-0.2-1.9-0.4-2.8-0.7
		c-1-0.3-1.8-0.8-2.1-1.8c1.7,0.5,3.4,1,5.1,1.5c2,0.5,4,1.1,6.1,0.5c0.9-0.2,1.7-0.7,2.6-1.2c0.2-0.1,0.4-0.4,0.4-0.6
		c0.1-1.7,0-3.2-1.6-4.3c-2-1.4-4.1-2.5-6.5-3c-0.4-0.1-0.7-0.2-1.1-0.4L232.4,60z"/>
	<path id="XMLID_129_" d="M204.8,54.4c0.5,0.1,0.9,0.2,1.4,0.3c2.7,0.8,5.4,1.8,8.2,2.3c4.7,0.9,9.5,1.4,14.3-0.3
		c2.6-0.9,4.3-2.6,5.1-5.2c0.5-1.8,1.1-3.7,0.8-5.6c-0.1-0.8-0.5-1.6-0.7-2.4l-0.3,0.1c-0.1,1.1-0.1,2.2-0.4,3.2
		c-1,4.2-3.7,6.8-7.7,8c-0.5,0.1-1,0-1.6-0.2c4-1.7,7.6-3.6,8.3-8.5c-1.7,3.1-4.7,4.7-7.7,6c-3,1.3-6.2,2.2-9.5,1.1
		c0-0.2,0-0.3-0.1-0.5c0.6-0.1,1.2-0.3,1.8-0.2c3.2,0.2,6.1-0.7,8.9-2.1c2-1,3.9-2.1,5.3-4c0.3-0.5,1-0.8,1.6-1.2
		c0.3-0.7-0.5-1.9,0.8-2.7l-3.3-2.7c1.5,0.1,2.9,0.7,3.8,1.8c1.8,2,2.2,4.3,1.8,6.8c-0.2,1.3-0.7,2.6-1,3.8
		c-0.8,3.1-3.1,4.5-5.9,5.5c-3.4,1.3-6.9,1.1-10.5,0.8c-4.6-0.4-8.9-2-13.1-3.7c-0.1-0.1-0.3-0.2-0.4-0.3L204.8,54.4z"/>
	<path id="XMLID_128_" d="M212.9,224c0.7-0.5,1.3-1.1,2-1.4c2.4-1,3.8-2.9,5.2-4.9c1.4-1.8,2.8-3.6,4.5-5.1c1.2-1,2.8-1.4,4.3-2
		c4.7-2,8.5-5,10.1-10.2c0.1-0.3,0.1-0.5,0.1-0.8c-2.1,3.5-4.8,6.2-8.9,7.4c2.1-1.8,4.3-3.4,6.2-5.4c2-2,2.8-4.6,3.2-7.3
		c-2.4,3.8-4.5,8-9.4,9.2l-0.2-0.2c0.3-0.3,0.7-0.6,1.1-0.8c3.3-1.8,5.5-4.5,7.1-7.8c1.2-2.6,2-5.3,2.9-8c0.1-0.2,0.2-0.5,0.3-0.7
		l0.3,0c0,0.6,0,1.1,0,1.7c-0.4,3.4-0.8,6.8-1.2,10.2c-0.6,4.5-2.5,8.3-6.4,11c-1.8,1.2-3.6,2.5-5.8,3.1c-3.2,0.9-5.2,3.3-7,5.9
		c-0.5,0.7-1,1.5-1.6,2.3c-1.4,2-3.4,3.1-5.6,4.1c-0.2,0.1-0.3,0.1-0.5,0.1c-0.2,0-0.4,0-0.6,0C213,224.2,213,224.1,212.9,224z"/>
	<path id="XMLID_127_" d="M205.3,204.5c4.6,0.4,8.4-1.4,12.1-3.5c1.2-0.7,1.7-1.7,1.7-3c0-1.3,0-2.7-0.2-4c-0.3-2.6,0.8-4.9,2.4-6.7
		c1.8-1.9,4-3.5,6.1-5.2c2.5-2,4.6-4.3,5-7.5c0.4-2.7,0.2-5.4,0-8.1c-0.1-2-0.6-4-0.9-5.9c-0.1-0.3-0.1-0.5,0-0.8
		c0.1-0.3,0.2-0.6,0.3-0.9c0.2,0.2,0.5,0.4,0.6,0.7c0.4,1.6,0.9,3.1,1.1,4.8c0.3,2.8,0.4,5.5,0.5,8.3c0.1,3.4-1.5,6.2-3.7,8.6
		c-1.7,1.7-3.7,3.1-5.6,4.6s-3.3,3.2-4.1,5.5c-0.2,0.6-0.3,1.2-0.3,1.8c0,1.8,0,3.5,0,5.3c0,1.2-0.4,2.3-1.3,3.1
		c-3,2.4-6.6,3.9-10.4,4.3C207.4,205.8,206.4,205.3,205.3,204.5z"/>
	<path id="XMLID_126_" d="M126.2,111.4c-0.2,0.7-0.3,1.5-0.7,2.1c-1.7,3.2-3.7,6.1-6.1,8.8c-1.4,1.7-3,3.3-4.4,5
		c-1.7,2.1-2.3,4.7-2.9,7.3c-0.7,3-0.5,5.9-0.7,8.9c-0.1,2.3-0.2,4.6-1.6,6.6c-0.8,1.2-2,1.8-3.5,1.5c-1.2-0.3-2.4-0.7-3.7-0.9
		c-3.8-0.5-6.9,0.8-9.3,3.8c-1.6,2.1-2.8,4.4-3.9,6.8c0.1-0.6,0.2-1.3,0.3-1.9c0.8-3.4,2.4-6.3,5.3-8.3c2.7-1.9,5.7-2.3,8.9-1.4
		c0.9,0.3,1.9,0.5,2.9,0.7c0.9,0.2,1.5-0.2,1.9-1c1.1-1.7,1.3-3.6,1.3-5.6c0.1-3.9,0.2-7.9,1.2-11.7c0.8-2.9,2.3-5.6,4.4-7.8
		c3.1-3.3,5.9-6.9,8.2-10.7c0.4-0.6,0.6-1.2,0.9-1.8c0.2-0.3,0.3-0.5,0.5-0.8L126.2,111.4z"/>
	<path id="XMLID_125_" d="M158.4,34l9.3,0.5c0,0.2,0,0.3,0,0.5c-0.9,0.2-1.8,0.5-2.6,0.5c-2.3,0.1-4.6,0-6.8,0
		c-4.6,0-8.2,1.8-10.8,5.6c-1.9,2.7-3,5.8-4,8.9c-0.1,0.4-0.3,0.7-0.7,0.9c0.1-3.3,1.4-6.3,2.9-9.1c1.6-3,3.8-5.2,7.1-6.4
		c0-0.1,0-0.2,0-0.4c-2.3-0.8-4.5-1.7-6.8-2.4c-2.4-0.7-4.8-0.7-7.6-0.2c0.9-1,1.9-1.3,2.8-1.2c1.8,0.1,3.6,0.1,5.2,0.5
		c2.6,0.7,5,1.8,7.5,2.8c1.2,0.5,3.4-0.2,4-1.3c1.6-3,3.8-5.5,6.1-7.8c1.6-1.6,3.3-3,5.1-4.3c1-0.7,2.4-1,3.7-1.4
		C166.6,22.9,162.2,28,158.4,34z"/>
	<path id="XMLID_124_" d="M233.7,88.5c0.5,0,1.1,0.1,1.6,0.2c2.3,0.5,4.7,1.2,7,1.6c0.7,0.1,1.5,0.1,2.2-0.1
		c1.8-0.3,2.6-1.5,2.6-3.4c-2.2,2.8-5.1,2.3-8,1.7c-3.8-0.8-7.3-2.5-10.7-4.3c-3.4-1.7-7-3-10.8-2.5c-1.7,0.2-3.4,0.9-5.1,1.3
		c-0.3,0.1-0.6,0.2-0.9,0.3l-0.2-0.3c0.4-0.3,0.7-0.6,1.1-0.8c3.4-1.6,6.8-2.2,10.6-1.2c3.3,0.9,6.3,2.3,9.4,3.8
		c3.3,1.6,6.8,2.9,10.7,2.7c2.6-0.1,3.3-1.5,2.8-4c-0.2-0.8-0.4-1.6-0.6-2.5c1.9,1.6,2.8,3.7,3.2,5.9c0.2,1.1,0.2,2.3,0,3.4
		c-0.2,1.9-3.4,3.7-5.2,3.1c-0.1,0-0.2-0.2-0.4-0.4c2.5-0.7,5.4-0.6,5-4.5c-1,1.5-2.3,2.4-4,2.5c-1.1,0-2.2-0.1-3.2-0.4
		c-2.1-0.5-4.3-1.1-6.4-1.7c-0.2-0.1-0.5-0.2-0.7-0.4L233.7,88.5z"/>
	<path id="XMLID_123_" d="M239.8,163.5c0.4,1.6,0.8,3.2,1,4.8c0.5,3.2,0.5,6.4,0,9.6c-0.5,3-2.4,5.3-4,7.7c-1,1.6-2.4,3-3.4,4.5
		c-1.3,2-2.6,4-3.8,6c-0.4,0.7-0.6,1.6-0.9,2.5c-0.5,1.7-0.8,3.5-1.3,5.2c-0.6,1.8-1.9,2.9-3.4,3.9c-4.1,2.8-5,4.2-6.4,8
		c-0.2-1.7,0.6-4.3,1.9-5.5c1.5-1.4,3-2.6,4.6-3.8c1.2-0.9,2.1-2,2.5-3.5c0.3-1.4,0.8-2.7,1-4.1c0.5-3.1,2.5-5.5,4.1-8
		c2.1-3.2,4.4-6.3,6.6-9.5c1.2-1.8,1.7-3.9,1.7-6.1c0-2.1,0.1-4.3,0-6.4c-0.1-1.4-0.4-2.7-0.6-4.1c-0.1-0.4,0.1-0.9,0.1-1.3
		L239.8,163.5z"/>
	<path id="XMLID_122_" d="M244.4,150.6c1.9-0.9,1.5-2.9,2.5-4l0.3,0.1c0,0.3,0,0.7-0.1,1c-0.5,3-1.8,5.7-3.4,8.3
		c-1.4,2.3-3,4.4-5.2,6c-1.3,0.9-2.7,1.5-4.4,1.3l-0.2-0.3c0.6-0.4,1.2-0.8,1.9-1.1c3-0.9,4.8-3.1,6.4-5.6c0.1-0.2,0.2-0.4,0.2-0.6
		c-2.5,1.6-4.5,3.5-7.4,4c-0.2,0-0.3-0.1-0.8-0.4c4.2-1.9,7.8-4.2,10.7-7.7c-3.3,0.5-5.9-0.9-6.7-3.8c-0.7-2.2-1.6-4.5,0.2-6.6
		c-0.3,2.9,0,5.7,1.9,8.1c0.8,1,2,1.5,3.2,1.4c-0.6-1.3-1.3-2.5-1.9-3.8c-1-2.1-1.3-4.3-1.1-6.6c0-0.2,0-0.5,0.1-0.7
		c0.2-0.2,0.4-0.5,0.6-0.7c0.1,0.3,0.2,0.5,0.3,0.8c0.2,1.5,0.2,3.1,0.6,4.5C242.8,146.6,243.6,148.5,244.4,150.6z"/>
	<path id="XMLID_121_" d="M199.7,219.9c-0.1,0.2-0.2,0.4-0.4,0.5c-2.8,1.5-5.8,2.2-8.9,1.4c-0.7-0.2-1.4-0.6-2.1-1
		c-2.1-1.2-3.8-1-5.6,0.5c-1.5,1.3-3,2.6-4.6,3.8c-0.7,0.5-1.7,1.1-2.6,1.1c-3.1,0.3-6.3,0.5-9.1-1.3c-2.7-1.8-5.5-1.6-8.4-1.1
		c-4.4,0.7-7.9,3-10.8,6.4c-0.2,0.2-0.4,0.3-0.6,0.4c0.1-0.2,0.2-0.4,0.3-0.6c3.7-6,9.3-7.9,16-7.7c1.7,0.1,3.2,0.9,4.6,1.8
		c2.8,1.6,5.8,1.8,8.7,0.8c1.5-0.5,2.7-1.8,3.9-2.8c0.7-0.5,1.2-1.3,1.9-1.8c1.9-1.4,4.2-2,6.2-0.7c3.4,2.3,6.7,1.5,10.1,0.5
		c0.3-0.1,0.6-0.2,1-0.3C199.5,219.8,199.6,219.8,199.7,219.9z"/>
	<path id="XMLID_120_" d="M181.4,65.8c0.2-0.6,0.3-0.9,0.5-1.5c0.6,1.2,1.1,2.2,1.5,3.2l0.3-0.1v-2.3l0.3-0.1c0.6,1.1,0.6,2.6,2,3.5
		c0-1.1-0.8-2,0.2-3c0.4,1.5,0.7,3,2,4c0.1-1,0.1-1.8,0.2-2.5l0.3,0c0.5,1.3,0.8,2.6,1.4,3.7c0.6,1.2,1.5,2.3,2.4,3.5
		c-1.1,0.2-1.5-0.5-2.1-1.1c-0.9-0.8-1.6-1.7-2.6-2.3c-1.1-0.6-2.3-1.1-3.6-1.4c-1.4-0.3-2.5-1-3.3-2.2c-1.1-1.6-1.9-3.4-3.1-4.9
		c-0.9-1.2-1.9-2.4-3.1-3.1c-0.8-0.5-2.1-0.6-3.1-0.4c-1.4,0.2-2.9,0-4.2-0.6c-0.8-0.4-1.6-0.7-2.3-1.1c-0.3-0.2-0.6-0.4-0.9-0.7
		c0-0.1,0.1-0.2,0.1-0.3l1.8,0.2c0-0.5,0.1-0.9,0.1-1.4c0.9,1,1.3,2.2,2.9,2.5c-0.4-0.7-0.7-1.3-1-1.8l0.2-0.2
		c1,0.7,1.6,1.9,2.9,2.2c-0.2-0.7-0.4-1.3-0.6-1.9c0.3,0,0.4-0.1,0.4,0c0.8,1.2,2.1,1.4,3.3,2c1.5,0.8,2.8,2.2,4,3.5
		C179.4,62.6,180.3,64.2,181.4,65.8z"/>
	<path id="XMLID_119_" d="M230.1,57.9c-2.8,3.1-6.2,5-10.2,6c-3,0.8-6,1.4-9,1.4c-3.9-0.1-7.7-0.5-11.2-2.7
		c-1.2-0.8-2.3-1.6-3.3-2.5c-0.9-0.8-1.8-1.7-2.7-2.5c-1.6-1.5-3.7-1.8-5.8-1.8c-1.2,0-2.3,0.2-3.4,0.2c-0.3,0-0.7-0.3-1-0.4
		c0.3-0.2,0.6-0.5,0.9-0.5c2.6-0.6,5.1-0.7,7.6,0.1c2,0.6,3.3,2,4.6,3.4c2.7,2.6,5.8,4.4,9.4,4.9c4.3,0.6,8.5,0.5,12.7-0.6
		c3.2-0.9,6.2-2.1,8.9-4C228.3,58.5,229.3,58.3,230.1,57.9z"/>
	<path id="XMLID_118_" d="M105.7,93.8c0.1-0.3,0.2-0.7,0.4-1c1.9-3.1,2.4-6.7,3.3-10.1c1.2-4.4,1.5-8.9,1.5-13.5
		c0-3.5,0.3-7,0.8-10.4c0.8-5,2.9-9.4,7.2-12.5c1.1-0.8,2.5-1.1,3.7-1.5c0.2-0.1,0.3-0.1,0.5,0c0.3,0.2,0.5,0.4,0.8,0.6
		c-0.2,0.2-0.4,0.5-0.7,0.6c-1.2,0.5-2.7,0.7-3.7,1.5c-3,2-4.6,5-5.7,8.3c-1,2.9-1.5,5.9-1.5,9c0,4.1-0.3,8.1-0.6,12.2
		c-0.3,3.5-1.1,6.8-2.4,10.1c-0.8,1.8-1.4,3.7-2.2,5.4c-0.2,0.6-0.8,1-1.1,1.5L105.7,93.8z"/>
	<path id="XMLID_117_" d="M94,119.5c-1-2.7-0.8-5.6-0.7-8.5c-3.1,2.2-3.7,5.8-5.6,8.7c0-0.4,0.1-0.8,0.1-1.2
		c0.6-2.9,1.9-5.5,3.9-7.7c0.2-0.2,0.3-0.4,0.5-0.5c1.4-0.6,1.8-1.9,2.3-3.1c1-2,2.5-3.6,4.4-4.8c5.6-3.4,8.8-8.6,11.1-14.5
		c1.4-3.5,2.5-7.1,3.1-10.8c0.1-0.9,0.2-1.7,0.6-2.5c0,1.1,0.1,2.1,0,3.2c-0.3,3.7-1.6,7.2-2.9,10.7c-1.5,4-3.6,7.7-6.4,10.8
		c-1.6,1.7-3.5,3.2-5.4,4.5c-2.4,1.6-3.9,3.7-4.5,6.5c-0.5,2.2-0.8,4.5-0.4,6.7C94.1,117.7,94,118.6,94,119.5z"/>
	<path id="XMLID_116_" d="M213.7,47.9c0.9-0.9,1.9-1.6,2.7-2.6c3.6-4.2,7.4-8.2,9.4-13.6c0.7-1.9,1.1-3.9,0.1-5.9
		c-0.4-0.8-1-1.3-2-1.3c-1.1,0-2.1-0.2-3.2-0.4v-0.4c0.2-0.1,0.4-0.2,0.7-0.2c0.6,0,1.2,0,1.8,0c2-0.2,3.2,0.8,4,2.6
		c0.5,1.3,1.4,2.5,1.8,3.8c0.7,2.1,0.7,4.4,0.1,6.5c-0.4,1.4-1,2.8-1.5,4.2c-0.1,0.3-0.4,0.5-0.7,0.7c0.8-3.1,2-6,1.4-9.3
		c-0.8,3.2-2.3,6-4.8,8.2c1.2-2.7,3.6-5,3.4-8.4c-2.7,6.7-7.4,11.9-12.8,16.4L213.7,47.9z"/>
	<path id="XMLID_115_" d="M147.9,57.3c-0.1-0.5-0.2-1-0.2-1.5c-0.1-3.1,0-6.2,0.8-9.2c0.2-0.6,0.5-1.1,0.8-1.5
		c1-1.3,2.3-1.4,3.5-0.3c1.3,1.1,2.5,2.3,3.7,3.3c0.8,0.6,1.7,1.2,2.7,1.6c0.7,0.4,1.3,0.1,1.7-0.6c0.3-0.5,0.5-1,0.8-1.6
		c0.7-1.4,1.6-1.8,3.1-1.5c2,0.5,4.1,1.1,6.2,1.3c3.1,0.3,6.1,0,8.9-1.7c1.1-0.7,2.3-1.1,3.5-1.7c0.1,0,0.2,0,0.5,0
		c-3,2.4-5.9,4.3-9.8,4.5c-3.2,0.2-6.1-0.6-9.1-1.3c-1.4-0.3-1.8-0.3-2.4,1.1c-1.4,3.1-2.6,3.5-5.9,1.3c-1.5-1-2.7-2.4-4-3.6
		c-1.4-1.2-2.2-1.1-2.6,0.5c-0.6,2.5-0.9,5-1.3,7.5c-0.1,0.8-0.1,1.6-0.2,2.3c0,0.4-0.2,0.7-0.4,1.1L147.9,57.3z"/>
	<path id="XMLID_114_" d="M232.3,104.9c-0.7-0.5-1.5-1-2.2-1.6c-0.8-0.8-1.9-1.1-2.9-0.8c-2.1,0.5-4.2,1.1-6.2,1.6
		c1.1,2.6,0.7,4.9,0,7.1c-0.8,2.6-2.7,4.5-4.9,6.1c-0.3,0.2-0.8,0.2-1.3,0.3c-0.1-0.4-0.1-0.8-0.1-1.3c0.1-1.4,0.3-2.8,0.5-4.3
		c1,1,0.6,2.3,0.7,3.5c0.7-0.1,1-0.5,0.9-1.2c-0.1-1.3-0.3-2.7-0.5-4c0-0.2-0.1-0.4-0.1-0.6c1,0.5,1.1,0.8,1.8,4.2
		c0.4-1.1,0.4-2.2,0.1-3.3c-0.3-1-0.7-1.9-0.9-3c1.2,0.4,1.3,1.8,2.1,2.7c0.4-1.7-0.8-2.7-1.4-4.2c1.3,0.6,1.8,1.7,2.5,2.6l0.3-0.1
		c-0.4-1-0.9-1.9-1.4-3l1.1,0.6c0-1.3-0.1-1.4-1.2-1.4c-1,0-2-0.2-2.9-0.4c-0.4-0.1-0.7-0.5-1.1-0.8c0.1-0.1,0.1-0.2,0.2-0.4
		c0.6,0.1,1.1,0.3,1.7,0.4c1.9,0.4,3.7-0.1,5.4-0.8c1.7-0.6,3.5-0.9,5.2-1.3c0.9-0.2,1.7,0.2,2.3,0.8c0.8,0.8,1.7,1.6,2.6,2.4
		L232.3,104.9z"/>
	<path id="XMLID_113_" d="M207.1,228.9c2.8-2.4,4.8-5.6,5.7-9.2c0.4-1.4,0.7-2.8,1-4.3c1-4.1,3.2-7.2,6.9-9.3c1.3-0.8,2.4-1.9,3.4-3
		c0.8-0.8,1.2-2,1-3.1c-0.5-3.2,0.9-5.8,2.5-8.3c1.4-2.1,3.2-3.9,3.7-6.5c0.3,1.2,0,2.6-0.8,3.9c-0.5,0.8-1.1,1.6-1.7,2.4
		c-1.8,2.6-2.9,5.3-2.6,8.5c0.2,2.4-1,4.1-2.8,5.4c-1.3,1-2.7,1.9-4.1,2.9c-2.7,2-3.9,4.9-4.5,8c-0.7,3.3-1.6,6.5-3.6,9.3
		C210.3,227.1,208.3,228.6,207.1,228.9z"/>
	<path id="XMLID_112_" d="M60.5,166.4c-2-0.6-3.4-2.4-3.4-4.4c-0.1-4.5,1.9-8.1,4.9-11.2c2.4-2.4,5.1-4.4,6.9-7.3
		c1-1.6,1.8-3.3,2.7-5c0.3-0.5,0.2-0.9-0.4-1.1c-0.3-0.2-0.5-0.4-0.6-0.8c1.9,0.6,3.8,1.3,5.8,1.6c2,0.4,4.1,0.5,6.2,0.4
		c2-0.1,4.1-0.6,6.2-0.7c-0.6,0.3-1.1,0.8-1.7,1c-3.4,1.1-7,1.3-10.5,0.6c-1.3-0.3-2.5-0.9-3.7-1.4c-0.7,1.3-1.2,2.7-1.9,3.9
		c-1.2,1.9-2.6,3.8-4.1,5.6c-1.3,1.5-2.9,2.7-4.3,4.2c-2.9,3.1-4.8,6.6-4.5,11c0,0.6,0.4,1.3,0.8,1.8
		C59.3,165.1,59.9,165.7,60.5,166.4z"/>
	<path id="XMLID_111_" d="M181.5,84.9c-0.8-0.2-1.3,0.1-1.8,0.8c-0.7,1.1-1.5,2.1-2.4,3c-0.3-1.7,0.9-2.8,1.5-4.1
		c-1,0.1-2.9,2.6-3.7,4.7l-0.3,0c0-0.3-0.1-0.6,0-0.8c0.5-1,1-2,1.5-3c0.1-0.2,0.3-0.4,0.4-0.7l-0.2-0.2c-0.3,0.2-0.8,0.3-1,0.6
		c-0.8,1.5-1.6,3-2.4,4.4c-0.1,0.2-0.2,0.4-0.3,0.6c-0.7-1.1-0.2-2.8,1.4-5.4l-0.7-0.3c1.6-1.2,3.5-0.5,5.2-1l0-0.3l-1.5-0.5
		c0-0.1,0-0.3,0.1-0.4c0.7,0,1.4,0,2.1,0.1c0.7,0.1,1.4,0.4,1.8-0.5c0.1-0.1,0.4-0.2,0.6-0.2c2,0.4,3.9,0.9,5.4,2.4
		c0.2,0.2,0.3,0.4,0.4,0.6c-0.6,0.4-1.1,0.7-1.6,1c-1.2,0.8-2.4,1.7-3.6,2.5c-0.2,0.2-0.7,0-1,0c0.1-0.3,0.1-0.7,0.4-0.9
		c0.6-0.6,1.3-1,1.9-1.6c0.2-0.2,0.5-0.4,0.8-0.7c-0.7-0.2-0.7-0.2-2.7,1.3c-0.8,0.6-1.5,1.4-2.2,2.1l-0.3-0.2
		c0.5-0.7,1-1.4,1.4-2.2C181.1,85.7,181.3,85.3,181.5,84.9l1.3-0.4c0-0.1,0-0.3,0-0.4l-1.6-0.1L181.5,84.9z"/>
	<path id="XMLID_110_" d="M180.2,59c0.6-0.2,1.2-0.5,1.9-0.7c2.9-0.8,6.2,0.4,8.1,2.7c2,2.4,3.4,5.1,3.9,8.2
		c0.3,2.1,0.5,4.2,0.5,6.3c0,2.8,1.5,4.7,4.5,4.9c2.7,0.2,5.3-0.4,7.7-1.4c0.6-0.2,1.2-0.4,2-0.7c-3.2,2.9-6.6,3.9-10.6,3.2
		c-3-0.5-4.7-2.5-4.8-5.5c-0.1-2.5-0.3-4.9-0.6-7.4c-0.4-2.8-1.7-5.2-3.7-7.1c-2-1.9-4.4-3.1-7.3-2.2c-0.5,0.1-1,0.2-1.5,0.2
		L180.2,59z"/>
	<path id="XMLID_109_" d="M176.6,45.1c-2.7,1.6-5.5,1.5-8.4,0.7c-1.4-0.4-2.8-0.9-4.1-1.4c-0.6-0.3-1.3-0.1-1.7,0.5
		c-0.3,0.4-0.6,0.7-0.9,1.1c-1.6,1.9-3.4,2-5.3,0.4c-1.4-1.2-2.8-2.4-4.4-3.5c-1.4-1-1.7-0.9-2.7,0.6c-1.2,1.8-1.5,4-1.8,6.1
		c-0.2,1.3-0.2,2.7-0.4,4.1c0,0.2-0.3,0.5-0.5,0.7c-0.2-0.2-0.5-0.4-0.5-0.6c0.3-3.7,0.2-7.6,2.4-10.9c1.2-1.8,1.8-2,3.7-0.9
		c1.5,1,2.9,2.2,4.4,3.3c0.7,0.5,1.5,0.9,2.3,1.1c0.4,0.1,1.1-0.2,1.5-0.5c0.5-0.4,0.9-0.9,1.3-1.4c0.8-1.1,1.9-1.4,3.1-0.9
		c1,0.4,1.9,0.7,2.8,1.1c2.4,1,5,0.9,7.5,0.7C175.6,45.2,176.1,45.1,176.6,45.1z"/>
	<path id="XMLID_108_" d="M116.4,42.4c0.6-0.7,1.2-1.6,1.9-2.2c2.8-2.3,5.9-3.7,9.6-3.7c0.3,0,0.7-0.4,0.9-0.6
		c1.8-2.4,3.7-4.7,6.5-5.9c4.2-1.9,8.5-2.2,12.8-0.4c1.3,0.6,2.7,1,4,1.6c0.3,0.1,0.5,0.5,0.7,0.7c-0.4,0.1-0.7,0.2-1.1,0.1
		c-1.9-0.6-3.7-1.4-5.6-1.9c-5.4-1.7-12.1,0-15.4,5c-1.1,1.7-2.5,3.2-4,4.7l0.8-2.2c-2.1,0.2-4.1,0.8-6,1.8c-1.7,1-3.3,2.2-5,3.4
		L116.4,42.4z"/>
	<path id="XMLID_107_" d="M69.2,134.2c1.1,0.1,2.2,0.2,3.4,0.5c0.6,0.1,1,0,1.3-0.6c1.8-3.2,4.5-5.3,7.8-6.6c1.9-0.8,4-1,6.1-0.7
		c0.1,0,0.3,0.1,0.4,0.1c0.1,0,0.1,0.1,0.2,0.3c-0.9,0.1-1.7,0.3-2.5,0.4c-4,0.4-7.3,2-9.9,5c-0.5,0.6-0.9,1.3-1.5,2.2
		c7.8-0.4,14.7-2.1,19.9-8.2c-0.3,1.3-1.1,2.2-2,3c-3.3,3.2-7.4,4.6-11.8,5.5c-3.3,0.7-6.6,1-10,0.2c-0.5-0.1-1.1-0.4-1.6-0.7
		L69.2,134.2z"/>
	<path id="XMLID_106_" d="M217.6,33.6c-0.9,1.2-1.6,2.5-2.6,3.5c-1.6,1.6-3.3,3.3-5.2,4.6c-1.1,0.8-2.7,1.2-4.1,1.4
		c-2.3,0.3-4.6,0.4-6.6-1.2c-0.6-0.5-1.3-1-1.7-1.7c-0.8-1.3-2.1-1.8-3.5-1.9c-0.9-0.1-1.9-0.3-2.8-0.6c-0.9-0.3-1.4-1-1.5-1.9
		c-0.2-2.1,0.2-4.1,1-6.1c0.1-0.2,0.2-0.4,0.3-0.5l0.4,0.2c0,0.5-0.1,1-0.1,1.4c-0.2,1.5-0.4,2.9-0.6,4.4c-0.1,0.8,0.3,1.4,1.2,1.5
		c0.7,0.1,1.4,0.2,2.1,0.3c1.7,0.2,3.2,0.7,4.2,2.2c1.8,2.8,5.2,3,8.5,2.5c4.5-0.8,7.1-4.1,9.9-7.3l1-1.1L217.6,33.6z"/>
	<path id="XMLID_105_" d="M167.5,222.9c1-0.1,2.1-0.3,3.1-0.2c2.8,0.3,5.2-0.5,7.1-2.7c1.5-1.8,3.4-3.2,5.8-3.7
		c1.9-0.4,3.6,0.2,5.4,0.6c1.8,0.5,3.7,1.1,5.6,0.9c2.8-0.3,5.5-0.8,8-2.1c0.3-0.1,0.6-0.2,1.1-0.5c-0.7,1.3-1.7,1.8-2.7,2.2
		c-2.2,0.9-4.6,1.5-7,1.6c-1.3,0.1-2.6-0.3-3.9-0.6c-1.6-0.3-3.1-0.8-4.7-1c-2.2-0.4-4,0.7-5.6,2.1c-0.8,0.7-1.6,1.5-2.3,2.3
		c-1.9,1.9-4.3,2.4-6.8,2.1c-1-0.1-2.1-0.3-3.1-0.5L167.5,222.9z"/>
	<path id="XMLID_268_" d="M140.4,97.9l-3.2-1.1l-0.1,0.1l1.6,0.8c0,0.1-0.1,0.3-0.1,0.4l-3.9-1c0,0,0,0.1,0,0.1c0.5,0.3,1,0.7,1.4,1
		c0,0.1-0.1,0.2-0.1,0.4c-0.9-0.3-1.8-0.5-2.8-0.8c-0.6-0.2-1.1-0.5-1.4,0.3l2.4,1.4c-1.1,0.9-2.3,1.7-3.3,2.6c-1,1-1.8,2.1-2.9,3.1
		l0.9-4.1l-0.2-0.1l-1.4,2.5c-0.2-2.9,1.7-4.8,2.9-6.9c0.2-0.4,0.8-0.7,1.2-1.1l0.2,0.2c0,0.3,0,0.5-0.1,0.9
		c0.2-0.1,0.4-0.1,0.5-0.2c0.2-0.3,0.4-0.7,0.6-1.2c0.3-0.1,0.8-0.2,1.3-0.3c0.1,0,0.2-0.1,0.3,0c1.1,1.2,2.8,0.8,4.1,1.5
		c0.5,0.3,1.1,0.5,1.6,0.8c0.2,0.1,0.4,0.4,0.6,0.6L140.4,97.9z M129.9,100.5l0.6,0.7l2.5-1.9l-2.1-0.1c0,0.1,0,0.2,0,0.3l0.7,0.5
		L129.9,100.5z"/>
	<path id="XMLID_102_" d="M200.2,27.8c-1-0.4-1.8-0.9-2.6-1.1c-1.8-0.5-3.6-1.1-5.4-1.5c-1.5-0.3-3.2-0.4-4.7-0.6
		c-3.9-0.6-7.2,0.7-10.2,3c-1.7,1.3-3.4,2.7-4,4.9c-0.7,2.5-1.3,5,0.2,7.4c0.2,0.4,0.6,0.8,0.8,1.2c0.2,0.3,0.3,0.6,0.4,1
		c-1.6-0.5-2.9-2.7-3.1-4.6c-0.4-7.1,4.5-11.5,10.2-13.3c3.3-1.1,6.7-0.5,10,0.1c2.7,0.5,5.2,1.2,7.5,2.8c0.2,0.2,0.5,0.3,0.7,0.4
		C200.1,27.4,200.1,27.5,200.2,27.8z"/>
	<path id="XMLID_101_" d="M235.6,153.4c-0.2-1.2-0.4-2.5-0.5-3.7c-0.3-4.2-1.8-7.9-3.8-11.5c-2.5-4.5-4.1-9.3-4.4-14.6
		c0-0.8-0.2-1.7-0.2-2.5c0-0.3,0.2-0.6,0.3-0.9c0.2,0.3,0.4,0.5,0.5,0.8c0.3,2,0.5,4,0.9,5.9c0.7,4.2,2.5,7.9,4.5,11.6
		c2,3.6,3.4,7.4,3.3,11.6c0,1.1-0.2,2.1-0.4,3.2L235.6,153.4z"/>
	<path id="XMLID_100_" d="M112.8,157.4c3.2-1.5,4.2-4.2,4.5-7.3c0.3-2.9,0.3-5.8,0.4-8.8c0.1-1.7,0.3-3.5,0.5-5.2
		c0.3-2.4,1.6-4.3,3.1-6.1c1.9-2.2,3.7-4.3,5.6-6.5c0.1-0.1,0.3-0.2,0.7-0.4c-0.3,1.4-0.9,2.4-1.7,3.2c-1.5,1.8-3.1,3.5-4.6,5.3
		c-1.3,1.6-1.9,3.4-2.1,5.4c-0.2,3-0.2,6-0.5,9.1c-0.2,2.2-0.4,4.3-0.9,6.4c-0.3,1.3-1.1,2.5-1.9,3.7
		C115.3,157.4,114.2,157.8,112.8,157.4z"/>
	<path id="XMLID_99_" d="M99.9,143.1c0.2-0.4,0.4-0.7,0.7-1.1c2.8-4.3,3.9-9.1,4.1-14.2c0.2-3.7,0.9-7.4,1.4-11.1
		c0.3-2,0.7-3.9,2.1-5.4c1.3-1.4,2.8-2.5,4.9-2.5c-0.9,0.6-1.7,1.1-2.6,1.7c-1.8,1.1-2.8,2.9-3.1,4.9c-0.6,3.7-1.1,7.5-1.6,11.3
		c-0.3,2.6-0.3,5.3-0.9,7.9c-0.7,2.8-1.6,5.6-3.8,7.8c-0.3,0.3-0.7,0.6-1,1L99.9,143.1z"/>
	<path id="XMLID_98_" d="M212.3,51.6c-4.5-0.1-8.8-1.3-12.9-3.1c-0.3-0.1-0.4-0.5-0.6-0.8c0.3,0,0.7-0.1,1,0
		c3.5,1.4,7.1,2.3,10.8,2.8c2,0.3,4.1,0.1,6.1-0.2c2.5-0.3,5-0.9,7.4-1.6c2.6-0.8,4.8-2.6,6.1-5c0.2-0.3,0.6-0.4,0.9-0.7
		c0,0.4,0.1,0.9-0.1,1.2c-1.3,2.5-3.4,4.1-5.9,5.2c-3.4,1.4-7,2-10.7,2.1C213.7,51.6,213,51.6,212.3,51.6z"/>
	<path id="XMLID_97_" d="M186.7,56.5c0.5,0,1.1-0.2,1.6,0c2.8,1.1,4.9,2.8,6,5.7c1,2.5,1.4,5,1.7,7.6c0.4,4,4.3,5,6.7,3.8
		c1.6-0.8,3.1-1.7,4.6-2.6c0.2-0.1,0.4-0.3,0.9-0.5c-1.7,2.5-3.8,4.3-6.6,4.7c-3.7,0.6-6.3-1.7-6.8-5.6c-0.3-2.7-0.8-5.3-2-7.9
		c-1.1-2.4-3.2-3.6-5.5-4.6c-0.2-0.1-0.3-0.1-0.5-0.2c-0.1,0-0.1-0.1-0.2-0.1L186.7,56.5z"/>
	<path id="XMLID_96_" d="M153,188.2c-1.3-2.7-1.5-5.7-2.5-8.6l0.3-0.2l0.9,0.4c-0.2-1.1-0.4-2.2-0.7-3.4l1,0.1c0-0.1,0-0.3,0-0.4
		c-0.2-0.7-0.5-1.5-0.7-2.2c-0.1-0.5-0.7-1.1,0.2-1.6c0.1,0,0-0.5-0.1-0.7c-0.3-0.9-0.7-1.8-0.8-2.9c0.4,0.3,0.8,0.6,1.1,1
		c1.3,2,1.9,4.3,2,6.7c0,1.1,0.3,2.2,0.3,3.2c0,0.5-0.1,1.1-0.2,1.6c-0.1,0.3-0.1,0.6-0.1,0.9c0.1,1.2,0.7,2.5-0.4,3.6
		c-0.1,0.1,0,0.5,0,0.8v1.6L153,188.2z"/>
	<path id="XMLID_95_" d="M190,39.7c-2.2-1.3-2.6-3.5-2.7-5.7c-0.1-2.1,0.4-4.3,1.4-6.2c0.1-0.2,0.3-0.5,0.5-0.7l0.3,0.1
		c-0.3,1.2-0.6,2.3-0.8,3.5c-0.2,1.5-0.4,3.1-0.3,4.6c0.1,2.1,1.8,3.7,3.9,4.1c1.2,0.3,2.4,0.7,3.6,1.3c-1.6-0.5-3.2,0.1-4.7,0
		c-2.3-0.1-4.7-0.6-5.8-3c-0.6-1.2-0.7-2.8-0.6-4.2c0.1-2.3,0.5-4.5,1.9-6.4c0.1-0.2,0.2-0.3,0.4-0.5c0.2-0.1,0.4-0.3,0.6-0.4
		c-0.2,0.7-0.3,1.1-0.5,1.6c-1.1,2.7-1.8,5.5-1.2,8.4C186.4,38.6,187.4,39.4,190,39.7z"/>
	<path id="XMLID_94_" d="M64.2,134.3c-1.6,0.4-3.2,1.1-4.8,1.3c-2.1,0.2-4.3,0.1-6.6-1.2c0.9,0,1.6,0,2.3,0c2.2,0.2,4.4,0.3,6.6-0.4
		c2.6-0.8,4.5-2.3,5.8-4.6c0.9-1.5,1.7-3.2,2.9-4.5c2.7-3.2,6.2-5.3,10.5-6c1-0.1,2,0.1,3,0.1l0,0.4c-0.4,0.1-0.9,0.1-1.3,0.2
		c-6,0.1-10.2,3.3-13.1,8.1c-1.4,2.3-2.5,4.7-4.8,6.2c-0.1,0-0.1,0.2-0.1,0.3L64.2,134.3z"/>
	<path id="XMLID_93_" d="M64.2,134.3l0.3-0.1c2.4-1,4.2-2.7,5.7-4.8c0.8-1.2,1.8-2.4,2.8-3.5c2.7-2.9,6.3-4,10.2-3.8
		c2,0.1,4.1,0.3,6.1,0.4c0.3,0,0.7,0.1,1,0.3c-1.3,0.5-2.7,0.4-4.1,0.4c-2.3-0.1-4.7-0.3-7,0.3c-2.9,0.7-5.1,2.4-6.9,4.8
		c-1.5,2.2-3,4.4-5.3,5.8c-1,0.6-2.1,1.2-3.2,1.7c-0.5,0.2-1.1,0-1.8,0L64.2,134.3z"/>
	<path id="XMLID_92_" d="M139.8,150.1c0.7,0.6,1.6,1.1,2.2,1.8c2,2.3,3.9,4.8,6,7.1c2.4,2.6,4.8,5.1,7.4,7.5
		c2.3,2.2,4.8,4.3,7.3,6.4c0.2,0.2,0.3,0.5,0.4,0.8l-0.3,0.3c-1-0.7-2.1-1.3-3-2.1c-6.3-5.6-12.5-11.3-17.3-18.2
		c-0.7-1-1.7-1.7-2.5-2.5c-0.2-0.2-0.4-0.4-0.5-0.6L139.8,150.1z"/>
	<path id="XMLID_91_" d="M222,124.4c0.7,2.5-1.9,5.3-4.3,4.7l0.8,0.6c-0.9,0.3-0.9,0.3-2.1-0.8c0.1,0.7,0.2,1.2,0.3,1.7l-0.3,0.1
		l-1.8-3.6c0.2,1.4,0.4,2.6,0.7,3.8c-0.1,0.1-0.2,0.2-0.3,0.3l-0.7-1.4c-0.3,0.7-0.4,1.1-0.5,1.5l-0.2,0c-0.1-0.2-0.1-0.4-0.2-0.6
		c0-2.4,0-4.8,0-7.1c0-0.2,0.2-0.5,0.2-0.7c0.2,0.1,0.5,0.1,0.7,0.3c0.4,0.5,0.9,0.9,1.2,1.5c0.5,1.2,1.5,1.8,2.4,2.5
		c0.9,0.7,1.6,0.6,2.2-0.3c0.3-0.4,0.5-0.9,0.8-1.4C221.3,125.1,221.6,124.7,222,124.4z"/>
	<path id="XMLID_90_" d="M158.4,115.7v-12.1l0.5-0.1c0.2,0.4,0.4,0.7,0.5,1.1c0.4,3.2,0.4,6.5,0,9.7c-0.3,2.2-0.8,4.3-1.6,6.4
		c-0.6,1.4-0.5,2.9,0.3,4.2c-0.8-0.1-1.5-1-1.4-2.1c0-0.9,0.3-1.8,0.4-2.9l-1.1,1.2c0.1-0.6,0-1,0.2-1.3c0.8-2.2,1-4.6,0.8-6.9
		c-0.1-0.6,0.1-1.2,0.4-1.8c1.3,1.4,0.6,3.1,0.8,4.7L158.4,115.7z"/>
	<path id="XMLID_89_" d="M210.9,162c0.1-0.8,0.2-1.6,0.3-2.5c0.2-2.2,0.4-4.4,0.7-6.6c0.1-0.8,0.5-1.6,0.9-2.4
		c0.4-0.9,1.2-1.2,2.2-1c2.5,0.5,2.8,0.4,3.2-2.2c0.6-3.2,1.1-6.4,1.6-9.6c0.1-0.3,0.2-0.7,0.3-1l0.3,0c0,1.5,0.1,3,0,4.4
		c-0.3,2.4-0.7,4.8-1.2,7.1c-0.5,2.3-1.6,2.9-3.9,2.3c-1.3-0.3-1.5-0.2-2,1c-0.6,1.6-0.9,3.3-0.9,5c0.1,1.9-0.1,3.7-1.2,5.3
		L210.9,162z"/>
	<path id="XMLID_88_" d="M185.4,81c1.6,0.8,3.1,1.6,4.7,2.3c0.5,0.2,1,0.2,1.5,0.1c2.2,1.7,4.4,3.4,5.5,6.3
		c-0.3-0.2-0.6-0.2-0.8-0.5c-0.7-0.9-1.5-0.9-2.5-0.6c-0.9,0.3-2,0.2-2.8-0.4l0-0.4l3.2-0.4c-0.2-0.6-0.5-0.7-1.2-0.6
		c-1.2,0.3-2.5,1-3.9,0.2c-0.4-0.2-1.1,0.1-1.7,0.2c-0.3,0.1-0.6,0.1-1,0.1c0-0.1-0.1-0.2-0.1-0.3l4.3-2.2l-5.5-3.4L185.4,81z"/>
	<path id="XMLID_87_" d="M236.5,47.4c0.2-0.3,0.2-0.3,0.3-0.4c3.1-0.5,7.6,1.1,8.1,5c0.2,1.5-0.3,3-1.3,4.2
		c-1.1,1.3-2.6,2.3-3.9,3.4c-0.3,0.2-0.7,0.2-1.1,0.3l-0.2-0.3c0.5-0.4,0.9-0.8,1.4-1.1c1.8-1.2,3.3-2.5,3.9-4.6
		c0.4-1.6,0.1-2.8-1.1-4.2c0.5,3.3-0.6,5.8-3.2,7.6c-0.5,0.3-1.1,0.4-1.7,0.5l-0.1-0.3c0.9-0.7,1.8-1.4,2.6-2.1
		c1.9-1.9,1.8-5.2-0.4-6.9c-0.6-0.4-1.5-0.4-2.3-0.6C237.4,47.6,237,47.5,236.5,47.4z"/>
	<path id="XMLID_86_" d="M170.1,126.2l-0.5,2l-0.3,0c0-0.3-0.1-0.6-0.1-1.1c-0.2,0.8-0.3,1.3-0.4,1.6l-1.9,0.6l-0.2-0.2
		c0.6-0.8,1.2-1.7,1.9-2.5c1.4-1.6,3.3-2.5,5.3-3.1c1.2-0.4,1.4-0.3,2.5,0.4c0.4-0.6,0.8-1.2,1.1-1.8c0.4-0.7,0.3-1.3-0.2-1.9
		c-1.2-1.3-2.3-2.6-3.4-3.9c-0.3-0.3-0.5-0.7-0.7-1l0.2-0.3c0.3,0.2,0.8,0.2,1,0.5c1.4,1.6,2.7,3.1,3.9,4.8c0.3,0.4,0.3,1.3,0.1,1.9
		c-0.4,1.1-0.9,2.2-2.2,2.8c-0.4,0.2-0.7,0.9-1.2,1.2c0.1-0.6,0.2-1.2,0.2-1.9l-0.1,0l-0.8,2l-0.4-0.1c0.1-0.6,0.2-1.2,0.2-1.8
		l-0.2-0.1c-0.3,0.7-0.5,1.4-0.8,2.1l-0.3-0.1l0.3-1.6l-0.2-0.1c-0.4,0.8-0.7,1.6-1.1,2.5l-0.3-0.1c0.1-0.5,0.1-1.1,0.2-1.6
		c-0.7,0-0.7,0.5-0.7,1c-0.1,0.5-0.3,0.9-0.6,1.3v-1.4L170.1,126.2z"/>
	<path id="XMLID_85_" d="M200.6,152.9c0.2,1.9-0.4,3.6-1,5.2c-2.1,5.4-4.6,10.6-8.3,15.1c-1.2,1.4-2.5,2.6-3.8,3.8
		c-0.3,0.2-0.7,0.3-1.1,0.4c0.2-0.4,0.2-0.8,0.5-1.1c2.8-2.9,5.5-5.9,7.5-9.4c2.5-4.3,4.6-8.8,6.1-13.6
		C200.5,153.2,200.5,153.1,200.6,152.9z"/>
	<path id="XMLID_84_" d="M202.5,160.3c-0.9,1.2-1.8,2.4-2.7,3.6c-1.7,2.3-3.3,4.7-5,7c-0.2,0.2-0.4,0.4-0.6,0.6
		c0.2-1.6,14-22.7,15.1-23.1c-0.1,0.4-0.2,0.8-0.3,1.1c-1.4,2.3-2.8,4.6-4.2,6.9c-0.7,1.1-1.3,2.2-1.9,3.3L202.5,160.3z"/>
	<path id="XMLID_83_" d="M172.6,42.8c-0.5-0.5-1.1-0.9-1.5-1.5c-1.7-2.1-2.1-4.4-1.9-7.1c0.5-5.4,5.5-9.7,9.5-10.7
		c0.8-0.2,1.6-0.2,2.4-0.3c-1.9,1-3.9,1.9-5.7,3.1c-1.8,1.3-3.6,2.7-4.4,5c-1.3,3.6-1.2,6.9,1.3,9.9c0.3,0.3,0.5,0.7,0.7,1.1
		L172.6,42.8z"/>
	<path id="XMLID_82_" d="M216.5,39.6c-1.9,1.8-3.7,3.7-5.8,5.3c-2.8,2.1-6.2,2.5-9.6,2.1c-2.4-0.3-4.3-1.9-5.8-3.7
		c-0.2-0.2-0.2-0.5-0.1-1c0.2,0.1,0.4,0.2,0.6,0.3c1,0.7,2.1,1.4,3.1,2.1c1.9,1.4,4.1,1.1,6.3,0.9c3.1-0.2,5.5-1.8,7.6-3.9
		c1.1-1,2.3-1.8,3.4-2.7C216.3,39.4,216.4,39.5,216.5,39.6z"/>
	<path id="XMLID_81_" d="M185.1,19.9c-1.4,0-2.8,0.1-4.1,0c-4.2-0.4-7.6,1.2-10.8,3.7c-3.1,2.4-5.6,5.2-7.4,8.6
		c-0.2,0.2-0.3,0.5-0.5,0.7l-0.3-0.1c0-0.4,0-0.8,0.2-1.1c0.9-1.5,1.8-3,2.8-4.3c2.7-3.3,5.9-5.9,9.9-7.5
		C178.3,18.4,181.7,18.8,185.1,19.9z"/>
	<path id="XMLID_80_" d="M212.8,15.7c1.5,0,3,1.9,2.5,3.4c-0.6,1.7-1.4,3.3-2.5,4.7c-2.8,3.9-6.6,6.3-11.3,7.1
		c-1.7,0.3-3.1-0.4-4.7-0.9l0-0.4c0.6,0,1.3-0.2,1.8,0c1.6,0.6,3.1,0.1,4.7-0.3c5-1.1,7.9-4.7,10.3-8.8c1.2-2.1,1.1-2.8-0.6-4.6
		C212.9,15.9,212.9,15.8,212.8,15.7z"/>
	<path id="XMLID_79_" d="M161.2,55.5c0.2-0.4,0.3-0.8,0.6-1.1c1.7-1.7,3.7-2.8,6.2-2.8c2.5-0.1,5-0.2,7.4-0.3c2.6-0.2,5-1.2,6.9-2.9
		c0.5-0.4,1.1-0.7,1.7-0.9c-0.3,1.4-1.4,2.2-2.4,2.8c-2.2,1.4-4.7,2.2-7.4,2.2c-2.8,0-5.7-0.3-8.5,0.6
		C164.1,53.5,162.6,54.4,161.2,55.5z"/>
	<path id="XMLID_78_" d="M132.3,76.7c-1.1,2.3-0.4,4.5-0.9,6.7c-0.2-0.3-0.3-0.5-0.4-0.6c-0.7-2.7-0.4-5.5,0.9-8
		c0.5-1,1-0.5,1.5,0.2c1.2-3.3,3.1-6,6.2-7.8c-0.4,0.5-0.7,1.1-1.1,1.6c-0.9,1.2-2,2.4-2.8,3.7c-1,1.6-1.5,3.4-1.5,5.3
		c0,0.4-0.3,0.7-0.5,1.1c-0.3-0.2-0.5-0.5-0.8-0.8C132.6,77.7,132.5,77.3,132.3,76.7z"/>
	<path id="XMLID_77_" d="M212.5,19.1c-0.4-0.1-0.7-0.3-1.1-0.4c-4.9-2.9-10-3.5-15.2-1.3c-1.8,0.8-3.3,2.2-5,3.3
		c-0.4,0.3-0.8,0.7-1.2,1.1c0.6-2.6,5.9-6.2,10.8-6.6C206.2,14.6,211.6,16.5,212.5,19.1z"/>
	<path id="XMLID_76_" d="M191.1,231.4c1.7-0.4,3.4-0.8,5.1-1.2c3.8-1,6.7-3.3,9-6.4c1.5-2,2.9-4.1,4.4-6.1c0.2-0.2,0.4-0.5,0.7-0.7
		l0.3,0.1c-0.1,0.3-0.1,0.6-0.3,0.9c-2,3.2-3.8,6.5-6.7,9.1C200,230.2,196,232,191.1,231.4z"/>
	<path id="XMLID_75_" d="M143.7,97.1v1.2l-3.1-2.9l-0.1,0.1l1.4,2.1l-0.2,0.3c-1.8-1.7-3.8-3-6.3-3.3c2.8-0.7,5.6-0.9,8,1.2l0.2-0.3
		c-0.2-0.3-0.5-0.7-0.7-1s-0.6-0.6-0.9-0.8c1.5-0.5,2.5,0.6,3.5,1.3c1,0.7,1.7,1.7,2,2.8l-2.2-2.6l-0.5,0.4l1.2,1.9
		c-0.4,0.2-0.8,0.3-1.2,0.5L143.7,97.1z"/>
	<path id="XMLID_74_" d="M169.2,158c-1.1,0.9-2.2,0.7-3.3,0.5c-2.9-0.4-5.2-2-7.1-4.3c-2-2.4-4.4-4.3-7.1-5.7
		c-0.1,0-0.2-0.1-0.3-0.2c-0.2-0.3-0.4-0.7-0.6-1c0.4,0,0.9-0.1,1.2,0.1c1.6,1.1,3.3,2.1,4.8,3.3c1,0.8,1.9,1.8,2.8,2.8
		c2.2,2.6,5,4,8.4,4.1C168.4,157.9,168.8,157.9,169.2,158z"/>
	<path id="XMLID_73_" d="M184.9,178.3c-0.3,0.2-0.5,0.5-0.8,0.5c-2.5,0.5-5,1.2-7.6,1.1c-2.7-0.1-5.1-1.1-7.5-2
		c-1.1-0.5-2.2-1-3.2-1.5c-0.3-0.2-0.5-0.6-0.7-0.9c0.4,0,0.8-0.2,1.1-0.1c1.6,0.6,3.3,1.3,4.9,2c3.7,1.6,7.5,1.8,11.4,1.1
		c0.8-0.1,1.5-0.2,2.3-0.3L184.9,178.3z"/>
	<path id="XMLID_72_" d="M225.5,104.4c-0.1,0.5-0.2,1.1-0.3,1.6c-1.1,4.1-1.2,8.2-1.2,12.4c0,1.3-0.2,2.6-0.4,3.9
		c0,0.3-0.4,0.5-0.6,0.7c-0.1-0.3-0.3-0.6-0.3-0.9c0-1.2,0-2.5,0-3.7c0.1-2.3,0.2-4.7,0.5-7c0.2-1.9,0.7-3.8,1.2-5.7
		c0.1-0.5,0.6-1,0.8-1.5L225.5,104.4z"/>
	<path id="XMLID_71_" d="M216.2,21c2,4.9,0.4,8.9-4,11.6c-2.7,1.7-5.6,2.7-8.8,2.7c-1.2,0-2.5-0.1-3.7-0.2l0-0.5
		c0.4-0.1,0.8-0.1,1.2-0.2c2.2-0.3,4.6-0.3,6.7-0.9c3.5-0.9,6.4-2.6,8.1-6.1c0.8-1.8,0.5-3.5,0.5-5.3
		C216.2,21.8,216.2,21.4,216.2,21z"/>
	<path id="XMLID_70_" d="M228.6,86.8c-0.5-0.2-1-0.3-1.5-0.5c-2.6-1.1-5.3-1.8-8-2c-2.5-0.2-4.5,0.9-6.2,2.6c-0.6,0.6-1.1,1.3-1.7,2
		c-0.2,0.2-0.4,0.4-0.6,0.6l-0.3-0.2c0.1-0.3,0.2-0.7,0.4-1c2.5-4.4,5.3-5.8,11-4.7c1.8,0.3,3.6,1,5.3,1.6c0.7,0.2,1.2,0.8,1.8,1.3
		L228.6,86.8z"/>
	<path id="XMLID_69_" d="M205.8,91.6c0.4,0.8,0.8,1.5,1.3,2.4l0.8-1.4l0.2,0.1c-0.2,0.9-0.3,1.8-0.5,2.7l0.2,0.1
		c0.3-0.7,0.6-1.3,0.9-2l0.4,0.1l-0.4,3.9l0.3,0c0.3-0.6,0.5-1.3,0.8-1.9l0.3,0.1c0.3,1.3-0.8,2.8,0.3,4.2l0.8-1.7l0.3,0.1
		c-0.1,0.8-0.5,1.7-0.3,2.5s0.9,1.5,1.3,2.2l-0.2,0.3c-0.6-0.4-1.3-0.6-1.7-1.1c-2.4-2.9-4.3-6.1-5.1-9.8c0-0.2,0-0.4,0-0.6
		L205.8,91.6z"/>
	<path id="XMLID_68_" d="M170.4,157.9c6.5-2.7,12.9-5,17-11l0.3,0.3c-0.2,0.4-0.3,0.8-0.6,1.2c-1.8,2.9-4.3,5.1-7.4,6.5
		c-2.3,1.1-4.5,2.1-6.8,3.2C172.2,158.3,171.4,158.5,170.4,157.9z"/>
	<path id="XMLID_67_" d="M202.5,160.3l0.4-0.6l1.1-0.9l0.3,0.2c-0.4,1.7-1.7,2.9-2.3,4.4l1.7-0.3c-0.1,0.6-0.1,1.3-0.4,1.9
		c-0.7,1.6-1.5,3.1-2.3,4.6c-0.2,0.3-0.4,0.6-0.7,0.9c-0.3-2.1,0.9-3.7,1.6-5.6l-2.4,2.4l-0.4-0.2c0.1-0.4,0.2-0.8,0.4-1.2
		c0.8-1.6,1.7-3.2,2.6-4.7C202.3,160.8,202.4,160.6,202.5,160.3z"/>
	<path id="XMLID_66_" d="M205.2,145.3c0.1-1.8,0.1-3.6,0.3-5.4c0.3-3.5,0.8-6.9,1-10.4c0.1-1.5-0.3-3-0.4-4.4
		c-0.1-0.5-0.1-0.9,0-1.4c1.1,1.3,1.4,2.8,1.5,4.3c0.2,3.7-0.6,7.3-1.1,10.9c-0.3,2.1-0.7,4.3-1,6.4L205.2,145.3z"/>
	<path id="XMLID_65_" d="M191.2,191.2c-0.5,0.2-1,0.4-1.6,0.6c-0.4,0.2-0.9,0.4-1.3,0.5c-0.3,0-0.7-0.1-0.9-0.3
		c-0.1-0.2,0-0.7,0.2-0.9c0.4-0.4,0.9-0.8,1.4-1.2c1.2-1.1,2.4-2.2,3.7-3.2c0.2-0.1,0.5-0.2,0.7-0.2c0,0.2,0.1,0.6,0,0.7
		c-0.4,0.6-0.9,1.1-1.3,1.6c-0.4,0.5-0.9,0.9-1.6,1.5c0.3-0.1,0.5-0.1,0.8-0.2c0.4,0,1.1-0.1,1.2,0.1c0.2,0.4,0.1,0.9,0,1.3
		c-0.6,1.9-1.3,3.9-1.8,5.4C189.9,195.4,189.9,193.3,191.2,191.2z"/>
	<path id="XMLID_64_" d="M128.9,123.4c0.1,0.4,0.3,0.8,0.3,1.2c0.1,2.6,0.3,5.2,0.4,7.8c0.1,2.6,0.7,5.2,1.8,7.6
		c0.2,0.5,0.4,0.9,0.6,1.4l-0.2,0.2c-0.3-0.4-0.7-0.7-1-1.1c-1.5-2.5-2.1-5.4-2.3-8.2c-0.2-2.6,0-5.2,0-7.8c0-0.4,0.1-0.7,0.2-1
		L128.9,123.4z"/>
	<path id="XMLID_63_" d="M120.4,61.7c-0.4-2.2,0.1-4.1,1.3-5.9c1-1.6,2.1-3.1,3.8-4c2.5-1.2,5.2-0.4,7.4,0.9
		c0.1,0.1,0.2,0.2,0.4,0.5c-0.4-0.1-0.9-0.2-1.3-0.3c-5.4-2.2-8.5,0.9-10.4,5.2C121.1,59.3,120.8,60.5,120.4,61.7z"/>
	<path id="XMLID_62_" d="M210.2,61.9c-1.8,0.9-3.6,0.2-5.3-0.3c-2.5-0.8-4.8-2.2-6.6-4.2c-2.1-2.2-4.5-3.9-7.7-4.3
		c-0.1,0-0.2-0.1-0.3-0.1l0-0.3c0.5,0,1.1,0,1.6,0c2.5,0.3,4.5,1.7,6.1,3.5C201.3,59.7,205.4,61.6,210.2,61.9z"/>
	<path id="XMLID_61_" d="M165.5,138c-0.6,0.2-1.2,0.4-1.8,0.4c-1.4,0.2-2.8,0.3-4.2,0.4c-1.3,0.1-2.4,0.7-3.3,1.6
		c-1.1,1.2-2.3,2.4-3.5,3.6c-0.3,0.3-0.8,0.5-1.4,0.6c0.3-0.4,0.5-0.7,0.8-1.1c1.1-1.3,2.2-2.6,3.4-3.8c1.5-1.6,3.2-2.5,5.4-2.3
		c1.2,0.1,2.4,0,3.6,0c0.3,0,0.6,0.1,1,0.1C165.5,137.7,165.5,137.8,165.5,138z"/>
	<path id="XMLID_60_" d="M229.6,81c0.8,0.1,1.6,0,2.4,0.3c2,0.6,4,0.8,6,0.2c2.5-0.7,3.1-2.3,1.6-4.4c-0.1-0.1-0.2-0.3-0.3-0.4
		c1-0.1,1.6,0.3,2,1.3c0.7,1.7-0.3,3.7-2.2,4.4c-2.3,0.9-4.9,0.9-7.3,0c-0.8-0.3-1.6-0.5-2.3-0.8C229.5,81.3,229.6,81.2,229.6,81z"
		/>
	<path id="XMLID_59_" d="M192.6,21.7c2.2-2.5,5-4.2,8.4-4.2c3.7,0,7.3,0.4,10.5,2.6l-0.1,0.4c-0.6-0.2-1.2-0.4-1.8-0.6
		c-3.1-1.3-6.3-1.8-9.7-1.3c-2.2,0.4-4.1,1.4-5.9,2.7c-0.4,0.3-0.8,0.5-1.1,0.8L192.6,21.7z"/>
	<path id="XMLID_58_" d="M192.6,133.4c-2.1,0.8-4.3,1.1-6.5,0.7c-3.3-0.5-6.5-1.2-9.9-0.6c0.7-1.1,1.7-1.4,2.7-1.3
		c2,0.1,4,0.4,6,0.6c2.4,0.2,4.9,0.4,7.3,0.6L192.6,133.4z"/>
	<path id="XMLID_57_" d="M102.9,129.7c1.5,3.9-4.4,14.3-8.4,13.8c2.2-1.8,4.3-3.5,5.6-6C101.5,135,102.4,132.4,102.9,129.7z"/>
	<path id="XMLID_56_" d="M196,101.3c-0.3,0.1-0.6,0.2-0.9,0.2c-2.2,0.1-4.1,1-6,2c-3.1,1.5-6.4,2.5-9.8,2.9c-0.4,0-0.8,0-1.3,0
		l-0.1-0.4c0.9-0.3,1.8-0.7,2.8-0.8c3.5-0.3,6.6-1.8,9.7-3.1c1.4-0.6,3-0.8,4.5-1.1c0.3-0.1,0.7,0.1,1,0.1L196,101.3z"/>
	<path id="XMLID_55_" d="M213.4,133.1c1.1,2.5-1.5,12.7-3.6,14.2C211.1,142.5,212.3,137.8,213.4,133.1z"/>
	<path id="XMLID_54_" d="M180.8,30.2c0.1,0.5,0.2,1.1,0.2,1.6c0.2,2.6,1.2,5.1,2.7,7.2c0.9,1.3,2.4,1.9,3.9,2.1
		c0.8,0.1,1.6,0.3,2.5,0.5c-1.6,0.8-4.4,0.4-5.7-0.8c-1-0.9-1.8-1.9-2.4-3.1c-1.1-2.1-2-4.3-1.8-6.7c0-0.3,0.1-0.6,0.2-1L180.8,30.2
		z"/>
	<path id="XMLID_53_" d="M104.5,197.2c1-0.3,2-0.6,3-0.8c4.1-0.7,7.4-2.5,10.1-5.7c0.1-0.2,0.3-0.3,0.4-0.4c0.2-0.1,0.4-0.2,0.6-0.3
		c-0.2,0.6-0.3,0.9-0.4,1.2c-1.5,2.2-3.7,4-6.2,4.9c-2.4,0.9-4.8,1.6-7.4,1.4L104.5,197.2z"/>
	<path id="XMLID_52_" d="M179.7,190c1.5-0.6,3-1.2,4.5-1.7c2.6-0.9,4.8-2.2,6.5-4.4c0.6-0.7,1.2-1.3,1.9-1.9
		C192.2,185.7,184.4,190.6,179.7,190z"/>
	<path id="XMLID_51_" d="M212.5,104.6c1,4.4,0.8,8.9,0.1,13.4C211.5,113.6,211.4,105.6,212.5,104.6z"/>
	<path id="XMLID_50_" d="M113.3,44.4c-0.4-1.5-0.1-2.7,0.8-3.9c1.7-2.2,3.7-4.1,6.5-4.9c0.8-0.2,1.7-0.4,2.5,0.4
		c-2.2,0.6-4.3,1.4-6,2.9C115.3,40.5,113.9,42.1,113.3,44.4z"/>
	<path id="XMLID_49_" d="M154.5,103.1c-0.2,0.5-0.3,0.9-0.5,1.6c-1-2.4-2-4.5-2.9-6.7c1.3,0.3,1.6,1.7,2.5,2.4
		c0.1-0.2,0.2-0.5,0.3-0.8c0.2,0.2,0.5,0.4,0.7,0.6c1.1,1.4,2,4.3,0.9,6.3c-0.3-1.3-0.5-2.4-0.8-3.5L154.5,103.1z"/>
	<path id="XMLID_48_" d="M134.8,116.3c0.6-0.1,1.2-0.2,1.7-0.2c2.4-0.1,4.8-0.2,7.1-0.4c2-0.2,3.7-1,5.3-2.2c0.5-0.4,1.1-0.7,1.8-1
		C149.4,115.7,138.8,118.4,134.8,116.3z"/>
	<path id="XMLID_47_" d="M192.1,50.8c0.8,0,1.8-0.1,2.5,0.2c1.5,0.6,2.9,1.3,4.2,2.2c1.9,1.4,3.5,3.1,5.2,4.7
		c-1.7-0.1-3-1.2-4.1-2.4c-2-2.3-4.3-3.9-7.4-4.1c-0.1,0-0.3-0.1-0.4-0.2C192.1,51,192.1,50.9,192.1,50.8z"/>
	<path id="XMLID_46_" d="M210.6,23.8c-0.3,0.1-0.6,0.2-0.9,0.2c-3.1-0.5-5.8,0.4-8.4,2c-0.3,0.1-0.5,0.2-1.1,0.5
		c0.2-0.5,0.2-0.8,0.4-0.9c2.7-2.2,5.8-3.1,9.3-2.6c0.3,0,0.6,0.3,0.9,0.5C210.7,23.6,210.7,23.7,210.6,23.8z"/>
	<path id="XMLID_45_" d="M198.4,82.7c1.1,1.2,1.9,2.5,3,3.3c1.1,0.8,2.6,1.2,4,1.7c-1.9,1.2-3.1,0.6-4.7-0.5
		C199.3,86.3,198,83.8,198.4,82.7z"/>
	<path id="XMLID_44_" d="M217.5,119.1c0.9,0.2,1.2,0.5,0.8,1.5c-0.3,0.6,0,1.5,0,2.2c0,0.1,0,0.3,0,0.4c-1.2,0-1.9-1.1-1.6-2.5
		c-0.2,0.1-0.3,0.1-0.5,0.2c-0.3,0.1-0.7,0.1-1,0.2c0-0.4-0.1-0.8,0-1.1c0.6-1.4,1.4-1.9,2.7-1.6
		C217.7,118.6,217.6,118.8,217.5,119.1z"/>
	<path id="XMLID_43_" d="M166,131.1c-0.6,1.2-2.4,1.6-3.8,0.9c-0.5-0.3-1-0.7-1.5-1c-1-0.5-2-0.9-2.9-1.3c-0.4-0.1-0.7-0.4-1-0.6
		c1.2-0.5,2.3-0.3,3.4,0.2c0.5,0.3,1.1,0.5,1.5,0.9c1.1,1.1,2.2,1.3,3.6,0.8C165.4,131.1,165.6,131.1,166,131.1z"/>
	<path id="XMLID_42_" d="M231.4,181.7c1-1.7,2.1-3,2.7-4.6c0.6-1.5,0.7-3.1,1.1-4.8C237.2,174.2,235.1,179.4,231.4,181.7z"/>
	<path id="XMLID_41_" d="M199.6,24.4c0.5-0.4,1-1,1.6-1.2c2.4-0.8,4.8-1.5,7.2-2.2c0.1,0,0.1,0,0.2,0c0.5,0.2,1,0.4,1.6,0.6
		c-0.5,0.1-0.9,0.4-1.4,0.4c-2.9,0.2-5.5,1.1-8.1,2.3c-0.3,0.1-0.6,0.3-0.8,0.4L199.6,24.4z"/>
	<path id="XMLID_40_" d="M76.3,137.2c2.1-0.1,4-0.1,5.8-0.4c1.8-0.3,3.6-0.8,5.3-1.3C86.9,137.4,78.9,138.7,76.3,137.2z"/>
	<path id="XMLID_39_" d="M148.2,190.6c0.2-3.2,1.5-5.9,1.8-8.9C151.3,183.3,150.2,189.2,148.2,190.6z"/>
	<path id="XMLID_38_" d="M184.6,49.4c-0.6,1.9-6,5-8.3,4.6L184.6,49.4z"/>
	<path id="XMLID_37_" d="M185.8,146.2c-0.8,3-5.5,6.5-8.7,6.5C180.5,151.2,183.5,149.1,185.8,146.2z"/>
	<path id="XMLID_36_" d="M166.3,137.2l8.6-3.1c-0.2,0.4-0.3,0.8-0.5,0.9c-2.3,1.2-4.6,2.2-7.1,2.6c-0.3,0-0.6-0.1-0.9-0.1
		C166.3,137.4,166.3,137.3,166.3,137.2z"/>
	<path id="XMLID_35_" d="M204.4,89.2c-2.2,1.1-4,0.6-5.9-1.4c-1-1.1-1.7-2.3-1.7-3.8C198.4,87.1,200.5,89.4,204.4,89.2z"/>
	<path id="XMLID_34_" d="M198.9,93.5c-1.6,2.3-6.9,3.8-8.9,2.6c0.3-0.2,0.6-0.4,0.8-0.4c2.7,0.1,5.1-0.8,7.5-2
		C198.5,93.6,198.7,93.6,198.9,93.5z"/>
	<path id="XMLID_33_" d="M168.6,88.2c0.6-0.9,1.1-1.9,1.7-2.8c0.3-0.5,0.9-0.7,1.4-1.1l0.2,0.2c-0.2,0.4-0.3,0.8-0.5,1.1l-0.1,0.1
		c-1.4,1.7-2.2,3.5-1.8,5.8C168.6,91,168.4,90.2,168.6,88.2L168.6,88.2z"/>
	<path id="XMLID_32_" d="M153.4,123.2c-0.1,0.6-0.3,1.1-0.4,1.7c-0.2,0.7-0.5,1.5-0.7,2.2c-0.2,0.9,0.1,1.5,1.1,1.8
		c0.3,0.1,0.6,0.2,0.8,0.4c-1.6,0.9-2.8,0.2-2.9-1.4c-0.1-1.9,1-3.3,1.7-4.8L153.4,123.2z"/>
	<path id="XMLID_31_" d="M171.2,107.4c-1.2,0.6-2.6,0.1-3.5-1c-0.2-0.3-0.2-0.7-0.4-1.1l-2.3-2.1l0.5-0.6l3.5,2.4l-1,0.4
		L171.2,107.4z"/>
	<path id="XMLID_30_" d="M211,30.9c1-1.2,2.1-2.3,2.8-3.6s1.1-2.9,1.6-4.4C216.5,25.3,213.5,30.7,211,30.9z"/>
	<path id="XMLID_29_" d="M183.1,173.1c-1,2-5.6,3.5-6.8,2.2L183.1,173.1z"/>
	<path id="XMLID_28_" d="M156.2,101.4c1.7,1.4,2,4.9,0.7,7.4C156.6,106.2,156.4,103.9,156.2,101.4z"/>
	<path id="XMLID_27_" d="M171.4,85.8L171.4,85.8c1.6-1,1.6-1,2.3-0.9c-1.6,1.9-2.5,4-2.9,6.4c-0.7-0.5-0.5-1.2-0.4-1.8
		C170.7,88.2,171,87,171.4,85.8z"/>
	<path id="XMLID_26_" d="M167.8,102.8c-1.2,0.1-2.5-1.1-2.8-2.7l0.8,0.3c-0.3-0.6-0.6-1-0.8-1.5c-0.1-0.1-0.1-0.3,0-0.4
		c0.1-0.1,0.3-0.1,0.4,0c0.9,0.8,1.7,1.6,2.6,2.4l-0.2,0.2l-1,0.1l-0.3,0.3l1.7,0.8L167.8,102.8z"/>
	<path id="XMLID_25_" d="M154.2,130.1c0.4,0,0.9,0,1.3,0.2c1.2,0.4,2.5,1,3.7,1.3c0.7,0.2,1.4,0.2,2.2,0.3c-1,1.2-4.9,0.4-7.2-1.4
		C154.2,130.4,154.2,130.2,154.2,130.1z"/>
	<path id="XMLID_24_" d="M164.5,87.4l1.4,6C163.9,92.5,163.1,89.2,164.5,87.4z"/>
	<path id="XMLID_23_" d="M128,114.9c-0.1-2.1-0.7-4.1-0.3-6.4C129,109.9,129.1,113.8,128,114.9z"/>
	<path id="XMLID_22_" d="M168.6,88.1c-0.4,1.3-0.7,2.6-1,3.8c-1.1-1.5-0.5-5.2,1.5-6.6C168.9,86.4,168.8,87.3,168.6,88.1L168.6,88.1
		z"/>
	<path id="XMLID_21_" d="M209.6,121.8l-3-6C208.8,116.6,209.7,118.9,209.6,121.8z"/>
	<path id="XMLID_20_" d="M166.6,86.8v5.7c-0.9-0.6-1.7-2.5-1.3-3.8C165.4,87.9,165.5,86.9,166.6,86.8z"/>
	<path id="XMLID_19_" d="M173,119.5c-1,0.3-2,0.6-3.1,0.8c-0.2,0.1-0.7-0.2-0.8-0.5c-0.3-0.5,0.5-1.9,1.2-2.2c0,0.2,0.1,0.4,0.1,0.7
		c0,0.2,0,0.4,0,0.6l2.6,0.3L173,119.5z"/>
	<path id="XMLID_18_" d="M199.6,98.2l-6-0.9C194.5,96.1,197.9,96.7,199.6,98.2z"/>
	<path id="XMLID_17_" d="M157.8,99.4c0,0-0.1-0.1,0-0.2c0.4-1,2.8-1.8,3.8-1.2c0.2,0.1,0.4,0.4,0.4,0.6c0,0.2-0.3,0.4-0.6,0.4
		C160.3,99.2,159.1,99.3,157.8,99.4z"/>
	<path id="XMLID_16_" d="M200.8,173.2c0-1.8,0.7-3.4,2-4.6C202.7,170.3,201.9,171.8,200.8,173.2z"/>
	<path id="XMLID_15_" d="M128.3,137.5c-1.3-0.9-2-3.8-1.1-5.2C127.5,134.1,127.9,135.8,128.3,137.5z"/>
	<path id="XMLID_14_" d="M167.8,153.5c0.2-0.9,0.4-0.9,3,0.1c-0.4,0.1-0.7,0.2-1,0.2c-0.5,0.1-1,0.2-1.5,0.4
		c-0.7,0.3-1.7-0.1-2.3-1.1L167.8,153.5z"/>
	<path id="XMLID_13_" d="M146.1,136.5c0.2-0.8,0.3-1.5,0.5-2.2c0-0.1,0.6,0,0.9,0c0.2-0.5,0.4-1.2,0.7-1.8c0.7,0.8,0.5,1.7-0.1,2
		c-0.8,0.4-0.9,1.2-1.4,1.8c-0.1,0.1-0.1,0.2-0.2,0.4L146.1,136.5z"/>
	<path id="XMLID_12_" d="M202.9,172c0.3,0.9-0.2,2.5-1.3,3.9C201.1,174.9,201.9,172.6,202.9,172z"/>
	<path id="XMLID_11_" d="M132.9,125.8c-0.7-1.1,0.6-3.6,1.6-4c0.1-0.1,0.4,0,0.4,0.1c0.1,0.2,0.1,0.4,0,0.5
		C134.2,123.6,133.6,124.7,132.9,125.8z"/>
	<path id="XMLID_10_" d="M145.6,93.5c1.8,0.8,3.3,2.9,2.9,4.2L145.6,93.5z"/>
	<path id="XMLID_9_" d="M184.8,123.2c-1.2,0.2-2.6-0.7-2.6-1.8c0-0.1,0.1-0.4,0.2-0.4c0.2,0,0.4,0,0.5,0.1c0.1,0,0.1,0.1,0.1,0.2
		L184.8,123.2z"/>
	<path id="XMLID_8_" d="M220.6,120.6c-0.2-1-0.4-2-0.6-2.9c0-0.1,0.1-0.3,0.2-0.3c0.2,0,0.4,0,0.5,0.1
		C221.6,118,221.5,119.6,220.6,120.6z"/>
	<path id="XMLID_7_" d="M186,122.6l2.6,2.2C187.3,125.2,185.9,124,186,122.6z"/>
	<path id="XMLID_6_" d="M176.5,159.4c-1.1,1.1-2.1,1.4-3.2,0.7l3.1-1L176.5,159.4z"/>
	<path id="XMLID_5_" d="M145.7,148.4c-0.3-0.3-0.7-0.6-0.9-1c-0.1-0.4,0.1-0.9,0.1-1.3l0.5,0c0.2,0.7,0.4,1.5,0.6,2.2L145.7,148.4z"
		/>
	<path id="XMLID_4_" d="M163.4,153.1l2.8,1.1C165,154.6,164,154.3,163.4,153.1z"/>
	<path id="XMLID_3_" d="M126.4,107.1l0.4-2.4l0.5,0.1c0.2,0.8-0.2,1.6-0.5,2.4L126.4,107.1z"/>
	<path id="XMLID_2_" d="M178.7,119.3c1.1,0.8,1.4,1.6,0.9,2.7L178.7,119.3z"/>
</g>
</svg>
