<?xml version="1.0" encoding="utf-8"?>
<!-- Generator: Adobe Illustrator 19.0.0, SVG Export Plug-In . SVG Version: 6.00 Build 0)  -->
<svg version="1.1" id="Zev_Eisenberg" xmlns="http://www.w3.org/2000/svg" xmlns:xlink="http://www.w3.org/1999/xlink" x="0px"
	 y="0px" viewBox="0 0 300 250" style="enable-background:new 0 0 300 250;" xml:space="preserve">
<g id="XMLID_236_">
	<path id="XMLID_480_" d="M212.1,87.9c-1.2-2-2.7-2.5-4.7-1.3c-0.7,0.4-1.4,0.9-1.9,1.6c-0.3,0.4-0.5,1-0.6,1.5
		c-0.2,1-0.2,2.1-0.3,3.2l-0.4,0c-0.2-0.7-0.3-1.5-0.5-2.4c-0.1,0.8-0.2,1.5-0.4,2.2c-0.1,0.7-0.3,1.3-0.5,2h-0.3
		c-0.1-0.5-0.2-1-0.3-1.5L202,93c-0.3,1.3-0.6,2.5-0.9,4.1c-0.6-1-1-1.7-1.5-2.5l-0.1,0c0.3,1.2,0.6,2.4,1,3.7
		c-1.1-0.5-2-2.5-1.8-3.7c0.1-0.3,0.4-0.6,0.6-0.8l0.3,0.1v-1.7l0.2,0l1,1.7c0.2-2.4,0.3-4.5,0.5-6.7l0.3,0c0.1,1.1,0.2,2.3,0.3,3.5
		l3.8-4.3c-2.7,0.9-3.9-1.3-5.7-2.6c-0.1,2.1,0.6,4.1-0.5,6.3c-0.2-1-0.3-1.8-0.4-2.6c-0.2-1.5-0.3-3-0.5-4.5
		c-0.1-0.4-0.2-0.8-0.5-1c-5.8-5-12-9.2-19.2-12c-5.7-2.2-11.7-3.6-17.8-4.2c-9.6-1-18.6,1-27.1,5.7c-4.6,2.5-8.7,5.6-12.4,9.3
		c-2.4,2.4-4.3,5.2-6.4,7.8c-0.6,0.8-1.3,1.5-2.1,2.2c-0.9,0.8-2,1.1-3.2,0.7c-1.1-0.5-2.3-0.9-3.4-1.4c-0.9-0.4-1.5-1-2.7-0.4
		c-0.6,0.3-1.7-0.3-2.5-0.5c-0.5-0.1-0.9-0.4-1.5-0.4c0.5,0.5,1,1.1,1.6,1.4c1.2,0.7,1.6,1.7,1.8,3c0.4,2.2,1.4,4.1,2.8,5.9l0.5-4
		c1.4,2,0,3.6-0.3,5.3l0.4,0.1l1.1-3.6l0.4,0c0.1,0.4,0.4,0.8,0.3,1.2c-0.2,0.9-0.4,1.9-0.9,2.6c-0.6,0.8-0.7,1.4-0.4,2.3
		c0.1,0.4,0.1,0.8,0.2,1.4c-0.2-0.2-0.4-0.4-0.5-0.6c-1.4-2.8-2.8-5.6-4.1-8.4c-0.2-0.4-0.3-0.8-0.3-1.3c-0.3-3.2-2.8-4.4-5.1-5.7
		c-0.9-0.5-2-0.1-2.6,0.8c-0.3,0.4-0.5,0.8-0.8,1.3c-0.4-2.3,1-3.4,4.1-3.2c-0.1-0.9-0.3-1.9-0.3-2.8c-0.1-3.3-0.2-6.5-0.2-9.8
		c-0.1-3.3-0.3-6.5-0.2-9.8c0.1-2.4,0.7-4.8,1.1-7.2c0.1-0.3,0.2-0.7,0.4-1c0.1-0.1,0.1-0.2,0.2-0.3l0.3,0.1
		c-0.2,1.3-0.4,2.5-0.5,3.8c-0.1,2.1-0.1,4.1-0.1,6.2c0,4.3,0,8.6,0.1,13c0,2.1,0.2,4.3,0.4,6.4c0,0.2,0.1,0.6,0.2,0.7
		c1.3,0.9,2.5,1.8,4.2,1.7l-1.7-1.2c3-0.7,4.6-2.7,6.4-4.4c5.9-5.3,12.2-10,19.3-13.6c5.5-2.7,11.3-4.5,17.1-6.2
		c4.8-1.4,9.7-2.5,14.7-2.9c3.5-0.3,7.1-0.1,10.6,0.1c4.3,0.3,8.4,1.4,12.4,3c5.1,2,9.7,5,14.1,8.4c4.5,3.5,8.7,7.3,12.5,11.5
		c0.4,0.5,0.7,1.1,1.1,1.6c0.3,0.3,0.6,0.5,0.9,0.7C211.9,86,212.4,86.9,212.1,87.9L212.1,87.9z M111,90.2c0.1,0.1,0.1,0.2,0.2,0.3
		c0.5-0.3,1.1-0.5,1.5-0.9c1.1-1.1,2.1-2.3,3-3.6c5.5-7.9,12.8-13.6,21.5-17.6c6.5-3,13.3-4.9,20.4-5.9c5.5-0.8,10.9-0.5,16.2,0.5
		c7.7,1.4,14.5,4.8,20.6,9.5c3.8,2.9,7.2,6.3,10.8,9.4c1,0.9,1.9,1.7,2.9,2.6l0.3-0.2c-0.2-0.4-0.4-0.9-0.7-1.1
		c-4.4-3.9-8.7-7.8-13.2-11.5c-3.8-3.1-8-5.6-12.5-7.4c-4.2-1.6-8.5-2.6-13-3c-3.2-0.3-6.4-0.6-9.5-0.1c-4.8,0.8-9.6,1.4-14.3,3
		c-5.7,1.9-11.3,4.1-16.2,7.6c-3.6,2.5-7.1,5.1-10,8.5c-2.1,2.4-4.1,5-6.1,7.5C112.3,88.5,111.6,89.3,111,90.2L111,90.2z
		 M129.9,69.5l-0.1-0.1c-0.4,0.2-0.9,0.3-1.3,0.5c-6.1,2.9-11.5,6.9-16.7,11.2c-2.5,2.1-4.9,4.4-7.3,6.7c1,0.5,2,1,3.1,1.5
		c1,0.4,1.9,0.2,2.7-0.5c0.6-0.6,1.1-1.1,1.6-1.8c4.2-5.3,8.5-10.6,14.1-14.6C127.4,71.4,128.6,70.4,129.9,69.5L129.9,69.5z
		 M190,70.8c-0.8-0.5-1.6-1.1-2.4-1.5c-0.2-0.1-0.5-0.1-0.7,0.1c-0.8,0.6-1.5,1.3-2.2,1.9C186.5,72.8,188.1,71.2,190,70.8z
		 M179.1,68.7c2,1.4,3.6-0.3,5.5-1c-0.9-0.4-1.6-0.7-2.3-1c-0.6-0.3-0.9-0.2-1.3,0.3C180.5,67.7,179.8,68.1,179.1,68.7L179.1,68.7z
		 M172.7,66.6c2.2,0.7,3.8,0.3,5.2-1.5l-2.7-0.8c-0.4,0.5-0.6,0.9-1,1.3S173.3,66.2,172.7,66.6L172.7,66.6z M187.4,72.7
		c1.3,1,3.9,1,5.5,0c-0.7-0.4-1.3-0.9-1.9-1.3c-0.2-0.1-0.4-0.1-0.7-0.1C189.4,71.8,188.4,72.3,187.4,72.7L187.4,72.7z M195.4,78.1
		c1.4,1.3,3.8,1.7,5.2,0.9c-0.5-0.5-0.9-0.9-1.4-1.3c-0.2-0.2-0.4-0.3-0.6-0.3C197.5,77.6,196.5,77.9,195.4,78.1L195.4,78.1z
		 M198.3,76.8c-0.8-0.6-1.3-1.1-1.8-1.4c-0.2-0.1-0.5-0.3-0.7-0.3c-1,0.3-1.9,0.8-3,1.2C194.5,77.8,196.3,76.9,198.3,76.8
		L198.3,76.8z M198.1,80.5c1.2,1.4,3.4,1.9,5,0.8c-0.3-0.3-0.7-0.6-1-0.9c-0.3-0.2-0.7-0.7-0.9-0.6C200.2,80,199.2,80.2,198.1,80.5
		L198.1,80.5z M190.4,74.6c1,0.9,3.5,0.9,5-0.1c-0.5-0.4-1-0.8-1.6-1.1c-0.3-0.1-0.6-0.1-0.8,0C192.1,73.7,191.2,74.2,190.4,74.6
		L190.4,74.6z M176.3,67.6c1.5,0.8,3.2,0.2,4.4-1.5l-1.9-0.7L176.3,67.6z M166.5,65.3c1.9,0.9,3.1-0.2,4.3-1.7
		c-0.9-0.1-1.8-0.4-2.6-0.1C167.5,63.8,167.1,64.6,166.5,65.3L166.5,65.3z M169.8,65.8c1.6,0.6,2.9,0.1,4.4-1.6
		C172.2,63,171,64.4,169.8,65.8L169.8,65.8z M185.1,68l-3.1,2c2,1.7,3.1-0.5,4.7-1.1L185.1,68z M201,83c1.2,1.1,2.6,1.2,3.8,0.3
		c-0.5-0.9-1.2-1.3-2.2-0.6C202.2,82.8,201.6,82.8,201,83L201,83z M163.5,64.9c1.8,0.5,2.8-0.6,4-1.4
		C165.7,62.7,164.7,63.7,163.5,64.9L163.5,64.9z M160.5,63.3l-5.6,0.7l0,0.4C156.8,64,158.8,65.1,160.5,63.3L160.5,63.3z
		 M203.4,85.3c1.1,0.6,2.4,0.5,3.6-0.3C205.9,83.9,205.3,84,203.4,85.3z M160.7,64.5c1.5,0.5,2.4-0.5,3.6-1.2
		C162.8,62.9,161.6,63.3,160.7,64.5z"/>
	<path id="XMLID_476_" d="M128.9,171.5c-0.8-0.1-0.7,0.3-0.6,0.8c0.1,0.9,0,1.9,0,2.8l-0.3,0c-0.4-1.6-0.8-3.2-1.2-4.8l-0.2,0
		l-0.7,2.3l-0.2-0.1c-0.4-2-0.8-4.1-1.2-6.1l-0.3,0c-0.2,1.2-0.5,2.5-0.7,3.7l-0.3-0.1c-0.3-2.2-0.6-4.5-1-6.7l-0.2,0
		c-0.2,1.2-0.4,2.4-0.6,3.5l-0.2-0.1c-0.6-2.4-1.1-4.9-1.6-7.2c0.9,0.3,1.4,0.9,2.2,3.2c0.1-0.4,0.1-0.7,0.2-1.3l2.4,3.5l0.3-0.1
		c0.1-1.2,0.6-2.4,0.2-3.7c-0.5-1.5,0.1-2.9,1.1-4c0.4-0.5,0.7-0.8,0.6-1.6c-0.1-1.3,1.8-3.5,3.4-3.8l-2.8,3.8l1.3,0.1
		c-1.5,1.6-2.9,3.1-2.9,5.6c0.9-1,1.7-1.8,2.4-2.7c0.9-1.2,2-2.3,3.7-2.4l-1.6,1.8l2.2-0.5c-1.5,1.7-3.7,2.5-4.2,4.9l3.3-2.6
		l0.4,0.4l-3,3.5c0.1,0.5,0.2,0.9,0.2,1.2c-0.2,1.2-0.5,2.4-0.8,3.6C128.1,169.8,128.2,170.7,128.9,171.5L128.9,171.5z M127.4,162.2
		l-0.5-0.1c-0.3,1.1-0.6,2.2-0.9,3.2l0.3,0.1L127.4,162.2z M127.9,165.6l-0.5,0l-0.3,2.5l0.2,0C127.5,167.3,127.7,166.5,127.9,165.6
		z"/>
	<path id="XMLID_212_" d="M117.4,182c-3-2.9-3.8-6.8-5.3-10.8c-0.7,1.9-1.2,3.5-1.8,5.2l-0.5-0.1c1.2-5.7,2.6-11.4,1.7-17.4
		c-3.4,4.1-8.1,5.9-12.8,7.3c-4.9,1.5-9.9,2.9-14.9,4.2c-2.8,0.7-5.6,1.4-8.5,1.9c-0.9,0.2-1.8,0-2.7,0l-0.1-0.4
		c1.1-0.3,2.2-0.6,3.3-0.9c8.1-2.1,16.2-4.1,24.2-6.4c2.7-0.8,5.3-2.4,7.8-3.8c1.4-0.8,2.5-2.1,3.1-3.6c0.3-0.7,0.3-1.4,0.5-2.3
		c1.1,0.7,1,1.8,1,2.7c0.2,2.7,0.3,5.5,0.2,8.3c0,4.4,1.5,8.4,3.2,12.4c0.5,1.2,1.1,2.3,1.7,3.4L117.4,182z"/>
	<path id="XMLID_472_" d="M176.3,26.6l-3.6-1l0.7,1.2l-6.8-3.5l-0.3,0.5l1.9,1.3l-0.3,0.4c-0.8-0.5-1.7-0.9-2.5-1.4
		c-4.6-2.6-9.6-3.2-14.8-3c-6.7,0.2-13.2,1.2-19.5,3.2c-0.3,0.1-0.7,0.2-1.1,0.3c-0.1,0-0.2,0-0.6-0.1c0.9-0.5,1.4-0.9,2.1-1.1
		c2.4-0.8,4.9-1.5,7.3-2.2c0.3-0.1,0.6-0.2,0.7-0.4c0.8-1.9,2.5-2.2,4.2-2.4c1-0.1,2-0.2,2.9,0c0.8,0.2,1.5,0.9,2.4,1.5
		c9.6-0.7,18.7,2.3,27.4,6.6L176.3,26.6z M141.6,20.1l0.1,0.3l4.5-0.6C144.6,19.5,143.1,19.4,141.6,20.1L141.6,20.1z"/>
	<path id="XMLID_209_" d="M146.4,99.9c-2.8-1.6-5.7-3.2-9.1-3c0.5,1.5,0.2,2.9-1.1,4.1l6.3-0.3l-4.8-3.2c1.1-0.2,3.3,0.9,7.2,3.9
		c-0.7,0.1-1.5,0.3-2.2,0.3c-5.1,0-10.4,1.3-15.4-0.7l0-0.5l4.2,0.8l0.3-0.2c-1.5-0.8-1.7-2.1-1.5-3.5c-1.4,0.2-2.8,0.9-3.8,1.8
		c-1.1,0.9-2.1,1.9-3.2,3c0.3-0.7,0.5-1.2,0.8-2.1l-2.7,1.7C125.6,95.9,140.9,93.3,146.4,99.9z"/>
	<path id="XMLID_208_" d="M168.4,169.7c1.7,0.5,2.6,2.5,2.5,6.4l1.4,0.6c0.4-2.3-0.9-4-1.6-5.9c0.4,0.4,0.9,0.7,1.3,1.1
		c0.4,0.4,0.7,0.9,1.1,1.3l0.3-0.2c-0.7-1.1-1.4-2.3-2-3.4l0.1-0.2l2.4,1.7c0.5-1.2,1-2.5,1.6-3.8l0.4,0.1c-0.1,0.4-0.1,0.8-0.2,1.2
		c-0.3,1.7-0.6,3.3-1,5c-0.1,0.6-0.3,1.1-0.5,1.6c-0.2,0.6-0.6,1.2,0.2,1.8c0.3,0.2,0.4,0.7,0.6,1.1h0.3c0.1-1.7,0.2-3.3,0.4-5.1
		c0.1,0,0.3,0.1,0.4,0.1c0.1,0.1,0.3,0.2,0.4,0.3l0.4,0c0-2,0.2-4-0.1-6c-0.2-1.9-0.9-3.8-1.4-5.8c0.3,0.2,0.7,0.4,1,0.7
		c1.3,1.5,1.6,3.4,1.5,5.3c-0.1,1.3-0.6,2.6-0.1,4c0.4,1.1,0.2,2.3,0.4,3.4c0.2,1.5,0.4,1.6,1.9,1.3l0.1,0.2
		c-0.5,0.3-0.9,0.7-1.4,0.8c-1.3,0.2-1.5-1-1.9-1.5c-0.6,1-1.2,2.3-2,3.3c-0.9,1.1-0.7,2.5-1.4,3.9c-0.4-1.6-0.5-3.1-1.2-4.2
		c-0.7-1.1-2-1.8-3-2.7l0.9-0.4L168.4,169.7z"/>
	<path id="XMLID_207_" d="M165.3,130.8l-1.3,0.6l-0.2-0.2c0.4-0.4,0.7-0.9,1.1-1.2c1.1-0.8,2.3-1.4,3.3-2.3c1.8-1.6,3.2-3.5,2.2-6.2
		c1.5,0.7,1.6,2.6,0.2,5.2c1.7,0.1,3,0.9,3.9,2.6c-1.9-0.6-3.5-2.6-5.6-1.2l4,3.1c0-0.1,0-0.2,0-0.3c0.1-0.4,0.3-0.8,0.4-1.2
		c0.2,0.4,0.6,0.7,0.7,1.1c0.5,1.4,0.8,2.9,1.9,4.3c0.1-0.7,0.2-1.2,0.2-1.7l0.3-0.1l1,1.7l0.6-1.2l-2.7-2.4l0.2-0.3
		c0.2,0,0.4-0.1,0.6,0c1.4,0.8,3,1,4.1,2.4c0.9,1.3,2,2.4,3.1,3.5l-0.2,0.3c-0.7-0.4-1.4-0.7-2-1.1c-0.6-0.4-1.2-0.9-1.9-1.4
		l-0.3,0.3l2.1,4l-1.5-0.4l0.7,1.4c-1.2-0.3-1.8-1.2-2.3-2c-0.7-1.1-1.3-2.2-2.6-2.8c-0.6-0.3-1.1-1-1.3-1.7
		c-0.4-1.4-1.5-2.2-2.6-2.9c-0.8-0.5-1.7-1-2.5-1.5c-0.7-0.4-0.7-0.4-1.5,0.2c1.7,1.1,3.1,2.6,3.7,4.5l-0.3,0.3
		c-0.4-0.5-0.8-1.1-1.3-1.6c-0.6-0.7-1.2-1.4-1.8-2C166.4,129.7,166.3,129.7,165.3,130.8L165.3,130.8z"/>
	<path id="XMLID_206_" d="M137,166.8v7.9c1.2-1.3,1.6-3.5,1.4-7.8l1.3,1.5c-0.1-0.7-0.2-1.3-0.4-2l0.2-0.1c0.4,0.6,0.8,1.2,1.3,1.9
		c0.6-1.1,1.1-2.2,1.6-3.2c-0.2,3.2-1.7,7.7-2.6,8.5v-4.5c-0.1,1-0.1,1.8-0.3,2.6c-0.2,0.8-0.4,1.5-0.8,2.2c-0.4,0.7-0.9,1.4-1.4,2
		l-0.3,0l-2.1-6.9c-0.3,0.9-0.8,2-1.1,3.2c-0.1,0.4,0,0.8,0.2,1.1c1.7,2.2,2.1,4.5,1.2,7.2c-0.2-1.4-0.4-2.8-0.7-4.2l-0.1,0
		c-0.2,1-0.4,1.9-0.6,2.9h-0.4c0.4-3.2-1.5-5.7-3-8.2l0.3-0.1l2.1,2.2c0.7-2.3,1.2-4.5,0.6-6.9l0.3,0l0.7,0.5c0.4-1.9,0.5-4,2.6-5.1
		c-0.6,1.3-1.1,2.4-1.5,3.5l0.2,0.2c0.3-0.4,0.6-0.8,0.9-1.2l0.3,0.2c-0.2,1.1-0.5,2.1-0.8,3.4L137,166.8z"/>
	<path id="XMLID_205_" d="M201.3,74.8c0-1-0.1-2-0.1-3c-0.1-3.9-0.1-7.8-0.3-11.6c-0.1-1.7-0.2-3.5-0.7-5.1
		c-0.7-2.2-1.6-4.3-2.6-6.3c-2.8-5.5-6.3-10.4-10.9-14.6c-1.6-1.5-3.4-2.9-5-4.3c-0.3-0.3-0.7-0.6-1-0.9c0.1-0.1,0.1-0.2,0.2-0.3
		c1,0.6,2.1,1.1,3,1.8c5.5,4.2,10.1,9.3,13.4,15.4c1.3,2.3,2.7,4.7,3.6,7.1c0.7,2,1.1,4.1,1.2,6.2c0.2,3.1,0.2,6.2,0.2,9.2
		c0,1.9-0.2,3.8-0.4,5.7c0,0.2-0.1,0.4-0.2,0.6L201.3,74.8z"/>
	<path id="XMLID_204_" d="M172.5,203.7c-0.9-0.2-1.1-0.7-0.8-1.4c1.6-3.8,3.8-7.1,6.6-10.1c0.2-0.1,0.4-0.2,0.6-0.2
		c-1.3,3.3-4.2,5.8-5.6,9.5c0.8-0.5,1.4-0.8,2-1.1c0.3-0.2,0.6-0.4,1-0.5c0.3,0,0.5,0,0.8,0c0,0.3,0,0.6-0.1,0.8
		c-0.5,0.6-1,1.1-1.6,1.6c-1.2,1.2-2.5,2.4-3.8,3.6l0.2,0.3c0.6-0.3,1.1-0.7,1.7-0.9c0.6-0.2,1.2-1.1,1.9-0.3
		c0.1,0.1-0.6,1.1-1.1,1.6c-0.9,1-2,1.9-2.8,3c-2.1,2.8-2.6,6.2-3.1,9.6c-0.1,0.5-0.1,1-0.2,1.5c0,0.2-0.1,0.3-0.2,0.8
		c-1.1-4.5-0.1-8.4,1.9-12.3c-0.1,0-0.3,0-0.4,0c-0.3,0-0.8,0-0.9-0.2c-0.1-0.3-0.1-0.7,0.1-1c0.7-1,1.5-1.9,2.3-2.9
		C171.5,204.8,172,204.3,172.5,203.7z"/>
	<path id="XMLID_203_" d="M163.6,135.9c-0.7-1-1.4-1.9-2.7-2.1c1,1.7,2.1,3.2,1.4,5.4l-2.1-5l-0.3,0.1c0.7,1.6,1.5,3.1,0.5,5.2
		c-0.4-1.1-0.6-2-0.9-2.9c-0.3-0.8-0.4-1.7-1.4-1.9c0.7,1.8,1.4,3.5,0.1,5.4c-0.2-1.5-0.4-2.9-0.7-4.4H157c-0.2,1.4-0.4,2.8-0.6,4.2
		l-0.2,0.1c-0.2-0.6-0.4-1.1-0.7-1.8c-0.1,0.5-0.3,1-0.4,1.5c-0.7-0.7-0.7-0.7,0.1-5.1c-0.3,0.8-0.6,1.7-0.9,2.5
		c-0.3,0.9-0.6,1.7-1.1,2.6c0-0.7-0.1-1.5,0-2.2c0.1-0.8,0.4-1.5,0.7-2.3l-0.3-0.2c-0.8,1.5-1.6,3-2.5,4.7c-0.3-2,0.6-3.4,1.2-4.9
		l-0.3-0.2l-2.9,4.4l-0.3-0.1c0.4-1,0.6-2,1.1-2.9c0.8-1.4,1.6-2.8,3.4-3.2c0.3-0.1,0.6-0.1,0.8,0c2.5,1.4,5.1,1.3,7.4,0
		c0.4,0.3,0.7,0.6,1,0.8c1.7,0.9,2.7,2.4,3,4.3l-1.7-1.6L163.6,135.9z"/>
	<path id="XMLID_202_" d="M195.1,82.9c0.6,1.2,0.6,1.3-0.7,1.5c-1.1,0.2-0.5,0.9-0.5,1.5l-0.3,0.1c-0.3-0.5-0.7-1-0.7-1.4
		c0-0.4,0.6-0.8,1.1-1.3c-0.4-0.3-0.9-0.6-1.4-0.9c-0.2-0.1-0.3-0.4-0.4-0.7c0.3-0.1,0.6-0.3,0.8-0.3c0.5,0,1,0.2,1.5,0.2
		c-6.2-5.5-13.4-9-21.2-11.5c-7.8-2.5-15.8-3.4-24-2.4c0-0.1,0-0.3-0.1-0.4c0.8-0.2,1.6-0.5,2.4-0.6c5.6-0.9,11.1-0.2,16.6,1.1
		c8.6,1.9,16.6,5.4,23.7,10.6c1.4,1,2.8,2.2,4.1,3.4c0.3,0.3,0.4,0.8,0.6,1.1c-0.5,0-0.9,0-1.4,0.1C195.3,83,195.2,83,195.1,82.9z"
		/>
	<path id="XMLID_201_" d="M174.2,96.3l-4.1,3.2l1.3,0.4c0,0.1,0,0.2,0,0.3c-1.4,0.4-2.8,1.1-4.4,0.9c0-0.1-0.1-0.2-0.1-0.3
		c0.4-0.3,0.8-0.6,1.2-0.8c1.4-1,2.7-2,4.1-3c2.7-2.1,5.7-3.2,9.1-2c0.6,0.2,1.2,0.7,1.8,1l-0.2,0.4l-2.6-0.8c0.8,2-0.1,3.2-1.6,4.2
		l0.2,0.3l5.2-2.1l-0.4,1l1.6-0.3c-1.6,2-10.4,3.1-13,1.5h3.2C174.5,99.1,173.9,98.1,174.2,96.3z"/>
	<path id="XMLID_200_" d="M193.4,167.3c10.9,9.3,23.8,12,38,11.3c-1.9,1.1-3.7,1.4-5.6,1.5c-6.6,0.3-12.9-1.4-19-3.5
		c-2-0.7-4-1.7-6-2.6c-2.8-1.3-5-3.2-7-5.5c-0.2-0.3-0.4-0.6-0.6-0.9L193.4,167.3z"/>
	<path id="XMLID_199_" d="M145.4,180.3c0.7-1.1,1.7-1.9,1.2-3.5c-0.7-2.3,0.2-4.3,1.7-6.1c0.3-0.3,0.7-0.5,1.2-0.6
		c-1.3,2-2,4.1-1.9,6.5c0.1-0.7,0.3-1.4,0.5-2.4l0.8,1.2c0.4-1.7,0.3-3.7,2.1-4.7c-0.5,2.6-0.9,5.1-1.4,7.6l-0.5-0.4
		c-1.7,2.6-1.9,5.3-1.3,8.2c-1.4-0.7-1.7-2.2-1.5-5.7L145,182c-0.7-0.4-1.3-2.6-1.2-4.8c0.1-0.9-0.1-2.1,1.1-2.3
		c0.4-2.4,0.3-4.9,2.6-6.4c-0.7,2.7-1.3,5.5-1.9,8.1l-0.6-0.7l-0.3,0.1l0.2,4.2L145.4,180.3z"/>
	<path id="XMLID_198_" d="M162,170.3c0.6,1.1,1.3,2.1,1.9,3.2c0.2,0.3,0.3,0.7,0.6,0.9c1.5,1.1,1.7,1.9,1,3.6
		c1.4,1.2,2.2,2.8,2.6,4.7c0-1.1,0.3-2.3,0-3.3c-0.4-1.4-0.3-2.8-0.4-4.2c0-1.3-0.7-2.5-1.7-3.3c1,1.9,2.2,3.7,0.5,5.8
		c-0.3-1.3-0.4-2.7-0.9-3.9c-0.5-1.2-1.3-2.4-1.7-3.7l1.5,1.3c1.2-0.5,2.9,0.6,3.2,2.3c0.2,1,0,2-0.2,3c-0.1,0.5-0.2,0.9,0.2,1.5
		c1.2,1.7,0.9,3.8-0.7,5.2c-0.3,0.2-0.3,0.7-0.5,1c-0.3,0.6-0.6,1.2-0.9,1.8l-0.3-0.1c0.1-0.9,0.1-1.8,0.2-2.7
		c0.1-1.9-0.8-3.5-1.5-5.1c-0.2-0.4-0.3-0.8-0.3-1.3c-0.1-0.5-0.2-1.1-0.3-1.6c-0.1,0.6-0.3,1.3-0.4,1.9c0,0.3,0.1,0.6,0.2,0.8
		c1,1.5,1.4,3.3,1.1,5.1c-0.1,0.5-0.5,1-0.7,1.5l-0.4-0.1c0-1.3,0.2-2.5,0-3.7c-0.2-1.2-1.2-2.4-1-3.5c0.1-1.3-0.1-2.4-0.3-3.5
		c-0.3-1.2-0.8-2.3-1.2-3.4L162,170.3z"/>
	<path id="XMLID_457_" d="M157.2,187.7c0.1-0.6,0.2-1,0.3-1.4c0.3-1.5,0.3-2.8-0.6-4.2c-0.5-0.8-0.3-2.2-0.2-3.4
		c0.1-0.7,0.1-1.3-0.4-1.9c-0.4-0.5-0.5-1.3-0.8-1.9c0.1,1,0.1,2,0.2,3l-0.2,0.1l-1.1-1.9l-1,1.1v-7.4l1.4,2.4l1.4-1.7l0.2,0.1
		l-0.7,3.1l0.2,0l1-1.3v4.1c0.7-0.8,1.1-1.4,1.6-2l0.3,0.1c-0.2,0.9-0.5,1.7-0.5,2.6c0,0.6,0.1,1.5,0.6,1.8c1.3,0.8,1.4,2,1.7,3.2
		c0,0.3,0.1,0.6,0.3,0.9c1.1,1.5,0.7,4-1,5.3c0.2-1.3,0.4-2.4,0.6-3.8L157.2,187.7z M159.1,181c-0.5,1.2-1.5,2.4,0,3.7V181z"/>
	<path id="XMLID_195_" d="M105.5,80c-0.2-0.7-0.5-1.5-0.5-2.2c-0.1-5.4-0.1-10.8,0-16.2c0-2-0.1-4.1,0.5-6c1.4-4.2,3.2-8.2,5.8-11.9
		c0.1-0.2,0.4-0.4,0.6-0.4l-0.5,1.2c-1.5,3.6-3.2,7.1-4.6,10.8c-0.5,1.3-0.7,2.7-0.7,4.1c-0.1,3.2-0.1,6.4,0,9.6
		c0,3.1,0.1,6.2,0.2,9.3c0,0.6-0.1,1.2-0.2,1.8L105.5,80z"/>
	<path id="XMLID_194_" d="M136.6,143.8c1.7,0.1,2.7,1.1,3.8,2.1c3,2.7,6.3,4.9,10.1,6.4c1.7,0.6,3.4,1,5.2,1.2
		c6.7,0.5,12.3-2.2,17.2-6.4c1.6-1.4,3.3-2.8,5.1-4c-0.1,0.2-0.2,0.5-0.3,0.7c-4.6,4.7-9.5,9-16.3,10.4c-4.9,1-9.3,0.1-13.7-2.1
		c-3.4-1.7-6.1-4.2-9-6.6C137.9,144.9,137.2,144.3,136.6,143.8z"/>
	<path id="XMLID_193_" d="M180.5,166.1l1.9,2.2l0.2-0.1l-0.8-3.1c1.4,0.4,1.9,1.8,2.3,5.3v-6.2l0.4-0.1l0.8,2.7h0.1v-3.2l0.3-0.1
		c0.1,0.3,0.3,0.7,0.4,1c0.4,1.6,0.2,3.2-0.6,4.6c-0.3,0.6-0.4,1.4-0.5,2.2c-0.4,1.7-1.1,3.1-2.7,3.9v-2.2l-0.2-0.1
		c-0.2,0.4-0.4,0.9-0.7,1.6c-0.2-1.3-0.4-2.3-0.6-3.3l-0.3,0l-0.2,3.4l-0.4,0.1c-0.2-0.5-0.5-1-0.5-1.6c-0.1-0.5,0-1.1,0.2-1.6
		c0.3-1,1-2-0.1-3.1l0.4-0.1l2.1,2.7l0.3-0.1c-0.5-1.7-1.1-3.3-1.6-5L180.5,166.1z"/>
	<path id="XMLID_451_" d="M150.5,167.1c-0.1-0.8-0.3-1.5-0.4-2.3l-2.2,2l-0.4-0.3l1.7-3l-3.9,1.1c-0.1-0.2-0.2-0.3-0.2-0.5
		c0.9-0.5,1.7-1.2,2.6-1.6c1-0.5,1.6-0.9,1.5-2.2c-0.2-1.5,0.6-2.9,1.6-4.1c0.3-0.3,0.7-0.5,1.1-0.7l0.3,0.2
		c-0.1,0.3-0.2,0.6-0.3,0.8c-0.6,1.2-1.2,2.4-1.7,3.7c-0.2,0.5-0.1,1.2,0,1.8c1.6-2.3,2.4-4.8,2.9-7.6c0.5,0.6,0.5,1.5,1.7,0.6
		c-0.3,1-0.5,1.6-0.5,2.2c-0.1,0.8-0.1,1.6-0.1,2.5c0,0.2,0,0.4-0.1,0.5c-1.5,2-2.4,4.2-3.1,6.5
		C150.8,166.9,150.7,166.9,150.5,167.1z M151.8,160.7l0.3,0.2l1.2-0.8l-0.8-1.1L151.8,160.7z"/>
	<path id="XMLID_190_" d="M163.5,56.6c-0.1-1-0.3-2.1-0.3-3.1c-0.2-6-1.7-11.6-3.6-17.3c-1.3-3.9-3.2-7.5-5.3-11.1
		c0.5,0.5,1.2,1,1.6,1.6c2.7,3.4,4.3,7.4,5.7,11.5c1.7,5.3,2.9,10.6,2.7,16.2c0,0.7-0.1,1.4-0.2,2.1L163.5,56.6z"/>
	<path id="XMLID_189_" d="M183.3,33.5c5.6,3.7,8.9,9.2,11.4,15.1c2.3,5.2,2.5,11,2.6,16.7l-0.4,0.1c-0.4-2.2-1-4.3-1.1-6.5
		c-0.5-6.4-2.6-12.2-6.4-17.4C187.4,38.7,185.3,36.1,183.3,33.5z"/>
	<path id="XMLID_188_" d="M94,92.5c0.1-0.9-0.2-2,1.1-2.2c1.2-0.2,2.3,0.5,2.9,1.8c0.6,1.5,0.7,3.2,0.4,4.8
		c-1.1,4.9-0.5,9.7,0.6,14.5c0.1,0.4,0.2,0.8,0.3,1.3c-0.1,0-0.2,0-0.2,0c-1.5-3.2-3.3-6.4-4.6-9.7c-1.1-3-0.6-6.1,0.2-9.1h0.3
		c0,0.6,0,1.2,0,1.7c0,2.2-0.1,4.4,0.2,6.5c0.2,1.4,1.1,2.7,1.7,4.1l0.4-0.1c-0.1-0.8-0.1-1.7-0.2-2.5c-0.4-2.4,0.1-4.7,0.3-7
		c0.2-1.3-0.1-2.6-0.2-3.9c-0.1-0.7-0.5-1.1-1.3-1.3c-0.8-0.1-1.2,0.2-1.6,0.8C94.1,92.3,94,92.4,94,92.5z"/>
	<path id="XMLID_187_" d="M187.1,159.3c-0.3-1.7-0.6-3.3-0.9-5l0.3-0.1l0.9,1.1l0.2,0c0-0.6-0.1-1.2-0.1-1.8
		c-0.1-0.6-0.2-1.3-0.3-2.2l1.2,1.1v-4.2l0.4-0.1c0.3,1.2,0.5,2.4,0.8,3.6h0.2v-4.5l0.3-0.1l0.6,0.9l0.2,0c-0.1-0.3-0.1-0.6-0.2-0.9
		c-0.2-1.1-0.5-2.2-0.6-3.2c0-0.3,0.4-0.7,0.7-1c0.4,3.2,1.8,6.3,0.5,9.5l0,0c-1.3,1-1.9,2.4-2.2,4c-0.1,0.7-0.4,1.3-1.3,1.6
		C187.6,158,187.4,158.8,187.1,159.3L187.1,159.3z"/>
	<path id="XMLID_186_" d="M190,175l-1.8,3.5l-0.4-0.1c0-0.5,0.1-0.9,0.2-1.4c0.2-0.8,0.5-1.6,0.8-2.4c0.6-1.4,0.9-3,0.8-4.6
		c0-1.7,0.2-3.3,0.4-5c0-0.4,0.3-0.7,0.4-1.1l0.4,0c0,0.5,0.1,1,0.1,1.4c-0.4,2.7-0.3,5.5,0.2,8.2c0.5,2.6,1.5,5,3.1,7.1
		c0.3,0.4,0.6,0.9,0.8,1.5c-2.1-0.7-2.9-2.6-4-4.4c-0.5,1.4-0.9,2.6-1.4,3.8l-0.5-0.1l1.1-6.6L190,175z"/>
	<path id="XMLID_185_" d="M141.9,144.8c1.2-0.1,1.8,1.5,3.2,0.9c1,1.6,2.2,2,3.2,1c1.2,1.7,2.8,2,3.5,0.7c1.1,1.1,5,1.3,5.6,0.3
		c0.9,1.1,4.6,1,5.5-0.1c0.8,0.7,2.2,0.3,3.3-0.9l0.1,0.3c0.6-0.2,1.3-0.3,1.9-0.6c1.1-0.5,2.1-1,3.1-1.5c0.8-0.4,1.5-0.9,2.2-1.3
		c0.3-0.2,0.6-0.3,1-0.3c-2.2,2.2-4.9,3.6-7.7,4.7c-4.6,1.9-9.4,1.5-14.2,1.3c-3.8-0.1-7.2-1.3-10.1-3.8c-0.2-0.1-0.3-0.3-0.5-0.4
		C141.9,144.9,141.9,144.9,141.9,144.8z"/>
	<path id="XMLID_184_" d="M144.9,142.8c-0.5-0.4-0.4-1.8-1.5-0.8l-0.2-1.2c10.1,1.8,20.3,0.6,30.5,0.5l0.1,0.4
		c-0.7,0.1-1.4,0.2-2.1,0.3c-0.6,0.1-1.2,0.3-2,0.6c-0.9-0.9-2-0.6-3,1.2c-0.3-0.7-0.3-1.7-1.5-1.5c-0.9,0.2-2.2-0.3-2.5,1.5
		c-0.6-1.6-1.7-1.4-2.8-1.4c-1.7,0.1-1.8,0.1-2.4,1.9c-0.5-1.6-1.5-1.7-2.8-1.9c-1.4-0.1-2.2,0.5-2.7,1.7c-0.3-0.9-0.5-1.7-1.6-1.8
		c-1.1-0.1-1.8,0.2-2,1.6c-0.5-0.8-0.3-1.8-1.4-1.9C146.1,142.1,145.3,141.7,144.9,142.8z"/>
	<path id="XMLID_183_" d="M147.1,129c-0.2,0.3-0.4,0.8-0.8,1c-0.6,0.3-1.2,0.6-1.9,0.8c0,0.5,0.1,1,0,1.1c-1.7,1.5-3.4,2.9-5,4.3
		c0.3-2.5,3-3.6,4.3-5.6l-0.2-0.2l-0.9,0.7l-0.2-0.1l0.7-1.6l-0.1-0.2c-0.9,0.8-1.8,1.6-2.9,2.5l1.1,0.2l-3.5,3.5
		c-0.1-0.7,0.6-1.4,1.1-2.2s1-1.7,1.5-2.5l-0.3-0.2l-1,1.5c-0.6-1.7,1.4-4.5,3.4-4.4c-0.1,0.3-0.3,0.6-0.4,1c0.1,0,0.3-0.1,0.4-0.1
		c1.3-0.7,2.5-0.5,3.7,0.4C146.2,129,146.7,128.9,147.1,129L147.1,129z"/>
	<path id="XMLID_182_" d="M127.4,25.3l-6.4,6.2l-0.2-0.1l0.7-1.5l-0.3-0.2c-1.3,1.5-2.7,2.9-4,4.4L117,34c0.1-0.4,0.2-0.8,0.3-1.4
		c-2.4,1.4-4,3.6-6.5,5.1C111.3,35.3,124.3,25.8,127.4,25.3z"/>
	<path id="XMLID_181_" d="M200.5,127.1c1.5-0.3,2.1-1.2,2.3-2.7c0.4-3.2,1.7-6.2,3.5-9.2l-2.2,1l-0.2-0.2c0.2-0.3,0.4-0.8,0.7-1
		c2.2-1.5,4-3.4,4.9-6c0-0.1,0.2-0.1,0.4-0.2c0.5,0.9,0.1,1.7-0.3,2.5c-0.9,1.9-1.9,3.8-2.9,5.7c-1.5,2.7-2.6,5.5-3.1,8.5
		c-0.2,1.3-1.1,2.2-2.2,2.2c-0.3,0-0.6-0.2-0.9-0.2L200.5,127.1z"/>
	<path id="XMLID_180_" d="M147.8,137.7l1.2-3.1l-0.2-0.2c-1,1.4-2,2.7-3,4.1l-0.3-0.1c0.5-1.2,1-2.4,1.5-3.7
		c-1.7,0.7-2.3,2.3-3.4,3.6c-0.2-0.9,0.3-2,1-3.1c0.3-0.4,0.5-1,0.5-1.5c0-1.7,1.6-3.4,3.4-3.2l-3.3,3.5l0.2,0.2
		c0.7-0.3,1.4-0.4,1.7-1.4c0.2-0.9,0.9-1.5,1.9-1.6c0.3-0.1,0.7,0.1,1.2,0.1c-1.2,0.9-2.2,1.7-3.1,2.5c0.1,0.2,0.2,0.4,0.3,0.5
		c0.8-0.2,1.3-1.6,2.4-0.6c0.7-0.4,1.1-1.5,2.3-1.2l-4,5.4L147.8,137.7z"/>
	<path id="XMLID_179_" d="M168.7,162.9l0.5-1.4h0.4l-2.1-3.8l-0.3,0.1c0.1,0.9,0.2,1.7,0.4,2.8l-0.9-0.5c0,0.4,0,0.7,0.1,1.1
		c-1-0.3-1.2-1.1-1.4-1.8c-0.2-0.7-0.7-1.4-0.8-2.1c-0.1-0.6,0.2-1.2,0.3-2.1l4.3,2.6c0.1,0,0.1,0.1,0.2,0.1c0.2,1.2,1,2.3,0.5,3.6
		c0,0.1,0.3,0.3,0.4,0.5c1.1,1.3,2.2,2.6,3.2,4c-1.5-0.2-2.3-1.2-3.1-2.3C169.9,163.2,169.6,162.5,168.7,162.9L168.7,162.9z"/>
	<path id="XMLID_178_" d="M109.7,142c-0.9-0.4-1.5-1.7-1.3-3.1c0.1-0.5,0.2-1,0.3-1.5c0.1-0.4,0.3-0.9,0.6-1.6l-1.1,0.8
		c0.3-1.4,0.6-2.5,1-3.9c0.3,0.6,0.5,0.9,0.6,1.2l1.3-1.6l0.4,0.1c-0.7,1.3-0.4,2.6,0.1,4c1-2.1,1.1-4.3,1.7-6.4
		c0.6,1.1,0.4,2.2,0.3,3.3l0,0c-0.2,0.7-0.4,1.3-0.6,1.9c-0.7,1.8-2,2.9-3.8,3.9C109.3,140.1,109.5,141.1,109.7,142L109.7,142z"/>
	<path id="XMLID_177_" d="M146.8,158.4l-1.9,4.9c-1-1.1-0.4-2.3-0.2-3.9l-1.4,1.3l0.9,0.3l-3.8,4c1.5-3.6,3.9-6.7,4.5-10.7l0.5,0
		c0.2,1,0.3,1.9,0.5,3l1.2-1l0.3,0.1L146.8,158.4L146.8,158.4z"/>
	<path id="XMLID_176_" d="M152.6,232c-0.6-3.8,0.6-6.9,2.1-10l-0.2-0.2c-0.5,0.5-1,1-1.5,1.4c-0.3,0.2-0.6,0.4-0.9,0.5
		c-0.1-0.4-0.3-0.8-0.2-1.1c0.2-0.8,0.5-1.6,0.9-2.3c0.9-1.6,2-3.2,3-4.8c0.2-0.3,0.5-0.6,0.8-0.7c-0.5,2.6-2.5,4.4-3.5,7.1
		c1.1-0.7,1.9-1.3,2.8-1.9c0.2-0.1,0.6-0.1,0.9-0.1c0,0.3,0.1,0.6,0,0.8c-2.2,3.2-3.2,6.9-3.8,10.7
		C152.8,231.6,152.7,231.8,152.6,232z"/>
	<path id="XMLID_175_" d="M134,159.4l-1.1,2.2l1.9-1c-0.7,1.5-1.6,2.9-2.1,4.4c-0.5,1.5-0.5,3.2-0.7,4.6c-0.9-0.7-1.1-1.8-0.7-4.6
		c-1.2,1.5-1.5,3.2-1.1,5.3c-0.8-0.7-1.2-1.8-1.1-2.8c0.1-1,0.4-2,0.6-3c0-0.2,0.1-0.4,0.2-0.5c1.5-0.8,1.6-2.5,2.6-3.6
		c0.4-0.4,0.8-0.8,1.2-1.3L134,159.4z"/>
	<path id="XMLID_174_" d="M212,87.9l0.9,1.9c-0.7-0.4-1.1-0.7-1.5-1c-0.1-0.1-0.3,0-0.6,0c2.1,2.2,2,4.6,1,7.3
		c-0.5-2.5,0.1-5-1.8-6.9l-0.6,0.5c1.9,1.8,1.9,3.9,1,6.2c-0.4-1.8-0.7-3.6-1.1-5.6c-1.3,1.1-1.4,2.7-2.9,3.5c0-0.4-0.1-0.7,0-0.8
		c0.9-1.4,1.8-2.9,2.8-4.2C209.7,87.7,210.9,87.7,212,87.9L212,87.9z"/>
	<path id="XMLID_173_" d="M193.2,149.2l0.8,1c-0.1-1-0.2-1.8-0.3-2.7l0.4-0.1l1.3,2.6v-5.7l0.2-0.1c0.2,0.3,0.4,0.6,0.5,0.9
		c0.6,2.3,0.8,4.6-0.6,6.7c-0.2,0.4-0.3,0.9-0.4,1.3c-0.3,1.2-0.6,2.4-2.1,3v-6.9L193.2,149.2z"/>
	<path id="XMLID_172_" d="M184.3,89.8l-5.2,1.8l-0.2-0.3c0.5-0.4,1-0.8,1.5-1.2c0-0.1-0.1-0.1-0.1-0.2l-5.2,1.4l0.7-1.3
		c-0.5,0.3-1,0.5-1.5,0.7c-0.3,0.1-0.7,0.2-1,0.2c-0.1,0-0.3,0-0.3,0c-0.4,1.1-1.7,0.6-2.3,1.4c0,0.1-0.2,0-0.3,0
		c-0.1-2.3,3.9-4,6.3-4.3l-0.6,0.7l1.9,0.1l-0.3,0.4c0.9,0.2,1.9,0.5,3,0.6c0.6,0.1,1.2-0.3,1.9-0.4c0.5-0.1,1.1-0.1,1.6-0.1
		L184.3,89.8z"/>
	<path id="XMLID_171_" d="M108.9,108.1c0.1,0.1,0.5,0.4,0.5,0.6c-0.3,2.5-1.2,4.8-3.3,6.4l1.8-4.5l-0.3-0.3l-1,1.5l-0.3-0.2l1.4-4.3
		h-0.6c0.4-2.6,0.7-5.1,1.1-7.6l0.4,0C109.7,102.5,108.4,105.3,108.9,108.1z"/>
	<path id="XMLID_170_" d="M142.3,169l1.1,2.3l0.8-0.1c0,0.2,0.1,0.5,0,0.6c-1.4,2.9-1.5,6-1.4,9c0,1.2,0.9,2.3,1.4,3.5
		c0.1,0.2,0.2,0.3,0.4,0.5l-0.2,0.3c-0.5-0.3-1.1-0.6-1.4-1c-1.1-1.5-1.7-3.3-1.6-5.2c0-0.8,0.6-1.6,0.4-2.2
		c-0.6-1.9,0.4-3.5,0.4-5.3c0-0.7-0.1-1.4-0.2-2.1L142.3,169z"/>
	<path id="XMLID_169_" d="M109.6,142.1c0.2-0.2,0.4-0.4,0.5-0.6c0.1-0.5,0.2-1.1,0.3-1.7l0.4-0.1l0.6,2c0.1-1.1,0.2-2,0.4-3.3
		c1,1.3,1.8,2.3,2.5,3.4c0.2,0.3,0,0.9,0,1.4c-0.1,1.5-0.2,3-0.3,4.6l-0.3,0.1c-0.2-0.9-0.4-1.7-0.6-2.7l-1.2,1l0.8-3.2l-1.4,1.5
		l-0.2-0.1c0.1-0.7,0.2-1.3,0.3-2l-1.1,1.6C109.9,143.1,109.8,142.6,109.6,142.1L109.6,142.1z"/>
	<path id="XMLID_164_" d="M108.4,117.2l0.7,0.3l1-2.7l0.5,0.1c0,1.7,0.2,3.4-0.1,5.1c-0.4,2.2-2.5,4.9-4.1,5.4
		c0.9-1.6,1.8-3.2,2.7-4.8l-0.1-0.1l-1.5,1.7c-1.3-2,0.3-3.3,0.7-4.7L108.4,117.2z"/>
	<path id="XMLID_163_" d="M97.5,113.1c-0.8-1.4-1.7-2.7-2.5-4.1c-1-1.8-1.9-3.6-2.7-5.4c-1.1-2.7-0.8-5.4-0.1-8.1
		c0.2-0.9,0.4-1.8,0.6-2.7l0.4,0.1c-0.2,1.5-0.4,3.1-0.6,4.6c-0.4,2.7,0.1,5.2,1.4,7.5c1,1.9,2.1,3.8,3.1,5.7
		c0.3,0.7,0.5,1.5,0.8,2.2L97.5,113.1z"/>
	<path id="XMLID_162_" d="M103.7,127.3l0.4-0.7l3,4.6c-2.5-1-4.4-3.2-5.1-5.8c-0.4-1.6-1.2-3.1-1.8-4.6c-0.6-1.4-1.3-2.8-1.9-4.1
		c-0.2-0.3-0.3-0.7-0.4-1.1l0.3-0.2c0.7,1.1,1.4,2.2,2.1,3.3c0.4,0.7,0.7,1.5,1,2.3c0.1,0.3,0.5,0.4,0.6,0.7c0.2,0.3,0.4,0.7,0.5,1
		c0.3,1.5,0.6,3.1,0.9,4.6L103.7,127.3z"/>
	<path id="XMLID_161_" d="M158.9,155.1l0.7,0.4c0.7-1,1.5-0.4,2.9,2.2c-0.1-0.5-0.2-0.9-0.3-1.4c-0.2-0.5-0.4-0.9-0.7-1.4
		c1.3,0.2,2.1,1,2.3,2.4c0.1,1.3,0.1,2.6,0,3.9l-1.3-1.8l-0.4,0.7c-0.5-1.2-1-2.5-1.5-3.7l-0.3,0.1c0.1,1.2,0.5,2.4-0.4,3.6
		l-1.2-4.9L158.9,155.1z"/>
	<path id="XMLID_160_" d="M108.7,39.3c-3,4.8-5.9,9.5-8.8,14.2c0,0.1-0.3,0.1-0.6,0.1c0.2-0.7,0.2-1.3,0.4-1.8
		c1.8-4.1,4.5-7.6,7.3-11C107.5,40.2,108.1,39.8,108.7,39.3z"/>
	<path id="XMLID_159_" d="M191.6,152.3l0.7-0.4l0.3,0.1c-0.9,2.1-0.4,4.1,0.1,6.2l-0.3,0.1l-1.1-1.3c0.5,2.9-0.4,5.1-2.3,7.1
		c0.1-2,0.3-3.7,0.4-5.6l0.8,0.9l0.2,0l-0.5-4.3l0.3-0.2l0.9,0.8L191.6,152.3L191.6,152.3z"/>
	<path id="XMLID_158_" d="M206.7,111.6c0.5-2.6,1.1-5.1,1.5-7.6c0.4-2.6-0.6-5-1.6-7.4l0.4-0.2c0.3,0.3,0.7,0.6,0.9,0.9
		c2,3.1,1.9,6.4,1,9.7c-0.3,1.1-0.6,2.1-1,3.1C207.7,110.6,207.1,111.1,206.7,111.6z"/>
	<path id="XMLID_157_" d="M133.4,207c-2.5-2.1-5.4-12.6-4.3-15.6c0.3,0.5,0.6,0.9,0.7,1.3c0.4,1.8,0.7,3.5,0.9,5.3
		c0.3,2.8,1.4,5.5,2.4,8.1C133.2,206.3,133.2,206.5,133.4,207z"/>
	<path id="XMLID_156_" d="M139.6,219.3c-0.2-2.9-0.2-5.8-0.5-8.6c-0.4-2.9-1.1-5.6-1.5-8.5c0.4,0.7,0.9,1.3,1.1,2
		c0.6,2.1,1.2,4.3,1.4,6.4c0.3,2.9,0.5,5.9-0.1,8.8L139.6,219.3z"/>
	<path id="XMLID_155_" d="M201.2,113.6c0.4-0.5,0.8-1,1.2-1.4c1.7-1.3,2.5-3.6,1.9-5.7c-0.1,0.2-0.2,0.3-0.2,0.5
		c-0.1,0.2-0.2,0.4-0.4,0.5c-0.1-0.9-0.2-1.8-0.4-2.8c-1.1,0-0.3,1.4-1,1.7c-0.6-0.5-0.7-1.4-0.2-2.1c0.6-0.7,1.3-0.9,2-0.4
		c0.5,0.4,0.9,0.9,1.1,1.5c1.1,3-0.1,6.5-2.8,7.7c-0.3,0.2-0.7,0.4-1,0.7L201.2,113.6z"/>
	<path id="XMLID_154_" d="M128,89.4l-4.4,2.5c0.8,0.4,0.8,0.4,1.6-0.2c0.5-0.3,1-0.5,1.6-0.7l-3.4,3.7c0.1-0.5,0.1-0.9,0.2-1.6
		l-3.1,2.5c0.3-0.9,0.6-1.6,0.8-2.2l-0.3-0.2l-3,2.2C118.5,93.7,125.8,89.1,128,89.4z"/>
	<path id="XMLID_153_" d="M58.6,176.2c1.1-0.7,14.7-2.2,15.5-1.7C73.1,175.5,60.9,176.9,58.6,176.2z"/>
	<path id="XMLID_152_" d="M103.3,100.3l-0.8-0.5c0,0.8-0.1,1.5-0.1,2.4c-0.4-0.5-0.6-0.8-0.9-1.2v1.8c-0.9-0.8-1.1-1.9-1-3
		c0-0.5,0.3-1,0.3-1.5c0-0.3,0-0.6,0-0.9c-0.2,0.2-0.6,0.4-0.6,0.7c-0.1,1.2-0.1,2.3-0.1,3.5c0,0.5,0.2,1,0.2,1.6
		c-1-1.3-1.5-2.8-1.1-4.5c0.2-0.8,0.2-2,1.3-2.2c1-0.2,1.3,0.8,1.8,1.5s0.8,1.4,1.2,2L103.3,100.3z"/>
	<path id="XMLID_151_" d="M125.2,155.9l-0.5-0.5c-1,1.5-1.4,3.3-1.1,5c-1.1-0.7-1.5-2-1.1-3.3s1.2-2.1,2.3-2.2
		c0.8-3.2,3.2-6,5.1-5.6c-0.2,0.3-0.4,0.6-0.7,1c-1,1.1-2,2.2-2.9,3.4C125.8,154.3,125.6,155.1,125.2,155.9z"/>
	<path id="XMLID_150_" d="M175.3,152.6l2,0.8l0.1-0.1c-0.4-0.5-0.9-0.9-1.3-1.4c-0.2-0.2-0.2-0.5-0.3-0.7c0.2,0,0.5-0.1,0.7-0.1
		c1.4,0.3,3.7,3,3.8,4.3c0,0.6-0.2,1.2-0.3,1.8C179.6,157.2,175.9,154,175.3,152.6z"/>
	<path id="XMLID_149_" d="M200.8,119.8c0.3,1.2,0.5,2.3,0.7,3.4l-0.4,0.1l-2.3-5.5l0.3-0.2l1.2,0.9c-0.4-2.1-1.7-4-0.6-6.2
		c0.8,0.4,0.8,1.3,1,2.1c0.3,0.9,0.5,1.8,0.7,2.8c0.1,0.4,0.7,0.9-0.1,1.4c-0.2,0.1,0.2,1,0.4,1.7L200.8,119.8z"/>
	<path id="XMLID_148_" d="M150,181.2c0-0.3,0-0.6,0.1-0.8c1-2,1.8-4,1.5-6.4c0-0.2,0.1-0.4,0.3-0.8c0.8,0.9,1.1,2.2,0.8,3.4
		c-0.8,3.2-1.3,6.4-1,9.7c-1.3-0.9-1.5-2.4-0.7-5.9L150,181.2L150,181.2z"/>
	<path id="XMLID_147_" d="M132.9,195.9c2.5,4.6,4.1,9.5,4.4,14.7l-0.3,0.1c-0.7-2.5-1.4-5-2.1-7.5c-0.6-2.5-2.2-4.6-2.5-7.1
		L132.9,195.9z"/>
	<path id="XMLID_146_" d="M160.4,164.1c0,1.5,0,2.6,0,3.8c0,0.2-0.2,0.5-0.3,0.8l-1.8-6.6c0.6-0.1,1.3-0.5,1.7-0.3
		c0.7,0.5,1.4,1.2,1.8,1.9c0.8,1.3,0.9,2.7,0.3,3.8C161.5,166.5,161,165.4,160.4,164.1z"/>
	<path id="XMLID_145_" d="M161,177.8c2.2-0.1,3.9,6.2,2.2,7.6c-0.1-0.6-0.2-1.1-0.3-2c-0.2,0.7-0.2,1.3-0.4,1.7
		c-0.2,0.4-0.5,0.8-0.7,1.2l-0.3-0.1c0.1-1.1,0.3-2.1,0.2-3.2c-0.1-1.1-0.4-2.1-0.7-3.4l1.2,1l0.2-0.1L161,177.8z"/>
	<path id="XMLID_144_" d="M132.3,140.8c-0.1-0.3-0.2-0.5-0.2-0.6c0.7-3,1-6.1,4-7.9c0.4-0.2,0.8-0.3,1.2-0.4l0.1,0.3
		c-1.1,1.1-2.1,2.2-3.2,3.4c1.1-0.1,1.8-1.1,3-0.5c-1,0.9-2.1,1.6-2.8,2.6C133.6,138.4,133,139.6,132.3,140.8z"/>
	<path id="XMLID_143_" d="M103.8,102.6c1.7,0.7,2.4,2.6,1.9,3.8c-1.1,2.4-0.8,4.7,0,7.1c0.5,1.5,0.1,2.2-1.6,2.6
		c-1.3,0.3-2.5-0.4-2.7-1.4c0.9,0.2,2,0.4,3,0.4c0.8,0,1.1-0.6,0.8-1.4c-1-2.7-1.4-5.3-0.1-8c0.1-0.3-0.2-0.7-0.3-1.1
		C104.4,104.1,104.1,103.4,103.8,102.6z"/>
	<path id="XMLID_142_" d="M117.7,157.3c-0.2-0.6-0.2-0.9-0.4-1.3l-0.7,0.6c-0.1-0.1-0.1-0.1-0.1-0.2c0-2.1,0-4.2,0.1-6.3
		c0-0.5,0.3-1.1,0.4-1.6l0.5,0c0.1,0.9,0.3,1.7,0.5,2.8l1.1-1.8l0.4,0.2C118.8,152.1,118.3,154.6,117.7,157.3z"/>
	<path id="XMLID_141_" d="M210,106.5c0.7-4.5,3.3-8.6,2.8-13.3l0.4-0.1c0.2,0.3,0.4,0.6,0.4,0.9c0,1.4,0.2,2.9-0.2,4.3
		c-0.7,2.4-1.6,4.8-2.5,7.2c-0.2,0.4-0.4,0.7-0.6,1.1L210,106.5z"/>
	<path id="XMLID_140_" d="M102.3,106.3c0.2-0.4,0.4-0.8,0.6-1.1c0.1-0.2,0.3-0.2,0.5-0.2c0.2,0.1,0.3,0.3,0.3,0.5
		c-0.5,2.2-0.4,4.4,0,6.6c0,0.1-0.1,0.2-0.4,0.6l-0.8-3l-0.9,1c-0.3-0.8-0.4-1.5-0.6-2.1l-0.7,0.2c-0.1-1.1-0.1-2.2,0.9-2.9
		C101.4,105.8,101.9,106.1,102.3,106.3z"/>
	<path id="XMLID_139_" d="M154.3,162.9c-0.5,1.4-1,2.8-1.5,4.3c-1.2-1.9,0.2-5.8,2.5-6.6c1.1,2.5-0.1,4.7-0.5,7.3
		c-0.8-1-0.8-1-0.2-4.9L154.3,162.9z"/>
	<path id="XMLID_138_" d="M196.9,142.6l1.1,2.7l0.3-0.1c-0.2-1.2-0.4-2.3-0.7-3.5c2.4,1,2.2,5.9-0.5,8.9c0-1.5,0.1-2.8,0-4.1
		c-0.1-1.3-0.4-2.5-0.5-3.8L196.9,142.6z"/>
	<path id="XMLID_137_" d="M167.9,98.5c3.9-4.6,12.2-6.9,16-4c-0.9-0.1-1.4-0.1-2-0.1c-2.3-0.1-4.7-0.4-7,0.3
		c-1.9,0.6-3.4,1.6-4.8,2.8c-0.6,0.5-1.3,0.9-2,1.3L167.9,98.5z"/>
	<path id="XMLID_136_" d="M142.8,156.3c0.1,2.3-1.1,4.6-2.8,5.4c-0.9-0.8-1-1.8-0.7-2.9c0.5-1.9,1.5-3.5,2.8-4.8
		c0.3-0.3,0.7-0.5,1.2-0.6c-1.3,2.5-3.2,4.6-3.3,7.6l0.3,0.2L142.8,156.3z"/>
	<path id="XMLID_135_" d="M186.3,88.5l-3-2.8c1.5-0.4,2.1,1.6,3.6,1l-0.5-0.9c0.2,0,0.3-0.1,0.4,0c0.8,0.4,1.6,0.7,2.4,1.1
		c1.3,0.7,2.3,1.7,2.7,3.2l-2.5-2.3l-0.3,0.2l0.9,1.6l-0.1,0.1l-2.1-1.7l-0.1,0.1c0.1,0.3,0.2,0.6,0.4,1l-1.1-0.3L186.3,88.5z"/>
	<path id="XMLID_134_" d="M107.2,128.3l3.8-7.2h0.2c0,0.6-0.1,1.2-0.1,1.5c0.3,0.4,0.7,0.6,0.7,0.9c0.3,1.5-0.8,4-2.3,5.1
		c0.3-0.9,0.5-1.6,0.7-2.3c0.2-0.7,0.3-1.4,0.4-2.1l-3,4.5L107.2,128.3z"/>
	<path id="XMLID_133_" d="M177.4,150.8c1.3-0.5,2,0.5,3.2,0.7l-2.3-2.6c0.1-0.1,0.2-0.2,0.2-0.2c1.6,0.3,3.9,2.4,4.3,3.8
		c0.2,0.7,0,0.9-0.7,0.6c0,0.4,0,0.7,0.1,1.2L177.4,150.8z"/>
	<path id="XMLID_132_" d="M245.4,183.2l-10.3-4.5C237,177.6,244.2,180.9,245.4,183.2z"/>
	<path id="XMLID_131_" d="M136.1,175.3c0.3,0.5,0.7,0.9,1,1.4l0.6-0.8l0.2,0c0,1.2,0,2.4,0.1,3.6c0.1,1.2,0.4,2.3,0.5,3.5
		c-1.2,0.4-0.8-1.8-1.9-1.7c-0.3-2-0.6-3.9-0.9-5.9L136.1,175.3z"/>
	<path id="XMLID_130_" d="M140.2,90.4l1.7,1.6c-0.1-0.8-0.1-1.4-0.1-2l0.2-0.1l0.8,1.7c0.3-0.4,0.5-0.9,0.8-1.3l0.3,0.1l-0.4,2.5
		l0.2,0.2c0.7-1,1.3-2,1.9-3c0.3,1.1-0.7,3.5-2,3.6c-0.6,0-1.7,0.7-2.3-0.5c-0.4-0.8-0.9-1.7-1.3-2.5L140.2,90.4z"/>
	<path id="XMLID_129_" d="M140.6,95.6c-5.3-0.5-10.3-0.4-15.1,1.7C127.9,94.8,138.3,93.5,140.6,95.6z"/>
	<path id="XMLID_128_" d="M160.5,171.2c1.2,1.1,1.6,2.2,1.3,3.4c-0.3,1.1-1.1,2-1.6,3l-0.4-0.1c-0.1-1.1-0.1-2.2-0.3-3.2
		c-0.2-1-0.6-2.1-1-3.2l0.3-0.2l2,2.9C160.7,173,160.6,172.2,160.5,171.2z"/>
	<path id="XMLID_127_" d="M188.1,99.4l1.5-0.3c-1-0.7-1.9-1.3-2.8-1.9c-0.9-0.6-1.9-1.1-2.8-1.6l0.2-0.4c0.6,0.2,1.3,0.2,1.7,0.5
		c1.3,0.9,2.6,2.1,3.9,3c0.4,0.3,0.9,0.4,1.4,0.3c1-0.2,2-0.5,3.1-0.8C193.4,100.1,190,100.7,188.1,99.4z"/>
	<path id="XMLID_126_" d="M113.6,133.4c0.1-0.3,0.2-0.6,0.4-0.9c0.1-0.3,0.4-0.6,0.7-0.7l0.2,2.7l0.7-0.7c0.5,1.4-0.1,3.7-1.5,4.7
		c0.1-0.8,0.2-1.4,0.3-2.2l-1.5,1.9C113.1,136.5,113.4,134.9,113.6,133.4C113.6,133.4,113.6,133.4,113.6,133.4z"/>
	<path id="XMLID_125_" d="M156.2,155.2c0.2,0.4,0.3,0.8,0.5,1.1l1.2-1.6l0.2,0.1c-0.1,1.6-0.2,3.2-0.4,4.8l-0.9-0.6l-1.1,1.1
		l-0.3-0.1c0.3-1.6-0.2-3.3,0.4-4.8L156.2,155.2z"/>
	<path id="XMLID_124_" d="M187.8,159.3c0.1,2,0.2,3.9,0.3,5.8l-0.6-0.3c-0.2,1.1-0.4,2.1-0.6,3.2l-0.3-0.1
		C186.1,164.5,186.7,159.9,187.8,159.3z"/>
	<path id="XMLID_123_" d="M154.2,178.8c-1.1,2.8-1.4,5.6,0,8.5c-1.2-0.1-2.2-2.1-2.1-4.4C152.1,180.7,153.1,178.9,154.2,178.8z"/>
	<path id="XMLID_122_" d="M137.9,160.2c-1.1-2.2,0.9-7.1,3.2-7.2L137.9,160.2z"/>
	<path id="XMLID_121_" d="M156.4,212.5l-4.8,8.2c-0.2-2.2,2.9-7.9,4.5-8.4L156.4,212.5z"/>
	<path id="XMLID_120_" d="M140.7,151.3c-2.2,1.9-3.6,4.1-4.6,6.9c-0.5-2,0.5-4.7,2.2-6.2C138.9,151.5,139.5,150.8,140.7,151.3z"/>
	<path id="XMLID_119_" d="M165.7,132.1c2.4,2,4.6,4.2,5.4,7.3l-0.3,0.2c-1.9-2.4-3.7-4.8-5.6-7.3L165.7,132.1z"/>
	<path id="XMLID_118_" d="M163.2,113.1c-0.5-0.9-1.9-1.4-1.2-2.7c0.1-0.1-0.2-0.4-0.3-0.5c-0.2-0.3-0.4-0.6-0.6-1l0.2-0.2l1.6,0.4
		c-0.5-1.1-1-2.1-1.7-3.3c1.4,0.6,2.8,3.2,2.5,4.2l-1-0.2C162.9,110.9,163.1,112,163.2,113.1z"/>
	<path id="XMLID_117_" d="M174.3,141c-0.3-0.2-0.7-0.3-1-0.5c-1.5-1.2-2.6-2.6-3.2-4.4c-0.1-0.3,0.1-0.8,0.2-1.2
		c0.3,0.2,0.7,0.4,0.8,0.7c1.1,1.7,2.2,3.4,3.3,5.2L174.3,141z"/>
	<path id="XMLID_116_" d="M168.7,162.8c0.7,1.5,1.4,3.1,2,4.6c-1,0.2-1.6-0.3-2.1-1.5c-0.6-1.3-1.2-2.5-1.9-3.9
		C167.2,161.7,167.3,161.7,168.7,162.8L168.7,162.8z"/>
	<path id="XMLID_115_" d="M156.2,187.8c-2.3-0.7-2.7-5.7-0.5-7.8c-0.1,1.4-0.3,2.7-0.2,4C155.6,185.3,155.9,186.6,156.2,187.8z"/>
	<path id="XMLID_114_" d="M132,136.2c-0.1-2.8,3-6.5,4.7-5.8L132,136.2z"/>
	<path id="XMLID_113_" d="M185.1,163.1c-1.3-2.3-3-3.9-5.6-4.3c1.3-0.9,2.4-0.5,3.5,0.1C184.7,159.8,185.4,161.2,185.1,163.1z"/>
	<path id="XMLID_112_" d="M135.6,147.7l-3.8,6.6C130.9,152.5,133.5,147.7,135.6,147.7z"/>
	<path id="XMLID_111_" d="M129.5,93.9l4.8-4.4l-1-0.4c1.5-0.8,3.8-0.4,4.6,0.9c-0.6-0.1-1.1-0.3-1.6-0.4c-0.5-0.1-1-0.2-1.3-0.3
		C133.5,91.4,132.1,93.1,129.5,93.9z"/>
	<path id="XMLID_110_" d="M187,159.3c-0.5,0-1.2,0.1-1.6-0.1c-1.8-1.1-2.1-5.2-0.4-6.7c0,1-0.1,2,0,2.9c0.2,1.1,0.5,2.1,0.9,3.1
		C186.1,158.9,186.7,159.1,187,159.3L187,159.3z"/>
	<path id="XMLID_109_" d="M151.1,104.8c0.6-3,1.1-5.9,0.4-9.1C153.5,96.7,152.8,102.9,151.1,104.8z"/>
	<path id="XMLID_108_" d="M120.6,146.6c0.1-2.7,0.2-5.3,0.4-8C122.7,140.3,122.4,143.4,120.6,146.6z"/>
	<path id="XMLID_107_" d="M169.2,139.5l-5.8-6.3c0.4,0,0.8,0,1.1,0.2c1,0.8,2.1,1.7,2.9,2.7s1.3,2.3,2,3.4L169.2,139.5z"/>
	<path id="XMLID_106_" d="M165.7,167.3c-1.7-0.5-4.2-3.8-4.4-6C162,161.5,165.2,165.7,165.7,167.3z"/>
	<path id="XMLID_105_" d="M197.5,135.3c-0.2-0.8-0.5-1.6-0.6-2.4c-0.1-0.5,0-1,0-1.5l0.3-0.1c1,2.2,2,4.4,3.1,6.6l-0.3,0.3l-2.3-2.6
		C197.6,135.5,197.6,135.4,197.5,135.3z"/>
	<path id="XMLID_104_" d="M186.3,88.5l0.6,0.6c0.2,0.6-0.2,0.5-0.5,0.4c-1.7-0.7-3.3-1.4-4.9-2.3l1.5-0.1l-1.7-1.1l0.1-0.4
		c0.5,0.1,1,0.2,1.4,0.4c0.8,0.5,1.5,1.2,2.3,1.7C185.5,88.1,185.9,88.3,186.3,88.5z"/>
	<path id="XMLID_103_" d="M192.6,135.3c2.4,1.2,4,5,3.1,6.8L192.6,135.3z"/>
	<path id="XMLID_102_" d="M190.9,137.6l2.7,7.5C191.6,144.4,189.9,139.5,190.9,137.6z"/>
	<path id="XMLID_101_" d="M136.9,148.8l-3.3,6.1C132.7,152.9,134.8,148.9,136.9,148.8z"/>
	<path id="XMLID_100_" d="M136,91.2l-1-0.1c0.9-0.9,2.9-0.8,4.3,0.2c-0.1,0.4-0.2,0.7-0.3,1.1l-5-0.3l0-0.2l2-0.6L136,91.2z"/>
	<path id="XMLID_99_" d="M123.4,153.1l1.2-6.5C126.3,148.2,125.6,151.7,123.4,153.1z"/>
	<path id="XMLID_98_" d="M156.5,121.4c-0.9-1.2-1-6.7-0.2-7.7C156.9,114.5,157.1,119.4,156.5,121.4z"/>
	<path id="XMLID_97_" d="M169.1,154.7c2.4,0.2,5,3.4,5,5.8L169.1,154.7z"/>
	<path id="XMLID_96_" d="M167.1,167.5l-3.6-5.6c1.2,0,1.8,0.8,2.5,1.5C167.1,164.5,167.7,165.9,167.1,167.5z"/>
	<path id="XMLID_95_" d="M197.5,135.3c0,0.1,0.1,0.2,0.1,0.4c0.4,1.2,0.9,2.4,1.3,3.6c0.1,0.6-0.1,1.2-0.3,1.8l-2.6-6.6l0.3-0.2
		L197.5,135.3z"/>
	<path id="XMLID_94_" d="M121.5,150.1c-0.7,2.3-1.4,4.6-2.1,6.9C118.5,154,119.8,149.9,121.5,150.1z"/>
	<path id="XMLID_93_" d="M172.8,135.7c1,1.4,2,2.8,3.1,4.2c0.4,0.5,0.9,0.9,1.5,1.4c-2.3-0.1-5.4-3.6-5.4-6L172.8,135.7L172.8,135.7
		z"/>
	<path id="XMLID_92_" d="M138.7,150.4c-1.8,1.7-3.1,3.7-3.6,6C134.2,153.9,136.5,150,138.7,150.4z"/>
	<path id="XMLID_91_" d="M108.4,117.2l-0.2,0.2l-1.2,0.9l-0.2-0.1l2.4-5.9l0.4,0.1c0.4,1.1,0.1,2.3-0.4,3.3
		C109,116.2,108.7,116.7,108.4,117.2z"/>
	<path id="XMLID_90_" d="M130.6,150.6c0.2-1,0.1-1.8,0.5-2.4c0.7-1,1.6-1.9,2.5-2.7c0.1-0.1,0.6,0,0.9,0.1c-0.1,0.2-0.1,0.5-0.3,0.7
		C133.2,147.6,132,148.9,130.6,150.6z"/>
	<path id="XMLID_89_" d="M132.7,142.5c-0.3-2.2,2.5-5.4,4.4-5L132.7,142.5z"/>
	<path id="XMLID_88_" d="M171.1,154.7c0.4-0.7,1-0.4,1.5-0.2c1.7,0.7,3.1,1.7,3.4,3.8L171.1,154.7z"/>
	<path id="XMLID_87_" d="M178.4,160.1c0.8-0.6,2.4-0.5,3.5,0.2c1,0.7,1.5,2.3,1.1,3.5c-0.6-0.8-1-1.8-1.8-2.5
		S179.4,160.5,178.4,160.1z"/>
	<path id="XMLID_86_" d="M157.5,160.8c0.2,1.9,0.4,3.7,0.6,5.4c-1-0.3-1.8-1.5-1.8-2.8C156.2,162.3,156.7,161.1,157.5,160.8z"/>
	<path id="XMLID_85_" d="M173.9,154.2c2.1-0.4,4.3,1.7,4.8,4.3L173.9,154.2z"/>
	<path id="XMLID_84_" d="M146.8,158.4l1.9-2.1l0.2,0.1c-0.7,1.9-1.3,3.9-2,5.8l-0.3,0.1c-0.1-0.5-0.4-1.1-0.3-1.6
		C146.4,160,146.7,159.2,146.8,158.4L146.8,158.4z"/>
	<path id="XMLID_83_" d="M200.3,131.8c-0.8-1.7-1.6-3.3-2.4-5c-0.1-0.2,0.1-0.4,0.2-0.6c0.2,0.1,0.5,0.1,0.6,0.2
		c1.2,1.5,2,3.3,2.1,5.2L200.3,131.8z"/>
	<path id="XMLID_82_" d="M169,91l-1.1,2.2l-0.3-0.1c-0.1-1,0.3-1.9,1.1-2.6c0.7-0.6,1.3-1.2,2-1.7c0.2-0.1,0.5-0.3,0.7-0.4l-1.9,4.3
		l-0.2,0C169.2,92.2,169.1,91.7,169,91z"/>
	<path id="XMLID_81_" d="M172.8,135.7c-0.3-0.8-0.7-1.7-1-2.5c-0.1-0.2,0.1-0.4,0.2-0.6c0.2,0.1,0.5,0.1,0.5,0.2
		c1.2,1.7,2.3,3.5,3.5,5.3C174.6,137.9,173.9,136.5,172.8,135.7L172.8,135.7z"/>
	<path id="XMLID_80_" d="M184.4,135.9c-2,0-3.9-2.3-4.3-3.6c-0.1-0.2,0.1-0.5,0.1-0.8c0.2,0,0.5,0,0.7,0.2c0.6,0.7,1.1,1.5,1.7,2.2
		C183.2,134.7,183.8,135.3,184.4,135.9z"/>
	<path id="XMLID_79_" d="M196.7,140.1l-2.9-6.3C196.1,135,197.4,137.7,196.7,140.1z"/>
	<path id="XMLID_78_" d="M116.6,145.5c0.2-2.1,0.4-4.2,0.7-6.3C118.6,140.3,118.2,144.1,116.6,145.5z"/>
	<path id="XMLID_77_" d="M176.7,161.5c2.8,0.5,4,4.5,2.8,6.8C179.2,165.8,178.8,163.4,176.7,161.5z"/>
	<path id="XMLID_76_" d="M141.3,184.1c-1.7-0.6-3-5.4-1.7-6.8C140.2,179.6,140.8,182,141.3,184.1z"/>
	<path id="XMLID_75_" d="M128.6,148.2c0.1-2.1,1.4-3.4,3.2-4.4c0.2-0.1,0.6,0,0.9,0.1c-0.1,0.3-0.1,0.6-0.3,0.7
		C131.2,145.8,129.9,147,128.6,148.2z"/>
	<path id="XMLID_74_" d="M204.1,96.1c-0.2,0.5-0.3,0.7-0.4,1c-0.5,1.3-0.9,2.5-1.4,3.8c-0.1,0.3-0.3,0.5-0.5,0.8
		c-0.1-0.3-0.4-0.6-0.4-0.9C201.2,98.6,201.9,97.3,204.1,96.1z"/>
	<path id="XMLID_73_" d="M144.5,132.9l-3.2,4.8c-0.6-0.9-0.2-2.2,1.4-4C143.2,133.2,143.6,132.4,144.5,132.9z"/>
	<path id="XMLID_72_" d="M150,181.2c-0.2,0.4-0.5,0.9-0.4,1.3c0.1,1.1,0.3,2.3,0.5,3.4c-1.7-0.8-2.2-4.1-1-5.7
		C149.3,180.5,149.6,180.8,150,181.2L150,181.2z"/>
	<path id="XMLID_71_" d="M128,141.9c-0.7-2,0.5-5.1,2.6-5.7C129.7,138.2,128.8,140.1,128,141.9z"/>
	<path id="XMLID_70_" d="M101,116.3c1.8,1.3,3.2,2.8,3.1,5.5l-3.3-5.3L101,116.3z"/>
	<path id="XMLID_69_" d="M135.4,142.3c-0.2-2,1.9-4.5,3.8-4.4L135.4,142.3z"/>
	<path id="XMLID_68_" d="M194.5,143.7c-1.6-0.3-3.1-3.6-2.2-5.7L194.5,143.7z"/>
	<path id="XMLID_67_" d="M110.2,131.6c0.6-1.5,1.1-3.1,1.7-4.6c0.1-0.1,0.3-0.2,0.5-0.2c0.1,0.3,0.3,0.6,0.3,0.9
		c-0.2,1.6-1,3-2.1,4.1L110.2,131.6z"/>
	<path id="XMLID_66_" d="M187.2,137.3c-0.2-1.6-0.4-3.2-0.6-4.8C188.3,133,189,135.6,187.2,137.3z"/>
	<path id="XMLID_65_" d="M128.1,137c-0.3-2.1,1.4-4.6,3.4-4.7L128.1,137z"/>
	<path id="XMLID_64_" d="M114.8,141.5c0.5-1.9,1-3.7,1.5-5.4C117.5,137.2,116.8,140.2,114.8,141.5z"/>
	<path id="XMLID_63_" d="M122.8,152.5c-0.7,2.1-1.3,4-1.9,5.8C119.9,156.9,120.9,153.5,122.8,152.5z"/>
	<path id="XMLID_62_" d="M117,164.6c-0.5-1.9-1-3.7-1.5-5.6C117.1,159.7,117.9,163.1,117,164.6z"/>
	<path id="XMLID_61_" d="M169.3,157.9c0-0.1-0.1-0.1-0.2-0.1c-0.2-0.5-0.4-1-0.6-1.5c1.9,0.3,3.6,2.9,2.9,4.3L169.3,157.9z"/>
	<path id="XMLID_60_" d="M199.4,98.8c0.6,1.7,1.1,3.3,1.7,4.9C199.5,103.3,198.4,100.5,199.4,98.8z"/>
	<path id="XMLID_59_" d="M198,130.4c1.9,0.3,3,2.6,2,4.7L198,130.4z"/>
	<path id="XMLID_58_" d="M145.4,97c0-0.2,0-0.4,0-0.6c2.3,0.9,3.7,3.7,3.1,6C147.8,100.2,147.2,98.2,145.4,97L145.4,97z"/>
	<path id="XMLID_57_" d="M178,160.8c1.8-0.2,3.9,2,3.7,4L178,160.8z"/>
	<path id="XMLID_56_" d="M175.5,166.2c-1-1.4-1.9-2.7-2.9-4c0.7-0.2,1.4,0.1,2.2,1C175.5,164.1,175.9,165.1,175.5,166.2z"/>
	<path id="XMLID_55_" d="M143.8,165.7c1.8,1,2,3.6,0.6,4.8C144.2,168.9,144,167.3,143.8,165.7z"/>
	<path id="XMLID_54_" d="M151,108.9l1.6-5.4C153.4,105,152.5,108,151,108.9z"/>
	<path id="XMLID_53_" d="M143.8,121.8c-0.1,0.9-0.3,1.8-0.3,2.6c0.1,0.8,0.4,1.6,0.7,2.5c-0.9,0-1.2-0.7-1.4-1.3
		C142.4,124.3,142.5,122.9,143.8,121.8z"/>
	<path id="XMLID_52_" d="M115.9,142.6c-0.2,1.8-0.4,3.6-0.6,5.4C114.1,146.9,114.3,144.3,115.9,142.6z"/>
	<path id="XMLID_51_" d="M112.3,147.6c1.7,1.4,2.1,4.3,1,5.7C113,151.4,112.7,149.6,112.3,147.6z"/>
	<path id="XMLID_50_" d="M163.6,135.9l0.2,0.2c0.3,1,0.6,2,0.9,3.1c0,0.3,0,0.5,0,0.8l-0.3,0.1c-0.7-1.5-1.4-3-2.2-4.7L163.6,135.9z
		"/>
	<path id="XMLID_49_" d="M126.2,92.9l4.2-4C130.4,90.4,128.1,92.7,126.2,92.9z"/>
	<path id="XMLID_48_" d="M131.6,138.2l-2.5,4.6C128.3,141.5,129.9,138.4,131.6,138.2z"/>
	<path id="XMLID_47_" d="M165.2,130.8c1.3-0.4,3.1,1,3.4,2.4c-1.1-0.4-2.2-0.8-3.4-1.3C164.6,131.6,164.9,131.2,165.2,130.8
		L165.2,130.8z"/>
	<path id="XMLID_46_" d="M110.7,148.2c1.6,1.3,1.8,3.7,0.4,4.6C111,151.3,110.9,149.8,110.7,148.2z"/>
	<path id="XMLID_45_" d="M114.8,151.3c1.5,1.2,1.7,4,0.5,5.5C115.1,155,114.9,153.2,114.8,151.3z"/>
	<path id="XMLID_44_" d="M166.7,90.5c0,0.8,0.1,1.6,0.1,2.5l-0.7-0.1l-0.5,0.8h-0.3c-0.3-1.1-0.5-2.2-0.8-3.3l0.3-0.2l1.1,1.5
		c0.2-0.4,0.4-0.8,0.6-1.2L166.7,90.5z"/>
	<path id="XMLID_43_" d="M147.1,129l-1.2-0.8c1.3-0.6,4,0.8,5.2,2.4L147.1,129L147.1,129z"/>
	<path id="XMLID_42_" d="M198.4,122.6l2,4.3C198.8,126.5,197.8,124.4,198.4,122.6z"/>
	<path id="XMLID_41_" d="M170.6,182.4c-0.2-1.5-0.4-2.9-0.6-4.3c0.9,0.4,1.4,1.2,1.5,2.2C171.5,181.1,171.5,182,170.6,182.4z"/>
	<path id="XMLID_40_" d="M109.9,146.8c0.1,0.2,0.2,0.3,0.2,0.4c0,1.5,0,3.1,0,4.8C108.7,150.7,108.7,147.9,109.9,146.8z"/>
	<path id="XMLID_39_" d="M165.6,98.8c-1.3,2.5-1.3,2.5-1,4.1c-0.9-0.4-1.3-0.9-1.2-1.8C163.6,100,164.6,99,165.6,98.8z"/>
	<path id="XMLID_38_" d="M199.9,144.6c-0.1-1.7-0.2-3.2-0.3-4.9C200.9,141,201.1,143.2,199.9,144.6z"/>
	<path id="XMLID_37_" d="M141.2,139.1c-1,1.3-1.9,2.4-2.7,3.6C137.8,141.2,139.2,139.2,141.2,139.1z"/>
	<path id="XMLID_36_" d="M198.8,120.9c1.5,0.9,2.2,3,1.5,4.9C199.8,124.1,199.4,122.6,198.8,120.9z"/>
	<path id="XMLID_35_" d="M132.3,89.3c-0.2,1.6-2.1,3.3-3.8,3.4L132.3,89.3z"/>
	<path id="XMLID_34_" d="M119.3,142c0.6,1.5-0.2,3.6-2,4.8C118,145.1,118.7,143.5,119.3,142z"/>
	<path id="XMLID_33_" d="M119.4,103c-0.3,0.2-0.5,0.5-0.8,0.5c-0.8,0.1-1.6,0.2-2.5,0.3c-0.2,0-0.4-0.2-0.6-0.4
		c0.1-0.2,0.3-0.4,0.4-0.5c1.1-0.2,2.1-0.3,3.2-0.4C119.3,102.7,119.4,102.9,119.4,103z"/>
	<path id="XMLID_32_" d="M182.5,147.1c-0.9-0.6-1.8-1.3-2.6-1.9c-0.1-0.1-0.2-0.4-0.2-0.4c0.1-0.2,0.3-0.3,0.5-0.3
		C181.3,144.5,182.5,145.8,182.5,147.1z"/>
	<path id="XMLID_31_" d="M129.3,107.9c-0.4,1.4-1.5,2.2-2.6,2.9C126.6,109.5,128.1,107.8,129.3,107.9z"/>
	<path id="XMLID_30_" d="M126.8,134.6c-0.2,1.4-0.4,2.7-0.6,3.9C124.8,137.9,125.1,136,126.8,134.6z"/>
	<path id="XMLID_29_" d="M183.3,88.8c-1.6,0.6-4-0.1-4.7-1.4L183.3,88.8z"/>
	<path id="XMLID_28_" d="M128.9,171.5c1.3,0.8,2,2.8,1.4,4.8C129.8,174.6,129.4,173,128.9,171.5L128.9,171.5z"/>
	<path id="XMLID_27_" d="M122.6,147v-5.2C123.6,142.5,123.6,145.2,122.6,147z"/>
	<path id="XMLID_26_" d="M118.6,135.9l0.8-3.7C120.6,133.2,120.3,134.9,118.6,135.9z"/>
	<path id="XMLID_25_" d="M108.6,130.1c1.2,0.8,0.3,2.3-1.5,3.8C107.6,132.7,108.1,131.4,108.6,130.1z"/>
	<path id="XMLID_24_" d="M130.7,79c0.2-1.6,1.5-3.1,3-3.2L130.7,79z"/>
	<path id="XMLID_23_" d="M180.2,141.9c1-1,2.7-0.5,3.5,1.2L180.2,141.9z"/>
	<path id="XMLID_22_" d="M114.5,128.6c0.5-1.5,0.9-2.8,1.3-4.1C116.6,125.7,116.1,127.5,114.5,128.6z"/>
	<path id="XMLID_21_" d="M155.9,126.3l3.7-0.2c-0.4,0.9-1.2,1.1-2.2,1.1C156.8,127.2,156.2,127,155.9,126.3z"/>
	<path id="XMLID_20_" d="M142.3,139.7l-1.9,3.1C139.5,141.7,140.4,140,142.3,139.7z"/>
	<path id="XMLID_19_" d="M119,164.4c-0.3-1.5-0.6-3-1-4.4C119.3,160.6,119.7,162.5,119,164.4z"/>
	<path id="XMLID_18_" d="M117.9,127.7c0.8,1.2,0.3,2.9-1.2,3.8C117.1,130.2,117.5,129.1,117.9,127.7z"/>
	<path id="XMLID_17_" d="M192.3,105.1l2.4-2.8C194.6,104.1,193.3,105.3,192.3,105.1z"/>
	<path id="XMLID_16_" d="M201,106.6c-1.3-0.5-1.8-1.9-1.2-3.4L201,106.6z"/>
	<path id="XMLID_15_" d="M145.1,93.6l2.1-2.7C147.3,92.8,146.3,94.1,145.1,93.6z"/>
	<path id="XMLID_14_" d="M113.4,126.2c0.5-1.5,1-2.7,1.4-3.9C115.5,123.5,115,125,113.4,126.2z"/>
	<path id="XMLID_13_" d="M140.2,93.9c-0.2,0-0.4,0.1-0.5,0.1c-1.2-0.1-2.4-0.2-3.7-0.3C137.4,92.9,139.4,93,140.2,93.9z"/>
	<path id="XMLID_12_" d="M182.7,144.6c-0.7-0.4-1.4-0.7-2.1-1.1c-0.2-0.1-0.2-0.4-0.3-0.6c0.2-0.1,0.5-0.2,0.7-0.2
		c0.9,0.3,1.6,0.7,2,1.6L182.7,144.6z"/>
	<path id="XMLID_11_" d="M124.7,108.2c0.7,1.1,0,2.2-1.5,2.6L124.7,108.2z"/>
	<path id="XMLID_10_" d="M124.4,89.5l-3.4,1.9l-0.1-0.2c0.9-1,1.9-1.8,3.3-2C124.3,89.3,124.3,89.4,124.4,89.5z"/>
	<path id="XMLID_9_" d="M199.4,108.8l1.2,3.4C199.3,111.4,198.8,110.1,199.4,108.8z"/>
	<path id="XMLID_8_" d="M120.2,135.1c0.7,1.5,0.4,2.4-1.1,3.1C119.5,137.2,119.8,136.3,120.2,135.1z"/>
	<path id="XMLID_7_" d="M152.1,110.9l1.3-3.5C154,108.6,153.6,109.8,152.1,110.9z"/>
	<path id="XMLID_6_" d="M133,78.8l-2,2.2C131.2,79.4,131.9,78.6,133,78.8z"/>
	<path id="XMLID_5_" d="M146.3,94.3l2.2-1.7C148.2,94,147.5,94.6,146.3,94.3z"/>
	<path id="XMLID_4_" d="M145.4,96.9c0,0.3,0,0.5,0,0.6l-1.9-1.4l0.3-0.4L145.4,96.9L145.4,96.9z"/>
	<path id="XMLID_3_" d="M199.8,106.4c0.3,0.9,0.6,1.8,0.9,2.7l-0.5,0.2l-0.9-2.7L199.8,106.4z"/>
	<path id="XMLID_2_" d="M121.2,111.1l1.2-2.1l0.3,0.2c0.2,1-0.5,1.5-1.2,2.1L121.2,111.1z"/>
	<path id="XMLID_1_" d="M195.2,126.3l-1.1-2.6l0.4-0.2l1,2.6L195.2,126.3z"/>
</g>
</svg>
