<?xml version="1.0" encoding="utf-8"?>
<!-- Generator: Adobe Illustrator 19.0.0, SVG Export Plug-In . SVG Version: 6.00 Build 0)  -->
<svg version="1.1" id="Tara_Orsulich" xmlns="http://www.w3.org/2000/svg" xmlns:xlink="http://www.w3.org/1999/xlink" x="0px"
	 y="0px" viewBox="0 0 300 250" style="enable-background:new 0 0 300 250;" xml:space="preserve">
<g>
	<path id="XMLID_99_" d="M128,234.4c-0.9-0.6-1.9-1.2-2.8-1.9c-4.1-3.3-6.9-7.6-8.8-12.4c-1.4-3.7-2.6-7.4-3.3-11.3
		c-0.8-4.8-1-9.7-0.9-14.5c0.1-2.4,0.1-4.8,0.3-7.2c0.5-4.2,1.1-8.4,1.7-12.6c0.3-2.5,0.8-5,0.9-7.5c0.2-4.4,0.2-8.7,0.3-13.1
		c0-2.1,0-4.1,0-6.2l-0.3,0c-0.1,0.3-0.1,0.6-0.2,0.8c-1.5,6.4-3,12.8-4.4,19.1c-0.8,3.3-1.6,6.6-2.1,10c-0.6,3.9-1,7.9-1.4,11.9
		c-0.2,1.8-0.2,3.7-0.2,5.5c0.2,3.2,0.5,6.5,0.8,9.7c0.2,2.1,0.7,4.2,1.1,6.3c0.5,2.9,1.5,5.6,2.7,8.2c0.1,0.3,0.2,0.6,0.4,0.9
		l-0.2,0.1c-0.4-0.6-0.9-1.1-1.3-1.7c-1.9-3.2-2.8-6.7-3.6-10.3c-1.2-5.8-1.3-11.6-1.1-17.4c0.1-2.4,0.3-4.7,0.6-7.1
		c0.6-4.3,1.3-8.7,2.2-13c1-4.7,2.2-9.4,3.2-14c1.1-4.6,2.2-9.2,3.2-13.9c0.2-1.1,0-2.4-0.1-3.5c-0.1-2.5-0.4-5-0.5-7.4
		c-0.1-1.6-0.1-3.2,0-4.8c0.2-2.9,0.5-5.7,0.9-8.5c0.5-3.4,1-6.8,1.6-10.2c0.5-2.6,1.2-5.1,1.8-7.6c1-3.9,2.1-7.9,3.1-11.8
		c0.6-2.5,0.7-5.1,1.3-7.7c0.4-1.7,0.9-3.4,1.7-4.9c1.8-3.1,2.8-6.4,3.8-9.8c1.6-5.4,4-10.3,7.2-14.9c2-3,4.4-5.7,6.8-8.3
		c2.9-3.1,6.5-5.2,10.5-6.4c1.5-0.4,3-0.9,4.5-0.9c2.1,0.1,4.2,0.6,6.2,1c1.7,0.3,3.4,0.9,5.1,1.2c1.1,0.1,2.3-0.1,3.4-0.2
		c0.3,0,0.5,0,0.8,0l0.1,0.3c-0.3,0.2-0.6,0.5-1,0.6c-1.9,0.8-3.8,0.6-5.7,0.1c-2.5-0.6-5-1.3-7.6-1.6c-1.5-0.2-3.2,0.1-4.7,0.5
		c-4.7,1.1-8.5,3.6-11.7,7.2c-2.8,3.2-5.6,6.5-7.8,10.2c-2.5,4.2-4.4,8.6-5.6,13.3c-0.6,2.4-1.6,4.6-2.8,6.8c-1.3,2.4-2.2,5-2.7,7.7
		c-0.7,4.4-0.9,8.9-0.8,13.3c0.1,2.6,0.3,5.1,0.5,7.7c0,0.2,0,0.4-0.1,0.6c-1.9-3.5-1-7.4-1.7-11.3c-0.4,1.3-0.7,2.6-1,3.8
		c-0.9,3.6-1.9,7.2-2.6,10.8c-0.7,3.4-1.1,6.8-1.6,10.2c-0.3,1.8-0.6,3.6-0.6,5.5c-0.1,3-0.2,6.1-0.2,9.1c0,1.5,0.2,3,0.3,4.4
		c0,0.3,0.1,0.5,0.3,0.8c0.3-1.2,0.5-2.4,0.8-3.6c0.9-4.5,1.8-9.1,2.7-13.6c0.3-1.5,0.6-3,0.9-4.5c0.1-0.5,0.3-1,0.5-1.4
		c0.1-0.2,0.3-0.3,0.4-0.4c0.1,0.2,0.2,0.4,0.2,0.6c-0.4,2.2-0.7,4.4-1.2,6.6c-0.8,4-1.6,8.1-2.4,12.1c-0.6,2.8-1.2,5.6-1.8,8.4
		c-0.1,0.6,0,1.3,0,2c0.1,4.1,0.1,8.3,0.2,12.4c0,2.1,0.2,4.1,0.1,6.2c-0.1,3.3-0.2,6.7-0.8,10c-0.7,3.9-1.2,7.8-1.8,11.7
		c-0.7,4.7-0.6,9.4-0.6,14.1c0,5,0.7,10,2,14.8c1.2,4.3,2.6,8.5,4.8,12.3c1.6,2.8,3.8,5.2,6.3,7.3c0.5,0.5,1,0.9,1.5,1.4L128,234.4z
		"/>
	<path id="XMLID_98_" d="M210.8,223.2c-0.2-0.1-0.4-0.3-0.6-0.4c-1.6-1.2-3-2.6-4.1-4.3c-1.7-2.6-3.7-5.1-5.3-7.8
		c-2.2-3.7-3.6-7.7-4.8-11.9c-1.2-4.1-1.7-8.2-1.8-12.5c-0.1-2.5-0.2-4.9-0.1-7.4c0.1-3.2,0.5-6.4,0.7-9.5c0-0.4,0-0.9-0.1-1.3
		c-0.1,0.3-0.2,0.7-0.3,1c-0.6,3.1-1.2,6.1-1.8,9.2c-0.7,3.6-0.9,7.3-0.7,11c0.2,3.6,0.6,7.2,1.5,10.8c0.6,2.6,1.3,5.3,2.1,7.9
		c1,3.3,2.8,6.2,4.8,9c2.1,3,4.3,5.9,7,8.4l-0.2,0.2c-0.7-0.5-1.6-1-2.2-1.6c-4.4-4.2-8.1-8.9-10.2-14.6c-0.9-2.4-1.3-5.1-2.1-7.6
		c-1-3.5-1.7-7.2-1.9-10.9c-0.2-2.9-0.1-5.7,0.1-8.6c0.6-6.1,1.7-12.2,3.4-18.1c1.4-4.8,3-9.6,4.7-14.4c3-8.4,5.5-17,8-25.5
		c0.2-0.7,0.5-1.4,0.7-2.1c0.1-0.3,0.4-0.4,0.6-0.6c0.1,0.3,0.3,0.6,0.2,0.9c-0.3,1.6-0.7,3.1-1.1,4.6c-1.7,5.9-3.4,11.8-5.2,17.7
		c-1.7,5.2-3.4,10.4-4.5,15.8c-1,4.8-1.6,9.8-1.7,14.7c-0.1,2.7-0.3,5.4-0.4,8.1c0,1.8,0.2,3.6,0.3,5.4c0.2,3.7,1.1,7.3,2,10.9
		c1.2,5.1,3.5,9.6,6.3,13.9c1.4,2.2,2.9,4.4,4.4,6.5c0.6,0.9,1.4,1.7,2.1,2.5c0.2,0.2,0.3,0.4,0.5,0.6
		C210.9,223.2,210.8,223.2,210.8,223.2z"/>
	<path id="XMLID_97_" d="M93,221c-1.6-1.6-2.5-3.5-3.3-5.4c-1.5-3.7-2.4-7.5-2.9-11.4c-0.3-2.1-0.3-4.2-0.2-6.2
		c0.1-3.3,0.2-6.5,0.5-9.8c0.4-3.2,1-6.4,2.1-9.5c1.8-5.3,3.9-10.5,6.4-15.6c1.5-3.1,3.1-6.1,4.5-9.3c1-2.3,1.7-4.7,2.6-7
		c1.7-4.8,3.4-9.7,5.1-14.5c2-5.9,3.4-11.9,4.7-18c1.2-5.4,2.5-10.9,3.7-16.3c1.4-6.3,2.8-12.5,4.2-18.8c1.3-5.9,3-11.7,5.3-17.2
		c1.2-2.8,2.1-5.8,3.5-8.6c2.4-4.9,5.1-9.6,8.9-13.6c0.5-0.5,1.1-1,1.7-1.4c0.3-0.2,0.8-0.3,1.2-0.4l0.2,0.2
		c-0.1,0.2-0.2,0.4-0.3,0.6c-3.4,2.7-5.6,6.4-7.7,10.1c-1.8,3.1-3.6,6.3-4.9,9.7c-2.2,5.8-4.6,11.6-5.9,17.7
		c-1.2,5.5-2.4,11.1-3.7,16.6c-0.6,2.8-1.5,5.5-2.1,8.3c-1.1,4.7-2,9.4-3.1,14.1c-1.1,4.7-2.1,9.3-3.4,14c-0.7,2.7-1.8,5.3-2.7,7.9
		c-1.8,5.1-3.4,10.3-5.3,15.4c-1.1,2.9-2.8,5.6-4.1,8.5c-2.6,5.6-5.2,11.1-7.2,16.9c-1.3,3.8-2,7.7-2.5,11.7
		c-0.5,4.3-0.6,8.6-0.4,13c0.2,4,1,8,2.4,11.7C91.1,216.4,92.1,218.6,93,221z"/>
	<path d="M178.1,133.5l-1.3,0.4l-0.1-0.2c0.8-0.8,1.6-1.6,2.5-2.3c3.4-2.6,6.1-5.8,8.5-9.3c3.8-5.2,6.5-10.9,8-17.2
		c0.7-2.8,1.3-5.6,1.9-8.4c0.2-1,0.5-1.9,0.8-2.9c0.1-0.3,0.2-0.5,0.4-0.7l0.3,0c0,0.4,0.1,0.9,0.1,1.3c-0.6,3-1.1,6-1.8,9
		c-0.9,3.8-2.1,7.5-3.8,11.1c-0.7,1.4-0.9,3.1-1.3,4.7c-0.5,2.3-0.7,4.7-1.4,7c-0.8,2.9-1.8,5.8-2.9,8.7c-0.9,2.6-2,5.2-3,7.8
		c-2,4.8-4.3,9.4-6.9,13.9c-1.7,3-3.6,5.9-5.3,8.8c-3.1,5.1-6,10.3-8.4,15.8c-1.2,2.8-2.5,5.5-3,8.4c-0.5,2.7-0.8,5.3-1.1,8
		c-0.2,1.8-0.3,3.7-0.5,5.6c0,0.2-0.1,0.5-0.2,0.7l-0.3,0c0-1.8-0.2-3.5-0.1-5.3c0.1-2.2,0.3-4.4,0.6-6.6c0.5-4.1,1.8-8.1,3.6-11.9
		c2.8-5.7,5.6-11.4,9.2-16.7c2.7-4,5.2-8.2,7.3-12.5c2.4-4.8,4.4-9.8,6.4-14.7c1.2-2.9,2.4-5.9,3.3-9c0.7-2.4,1-4.8,1.5-7.3
		c0-0.2,0-0.5,0-0.7c-0.3,0.4-0.5,0.7-0.7,0.9c-1.9,2.2-2.5,5-3.5,7.6c-1.7,4.3-3.9,8.4-6.4,12.3c-1.5,2.4-2.8,5-3.6,7.8
		c-0.2,0.7-0.1,1.1,0.4,1.6c0.5,0.5,1,1.1,1.4,1.7c-3.1-1.1-4.3-3.8-5.4-6.6c-1.5,3-1.1,6.2-1.6,9.3c-0.1-0.6-0.3-1.1-0.4-1.7
		c-0.5-3.4,0.2-6.5,1.7-9.5c1.3-2.6,2.9-5.1,4.4-7.7C177.6,134.3,177.8,134,178.1,133.5z M175.7,147.3l0.2-0.1
		c0.3-0.9,0.6-1.8,1-2.6c1.7-3.3,3.6-6.5,5.3-9.7c1.4-2.7,2.6-5.5,3.9-8.2c0.1-0.2,0.1-0.5,0.2-0.7c-0.4,0.4-0.5,0.6-0.7,0.8
		c-1.2,1.3-2.4,2.5-3.7,3.8c-0.5,0.6-1.2,1-1.7,1.6c-2,3.1-3.9,6.3-5.8,9.4c-0.3,0.4-0.4,1.1-0.3,1.5
		C174.5,144.5,175.1,145.9,175.7,147.3z"/>
	<path id="XMLID_94_" d="M85.4,155.3c1-1.1,1.9-2.3,2.9-3.3c3.9-4.4,7-9.3,9.3-14.7c1.6-3.9,3.5-7.8,4.9-11.7
		c1.9-5.4,3.5-10.9,5.2-16.3c0.1-0.4,0.2-0.9,0.2-1.3c-3.2,4.6-5.6,9.9-10.1,13.5l-0.2-0.2c0.6-0.8,1.2-1.7,1.8-2.5
		c2.5-3.8,5-7.6,7.4-11.5c1-1.6,1.9-3.4,2.5-5.2c0.7-2,1.1-4,1.7-6.1c0.3-1,0.5-2,0.8-3c1.9-7.2,3.9-14.5,5.9-21.7
		c0.7-2.5,1.5-4.9,2.3-7.4c0.1-0.3,0.4-0.6,0.5-0.9l0.3,0.1c0,0.3,0.1,0.7,0,1c-0.5,2-1.1,3.9-1.7,5.9c-1,3.8-2.1,7.6-3.1,11.3
		c-1.2,4.7-2.5,9.3-3.7,14c-0.2,0.7-0.3,1.4-0.4,2.1l0.2,0.1c0.6-1.6,1.2-3.1,1.8-4.7c1.4-4.4,2.8-8.8,4.1-13.2
		c0.9-3,1.7-6.1,2.5-9.2c2.2-8,5.4-15.6,9.1-23c2-4,4.7-7.5,7.9-10.5c1.8-1.6,3.6-3.2,5.4-4.8c0.3-0.3,0.7-0.4,1-0.6l0.2,0.3
		c-0.4,0.4-0.8,0.9-1.2,1.3c-2,1.9-4.1,3.8-6,5.8c-3.2,3.6-6,7.6-7.9,12.1c-1.7,4.2-3.7,8.3-5.4,12.6c-0.7,1.8-1.1,3.7-1.6,5.5
		c-0.7,2.4-1.3,4.9-2,7.3c-1.7,5.4-3.5,10.7-5.2,16c-1.1,3.4-2.3,6.7-3.9,9.7c-1.1,2-1.3,4.1-1.9,6.2c-0.8,3.1-1.6,6.3-2.7,9.3
		c-1.6,4.9-3.2,9.9-5.3,14.6c-2.6,6.1-5.3,12.3-9.5,17.5c-1.9,2.3-4.4,4.8-6,5.6L85.4,155.3z"/>
	<path d="M104.6,223.5c-4-3.3-7.5-7.4-10.1-11.9c0,5.7,2.4,10.5,5.5,15l-0.2,0.1c-0.2-0.2-0.4-0.3-0.5-0.5c-0.2-0.2-0.4-0.4-0.5-0.6
		c-2.2-2.8-4.1-5.8-4.8-9.5c-0.5-2.5-0.7-5.1-1.1-7.6c0-0.3-0.1-0.7-0.3-1c-0.9-1.9-1.1-3.9-1.4-6c-0.5-3.4-0.3-6.9-0.1-10.3
		c0.1-3.4,0.9-6.6,1.8-9.8c1.3-4.6,3-9.1,5.2-13.4c2.9-5.8,5.7-11.6,8-17.7c2-5,3.6-10.2,5-15.4c0.2-0.9,0.5-1.9,0.8-2.8
		c0.1-0.3,0.3-0.5,0.5-0.7l0.3,0.1c-0.1,0.8-0.1,1.6-0.3,2.3c-0.7,3.1-1.5,6.2-2.2,9.3c-0.6,2.9-1,5.8-1.6,8.7
		c-0.9,4.4-1.9,8.8-3,13.1c-1.4,5.5-3.1,11-4.7,16.4c-0.9,3.1-1.7,6.3-2.6,9.4c-1.1,3.9-2.4,7.8-3.5,11.7c-0.4,1.2-0.6,2.5-0.7,3.8
		c0,0.7,0.1,1.4,0.4,2.1c1.5,3.3,3.4,6.3,5.7,9.1c1.5,1.9,3.1,3.8,4.6,5.6L104.6,223.5z M108.1,149.4l-0.3-0.1
		c-0.1,0.3-0.2,0.5-0.3,0.8c-1.8,4.2-3.6,8.4-5.5,12.6c-2.3,5.1-4.9,10-6.7,15.3c-1.8,5.5-3.1,11.2-3,17c0,2.7,0.3,5.4,0.5,8.2
		c0,0.3,0.2,0.6,0.2,0.9c0.3-0.5,0.3-1,0.5-1.4c1.2-3.8,2.4-7.6,3.5-11.4c1.5-5.3,3-10.7,4.5-16.1c2.1-7.4,4.4-14.6,5.9-22.2
		C107.6,151.8,107.9,150.6,108.1,149.4z"/>
	<path id="XMLID_91_" d="M123.5,106.8c0.2,0.7,0.4,1.3,0.6,2c1.7,5.4,3.2,11,5.8,16c1.7,3.2,3.6,6.3,5.6,9.4c1.1,1.7,2.6,3.1,4.4,4
		c0.4,0.2,0.8,0.6,1.2,0.9c0,0.1-0.1,0.2-0.1,0.3c-0.4,0-0.7-0.1-1.1-0.2c-2-0.8-3.5-2.2-4.8-3.8c-3.2-4-5.5-8.5-7.5-13.1
		c-0.2-0.4-0.4-0.8-0.6-1.2c0,0-0.1-0.1-0.3-0.1c0.3,2.2,0.6,4.3,0.7,6.4c0.2,2.3,0.2,4.6,0.2,7c-0.1,3.2-0.6,6.3-1.6,9.3
		c-0.1,0.4-0.3,0.7-0.4,1.1c-0.1,0.1-0.2,0.3-0.3,0.4c-0.3-2.1,0.7-4,0.8-6c-0.8,0.6-1.5,1.2-2.1,1.8c-0.1,0.1-0.1,0.5-0.1,0.8
		c0.2,2,0.2,4,0.5,6c0.7,4.2,1.3,8.4,2.2,12.5c0.9,4.3,2.7,8.4,4.4,12.4c1.4,3.2,2.5,6.5,3.4,9.8c1,3.6,1.7,7.2,1.9,10.9
		c0.1,3.6,0.2,7.1,0,10.7c-0.2,3.4-0.7,6.8-1.1,10.1c-0.1,0.5-0.3,1-0.4,1.5l-0.4-0.1c0.1-1.2,0.2-2.5,0.2-3.7
		c0.2-3.7,0.6-7.5,0.6-11.2c0.1-2.7-0.2-5.5-0.4-8.2c-0.2-3.6-0.9-7.2-1.9-10.6c-0.8-2.6-1.7-5.2-2.8-7.7c-3-7.1-5.4-14.3-6.6-21.9
		c-0.5-3-0.6-5.9-0.8-8.9c-0.3-4-0.1-8,0.3-12c0.2-2.2,0.4-4.3,0.7-6.5c0-0.2,0-0.3,0.1-0.5c0.2-0.2,0.4-0.4,0.7-0.6
		c0.1,0.3,0.2,0.5,0.2,0.8c-0.2,2.4-0.5,4.9-0.6,7.3c-0.2,2.4-0.2,4.9-0.2,7.3c0,0.3,0,0.5,0.1,0.8c1.3-1.2,2.9-2,2.8-4.1
		c-0.1-1.2,0.2-2.3,0.1-3.5c-0.1-2.2-0.4-4.3-0.5-6.4c-0.2-2.5-0.3-5-0.4-7.5c0-0.3,0-0.6-0.1-0.9c-0.7-2.6-1.5-5.3-2.2-7.9
		c-0.2-0.8-0.2-1.5-0.3-2.3L123.5,106.8z"/>
	<path id="XMLID_90_" d="M188.5,235.5c-1.1-0.6-2-1.5-2.5-2.6c-1.9-3.6-3.2-7.6-3.8-11.6c-0.4-2.6-0.5-5.1-0.7-7.7
		c-0.2-3.5-0.5-6.9-0.6-10.4c-0.1-1.2,0.1-2.4,0.1-3.6c0.1-1.8,0.1-3.6,0.2-5.4c0.2-2.1,0.4-4.1,0.7-6.2c0.6-3.8,1.4-7.6,2.1-11.4
		c1.7-9.2,4-18.2,6.8-27.1c1.7-5.5,3.8-11,5.7-16.4c2-5.6,4-11.1,6.1-16.6c1.4-3.7,2.4-7.5,3.3-11.3c0.2-0.8,0.4-1.6,0.5-2.4
		c0.1-0.2,0.2-0.4,0.4-0.5c0,0.3,0,0.6,0,0.9c-0.2,4.1-1.1,8-2.6,11.9c-1.3,3.3-2.4,6.7-3.6,10.1c-1.7,4.9-3.5,9.9-5.2,14.8
		c-0.5,1.6-1.2,3.1-1.7,4.6c-1.3,4.3-2.6,8.7-3.8,13c-0.7,2.5-1.4,4.9-2,7.4c-1.1,4.8-2.2,9.7-3.2,14.6c-0.7,3.5-1.3,6.9-1.7,10.4
		c-0.4,2.9-0.7,5.8-0.8,8.7c-0.1,4,0.1,7.9,0.3,11.9c0.2,3.5,0.5,6.9,0.8,10.4c0.1,1.3,0.5,2.6,0.8,3.9c0.9,3.5,1.9,7,4,10
		C188.3,235,188.4,235.2,188.5,235.5z"/>
	<path id="XMLID_89_" d="M220.7,117c-4.2-4.6-5.3-10.4-6-16.3c-1.3,6.4-2.1,12.9-3.6,19.3l-0.3,0c0.2-2.2,0.2-4.4,0.5-6.6
		c0.4-3.4,1-6.8,1.6-10.1c0.3-2,0.8-4,1-6.1c0.5-3.3,0.8-6.6,1.3-10c0.2-1.5,0.5-2.9,0.6-4.4c0.2-1.7,0.4-3.4,0.5-5.2
		c0.1-3.2,0.3-6.4,0.1-9.6c-0.1-2.6-0.5-5.1-0.8-7.6c-0.2-1.4-0.3-2.8-0.3-4.3c1,2.2,1.4,4.5,1.8,6.8c0.4,2.3,0.5,4.7,0.8,7
		c0-3.8,0.2-7.6,0-11.4c-0.4-5.6-2-10.9-4.3-16c-2.7-5.9-7-10.6-12.2-14.5c-3.4-2.5-7.1-4.6-11.1-6.1c-1.9-0.8-4-1.2-6.1-0.6
		c-0.2,0-0.4-0.1-0.6-0.2c0.1-0.2,0.2-0.5,0.4-0.5c1.2-0.6,2.5-0.5,3.7-0.2c4.3,0.8,8.1,2.8,11.8,5.1c4.2,2.6,7.9,5.9,11,9.7
		c1.4,1.7,2.5,3.8,3.6,5.8c2.2,4,3.5,8.4,4.3,12.9c0.7,3.7,0.8,7.4,0.7,11.1c-0.1,3.8-0.4,7.5-0.8,11.3c-0.3,2.5-0.9,5-1.3,7.5
		c-0.4,2.4-0.5,4.8-1,7.1c-0.5,2.6-0.3,5.3-0.1,7.9c0.3,5.3,1,10.6,3.6,15.4C219.9,115.1,220.3,116.1,220.7,117z"/>
	<path id="XMLID_88_" d="M171.4,233.1c-1-2-2-4-3.1-6c-1.8-3.4-2.5-7-2.3-10.7c0.1-2.4,0.5-4.7,1.2-7c1.3-4.4,2.9-8.8,4.3-13.1
		c0.2-0.5,0.2-1.1,0.1-1.6c-0.6-3.1-0.2-6.2,0.3-9.3c0.8-4.5,2-8.8,3.8-13c0.2-0.5,0.4-0.9,0.6-1.4c0.2-0.3,0.4-0.6,0.6-0.8l0.3,0.1
		c-0.2,0.7-0.3,1.4-0.6,2c-1.9,5.1-3.2,10.3-3.9,15.7c-0.2,1.6,0,3.2,0.1,4.8c0.1-0.2,0.2-0.3,0.3-0.5c2.5-6.9,5-13.8,7.4-20.7
		c0.6-1.8,1.2-3.6,1.8-5.4c0.2-0.4,0.4-0.8,0.6-1.1c0.1-0.1,0.4-0.1,0.6-0.2c0,0.2,0.2,0.4,0.1,0.6c-0.1,0.5-0.3,1.1-0.5,1.6
		c-0.9,3.1-1.8,6.2-2.8,9.3c-0.8,2.5-1.7,5-2.7,7.5c-1.4,3.7-2.8,7.4-4.2,11.1c-0.3,0.9-0.3,1.7,0,2.5c1.1,4.2,2.7,8.3,4.5,12.2
		c0.1,0.2,0.1,0.3,0,0.5c-2.8-3.3-4.3-7.3-5.8-11.5c-0.4,1.1-0.8,2-1.1,3c-1.1,3.2-2.1,6.3-3.1,9.5c-1.1,3.5-1,7.1-0.3,10.6
		c0.6,2.8,1.7,5.4,2.6,8.1c0.4,1.1,0.8,2.1,1.2,3.2L171.4,233.1z"/>
	<path id="XMLID_87_" d="M107.6,121.5c-0.1,0.6-0.1,1.3-0.3,1.9c-1.9,7.7-4.9,15-8.1,22.2c-2.2,4.9-4.7,9.5-7.4,14.1
		c-3.1,5.4-5.9,11-7.9,17c-1.2,3.5-1.8,7-2.2,10.7c-0.2,2.2-0.6,4.3-0.8,6.5c-0.3,3.2-0.4,6.3,0,9.5c0.2,1.9,0.2,3.8,0.5,5.6
		c0.4,2.3,0.9,4.6,1.4,7c0,0.1,0,0.2-0.1,0.3c-0.2-0.3-0.5-0.7-0.7-1c-1-2-1.5-4.2-1.8-6.4c-0.4-3.2-0.8-6.4-0.9-9.7
		c-0.1-4.5,0.5-8.9,1.2-13.3c0.9-6,2.7-11.9,5.3-17.4c2-4.2,4.3-8.3,6.6-12.3c2.1-3.7,4.1-7.5,5.8-11.4c2.8-6.2,5.4-12.5,7.6-19
		c0.4-1.3,0.9-2.6,1.4-3.9c0-0.1,0.1-0.2,0.2-0.3L107.6,121.5z"/>
	<path id="XMLID_86_" d="M119.7,142.8l-1.5,0.1l-0.1-0.3c0.4-0.2,0.7-0.5,1.1-0.6c0.5-0.2,0.6-0.4,0.6-0.9c0-0.8,0.1-1.6,0.1-2.4
		l0.4-0.1c0.2,0.3,0.4,0.6,0.5,0.9c0.1,0.5,0.2,1,0.2,1.5c0.1,4.4,0.5,8.8,1.3,13.1c0.8,4.5,1.7,9,3.4,13.3c1.4,3.6,3,7.1,4.3,10.7
		c1.1,3,2.1,6.2,2.6,9.3c0.6,3.7,0.7,7.5,0.8,11.2c0.1,4.6-0.1,9.3-0.3,13.9c0,1.7-0.1,3.4-0.3,5.1c0,0.5-0.3,1-0.5,1.4l-0.3,0
		c0-0.6,0-1.3,0-1.9c0-2.4,0.1-4.9,0.2-7.3c0-2.1,0.2-4.2,0.1-6.2c0-2.5-0.2-5-0.4-7.5c-0.1-1.5-0.2-3-0.3-4.5
		c-0.2-2.7-0.6-5.4-1.3-8c-1.5-5.5-4-10.6-6-16c-1.4-4-2.5-8-3.1-12.1c-0.3-2.3-0.7-4.5-1-6.8C120,146.7,119.8,144.8,119.7,142.8z"
		/>
	<path id="XMLID_85_" d="M131.6,234.3c-0.7-0.5-1.4-0.9-2.1-1.4c-5.6-4.4-9.1-10.3-11.2-17c-0.7-2.3-1.5-4.5-1.8-6.9
		c-0.5-3.4-0.9-6.8-1.1-10.2c-0.2-2.5-0.2-5,0-7.5c0.3-3.9,0.7-7.9,1.4-11.7c0.8-4.6,1.4-9.3,1.4-14c0-0.4,0.1-0.7,0.1-1.1l0.3,0
		c0.1,0.5,0.3,1.1,0.4,1.6c0.2,3.4,0.1,6.8-0.4,10.2c-0.6,3.5-1.2,7-1.6,10.6c-0.3,2.6-0.3,5.3-0.3,7.9c0,2.5,0.2,4.9,0.4,7.4
		c0.1,1.8,0.4,3.6,0.7,5.4c0.5,4.1,1.7,8.1,3.3,12c1.6,4,4,7.7,7,10.7c1.3,1.3,2.5,2.6,3.8,3.9L131.6,234.3z"/>
	<path id="XMLID_84_" d="M207.5,87.3c-0.1,0.8-0.1,1.7-0.3,2.5c-1.2,5.4-2.4,10.7-3.5,16.1c-0.9,4.2-2.4,8.2-3.9,12.2
		c-1.3,3.3-2.6,6.5-3.8,9.8c-1,2.7-1.8,5.5-2.7,8.3c-1,2.9-2.2,5.8-3,8.7c-1.2,4.3-2.5,8.6-4.1,12.8c-0.1,0.2-0.2,0.4-0.5,0.5
		c0.1-0.7,0-1.4,0.2-2.1c1.1-4.1,2.1-8.2,3.4-12.3c0.9-3,2-5.8,3-8.8c1.3-3.8,2.7-7.7,4.1-11.5c1.1-2.9,2.3-5.8,3.4-8.8
		c1.8-4.7,2.9-9.7,4.1-14.7c0.9-3.8,1.8-7.7,2.7-11.5c0.1-0.5,0.4-1,0.5-1.4L207.5,87.3z"/>
	<path id="XMLID_83_" d="M188.4,175.2c0.1,0.4,0.2,0.8,0.1,1.1c-0.6,5.6-1.4,11.2-1.3,16.9c0.1,3-0.1,6,0.1,9
		c0.1,1.9,0.3,3.8,0.6,5.7c0.6,3.4,1.2,6.9,1.9,10.2c1,4,2.2,8,4,11.7c1,2.2,2.1,4.3,3.2,6.6c-1.2-0.8-2-1.9-2.7-3
		c-3.3-5.5-5.1-11.5-6.5-17.7c-0.6-2.7-1.2-5.4-1.6-8.1c-0.3-1.9-0.5-3.9-0.5-5.9c-0.1-2.7-0.2-5.4-0.2-8c0.2-5.8,0.4-11.7,1.9-17.3
		c0.1-0.4,0.3-0.9,0.4-1.3L188.4,175.2z"/>
	<path id="XMLID_82_" d="M202,151.8c-0.2,1.5-0.3,2.9-0.5,4.4c-0.5,3.8-1.3,7.5-1.7,11.3c-0.4,3.1-0.5,6.2-0.6,9.3
		c-0.1,2.1-0.2,4.2-0.1,6.2c0.1,2.5,0.3,4.9,0.6,7.4c0.6,5.4,2.3,10.5,4.5,15.3c2.3,4.9,5,9.6,8.6,13.7c0.5,0.6,0.9,1.1,1.4,1.7
		l-0.2,0.2c-0.5-0.4-1.1-0.7-1.5-1.1c-2.6-2.5-4.6-5.5-6.5-8.6c-2.7-4.4-4.6-9.1-6.1-14c-1.1-3.6-1.8-7.3-2-11.1c-0.1-2-0.4-4-0.3-6
		c0.2-3.8,0.5-7.6,0.8-11.5c0.3-4.5,1.2-9,2-13.4c0.2-1.2,0.6-2.3,0.9-3.5c0.1-0.1,0.2-0.3,0.3-0.4L202,151.8z"/>
	<path id="XMLID_81_" d="M213.4,82.5c0.8,0.3,0.6,0.9,0.6,1.3c-0.3,2.3-0.4,4.6-0.8,6.9c-0.9,4.9-1.8,9.7-2.7,14.5
		c-0.8,4.2-2.1,8.3-3.5,12.4c-1.7,4.7-3.3,9.4-5,14.1c-1.7,4.6-3.5,9.3-5.2,13.9c0,0.1-0.1,0.2-0.1,0.3l-0.2-0.1
		c0.3-1.3,0.5-2.6,0.9-3.9c0.9-2.7,1.9-5.4,2.8-8c1-2.9,2.1-5.8,3.1-8.8c0.7-1.9,1.4-3.8,2-5.7c1.2-3.7,2.4-7.3,3.3-11
		c0.9-3.2,1.5-6.6,2.1-9.9c0.8-4.1,1.5-8.2,2.3-12.3C213,84.9,213.2,83.8,213.4,82.5z"/>
	<path id="XMLID_80_" d="M162,199c-0.4-2-0.2-4.1,0.3-6.1c1.7-6.8,3.9-13.3,7.4-19.4c2-3.6,4.5-7,6.6-10.6c1.6-2.6,3-5.3,4.4-8
		c1.7-3.3,3.2-6.6,4.8-9.9c0.1-0.2,0.3-0.5,0.4-0.7l0.2,0c0,0.3,0,0.7-0.1,1c-1,2.6-2,5.2-3.2,7.8c-1.1,2.4-2.2,4.8-3.5,7
		c-1.5,2.6-3,5.2-4.7,7.6c-4.5,6.5-7.8,13.7-10,21.2c-0.8,3-1.4,6.1-2.2,9.1c-0.1,0.3-0.2,0.6-0.2,0.9L162,199z"/>
	<path d="M178.3,80.7c-1.3,0.8-2.7,0-3.9,0.8c0-0.1-0.1-0.2-0.1-0.3l0.7-0.6c0-0.1,0-0.1-0.1-0.2l-5.4,1.3l-0.1-0.2
		c0.3-0.2,0.5-0.4,0.8-0.5c1-0.4,2.1-0.6,3.2-1c2.1-0.7,4.4-1,6.6-0.9c1.3,0.1,2.5,0.2,3.8,0.2c0.6,0,1.2,0.1,1.8,0.4
		c0.4,0.2,1,0,1.5,0c0,0.1,0,0.3,0,0.4c0.9,0.4,1.7,0.7,2.7,1.1c0.1,0.6,0.6,0.8,2,0.5l-0.4,0.7c0.7,0.5,1.7,0.7,1.8,1.8
		c-0.1,0-0.2,0.1-0.3,0.1c-0.8-0.7-1.7-0.4-2.5-0.2c-2.3,0.6-4.7,0.3-7,0.4c-1.3,0.1-2.6-0.4-3.8-0.9c-1.2-0.5-2.6-0.5-3.9-0.6
		c-0.9-0.1-1.9,0.2-2.9,0.2l-0.1-0.3c0.3-0.2,0.5-0.5,0.8-0.5c1.1-0.1,2.2-0.1,3.3-0.2c0.3,0,0.5-0.2,0.8-0.3s0.6-0.1,0.9,0
		c0.5,0.2,1,0.5,1.6,0.9v-1.5L178.3,80.7z M186.4,83.3l3.1,0.1l-1.5-1.2l0.1-0.1l-1.3-0.2C186.7,82.4,186.6,82.8,186.4,83.3z
		 M186.3,80.7l0-0.1c-0.6,0.2-1.3,0.3-1.9,0.5c-0.2,0.1-0.3,0.3-0.4,0.5c0,0.2,0.2,0.4,0.4,0.5c0.5,0.2,1.1,0.3,1.7,0.4l0.1-0.2
		l-1-0.4l0-0.2l0.9-0.1l0-0.2l-1.1-0.1L186.3,80.7z"/>
	<path d="M148.2,73.8l1.1,0.7c0,0.1-0.1,0.2-0.1,0.3c-0.4-0.1-0.8-0.3-1.2-0.3c-1.2-0.1-2.4,0-3.5-0.3c-1.4-0.4-2.8-1-4.2-1.5
		c-0.9-0.3-1.7-0.6-2.6-1c-0.1-0.1-0.3-0.1-0.4-0.2v-0.3c0.5,0,1-0.2,1.4-0.1c0.9,0.3,1.8,0.7,2.7,1.1c0.5,0.2,0.8,0.1,1.2-0.4
		l-1.3,0.1c-0.8-0.9-0.3-1.7,0.4-2.5c-2.2-0.4-3.7,0.8-5.5,1.5c0-1.2-1-0.9-1.5-1c-0.1-0.6-0.2-1.1-0.3-1.6c1,0.8,1,0.8,1.8,0.4
		c-0.1-0.2-0.2-0.4-0.3-0.6c0.7,0.6,1.4,0.4,2.1,0.1c0.2-0.1,0.2-0.3,0.3-0.5c0.9,0.6,1.4,0.5,1.6-0.1c0.4,0.1,0.9,0.3,1.3,0.4
		c0.8,0.2,1.7,0.3,2.5,0.5c1.4,0.3,2.8,0.9,4,1.7c2.1,1.4,4.1,2.9,5.8,4.8c0.1,0.1,0.1,0.4,0.2,0.5l-0.2,0.1
		c-0.7-0.6-1.4-1.1-2.1-1.8c-0.4-0.4-0.7-0.5-1.2-0.1l2.1,2.2c-0.1,0.1-0.1,0.2-0.2,0.3c-0.2-0.1-0.5-0.2-0.7-0.4
		c-0.7-0.6-1.4-1.3-2.1-1.9C149,73.9,148.5,73.9,148.2,73.8c-0.3-0.4-0.6-0.9-1-1.5l-0.5,1.2L148.2,73.8z M146.3,71.9
		c-0.3-0.2-0.5-0.5-0.9-0.7c-0.3-0.1-0.6,0-0.7,0.2c-0.1,0.2-0.1,0.3,0,0.5c0.1,0.1,0.4,0.2,0.6,0.2C145.6,72.1,146,72,146.3,71.9
		L146.3,71.9z"/>
	<path id="XMLID_74_" d="M106.1,173.7c0,0.4,0,0.8-0.1,1.2c-0.3,2.1-0.7,4.1-1,6.2c-0.3,2.6-0.6,5.2-0.7,7.9
		c-0.2,2.7-0.2,5.4-0.2,8.1c-0.1,4.3,0.6,8.4,1.4,12.6c0.6,3.4,1.9,6.5,3.2,9.6c0.5,1.2,0.9,2.3,1.4,3.5l-0.3,0.1
		c-0.4-0.6-0.8-1.2-1.2-1.8c-2.5-4.2-4-8.8-4.8-13.6c-1-5.7-1.1-11.4-0.8-17.1c0.3-4.8,0.9-9.6,1.9-14.3c0.1-0.5,0.3-1,0.5-1.5
		c0.1-0.4,0.3-0.7,0.5-1L106.1,173.7z"/>
	<path id="XMLID_73_" d="M193.6,123.8c0.5-2,1.1-4,1.6-6c1.3-5.3,2.7-10.7,4-16c0.7-2.7,1.4-5.4,1.8-8.2c0.6-3.7,1.4-7.4,1.4-11.2
		c0.1-2.9,0.5-5.8,0.7-8.6c0.1-1.4,0.2-2.8,0.2-4.3l0.2,0c0.1,0.3,0.3,0.5,0.3,0.8c0,2.3,0,4.7-0.1,7c-0.1,1.8-0.2,3.7-0.4,5.5
		c-0.4,3.2-0.6,6.5-1.2,9.6c-1.3,6.4-2.7,12.8-4.4,19.1c-1,4-2.5,8-3.8,11.9c-0.1,0.2-0.1,0.3-0.2,0.5L193.6,123.8z"/>
	<path id="XMLID_72_" d="M121.2,59.9c0-0.3,0-0.7,0.1-1c0.6-1.8,1.2-3.6,1.9-5.3c1.9-4.2,4-8.3,6.7-12.2c1.9-2.8,3.7-5.7,6.3-8
		c2.6-2.3,5.3-4.5,8-6.7c0.6-0.5,0.8-0.4,1.4,0.1c-0.5,0.4-1,0.8-1.5,1.2c-5.5,4.2-10.2,9-13.9,14.9c-3.1,5-5.5,10.4-8,15.7
		c-0.2,0.5-0.5,0.9-0.8,1.3L121.2,59.9z"/>
	<path id="XMLID_71_" d="M214,51.7c-0.8-1.5-1.6-2.9-2.4-4.4c-2.5-4.5-5.8-8.4-9.8-11.6c-2.2-1.7-4.4-3.5-6.6-5.1
		c-3.2-2.2-6.7-3.6-10.4-4.5c-0.7-0.2-1.6,0-2.3,0c-0.3,0-0.6-0.1-0.8-0.2c0.2-0.2,0.4-0.6,0.6-0.6c0.9-0.1,1.8-0.2,2.7-0.1
		c2.7,0.3,5.2,1.5,7.6,2.7c4.3,2.2,8.1,5.2,11.8,8.4c2.9,2.5,5.4,5.4,7.3,8.8c1,1.8,1.7,3.8,2.5,5.7c0.1,0.2,0.1,0.5,0.2,0.8
		L214,51.7z"/>
	<path id="XMLID_70_" d="M179.2,33.5c0.3-0.1,0.7-0.4,1-0.4c1.3,0.1,2.7,0.2,4,0.5c3.1,0.9,5.8,2.6,8.5,4.3
		c4.2,2.6,7.3,6.4,9.9,10.4c2.4,3.5,3.9,7.6,4.5,11.8c0.1,0.3,0,0.6-0.1,0.9c-0.5-1.5-1.1-2.9-1.6-4.4c-2.1-6.5-6-11.8-11.1-16.2
		c-2.4-2-5.2-3.4-8-4.8c-2.1-1.1-4.3-1.8-6.7-1.8c-0.1,0-0.3,0-0.4-0.1L179.2,33.5z"/>
	<path id="XMLID_69_" d="M207.9,54.1c-0.3-0.7-0.6-1.3-0.9-2c-1.1-2.6-2.2-5.3-3.9-7.6c-2.3-3.1-5-5.8-8.1-8
		c-3.7-2.7-7.7-4.6-12.2-5.3c-0.7-0.1-1.3-0.1-2-0.2c-0.3-0.1-0.5-0.1-0.8-0.3v-0.3c0.7-0.1,1.4-0.4,2.1-0.4
		c4.2,0.2,7.9,1.5,11.4,3.9c4.6,3.1,8.4,6.8,11.4,11.4c1.7,2.6,3.1,5.4,3.3,8.6c0,0,0,0.1,0,0.1L207.9,54.1z"/>
	<path id="XMLID_68_" d="M143.2,35.2c1-1.4,2.2-2.7,3.7-3.7c3.5-2.4,7.2-4.1,11.3-5c5.3-1.1,10.5-0.9,15.5,1.2
		c0.8,0.3,1.5,1,2.1,1.6c0.5,0.4,0.7,1.1,0.5,2c-0.4-0.3-0.7-0.5-1-0.8c-1.2-1.7-3-2.3-4.9-2.7c-5.4-1.1-10.8-0.9-16,1.2
		c-3.8,1.5-7.4,3.5-10.6,6c-0.2,0.1-0.3,0.2-0.5,0.3L143.2,35.2z"/>
	<path id="XMLID_67_" d="M170.1,119.7c-0.7,0.4-1.3,0.8-2,1.1c-3.5,1.5-7,2.8-10.8,3.2c-3.8,0.4-7.5-0.4-11.1-1.9
		c-1.7-0.7-3.2-1.7-4.4-3.1c-1-1.3-2.1-2.6-2.9-4c-1.5-2.7-2.8-5.5-4.2-8.2c-0.2-0.3-0.1-0.7-0.2-1.1l0.3-0.1
		c0.2,0.3,0.4,0.6,0.6,0.9c1.2,2.2,2.2,4.5,3.5,6.7c1,1.8,2.2,3.5,3.5,5.2c1.3,1.7,3.1,2.6,5,3.3c3.5,1.2,7.1,2,10.7,1.4
		c2.9-0.5,5.7-1.5,8.5-2.3c1.1-0.3,2.2-0.8,3.3-1.2L170.1,119.7z"/>
	<path id="XMLID_66_" d="M83.2,198.2c-0.6-2.5-0.6-4.9-0.4-7.4c0.2-2.1,0.4-4.3,0.8-6.4c1.1-5.6,2.8-11,5.4-16
		c1.3-2.5,2.5-5,3.8-7.5c0.2-0.3,0.4-0.7,0.6-1l0.2,0.1c-0.4,1.1-0.7,2.1-1.1,3.2c-1.7,3.8-3.5,7.6-5,11.5c-1.1,2.8-1.9,5.7-2.5,8.7
		c-0.6,3.2-1,6.4-1.4,9.6C83.5,194.7,83.4,196.5,83.2,198.2z"/>
	<path id="XMLID_65_" d="M168.9,197.3c-0.1,0.4-0.1,0.9-0.2,1.3c-0.6,1.9-1.4,3.8-1.9,5.8c-0.9,3-1.7,6.1-2.3,9.2
		c-0.8,3.7-0.4,7.4,0.7,11c0.7,2.2,1.6,4.4,2.4,6.6c0.1,0.3,0.2,0.6,0.1,0.9c-0.3-0.3-0.5-0.6-0.7-0.9c-2.2-3.4-3.6-7.2-4-11.2
		c-0.4-3.2,0-6.5,0.9-9.6c0.9-3,1.8-6,2.8-9c0.4-1.2,1-2.3,1.5-3.5c0.1-0.2,0.3-0.4,0.4-0.6L168.9,197.3z"/>
	<path id="XMLID_64_" d="M181.9,74.4c0.9-0.1,1.7-0.3,2.6-0.3c0.6,0,1.1,0.2,1.7,0.4c0.7,0.3,1.4,0.1,2.1,0c0.5,0,1.1,0.1,1.6,0.1
		c0,0.1,0,0.2,0,0.3l-1.4,0.7c2.7-0.5,4.9,0.7,7.3,1.3l0,0.3l-1,0.1c1.8,1.2,3.5,3.1,3.9,4.5l-2.2-1.4l0.9-0.3l-2.4-1l0.9-0.6
		l-3.4-0.7c0.1-0.3,0.3-0.5,0.4-0.8l-5,0.4c0-0.1,0-0.1-0.1-0.2l1-0.6c0-0.1,0-0.1,0-0.2l-3.4,0.6c0.2-0.3,0.3-0.5,0.5-0.7
		c-0.9-0.1-1.7,0.9-2.9,0.6l1.1-1.1c0,0,0-0.1-0.1-0.1l-2.7,1.2l-0.2-0.2l1.6-1.6l-0.1-0.2l-3.6,2.2c0-1,0.8-1.3,1.2-1.9L181.9,74.4
		z"/>
	<path id="XMLID_63_" d="M147.7,24.7c0.4-0.4,0.8-0.9,1.3-1.2c1.6-0.9,3.3-1.8,5-2.4c2.6-0.9,5.3-1.7,8.1-2.4c2.3-0.5,4.7-0.8,7.1-1
		c2.1-0.2,4.3-0.2,6.4-0.2c1.5,0,3,0.1,4.3,0.9c0.7,0.4,1,1,1,2c-0.2-0.1-0.5-0.2-0.6-0.3c-1.1-1.4-2.7-1.5-4.2-1.7
		c-5.8-0.5-11.6,0.3-17.1,2c-3.1,1-6.1,2.4-9.1,3.6c-0.6,0.3-1.3,0.5-1.9,0.8L147.7,24.7z"/>
	<path id="XMLID_62_" d="M169.8,115.4c-1.6,0-3.2,0-4.7,0c-1,0-2-0.4-3-0.5c-0.4-0.1-0.9,0.3-1.4,0.6c-0.1-0.6-0.6-1-1.4-1.2
		c-0.8-0.2-1.4-0.6-2,0.7c-0.1-1.7-1.3-1.8-2.3-2.1c-1.1-0.3-2.2-0.5-3,0.7c-0.1-1.4-1-1.9-2-2.4c-1.1-0.6-2-0.6-2.9,0.3
		c-0.4-0.7-0.6-1.4-1.1-1.8c-0.8-0.7-1.3-0.6-1.9,0.1c-0.7-1-1.2-2.4-2.7-1.9l-2.2-2.3c0.5,0.2,1,0.2,1.4,0.5
		c2.7,1.6,5.5,2.9,8.5,3.9c0.1,0,0.2,0.1,0.3,0.1c2.1,1.6,4.7,1.9,7.2,2.5c1.7,0.5,3.3,1.1,4.9,1.4c2.1,0.4,4.2,0.6,6.2,0.8
		c0.7,0.1,1.4,0.2,2.1,0.3C169.8,115.3,169.8,115.4,169.8,115.4z"/>
	<path id="XMLID_61_" d="M177.2,38.6c0.2,0,0.4,0,0.5,0.1c2.3,1.5,4.9,2.1,7.5,2.7c1.4,0.3,2.9,0.7,4.2,1.3c1.5,0.7,2.9,1.6,4.2,2.7
		c2.8,2.3,4.8,5.1,5.9,8.6c0.3,1.1,0.5,2.2,0.7,3.3l-0.3,0.1c-0.3-0.7-0.6-1.4-0.9-2.1c-0.8-2.6-2.1-5-3.9-7
		c-1.7-1.8-3.4-3.6-5.8-4.5c-2.1-0.8-4.4-1.3-6.6-1.9c-1.6-0.4-3.2-0.9-4.6-2c-0.4-0.3-0.8-0.8-1.1-1.1L177.2,38.6z"/>
	<path id="XMLID_60_" d="M199.3,90c0.1-1.7,0.4-3.3,0.4-5c0.1-2.8,0.1-5.7,0.1-8.5c0-4.3-0.2-8.6-0.3-12.9c0-0.8-0.1-1.7-0.1-2.5
		c0-0.3,0.1-0.6,0.1-0.9l0.3-0.1c0.1,0.4,0.3,0.7,0.4,1.1c0.1,1.7,0.3,3.4,0.4,5.1c0.1,2,0.3,4.1,0.3,6.1c0,4.7,0.3,9.4-0.3,14.1
		c-0.2,1.2-0.6,2.4-0.9,3.6L199.3,90z"/>
	<path id="XMLID_59_" d="M142.2,139.9l2.6,0.4c5.5,0.8,10.9,1,16.2-0.9c1.8-0.7,3.4-1.8,5.1-2.7l0.9-0.5l0.3,0.3
		c-0.5,0.5-0.9,1-1.4,1.4c-2.7,2-5.7,3.1-9,3.6c-4.3,0.7-8.6,0.3-12.8-0.3C143.4,141.1,142.6,141,142.2,139.9z"/>
	<path id="XMLID_58_" d="M150.4,35.8c1.6-1.1,3.5-1.8,5.4-2.1c1.9-0.3,3.9-0.6,5.9-0.2c1.2,0.2,2.4,0.5,3.6,0.8
		c2.4,0.7,4.8,0.9,7.2,1c0.3,0,0.6,0.2,0.9,0.3c-0.3,0.2-0.5,0.6-0.8,0.7c-1.1,0.1-2.2,0.2-3.2,0c-2.1-0.4-4.2-0.9-6.2-1.3
		c-3.4-0.7-6.8-0.5-10.2,0.4c-0.8,0.2-1.7,0.4-2.5,0.6C150.4,35.9,150.4,35.8,150.4,35.8z"/>
	<path id="XMLID_57_" d="M160.1,117.1c0.6,0.6,2.3,0.7,3.2,0.3c0.2-0.1,0.3,0,0.5,0c0.7,0.3,2.2,0.1,2.5-0.2c1,0.1,1.8,0.1,2.6,0.2
		c1.2,0.1,2.5,0.1,3.7,0.1c0.2,0,0.3,0.1,0.5,0.3c-0.7,0.1-1.3,0.2-2,0.3c-3.3,0.2-6.6,0.4-9.9,0.5c-2,0.1-4,0.2-5.9,0.1
		c-1.7-0.1-3.3-0.5-4.9-0.9c-0.3-0.1-0.6-0.4-1-0.7c1.4,0,1-1.4,1.8-2.1c0,0.5,0,0.7-0.1,1c-0.1,1,0,1.2,1,1.4
		c1.1,0.2,2.3,0.4,3.4,0.5c0.2,0,0.4-0.2,0.6-0.4c0.1-0.1,0.1-0.4,0.4-0.5l0.2,0.9C157.9,117.8,159.2,118.4,160.1,117.1z"/>
	<path id="XMLID_56_" d="M184.7,235.4c-0.6-0.8-1.3-1.5-1.8-2.3c-1.5-2.2-2.2-4.8-2.7-7.4c-0.7-3.4-1.1-6.8-1.2-10.2
		c0-0.4,0.1-0.8,0.2-1.2l0.3-0.1c0.1,0.6,0.4,1.1,0.4,1.7c0.4,4.1,0.9,8.2,2,12.2c0.5,1.7,1.4,3.4,2.2,5c0.3,0.7,0.7,1.3,1,2
		L184.7,235.4z"/>
	<path id="XMLID_55_" d="M131.9,101.6c0.3,0.2,0.6,0.3,0.9,0.6c1.6,1.6,3.2,3.2,4.8,4.8c0.2,0.2,0.5,0.3,0.8,0.5
		c0.1,0.7,0.3,1,1.6,2.3l0.4-0.7c0.2,0.7-0.2,1.5,0.6,2.1c0.6,0.3,0.7,1.3,1.7,1.2c0,1.3,1.8,2.4,3,1.8c0.1,1.4,1.2,1.8,2.3,2.1
		c0.3,0.1,0.9,0.5,0.9,0.6c-0.2,0.6-0.7,0.3-1.1,0.2c-1.9-0.5-3.6-1.5-5-2.9c-2-2.1-3.8-4.3-5.6-6.5c-1.5-1.7-3-3.3-4.5-4.9
		c-0.3-0.3-0.6-0.6-0.9-1C131.8,101.8,131.9,101.7,131.9,101.6z"/>
	<path id="XMLID_54_" d="M207.4,83.7c0-1.1,0-2.1,0-3.2c0-2,0.1-3.9,0.2-5.9c0-3,0-6,0-9c0-0.2,0.2-0.4,0.3-0.6
		c0.1,0.2,0.4,0.3,0.4,0.5c0.2,1,0.3,2,0.3,3c0.1,2.9,0.2,5.8,0.2,8.8C208.8,79.5,208.5,81.7,207.4,83.7z"/>
	<path id="XMLID_53_" d="M157.6,76.5l1,2.7l0.4-3.2l0.2-0.1c0.1,0.4,0.4,0.8,0.3,1.2c-0.2,1.6-0.3,3.2-0.8,4.8
		c-1,2.9-2.2,5.7-3.3,8.5c-0.3,0.7-0.5,1.4-0.8,2.1c-0.2,0.4-0.4,0.8-0.6,1.2c-0.3-1-0.1-2,0.3-2.9c0.8-1.9,1.7-3.9,2.5-5.8
		c0.7-1.7,0.6-3.5,0.7-5.3c0-0.9-0.2-1.8-0.3-2.7c0-0.2,0-0.4,0.1-0.6L157.6,76.5z"/>
	<path id="XMLID_52_" d="M179.1,25c-2.2-1.7-4.6-2.3-7-2.9c-4-1-8-0.8-12-0.2c-0.2,0-0.3,0-0.5,0l-0.1-0.3c0.9-0.3,1.7-0.7,2.6-0.8
		c5.5-0.9,10.9-0.3,15.9,2.3c0.4,0.2,0.8,0.6,1,0.9C179.2,24.3,179.1,24.7,179.1,25z"/>
	<path id="XMLID_51_" d="M175.5,115.8c-1.1-0.2-2.2-0.2-3.3-0.5c-3.2-1-6.3-2.2-9.5-3.3c-1.5-0.5-2.9-1.2-4.4-1.5
		c-0.9-0.2-2-0.1-3-0.2c-0.3,0-0.7-0.1-1-0.2l0-0.4c0.7-0.1,1.4-0.3,2.1-0.3c1.6-0.1,3.2,0.3,4.6,0.9c2.7,1.1,5.3,2.2,8,3.2
		c2.1,0.8,4.3,1.3,6.4,1.9c0.1,0,0.1,0.1,0.2,0.1L175.5,115.8z"/>
	<path id="XMLID_50_" d="M158.3,30.3c3.2-1.2,6.5-1.1,9.9-0.4c1.9,0.4,3.7,0.9,5.2,2c0.3,0.2,0.6,0.5,0.9,0.8
		c0.1,0.2,0.1,0.5,0.1,0.8C169.4,30.2,163.8,30.3,158.3,30.3z"/>
	<path id="XMLID_49_" d="M135.1,102.8c0.1,0,0.3,0,0.4,0.1c2.4,1.6,5.3,1.6,7.9,2.3c1.9,0.5,3.8,0.7,5.6,1.4
		c1.5,0.5,2.8,1.5,4.1,2.4c0.1,0.1,0.2,0.2,0.1,0.6c-0.4-0.1-0.9-0.2-1.2-0.3c-1.2-0.6-2.3-1.4-3.5-1.8c-1.9-0.6-3.8-1-5.8-1.5
		c-1.9-0.5-3.8-0.9-5.6-1.4C136.3,104.2,135.5,103.6,135.1,102.8z"/>
	<path id="XMLID_48_" d="M143.9,147.4c0.8,1.2,0.7,1.7-0.1,3c-0.3,0.4-0.4,0.9-0.7,1.4c-0.6-0.1-0.8-0.5-0.6-1.3
		c0.2-0.6,0.5-1.1,0.7-1.7c-1.9-1-1.9-1.2,0-2.7c-0.5-0.1-0.9-0.2-1.3-0.3c-0.4-0.1-0.9-0.2-1.2-0.4c-0.2-0.1-0.3-0.5-0.5-0.8
		c0.3,0,0.5,0,0.8,0c1.2,0.2,2.4,0.5,3.6,0.7c0.2,0,0.4,0.1,0.5,0.2c0.2,0.2,0.5,0.4,0.5,0.6c0,0.2-0.2,0.5-0.4,0.7
		C144.9,147.1,144.4,147.2,143.9,147.4z"/>
	<path id="XMLID_47_" d="M181.9,74.4l-1.6,0.9c-0.8,0.4-1.5,0.9-2.3,1.3c-0.3,0.2-0.6,0.3-0.9,0.4c0.1-0.3,0.2-0.7,0.3-1.2l-1.8,1.7
		c-0.3-0.8,0.4-1.2,0.6-2l-1.6,1.4c0-1.6,2.5-3.7,5.9-3.7l-1.7,1.6l3.3-1.1L181.9,74.4z"/>
	<path id="XMLID_46_" d="M203,31.2c-0.5-0.3-1-0.5-1.4-0.8c-2.8-2.1-5.8-3.7-8.9-5.2c-0.2-0.1-0.4-0.3-0.6-0.5
		c0.3-0.1,0.6-0.2,0.8-0.2c1.3,0.5,2.6,0.9,3.8,1.6c1.9,1.1,3.7,2.4,5.6,3.7c0.4,0.3,0.6,0.7,1,1.1C203.1,31.1,203,31.2,203,31.2z"
		/>
	<path id="XMLID_45_" d="M164.7,139.2c0.9-0.3,1.7-0.7,2.6-1.1c2.4-1.1,4.8-2.2,7.1-3.3c0.2-0.1,0.4-0.2,0.6-0.3
		c0.2,0,0.4,0,0.6,0.1c-0.1,0.2-0.1,0.4-0.2,0.5c-0.7,0.5-1.4,0.9-2.2,1.3c-1.9,0.9-3.9,1.9-5.9,2.7
		C166.5,139.5,165.6,139.8,164.7,139.2z"/>
	<path id="XMLID_44_" d="M189.5,41.3c-0.5-0.2-1.1-0.5-1.6-0.6c-2-0.6-4-1.2-6-1.7c-1.1-0.3-2.9-1.2-3.3-1.9
		c0.1-0.1,0.3-0.2,0.4-0.2c2.8,0.9,5.6,1.8,8.4,2.8c0.8,0.3,1.5,0.9,2.3,1.4C189.6,41.2,189.6,41.2,189.5,41.3z"/>
	<path id="XMLID_43_" d="M142.2,64v1c-1.4-1.2-2.5-2.4-4.3-2.9c0.1,0.3,0.2,0.5,0.4,0.9l-4.1-0.5c0,0,0-0.1,0-0.1
		c1.9-1.4,2.9-1.6,5.2-0.4c0.5,0.3,1,0.5,1.6,0.8L142.2,64z"/>
	<path id="XMLID_42_" d="M167.6,23.9c1.4-0.7,2.9-0.5,4.3-0.3c1.9,0.4,3.6,1.2,5.2,2.3c0.2,0.2,0.3,0.5,0.5,0.8
		c-0.3,0-0.7,0.1-0.9,0c-0.9-0.4-1.7-1-2.5-1.4c-1.8-0.8-3.6-1.2-5.6-1.3C168.3,24,167.9,23.9,167.6,23.9z"/>
	<path id="XMLID_41_" d="M166.9,72.8l-4.5,10.9C161.7,81.8,165.3,73.4,166.9,72.8z"/>
	<path id="XMLID_40_" d="M142.2,64l-1.3-1.3l-0.5-0.7c0-0.1,0.1-0.1,0.1-0.2l1.7,0.8l-0.3-0.9l1.4,1c0-0.2,0-0.4,0.1-0.6
		c1,1.3,2,2.6,2.5,4.2l-0.2,0.2l-1.5-1.7c-0.1,0.3-0.2,0.5-0.2,0.8c-0.2-0.1-0.5-0.3-0.7-0.5C142.8,64.8,142.5,64.4,142.2,64z"/>
	<path id="XMLID_39_" d="M150.5,65.9l-0.2-0.9c1.8,1,3.2,3.6,2.5,5l-1.7-3L151,67c0.1,0.5,0.2,1,0.3,1.5l-0.2,0l-3.1-4.7
		C149.2,64.1,149.7,65,150.5,65.9z"/>
	<path id="XMLID_38_" d="M154.4,104.2c-0.8,0.6-1.5,0.3-2-0.2c-1.1-0.8-2.1-1.7-3.1-2.6c-0.7-0.6-1.4-1.3-2-2
		c-0.2-0.2-0.3-0.5-0.4-0.8c0.3,0.1,0.6,0.1,0.8,0.2c1.4,1.2,2.8,2.5,4.3,3.7c0.6,0.5,1.3,0.8,1.9,1.2
		C154,103.8,154.2,103.9,154.4,104.2z"/>
	<path id="XMLID_37_" d="M127.4,87.7c-0.9-0.6-1-2.2-0.4-4.4c0.5-1.9,1.3-3.7,3.2-4.8l0.3,0.1c-0.2,0.3-0.3,0.6-0.5,0.8
		c-1.8,2-2.5,4.4-2.5,7C127.4,86.9,127.4,87.3,127.4,87.7z"/>
	<path id="XMLID_36_" d="M148.9,67.6l-2-3l-0.1,0.1c0.2,0.8,0.4,1.6,0.6,2.4l-0.3,0.1c-0.9-1.2-1.3-2.7-1.8-4.1
		C146.8,62.8,149.2,65.7,148.9,67.6z"/>
	<path id="XMLID_35_" d="M153.9,65.9c0.9,0.6,1.4,1.6,1.7,2.5c0.4,0.9,0.6,1.9,0.8,2.9c0,0.2-0.2,0.4-0.4,0.6
		c-0.2-0.1-0.5-0.2-0.5-0.4C155,69.7,154.5,67.8,153.9,65.9z"/>
	<path id="XMLID_34_" d="M140.9,170.9c1.7,1.5,3.7,1.8,5.8,1.9c-0.8,0.8-2.8,0.9-4.2,0.3C141.5,172.6,140.8,171.8,140.9,170.9z"/>
	<path id="XMLID_33_" d="M179.2,83.9c2.6,0.8,5.3,1.1,8,0.8C185.7,86,180.2,85.5,179.2,83.9z"/>
	<path id="XMLID_32_" d="M156.3,104.5c0.6-0.1,1.1-0.3,1.7-0.4c1.2-0.2,2.4-0.4,3.6-0.5c0.4-0.1,0.8,0,1.1,0
		c0.2,0.1,0.4,0.2,0.4,0.5c0,0.1-0.3,0.4-0.4,0.4c-2,0.2-3.9,0.3-5.9,0.5c-0.2,0-0.4-0.1-0.5-0.2L156.3,104.5z"/>
	<path id="XMLID_31_" d="M151.9,65.3c1.7,0.9,3.4,4.6,2.3,5.6C153.4,69,152.6,67.1,151.9,65.3z"/>
	<path id="XMLID_30_" d="M165.2,130.3c1.5-1.6,3.3-2.8,5.2-4C170.4,127.4,166.9,130,165.2,130.3z"/>
	<path id="XMLID_29_" d="M184.4,90.1c-2.1,0.7-4.1,1-6,0.1c-0.1-0.1-0.2-0.3-0.3-0.4c0.1-0.1,0.3-0.3,0.4-0.3
		c1.8,0.7,3.7,0.4,5.5,0.4C184.1,89.9,184.1,90,184.4,90.1z"/>
	<path id="XMLID_28_" d="M177.6,72.8l-4,4.2C173.2,75.6,175.8,72.7,177.6,72.8z"/>
	<path id="XMLID_27_" d="M166.6,100c1.2,1.8,0,4.5-2.1,4.9c0.5-0.8,1.2-1.4,1.5-2.2C166.4,101.9,166.4,101,166.6,100z"/>
	<path id="XMLID_26_" d="M131.2,72.6c1.4-1,5.4-0.8,6.3,0.4c-1.1,0.4-2-0.4-3-0.4C133.4,72.6,132.4,72.6,131.2,72.6z"/>
	<path id="XMLID_25_" d="M153.2,100.8c-1.4,0.2-4-1.7-4.3-3.2L153.2,100.8z"/>
	<path id="XMLID_24_" d="M129.4,102.3c-0.1-0.3-0.4-0.7-0.4-1c-0.1-0.8,0.9-2.1,1.6-2.3c0.2-0.1,0.4,0.1,0.6,0.1
		c0,0.2,0,0.4-0.2,0.5c-0.8,0.7-1.3,1.6-1.5,2.7L129.4,102.3z"/>
	<path id="XMLID_23_" d="M135.6,71.1c-1.2,0.8-3.9-0.3-4.5-1.8L135.6,71.1z"/>
	<path id="XMLID_22_" d="M146,99.2c-1-0.2-1.3-0.8-1.5-1.6c-0.2-1,0.2-1.9,1-2.5c-0.1,0.8-0.2,1.5-0.1,2.1
		C145.5,97.8,145.8,98.5,146,99.2z"/>
	<path id="XMLID_21_" d="M172.3,77.5c-0.5-1.2,1-3.7,2.5-4.3L172.3,77.5z"/>
	<path id="XMLID_20_" d="M151.7,91.5c-0.2,0.3-0.4,0.6-0.7,0.8c-0.8,0.4-1.7,0.8-2.6,1.1c-0.1,0.1-0.4-0.1-0.6-0.2
		c0.1-0.1,0.1-0.3,0.2-0.4c1.1-0.5,2.3-1.1,3.4-1.6L151.7,91.5z"/>
	<path id="XMLID_19_" d="M191.6,84.4l5.3,0.3C195.8,85.6,192.7,85.4,191.6,84.4z"/>
	<path id="XMLID_18_" d="M180.9,117.1c-0.4-0.8-0.9-1.6-1.3-2.5c-0.1-0.1,0-0.3,0.1-0.4c0.1-0.1,0.3-0.1,0.4-0.1
		C181.2,114.6,181.6,116.2,180.9,117.1z"/>
	<path id="XMLID_17_" d="M151.6,41.7l-3,2.8C148.7,43.3,150.4,41.6,151.6,41.7z"/>
	<path id="XMLID_16_" d="M151.9,43.5c0.2-1.3,1-2,1.9-2.6c0.6-0.4,0.8-0.4,1.3-0.1L151.9,43.5z"/>
	<path id="XMLID_15_" d="M153.7,97l2.9,1.6c-0.3,0.5-0.8,0.5-1.5,0.3C154.2,98.5,153.7,97.8,153.7,97z"/>
	<path id="XMLID_14_" d="M142,79c-1,0.4-2.9-0.1-3.3-0.9c-0.1-0.1-0.1-0.2,0-0.4c0-0.1,0.2-0.2,0.3-0.2
		C139.9,78.1,140.9,78.5,142,79z"/>
	<path id="XMLID_13_" d="M162.1,91.6c-1-0.4-1.8-2.1-1.6-2.9c0-0.1,0.2-0.3,0.2-0.3c0.1,0,0.3,0.1,0.4,0.2
		C161.5,89.6,161.8,90.5,162.1,91.6z"/>
	<path id="XMLID_12_" d="M163.1,89.9c-1.3-0.6-1.8-2.1-1.1-3.2C162.7,87.6,162.7,88.7,163.1,89.9z"/>
	<path id="XMLID_11_" d="M135.3,63.5l-3.1,0.6C132.5,62.9,134.3,62.6,135.3,63.5z"/>
	<path id="XMLID_10_" d="M159.5,73.4c0-0.3,0-0.5-0.1-0.7c-0.1-0.7-0.2-1.4-0.3-2c0-0.2,0-0.4,0-0.6c0.2,0.1,0.5,0.2,0.6,0.3
		C160.4,71.2,160.3,72.4,159.5,73.4z"/>
	<path id="XMLID_9_" d="M135.6,66.1c1.2-0.8,3.5-0.8,4.2,0H135.6z"/>
	<path id="XMLID_8_" d="M154.8,42.8c0.5-1.6,2-2.6,3-2.3L154.8,42.8z"/>
	<path id="XMLID_7_" d="M126.8,80.1c-0.2-1.4,0.9-2.7,2-2.4L126.8,80.1z"/>
	<path id="XMLID_6_" d="M178.3,114.4c-0.4-0.7-0.8-1.3-1-1.9c-0.1-0.2,0.1-0.5,0.2-0.7c0.2,0.1,0.5,0.1,0.6,0.3
		C178.6,112.7,178.8,113.4,178.3,114.4z"/>
	<path id="XMLID_5_" d="M164,95.4c0,0.3,0.1,0.6,0.1,1l0.8,0.4c-0.4,0.3-0.9,0.5-1.4,0.7c-0.1,0-0.5-0.3-0.4-0.3
		c0.2-0.6,0.4-1.2,0.6-1.8L164,95.4z"/>
	<path id="XMLID_4_" d="M195.2,95.4c-0.4-0.8-0.8-1.5-1.1-2.2c-0.1-0.1,0-0.4,0.1-0.5c0.1-0.1,0.3,0,0.4,0.1
		C195.1,93.1,195.5,94.5,195.2,95.4z"/>
	<path id="XMLID_3_" d="M160.2,90.2c0.4,1.1,0.7,2.1,1.1,3.2C160.2,92.8,159.7,91.2,160.2,90.2z"/>
	<path id="XMLID_2_" d="M148,119.5l1.2,1.5c-0.9-0.2-1.3-0.7-1.4-1.3L148,119.5z"/>
	<path id="XMLID_1_" d="M145.6,119.9l-0.8-1.3l0.3-0.2l0.7,1.3L145.6,119.9z"/>
</g>
<g id="XMLID_100_">
</g>
</svg>
