<?xml version="1.0" encoding="utf-8"?>
<!-- Generator: Adobe Illustrator 19.0.0, SVG Export Plug-In . SVG Version: 6.00 Build 0)  -->
<svg version="1.1" id="Ed_Havens" xmlns="http://www.w3.org/2000/svg" xmlns:xlink="http://www.w3.org/1999/xlink" x="0px" y="0px"
	 viewBox="0 0 300 250" style="enable-background:new 0 0 300 250;" xml:space="preserve">
<g>
	<path id="XMLID_172_" d="M169.7,14.3l1.5,0.5c-3.5,0.3-7.1-0.1-10.5,1.9c1.2,0.6,2,0.8,3.1,0.5c3.4-1.1,6.8-0.8,10.2-0.3
		c1.4,0.2,2.7,0.5,4,0.9c0.7,0.2,1.4,0.6,1.9,1.1c-4.9-1.5-9.9-2-15-1.1c-0.2,0.1-0.4,0.2-0.6,0.3c1,0.8,1.9,1.2,3.2,1
		c1.6-0.2,3.4-0.3,4.9,0.1c3.3,0.8,6.5,1.8,9.7,3c1.2,0.4,2.2,1.5,3.2,2.5c-5.4-3-11-5.2-17.6-4.6c0.2,0.4,0.4,0.6,0.6,0.8
		c0.2,0.2,0.3,0.5,0.4,0.8c-8.2-5.7-16.9-6.2-26.1-2.8l-0.1-0.4c0.3-0.3,0.6-0.5,1-0.7c3.6-1.9,7.6-2,11.5-1.8
		c1.3,0.1,2.5,0.3,3.8,0.5c0.2,0,0.5,0,0.7-0.1c1.5-1.2,3.3-1.5,5.1-1.8c0.2,0,0.3-0.1,0.4-0.2H169.7z"/>
	<path id="XMLID_171_" d="M93.6,75c-1.7-2-2.3-4.4-2.8-6.8c-1-4.4-0.5-8.8,1.8-12.7c2.9-4.9,6.9-8.2,13-8.3c5.4-0.1,8.8,4.7,8.1,9.6
		c-0.1,0.6-0.2,1.2-0.5,1.8c-0.1,0.2-0.5,0.3-0.8,0.5c-0.1-0.2-0.4-0.5-0.4-0.7c0-3.1-2.2-4.2-4.6-5.1c-1.1-0.4-2.2-0.7-3.5-1
		c2.1-0.9,4.5-0.1,8.3,2.8c0.3-2.5-2.3-5.9-4.8-6.3c-5.7-0.9-12.1,3.1-14.4,8.8c-1.9,4.7-1.8,9.4-0.4,14.1
		C92.9,72.8,93.3,73.9,93.6,75z"/>
	<path id="XMLID_170_" d="M198.2,185.8c0.8,1.2,1.6,2.5,2.5,3.6c3.8,5,7.5,10.2,11.6,14.9c3.6,4.1,8.3,6.8,13.1,9.4
		c0.8,0.4,1.5,0.9,2.2,1.5c-3.8-0.7-7-2.7-10.3-4.7l1.9,2.8c-3.4-1.1-3.8-4.9-6.6-6.8l0.9,2.4c-2.8-1.7-3.1-5.2-5.3-7.3l-0.3,0.2
		l1.2,3.4l-0.2,0.2c-0.4-0.4-0.9-0.8-1.1-1.2c-0.7-1.3-1.4-2.6-1.7-4c-0.5-1.8-1.6-3.1-2.7-4.6c-1.8-2.4-3.4-4.8-5.1-7.2
		c-0.4-0.7-0.5-1.5-0.7-2.3L198.2,185.8z"/>
	<path id="XMLID_169_" d="M94,111.1c-1.1,2-2.2,4-3.3,6l-0.3-0.1c0.1-0.7,0.1-1.5,0.4-2.1c0.7-1.7,1.6-3.3,2.3-5
		c0.6-1.5,0.9-3,1.3-4.5c0.1-0.4,0.3-0.8,0.4-1.2h0.5c0.2,1.4,0.6,2.9,0.4,4.3c-0.3,4-0.9,8-1.4,12c-0.2,2.1-0.8,4.2-0.7,6.3
		c0,2.7,0.5,5.4,0.8,8.1c0.1,0.5,0.1,0.9,0,1.4c-1.6-2.7-1.9-5.8-2.6-8.9c-0.2,1-0.3,2.1-0.6,3.5c-1.2-3.1-0.1-5.8,0.3-8.6l-1,1.3
		l-0.3-0.1c0.2-0.9,0.2-1.9,0.5-2.8c0.6-1.6,1.5-3.1,2.1-4.6s1.1-3.1,1.7-4.7L94,111.1z"/>
	<path id="XMLID_168_" d="M106,184.2c0.3,1.2,0.8,2.3,1,3.5c0.5,3.7,0.9,7.4,1.3,11.1c0.6,5.4,1.1,10.8,1.6,16.2
		c0.3,3.4,0.5,6.8,0.6,10.2c-2-7.2-2.6-14.7-3.4-22.2c-1.4,4.3-3.8,7.8-7.1,10.8c3.1-4.3,4.9-9.1,6.1-14.1c1.2-5.1,0-10.3-0.7-15.4
		L106,184.2z"/>
	<path id="XMLID_167_" d="M122,221.2c0.1-0.4,0.3-0.8,0.5-1.2c0.2-0.3,0.5-0.6,0.8-0.6c0.3,0,0.6,0.5,0.6,0.7
		c0.5,2.1,0.7,4.2,1.3,6.2c1.4,4.9,2.9,9.7,4.4,14.5c0,0.1,0,0.3-0.1,0.4c-3.3-5.7-4.7-12-6.5-18.2c-0.4,0.2-0.9,0.8-1.2,0.7
		c-0.4-0.2-0.8-0.7-0.9-1.2c-0.5-2.5-1-4.9-1.5-7.4c-0.2-0.9-0.2-1.7-0.5-2.7c-0.2,0.6-0.3,1.2-0.5,1.9c-0.1,0.4-0.2,0.9-0.3,1.3
		c-0.1,0.3-0.4,0.7-0.6,0.7c-0.4,0-0.7-0.2-0.9-0.5c-0.3-0.6-0.6-1.2-0.7-1.9c-0.7-4.4-1.3-8.8-2-13.3c0-0.2,0.1-0.4,0.2-0.5
		c0.8,0.9,1.4,2.1,1.5,3.4c0.5,2.9,0.8,5.9,1.3,8.9c0.1,0.4,0.2,0.9,0.5,1.2c0.2-0.7,0.4-1.5,0.7-2.1c0.2-0.4,0.8-0.7,1.2-1.1
		c0.3,0.4,0.8,0.8,0.9,1.2c0.3,1.8,0.5,3.6,0.7,5.4c0.2,1.4,0.5,2.7,0.7,4.1L122,221.2z"/>
	<path d="M165.9,95.8c0.2,0.3,0.3,0.5,0.7,1.1c-1.2-0.4-2.1-0.7-3-0.9c-0.5-0.1-1.2-0.1-1.6,0.1c-2,1.5-4,3.2-6,4.8
		c-0.3,0.2-0.5,0.5-1,0.9v-1.3c-0.2,0-0.3,0-0.4,0c-0.5,0.5-0.9,0.9-1.3,1.4c-0.2,0.2-0.6,0.6-0.7,0.6c-1.3-0.8-1.8,0.5-2.7,0.9
		c-0.6,0.3-1.1,0.8-1.9,1.3c0.4-2.2,0.7-4,1.1-5.9c-1.6,1.7-2.4,3.9-2.4,6.2c-1.3-1.2-0.9-2.5-0.5-3.4c0.9-2,1.9-3.9,4.3-4.7
		c0.6-0.2,1-1,1.6-1.5c0.8-0.6,1.7-1,2.5-1.5c0,0.1,0.1,0.2,0.2,0.3l-3.2,3.1c0.1,0.1,0.2,0.3,0.4,0.4c0.5-0.3,1-0.7,1.5-1
		c1.1-0.7,2.2-1.2,3.6-0.9c0.7,0.1,1.5-0.3,2.4-0.5l-4.7,4l0.2,0.4c0.3-0.1,0.6-0.1,0.8-0.3c1.6-1.8,3.5-3.2,6.1-3.8l-1.9-1.1
		c2-0.6,3.4,0.3,5,0.5L165.9,95.8z M155,97.7l-0.3-0.4l-4.2,3.8l0.2,0.3C152.9,101,153.8,99.2,155,97.7L155,97.7z"/>
	<path id="XMLID_164_" d="M98.3,38.1c1.5-4.9,4.8-8,9.4-9.6c1.5-0.5,3.1-0.7,4.7-1.1c0.3-0.1,0.6-0.2,0.9-0.4
		c4.5-4.3,10.1-5.3,16-4.9c2.3,0.2,4.5,0.5,6.8,0.9c1.9,0.3,3.7,1.2,5.2,2.4c-7.1-2.5-14.3-3-21.6-1.1c-1.8,0.5-3.4,1.6-5.1,2.5
		l0.1,0.4l4.4,0.8c0,0.2,0,0.5-0.1,0.7H117c-2.5,0-5-0.2-7.4,0.6c-3.9,1.3-7.3,3.4-9.7,6.8C99.4,36.8,98.9,37.4,98.3,38.1z"/>
	<path d="M121.6,110.7l-2.8-1.2c0.2,2-0.3,3.6-2,4.5c-1.9,1-3.7,0.4-5.3-0.8c-1.5-1.1-1.1-2.8-0.8-4.5l-5,1.6
		c0.4,1.5-2.2,3.2-4.7,3.3c2.7-3.6,6.4-5.6,10.9-6.1c3.3-0.5,6.7,0.4,9.4,2.3c0.2,0.2,0.4,0.4,0.6,0.7L121.6,110.7z M115,112
		c0.9,0,1.6-0.7,1.6-1.5c0-0.9-0.6-1.4-1.5-1.5c-0.7-0.1-1.7,0.8-1.6,1.5C113.6,111.4,114.1,112,115,112z"/>
	<path d="M170.1,110.2l-2-0.5c0.7,2.2,0.8,4.2-1.3,5.5c-1.6,1-3.7,0.7-5.3-0.5c-1.4-1.1-1.7-2.6-0.9-5.3l-6.9,2.6
		C155.8,108,166.9,106.8,170.1,110.2z M165.9,111.4c-0.2-1.2-0.8-1.4-1.6-1.4c-1,0-1.3,0.7-1.3,1.5c-0.1,0.6,0.4,1.2,1,1.3
		c0.1,0,0.3,0,0.4,0C165,112.6,165.4,111.9,165.9,111.4L165.9,111.4z"/>
	<path id="XMLID_159_" d="M107.4,57.6c-1.6-2.5-4.5-3-7.1-4.5c5-0.1,9.4,3.2,9.9,7l1.2,0.3c-0.2,0.4-0.5,0.7-0.8,1.1
		c-0.8,0.7-1.7,1.4-2.6,2.1c-0.4,0.3-0.8,0.5-1.2,0.7l-0.3-0.5l1.9-2.1c-1.3-1.8-4.5-2.8-6.9-2.1c-2.6,0.7-4,3-5.6,5
		c-0.2-3.1,4-6.3,8.5-6.5c-1.4-1.1-3-0.9-4.3-0.6c-1.4,0.3-2.6,1.1-4,1.6c1.4-1.6,3-2.8,5.3-2.9C103.6,55.9,105.4,57,107.4,57.6z"/>
	<path id="XMLID_158_" d="M195.2,44.7c-0.7-5,0.6-10-2-14.4c-2-3.2-4.6-6.1-7.7-8.2c-0.2-0.2-0.5-0.4-0.8-0.6
		c2.2-0.8,7.7,4.9,9.5,8.4c2.2,4.1,2.2,8.4,1.5,12.9c0.2-0.1,0.4-0.1,0.6-0.2c3-2,6.2-1.3,8.5,1.5c3.6,4.7,4.4,9.9,3.4,15.5
		c-0.1-1-0.1-2-0.2-3c-0.1-1-0.2-2-0.3-3c-0.4-3.5-1.7-6.7-4.2-9.2c-0.8-0.9-2-1.5-3.1-1.9c-1.6-0.6-2.7,0.5-3.9,1.3
		C196,44.2,195.6,44.5,195.2,44.7z"/>
	<path id="XMLID_157_" d="M194.9,174.1c0.9-2.6,2-5,2.6-7.5c0.9-3.5,1.4-7,2-10.6c1-6.1,1.9-12.2,2.9-18.2c0.3-1.9,0.7-3.7,1.1-5.6
		c0.1-0.4,0.2-0.8,0.4-1.1l0.4,0.1c-0.1,1.5-0.1,3-0.3,4.4c-0.6,4.5-1.2,9-1.9,13.5c-1.1,6.7-1.8,13.4-4,19.9
		C197.5,170.9,196.6,172.6,194.9,174.1z"/>
	<path id="XMLID_156_" d="M217,122c-0.4-1.7-0.7-3.5-1.2-5.2c-0.5-1.9-1.5-2.4-3.4-1.6c-2.2,0.9-3.4,2.9-4.5,4.9
		c-2.5,4.6-2.1,9.2-0.4,13.8c0.2,0.5,0.3,1,0.5,1.5l-0.3,0.1c-0.4-0.7-0.8-1.3-1.1-2c-1.5-4.1-2.2-8.3-0.4-12.6
		c0.3-0.6,0.1-1.1-0.3-1.6c-0.9-1.1-1.5-2.4-2.2-3.7c-0.1-0.2-0.2-0.5-0.1-0.7c0.1-0.3,0.3-0.6,0.5-0.9c0.2,0.2,0.4,0.5,0.6,0.8
		c0.7,1.5,1.4,3,2.1,4.6l3.5-4.6c-2.3-1.4-4.3-3.2-5-5.9l0.4-0.4c0.3,0.2,0.5,0.4,0.7,0.7c1.2,1.4,2.4,2.9,3.5,4.3
		c0.6,0.7,1.1,0.9,2,0.5c3.3-1.6,5,0.5,5.5,3.2c0.2,1.5,0,3,0,4.6L217,122z"/>
	<path id="XMLID_155_" d="M94.5,149.6c-0.2-0.7-0.5-1.3-0.7-1.9l0.3-0.2L95,148c0.1-2.8-1-5.3-0.6-8l0.4-0.1c0.3,1,0.7,2,0.9,3
		c0.6,4.1,1.2,8.3,1.7,12.4c0.9,6.1,2,12.2,4.3,17.9c0.3,0.6,0.5,1.3,0.7,2l-0.3,0.2c-0.5-0.7-1-1.5-1.4-2.3c-2.2-4-3.2-8.4-4-12.9
		c-0.4-2.4-0.7-4.8-1.1-7.2c-0.1-0.4-0.3-0.7-0.5-1c-0.3-0.4-0.7-0.7-1-1.1C93.7,150.3,93.4,149.7,94.5,149.6z"/>
	<path id="XMLID_154_" d="M211.3,112.9c0.6-1.2,0.2-1.5-0.5-2c-2-1.2-3-3.2-3.6-5.3c-0.1-0.3,0.1-0.7,0.1-1.1l0.4-0.1
		c0.2,0.4,0.4,0.8,0.6,1.1c0.9,1.6,1.9,3.1,2.8,4.7c0.6,1,1.4,1.3,2.4,0.2c-1.2-1-2.8-1.7-3-4c0.4,0.2,0.7,0.5,1.1,0.7
		c0.9,0.8,1.7,1.6,2.5,2.4c0.3,0.2,0.6,0.5,1,0.5c1.1,0,2.1,0.3,2.9,1.2c1,1.1,1.6,2.5,1.7,3.9c0.6,4.4,0.3,8.8-0.9,13
		c-0.5,1.9-0.4,3.9-0.6,5.9c-0.1,0.8-0.4,1.6-0.6,2.4l-0.3,0c0-0.6,0-1.2,0-1.9c0.1-2.4,0.3-4.7,0.5-7.1c0-0.4,0.1-0.8,0.3-1.2
		c1.4-3.8,1.2-7.7,0.4-11.7c0-0.1-0.1-0.2-0.1-0.4c-0.7-2.5-2.1-3.2-4.6-2.4C212.9,112.1,212.3,112.5,211.3,112.9z"/>
	<path id="XMLID_153_" d="M190.1,57.2c0.8-0.1,1.6-0.2,2.4-0.3c5.7-0.6,8.3,1.9,10.3,7c1.3,3.2,1.3,6.6,0.8,10.1
		c-0.2-1.4-0.3-2.9-0.5-4.3c-0.5-3.4-1.5-6.6-3.7-9.4c-1-1.3-2.5-2.1-4.2-2.2c-1.6-0.2-3.3,0-5,0.2c1.5,0.8,3.5,0.9,4.5,2.9
		c-3.1-1.4-6-2.4-9.2-1.5l-0.2-0.3c0.5-0.6,1-1.2,1.6-1.7c2.1-1.7,4.4-2.9,7-3.2c0.8-0.1,1.7,0.2,2.5,0.6
		C194.1,55.2,192,55.7,190.1,57.2z"/>
	<path id="XMLID_152_" d="M150.6,45.4l2.2-5.6c1.5,5.4-5.3,12.3-11.1,13.2c0.4-0.4,0.8-0.7,1.2-1c3-1.7,5.4-4,6.2-7.4
		c1.1-4.2,0.2-8-2.9-11.1c-1.5-1.5-3.3-2.7-5.1-4c-0.7-0.5-1.4-0.8-2.1-1.3c3.8,0.8,7.1,3,9.3,6.2c2.3,3.3,2.8,7,1.7,10.9
		L150.6,45.4z"/>
	<path id="XMLID_151_" d="M102.7,70c0.2,2.5,0.5,5.1,0.7,7.7l-1.3-0.2c0.2,1.4,0.4,2.7,0.7,4.2l-1.5-0.7c0.3,1.5,0.5,2.8,0.8,4.4
		l-1.3-0.9c-0.8,2.2-1.6,4.3-2.4,6.5c-0.9,2.1-1.8,4.3-2.7,6.4c-0.4-1.7-0.1-3.3,0.6-4.8c2.1-4.7,3.6-9.6,4.5-14.7
		c0.4-2.2,0.8-4.4,1.2-6.6c0.1-0.5,0.4-0.9,0.5-1.4L102.7,70z"/>
	<path id="XMLID_150_" d="M192.1,50.6c3.7-1.8,6.4-0.2,8.1,2.2c1.9,2.5,3.3,5.4,3.6,8.6c0,0.2,0,0.5-0.2,0.6
		c-0.2-0.6-0.5-1.3-0.7-1.9c-0.9-2.7-2.1-5.3-4.3-7.4c-2.6-2.4-5.2-2.2-7.4,0.5c-0.2,0.2-0.5,0.3-0.8,0.4c1.2-4.2,2-8.4,1.9-12.8
		c-0.1-4.6-2.3-8.3-4.4-12.4C191.9,31.8,195.8,40,192.1,50.6z"/>
	<path id="XMLID_149_" d="M116.4,47.6c-1.2-3-2.4-5.6-5.6-6.2c-2.1-0.4-4.2-0.2-6.3,1c1.5,0.8,3.4,0.5,4.4,2.2
		c-2.1-0.3-3.9-0.5-5.7-0.9c-2.3-0.5-3,2-4.9,2.6l0.9-2c-4.5,1.2-7.1,4.5-10.3,7.3c0.4-0.7,0.7-1.5,1.2-2.2c3-3.6,6.5-6.2,11.3-7.1
		c1.7-0.3,3.3-1.3,5-1.8c3.8-1,7.2-0.3,9.6,3.5C116.6,45,117,46.1,116.4,47.6z"/>
	<path id="XMLID_148_" d="M196.1,181.4l-7,9.1l-0.5-0.3c0.4-0.7,0.7-1.5,1.1-2.2c1.8-3.1,3.7-6.1,5.5-9.2c0.8-1.4,1.4-3,2.1-4.5
		c0.2-0.3,0.4-0.7,0.7-1l0.5,0.1c-0.1,1.5-0.2,3.1-0.4,4.6c-0.4,3.6-1,7.1-1.4,10.7c-0.1,1.1,0.1,2.3,0.1,3.5
		c-1.2-1.5-1.4-3.3-1.2-5.1C195.7,185.2,195.9,183.4,196.1,181.4z"/>
	<path id="XMLID_147_" d="M186.6,56.5c-1.5,2-3.5,2.6-5.5,3c-3.9,0.9-7.6,0-11.3-1.2c-1.2-0.4-2.6-0.6-3.8-0.8
		c-0.6-0.1-1.3-0.2-2-0.4c0-0.2,0-0.4,0-0.6c1.1-0.1,2.2-0.2,3.3-0.2c1.4,0,2.8,0.2,4.2,0c2.2-0.3,4.3-0.8,6.5-1.2
		c0.6-0.1,1.2-0.2,1.8-0.4c0,0.1,0.1,0.3,0.1,0.4l-6.1,2.3l0,0.3l7.5-1.2l0.1,0.2l-4,1.8C180.7,58.9,183.5,57.6,186.6,56.5z"/>
	<path id="XMLID_146_" d="M168.5,54.7c0.7-0.1,1.4-0.3,2.1-0.4c4.5-0.5,8.8-1.8,12.5-4.5c3-2.2,4.3-5.2,4.8-8.8
		c0.7-4.7-1.3-8.3-4.2-11.6c-0.6-0.7-1.1-1.4-1.6-2c0-0.1-0.1-0.1-0.1-0.2c0.1,0,0.2-0.1,0.2-0.1c3.2,2.7,6.2,5.7,6.7,10.2
		c0.6,5.9-1.1,10.8-6.3,14c-3.9,2.5-8.2,4-12.9,3.9c-0.4,0-0.8,0-1.2-0.1L168.5,54.7z"/>
	<path id="XMLID_145_" d="M101.9,208c-0.5,0.5-0.9,1.1-1.5,1.5c-3.5,2.6-7.2,4.8-11.3,6.4c-5,2-10,4-15,6c-0.5,0.2-1.1,0.3-1.7,0.4
		c9.4-5.5,20.2-8.3,29.1-14.8L101.9,208z"/>
	<path id="XMLID_144_" d="M174.4,96.7c1,2,2.7,3.1,4.3,4.2s2.8,2.9,4.2,4.4c0.5,0.5,0.8,1.1,1,1.7c-0.5-0.2-1-0.5-1.5-0.7
		c-0.3-0.2-0.6-0.4-0.8-0.7c-2-2.6-4.3-4.9-7.2-6.4c-0.3-0.2-0.3-0.8-0.5-1.2c-0.2-0.3-0.4-0.6-0.7-0.9c-1-1.1-2-2.1-3-3.2
		c-0.3-0.3-0.1-1-0.2-1.5c0.4,0.2,0.7,0.5,1.1,0.7c0.2,0.1,0.4,0.3,0.7,0.7c-0.4-1-0.7-1.8-1-2.6l0.5-0.2c1.7,2.1,3.4,4.2,5.1,6.3
		l0.2-0.1l-0.2-1.5l0.4-0.2l5.4,6.7l-0.2,0.3c-0.7-0.4-1.3-0.9-1.9-1.4c-0.7-0.6-1.3-1.3-1.9-2c-0.5-0.5-0.7-1.1-1.6-1.1
		C175.8,97.8,175.2,97.2,174.4,96.7z"/>
	<path id="XMLID_143_" d="M142.9,24.3c1.1,0.6,2,1,2.9,1.5c4.7,2.5,8.4,6,10.2,11c1.8,4.9,0.7,9.9-3.7,13.4c-1.5,1.2-3.1,2.2-5,2.6
		c-0.5,0.1-1-0.1-1.3-0.4c1.1-0.5,2.3-1,3.4-1.6c2.6-1.5,4.6-3.6,5.6-6.4c1.1-3.2,0.8-6.4-0.9-9.3c-2.4-4.3-6.1-7.3-10.2-9.8
		c-0.2-0.1-0.5-0.3-0.7-0.5C143,24.8,143,24.7,142.9,24.3z"/>
	<path id="XMLID_142_" d="M133.4,37.4c2.5,4.4,0.9,8-2.1,11.4c1.7-0.5,3.1-1.6,4-3.2c0.8-1.5,1.1-3.3,1.7-5c0.9,4.8-2,8.3-5.6,9.3
		c-1.4,0.4-2.7,0.6-4.6,1c3.4-4.3,5.6-8.6,2.2-13.8c1.5,0.8,2.7,2.7,2.7,4.9c0,1.8-0.5,3.6-0.8,5.4
		C134.1,44.7,134.1,41.1,133.4,37.4z"/>
	<path id="XMLID_141_" d="M124.3,202.1c-2.1,0.3-3.6-0.8-5-1.9c-3.4-2.6-5.9-6-8-9.6c-2.1-3.5-4.2-7-6.3-10.5
		c-0.2-0.5-0.4-1-0.6-1.5l0.4-0.3c0.6,0.7,1.4,1.4,1.9,2.3c1.9,3,3.7,6,5.5,9c2,3.2,4,6.3,6.9,8.8c1.4,1.2,3,2.1,4.4,3.2
		C123.8,201.8,124.1,202,124.3,202.1z"/>
	<path id="XMLID_140_" d="M155.2,50.9c0.4-0.5,0.7-0.9,1-1.2c1-1.2,2.2-2.4,3.1-3.7c2-2.8,1.8-5.7,0.3-8.6c-0.4-0.7-0.7-1.5-1-2.2
		l0.4-0.2l2.6,4.1c0.2-3-0.4-5.6-2.1-7.6s-4-3.4-5.7-4.9c4.7,1,8.8,4.8,9,11.6C162.8,43.4,159,50.6,155.2,50.9z"/>
	<path id="XMLID_139_" d="M197.9,81.6c-0.2-1.6-0.4-3.3-0.7-4.9c-0.6-3.9-2.8-7-5.5-9.8c-0.9-0.8-1.7-1.7-2.4-2.7
		c-0.3-0.4-0.5-1-0.8-1.7c2,0.9,6.9,6.5,9.5,10.5c-0.1-0.9-0.2-1.8-0.4-2.7c-0.2-1-0.4-1.9-0.7-2.9c-0.3-0.9-0.7-1.7-1.1-2.6
		l0.4-0.3c0.5,0.7,1.1,1.3,1.5,2.1c1.3,3,1.7,6.2,1.4,9.5c-0.2,1.8-0.5,3.6-0.8,5.4L197.9,81.6z"/>
	<path id="XMLID_138_" d="M157.2,26.7c0.2,0,0.3-0.1,0.4,0c2.4,1.2,4.9,2.3,7.1,3.7c4.5,3,5.2,7.1,4.6,11.7c-0.1,0.3-0.2,0.7-0.4,1
		l-0.4,0c0-0.8-0.1-1.6,0-2.3c0.2-2.6-0.2-5.1-2-7.1c-1-1.2-2.2-2.2-3.5-3.1c1.5,2.1,3,4.1,3.3,6.7c0.3,2.4,0.9,4.9-0.5,7.2l-0.4,0
		c0.1-0.6,0.2-1.2,0.2-1.8c0.4-4.9-0.7-9.2-4.8-12.4C159.6,29,158.4,27.8,157.2,26.7z"/>
	<path id="XMLID_137_" d="M118.5,56.1c-0.9-0.9-1.3-2.2-1-3.5c0.3-1.3,0.8-2.6,1.5-3.7c1.7-2.6,2.9-5.3,2.9-8.5
		c0-4.9-4.1-6.7-7.6-6.2c-1,0.1-1.9,0.3-2.9,0.4c1.2-1.2,2.9-1.4,4.4-1.4c3.6,0,7,2.1,7.4,6.7c0.3,3.5-0.9,6.6-2.9,9.4
		c-1.2,1.8-2.1,3.7-1.4,5.9c0,0.2,0,0.3,0,0.5C118.8,55.8,118.7,56,118.5,56.1z"/>
	<path id="XMLID_136_" d="M121,55c0.7-0.9,1.4-1.9,2.1-2.8c2.3-3.1,4.3-6.3,4.1-10.4c-0.1-2.4-1.1-4.5-2.4-6.5
		c2.1,0.7,3.8,5,3.5,8.4c-0.3,3.3-2,6.1-3.9,9c2.9-0.7,5.6-1.5,8.4-1.2c0,0.1,0.1,0.3,0.1,0.4l-11.4,3.4L121,55z"/>
	<path id="XMLID_135_" d="M102.5,98.2c1.3,0.4,2.8,0.3,3.7,1.8c-2.9-0.2-5.9-2.2-8.2,1.7c0.5-3.6,4.8-5.8,7.4-4.3
		c0.5,0.3,1.1,0.4,1.7,0.6l0.1-0.4l-3.3-1.4c1.4-0.5,3.9,0,4.7,1c0.3,0.4,0.3,1,0.7,1.4c0.8,0.9,1.9,0.8,3,0.3l-1.6-0.9
		c0.6-0.1,1-0.2,1.2-0.1c1.3,0.5,2.5,1.2,3.7,1.9c0.3,0.2,0.2,1,0.3,1.6c-0.4,0-0.9,0-1.2-0.1c-0.8-0.2-1.6-0.6-2.5-0.8
		c-0.3-0.1-0.8,0.2-1.2,0.2c-0.4,0-0.7-0.1-1.1-0.2c-1.9-0.8-3.9-1.7-5.8-2.4c-0.5-0.2-1.1,0-1.6,0L102.5,98.2z"/>
	<path id="XMLID_134_" d="M176,101.5c-0.8-0.2-1.7-0.3-2.3-0.8c-2.3-1.6-4.9-1.2-7.4-0.9c-0.3,0-0.7,0-1,0l-0.1-0.3l1.5-0.9
		c-2.3,0.2-4,1.8-6.1,2.5l-0.3-0.3l1.1-1.5l-0.2-0.3l-3.5,2.4c-0.3-0.6-0.2-1.3,0.6-2c0.7-0.6,1.6-0.9,2.3-1.4
		c2.1-1.4,4.3-1.4,6.5-0.6c0.8,0.3,1.5,1.5,2.6,0.5c2.4,0.7,4.7,1.6,6.5,3.3L176,101.5z"/>
	<path id="XMLID_133_" d="M214.3,128.7l-1,1.5l-0.2-0.1l1.1-4.3l-0.4-0.1l-1.2,1.4l-0.3-0.1l1.3-3.9l-0.3-0.1l-1.6,2.2l-0.1-0.1
		c0.7-2.2,1.4-4.4,2.2-6.7c0.2,0.3,0.3,0.5,0.4,0.8c0.7,3.8,1.6,7.7,2.2,11.6c0.6,4.1,0,7.9-2.9,11c-0.1,0.1-0.3,0.2-0.5,0.2
		c0.6-1.4,1.4-2.8,1.9-4.3c0.4-1.5,0.6-3,0.6-4.5c0-1.5-0.4-3-0.7-4.5L214.3,128.7z"/>
	<path id="XMLID_132_" d="M196.2,84.7c-0.6-1.7-1.2-3.5-1.8-5.3c-0.7-2.1-2-3.7-3.7-5c-2.6-2.1-5.2-4.2-7.7-6.4
		c-1.9-1.6-2.8-3.7-3.1-6.2l0.3-0.2c0.3,0.4,0.5,0.8,0.7,1.3c1.1,2.5,2.9,4.3,4.9,6c2,1.6,3.9,3.2,5.9,4.8c3.2,2.5,4,6.1,4.6,9.9
		c0.1,0.4,0.1,0.7,0.1,1.1L196.2,84.7z"/>
	<path id="XMLID_131_" d="M190.8,128.8c2.7,3.9,0.1,21.4-3.7,26c1-4.4,2.3-8.6,2.9-12.9C190.7,137.7,190.6,133.4,190.8,128.8z"/>
	<path id="XMLID_130_" d="M216.2,141.2c-0.4,1.4-0.9,2.7-1.2,4.1c-0.4,1.8-0.8,3.6-1.1,5.4c-0.7,3.3-2.5,7.1-6.3,7.8
		c-2.6,0.5-4.8-1.3-4.6-4.1c0.1,0.2,0.3,0.3,0.4,0.5c1.6,2.7,5,3,7,0.6c1.4-1.6,1.9-3.6,2.2-5.6c0.5-3.2,1.7-6.1,3.3-8.8
		L216.2,141.2z"/>
	<path id="XMLID_129_" d="M125.7,103.4c1.7,0.8,2.8,2.3,3.9,3.8c2.1,2.9,2.4,6.2,2,9.5c-0.3,2.9-1,5.7-1.5,8.5
		c-0.1,0.7-0.5,1.3-0.8,2l-0.4-0.1c0.3-1.9,0.7-3.8,0.9-5.8c0.3-3.2,1.2-6.4,0.4-9.6c-0.5-2.3-1.5-4.5-3.3-6.1
		c-0.6-0.5-1.1-1.2-1.6-1.9L125.7,103.4z"/>
	<path id="XMLID_128_" d="M139.2,216.8c1.4,0.1,1.4,0.9,1,1.9c-0.6,1.5-1.1,3-1.7,4.6c-0.7-1.8,0.2-3.4,0.7-5.1c0,0,0-0.1-0.1-0.2
		c-0.5-0.3-1-0.5-1.4-0.8c0.3-0.5,0.6-1.1,1-1.5c0.5-0.5,1.2-1,1.9-1.6c-2.7,0-5.3,0.6-7.5-1c0-0.1,0-0.3,0.1-0.4
		c1,0.1,1.9,0.3,2.9,0.2c1.9-0.1,3.8-0.5,5.7-0.6c0.8-0.1,2.1-0.1,2.2,0.3c0.5,1-0.8,1.2-1.4,1.7c-1,0.7-2.2,1.3-3.2,2L139.2,216.8z
		"/>
	<path id="XMLID_127_" d="M147.2,143.8c-0.8,0.3-1.5,0.7-2.3,0.9c-1.6,0.3-2.9,1-4.2,2c-1.1,1-2.4,1.8-3.7,2.6
		c-1.6,1-4.8,1.5-7.3-0.8c-0.9-0.8-2-1.3-3-2c-0.1-0.1-0.3-0.1-0.4-0.2c-0.2-0.4-0.4-0.8-0.6-1.2c0.4,0,1-0.1,1.3,0.1
		c1.2,0.7,2.4,1.5,3.5,2.4c2.3,1.7,4.8,1.8,7.1,0.1c2.1-1.6,4-3.4,6.6-4c0.9-0.2,1.8-0.3,2.7-0.4L147.2,143.8z"/>
	<path id="XMLID_126_" d="M168.2,51.8c-1.8,2.4-11.8,5.3-13.8,3.7c4.8-1.6,8.3-4.7,11.4-8.4c-1.1,3.3-3.7,5.4-6.4,7.3l0.2,0.4
		L168.2,51.8z"/>
	<path id="XMLID_125_" d="M94.8,153.9c-1.3,0.5-2.2,0-2.9-0.6c-2.2-2-3-4.6-2.3-7.3c1.2-4.2,1.6-8.5,1.2-12.8c0-0.1,0.1-0.3,0.4-0.5
		c0.2,0.9,0.6,1.9,0.7,2.8c0.5,3.4,0.1,6.8-1.1,10c-1.1,3.1,0.1,5.9,2.9,7.7C94.1,153.4,94.4,153.6,94.8,153.9z"/>
	<path id="XMLID_124_" d="M172.4,50.8c0.6-0.5,1-0.8,1.5-1.1c5.2-3.3,6.1-7.3,4.9-12.9c-0.4-1.7-1.1-3.3-1.7-5
		c3.1,3.3,4.7,9.2,2.4,13.6C178,48.5,174.5,51.2,172.4,50.8z"/>
	<path id="XMLID_123_" d="M177.5,49.7c1.4-1.7,3-3.2,3.9-5.1c0.9-1.9,1-4.1,1.6-6.4c0.2,1,0.5,1.9,0.7,3c0.8-2.1,0.8-3.9,0.2-5.8
		c1.5,1.9,1.7,3.9,0.9,6.2C183.3,46.2,180.5,49.2,177.5,49.7z"/>
	<path id="XMLID_122_" d="M145.1,203.8c0.7-0.4,1.5-0.8,2.3-1.1c4-1.4,6.9-4.1,9.5-7.2c1.6-1.9,3.2-3.6,5-5.3
		c-1.7,3.4-4.1,6.4-6.7,9.1c-2.7,2.8-6.2,4.2-10,4.7L145.1,203.8z"/>
	<path id="XMLID_121_" d="M194.3,48.3c0.4-1.1,1.6-1.8,2.7-1.6c2.9,0.4,5,2.2,6.4,4.5c2,3.1,3.1,6.7,3.4,10.4c0,0.2-0.1,0.4-0.2,0.5
		c-0.5-1.4-0.8-2.9-1.4-4.2c-1-2.2-2-4.3-3.2-6.3c-0.5-0.9-1.4-1.6-2.2-2.3c-1.4-1.2-3-1.6-4.9-1C194.8,48.4,194.6,48.4,194.3,48.3z
		"/>
	<path id="XMLID_120_" d="M124.2,108.3c-0.7-0.3-1.3-0.5-1.8-0.8c-5.1-2.7-10.4-3-15.8-1.2c-1,0.3-1.9,1.2-2.7,1.9
		c-0.5,0.4-1,0.9-1.6,1.2c0.7-1.8,1.8-3.2,3.6-4c3.7-1.5,7.7-1.6,11.6-0.8c2.2,0.5,4.2,1.4,5.9,2.7c0.2,0.1,0.4,0.3,0.6,0.5
		C124.1,107.9,124.1,108,124.2,108.3z"/>
	<path id="XMLID_119_" d="M91.6,105.4l-0.9,0l1.5-4.1l-0.4-0.2l-1.4,1.7c0.4-2.3,1.3-4.6,2.6-6.5l0.6,0.2c-0.4,1.2-0.8,2.4-1.2,3.6
		h1.6c-0.2,0.7-0.3,1.4-0.4,2c-0.3,1.1-0.6,2.1-0.8,3.2c-0.5,2.6-1.5,5.1-3.1,7.3l-0.4-0.1C90.1,110.1,90.8,107.8,91.6,105.4z"/>
	<path id="XMLID_118_" d="M89,71.6c-4.2-7.7-2-18.9,3.9-20.6C86.5,57.1,87.8,64.3,89,71.6z"/>
	<path id="XMLID_117_" d="M141.6,38.5c-3.1-7.5-9.2-10.4-16.9-10.9c0.6-0.2,1.2-0.5,1.9-0.5c6-0.4,12.6,3.7,15,9.2
		c0.2,0.6,0.3,1.2,0.4,1.9L141.6,38.5z"/>
	<path id="XMLID_116_" d="M117.3,162.8l1.5,4.1c-2.1-1.5-2.6-3.6-2.9-5.4l17,5.5l-0.1,0.5C127.6,166.5,122.5,165.1,117.3,162.8z"/>
	<path id="XMLID_115_" d="M116.1,94.7c0.1-0.1,0.4-0.3,0.4-0.3c0.6,0.4,1.4,0.7,1.9,1.2c1.5,1.7,2.9,3.6,4.4,5.4
		c0.1,0.1,0.1,0.4,0.3,0.8l-1.7-1.3c-0.1,0.4-0.2,0.7-0.3,1.3l-2.6-2.6l-0.2,0.1l0.9,1.5l-0.2,0.2l-6.5-4.1v-0.2
		c0.7,0.1,1.4,0.3,2.1,0.4c0.8,0.1,1.6,0.1,2.4,0.2c0.8,0.1,1.5,0.4,2.4,0.5l-2.9-2.8L116.1,94.7z"/>
	<path id="XMLID_114_" d="M189.3,178c0.5,1.4,0.2,2.7-0.3,3.9c-0.7,1.6-1.7,3.2-2.6,4.8c-1.1,1.9-2.2,3.8-3.3,5.7
		c-0.4,0.7-0.9,1.4-1.4,2.1l-0.4-0.2l3.3-9.4l0.2,0c0.1,0.5,0.2,1.1,0.4,1.8C187.1,184,188.1,181,189.3,178z"/>
	<path id="XMLID_113_" d="M154.4,161.3c-0.7,0.2-1.1,0.5-1.6,0.5c-2.1,0.1-4.1,0-6.2,0c-1.9,0-3.9-0.1-5.8,0.2
		c-2.7,0.3-5.3,0.4-7.9-0.2c-0.3-0.1-0.7-0.2-1-0.4l0-0.3c1,0,2-0.1,3,0c2.3,0.2,4.5,0,6.7-0.4c1.4-0.3,2.9-0.1,4.3-0.1
		C148.7,160.9,151.4,161.1,154.4,161.3z"/>
	<path id="XMLID_112_" d="M154.6,165.1l0.4-1.2c-4.1,1.3-7.9,3.2-12.4,2.4l16.7-5l-4.5,4L154.6,165.1z"/>
	<path id="XMLID_111_" d="M146.4,145.8c0.8-0.3,1.7-0.6,2.5-1c2.8-1.6,3.2-3.4,1.4-6c-0.9-1.3-1.8-2.5-2.7-3.7
		c-0.3-0.4-0.5-0.9-0.5-1.4c0.4,0.2,0.9,0.3,1.1,0.6c1.4,1.9,2.9,3.7,4.1,5.7c0.8,1.4,0.4,3-0.7,4c-1.1,1-2.5,1.7-3.8,2.4
		c-0.3,0.2-0.9-0.1-1.4-0.2L146.4,145.8z"/>
	<path id="XMLID_110_" d="M109.1,39.1c1.8-0.4,3.5-1,5.3-1.1c2.7-0.2,5.1,1.9,5.7,4.6c0.1,0.4-0.1,0.9-0.2,1.4
		c-1.1-2.9-2.7-5-6.1-5.2c2.3,1.6,4.3,3.3,4.5,6.3c-1.7-4-4.5-6.2-9.3-5.6L109.1,39.1z"/>
	<path id="XMLID_109_" d="M208.4,148.6c1-1.8,1.8-3.6,1.7-6l-1.8,1.4c0.2-0.8,0.4-1.4,0.6-2.2l-1.1,0.4c0.2-0.7,0.4-1.3,0.7-2.1
		l-1.3,0.6c-0.1-1.2,0.6-1.8,1.5-2.1c1-0.3,1.6,0.2,2.1,1C211.9,141.5,211.2,147.1,208.4,148.6z"/>
	<path id="XMLID_108_" d="M135.3,33.8c4.5,2.1,7.6,9.1,3.6,14.4c-0.7,0.9-1.6,1.5-2.8,1.4l-0.5-0.5c0.4-0.1,0.7-0.2,1-0.4
		c2.4-1.6,3.5-4.5,2.9-7.4c-0.5-2.5-1.7-4.5-3.4-6.4C135.9,34.5,135.6,34.2,135.3,33.8z"/>
	<path id="XMLID_107_" d="M176.2,39.1c-1.2-3.4-1.8-7.2-4.9-9.4c-2.9-2.1-6.1-3.8-8.8-5.5C168.9,24.2,176.9,32.6,176.2,39.1z"/>
	<path id="XMLID_106_" d="M126.5,203.2c2.5-0.4,4.6-0.8,6.8-1c3-0.2,5.8,0.3,8.3,2.3c-0.5,0-1.1,0-1.6-0.2
		c-3.3-0.9-6.7-0.7-10.1-0.4c-0.7,0-1.5,0-2.2-0.2C127.3,203.7,127,203.4,126.5,203.2z"/>
	<path id="XMLID_105_" d="M152.1,23.9c-2.8-0.8-5.5-1.9-8.3-2.2c-2.8-0.3-5.6,0.1-8.7,0.2C138.5,19.3,148.3,20.4,152.1,23.9z"/>
	<path id="XMLID_104_" d="M202.5,119.6l0.3,0.6c0.2-0.3,0.5-0.6,0.7-1c1,1.3,0.3,7.6-1.4,10.2c0.2-1.9,0.3-3.7,0.5-5.7
		c-0.5,1.2-1,2.4-1.4,3.5l-0.4-0.1l1.2-7.4L202.5,119.6z"/>
	<path id="XMLID_103_" d="M152.3,19.5c1-0.1,2-0.4,3.1-0.4c3.7,0.1,7,1.5,10.4,2.8c1.5,0.6,2.9,1.2,4.3,2c0.8,0.4,1.4,1,2,1.7
		c-3.2-1.3-6.4-2.7-9.6-4c-3.2-1.3-6.7-1.8-10.1-1.6C152.4,19.9,152.3,19.7,152.3,19.5z"/>
	<path id="XMLID_102_" d="M94,79.9c1,2.3-0.8,8.7-3.1,10.6c0.5-1.7,0.8-3,1.2-4.4L91.9,86l-1.2,1.5l-0.3-0.1c0.5-1.5,1-3.1,1.6-4.9
		l0.7,1.2c0.3-1.4,0.6-2.7,0.8-4L94,79.9z"/>
	<path id="XMLID_101_" d="M104.8,64.8c-5.8,2.3-7.2,6.9-7.6,12.2c-0.8-3.7-0.5-7.2,2.3-10C101.7,64.7,102.9,64.2,104.8,64.8z"/>
	<path id="XMLID_100_" d="M91,96.8c1.8-4.8,3.7-9.6,5.7-14.8c0.1,0.7,0.3,1.2,0.2,1.6c-0.6,2.2-1,4.4-1.9,6.4c-1,2.4-2.4,4.7-3.7,7
		L91,96.8z"/>
	<path id="XMLID_99_" d="M86.4,56.5c-2.8,5.1-1.2,9.8,0.8,14.5C83.2,67.2,82.5,59.2,86.4,56.5z"/>
	<path id="XMLID_98_" d="M137.2,174.1c5.4-0.6,9.8-3,14.1-5.6C148.6,172.4,140.1,175.9,137.2,174.1z"/>
	<path id="XMLID_97_" d="M114.5,115.4c0.1,0.8,0.2,1.2,0.2,1.8c-0.8-0.7-1.4-1.2-2.2-1.9l-0.6,1.8c-0.9-2.4-1-2-3.1-0.4l0.8-1.9
		l-2.5,0.9l-0.1-0.2l1.1-1.3l-1.2-1.1l0.1-0.3c3.4,2.3,7.2,2.4,11.1,1.5v0.4l-1,0.6c0.2,0.4,0.3,0.7,0.5,1.1L114.5,115.4z"/>
	<path id="XMLID_96_" d="M207.9,43.5c-1.4-1.6-2.5-3-3.8-4.4c-1.2-1.2-2.7-1.6-4.3-1c-0.6,0.2-1.2,0.2-2,0.4
		c0.4-1.4,1.4-1.8,2.4-1.8c1.1-0.1,2.4,0,3.3,0.5C205.9,38.5,207.4,40.6,207.9,43.5z"/>
	<path id="XMLID_95_" d="M171.1,48.8c0.6-2.7,1.5-5.2,1.6-7.7c0.1-2.4-0.6-4.9-1-7.4c1.6,2.4,2.4,5.1,2.1,8
		C173.6,44.3,173.2,46.8,171.1,48.8z"/>
	<path id="XMLID_94_" d="M123.2,97c-0.2-0.6-0.5-1.1-0.8-1.7c-0.3-0.5-0.7-1-1.2-1.7c2.2,0.7,2.8,2.5,4,3.9l-1.1-3.1
		c2.4,1.1,3.3,5.3,1.7,6.8c-0.1-0.8-0.3-1.4-0.3-1.7l-2-2L123.2,97z"/>
	<path id="XMLID_93_" d="M197.3,106.9c1.4,1.2,1.7,2.7,1.7,4c0.2,3,0,6,0,9.1l-0.4,0C198.3,115.7,197.8,111.5,197.3,106.9z"/>
	<path id="XMLID_92_" d="M184.8,78.1l8.3,6.5C190.7,85,185,80.5,184.8,78.1z"/>
	<path id="XMLID_91_" d="M164.5,117.9c-0.4-1.2-2.2-1.4-3.5-0.3c0.1-0.4,0.1-0.7,0.1-0.9l-2.1-1.2l0-0.2c0.3,0,0.6,0,1,0.1
		c3,0.7,5.9,0.9,9,0.2c1.3-0.3,2,0.3,2.2,1.9c-0.4-0.3-0.8-0.6-1.2-0.9c-0.4-0.2-0.8-0.2-1.5-0.3c0.3,0.7,0.4,1,0.6,1.5
		C167.1,116.6,165.3,116.7,164.5,117.9z"/>
	<path id="XMLID_90_" d="M148.7,119.9c-3.1-0.7-6.2-8.5-4.3-11.3C144.6,112.7,146.2,116.6,148.7,119.9z"/>
	<path id="XMLID_89_" d="M105.3,93.2h1.6l0.1,0.3l-4.9,2.6c0.1-0.5,0.2-0.8,0.3-1.5l-3,2.4l-0.2-0.1c0.2-0.5,0.4-1,0.7-1.3
		c1.3-1.1,2.7-2.1,4.2-3.1C104.6,92.3,105.3,92.3,105.3,93.2z"/>
	<path id="XMLID_88_" d="M215.2,69.3c2.7,1.6,4.2,9.3,2.5,12.2c-0.2-2.2-0.4-4.2-0.8-6.2S215.8,71.4,215.2,69.3z"/>
	<path id="XMLID_87_" d="M218.2,64.3c-0.7-4-2.5-7.4-5.8-10l0.3-0.4c0.5,0.2,1.2,0.3,1.6,0.6C217.4,57,218.8,60.2,218.2,64.3z"/>
	<path id="XMLID_86_" d="M185.7,86.8c2.8,2.7,6.3,4.3,9.9,5.5C192.4,93,185.5,89.2,185.7,86.8z"/>
	<path id="XMLID_85_" d="M138.3,230.8c-4.5-1.7-7.3-5.2-10-9.1L138.3,230.8z"/>
	<path id="XMLID_84_" d="M145.8,44.8c0.9-4.8-1.4-8.3-3.8-11.9C145.6,34.5,148.4,42.6,145.8,44.8z"/>
	<path id="XMLID_83_" d="M116.1,94.7l0.3,0.2l0,0.9l-1.6-0.6l1.1,1.4l-0.2,0.3l-5.1-1.7V95l2.6-0.3l0-0.1L111,94
		C112.2,92.9,113.5,93.1,116.1,94.7z"/>
	<path id="XMLID_82_" d="M183.8,71.8l8.2,5.9C189.3,77.8,183.9,73.8,183.8,71.8z"/>
	<path id="XMLID_81_" d="M123.3,135.4c-0.2,0.6-0.3,1.3-0.6,1.9c-0.5,0.9-1.2,1.6-1.7,2.5c-0.7,1.3-0.7,2.6,0.1,3.9
		c0.2,0.3,0.3,0.7,0.5,1c-1.6-0.2-2.5-1.5-2.2-3.1c0.2-1,0.6-2,1.1-2.9c0.7-1.2,1.7-2.3,2.5-3.4L123.3,135.4z"/>
	<path id="XMLID_80_" d="M199.6,127.1c0.2-3.9,0.3-7.6,0.5-11.2C201.6,116.9,201.5,124.1,199.6,127.1z"/>
	<path id="XMLID_79_" d="M207.5,45.9c2.2-1.3,7.1,2.7,7.4,6.2c-1.2-1.2-2.2-2.5-3.4-3.5C210.2,47.5,208.8,46.8,207.5,45.9z"/>
	<path id="XMLID_78_" d="M185.2,81.3l7.9,5.6C191,87.5,185,83.4,185.2,81.3z"/>
	<path id="XMLID_77_" d="M176.6,200c1.3-2.9,2.6-5.9,4.1-9c0.8,1.6-2,7.9-3.7,9.2L176.6,200z"/>
	<path id="XMLID_76_" d="M192.5,81.2c-3.1-0.2-7.3-3.3-8.3-6.2L192.5,81.2z"/>
	<path id="XMLID_75_" d="M154.6,106.8c1.7-2,8.6-2.9,10.5-1.5L154.6,106.8z"/>
	<path id="XMLID_74_" d="M215.4,82.5c1.9,0.8,2.4,5.9,0.8,8.9C216,88.5,215.7,85.5,215.4,82.5z"/>
	<path id="XMLID_73_" d="M200.4,106.3c-1.5-3.4-4.1-5.9-6.6-8.4C196.6,98.3,199.9,102.4,200.4,106.3z"/>
	<path id="XMLID_72_" d="M130,161.1c-3.5,0.6-7,0.6-10.5-0.3C123,160.5,126.5,160.2,130,161.1z"/>
	<path id="XMLID_71_" d="M185.4,84.2l8.2,6C191.7,90.6,185.7,86.5,185.4,84.2z"/>
	<path id="XMLID_70_" d="M215.5,96c-3-0.9-5.9-5.6-4.5-8.1c0.7,3.4,2.7,5.6,4.6,7.9C215.6,95.8,215.5,95.9,215.5,96z"/>
	<path id="XMLID_69_" d="M167.9,105.7c3.2-0.1,7.8,2.7,8.8,5.2L167.9,105.7z"/>
	<path id="XMLID_68_" d="M176.2,77.4c-0.8-1.4-1.7-2.7-2.4-4.1c-0.2-0.3,0.3-1,0.6-1.8l-1.2-2.7l0.5-0.3c0.9,1.5,1.8,2.9,2.9,4.7
		l-2.2-0.2c0.8,1.4,1.6,2.7,2.3,4.1L176.2,77.4z"/>
	<path id="XMLID_67_" d="M177.7,169.2c0.5-3,1.1-6,1.6-9l0.5,0.1c0.7,3.2-0.7,6.1-1.5,9.1L177.7,169.2z"/>
	<path id="XMLID_66_" d="M210.6,83.3c-0.1-1.2-0.3-2.3-0.4-3.5c-0.2-1.3-0.5-2.7-0.7-4c0-0.3,0.1-0.6,0.2-1c0.2,0.2,0.6,0.3,0.7,0.5
		c1,1.6,1.1,3.4,1,5.3c-0.1,0.9-0.3,1.8-0.5,2.7L210.6,83.3z"/>
	<path id="XMLID_65_" d="M191.9,93.8c2.6,1.2,4.6,3,6.9,4.6C196.4,98.6,192.5,96,191.9,93.8z"/>
	<path id="XMLID_64_" d="M212.3,95.9c0.9,2.5,2.5,4.4,4.5,5.9c-2.2-0.1-3.5-1.3-4.4-3.1C212,97.9,211.3,97,212.3,95.9z"/>
	<path id="XMLID_63_" d="M208.7,123v7.9C207,130.3,206.4,124.4,208.7,123z"/>
	<path id="XMLID_62_" d="M149,95c-2,2.5-3.3,5.4-3.7,8.5C143.6,101.9,146,96.5,149,95z"/>
	<path id="XMLID_61_" d="M102.3,118.5l0.7-1c-0.1-0.1-0.1-0.2-0.2-0.2c-0.5-0.1-1.1-0.1-1.6-0.2c0.3-0.5,0.6-1,1-1.4s1-0.5,1.6-0.8
		l0.2,0.3l-0.9,1l1.5,0.4l-1,1.6c0.2,0.7,0.5,1.5,0.7,2.2l-0.1,0.2c-0.4-0.3-0.7-0.6-1-0.9C102.9,119.4,102.7,119,102.3,118.5z"/>
	<path id="XMLID_60_" d="M90.9,81.1c0.1-1,0.2-2,0.4-3.4c-0.5,0.7-0.8,1.1-1.1,1.5L90,79.1c0.3-1.6,0.5-3.2,0.8-5
		c0.3,0.1,0.5,0.1,0.5,0.2c0.3,1,0.6,2.1,1,3.1c0.4,1-0.5,2.4-0.8,3.7L90.9,81.1z"/>
	<path id="XMLID_59_" d="M197.5,104c2,2.3,3.5,4.9,4,8l-0.3,0.2l-4.1-8L197.5,104z"/>
	<path id="XMLID_58_" d="M218.8,71.8c-1-2.7-1.9-5.2-2.9-7.6C217.7,64.2,219.6,68.7,218.8,71.8z"/>
	<path id="XMLID_57_" d="M183.2,93.6c1,2.5,1.8,4.9,2.7,7.3C184,100.2,182.1,95.3,183.2,93.6z"/>
	<path id="XMLID_56_" d="M174.7,174.2c-0.1-2.8,0.3-5.6,1.2-8.2C176.9,166.9,176.1,171.8,174.7,174.2z"/>
	<path id="XMLID_55_" d="M110.8,93.1l-3.4,1.6c3.2,1,3.5,1.2,3.9,2.7l-5-2.4c1.1-1.2,2.5-2.2,4.3-2.3L110.8,93.1z"/>
	<path id="XMLID_54_" d="M102.2,169.1c-0.2-2.5-0.5-5-0.8-7.7C103.1,162,103.6,166.5,102.2,169.1z"/>
	<path id="XMLID_53_" d="M147.3,179.4c-1.1,0.6-1.9,1.9-3.5,1.2c-0.3-0.1-0.8,0.4-1.3,0.6c-0.3,0.1-0.7,0-1.1-0.1
		c0.1-0.4,0.1-0.9,0.4-1c0.9-0.3,1.7-1.3,2.9-0.5c0.2,0.2,0.8,0,1.2-0.1c0.5-0.1,0.9-0.3,1.4-0.5
		C147.2,179.2,147.2,179.3,147.3,179.4z"/>
	<path id="XMLID_52_" d="M165.9,95.8L165,95l-1.7-1.5c1.5-0.3,4.9,1.8,6.1,3.8L165.9,95.8z"/>
	<path id="XMLID_51_" d="M130.5,127.9c-0.4,2.5-1.6,4.6-3.3,6.4l-0.5-0.2c1.1-2.1,2.1-4.3,3.2-6.4L130.5,127.9z"/>
	<path id="XMLID_50_" d="M170.6,175.1c0.7,2.4-0.1,4.4-0.7,6.6C169,180.6,169.5,176.7,170.6,175.1z"/>
	<path id="XMLID_49_" d="M139.9,167.1v0.6c-2.1-0.3-4.3,0.6-6.1-1.3c-0.2-0.2-0.3-0.5-0.5-0.7c0.7,0.2,1.2,0.4,1.6,0.5
		c0.5,0.1,1.2,0.8,1.7-0.1c0-0.1,0.5,0.1,0.8,0.1C138.3,166.6,139.1,166.9,139.9,167.1L139.9,167.1z"/>
	<path id="XMLID_48_" d="M105.6,175.3c-1.5-1.7-2.3-5.7-1.1-7.4C104.9,170.3,105.2,172.7,105.6,175.3z"/>
	<path id="XMLID_47_" d="M217.2,109.2c-2.5-0.2-4.5-2.4-3.8-4.5L217.2,109.2z"/>
	<path id="XMLID_46_" d="M172.9,171.8c0.7,2.5-0.2,4.7-0.9,7.2C171.4,177.6,171.8,174.3,172.9,171.8z"/>
	<path id="XMLID_45_" d="M142.9,117.3c-1.7-1.2-2.8-5-1.9-7C141.7,112.8,142.2,115,142.9,117.3z"/>
	<path id="XMLID_44_" d="M140.1,114.7c0.7,2.2,1.4,4.1,2.1,6.4C140.3,119.8,139.1,116.3,140.1,114.7z"/>
	<path id="XMLID_43_" d="M125.7,188.5c-1.5,1-3.6,1.2-3.7,3.6c-0.7-0.7-0.8-1.9-0.1-2.7C122.7,188.4,124.5,187.9,125.7,188.5z"/>
	<path id="XMLID_42_" d="M205.7,94.1c1.3,1.9,2.4,3.6,3.6,5.4C207.4,99,205.5,96.2,205.7,94.1z"/>
	<path id="XMLID_41_" d="M128.1,115.3c0.6,1.5-1.7,5-3.8,5.9C125.5,119.2,126.8,117.2,128.1,115.3z"/>
	<path id="XMLID_40_" d="M172.5,98.1c-2.2-0.5-4.5-3.1-4.2-5.1C169.8,94.8,171.1,96.4,172.5,98.1z"/>
	<path id="XMLID_39_" d="M129.3,133.5c-0.2,2-0.5,4-2.2,5.4C127.4,136.9,128,135.1,129.3,133.5z"/>
	<path id="XMLID_38_" d="M172.4,111l5.4,4.1c-2.4-0.6-4.3-1.8-5.7-3.8L172.4,111z"/>
	<path id="XMLID_37_" d="M131.9,173l2.3,1.4c0.2-0.3,0.5-0.8,0.6-0.8c0.7,0.4,1.4,0.9,2,1.4C133.6,175.3,132.4,174.8,131.9,173z"/>
	<path id="XMLID_36_" d="M207.7,116c-2-0.4-3.5-2.9-2.9-4.9L207.7,116z"/>
	<path id="XMLID_35_" d="M139.9,121.4l3,5.2C140.6,125.4,139.1,122.9,139.9,121.4z"/>
	<path id="XMLID_34_" d="M144.2,99v5.4C142.4,103.7,142.5,100.6,144.2,99z"/>
	<path id="XMLID_33_" d="M189,111c1.6,1.1,1.9,3.6,0.6,5.6C189.4,114.8,189.2,112.9,189,111z"/>
	<path id="XMLID_32_" d="M152.4,110.2c1.7-1.3,3.5-2.4,5.8-2.3l-5.6,2.7L152.4,110.2z"/>
	<path id="XMLID_31_" d="M97.3,105.5c0.5-1.3,2.4-2.8,3.5-2.8c0.2,0,0.4,0.1,0.6,0.2c-0.2,0.2-0.2,0.6-0.5,0.7
		C99.8,104.3,98.6,104.9,97.3,105.5z"/>
	<path id="XMLID_30_" d="M124.6,102.2l-3.7-4.1c1.7,0.2,3.6,2,4.1,3.7L124.6,102.2z"/>
	<path id="XMLID_29_" d="M141.6,134.2l3.7,2.6c-0.6,0.1-1.2,0.4-1.7,0.2C142.5,136.6,141.7,135.7,141.6,134.2z"/>
	<path id="XMLID_28_" d="M107.8,85l2.4-4.1l0.5,0.3c-0.2,1.7-1.3,2.9-2.5,4L107.8,85z"/>
	<path id="XMLID_27_" d="M127.1,97.9c1.2,1.3,1.2,3.8-0.4,5C126.9,101.1,127,99.5,127.1,97.9z"/>
	<path id="XMLID_26_" d="M99.9,107.6l-3,3.5C96.9,109.2,98.4,107.6,99.9,107.6z"/>
	<path id="XMLID_25_" d="M120.6,167.4l3.8,3.6C122.2,170.6,120.5,169,120.6,167.4z"/>
	<path id="XMLID_24_" d="M150.5,112.9l-0.8,1.5l1.7,0.3c0,0.1,0,0.3,0,0.4c-0.8,0.1-1.7,0.1-2.5,0c-0.1,0-0.4-0.9-0.2-1.2
		c0.3-0.6,0.8-1,1.3-1.5L150.5,112.9z"/>
	<path id="XMLID_23_" d="M205.3,85.6c0.6,1.7,1.2,3.1,1.8,4.6C205.4,89.4,204.4,87.2,205.3,85.6z"/>
	<path id="XMLID_22_" d="M123.2,97l0.2,0.5c-0.2,0.1-0.5,0.3-0.6,0.3c-1.3-1-2.6-2.1-3.8-3.2C120.8,94.8,121.9,96,123.2,97z"/>
	<path id="XMLID_21_" d="M120,114.2l4.1-0.2l-0.4,2.6c-0.6-2.3-2.3-1.8-3.7-1.9C120,114.6,120,114.4,120,114.2z"/>
	<path id="XMLID_20_" d="M108.3,80.6l2.2-4c0.6,1.1-0.3,2.9-1.9,4.2L108.3,80.6z"/>
	<path id="XMLID_19_" d="M97.1,107.9c0.2-1.3,1.6-2.4,3.2-2.6C100,106.1,98.8,107.1,97.1,107.9z"/>
	<path id="XMLID_18_" d="M168.8,158.7l-1.9-3.5c0.6,0.2,1,0.2,1.3,0.5C169.2,156.5,169.3,157.5,168.8,158.7z"/>
	<path id="XMLID_17_" d="M110.4,73.4c0.6,1.3-0.1,2.6-1.8,3.5C109.2,75.8,109.8,74.7,110.4,73.4z"/>
	<path id="XMLID_16_" d="M103.6,134.5l-2.3,3.2C101.2,136,102.1,134.7,103.6,134.5z"/>
	<path id="XMLID_15_" d="M137.2,200.7l-3.7,0.3C134.2,199.5,135.3,199.4,137.2,200.7z"/>
	<path id="XMLID_14_" d="M126,112.3c0.7,0,1.1,0.6,1.2,1.3c0.1,0.9-0.3,1.5-1.1,1.6C126.1,114.3,126.1,113.4,126,112.3z"/>
	<path id="XMLID_13_" d="M109.1,160.4c-1.1-1.3-0.7-2.5,1-3C109.8,158.5,109.5,159.4,109.1,160.4z"/>
	<path id="XMLID_12_" d="M153.2,114.5c1.7-1,3.2-1,4,0H153.2z"/>
	<path id="XMLID_11_" d="M172,114.8l0.6-0.7l-0.9-1.4l0.2-0.2l2.3,2l-2.1,0.5L172,114.8z"/>
	<path id="XMLID_10_" d="M140,167.2l-0.8-1c0.1-0.1,0.1-0.3,0.2-0.4l3,1.1l-0.1,0.4L140,167.2L140,167.2z"/>
	<path id="XMLID_9_" d="M131.1,144.7l3.2,1C133.3,146.6,131.8,146.2,131.1,144.7z"/>
	<path id="XMLID_8_" d="M137.7,179.7c-0.5,0.7-0.9,1.4-1.4,2.1C135.5,180.7,136,179.8,137.7,179.7z"/>
	<path id="XMLID_7_" d="M180.3,119.9c-0.5,0.4-0.6,0.5-0.7,0.5c-0.6-0.1-1.2-0.3-1.9-0.5c0.1-0.2,0.2-0.4,0.3-0.6
		C178.7,119.5,179.4,119.7,180.3,119.9z"/>
	<path id="XMLID_6_" d="M130.8,181.2l1.4-2.3C132.7,180.1,132.3,180.7,130.8,181.2z"/>
	<path id="XMLID_5_" d="M129.4,172.6l2.2,1.6c-1.2,0.1-2-0.3-2.5-1.2L129.4,172.6z"/>
	<path id="XMLID_4_" d="M181.6,119.2l-2.3-0.4c0.9-1,1.5-0.9,2.4,0L181.6,119.2z"/>
	<path id="XMLID_3_" d="M153.7,185.5c-0.4-0.5-0.7-0.8-0.7-1.1c0-0.2,0.4-0.5,0.6-0.7c0.3,0.2,0.7,0.5,0.8,0.8
		C154.4,184.7,154.1,185,153.7,185.5z"/>
	<path id="XMLID_2_" d="M159.3,84.6c-0.5,0.3-0.8,0.7-1.1,0.7c-0.2,0-0.6-0.4-0.6-0.7c0-0.2,0.4-0.8,0.5-0.7
		C158.5,84,158.8,84.3,159.3,84.6z"/>
	<path id="XMLID_1_" d="M134,151.5h2.8c-1.1,0.7-1.9,1-2.8,0.4C134,151.7,134,151.6,134,151.5z"/>
</g>
<g id="XMLID_173_">
</g>
</svg>
