<?xml version="1.0" encoding="utf-8"?>
<!-- Generator: Adobe Illustrator 19.0.0, SVG Export Plug-In . SVG Version: 6.00 Build 0)  -->
<svg version="1.1" id="Shane_Menaker" xmlns="http://www.w3.org/2000/svg" xmlns:xlink="http://www.w3.org/1999/xlink" x="0px"
	 y="0px" viewBox="0 0 300 250" style="enable-background:new 0 0 300 250;" xml:space="preserve">
<g id="XMLID_1_">
	<path d="M122.9,154.6c2.8,0.5,5.1,0,7.4-0.9c1.3-0.5,2.9-0.1,4.4-0.1c1.7,0,3.4,0.1,5,0.2c0.8,0.1,1.6,0.3,2.3,0.6
		c-3.6,0.8-7.2,0.6-10.8,0.3c5.3,2.7,27.8,2.3,33.6-0.9c-3.6,0-7.3,0.6-10.9-0.6c0.4-0.1,0.7-0.2,1.1-0.2c3.2-0.2,6.5-0.4,9.7-0.5
		c1.3,0,2.6,0.5,3.9,0.6c1.4,0.1,2.9,0,4.3-0.1c0.4,0,0.7-0.1,1.2,0c-0.7,0.5-1.5,1.1-2.2,1.6c-4.9,4-10.3,7.3-16.4,8.9
		c-8.7,2.2-17.4,2.1-25.3-2.8c-2.4-1.5-4.5-3.5-6.8-5.3C123.4,155.4,123.3,155.1,122.9,154.6z M148.2,160.1c-0.4-3.4-2.8-2-4.5-2.3
		c-1.3-0.2-0.9,1.2-1.5,1.9c-0.2-1.2-0.7-2-2.1-2c-1.2,0-2,0.3-2.2,1.7c-1-2.1-1.3-2.3-3-2l-0.4,1.3l-1.2-2l-1.1,1
		c-0.7-2-1.1-2.1-2.1-1l-1.1-0.4c-0.7,1.9-0.5,2.4,1.8,3.9c0.2,0.1,0.5-0.1,0.8-0.1c0.7,1.3,2,1.8,2.9,0.8c0.4,1.7,1.8,1.7,3,2
		c0.1-0.4,0.2-0.8,0.2-1.3c1.4,2.4,2.9,2.6,4.3,0.8c1.4,2,4.2,2.2,6.2,0.5c1.6,1.2,5.3,0.7,6.2-0.8c1.6,1,4,0.3,4.5-1
		c0.8-0.2,1.4-0.2,2-0.5c0.6-0.3,1.1-0.9,1.8-1c0.9-0.1,1.6-0.4,1.8-0.9c1-0.4,1.9-0.6,2.3-1.1c0.3-0.4,0.1-1.3,0.1-2
		c-1.6-0.1-1.6-0.1-2.5,1.2c-0.9-0.8-1.3-0.7-2.2,0.5c-1.1-0.9-2.6-0.5-3.5,0.9c-0.5-1.7-1.8-0.9-2.8-0.8c-1.4,0.1-1.1,1.6-1.7,2.6
		c-0.1-0.4-0.1-0.7-0.1-0.9c-0.1-1.1-0.6-1.8-1.9-1.3c-0.2,0.1-0.3,0.1-0.5,0.1C150,157.6,148.4,157.6,148.2,160.1L148.2,160.1z"/>
	<path id="XMLID_196_" d="M145.7,61.1c-0.8-0.1-1.7-0.1-2.4-0.5c-2-0.9-3.9-1.9-5.8-3c-2.5-1.6-3.3-4.2-3.8-6.9
		c-0.3-2-0.3-4.1-0.8-6.1c-0.9-4-3.7-6.1-7.8-6.1c-1,0-2.1-0.1-3.1-0.2c5.3-2,10.9,0.6,12.1,6.8c0.5,2.3,0.7,4.6,1,6.9
		c0.1,0.5,0.3,0.9,0.6,1.3c-0.5-3.3,1.2-6.2,1.8-9.3c0.3-1.6,0.2-3.4,0-5.1c-0.4-2.3-2.2-3.4-4.3-4.1c-3.1-1-6.1-0.8-8.9,0.8
		c-0.3,0.2-0.6,0.3-0.9,0.4l-0.2-0.4c1-0.6,1.9-1.1,2.9-1.7c0.4-0.3,0.9-0.6,1.1-1c0.7-1.7,2.4-3,4.4-3.1c2.2,0,4.4,0,6.8,0.2
		c-1,0.2-2,0.6-3,0.7c-1,0.1-2.1,0-3.2,0.1c-1.7,0-2.8,0.7-3.8,2.2c2.3-0.2,4.3,0.4,6.6-0.6c3.4-1.4,7.7,1.9,7.8,5.8
		c0.1,1.5,0,3-0.2,4.4c-0.5,3.2-0.1,6.1,2.4,8.5c2.6,2.6,5.5,4.6,9.3,4.9c-2.5-1.5-5.6-2.3-6.8-5.4c3.4,2.8,7.4,4.5,11.6,5.9
		l-0.1,0.4c-0.6,0.1-1.1,0.2-1.7,0.3c-4.8,0.2-8.8-1.5-12.4-4.7c-3.1-2.7-4-5.8-3.5-9.7c0.2-1.6,0.2-3.3,0.1-4.9
		c-0.1-2.8-1.8-4.5-4.5-4.8c-1.1-0.1-2.2,0-3.3,0.2c0.3,0.1,0.5,0.3,0.8,0.4c3.8,1.8,5.5,5.3,4.6,9.4c-0.4,1.7-1,3.3-1.4,4.9
		c-0.8,3-1,6,1.4,8.6c1.6,1.7,3.7,2.6,5.9,3.3l1,0.3L145.7,61.1z"/>
	<path id="XMLID_195_" d="M198.5,64.6c-0.4-0.8-0.6-1.1-0.9-1.7c1.5,0.5,2.5,2,3.8,1.2c0.6,0.4,0.9,0.8,1.2,0.8
		c1.3-0.1,2.7-0.2,4-0.4c-1.3,1.4-4,1.8-6,1c-0.4-0.1-0.8-0.3-1.2-0.2c-4.3,0.7-7.9-0.9-11.3-3.3c-4.1-2.9-6.9-6.7-8.7-11.4
		c-0.1-0.4-0.3-0.7-0.6-1.3c-0.6,2.2-1.2,4-1.7,5.9c-0.5,1.9-1.4,3.5-3.2,4.7c2-0.1,3-1.5,4.3-2.7c0.1,2.7-4,4.9-9.2,4.1
		c0.3-0.4,0.6-0.6,0.8-0.9c3.2-3.2,5.1-6.9,4.7-11.6c-0.3-4.4-2.8-7.6-6-10.4c-1.2-1.1-2.4-2.2-3.5-3.3l0.3-0.4c1,0.6,2.1,1,2.8,1.8
		c1.9,1.9,3.8,3.7,5.3,5.8c3.2,4.6,2.9,9.6,0.6,14.5c-0.4,0.9-1.3,1.6-2,2.4l0.3,0.4c0.8-0.7,1.8-1.3,2.3-2.2c1.7-2.9,2.7-6.2,3-9.5
		c0.5-5.1-1.5-9.4-4.6-13.3c-0.9-1.2-1.9-2.3-2.7-3.6c2.4,1.7,4.5,3.9,5.9,6.4l0.4-0.2c-0.5-1.3-1-2.6-1.4-3.9c1.4,0.4,2,1.6,2.2,3
		c0.4,2.8,0.7,5.5,1.2,8.3c0.9,5.1,3,9.6,6.6,13.5c2.6,2.8,5.4,5.1,9.1,6C195.6,64.3,196.9,64.4,198.5,64.6z"/>
	<path d="M114.8,182.1l1.2,0.8c-0.1-0.8-0.2-1.5-0.1-2.2c0-0.4,0.4-0.8,0.6-1.2c0.2,0.4,0.6,0.7,0.7,1.1c0.3,1.1,0.4,2.2,0.8,3.2
		c0.3,0.8,1,1.5,1.6,2.5c0.4-1.5,0.7-2.5,1-3.5l0.5,0.1c0,0.4,0.1,0.8,0.1,1.2c0.1,1.1,0.1,2.2,0.3,3.3c0.2,1.3,1.2,2,2.6,2.1
		c0.1-0.5,0.2-1.1,0.2-1.6l0.3-0.1l1.9,4.8c-1.8-0.1-2-1.5-2.5-2.7c-2.1,0.2-3.7-0.2-4.2-3.5c-1.6,0.3-2.6-0.8-3.5-2l-0.4,0.2l2,6.1
		l-1.3-0.6c0.4,1.2,0.8,2.2,1.3,3.3l-1.5-0.6c-0.6,8-2,15.8-3.9,23.5l-0.4-0.1l0.8-7.9c-2.6,3-5.6,5.1-8.7,7.2
		c-3.1,2-6.1,4.1-9.5,5.5c-0.1-0.1-0.1-0.2-0.2-0.3c2-1.5,3.9-3,5.9-4.4c5.3-3.8,8.9-9,12.4-14.4c2.1-3.2,2.1-6.6,2.5-10.1
		c0.3-2.9,0.1-5.7-0.4-8.6C114.8,183,114.8,182.6,114.8,182.1z M108.8,210.4c2.1-1.9,4.7-3.4,4.8-6.7L108.8,210.4z"/>
	<path id="XMLID_192_" d="M127,103.3l0.9,1.9l-0.3,0.2l-1.8-1.2c0.1,0.5,0.2,0.9,0.3,1.6l-3.8-2.1l-0.2,0.2c0.3,0.6,0.5,1.1,1,2.1
		c-1.4-0.3-2.6-0.5-3.7-0.7c-1.7-0.3-3.4-0.6-5.2-0.7c1.7,0.5,3.8,0.1,5,2.1l-4.3-0.5l1.8,1.1l-0.4,0.4l-7.4-0.4l3.7-1.9l-0.1-0.2
		l-1.2-0.1l0-0.4c2.8-1.5,5.8-1.4,8.9-0.4c-0.6-1-0.9-1.3-2.8-1.6c-1.1-0.2-2.3,0-3.6,0c0.7-1,1.6-1.3,2.5-1.2
		c2.1,0.2,4.1,0.4,6.3,0.5l-3.2-1.3v-0.4c0.5-0.1,0.9-0.2,1.4-0.2c0.7,0.1,1.4,0.4,2.1,0.6c1.6,0.5,3.3,0.9,4.9,1.3l0.2-0.5
		c-1.4-0.5-2.7-1-4.5-1.6l3.9-0.5c0,0,0-0.2,0.1-0.7l4.2,2.2c-0.5-0.8-0.9-1.5-1.3-2.1l0.2-0.2l2.3,1.5l0.2-0.7l2,1.9l0.2-0.1
		l-0.8-2.3c1.4,0.7,1.7,1.3,2.3,3.6c0.6-0.4,0.6-0.4,0.2-2.9l1.6,0.9c-0.4,1.3,1.3,2.8,0.3,4.6l-0.7-0.9c-0.6,0.7-1.1,1.6-1.8,1.9
		c-1.2,0.4-0.6-1.3-1.5-1.6l-0.5,0.8l-1.9-3.3l-0.4,0.2c0.5,0.9,0.9,1.9,1.4,2.8l-0.3,0.3l-2.5-1.9c0.1,0.2,0.2,0.4,0.2,0.6
		c0,0.4,0,0.7,0,1.1c-0.3-0.1-0.6-0.2-0.9-0.4c-0.9-0.6-1.9-1.3-2.8-1.9L127,103.3z"/>
	<path id="XMLID_191_" d="M190.5,171.3c1.1,0.2,0.9,1.1,0.9,1.7c0.2,2,0.2,3.9,0.3,5.9c0.4,4.8,0.8,9.6,1.2,14.5
		c0.3,3.7,1.8,6.6,4.8,8.9c1,0.8,1.8,1.8,2.7,2.8l-0.2,0.3l-5.1-3.5l-0.3,0.2c0.7,1,1.3,2.2,2.2,3.1c2.6,2.4,5.3,4.6,8,7
		c0.4,0.3,0.7,0.7,1.1,1l-0.3,0.4c-1.7-1.1-3.4-2.2-5-3.4c-1.6-1.2-3.1-2.6-4.7-3.9l-0.3,0.1c1.1,3,2.3,6,3.4,9l-0.4,0.2
		c-1-1.8-2.2-3.5-2.8-5.4c-2.3-6.8-4.7-13.6-5-21c-0.1-2.7-0.5-5.3-0.7-8.2l-4.4,8.2c0.2,0,0.3-0.1,0.5-0.1c0.4,0,0.8,0,1.1,0
		c0,0.4,0.1,0.8-0.1,1.2c-0.5,1-1,2.1-1.5,3.1c-0.3,0.5-0.5,1-0.8,1.5l0.4,0c0.1,0.6,0.5,1.2,0.4,1.7c-0.7,3.1-1.6,6.2-2.3,8.9
		c-0.5-2.7,0.2-5.8,1.4-8.9c-1.4,0.2-1.3-0.6-0.9-1.4c0.6-1.3,1.2-2.6,1.9-3.9c-1.6,0.4-1.9,2.6-4,2.3c0.8-1.3,1.4-2.5,2-3.6
		c1.9-3.5,3.8-7,5.6-10.5c0.4-0.8,0.5-1.7,0.5-2.6c0.1-1.6,0-3.3,0-4.9L190.5,171.3z"/>
	<path id="XMLID_190_" d="M116,34.2c0.5-3.9,2.3-7.1,5.2-9.6c4.1-3.4,7.5-3.7,11.7-0.2c2.7,2.3,4,3,6.2,3.3
		c-0.1-2.8-3.2-5.2-7.6-6.2c3.2-1.4,7.2,1.4,8.9,6.3l1.1-0.1c-0.7-2-1.2-4.1-3-5.2c-1.6-1-3.6-1.5-5.2-2.2c3-1.9,8,1.9,9,7.3
		l1.3,0.2c-1.9,0.9-3.9,1.3-5.8,0.5c-2.1-0.9-4.1-2-5.9-3.4c-3.4-2.5-5.9-2.6-9.4-0.1s-5,5.9-5.4,9.9c0,0.3,0,0.6,0.1,0.8
		c0.1,0.3,0.2,0.5,0.2,0.8c-1.5-1-3.2-1.5-4.9-0.8c-2,0.8-1.5,2.9-1.8,4.5c-1.4-2.1-0.1-4.8,2.7-5.8c-1.4-1.2-3.9-0.6-4.1,1.3
		c-0.2,1.9-0.1,3.9,0.2,5.8c0.2,1.4,0.8,2.7,1.3,4.1c-2.5-1.5-3.6-7.6-2.1-11.4c-1.1-0.3-1.8,0.3-2.2,1c-0.5,1.2-1.1,2.4-1.1,3.7
		c-0.1,1.8,0.3,3.6,0.5,5.5c0,0.4,0.2,0.8,0.2,1.3c-1.1-0.6-1.1-0.7-2.3-5.3c-2.2,2.1-2.2,4.6-1.9,7.3c-0.9-0.5-1.4-1.5-1.4-2.5
		c0-2.4,0.8-4.3,2.8-5.7c0.4-0.3,0.6-1.1,0.8-1.6c0.6-1.2,1-2.6,1.8-3.7c0.6-1,1.7-1.5,2.9-0.9c0.2,0.1,0.5,0.1,0.7,0
		c2.2-1.3,4-0.5,5.8,0.8C115.7,34.1,115.8,34.2,116,34.2z"/>
	<path id="XMLID_189_" d="M111.1,70.8c-0.5,0.6-0.9,1.3-1.5,1.7c-3.4,2-6.9,3.9-10.5,5.7c0.8-1.7,2.2-2.6,4-3.2
		c-2.6-0.1-5,0.3-7.2,1.5c1.6-2.1,3.9-2.7,6.4-3c1.8-0.2,3.5-0.7,5.3-1c0.2-0.1,0.4-0.2,0.6-0.4c-2.2-0.6-4.3-1.2-6.4-1.8
		C100,70,99,71.2,97.9,72c-1.5,1.2-3.1,2.3-4.6,3.6c-0.3,0.2-0.5,0.8-0.5,1.2c-0.2,2.5-1.5,4.5-3.1,6.3L89.4,83
		c0.8-2.1,1.6-4.2,2.5-6.6c-2.4,0.5-4.5,0.5-6.6-0.9c0.5-0.1,0.9-0.2,1.4-0.3c2.6-0.2,4.7-1.4,6.4-3.3c1.8-1.9,3.6-3.4,6-4.4
		c1.4-0.6,2.9-0.6,4.3-0.1c1.3,0.4,2.6,0.9,3.8,1.5c-1-0.1-2.1,0.1-2.9-0.2c-3.3-1.3-6,0-8.5,2c-1.8,1.5-3.5,3.1-5.3,4.7
		c0.2,0,0.4,0,0.5-0.1c1.5-1,2.9-1.9,4.4-2.9c0.8-0.6,1.4-1.3,2.2-1.9c1.8-1.3,3.6-1.7,5.8-0.8c2.4,1,4.8,1.5,7.5,0.8L111.1,70.8z"
		/>
	<path d="M129.7,116c2-0.2,4.1-0.4,6.3,0.3c-2.1,1.4-16,1.4-18.2,0l5.2,0.3l-1.9-3.4l-6.6,2.1c3.3-5.5,19.3-5.6,22.9-0.1l-6.9-2.7
		C130.2,113.8,129.9,114.9,129.7,116z M129.1,113l-0.3-0.6l-1.4,0.6l0.5,0.8L129.1,113z"/>
	<path id="XMLID_186_" d="M174.7,31.2c2.9,0.6,5.6,1.2,6.9,4c0.1,0.2,0.3,0.6,0.5,0.7c2.5,0.9,3.1,3.2,4,5.3c1.1,2.8,2,5.6,3.2,8.3
		c1.1,2.4,3.1,4,5.2,5.4c0.7,0.5,1.4,1,2.2,1.6c-4.6,0.2-11.7-5.9-11.3-10l2.8,4.2l0.4-0.2c-3.1-4-2.8-9.5-6.2-13.4
		c0.4,6.2,1,12.4,5.7,17.2c1.5,1.6,3.4,2.8,5.1,4.3c-0.9-0.4-1.9-0.8-2.8-1.3c-4.9-2.9-7.2-7.6-8.3-13c-0.4-2.2-0.7-4.5-1-6.7
		c-0.5-3.3-2.5-5.1-5.6-5.8c-0.2,0-0.3-0.1-0.4-0.2C175,31.6,175,31.5,174.7,31.2z"/>
	<path id="XMLID_185_" d="M180,114.1l-6.6-3c-0.3,1.3-0.6,2.5-0.9,3.7c2.1,0.2,4.2-1.7,6.5-0.6c-6,2.8-12,2.2-18.1,0.3
		c0.8-0.1,1.6-0.2,2.3-0.2c0.9,0.1,1.7,0.2,2.6,0.3c-0.4-1.1-0.7-2.1-1.1-3.2l-7,3.3l-0.2-0.4c3.3-2.4,6.8-4.6,11-4.9
		c4.5-0.3,8,1.9,11.5,4.3L180,114.1z"/>
	<path id="XMLID_184_" d="M130.9,59.4c-4.3,1.3-10.3,1.7-13.9-2.7c-1.5-1.9-3.7-2.8-6.3-2c-0.4,0.1-0.8,0.2-1.2,0.2
		c0.9-1.4,3.1-2.2,4.8-1.4c1.4,0.7,2.8,1.6,3.9,2.7c2,2.2,4.5,2.9,7.3,3.1c0-0.2,0.1-0.3,0-0.3c-3-1.5-3.6-4.5-4.4-7.3
		c-0.1-0.2-0.1-0.4-0.1-0.6c-1.3-3.9-2.8-5-7.3-3.7c-1.4,0.4-2.6,1.4-3.8,2.2c-0.3,0.2-0.6,0.5-1.2,0.6l0.8-1.4
		c-2.6-0.1-4.5,1.3-6.7,2.4c0.1-0.2,0.2-0.4,0.3-0.7c1.7-1.9,3.9-2.5,6.4-2.6c0.5,0,1-0.1,1.5-0.3c1.5-0.6,2.9-1.5,4.4-1.7
		c3.4-0.3,5.1,1,6.2,4c0.5,1.4,0.9,2.9,1.3,4.4c0.6,2.2,2,3.5,4.1,4.1C128.5,58.6,129.7,59,130.9,59.4z"/>
	<path id="XMLID_183_" d="M100,138.2c0.4,2.6,0.9,5.2,1.4,7.8c0.1,0.4,0.5,0.7,0.7,1c0.3,0.6,0.6,1.2,0.8,1.9
		c0.4,1.4,0.3,2.7-0.5,3.9c-0.7-1.6-1.3-3.3-2-4.9c-2.4,2.5-5.7,1.9-7.8-1.2c-1.7-2.5-2.2-5.4-2.7-8.2c-0.8-4.2-2.3-8.3-4.5-12
		c-2.1-3.5-3.1-7.4-2.3-11.8c0.2,1.3,0.4,2.4,0.5,3.6c0.3,3.2,1.6,5.9,3.3,8.5c2,3.3,3.3,6.9,3.8,10.7c0.4,2.9,1.2,5.8,2.9,8.3
		c0.7,0.9,1.7,1.7,2.6,2.3s2.1,0.5,2.8-0.4c0.6-0.8,0.9-1.8,1-2.8c0-1.7-0.3-3.5-0.4-5.3c0-0.5,0.2-1.1,0.3-1.6L100,138.2z"/>
	<path id="XMLID_182_" d="M163.8,58.3c0.8-1,1.8-1.8,2.4-2.9c1.1-2,1.2-4.4,0.8-6.6c-0.5-2.6-1.4-5.1-2.1-7.7c0-0.2-0.2-0.3-0.3-0.4
		c0,2.9,0.1,5.9,0,8.8c-0.1,2.6-0.5,5.2-2.2,7.4c-0.2,0.3-0.7,0.5-1,0.8l-0.2-0.2c0-0.2,0.1-0.4,0.2-0.7c1.6-2.4,1.9-5.1,2.2-7.8
		c0.4-3.4,0.2-6.9-0.7-10.2c-0.7-2.5-2.3-4.2-4.2-5.8c-0.9-0.8-1.9-1.5-2.8-2.3c2.3,0.5,4.1,1.9,5.8,3.5c3.7,3.6,5.2,8.3,6.4,13.2
		c0.7,2.7,0.7,5.5-0.6,8c-0.5,0.9-1.2,1.8-2,2.5c-0.4,0.4-1.2,0.5-1.8,0.7C163.8,58.5,163.8,58.4,163.8,58.3z"/>
	<path id="XMLID_181_" d="M90.6,69.7c-1.3,0.1-0.7,1.6-1.7,2.3c0.1-1.1,0.3-1.9,0.3-2.8c0-0.6,0-1.2-0.1-1.8
		c-0.3-1.7-0.7-3.4-1.1-5.1c-0.1-0.5-0.5-0.9-0.9-1.2c-1.8-1.2-3.3-2.6-4-4.7c-0.1-0.4-0.2-0.9-0.1-1.3c1.4,2,2.5,4.2,5.1,5.1
		l0.9-2.9c-1.7-0.8-2.9-1.8-2.8-4c0.5,0.6,1.1,1.3,1.6,1.8c1,0.9,1.9,0.8,2.8-0.2c2.4-2.8,5.5-3.9,9.1-3.8c0.4,0,0.7,0.3,1.1,0.6
		c-6,0.1-10,2.8-11.7,8.9c1.2,0.1,2.3,0.1,3.3,0.2c0.4,0,0.7,0.3,1.1,0.5c-0.4,0.2-0.7,0.6-1.1,0.6c-1,0.1-2.1,0-3.4,0l0.8,4.9
		L90,67c1.6-2.4,3.4-4.4,6.2-5.2l0.3,0.4c-0.5,0.5-1.1,0.9-1.7,1.3c-1.8,1.1-3.1,2.7-4,4.5C90.6,68.5,90.7,69.1,90.6,69.7z"/>
	<path d="M103.3,37.9c-3.4,0.9-3.2,3.7-3.2,6.2c0,1.5,0.4,2.9,0.6,4.5c-1.1-0.9-1.1-0.9-1.9-6.7c-2,0.4-3.3,1.7-4.2,3.3
		c-0.9,1.6-1.5,3.3-2.3,5l-0.4,0l-0.4-5.5c-1.5,2.3-1.6,4.9-2.1,7.5c-0.2-0.6-0.4-1.2-0.4-1.9c-0.1-2,0.3-4,1.2-5.8
		c0.2-0.5,0.6-1.2,1-1.3c1.3-0.5,1.8-1.8,2.7-2.7c0.7-0.7,1.4-1.3,2.2-1.7c1.1-0.7,2.4-0.9,3.4-0.1c1-0.5,1.8-1.1,2.7-1.5
		c0.2-0.1,0.7,0.3,1,0.4L103.3,37.9z M99.5,39.5c-1.6-0.7-2.8,0-4,0.9c-1.8,1.4-2.6,3.4-2.7,5.7c0.4-0.6,0.6-1.2,1-1.8
		c1.1-1.6,2.3-3.3,4.5-3.5C99.2,40.7,99.4,40.4,99.5,39.5z"/>
	<path id="XMLID_178_" d="M92.2,135.9c-0.3-0.6-0.6-1.2-0.8-1.9c-1.4-3.1-2.7-6.3-4.3-9.3c-1.5-2.9-2.8-5.8-2.5-9.1
		c0-0.5,0.2-1,0.4-1.4c0.1,4.4,1.7,8.3,4.6,11.6c-0.2-1.3-0.4-2.6-0.7-3.8c-0.3-1.3-0.7-2.6-1-3.8l0.3-0.2l1.2,1.5l0.2-0.1
		c-0.4-1.8-0.7-3.6-1.1-5.5l1,0.3c-0.1-0.9-0.2-1.9-0.4-2.8l0.6-0.1c0.4,1.5,0.9,3.1,1.3,4.6c0.6,2.6,0.1,5.1-0.3,7.7
		c-0.3,2.1-0.2,4.3,0.4,6.4c0.6,1.9,1,3.8,1.4,5.7L92.2,135.9z"/>
	<path id="XMLID_177_" d="M170.9,103.1l-0.5-0.7l-1.3,0.6c1.1-2.6,4.2-2.6,5.1-4.7c-1.8,0.3-2.6,0.8-6.8,4.9c0-0.6-0.1-1-0.1-1.7
		l-2.2,1.7c0.2-0.8,0.3-1.3,0.5-1.7c0.2-0.4,0.5-0.7,0.8-0.9c2.2-1.1,4.4-2.3,6.7-3.2c0.6-0.3,1.6,0.1,2.3,0.2
		c0.5,0.1,1,0.2,1.6,0.3l-0.7,0.8l4.4,1.2l-1.2,0.6l3.5,0.5l0,0.2l-6.7,2c0-0.1,0.1-0.5,0.2-1l-2.6,0.9c0-1.6,1.4-1.9,2-2.8
		l-0.2-0.3L170.9,103.1z"/>
	<path id="XMLID_176_" d="M147.3,29.1c2.9,0.2,5.7,0.8,8,2.7c1.2,1,2.1,2.5,2.3,4.1c0.3,1.5,0.4,3,0.6,4.5c0.2,1.2,0.4,2.5,0.6,3.8
		c-1.1-1.1-1.5-2.5-1.6-4s-0.3-2.8-0.5-4.3c-0.3-2-1.3-3.2-3.4-4.1c0.4,1,1,1.9,1.2,2.9c0.4,2.4,0.7,4.9,1.1,7.3
		c0.6,4.2,1.8,7.9,5.9,10c0.4,0.2,0.6,0.6,0.9,0.8l-0.2,0.4c-0.5-0.1-0.9-0.2-1.3-0.4c-4.1-2-5.5-5.7-6.2-9.9
		c-0.4-2.4-0.5-4.9-0.9-7.3c-0.5-2.6-2.1-4.4-4.5-5.4c-0.6-0.3-1.2-0.6-1.8-0.9L147.3,29.1z"/>
	<path id="XMLID_175_" d="M210,113.1v-4.5l-5.1,5.7l-0.2-0.1c0.2-0.5,0.4-1,0.7-1.5c1.4-2.5,3.4-4.5,5.5-6.4c4-3.5,6.6-0.9,7.7,3
		c0.9,3.1,0.2,6.1-1.3,8.9c-1.4,2.8-2.5,5.6-2.9,8.7c-0.1,0.6-0.3,1.1-0.6,1.6c-0.3-3.2,0.1-6.3,1.6-9.1c1.4-2.7,2.5-5.5,2.1-8.6
		c-0.2-1.5-0.8-2.9-1.6-4.2c-0.8-1.3-2.2-1.1-3.2,0.1C211.4,108.6,210.6,110.8,210,113.1z"/>
	<path id="XMLID_174_" d="M203.3,131.6l3.1-3.7c-0.2,2.2-1.7,4.1-3.3,4.7c-0.4,0.1-0.7,0.6-1.2,1.2c3.1,0.4,4.1-1.8,5.7-3.3
		c-0.2,2.1-1.5,3.4-3.2,4.4c-1.3,0.7-2.5,0.5-3.5-0.5c-0.5-0.4-0.8-1.1-1.2-1.7c0.1-0.1,0.2-0.2,0.3-0.3l1.7,1
		c0.5-2.5,1.3-4.9,0.9-7.4c-0.1-0.8-0.7-1.7-1.2-2.3s-0.7-1-0.3-1.7c0.5-0.8,1-1.7,1.6-2.4c0.3-0.4,0.9-0.6,1.3-0.9l0.3,0.2
		c-0.1,0.3-0.2,0.6-0.3,0.8c-0.4,0.6-0.8,1.2-1.2,1.7c-0.7,0.8-0.7,1.5,0.2,2.3c0.5,0.4,0.7,1.1,1.1,1.7l1.2-3.2
		c0.7,2.3-0.4,3.9-1.3,5.6l0.3,0.1c0.6-0.9,1.3-1.8,2-2.9c0.6,3.1-2.3,4.3-3.2,6.5L203.3,131.6z"/>
	<path id="XMLID_173_" d="M133.1,61.1c1.8-1.4,3.8-1.1,5.7-0.9c2.3,0.3,4.7,0.7,7,1c0.7,0.1,1.5-0.3,2.6-0.5
		c-7.3-3.1-10.9-7-9.7-10.6c0.3,0.7,0.5,1.2,0.7,1.8c1.4,3.8,4.4,5.9,8.1,7.2c0.6,0.3,1.1,0.5,1.6,0.9c1.2-1.3,2.9-2.2,4.7-2.1
		c-1.5,1.2-3.2,2.5-4.9,3.7c-2,1.5-4.3,1.3-6.6,0.8c-1.9-0.5-3.7-0.9-5.6-1.2C135.5,60.9,134.4,61.1,133.1,61.1z"/>
	<path id="XMLID_172_" d="M159.8,96.8l-1.6,2.3l3.1-2.1l0.1,0.2l-3.9,6.2l-0.2-1.3l-0.2,0c-0.1,0.4-0.3,0.8-0.3,1.2
		c0.1,1.1-0.6,1.3-1.4,1.2c-0.9-0.1-1.8-0.2-2.6-0.5c-1.8-0.8-2.2-2.7-1-4.6l0.6,2.3c0.6-1.3,0.3-2.9,1.7-4l-0.3,3.2l0.2,0.2
		C155,98.3,157.5,97.8,159.8,96.8z"/>
	<path id="XMLID_171_" d="M198.6,122.5c0.2-1.5,0.1-3,0.6-4.4c1.1-3.6,2.7-7,5.3-9.7c1.4-1.4,1.4-2.8,1.1-4.5
		c-0.4-2-0.8-4.1-1.2-6.1c0-0.2,0-0.3,0-0.5c1.7,0.7,1.9,1.8,2,8.6c0.8-0.8,1.5-1.5,2.2-2.1c1.1-1,2.3-1.8,3.8-1.8
		c1,0,1.8,0.4,2.4,1.6c-3.1-1.5-4.8,0.3-6.6,2.1c-4.2,4.2-7.2,9-8.6,14.8c-0.2,0.7-0.3,1.3-0.4,2L198.6,122.5z"/>
	<path id="XMLID_170_" d="M100.6,61c0.5-0.2,0.9-0.4,1.4-0.5c2.5-0.4,4.9,0.1,7.1,1.4c3.4,1.9,6.9,2.3,10.8,1.4
		c-0.9-0.1-1.7,0-2.5-0.2c-0.8-0.2-1.5-0.5-2.3-0.8l10.5-0.6c-1.5,1.7-3.6,2.8-5.9,2.9c-2.4,0.2-4.7,0.2-7.1,0
		c-1.1-0.1-2.2-0.5-3.2-1.1c-2.5-1.5-5.1-2.2-8-2.1c-0.2,0-0.5,0-0.7-0.1C100.7,61.3,100.7,61.2,100.6,61z"/>
	<path id="XMLID_169_" d="M199.8,54.5c0.1-1,0.1-2,0.2-2.9c0.4-3.4-0.6-6.3-3-8.7c-0.4-0.4-0.9-0.6-1.4-0.9l-0.3,0.4
		c0.4,0.4,0.7,0.8,1.2,1.1c1.5,0.9,2.1,2.3,2.3,3.9c0.2,1.2,0,2.4-0.1,3.7c-0.6-2.3-0.6-4.8-2.6-6.6l-0.4,0.7
		c-0.1-0.3-0.3-0.6-0.4-0.9c-1-1.6-1.8-3.2-3-4.6c-1.5-1.8-2.8-1.9-4.9-0.9c-0.3,0.1-0.5,0.1-0.8,0.2c0.5-1.6,2.2-2.4,3.9-1.9
		c1.7,0.6,2.9,1.8,3.9,3.3c0.2,0.4,0.8,0.5,1.2,0.7c0.6,0.3,1.3,0.4,1.8,0.7C201,44.4,201.9,51.8,199.8,54.5z"/>
	<path id="XMLID_168_" d="M114.1,43.4c2.8-1.2,5.6-3,8.9-1.3c2.7,1.3,4.5,3.4,4.8,6.6c-1.5-3.5-3.9-5.6-7.8-6.3
		c0.2,0.2,0.2,0.4,0.3,0.4c3.5,1.7,5.1,4.8,6.4,8.3c0.6,1.6,1.5,3.2,2.2,4.9c-0.5-0.4-1.1-0.8-1.4-1.3c-0.8-1.5-1.6-3-2.3-4.6
		c-0.9-2.2-2-4.2-4.1-5.5c-1.8-1.2-3.7-1.8-5.8-1.1c-0.4,0.1-0.8,0.2-1.1,0.2L114.1,43.4z"/>
	<path id="XMLID_167_" d="M100.2,122.1l-3.6-10.5c1.8,0.9,1.9,2.9,3.1,4.2c-0.4-2.5-0.8-4.9-1.2-7.4c-0.4-2.7-0.3-5.3,1.4-7.6
		c0.3-0.4,0.7-0.7,1.2-0.9c-0.1,0.4-0.2,0.9-0.4,1.3c-1.7,2.9-1.2,5.9-0.7,9c0.4,3,0.7,6,0.8,9C100.9,120.2,100.4,121.3,100.2,122.1
		z"/>
	<path id="XMLID_166_" d="M162.9,19.9c-0.5-0.1-1-0.1-1.6-0.2c-4.7-0.9-10.1,1.2-11.1,7.5c-0.1,0.2-0.2,0.4-0.3,0.7l-0.4,0
		c-0.1-0.6-0.3-1.2-0.2-1.7c0.7-2.7,2.1-5,4.6-6.4c0.3-0.2,0.6-0.4,1-0.6c0.1,0,0.1-0.1,0.1-0.2c-1.8-0.5-5.1,0.3-7.5,1.6
		c-2.6,1.4-3.3,3.9-3.6,6.6l-0.5-0.1c0-0.8-0.1-1.6,0-2.3c0.4-1.6,1.1-3,2.5-4c3.1-2.2,6.3-3.5,10.1-2.3c1.1,0.3,2.5-0.1,3.6,0.1
		C160.9,18.8,161.9,19.5,162.9,19.9L162.9,19.9z"/>
	<path id="XMLID_165_" d="M198.8,138.1c0.4,1.2,0.8,2.5,1.3,3.7c0.5,1.2,1,2.4,1.7,3.5c0.8,1.4,2,1.6,3.3,0.7
		c2.3-1.4,3.3-3.5,3.4-6.1c0-0.3,0-0.7,0.1-1c0-0.1,0.1-0.3,0.2-0.4l1,2.1l3.2-8.5l0.4,0.1c0,0.4,0.1,0.9,0,1.3
		c-0.7,2-1.3,4.1-2.2,6c-1,2-2.1,3.8-3.5,5.6c-1.1,1.5-2.6,2.7-4.6,2.6c-0.6,0-1.4-0.3-1.7-0.8c-0.9-1.3-1.6-2.7-2.1-4.2
		c-0.5-1.4-0.6-2.9-1-4.4L198.8,138.1z"/>
	<path id="XMLID_164_" d="M195.2,75.4c-1.4-1.9-2.6-3.8-4.8-4.8c-2-0.9-4-1.6-6-2.5c-1.1-0.4-2.1-0.9-3.2-1.4l0.1-0.3
		c0.7,0.1,1.5,0.2,2.2,0.3c1.7,0.1,3.4,0.2,5.1,0c3.4-0.4,6.4,1.4,7.3,4.8c-1.2-1-2.3-2-3.5-2.8c-1.3-1-2.7-0.6-4.3-0.4
		C191.9,69.4,194.2,71.8,195.2,75.4z"/>
	<path id="XMLID_163_" d="M141.5,30.2c5,0.1,7,1.7,6.8,6.2c-0.1,1.8-0.2,3.7-0.2,5.5c0,2.8,1.7,5.3,4.2,6.3c0.7,0.3,1.4,0.6,2,1
		c0,0.2-0.1,0.3-0.1,0.5c-0.7-0.1-1.5-0.2-2.2-0.4c-3-1-5.2-4.1-5.2-7.3c0-2.1,0.2-4.3,0.3-6.4c0.1-2-0.6-3.4-2.7-4
		C143.4,31.2,142.5,30.6,141.5,30.2z"/>
	<path id="XMLID_162_" d="M119.5,40.1c2-1.2,4-1,6-0.4c3.1,1,5,3.4,5,6.7c0,1.6-0.2,3.2-0.3,4.8c-0.2,3.2,0.9,5.7,3.7,7.4
		c0.3,0.2,0.6,0.5,0.8,0.9c-1.5,0.2-2.4-0.7-3.3-1.6c-1.9-1.8-2.3-4.2-2.1-6.7c0.1-1.6,0.3-3.2,0.3-4.8c0-3.1-1.8-5.4-4.8-5.9
		c-1.4-0.2-2.9-0.2-4.3-0.2C120.1,40.2,119.8,40.1,119.5,40.1z"/>
	<path id="XMLID_161_" d="M128.1,28.8c-4.6,1.4-6.8,5.2-8.8,9.2c-1.6-1.7-0.7-5.6,1.6-8.8c2.1-3,6.6-4.4,8.6-2.9
		c-5.8,0.1-8.8,3.3-9.9,8.6c1.2-1.4,2.3-3,3.5-4.3C124.4,29.3,126.3,28.6,128.1,28.8z"/>
	<path id="XMLID_160_" d="M120.1,65.3c-1,1.5-2.4,2.3-4.2,2.4c-3.1,0.1-6.1-0.9-8.9-2c-0.8-0.4-1.7-0.7-2.5-0.9
		c-2-0.5-4-0.5-5.8,0.7c-0.7,0.4-1.4,0.8-2.2,1.1c1-1.9,4.6-3.7,6.2-3.2c1.6,0.5,3.1,0.9,4.7,1.3c2.4,0.6,4.8,1.3,7.3,1.8
		c1.1,0.2,2.3-0.2,3.5-0.5C118.8,65.7,119.5,65.5,120.1,65.3z"/>
	<path id="XMLID_159_" d="M120.8,198.5c-0.3-0.6-0.7-1.3-0.9-2c-0.5-1.4-0.2-1.9,1.3-1.8c-0.3-0.9-1.4-1.6-1-3.2
		c1.6,1.8,3,3.3,4.3,4.9c0.1,0.1,0,0.7-0.1,0.7c-0.3,0.1-0.7,0.2-1,0.1c-0.7-0.3-1.4-0.7-2-1l-0.3,0.3c0.5,0.7,0.9,1.3,1.4,2
		c0.2,0.4,0.5,0.9,0.6,1.3c-0.5,0.1-1,0.2-1.5,0.2c-0.3,0-0.6,0-0.9-0.1v7.3c-1.3-2.3-1.6-5.1-1-7.7
		C119.9,199.2,120.4,198.9,120.8,198.5z"/>
	<path id="XMLID_158_" d="M160.5,29.9c0-6.7,4.9-9.6,9.8-7.7c-1.4,0.2-2.8,0.3-4.1,0.6c-3,0.6-4.9,3.5-4.7,6.5
		c0.1,0.8,0.3,1.2,1.1,1.6c1.6,0.9,3.1,1.9,4.5,3.1c-4.2-1.5-7.9-4.2-12.5-4.7l0.1-0.5c1,0.1,2,0,2.9,0.2S159.5,29.5,160.5,29.9z"/>
	<path id="XMLID_157_" d="M119.3,60.2c-2.9,0.4-5.5-0.2-8-1.2c-1.7-0.7-3.5-1.5-5.2-2.2c-2.4-1.1-4.8-1.2-7.2,0
		c-0.4,0.2-0.8,0.2-1.2,0.2c1.2-1.3,2.6-2.3,4.4-2.1c1.5,0.1,3,0.4,4.4,1c4,1.6,7.8,3.6,12.2,4.1C118.9,60,119.1,60.1,119.3,60.2z"
		/>
	<path id="XMLID_156_" d="M98.5,122.3c-0.4-0.8-0.8-1.4-1.1-2c-1.3-3.3-2.8-6.5-5.3-9.1c-0.9-1-1.9-1.8-3.1-2.4
		c-1.3-0.7-2.4-0.3-3.3,0.9l-1.5,1.9c0.3-3.6,3.2-5.4,6.3-3.2c1.3,1,2.4,2.4,3.4,3.7c2.1,2.7,3.6,5.7,4.7,8.9
		c0.1,0.2,0.1,0.5,0.1,0.7C98.8,121.7,98.7,121.8,98.5,122.3z"/>
	<path id="XMLID_155_" d="M141.8,169.4c7,0.4,13.9,0,20.2-4.4C159.1,170.5,144.3,171.7,141.8,169.4z"/>
	<path id="XMLID_154_" d="M190.5,171.3l-0.2,0.2c-0.7,0.2-0.9,0.8-0.8,1.5c0.1,1.2-0.2,2.2-1.4,3c0.2-1.6,0.6-3.1-0.5-4.4
		c0,0,0.4-0.6,0.6-0.6c0.3,0,0.7,0.3,1.1,0.5c0.7-1.8,2.2-3.4,1.6-5.6c0-0.3,0.1-0.5,0.4-0.7c0.2-0.1,0.5,0.1,0.7,0.3
		c0.2,0.2,0.3,0.6,0.5,1c0.8-1.3,1.1-2.5,0.4-3.9c-0.2-0.4-0.1-0.9-0.2-1.3c0.4,0.2,1,0.3,1.3,0.6c1.3,1.5,0.9,3.6-0.9,4.8
		c-0.2,0.1-0.6,0.2-0.7,0.5C191.7,168.6,191.2,170,190.5,171.3z"/>
	<path id="XMLID_153_" d="M196.9,68.4c2.2,1.5,4,3.6,6.4,4c-1.6-1.7-3.3-3.5-5-5.3c-0.1-0.1,0-0.4-0.1-1c3.1,2.9,5.7,6,9.8,6.8
		C205.4,75.3,197.9,71.9,196.9,68.4z"/>
	<path id="XMLID_152_" d="M141.1,104.6c1.9,5.2,1.6,10.5,0,15.8h-0.4c0-2.1,0.2-4.2-0.1-6.2c-0.2-2-0.9-4.1-1.4-6.1l0.3-0.1l1.4,1.9
		l0.2,0c-0.2-1.7-0.3-3.4-0.5-5.2L141.1,104.6z"/>
	<path id="XMLID_151_" d="M91.8,106.6c0.5,0.5,1.2,1.1,2,1.9c0-0.6,0.1-1.2,0.2-1.9c0.1-0.3,0.4-0.6,0.6-0.9c0.2,0.3,0.6,0.6,0.6,1
		c-0.1,1.4-0.2,2.8-1.4,3.7c-0.3-0.5-0.6-0.9-1-1.3c-0.8-0.8-1.6-1.5-2.5-2.2c-1.8-1.4-2.9-1.2-4.5,0.4c-0.1,0.1-0.3,0.3-0.5,0.5
		c0.1-2.6,2.2-3.1,5.9-1.6c0.5-1.5,1-3,1.6-4.5c0.1-0.3,0.5-0.5,0.8-0.8c0.1,0.4,0.4,0.9,0.2,1.2C93.2,103.5,92.5,105,91.8,106.6z"
		/>
	<path id="XMLID_150_" d="M209.8,134.3l-0.8-1.5c-1.3,0.9,0.7,2-0.3,3.1l-1-1.4l-0.9,2.9c-0.5-1.1-0.4-2.3,0.3-3.3
		c2.9-4.1,3.7-8.8,4-13.6c0-0.2,0.1-0.5,0.1-0.8c1.1,2,0.6,3.9,0.4,5.7c-0.2,1.1-0.5,2.2-0.8,3.3c-0.5,1.5-1.4,3-0.7,4.7
		C210,133.6,209.9,133.8,209.8,134.3z"/>
	<path id="XMLID_149_" d="M162.9,20c0.5,0,0.9,0,1.4-0.1c4-1,8.8,0.6,10.8,4.1c-0.5-0.4-1-0.8-1.5-1.2c-2.9-2.3-6.3-2.6-9.7-1.7
		c-1.8,0.5-3,2.1-4,3.7c-0.5,0.8-0.9,1.6-1.4,2.4l-0.4-0.1c0.1-0.5,0.1-1,0.3-1.4c1-1.9,2.2-3.7,3.9-5
		C162.7,20.5,162.8,20.2,162.9,20L162.9,20z"/>
	<path id="XMLID_148_" d="M196.8,51c-3.6,0.2-8.4-5.1-9.8-10.4c0.1,0,0.2-0.1,0.2-0.1c0.2,0.1,2.9,0.7,3.2,0.8
		c1.9,0.1,3.5,2.1,3.3,4.4c-1.1-1.9-1.9-3.9-4.7-3.5C190.5,46.1,192.8,49.1,196.8,51z"/>
	<path id="XMLID_147_" d="M165.2,106.3c4.5-2.7,15.2,0.6,16.8,5.5c-0.5-0.3-1-0.6-1.5-1c-2.9-2.5-6.2-4.1-10.1-4.4
		C168.7,106.1,167,106.3,165.2,106.3z"/>
	<path id="XMLID_146_" d="M184.2,52.9c4.4,5.3,10,7.8,16.9,8.1C195.3,62.8,184.4,57.6,184.2,52.9z"/>
	<path id="XMLID_145_" d="M118.9,55.3c-1.5-0.8-2.8-1.6-4.2-2.2c-1.8-0.7-3.8-0.7-5.6,0.1c-1.9,0.8-4,1-6,0.3
		c-0.2-0.1-0.3-0.2-0.5-0.5c0.5-0.1,1.1-0.1,1.6-0.1c1.9,0.1,3.9-0.3,5.6-1.1C112.9,50.5,117.5,52.3,118.9,55.3z"/>
	<path id="XMLID_144_" d="M171.6,44.7c1.9,4.2,0.7,8-1.4,11.6c-0.9,1.7-2.5,2.8-4.3,3.1C170.4,55.5,172.3,50.6,171.6,44.7z"/>
	<path id="XMLID_143_" d="M171,97.3l-8.1,5.7c0-0.2,0-0.5-0.1-1l-1.2,1.1c0-1.5,1.4-3.5,3.4-4.3c1.4-0.6,2.9-1,4.4-1.4
		C169.9,97.2,170.5,97.3,171,97.3z"/>
	<path id="XMLID_142_" d="M98,90.7c0.3-0.7,0.6-1.3,0.9-2.2l-3.6,0.9l-0.1-0.3c0.8-0.4,1.5-0.8,2.3-1.2c1.7-0.7,3-1.8,3.9-3.6
		c0.7-1.5,1.6-3,2.4-4.4c0.1-0.2,0.4-0.4,0.7-0.6c0.1,0.3,0.3,0.7,0.2,0.9c-0.7,1.5-1.5,3-2.3,4.4c-1.3,2.1-2.7,4.1-4,6.1L98,90.7z"
		/>
	<path id="XMLID_141_" d="M151.6,146.1c-1.3,2.5-5.2,3.5-7.6,1.9c-2.1-1.4-4.1-2.9-6.1-4.2c0.8-0.3,2.2,0.2,3.7,1.2
		c1.1,0.8,2.3,1.5,3.6,2.1c1.5,0.7,3.1,0.4,4.6-0.2C150.3,146.5,150.9,146.3,151.6,146.1z"/>
	<path id="XMLID_140_" d="M214.3,112.3c-0.5,0.4-0.7,0.6-1,0.9c-0.1,0-0.2,0-0.4,0l1.3-4l-0.6-0.4l-0.7,1.6
		c-0.2-0.2-0.4-0.3-0.6-0.5c0.4-0.6,0.8-1.6,1.3-1.7s1.4,0.5,1.8,1c1.2,1.7,0.7,5.4-0.8,7c0-0.4-0.1-0.7-0.1-1.2l-1.3,1
		C213.5,114.8,213.9,113.7,214.3,112.3z"/>
	<path id="XMLID_139_" d="M113.2,114c1.7-3.6,10.5-6.1,13.7-4.1C121.9,110.4,117.3,111.3,113.2,114z"/>
	<path id="XMLID_138_" d="M98.4,126.1c-0.4,2,0.2,3.8,0.9,5.6c0.3,0.8,0.6,1.6,0.7,2.5c0.1,0.9-0.2,1.8-1.1,2
		c-0.7,0.1-1.6,0-2.1-0.4c-0.8-0.8-1.5-1.8-2.1-2.9c-0.2-0.4-0.1-1,0.1-1.6c0.7,1,1.4,2.1,2.1,3.1c0.3,0.4,1,0.6,1.5,0.9
		c0.1-0.6,0.5-1.2,0.4-1.8c-0.2-1.1-0.8-2.1-1-3.1c-0.2-1-0.3-1.9-0.2-2.9c0-0.5,0.4-1,0.6-1.5L98.4,126.1z"/>
	<path id="XMLID_137_" d="M198.6,74.4c2.8,1.5,5.7,2.1,8.9,1.3l0.1,0.4l-2.4,1.1c1.9,2,2.1,4.6,2,7.3c-0.4-1.2-0.8-2.4-1.2-3.6
		c-0.2-0.6-0.4-1.1-0.7-1.7c-0.7-1.2-1.3-2.3-3-2.5c-1.1-0.1-2.1-0.9-3.2-1.4c-0.2-0.1-0.4-0.4-0.6-0.6L198.6,74.4z"/>
	<path id="XMLID_136_" d="M180.8,185c1.6-2,0.5-4,0-6.3c1.5,0.6,1.7,1.9,2.5,3.2c0.3-1.2,0.5-2.1,0.6-3c0.1-0.9,0-1.8,0-2.9
		c1.2,0.5,1.4,1.6,1.3,2.6c-0.1,1.5-0.5,2.9-1.9,3.8c-0.3,0.2-0.3,0.6-0.6,0.9c-0.5,0.6-1,1.2-1.5,1.9L180.8,185z"/>
	<path id="XMLID_135_" d="M152.3,116.5c-1.3-2.6-0.9-8.9,0.7-9.7c-0.1,1.1-0.1,2-0.2,3.1l2.1-1.8l0.4,0.2
		C153.7,110.8,152.4,113.4,152.3,116.5z"/>
	<path id="XMLID_134_" d="M184.3,60.9c0.3,2.8-2.1,5.2-4.6,4.8c-0.6-0.1-1.1-0.6-0.5-0.9c2.2-1.3,2.2-3.7,2.8-5.7
		c0.1-0.1,0.1-0.3,0.2-0.4l0.4,0c-0.1,1.6-0.2,3.1-0.2,5C183,62.7,183.6,61.9,184.3,60.9z"/>
	<path id="XMLID_133_" d="M128.1,161.6c3.6,3.1,7.4,5.7,12.2,7.2C137.5,170.3,129.6,165.4,128.1,161.6z"/>
	<path id="XMLID_132_" d="M123.2,107.6c2.6-2.6,12.2,0.4,13.7,3.7c-0.8-0.3-1.3-0.5-1.8-0.7c-2.2-0.9-4.3-2-6.5-2.7
		c-1.3-0.4-2.8-0.2-4.1-0.3C124.1,107.6,123.7,107.6,123.2,107.6z"/>
	<path id="XMLID_131_" d="M132.5,205.1l5.9,11.4C135.6,214.7,131.7,207.3,132.5,205.1z"/>
	<path id="XMLID_130_" d="M196.5,104.1c0-2.1,0-4.2,0-6.3c0-1.2-0.3-2.3-1.4-3.1c-0.9-0.7-1.5-1.7-2.3-2.6l0.3-0.3l4.7,4
		c-0.1,0.4-0.3,0.9-0.2,1.3C197.9,99.6,197.5,101.9,196.5,104.1z"/>
	<path id="XMLID_129_" d="M190.8,84.7c0.9,1,1.7,2.1,2.6,3s2,1.9,3,2.8h-1l2.7,3.2c-1.8-0.4-3-1.5-3.9-3c-0.6-1-1.3-1.8-1.9-2.8
		c-0.6-0.9-1.2-1.9-1.9-2.9L190.8,84.7z"/>
	<path id="XMLID_128_" d="M184.9,35.8c-1.2-5.3-4.3-7.5-9.5-6.4c0.9-1.5,2.9-1.8,5-1C183.7,29.7,185.6,32.6,184.9,35.8z"/>
	<path id="XMLID_127_" d="M153.6,144.9c0.4-0.3,0.8-0.8,1.2-1c1.1-0.5,2.3-0.9,3.5-1.3c1.9-0.6,2.9-1.7,3.1-3.7
		c0.1-0.5,0.2-1.1,0.4-1.9c1.1,2.4,0,5.3-2.5,6.3c0,0-0.1,0-0.1,0.1c-1.6,0.6-3.1,1.2-4.7,1.7c-0.2,0-0.5,0-0.7,0L153.6,144.9z"/>
	<path id="XMLID_126_" d="M102.3,134.6c1.1,1.2,1.1,1.6,0.4,4.8c1.4,0.5,1.3,2.8-0.4,5c0.1-1.3,0.3-2.6,0.4-3.9l-0.2-0.1l-1.1,2.2
		l-0.4-0.1C101.4,139.9,101.8,137.3,102.3,134.6z"/>
	<path id="XMLID_125_" d="M132.5,212c2.1,3.3,4.3,6.6,6.4,9.9C136.7,221.2,132,214,132.5,212z"/>
	<path id="XMLID_124_" d="M160.3,103.7l-1.3-0.2c0-3.3,3.9-6.9,7-6.4C160.6,100.9,161.9,100.1,160.3,103.7z"/>
	<path id="XMLID_123_" d="M159.9,111.4c2.2-2.9,8.9-4.5,12.2-3C167.8,108.4,163.8,109.6,159.9,111.4z"/>
	<path id="XMLID_122_" d="M116.3,149.3c-2.5,2.7-1.6,5.9-1.8,8.8c-1.7-1.6-1.9-5.1-0.5-7.5C114.4,149.9,114.7,149,116.3,149.3z"/>
	<path id="XMLID_121_" d="M193.5,80.3c-2.8-1.2-6.3-6.8-5.6-8.9L193.5,80.3z"/>
	<path id="XMLID_120_" d="M165.4,25.6c3.1-0.5,5.7,0.4,7.9,2.4c1.3,1.2,1.3,3.1,0.1,4.6c-0.1-0.5-0.1-1-0.1-1.5
		c0.1-1.5-0.5-2.6-1.8-3.2c-1.6-0.7-3.3-1.2-4.9-1.8L165.4,25.6z"/>
	<path id="XMLID_119_" d="M180.1,156.3c0.1-0.7,0.2-1.3,0.3-1.9c0.3-1.9,0.1-3.8-0.8-5.5c-0.1-0.2,0.1-0.6,0.1-1
		c0.3,0.1,0.8,0.1,1,0.2C182.6,149.9,182.3,154.5,180.1,156.3z"/>
	<path id="XMLID_118_" d="M202.8,91.3c-1.9,0.1-4.7-1.9-5.6-4c-0.2-0.4-0.3-0.8-0.4-1.3c0-0.4,0.1-0.7,0.2-1.1
		c0.3,0.2,0.7,0.4,0.9,0.7c1,1.4,2,2.8,3,4.2C201.5,90.3,202.2,90.7,202.8,91.3z"/>
	<path id="XMLID_117_" d="M106.9,168.4c-2.3-0.8-2.5-2.9-2.7-4.8c-0.1-0.8,0.1-1.7,0.3-2.6c0.1-0.3,0.4-0.5,0.7-0.8
		c0.2,0.3,0.4,0.6,0.6,0.9c0.1,0.2,0,0.6,0,0.8c0,1.5,0,3,0.2,4.4C106,167.1,106.5,167.7,106.9,168.4z"/>
	<path id="XMLID_116_" d="M116,162.4v5.5l1.2-0.4l-0.2,4.3c-1-0.5-0.9-1.5-1.1-2.3c-0.1-0.6-0.2-1.2-0.4-1.7
		C114.4,166.2,114.5,163.8,116,162.4z"/>
	<path id="XMLID_115_" d="M199.8,59.8c1.8-3,2.1-6,2.1-9.2C203.9,52.4,202.6,58.6,199.8,59.8z"/>
	<path id="XMLID_114_" d="M181.2,160.1c0.4-1,0.8-1.9,1.1-2.9c0.3-1.2,0.6-2.4,0.9-3.5c0.1-0.3,0.3-0.6,0.4-0.9
		c0.2,0.3,0.7,0.6,0.7,0.8c-0.1,1.1-0.1,2.3-0.5,3.3c-0.5,1.2-1.4,2.3-2.1,3.5L181.2,160.1z"/>
	<path id="XMLID_113_" d="M113.6,173.3c0,2.7-0.5,5.4,1.1,7.7c-1.3,0-2.1-1-2.4-3C111.9,175.5,112.4,173.7,113.6,173.3z"/>
	<path id="XMLID_112_" d="M100.2,53.6c-3.5,0.7-6.3,2.1-8.7,4.9C92.2,55.2,97.3,52.3,100.2,53.6z"/>
	<path id="XMLID_111_" d="M131.3,195.8c-0.2-1.4-0.3-2.7-0.5-4c-0.3-1.3-0.7-2.5-1.1-4C132.4,189.5,133.2,194.2,131.3,195.8z"/>
	<path id="XMLID_110_" d="M98.7,94.4l5.7-9.3C105,86.6,102.2,91.4,98.7,94.4z"/>
	<path id="XMLID_109_" d="M133.9,219.6l5.2,7.1C137,226.5,133.2,221.4,133.9,219.6z"/>
	<path id="XMLID_108_" d="M152.8,28.6c-0.9-0.9-0.6-2-0.2-3c0.9-2.5,2.3-4.5,5.3-5.1c-1.3,1.2-2.7,2.2-3.5,3.5S153.4,27,152.8,28.6z
		"/>
	<path id="XMLID_107_" d="M97.8,100.5l5.5-9C103.7,93.3,100.4,98.5,97.8,100.5z"/>
	<path id="XMLID_106_" d="M204.7,89.7c1.9,0.1,3.6,5.1,2.8,8.1L204.7,89.7z"/>
	<path id="XMLID_105_" d="M200.8,149c-0.6,1.2-1.1,2.2-2.3,2.3c-1,0.1-2-0.4-2.4-1.4c-0.5-1-0.8-2.1,0-3.4c0.2,0.3,0.3,0.7,0.5,1
		C197.3,150.5,198,150.7,200.8,149z"/>
	<path id="XMLID_104_" d="M150.7,239l7.3,1.3C156.3,242,152.3,241.5,150.7,239z"/>
	<path id="XMLID_103_" d="M187.9,76.9l5.3,6.4C190.5,82.8,186.9,78.3,187.9,76.9z"/>
	<path id="XMLID_102_" d="M93.3,94.3c1.1,2.1-0.6,5.7-2.9,7.3C91.4,99.2,92.3,96.9,93.3,94.3z"/>
	<path id="XMLID_101_" d="M180.5,55.9c1.1,2.9-0.6,7.8-3,8.1c0.7-1.4,1.4-2.5,1.9-3.8C179.9,58.9,180.1,57.4,180.5,55.9z"/>
	<path id="XMLID_100_" d="M98.4,84.5c0.9-1.2,1.8-2.4,2.6-3.6c0.5-0.8,1-1.6,1.6-2.3c0.2-0.2,0.5-0.3,0.7-0.5
		c0.1,0.3,0.3,0.7,0.2,0.9c-0.8,1.3-1.6,2.6-2.6,3.8c-0.6,0.8-1.5,1.3-2.2,2L98.4,84.5z"/>
	<path id="XMLID_99_" d="M197,128.5c1.7,1.7,1.7,6.4,0,8.3V128.5z"/>
	<path id="XMLID_98_" d="M199.2,100.9c0.7,3.1-1.1,5.6-1.9,8.4l-0.4-0.1c0.6-2.8,1.1-5.6,1.7-8.4L199.2,100.9z"/>
	<path id="XMLID_97_" d="M137,192l3.9,5.2c-1,0.2-2.2-0.4-3.1-1.7C137,194.5,136.3,193.4,137,192z"/>
	<path id="XMLID_96_" d="M179.8,104.6c0.8-1.2,2-0.6,2.9-0.6c1.9,0.2,2.9,1,3.3,2.4L179.8,104.6z"/>
	<path id="XMLID_95_" d="M188.4,156.3c-0.7,2.4-1.3,4.8-2,7.4c-0.6-2.3-0.3-4.8,0.9-6.9c0.2-0.4,0.7-0.6,1-0.8L188.4,156.3z"/>
	<path id="XMLID_94_" d="M207.8,90.8c-1.1-2.2-2.2-4.5-3.4-6.7C206.1,84.2,208.1,87.9,207.8,90.8z"/>
	<path id="XMLID_93_" d="M156.6,112.8c-0.2-2,2.2-4.4,4.8-5L156.6,112.8z"/>
	<path id="XMLID_92_" d="M103.4,160.5c0.1-2.3,0.2-4.7,0.3-7C105.4,154.4,105,158.2,103.4,160.5z"/>
	<path id="XMLID_91_" d="M174.2,186.3c1.4,0.8,2.8,1.2,4.4,0.3c-0.4,1.5-1.8,2.2-3,1.9C174.3,188.1,173.9,187.5,174.2,186.3z"/>
	<path id="XMLID_90_" d="M94.5,142.6c-1.8-1.6-1.8-5.6,0-6.3V142.6z"/>
	<path id="XMLID_89_" d="M197.8,113.1l2-6.4C201.1,108,200.4,110.4,197.8,113.1z"/>
	<path id="XMLID_88_" d="M158.3,136c-2.5-0.2-3.8-2.1-3.3-4.4c0.1-0.2,0.3-0.4,0.5-0.6c0.1,0.2,0.4,0.3,0.4,0.5
		C156.7,134.3,156.7,134.3,158.3,136z"/>
	<path id="XMLID_87_" d="M91.9,82.3c0.8,1.6-0.7,4.6-3,6C89.8,86.3,90.8,84.4,91.9,82.3z"/>
	<path id="XMLID_86_" d="M197.7,119.9c-0.7-2-0.1-3.8,0.8-5.6c0.1-0.2,0.5-0.3,0.7-0.5c0,0.2,0.2,0.5,0.1,0.7
		C198.9,116.4,198.3,118.1,197.7,119.9z"/>
	<path id="XMLID_85_" d="M194.6,135.9c1.5,1.3,1.5,4.5,0,6.5V135.9z"/>
	<path id="XMLID_84_" d="M130.7,123.6l5.7-4.1C136.6,121.2,133.8,123.2,130.7,123.6z"/>
	<path id="XMLID_83_" d="M107.7,110c0.7-1.4,3.2-2.5,4.2-2.1c0.2,0.1,0.5,0.3,0.6,0.5s-0.3,0.5-0.5,0.6
		C110.6,109.4,109.3,109.7,107.7,110z"/>
	<path id="XMLID_82_" d="M184.5,103.2l-6.2,0.7c1.1-1.5,4.3-1.9,6.2-1.1C184.5,102.9,184.5,103.1,184.5,103.2z"/>
	<path id="XMLID_81_" d="M133.9,137.2c0.1,1.9,0.2,3.6,0.3,5.3c-0.8-0.2-1.2-0.8-1.4-1.8C132.5,139,132.9,137.8,133.9,137.2z"/>
	<path id="XMLID_80_" d="M108.9,163c-1.4-1.9-1.4-5.3,0-6.1V163z"/>
	<path id="XMLID_79_" d="M160,194.2l-0.4-1.3c-2.5-0.2-3.4-1-2.9-2.6l2.6,2.4l0.3-0.3v-1.6C160.8,191.5,160.9,192.4,160,194.2z"/>
	<path id="XMLID_78_" d="M106,146.6c0.3,1.7,0.6,3.3,0.9,5.1c-1.4-0.7-1.8-2-1.9-3.3C104.9,147.7,104.9,146.9,106,146.6z"/>
	<path id="XMLID_77_" d="M126.7,150.2c-0.3-1.6,0.7-3.7,2-4.2c0.2-0.1,0.5,0,0.8,0.1c-0.1,0.3,0,0.7-0.2,0.9
		C128.5,148,127.6,149.1,126.7,150.2z"/>
	<path id="XMLID_76_" d="M110.7,170.3c1.8,0.7,1.8,3.4,0,5.1C110.7,173.7,110.7,172,110.7,170.3z"/>
	<path id="XMLID_75_" d="M111.9,91.7c1-1.3,2.1-2.6,3.1-3.9c0.1-0.1,0.4-0.1,0.6-0.1c0,0.3,0.1,0.7,0,0.9c-1,1.2-2.2,2.4-3.2,3.6
		L111.9,91.7z"/>
	<path id="XMLID_74_" d="M130.1,181.4c-0.6-1.2-1.1-2.3-1.6-3.4c-0.1-0.2-0.1-0.7,0-0.7c0.3-0.2,0.6-0.2,0.9-0.1
		c1,0.4,1.2,1.4,1.2,2.3C130.6,180.1,130.3,180.8,130.1,181.4z"/>
	<path id="XMLID_73_" d="M183.9,171.9c-1.3,0.1-2.5,0.3-3.8,0.4c-0.3,0-0.6-0.2-0.8-0.3c0.1-0.2,0.2-0.6,0.4-0.7
		C180.7,170.5,183,170.8,183.9,171.9z"/>
	<path id="XMLID_72_" d="M162.2,149.5c-1.8-0.4-3.1-1.6-3.2-2.9c0-0.3,0-0.5,0.2-0.7c0.1-0.1,0.6,0,0.7,0.2
		C160.6,147.1,161.3,148.2,162.2,149.5z"/>
	<path id="XMLID_71_" d="M168,159.3c-0.8,2-2.2,3.3-4,4.3C164.8,161.8,166.2,160.3,168,159.3z"/>
	<path id="XMLID_70_" d="M119.3,156.9c-0.8-1.4-0.7-3.2,0.3-3.9c0.3-0.2,0.7-0.1,1.1-0.2c0,0.3,0,0.6-0.1,0.9
		C120.2,154.7,119.8,155.7,119.3,156.9z"/>
	<path id="XMLID_69_" d="M108.8,171.5c-0.3-2.1-0.6-4-1-6C109.5,166.8,109.9,169.4,108.8,171.5z"/>
	<path id="XMLID_68_" d="M200.9,83l-3.5-4C199.1,78.5,200.5,80.1,200.9,83z"/>
	<path id="XMLID_67_" d="M160.6,188.1c-0.5-1.5-1-2.6-1.4-3.8c-0.1-0.2,0.1-0.6,0.2-0.6c0.3,0,0.5,0,0.7,0.2
		C161.1,184.7,161.4,186.5,160.6,188.1z"/>
	<path id="XMLID_66_" d="M168.1,189.2c0.2,0.5,0.6,1,0.7,1.5c0.2,1.4-0.4,2.4-1.6,3c0.2-1.5,0.3-3,0.5-4.4L168.1,189.2z"/>
	<path id="XMLID_65_" d="M146,114.1c0.4,1.7,0.8,3.3,1.2,5.2C145.6,118.1,144.8,115.4,146,114.1z"/>
	<path id="XMLID_64_" d="M149.3,177.6c-1.1,0.2-1.9,0.5-2.6,0.4c-0.5-0.1-1.1-0.6-1.5-1.1c-0.2-0.2,0-0.7,0-1.1
		c0.3,0.2,0.6,0.3,0.9,0.5C147.1,176.6,148,177,149.3,177.6z"/>
	<path id="XMLID_63_" d="M136.4,135.7l2.6-4.3C139.6,133.9,138.5,135.6,136.4,135.7z"/>
	<path id="XMLID_62_" d="M133.6,192.5c0.2,0.8,0.4,1.5,0.6,2.2c0.3,0.6,0.6,1.3,0.9,1.9c-0.5,0.4-1.1,0.2-1.7-0.5
		C132.8,195.2,132.8,193.4,133.6,192.5z"/>
	<path id="XMLID_61_" d="M89,92.4l2.6-5.2C92.3,88.6,91.1,91.1,89,92.4z"/>
	<path id="XMLID_60_" d="M145.6,198.5c-0.7,0.4-2.7-0.8-2.7-2.4c0-0.2,0.1-0.5,0.2-0.5c0.2,0,0.6,0.1,0.7,0.2
		C144.4,196.8,145,197.7,145.6,198.5z"/>
	<path id="XMLID_59_" d="M151.1,188.4c-1.3,0.5-3-0.6-2.9-2.1c0-0.3,0.3-0.5,0.5-0.8c0.3,0.2,0.6,0.4,0.8,0.6
		C150,186.8,150.5,187.6,151.1,188.4z"/>
	<path id="XMLID_58_" d="M171.9,173.4c-0.8-1.2-1.6-2.4-2.5-3.6c1.2-0.3,1.7,0.4,2.3,1C172.3,171.5,172.5,172.4,171.9,173.4z"/>
	<path id="XMLID_57_" d="M151.7,174.3l-3.2-2.5c0.4-0.2,0.8-0.5,1.2-0.5C150.9,171.4,151.8,172.7,151.7,174.3z"/>
	<path id="XMLID_56_" d="M122.5,173.8c0.3,0.3,0.8,0.6,0.9,1c0.4,1.3,0.9,2.6-0.1,3.9c-0.4-1.6-0.8-3.1-1.2-4.5L122.5,173.8z"/>
	<path id="XMLID_55_" d="M91.6,92.3c-0.1,2-1.2,3.5-2.4,4.9C89.2,95.7,90.6,92.6,91.6,92.3z"/>
	<path id="XMLID_54_" d="M171.9,181.7l3.7,2.4c-1.2,0.5-2.3,0.2-3.2-0.7c-0.4-0.4-0.6-1-1-1.5L171.9,181.7z"/>
	<path id="XMLID_53_" d="M188.6,165.8c-1.1-1.3-0.9-2.7-0.6-4.1c0.1-0.2,0.4-0.4,0.6-0.6c0.1,0.3,0.4,0.5,0.4,0.8
		C188.9,163.1,188.7,164.4,188.6,165.8z"/>
	<path id="XMLID_52_" d="M159.2,174.9c-0.6-1.5-1.2-3-1.8-4.6c1.1,0,1.5,0.9,1.9,1.6C159.9,173,159.9,174.1,159.2,174.9z"/>
	<path id="XMLID_51_" d="M127.9,193.6c-0.2-1.5-0.3-2.9-0.5-4.5C129.2,190.1,129.3,192.7,127.9,193.6z"/>
	<path id="XMLID_50_" d="M188.1,115.2c-1.7,0.9-4.5,0.2-5.9-1.5L188.1,115.2z"/>
	<path id="XMLID_49_" d="M135.4,145.4c0.7,1.4-0.4,3-2.7,4L135.4,145.4z"/>
	<path id="XMLID_48_" d="M138.7,150.8l2.2-3.7h0.4c0.1,0.4,0.2,0.8,0.1,1.2C141.2,149.5,140.2,150.4,138.7,150.8z"/>
	<path id="XMLID_47_" d="M194.9,156.2c0.5,1.2,0,3.1-1,3.7c-0.2,0.1-0.6,0.1-0.9,0.1c0-0.3-0.1-0.6,0-0.8
		C193.6,158.2,194.3,157.2,194.9,156.2z"/>
	<path id="XMLID_46_" d="M178.2,178.2c-1.1,1-2.4,1-3.4,0.2c-0.2-0.2-0.3-0.6-0.4-0.9c0.3-0.1,0.7-0.2,1-0.2
		c0.5,0.1,0.9,0.4,1.4,0.5C177.2,178,177.6,178.1,178.2,178.2z"/>
	<path id="XMLID_45_" d="M202.7,82.4l-2.9-4C201.2,78,202.5,79.7,202.7,82.4z"/>
	<path id="XMLID_44_" d="M138.7,175.3c-0.4-1.3-0.1-2.4,0.9-3.3c0.4-0.3,1-0.4,1.4-0.6l0.1,0.3L138.7,175.3z"/>
	<path id="XMLID_43_" d="M194.8,152.5c1.5,0.5,2,2.8,0.9,4.2C195.4,155.3,195.1,154,194.8,152.5z"/>
	<path id="XMLID_42_" d="M163.5,196.7c-1.3,0-2.5-1.2-2.3-2.5c0.1-0.3,0.2-0.5,0.4-0.7c0.2,0.2,0.6,0.3,0.7,0.5
		C162.7,194.9,163.1,195.8,163.5,196.7z"/>
	<path id="XMLID_41_" d="M115.4,92c-0.3,1.8-1.6,2.7-2.9,3.7l-0.3-0.2l2.7-3.9L115.4,92z"/>
	<path id="XMLID_40_" d="M123.7,173.3c-0.5-1.2-1-2.6-1.5-4c0.7-0.2,1.2,0.3,1.7,0.9C124.4,171.2,124.3,172.4,123.7,173.3z"/>
	<path id="XMLID_39_" d="M165.9,149.2c-0.8-0.9-1.5-1.8-2.3-2.8c-0.1-0.2-0.1-0.4,0-0.6c0.2-0.1,0.4-0.1,0.6,0
		c1,0.8,1.8,1.8,1.9,3.2L165.9,149.2z"/>
	<path id="XMLID_38_" d="M176.4,169.1c-0.7-0.6-1.5-1.2-2.2-1.9c-0.2-0.2-0.2-0.5-0.3-0.8c0.3,0,0.5-0.1,0.8-0.1
		C176.2,166.7,176.9,167.9,176.4,169.1z"/>
	<path id="XMLID_37_" d="M147.5,128.3c-1.6-0.9-2.4-2.9-1.6-4.4L147.5,128.3z"/>
	<path id="XMLID_36_" d="M108,149.4c1.5,1.2,1.4,3.2,0,4.3V149.4z"/>
	<path id="XMLID_35_" d="M156,198.1l3.8-2.4C158.9,198,157.7,198.8,156,198.1z"/>
	<path id="XMLID_34_" d="M129.8,147.1c0.8-0.7,1.7-1.4,2.5-2.1c0.2-0.1,0.4-0.1,0.6-0.1c0,0.3,0.2,0.5,0.1,0.8
		c-0.5,1.4-1.7,1.6-2.9,1.9L129.8,147.1z"/>
	<path id="XMLID_33_" d="M156.3,173.7l-2.4-2.5c0.8-0.7,1.5-0.2,2,0.3C156.6,172.1,156.6,172.9,156.3,173.7z"/>
	<path id="XMLID_32_" d="M150,153.8c-1.4,1.1-3.1,1.1-4.7,0H150z"/>
	<path id="XMLID_31_" d="M143.8,172l-1.8,3.5C141.1,173.9,142,172.1,143.8,172z"/>
	<path id="XMLID_30_" d="M155.4,150.3c-1.4-0.2-2.7-1.2-2.8-2.1c0-0.2,0.1-0.5,0.2-0.8c0.2,0.1,0.6,0.1,0.7,0.2
		C154.1,148.5,154.7,149.3,155.4,150.3z"/>
	<path id="XMLID_29_" d="M113.2,117.8c-1.6,1.4-3.5,1.8-5.5,1.1L113.2,117.8z"/>
	<path id="XMLID_28_" d="M146.8,175c-0.6-0.7-1.2-1.4-1.7-2.2c-0.1-0.2,0.1-0.6,0.2-0.9c0.3,0.1,0.6,0.2,0.8,0.4
		c0.5,0.7,0.8,1.5,1.2,2.3C147.1,174.7,146.9,174.9,146.8,175z"/>
	<path id="XMLID_27_" d="M127.7,181.1l1.6,3.5C128,184.6,127.1,183.1,127.7,181.1z"/>
	<path id="XMLID_26_" d="M186.4,174.4c0.5,1,1,1.9,1.6,3.1c-0.7-0.3-1.4-0.4-1.7-0.7C185.7,176.1,185.6,175.3,186.4,174.4z"/>
	<path id="XMLID_25_" d="M167.5,183.6c1.4,1.5,1.3,2.6,0,3.6V183.6z"/>
	<path id="XMLID_24_" d="M179.2,185.6c0.2-1.3,0.4-2.3,0.7-3.5C181.1,183.2,180.8,184.8,179.2,185.6z"/>
	<path id="XMLID_23_" d="M169.8,192l1.1-3.1l0.3-0.1c0.1,0.4,0.5,0.9,0.4,1.3c-0.3,0.8-0.9,1.5-1.3,2.2L169.8,192z"/>
	<path id="XMLID_22_" d="M156.5,195.9c-0.3,1.2-0.9,1.8-1.8,2c-0.2,0.1-0.6-0.2-0.9-0.3c0.1-0.3,0.2-0.7,0.4-0.8
		C155,196.4,155.7,196.1,156.5,195.9z"/>
	<path id="XMLID_21_" d="M192.2,147.2c0.1-1.2,0.1-2.5,0.2-3.9C193.6,144.4,193.5,145.8,192.2,147.2z"/>
	<path id="XMLID_20_" d="M134.7,186.3c-1.9-0.1-3-1.1-3-2.8L134.7,186.3z"/>
	<path id="XMLID_19_" d="M124.3,228.5c0.4,0.5,0.8,1.1,1.1,1.6c0,0.1-0.3,0.4-0.5,0.6c-0.5-0.4-0.9-0.8-1.3-1.2
		c-0.1-0.2,0.1-0.6,0.2-0.9L124.3,228.5z"/>
	<path id="XMLID_18_" d="M159.7,135c-1.7,0.1-2.6-0.9-2.1-2.6L159.7,135z"/>
	<path id="XMLID_17_" d="M163.8,192.5c1.5,0.6,1.6,1.9,0.4,3.2C164,194.5,163.9,193.5,163.8,192.5z"/>
	<path id="XMLID_16_" d="M174.2,169.8l-2.1-2.5C173.6,167,174.5,168.2,174.2,169.8z"/>
	<path id="XMLID_15_" d="M148.3,143.3c-0.8,0.1-1.6,0.3-2.3,0.4c-0.2,0-0.4-0.3-0.5-0.5c0.2-0.2,0.4-0.4,0.6-0.4
		c0.7-0.1,1.4,0,2.2,0C148.2,142.9,148.2,143.1,148.3,143.3z"/>
	<path id="XMLID_14_" d="M111.7,117.2h-3.8l0-0.5l3.8,0.2L111.7,117.2z"/>
	<path id="XMLID_13_" d="M190.8,119.1c-1-0.1-1.6-0.2-2.3-0.4c-0.2-0.1-0.3-0.3-0.3-0.6c0.1-0.2,0.3-0.4,0.5-0.4
		C189.5,117.7,190.2,117.8,190.8,119.1z"/>
	<path id="XMLID_12_" d="M144.9,191.5l2.1,2.2C145.7,194,144.7,193.1,144.9,191.5z"/>
	<path id="XMLID_11_" d="M150.5,191.2c1,1.3,0.8,2.3-0.5,3.1C150.2,193.3,150.4,192.4,150.5,191.2z"/>
	<path id="XMLID_10_" d="M149.1,152.1c-0.6-0.4-1-0.6-1.2-0.9c-0.2-0.4-0.2-0.9-0.2-1.3c0-0.1,0.5-0.3,0.5-0.3
		c0.2,0.3,0.4,0.7,0.6,1.1C149,151.2,149.1,151.7,149.1,152.1z"/>
	<path id="XMLID_9_" d="M187.9,120.5c1.6-0.8,2.4-0.5,3,0.9L187.9,120.5z"/>
	<path id="XMLID_8_" d="M146.5,123.2c-0.5-1.1-0.9-2.2-1.4-3.3l0.5-0.2c0.4,1.1,0.9,2.2,1.3,3.3L146.5,123.2z"/>
	<path id="XMLID_7_" d="M105.7,126.3c0-0.6,0-1.3,0-1.9c0-0.2,0.5-0.3,0.7-0.4c0.1,0.2,0.2,0.5,0.2,0.7c-0.1,0.5-0.4,1.1-0.5,1.6
		L105.7,126.3z"/>
	<path id="XMLID_6_" d="M146.1,151.7c0.1-0.4,0-0.8,0.2-1.2c0.1-0.3,0.5-0.5,0.7-0.7c0,0.4,0.2,0.8,0.1,1.1c-0.1,0.4-0.5,0.6-0.8,1
		L146.1,151.7z"/>
	<path id="XMLID_5_" d="M191.3,146.6l-0.2,2.7l-0.6,0l0.3-2.7L191.3,146.6z"/>
	<path id="XMLID_4_" d="M164.1,120.8l-2-1.4l0.4-0.5l1.9,1.5L164.1,120.8z"/>
	<path id="XMLID_3_" d="M160.1,117.8l1.5,2.1l-2-1.6L160.1,117.8z"/>
	<path id="XMLID_2_" d="M149,196.6l1.7,1.5l-0.2,0.4l-1.9-1.3L149,196.6z"/>
</g>
<g id="XMLID_199_">
</g>
</svg>
