<?xml version="1.0" encoding="utf-8"?>
<!-- Generator: Adobe Illustrator 19.0.0, SVG Export Plug-In . SVG Version: 6.00 Build 0)  -->
<svg version="1.1" id="Michelle_Traub" xmlns="http://www.w3.org/2000/svg" xmlns:xlink="http://www.w3.org/1999/xlink" x="0px"
	 y="0px" viewBox="0 0 300 250" style="enable-background:new 0 0 300 250;" xml:space="preserve">
<g id="XMLID_1_">
	<path id="XMLID_406_" d="M89.1,145l-2.9-5.5c-1.3,1.7-1.2,4.1,0.1,5.7c0.8,1,1.4,2.3,2.1,3.5c0.1,0.3,0.2,0.6,0.5,0.7
		c2.9,1.6,5.4,3.9,7.2,6.8c1-2.2,0-4.5-2.4-5.8c-1.7-0.9-2.8-2.1-2.7-4c0-1.1,0.3-2.1,0.9-3c1.1-1.6,2.4-3,3.7-4.4
		c0.3-0.3,0.8-0.3,1.2-0.5l0.2,0.4c-0.7,0.7-1.5,1.4-2.2,2.2c-2.2,2.3-1.9,5.4,0.6,7.3c0.1,0.1,0.3,0.2,0.4,0.3
		c3.1,2.2,3.5,4.1,1.7,7.6c-0.2,0.4-0.4,0.9-0.6,1.3l0.5,0.4l2.7-3.3l0.5,0.4c-0.7,0.9-1.3,1.8-2.1,2.6c-0.7,0.8-0.8,1.6-0.7,2.6
		c0.2,2.1,0.1,4.3,0.1,6.8c0.8,0.4,1.5,0.8,2.2,1.2c1.3,0.8,2.5,1.7,3.7,2.6c1.5,1.3,1.6,3,0.6,4.7c-0.7,1.2-1.6,2.3-2.4,3.5
		c-1.7,2.5-1.4,3.8,1.4,5.2c0.8,0.4,1.6,0.7,2.3,1.1c0.7,0.4,1.4,0.8,2.4,1.4c-0.8-2.5-3-3.4-4.6-4.9c3.1,0.2,5.9,3.4,5.9,6.7
		c0,3.5-2.9,6.7-6.6,7c-4,0.3-6.1-0.9-6.5-3.8c1,1.8,2.5,2.7,4.5,2.9c1.8,0.2,3.7-0.3,5.2-1.3c2.8-1.8,2.9-4.5,0.2-6.4
		c-0.5-0.4-1.1-0.7-1.7-0.9c-2.7-0.8-4.2-2.9-5.4-5.2c-1.1-2.2,0.7-5.5,3.3-6c-1.5,1.8-3.5,3.2-2.6,6c1.4-2.2,2.8-4.1,3.9-6.3
		c0.3-0.7-0.1-2.2-0.7-2.7c-1.8-1.5-3.8-2.8-5.8-4.2c-1.9,2.4-3.7,4.2-6.7,4.2c-0.1,1.5-1,2.8-0.2,4.4c0.3,0.6-0.2,1.7-0.7,2.3
		c-0.8,1.1-1.8,1.9-2.7,2.9c-0.4,0.4-0.8,0.8-1.1,1.2c-1.2,1.7-1,2.6,0.9,3.4c1,0.4,2.2,0.5,3.2,1c1,0.4,2,0.9,2.9,1.6
		c1.1,1,1.1,2.2-0.1,3.1c-1,0.7-2.2,1.2-3.4,1.8c-0.5,0.2-1,0.3-1.4,0.6s-0.5,0.8-0.8,1.2c0.4,0.2,0.8,0.3,1.2,0.4c1,0.1,2,0,3,0.1
		c1.8,0.3,2.9,1.5,2.7,3.1c-0.1,2.1-1.6,3.5-3.4,3.7c-1.5,0.1-3.1,0.2-4.4,0.8c-2.5,1.1-2.7,4-0.5,5.7c1.1,0.8,2.4,1.3,3.5,1.8
		c-1.7,0.3-4.2-0.8-5.2-2.5c-1-1.6-1-3.4,0.3-4.8c1.4-1.6,3.2-2.2,5.3-2.1c0.7,0,1.8,0.6,2-0.8c0.2-1.3-0.3-2.2-1.5-2.7
		c-0.9-0.3-1.8-0.4-2.6-0.8c-0.6-0.4-1.4-1.2-1.4-1.9s0.7-1.5,1.3-1.9c0.6-0.5,1.6-0.6,2.4-1c0.4-0.2,1-0.6,1-0.8
		c-0.1-0.5-0.4-0.9-0.8-1.1c-0.7-0.4-1.6-0.7-2.4-1c-4.2-1.9-5.1-4-1.8-8.1c0.9-1.1,2-2,2.9-3.1c0.4-0.5,0.6-1.3,1-2.3l-3.8,2.9
		c-0.1-0.2-0.3-0.3-0.4-0.5c0.4-0.4,0.9-0.8,1.3-1.1c1.3-1,2.1-2.5,2.4-4.1c0.2-1.4,0.2-1.4-1.4-1.6c-0.3,0.9-0.5,1.9-0.9,2.8
		c-0.5,0.9-1.1,1.7-1.9,2.3c0.6-2.6,3.6-5.3-0.3-7.7l1.7,0.7l-1.3-3.2c1.5,0.6,1.9,1.7,2.2,2.8c0.3,0.9,0.7,1.5,1.7,1.1
		c0-2.5-2.3-3.5-3.6-5.3c1.9,0.1,3.4,1.9,5,5.7c2.6,0.1,4.1-1.5,5.6-3.4c-2.8-3-1.1-6,0.5-9.1l-6.3,3.1l-0.3-0.5
		c1.2-0.7,2.5-1.3,3.7-2.1c2.1-1.4,2.2-1.5,0.6-3.4s-3.4-3.4-5.2-5.1l-5.7,9.3l0.4,0.4l4.8-4.2c-0.7,3-4.7,6.2-7.6,6.8
		c-1.1,0.2-1.8-0.7-1.3-1.9c0.4-1.1,1-2.2,1.7-3.2c0.9-1.5,2-2.8,3-4.3c0.5-0.8,0.9-1.7,1.1-2.6c-3.5,3.7-7.5,6-12.5,5.7
		c-0.5,1.7-1,3.3-1.6,5.2c0.9,1.3,1.9,1.8,3.9,1.5c-1.4,1.3-2.2,1.2-5.1-1.2l-1.2,0.7c0.6,2.6,1.5,3.3,4.4,3.6
		c-2.3,1.2-3.3,0.7-5.2-2.9c-1.2,0-2.5-0.4-3.4,0.1c-1.1,0.5-2.1,1.6-2.7,2.7c-0.4,0.6,0.3,1.4,1.2,1.1c1-0.3,2-0.7,3-1.2
		c-0.5,1.5-1.8,2-3.3,2.1c-0.6,0-1.5-0.5-1.6-1c-0.2-0.8-0.2-1.6,0.1-2.4c0.4-0.8,1.3-1.4,2-2.2l-0.6-2l0.4-0.2l0.9,1.5
		c1.8-1.3,1.8-2,0.3-3.1c-0.7-0.5-1.5-0.8-2.3-1.1c-3.2-0.8-4.1-2.5-2.6-5.5c0.2-0.3,0.3-0.6,0.5-1c1.5-2.5,1.8-5,0-7.5
		c-1-1.4-0.9-2.6-0.3-3.5c0.7,1.7,1.7,3.6,2.2,5.5c0.3,1.2,0,2.7-0.3,4c-0.2,1-0.9,1.9-1.3,2.9c-1.1,2.4-0.5,3.4,2,4.1
		c1.2,0.3,2.3,0.8,3.2,1.5c1.4,1,1.4,1.8,0.5,3.4c-0.1,0.2-0.2,0.4-0.3,0.7c1.9,0.2,2.2,0,2.3-1.6c0.1-2.3,0.9-4.2,3.5-5.2
		c-0.6-0.9-0.9-1.9-1.6-2.5c-2-2-2.5-4.3-1-6.7c0.9-1.5,2.1-2.8,3.9-3.5c0.5-0.2,1-0.9,1.2-1.4c0.5-1.3,0.9-2.6,1.7-3.8
		c-0.4,1.9-1,3.8-1.2,5.8c-0.2,2,1,3.9,2.9,4.6c-0.4-1.4-1.1-2.8-1.2-4.2c-0.3-2.7,0.8-4.9,2.7-6.8c0.4-0.4,0.6-1,0.7-1.7
		c-5,2.5-9.9,0.6-14.9,0l-0.3,0.4l2.3,3.3c0.5,0.7,1.2,1.4,1.5,2.2c0.2,0.5,0.3,1.5,0,1.8c-0.3,0.3-1.2,0.3-1.8,0.1
		c-0.6-0.2-1.1-0.7-1.5-1.2l2.5,0.7l0.3-0.3c-1.5-2.1-3-4.2-4.6-6.4c-1,0.4-1.3,1.4-1.1,2.4c0.2,1,0.5,2,0.9,2.9
		c0.4,0.9,0.9,1.8,1.5,2.8c-2.5-1.2-4.3-5.2-3.1-7.3c1.1-1.9,2.7-3.6,4.4-5.2c0.7-0.6,2-0.7,3-0.8c0.9-0.1,1.7-0.1,2.6,0
		c2.1,0.1,4.1,0,5.6-2c-0.2,1.4-0.6,2.1-1.8,2.4c-1.2,0.3-2.5,0.4-3.7,0.5c-1.4,0.1-2.8,0-4.2,0.1c4.5,1.3,8.7,1.2,12.4-2l0.2,0.3
		c-0.4,0.4-0.8,1-1.3,1.3c-2.7,1.9-5.7,2.6-9,1.9c-2.2-0.5-3.4-0.2-4.7,1.2c4.6,0.8,9.1,2.3,13.6,0.2c0.7-0.3,1.2-1.1,1.6-1.8
		c0.6-1.1,1-2.3,1.5-3.5l0.6,0.2c-0.3,0.6-0.5,1.3-0.7,1.9c-0.6,2.5-1.3,5-1.7,7.5c-0.4,2.7,0.9,4.9,3,6.6c4.2,3.5,4.3,5,1.2,9.4
		c-1.2,1.6-2.2,3.3-3.3,5c-0.3,0.5-0.4,1.2-0.7,1.8c1.7,0.3,2.1-0.2,2.4-1.6c0.3-1.2,0.9-2.3,1.4-3.3c0.9-1.6,1.9-3.2,2.9-4.8
		s0.7-3.2-0.4-4.7c-0.9-1.2-1.9-2.4-2.9-3.5c-2.5-2.7-3.2-5.8-1.9-9.3c1.2-3.4,3.3-6.3,5.5-9c0.2-0.3,0.6-0.7,0.5-1
		c-0.8-2.5-1.3-5.2-2.8-7.1c-1.4,0.7-2.5,1.4-3.8,1.7c-0.8,0.2-1.8-0.2-2.7-0.3l0.1-0.4c0.8,0,1.6,0.1,2.4,0.1c1.1,0,2-0.4,2.4-1.5
		c0.1-0.3,0.1-1-0.2-1.2c-1.4-1.1-1.4-2.6-1.4-4.2c0-0.6,0-1.4-0.3-1.9c-2.1-3.3-1.4-6.5,0-9.8c0.1-0.3,0.3-0.6,0.4-1
		c0,0,0-0.1-0.1-0.2l-7.4-0.5c0.9,1,1.6,1.9,2.3,2.8c2.9,3.5,2.9,9.1-0.2,12c-2,1.9-4.6,1.7-7.1,1.7c-1.5,0-3-0.3-4.2-1.4
		c2,0.1,4,0.4,6,0.4c2.5,0,5-0.5,6-3.2c1.2-2.9,1-5.7-0.8-8.3c-0.9-1.2-1.9-2.4-2.8-3.6c-0.6-0.8-0.9-1.8-1.5-3l-3.8,1.2
		c0.5-0.5,0.7-0.9,1-1c1.5-0.8,3.8-0.4,4.1-3.1l0.4,0.4l-0.4,2h6.8l-0.9-1.3c3.8,1.8,7,4.1,8.4,8.3l0.5-0.2
		c-0.3-0.8-0.3-1.8-0.8-2.5c-1.3-1.6-2.8-3.1-4.2-4.6c-0.8-0.8-1.6-1.5-2.7-2.5c0.6,0.1,0.9,0,1,0.1c2.6,1.9,5.1,3.8,6.8,6.6
		c0.7,1.1,0.9,2.2,0.3,3.5c-0.9,2-2.4,2.3-4.2,0.6c0.5,0.1,0.9,0.1,1.2,0.2c0.4,0,0.8,0,1.7,0c-0.4-1.2-0.5-2.5-1.2-3.3
		c-1.4-1.6-3.1-3-4.7-4.5c-0.2-0.2-0.4-0.3-0.6-0.3c-2.3,0.3-4.6,0.7-7.1,1.1c0,0.5,0.1,1.2,1.4,1.2c2.9,0.1,5.7,0.3,8.6,0.5
		c-2,3.3-3.6,6.8-1.6,10.9c1.4,0.1,2.7-0.4,3.7-1.5c1.6-1.7,3.7-2.7,5.8-3.7c0.1,0.1,0.1,0.2,0.2,0.4c-2.8,2-5.7,4-8.3,5.8
		c0.5,1.8,0.9,3.8,1.6,5.7c0.8,2.2,2.3,4.2,2.9,6.5c1.3,4.6,4,8.2,7.7,11.1c3.5,2.8,7.5,3.6,11.9,2.5c0.6-0.2,1.2-0.2,1.8-0.1
		c-2.8,1.6-5.9,1.7-8.9,0.9c-0.1,1.5-0.1,2.9-0.2,4.3c-0.2,2.6,0.7,3.4,3.5,3c-0.6-2-1.2-3.9-1.8-5.8l0.5-0.2c0.2,0.5,0.5,1,0.7,1.5
		c1.6,4,3.2,8,4.8,12c0.3,0.7,0.6,1.1,1.5,1.1c1.6,0,3,0.5,4,1.8l-4.3-0.8c2.8,5.5,6.1,10.2,11,13.6l-0.4,0.4l-2.2-1.3
		c-0.5,0.6-1,1.2-1.3,1.8c-0.7,1.4-0.3,2.2,1.2,2.9c1.1,0.5,2.3,1.1,3.2,1.9c2,1.8,1.8,4.2-0.6,5.7c-0.8,0.5-1.6,0.9-2.3,1.4
		c-0.7,0.5-1.3,1.1-1.8,1.8c-0.6,0.9-0.4,1.5,0.7,1.8c1.1,0.3,2.1,0.7,3.1,1.1c2.9,1.3,4,4.4,2.4,7.4c0-0.1-0.1-0.2-0.1-0.2
		c0.4-4.6-0.3-5.7-4.7-7.1c-1.1-0.3-2.9-0.5-2.7-1.9c0.1-1.2,1.1-2.5,2-3.6c0.6-0.7,1.6-1.2,2.5-1.7c2.2-1.3,2.4-3,0.4-4.5
		c-0.7-0.5-1.4-0.9-2.3-1.3c-2.9-1.2-3.3-3.9-0.9-5.9c0.1-0.1,0.3-0.2,0.6-0.5c-3.9-2.9-5.6-7.2-8.2-10.9c-0.3-0.4-0.9-0.6-1.4-0.7
		c-0.5-0.1-1,0.1-1.5,0.1c-1.9-0.1-2.7-1.2-2.1-3c0.3-0.9,0.9-1.7,1.2-2.6c0.2-0.5,0.3-1.1,0.1-1.5c-0.1-0.3-0.8-0.4-1.3-0.4
		c-1,0-2,0.1-3.1,0c-2.1-0.1-3.2-1.9-2.5-3.9c0.3-0.9,0.8-1.6,1.1-2.5c0.7-2.2,0-3.8-2-4.9c-3.4-2-6.2-4.8-8.2-8.2
		c-0.3-0.4-0.5-0.9-0.8-1.3c0,0-0.1,0-0.3-0.1c-2.7,3.1-5.2,6.3-6,10.5c-0.6,2.9,0.3,5.4,2.4,7.1c0.5-1.6,1-3.2,1.5-4.8
		c0.1-0.4,0.1-0.9,0.1-1.3c0.1-2.1,0.3-4.2,0.5-6.4c0.1-0.5,0.5-1.1,0.9-1.5c-0.2,2.5-0.5,4.9-0.7,7.7l4.7-3.5
		c0.1,0.2,0.3,0.3,0.4,0.5c-0.7,0.5-1.4,1-2,1.6c-3.1,2.8-3.1,2.4-1.6,6.3c0.4,1.1,1,2.1,1.5,3.2L89.1,145z M82.7,146.2
		c-2.6-2.1-4.1-4.8-3.6-8.5c-2.3,2.1-2.9,5.9-1.5,8.2c0.6,1,1.4,1.7,2.6,1.3C81.1,147,81.9,146.5,82.7,146.2c-0.8,1.6-3.1,3-5,2.6
		c-3-0.6-3.7-3-4.2-5.8c-2.3,1.3-4.3,2.7-4.7,5.5c-0.2,1.3,0.2,2.5,1.5,3.2c0.5-2,0.7-4,2.9-4.7c-0.3,0.5-0.6,0.9-0.9,1.3
		c-1.9,2.7-1.2,4.6,1.9,5.3c0.2,0.1,0.3,0.1,0.5,0.2l0,0.2h-2.7l-0.2,0.4c0.4,0.3,0.8,0.7,1.3,0.7c3.8,0.3,6.9-1.1,9.7-3.5
		C85.6,149.2,85.6,148.5,82.7,146.2z M97.5,152.2c-0.3-1.5-1.8-2.2-2.8-3.3s-1.7-2.5-2.5-3.7c-0.6,1.7-0.2,2.9,1.2,4
		C94.7,150.2,96.1,151.2,97.5,152.2z M92.2,190.6c-0.1-0.3,0-0.9-0.2-1.2c-0.6-0.6-1.2-1-2-1.4c-1.6-0.6-3.3-1-5-1.5l-0.1,0.3
		L92.2,190.6z M96.8,160.4c-1.7,1.8-1.8,4.3,0,5.7V160.4z M71.7,156.7l-0.6-0.2c-1.5,0.6-1.8,1.9-0.5,3.9L71.7,156.7z M99.3,143.5
		c-0.2,1.7,2.1,2.6,4.2,1.6L99.3,143.5z M105.8,148.8c-1,1.8-0.4,3,1.6,3.4C106.9,151,106.3,150,105.8,148.8L105.8,148.8z
		 M83.4,114.7l0.7-0.3l-1.1-2.6l-0.7,0.3C82.8,112.9,83.1,113.8,83.4,114.7z M90.6,196.7l2,2.4C93,197.7,92.6,197.1,90.6,196.7
		L90.6,196.7z"/>
	<path id="XMLID_400_" d="M193.4,86.9l-2.8,5.8c-0.1-2.2,0.7-3.7,1.7-5.1c0.6-0.9,0.6-1.5,0-2.5c-0.8-1.3-1.1-2.9-1.6-4
		c-1.5-0.7-3.3-1.2-4.4-2.3c-1.5-1.4-1.6-3.6-1.3-5.8c0.1,0.3,0.3,0.5,0.4,0.8c0.4,1.3,0.7,2.6,1.3,3.9c0.6,1.5,1.9,2.2,3.6,1.9
		c0.4-0.1,0.8-0.6,1-1c0.7-1,1.3-2,1.9-3l0.5,0.3l-2,3.2c0.5,0.1,0.8,0.2,1.1,0.2c2,0.3,3,1.5,2.6,3.5c-0.1,0.7-0.4,1.4-0.6,2
		c-0.6,1.6-0.4,2.3,1.3,2.7c1.6,0.3,3.3,0.1,5,0.2c1.7,0.1,3.5-0.1,5.1,0.3c2.7,0.5,3.9,2.7,4.6,5.1c0.1,0.3,0.2,0.6,0.2,0.9
		c0,0,0.1,0.1,0.3,0.3c0.9-1,2-2,2.8-3.1c2.1-2.7,4.4-5.4,5.2-8.9c0.9-3.8-0.7-5.7-4.6-5.2c-1,0.1-2.1,0.3-3.2,0.1
		c-2.1-0.4-3.8-1.5-4-3.8c-0.2-2.5-0.3-5-0.2-7.5c0-0.7,0.5-1.5,0.8-2.3c0,3-0.2,5.9,0.1,8.8c0.3,3.1,2.6,4.4,5.7,3.9
		c0.4-0.1,0.8-0.2,1.2-0.2c4-0.5,6.2,1.8,5.3,5.7c-0.5,2.2-1.5,4.3-2.3,6.5c1,0.6,2.1,1.4,3.2,2.1c4,2.4,6,6,6.3,10.5
		c0.1,1.6,0.3,3.2,0.1,4.7c-0.4,2.9,0.7,5.1,2.7,7.1c0.3,0.3,0.6,0.6,0.9,0.9c-2.4-0.4-4.6-3.6-4.6-6.4c0-2,0-4,0-5.9
		c-0.2-5.1-3-8.6-7.3-11c-0.7-0.4-1.4-0.8-2.1-1.3c-1,0.6-0.8,1.1-0.1,1.8c2.9,3.1,5.8,6.4,6.2,10.9c0.2,2.1-0.1,4.2-0.2,6.3
		c-0.1,0.8-0.2,1.6-0.4,2.4c-0.5,3.1,0.7,5.3,3.3,6.9c1,0.6,1.9,1.2,2.7,1.9c2.1,1.6,3.6,3.5,3.2,6.5c-0.3,2.2,0.2,4.5,1.5,6.4
		c-2.4-1.4-2.7-3.9-2.4-6.2c0.3-2.7-0.9-4.3-3.1-6c-0.9,1.2-1.8,2.4-2.6,3.7c-0.2,0.3-0.1,0.8,0,1.1c0.4,1.6,0.8,3.1,1.4,4.6
		c0.3,0.7,0.7,1.3,1.2,1.9c0.7,0.9,1.7,1.6,2.3,2.6c0.9,1.6,0.4,3-1,4.1c-0.5,0.4-0.9,0.8-1.5,1.1c-2.4,1.5-3,3.7-2.1,6.4
		c-1.6-1.5-1.7-4.1-0.2-5.7c0,0,0.1-0.1,0.1-0.1c0.8-0.7,1.6-1.4,2.5-2c2.2-1.6,2.3-3.4,0.1-5.1c-0.3-0.3-0.7-0.5-1.2-0.8
		c-1,3.7-2.3,6.9-5.8,8.7c3.6-3.6,5.5-7.7,4.4-12.8c-0.6-3.1-2.7-5-5.2-6.6c-0.8,1.1-0.8,1.9,0.1,2.9c2.8,3.5,3.1,7.8,0.8,10.8
		c-1.1,1.5-2.6,2.6-4.5,2.8c0.9-0.7,1.7-1.4,2.6-2.1c1.5-1.1,1.8-2.5,1.4-4.2c-0.4-1.9-1.5-3.5-2.8-5.1c-2.7,4.3-3.4,8.8-2.2,13.4
		c0.5,1.9,2.2,3,3.8,4c2.1,1.3,3.9,2.8,4.5,5.3c0.7,2.9-0.9,5.8-3.3,6.1c-0.4,0-0.8,0-1.3-0.1c0.9-0.5,1.8-0.8,2.4-1.4
		c1.8-1.8,1.5-4.3-0.7-5.9c-1.2-0.9-2.7-1.5-4-2.2c-2.3-1.3-3.6-3-3.5-5c1.4,3.3,4.2,4.6,7.4,5.5c-0.8-0.6-1.6-1.2-2.4-1.7
		c-2.8-1.7-4.2-4.1-4.4-7.4c-0.2-3.6,0.6-7.2,2.3-10.4c0.5-1,0.4-1.6-0.4-2.2c-0.7-0.6-1.2-1.2-1.9-1.8c-2.9-2.5-3.1-4.1-1.9-8
		c0.3-1,0.7-1.9,1.4-2.7c2.6-3.5,0.9-9.9-3-12.7c-0.1,0-0.2,0-0.3,0l0.5,0.5l-3.7,3.5c0.7,0.6,1.8,1.6,2.8,2.7
		c1.9,2.1,2.4,4.5,1.3,7.2c-1.5,3.5-3,7-4.3,10.5c-0.7,1.9-0.6,4,0.2,5.8c0.8,1.9,2.5,2.4,4.2,1.4c1.4-0.8,2.7-1.8,2.9-3.7
		c0.1-1.2-0.3-2.1-1.4-2.6c-1.1-0.5-2.2-0.2-2.8,0.8c-0.6,1-0.8,2.2-1.2,3.4c-0.1,0.4-0.1,0.9-0.1,1.3c-1.1-1.8-0.3-4.5,1.5-5.8
		c1.4-1,3.1-0.7,4.2,0.7c1,1.4,0.9,3.4-0.3,4.6c-0.9,0.9-1.9,1.7-3,2.3c-1.9,1-3.5,0.4-4.4-1.5c-1.2-2.1-1.3-4.7-0.5-6.9
		c1.2-3.2,2.4-6.5,3.9-9.6c1.7-3.7,0.6-6.5-2.1-9c-2.2-2-2.2-2.1-4.8-0.7c-1.1,0.6-2.3,1.1-3.3,1.9c-0.7,0.6-1.2,1.5-1.3,2.4
		c-0.3,2.4,2.9,6,5.4,5.9c0.7,0,1.8-0.6,2-1.2c0.3-0.9,0.2-1.9-0.2-2.8c-0.3-0.5-1.5-0.6-2.2-0.6c-0.6,0-1.3,0.5-2.3,0.9
		c0.7-1.6,1.9-1.9,3.1-2c1.4-0.1,2.4,0.6,2.8,1.9c0.5,1.4,0.3,2.8-0.8,4c-1.1,1.1-2.5,1.1-3.8,0.5c-2.7-1.1-4.2-3.3-4.9-6
		c-0.3-1.3,0.2-2.6,1.4-3.3c2-1.2,4.1-2.3,6.3-3.3c3.7-1.5,5.5-5.8,3.9-9.5c-0.3-0.7-0.7-1.3-1.1-1.9c-1.3-1.6-3.1-1.9-4.9-1.9
		c-1.4,0-2.8,0.2-4.3,0.3C196.2,88.8,196.2,88.8,193.4,86.9z M213.3,96.5c1.7,0.9,3.4,1.9,4.2,3.7c1.5,3.4,0.7,6.6-1.1,9.6
		c3.2,3.6,3.8,4.7,4.2,9c0.1,0.4,0.2,0.8,0.5,1c1.1,1.1,2.3,2.1,3.5,3.2l3-3.8c-0.9-0.6-1.7-1.1-2.6-1.7c-2.4-1.6-3.6-3.8-3.2-6.7
		c0.3-1.9,0.6-3.7,0.8-5.6c0.8-6.2-2.5-10.5-6.5-14.4c-1.6,1.4-3.1,2.7-4.5,4.1c-0.7,0.7-0.7,2.6-0.1,3.2c1.1,1.1,2.3,2.1,3.2,3.4
		c0.8,1.1,1.3,2.5,2.1,4C217.8,101.4,215.9,98.9,213.3,96.5L213.3,96.5z M216.3,110.6c-3.5,3.7-1.9,9.1,2.9,10.9
		C220.9,117.2,219,113.9,216.3,110.6L216.3,110.6z M213.4,117.4c-0.3,1.2,0.1,2.1,1.3,3.4c1.6,1.7,3.3,3.3,4.8,5.1
		c1,1.2,1.7,2.6,2.7,4.1c0.1-2.2-0.7-4.3-2.2-5.8C217.7,121.8,215.5,119.6,213.4,117.4z M191.9,79.7c-0.3,2.6,0.3,4.2,1.7,5.7
		c0.8-1.5,1.6-2.8,0.8-4.3C194.1,80.5,193,80.3,191.9,79.7z"/>
	<path id="XMLID_391_" d="M118.7,58.1c2.2-0.8,2.7-0.6,8.7,2.2l0.2-0.3c-1.2-0.7-2.3-1.6-3.5-2.1c-1.3-0.6-2.7-0.9-4.1-1.4l0.1-0.4
		c1.2,0.3,2.4,0.5,3.6,0.7c0.5,0.1,0.9,0,1.3-0.3c1.5-1.4,3.4-2.1,5.4-2.2c1.3-0.1,2.8,0.3,3.4-1.8l0.2,0.5
		c-0.3,0.8-0.6,1.6-0.8,2.4c-0.4,2.1,0.3,4,1.7,5.6c1.9,2.2,3.9,4.2,5.8,6.4c0.8,0.9,1.2,2,1.9,3l0.5-0.2c-0.4-1.1-0.6-2.3-1.2-3.2
		c-1.1-1.5-2.4-2.9-3.6-4.3c-1.4-1.7-2.7-3.5-2.8-6c0.9,1.8,1.4,4.1,4.3,3.3c-0.1-1.1-0.2-2.3-0.2-3.5c-0.1-3.3,1.9-5.4,4.6-6.8
		c1.3-0.8,3-0.6,4.1,0.5c1.4,1.3,1.9,3,1.2,4.7c-1,2.8-3,5.1-5.6,6.6c-0.3,0.2-0.6,0.3-0.9,0.5c1.9,1.2,2.2,1.2,7.8,0.1
		c-2.1,1.9-6.2,2.2-8.5,0.8c-0.7-0.4-1.7-0.4-2.6-0.6c-0.1,0.1-0.1,0.3-0.2,0.4l3.2,4c2.3-3.5,5.6-1.6,8.5-2.1
		c0,0.2,0.1,0.4,0.1,0.6l-6.3,0.2v0.6c2,0.2,4.1,0.5,6.1,0.4c2.9-0.1,4.1-1.7,4.3-4.5c0.1-1.4,0.6-2.7,1.2-4.1
		c-1.2,5.2-0.2,9.7,3,14l1.4-0.9c-0.9-1.4-1.7-2.7-2.5-4c-1.5-2.8-1.1-5.7-0.1-8.6c0.3-1,0.3-1.5-0.5-2.2
		c-3.6-3.3-4.5-11.3-2.2-16.1c0.1-0.1,0.3-0.2,0.6-0.5c-0.1,0.8-0.1,1.4-0.2,1.9l5.9,4.1c2.7-0.7,6-2,9.2,0.3
		c2.6,1.8,4.5,4.1,4.8,7.5c-1.9-3.2-3.9-6.2-8.2-6.3c-4-0.1-6.8,1.9-9.1,5c0.6-2.3,2-4,4.2-4.8c2-0.7,4.2-0.9,6.6-1.4
		c-0.8-0.2-1.5-0.5-2.3-0.5c-4.7,0-8.2,2.2-10.7,6.2c-0.2,0.4-0.2,1,0,1.4c0.7,1.1,1.5,2.2,2.4,3.4l3.1-3.6l0.5,0.4
		c-0.4,0.5-0.8,1-1.2,1.6c-1.6,2-1.6,2,0.3,4l-2.2-0.7c-0.9,1-0.7,1.6,0.4,2.2c3,1.5,5.8,1.3,8.8-0.6c-0.2-0.1-0.3-0.3-0.5-0.4
		c-0.2-0.1-0.4-0.2-0.6-0.2l3.2-1.1l-0.1-0.4l-2,0.1l-0.1-0.3c0.5-0.3,1-0.5,1.5-0.7c0.8-0.2,1.9,0,1.6-1.4
		c-0.3-1.3-1.1-1.8-2.3-1.8c-1.5,0-2.9,0.8-3.8,2c-0.6,0.7-1.1,1.4-1.7,2.3c0.4-3,2.7-5.1,5.5-5.1c2,0,2.9,1.1,3.3,3.8
		c2.9,0.5,5.8,1.3,7.4,4c0.7,1.1,0.9,2.6,1,3.9c-0.8-3.5-3.7-4.4-6.5-5.1c-2-0.5-4.2-0.7-5.6,1.8c3.5,1.2,6,3.2,6.4,7
		c0.1,1.2-0.1,2.5-0.5,3.6c0.2-5.9-3.9-7.3-8.5-8.2c1.5-1.2,2.9-0.8,6.8,1.8c0-0.1,0.2-0.2,0.1-0.2c-1-2.2-4.7-3.8-7-3.2
		c-2.7,0.8-5.3,0.3-7.8-1.4c-0.9,3.9,0.2,7,2.8,9.7c0.3,0.3,1,0.3,1.5,0.3c1.3,0,2.6-0.2,3.9-0.2c0.6,0,1.1,0.4,1.6,0.9h-5.4
		c1.1,1.8,2.9,2.3,6.3,2.2c-0.6,0.2-1.1,0.5-1.7,0.6c-1.8,0.2-3.4-0.5-4.8-1.5c-1-0.7-1.7-0.7-2.6,0.3c1.9,2.6,4.7,3.3,7.7,3.3
		c2.5,0,3.8-2.1,2.6-4.3c-0.7-1.4-1.8-2.3-3.5-2.4c-0.8,0-1.7-0.1-2.9-0.2c3.2-1.4,5-0.5,7.7,3.6c-0.1-2.6-1.4-4.2-3.3-5.4
		c-2.1-1.4-4.1-0.1-6.4,0.2c4.2-3.2,7.8-1.4,9.7,2.3c0.9,1.7,1.3,3.6,0,5.3c-0.2,0.2-0.2,0.5-0.1,0.8c0.7,2.4,3.2,3.7,5.6,2.9
		c0.3-0.1,0.6-0.2,0.8-0.3c-0.4,1.4-1.4,2.3-2.8,2.4c-3.1,0.2-4.9-1.7-6.2-4.3c-3.6,0.1-7.1-0.3-9.5-3.4c-2.1,1.4-2.3,3.7-0.5,5.3
		c2.3,2.1,4.9,2.9,8,1.9c0.5-0.2,1.1-0.3,1.6-0.2c-0.6,0.4-1.3,0.8-2,1.2c-2.8,1.2-7.4-0.4-8.9-3c-1-1.7-0.9-3.3,0.2-4.8
		c0.3-0.4,0.6-0.8,0.8-1c-1.2-2.6-2.3-5-3.5-7.4c-2.1,2.5-5,2.3-8,1.8c-0.7-0.1-1.4-0.2-2.1-0.1c-1.7,0.1-2,0.6-1.8,2.2
		c0.1,1.1,0.6,2.5-0.7,3.2c-1.4,0.7-2.6,0-3.5-1c-0.6-0.7-1.1-1.6-1.5-2.5c1.3,1.2,2,2.9,4.5,3c-0.7-1.3-1.1-2.6-1.8-3.5
		c-1.5-1.9-3.2-3.5-4.7-5.3c-1.3-1.6-2.4-3.3-3.7-5l-2.2,2.9l3.7,6.6l-0.2,0.2c-1.2-1.6-2.4-3.1-3.9-5c-0.3,1-0.5,1.5-0.7,2
		c0.2-3.1-2.2-3.9-4.4-5c-0.7,1.9,1.1,2.9,1.3,4.6c-1.4-1.2-2.5-2.3-2.4-4.2c0-0.4-0.5-1.1-0.9-1.2C121.3,58.5,120,58.3,118.7,58.1z
		 M141.1,60.3c0.7-0.2,1.5-0.2,2.1-0.6c1.6-0.8,3.4-1.3,4.2-3.2c0.8-2.1,0-3.7-2-3.7C141.3,52.9,139.2,56.4,141.1,60.3L141.1,60.3z
		 M132.4,54.9c-2.6,0.3-5,0.7-7.1,2.4l4.1,3.1C130.1,58.4,132.7,57.6,132.4,54.9z M159.7,46.8l-4.4-2.1c0.1,2.4,0.2,4.3,0.3,6.2
		l0.4,0L159.7,46.8z M148.6,53.9c0.3-1.6-0.6-3-2-3.3c-1.7-0.4-4.1,1-4.6,2.7C146.2,51.6,146.6,51.6,148.6,53.9L148.6,53.9z
		 M161,46.4l0.1-0.6l-5-3c-0.2,0.2-0.4,0.5-0.5,0.7c0.9,1.6,3.2,1.5,4.3,2.9C160.1,46.5,160.6,46.4,161,46.4z M174.4,80.3
		c-1-1.2-1.9-2.4-2.9-3.6c-0.2-0.3-0.7-0.3-1.1-0.4C171.2,78.6,172.5,79.9,174.4,80.3L174.4,80.3z M171.8,58.3l5.8,1
		C175.5,57.6,172.7,57.1,171.8,58.3L171.8,58.3z"/>
	<path id="XMLID_388_" d="M201.3,175l-2.5,1.8c1.7,0.7,3.6,0.2,4.8-1c-1.6-2.3-3.1-4.8-5-6.9c-1.3-1.4-3.1-2.3-4.7-3.4
		c-1.6-1.1-3.2-2.2-4.7-3.3c-0.5-0.4-0.8-1.1-1-1.9c2.4,3,5.8,4.5,9.4,5.7c-0.7-0.8-1.4-1.5-2.2-2.2c-0.8-0.7-1.7-1.2-2.5-1.9
		c1.6,0.2,3.1,0.9,4.1,2.1c1.2,1.5,2.1,3.3,3.2,5l4,6.3c1.5-1.5,2-4,1.4-5.4c-0.1-0.3-0.6-0.5-0.9-0.6c-1.5-0.5-1.9-1.4-1-2.8
		c0.4-0.6,0.9-1.1,1.3-1.7c1.7-1.8,2.5-4.3,2.1-6.8c1,1.3,1.1,3.1,0.3,4.5c-0.8,1.4-1.9,2.6-2.8,4c-0.3,0.5-0.4,1.1-0.6,1.6
		c0.5,0.2,1,0.3,1.6,0.4c0.7,0.1,1.4,0,2.1,0.1c1.7,0.1,2.9,0.9,3.1,2.6c0.6,4.1,3,6.4,6.9,7.3c0.6,0.1,1.2,0.5,1.9,0.6
		c0.5,0,0.9,0,1.3-0.3c-3.3-2-7.2-3.2-8.3-7.5c1.8,3.2,4.9,4.7,8,6.2c0.5,0.3,0.9,0.7,1.1,1.3c0.1,0.3-0.6,0.8-1.1,1.1
		c-3.2,1.7-5.4,5.5-5,9.2c0.1,0.7,0.5,1.3,1.1,1.9c-0.5-2.1-0.1-4,1-5.8c1-1.7,2.2-3.2,4.3-3.9c-0.2,0.3-0.4,0.5-0.6,0.8
		c-1.2,1.6-2.5,3.1-3.4,4.8c-1.2,2.2,0.3,4.9,2.8,5.5c0.9,0.2,1.8,0.3,2.6,0.7c1.9,0.9,2.1,2.7,0.4,3.9c-1.1,0.8-2.6,1.2-3.9,1.7
		c-1,0.4-1.9,0.8-3.2,1.3c0.8,0.8,1.3,1.3,1.8,1.8c0.9,0.8,1.9,1.5,2.9,2.2c1.5,1.1,2.3,1.1,3.6,0l-2.9-3.1l0.3-0.4
		c1.2,0.8,2.4,1.5,3.5,2.4c0.8,0.6,0.5,1.4-0.2,1.9c-0.7,0.4-1.3,0.7-2,1c0.3,0.9,0.8,1.7,0.9,2.6c0.5,2.2-0.6,3.7-2.9,4
		c-1.8,0.2-3.4-0.2-4.7-1.4c-0.7-0.7-1.6-1.8-1.5-2.6c0.1-0.8,1.2-1.6,2.1-2.1c0.9-0.5,2.1-0.7,3.5-1.2c-1.2-0.9-2.2-1.6-3.2-2.3
		c-0.6-0.4-1.2-0.8-1.6-1.4c-0.9-1.2-0.6-2.1,0.7-2.8c0.7-0.3,1.5-0.6,2.3-0.9c1-0.3,2-0.6,2.8-1.1c0.7-0.4,1.2-1.2,1.7-1.7
		c-0.7-0.5-1.3-1.2-2.1-1.4c-1.4-0.5-2.8-0.7-4.2-1.1c-1.8-0.5-2.7-1.7-2.7-3.6c-0.1-3,1-5.6,2.8-7.8c0.3-0.4,0.7-0.7,1.2-1.3
		l-3.8-1.3c-2.9-1-4.2-3.3-4.9-6.1c-0.6-2.5-1-2.8-3.6-3c0,1.2,0.1,2.4,0,3.5c-0.1,1-0.6,2-1,3l0.6,0.2l1.6-3.4l0.3,0.1
		c-0.4,1.2-0.7,2.5-1.1,3.8l3,1.8l-0.1,0.3l-3.4-1.4c-0.8,2-1.7,3.9-2.2,5.9c-0.4,1.7,0.3,2.4,2.1,3.4c1,0.5,1.8,1.3,2.5,2.2
		c0.6,0.8,0.3,1.9-0.7,2.5c-0.4,0.3-0.8,0.6-1.2,0.9c-1.9,1.3-2.4,2.4-1.9,4.6c0.2,0.7,0.3,1.3,0.4,2.3c-2.4-3-2-5.8,0.8-7.7
		c2.4-1.7,2.3-2.6-0.3-4c-2.4-1.3-3.1-3-2.2-5.6c0.4-1.3,1.2-2.6,1.7-3.9c0.1-0.4,0-0.9,0-1.3c-0.4,0.1-0.8,0.1-1.2,0.2
		c-1.8,0.4-3.5,1.1-5.3,1.1c-3.3,0-6.5,0.3-9.3,2.1c-2.3,1.5-3.1,4.2-1.6,6.5c0.3-2.7,1.3-4.9,3.6-6.2c0.9-0.5,2.1-0.7,3.2-1
		c0,0.1,0.1,0.3,0.1,0.4c-0.9,0.4-1.8,0.9-2.7,1.3c-3.1,1.6-4.8,6.9-1.4,9.6c1.7,1.4,3.4,2.8,5.1,4.1c2.2,1.7,3.8,3.5,4.3,5.1
		c-0.6-0.2-1.2-0.5-1.8-0.8c-2.2-1.3-4.3-1.2-6.4,0.2c-2.6,1.7-2.6,4.2,0,5.8c0.5,0.4,1.1,0.6,1.8,1c-2,0.2-3.9-0.8-4.5-2.4
		c-0.6-1.4,0-3.4,1.4-4.7c1.5-1.3,3.4-1.9,6.3-2.1c-1.1-0.9-2.3-1.8-3.4-2.7c-2.5-1.9-4.9-4-6.5-6.8c-1.7-3-0.8-6.4,2.1-8.2
		c1.2-0.7,2.5-1.3,3.9-1.7c1.4-0.5,2.8-0.8,4.2-1.3s2.6-1.2,4-1.7L201.3,175z M223.6,209.3c0-1.4-1-3-1.8-2.8
		c-1.6,0.4-3.1,0.9-4.6,1.5c-0.8,0.3-0.9,1-0.2,1.7c1.1,1.2,2.6,1.8,4.2,1.8C222.8,211.5,223.6,210.7,223.6,209.3z"/>
	<path id="XMLID_381_" d="M83.5,60l-0.9-2.1c1.4,0.8,2.4,2.9,2.7,5.9c0.2,2.2,0.3,4.4,0.5,6.6h0.6c0.1-2.5,0.3-4.9,0.2-7.4
		c0-2.5-0.6-4.9-2.3-6.9l0.5-0.2l2.5,3.3c1.7,0,2.1-1.5,2.5-3.1c0.7,1.8,0.2,2.9-1.4,3.6c-0.7,0.3-1.4,0.5-0.8,1.5
		c2.1,0.2,4.4-2,4.1-4.4c-0.2-2-1.6-4-2.7-3.9c0-0.5,0.2-1.1,0-1.5c-1-2.2-0.5-3.2,2.2-3.8c-0.2-1.4-0.4-2.8-1.8-3.4
		c-1.3-0.5-2.8-0.2-3.6,0.9c-1.1,1.4-2,3-3.2,4.8l2.9,0.3l0,0.5c-0.8,0.1-1.7,0.1-2.3,0.4c-0.6,0.3-0.8,1.2-1.4,2l-0.4-2
		c-0.5,0.4-1,0.7-1.3,1.1c-0.6,0.9-1.2,1.9-1.8,2.8c-0.9,1.5-2.2,1.9-3.8,1.5s-2.8-1.1-3.3-3.1c0.5,0.5,0.7,0.8,0.9,1.1
		c2.2,2.2,4.6,1.8,6.1-0.9c0.8-1.5,1.5-3,3.4-3.5c0.3-0.1,0.5-0.8,0.8-1.2c0.9-1.5,1.7-3.1,2.9-4.4c2.3-2.5,5.8-1.6,6.5,1.6
		c0.4,1.8,1.4,2.4,3.1,2.5c0.1-0.6,0.3-1.2,0.5-1.7c0.8-2.3,3.3-3.2,5.2-1.7c0.6,0.4,1.1,1.6,0.9,2.2c-0.4,0.9-1.1,1.7-2,2.1
		c-1,0.5-2.3,0.4-3.9,0.6l2.3,4c-1.4-0.3-2.4-1.2-2.5-2.7c-0.2-2-1.7-2.2-3.1-2.5c-0.5,0.8-0.9,1.6-1.3,2.5c-0.1,0.4,0,0.9,0.2,1.3
		c0.5,1,1.2,1.9,1.5,3c0.9,3.2-0.8,5.5-4.6,6.6c-0.1,1.9-0.3,3.8-0.4,5.7c0,0.4,0.3,0.8,0.6,1c2.6,1.2,5.2,2.2,7.8,3.4
		c-0.9-2-2.1-4-2.7-6.2c-0.6-2.3-0.1-4.6,1-6.8c-0.1,0.5-0.1,1-0.2,1.5c-0.8,3.3,0,6.2,1.6,9.2c1.2,2.1,1.9,4.5,2.7,6.8
		c0.7,1.9,0,3.7-1,5.3c0-3-1.3-5.5-3.2-7.7c-1.8-2.1-3.6-4.3-6.7-4.5c-0.9,2.5-1.8,5-2.8,7.5l-0.4-0.1c0.3-2.4,0.6-4.7,1-7.4
		c-2.8,1.1-3.4,3.6-5.1,5.5c0.6-2.9,1.7-5,4-6.3c0.4-0.2,0.8-0.8,0.8-1.2c0-1.3-0.3-2.6-0.5-4.1c-3.2,1.2-6,2.8-7.8,5.7
		c-1.4,2.3-0.9,4,1.4,5.4c0.8,0.4,1.5,1,2,1.8c-1-0.5-2-0.8-2.9-1.4c-2.2-1.3-2.7-3.7-1.5-5.9c1.7-2.8,4.2-4.6,7.1-6
		c0.7-0.3,1.8-0.5,1.4-1.8c-0.4-1.2-1.3-0.5-1.9-0.5c-1.6,0-3.2-0.2-4.7,0.1c-2.9,0.6-5.8,1.4-8.6,2.2c-0.3,0.1-0.6,0.4-1.1,0.8
		c3.1,1.2,6.1,1.3,9.2,0.8l0.1,0.5c-0.7,0.2-1.4,0.6-2.1,0.5c-2.4-0.3-4.9-0.8-7.3-1.1c-0.6-0.1-1.3-0.1-1.9,0l-0.1,0.7l5.2,1.5
		c-1.8,0.5-3.5,0.1-5.1-0.6c-1.4-0.6-1.8-0.4-2.3,1.1c-1.3,4,1.8,8.9,6,9.5c0.5,0,1-0.1,1.4-0.3c0.9-0.4,1.8-1,2.7-1.5
		c-1,1.9-3.2,3.3-5.2,3.2c-2.9-0.1-5.3-1-6.5-3.9c-1.4-3.4-0.9-6.3,2-9c-1.8-1.4-2.5-3.3-2.5-5.4c0-0.9,0.5-1.8,1-2.6
		c-0.4,2.7,0.9,4.5,3.1,5.6c0.5,0.3,1.2,0.3,1.7,0.1c4.1-2,8.4-3.3,13.1-3C81.2,60.3,82.2,60.1,83.5,60z M95.5,49.1
		c1.2-0.1,2.2-0.1,3.3-0.2c1-0.1,1.9-0.7,1.7-1.7c-0.2-0.7-1.1-1.5-1.8-1.7C97,45,96,46.2,95.5,49.1L95.5,49.1z M94.2,73
		c1.1,1.8,2.2,3.6,3.5,5.7C97.7,75.8,96.4,74.1,94.2,73L94.2,73z M62.1,71.5c0,2.7,1.7,5,3.8,5.3L62.1,71.5z M65.4,64.1L62.5,62
		C63.2,64.4,64.2,65.2,65.4,64.1z M91,48.9l-0.3-0.4c-0.4,0.2-1.1,0.4-1.2,0.7c-0.2,0.5,0.1,1.1,0.1,1.6h0.6L91,48.9z"/>
	<path id="XMLID_376_" d="M195.1,44.1c-0.6-3.3,0.9-5.5,3.6-5.3c1.8,0.1,2.8,2,1.6,3.4c-0.9,1.1-2.3,1.9-3.6,2.9l3.2,0.5
		c-1.4,0.7-2.6,0.7-3.8-0.2c-0.4-0.3-0.8-0.5-1.3-0.5c-5.3,0.1-9.1,2.9-10.9,7.9c-0.6,1.8-1,3.6,0,5.3c0.5,0.7,1.4,1.6,2.2,1.5
		c1-0.1,2-0.8,2.9-1.4c0.1-0.1-0.1-0.8-0.1-1.2c-0.2-1.2-0.6-2.5-0.4-3.7c0.2-1.6,1.6-2.8,2.8-2.7c1.6,0.1,3.3,1.8,3.1,3.4
		c-0.2,1.8-0.8,3.6-1.2,5.8l6.3,1c-0.5-1.3-0.9-2.3-1.2-3.3l0.1-0.2c0.4,0.5,0.9,1,1.2,1.6c0.3,0.6,0.4,1.4,0.6,2.1l0.6-0.1
		l-0.3-3.1l0.3-0.1c0.2,0.7,0.6,1.3,0.7,2c0.2,1.2,0.5,2.2,1.5,3.2c1.7,1.7,2.3,4,2,6.5c-0.2,1.9-0.6,3.7-0.6,5.6
		c-0.1,3.7,2,6.3,5.2,7.7c2,0.8,4.3,0.9,6.5,1.2c0.4,0,0.8,0.1,1.3,0.1c-4.4,3.1-14.5,0.5-15.2-4.2c2.4,2.1,4.6,4,7.5,4.3
		c-1.5-1.3-3.5-2.5-4.7-4.2c-1.2-1.7-1.5-3.9-2.1-5.9c-2.2,3.1-4.4,6.5-3.2,11c-1.5-1.9-1.5-5.4,0-8.2c0.9-1.6,1.9-3.1,2.9-4.6
		c1.9-3,1.8-6-0.2-8.5c-0.2-0.2-0.5-0.5-0.7-0.7c-0.6,4.2-3.1,6.5-6.7,8c0.3-0.4,0.7-0.8,1.1-1.1c0.4-0.3,0.8-0.7,1.2-1
		c1.9-1.4,3.2-3.2,3.5-5.6c0-0.5-0.1-1-0.4-1.4c-0.8,2.3-1.7,4.4-4.1,5.3c1.2-1.7,3-3.1,2.9-5.6c-1.2-0.2-2.4-0.4-3.6-0.6
		c-0.5-0.1-1.2,0-1.6-0.3c-1.5-0.8-2.4-0.1-3.4,1c3.5,5.8,2.5,11.5-2.5,13.5c1.7-1.8,2.1-3.9,2.1-6c0.1-2.2-0.6-4.3-2-6
		c-2.3,1.6-3.6,3.6-2.7,6.8c-1.4-1.7-1.4-3.6,0-5.3c1.1-1.3,2.4-2.4,3.9-3.4c2-1.4,3.6-3.1,4-5.6c0.4-1.9,0-3.3-1.4-3.9
		c-0.5-0.2-1.1-0.2-1.6,0.1c-1,0.8-1.2,2.9-0.4,4.4c0,0.1,0.2,0.1,0.4,0.2c0.2-0.6,0.4-1.2,0.7-2c0.8,1.6,0.1,2.7-0.7,3.7
		c-0.8,1-1.8,1.9-3,2.6c-5.6,3-6.6,7.5-5.3,13c0.2,0.8,0.4,1.6,0.6,2.7c-1.6-1.3-2.4-5.5-1.8-8.7c0.7-3.1,2-5.7,5.2-7.2
		c-1.1-0.5-2.1-0.8-2.9-1.2c-2.3-1.3-3.2-3.3-2.3-5.8c1.8-5.2,4.6-8.5,10.7-9C192.6,44.5,193.8,44.2,195.1,44.1z M198.3,39.3
		c-1.5,0.2-2.3,1-2.6,2.1c-0.2,0.7,0.1,1.5,0.1,2.3c0.6-0.1,1.3-0.1,1.8-0.4c0.6-0.2,1.1-0.6,1.6-1.1c0.4-0.5,0.7-1.3,0.6-1.8
		C199.7,39.9,198.8,39.6,198.3,39.3z M186.5,46.8c-2.6,1.7-4.9,5.3-5.3,7.9c-0.2,1.3,0.4,2.7,1.6,3.3
		C182.1,54.2,182.1,54.2,186.5,46.8z M189,62.4L191,70c1-1.7,0.3-6.1-1.2-7.4C189.6,62.4,189.2,62.5,189,62.4L189,62.4z"/>
	<path id="XMLID_373_" d="M167.6,90.1l6.7,4.6l0.5-0.5c-0.3-0.4-0.5-0.8-0.8-1.1c-2.8-1.9-5.1-4.1-6-7.5c-0.2-0.7-0.2-1.5,0-2.2
		c0.8,4.1,3.1,7.1,6.8,9.3c-0.2-3.3-1.7-5.6-4.2-7.5l0.2-0.3c0.5,0.3,1.1,0.4,1.5,0.8c3.6,3.3,5.1,8.7,1.6,13.4
		c-0.6,0.8-1.1,1.7-1.6,2.6c-1.5,2.5-1.6,5.1,0,7.5c1.2,2,2.7,3.9,4.3,5.7c2.6,2.8,5.7,2.9,8.9,0.9l0.1-0.1c3.6-2.3,3.6-2.3,7.3-2.9
		c-1.3-1.3-3.5-1.3-5.5,0.2c-1.7,1.2-3.3,2.4-5.4,2.5c-2.2,0.1-3.7-0.7-4.8-2.5c-0.9-1.4-1.6-2.8-0.5-4.5c0.5,1.5,0.8,2.9,1.4,4.3
		c0.7,1.6,2.1,2,3.9,1.6c-0.4-0.3-0.7-0.5-1.1-0.8c-2.6-1.6-2.9-4.2-0.8-6.3c0.8-0.9,1.8-1.7,2.3-2.8c0.5-1,0.6-2.2,1.3-3.3
		c0.1,0.6,0.3,1.3,0.3,1.9c-0.2,1.8-1.3,3-2.5,4.2c-1.8,1.7-2.3,3.3-1.2,4.5s2.4,1.9,4.1,1.6c0.9-0.2,1.8-0.6,2.6-1.1
		c3.4-2.3,6.6-1.4,8.2,2.3c1.1,2.4,1.5,4.8-0.4,7.1c0.2-0.8,0.4-1.7,0.5-2.5c0.2-1.9-0.1-3.8-1.7-5c-1.5-1-3.2-0.2-4.6,0.6
		c-2,1-3.9,2.2-5.9,3.4c1.1,2.9,3,5.3,5.5,7.1c-1.8-0.2-3-1.3-4-2.6c-0.7-0.8-1.3-1.7-1.7-2.7c-0.6-1.8-1.8-2.3-3.4-2
		c-0.1,1.3-0.1,2.7-0.4,4c-0.5,2.1-1.6,4-3.1,5.4c-1.3,1.2-2.4,2.6-3.2,4.2c-0.9,1.8,0.2,3.3,1.8,3.3c-0.3-0.9-1.2-1.9-1-2.7
		c0.3-1.1,1-2.1,1.9-2.8c2.4-1.7,4-3.9,4.6-6.7c0-0.1,0.1-0.3,0.2-0.4c0,0,0.1,0,0.3-0.1c0.1,3.1-1.3,5.4-3.6,7.2
		c-0.7,0.5-1.4,1.1-2,1.8c-1,1.2-0.8,2.2,0.5,2.9c0.8,0.4,1.8,0.5,2.7,0.6c0.3,0,0.7-0.3,0.9-0.6c1.1-1.1,2-2.4,3.2-3.3
		c1.5-1.1,3.1-2.2,3.5-4.6c0.8,1.9-0.1,2.9-1,3.8c-0.7,0.7-1.7,1.1-2.5,1.8c-0.8,0.7-1.5,1.5-2.3,2.4c1.7,0.9,2.1-0.4,2.8-1.3
		l0.2,1.4l2.5-0.3l0.1,0.3l-2.8,1.1c1.3,2.9,4.2,3.4,6.8,4.4c-3.6,1.6-8.5-0.1-10.4-3.4c-0.2-0.4-0.9-0.6-1.4-0.6
		c-1.2,0-2.3,0.3-3.5,0.2c-2-0.1-3-1.3-2.9-3.3c0.1-2,1.3-3.4,2.6-4.6c2-1.8,3.7-3.7,4.3-6.5c0.2-0.6,0.2-1.3,0.3-2
		c0-1.2-0.3-2.1-1.5-2.9c-1.3-0.9-2.3-2.3-3.5-3.4l-0.4,0.3l3.1,3.8c-4.1-0.5-7-9.5-5-15.8l-5.8,1.4l-0.2-0.3c0.3-0.2,0.7-0.5,1-0.6
		c1.1-0.3,2.3-0.6,3.4-0.8c2.3-0.3,3.3-2.1,4.5-4.1l-5.9,0.3l-0.1-0.4c1.2-0.2,2.4-0.3,3.5-0.5c1-0.2,2.5,0.8,3-1.1
		C171.9,94.1,169.6,92.7,167.6,90.1z M180,135.4c0.8,2.1,2.7,3.5,4.6,3.3c-0.7-0.8-1.7-1.5-2.3-2.5
		C181.8,135.1,181.2,134.9,180,135.4z"/>
	<path id="XMLID_369_" d="M57.2,85.5c1.5,2.4,2.4,5,4.9,6.3l0.5-0.2c-0.5-1.3-0.9-2.7-1.4-3.9c-0.5-1.1-1.3-2.2-1.9-3.3
		c-0.5-1-1-2.3,0-3.1c0.7-0.5,2-0.4,2.9-0.2c2,0.4,3.9,1.1,5.9,1.6c2.6,0.6,4.5-0.3,5.7-2.7c0.4-0.8,0.7-1.6,1.1-2.7
		c0.5,3-1.7,6-4.4,6.1c-1.8,0.1-3.5-0.6-5.3-0.9c-1-0.2-2-0.2-3.1-0.3c0.2,0.9,0.3,1.9,0.7,2.8c0.7,1.9,1.5,3.8,2.4,5.9
		c1.3-1.7,3-1.8,5-1.5c-0.1-1.7-0.2-3.2-0.3-4.7l0.6-0.1c0.2,1.3,0.5,2.5,0.5,3.8c0,1,0.3,1.6,1.3,1.8c1.4,0.3,3,1.5,4.1,0
		c1-1.2-0.2-2.6-0.7-3.8c-0.5-1.1-0.8-2.2-1.2-3.3c-0.1-0.5,0.1-1.1,0.1-1.7c0.9,2.3,1.9,4.4,2.7,6.5c0.6,1.6,0.4,3-1.6,3.7l0.2,0.5
		c0.9-0.1,2,0.1,2.5-0.4c0.7-0.6,1.3-1.9,1.1-2.7c-0.5-1.7-1.6-3.2-2.2-4.9c-0.6-1.6-1.1-3.2-1.5-4.8c-0.1-0.5,0.2-1,0.3-1.8
		c0.5,1.9,0.8,3.6,1.3,5.2c0.3,0.8,1,1.5,1.6,2.3c0.2-0.4,0.4-0.6,0.7-1.1c1.2,3,1.9,6.1,5,7.7c0.8,0.4,1.6,0.7,2.5,0.8l-4.4-3.8
		l0.3-0.5c4,3.8,8.3,6.2,14.1,2.9c-1.1,2-5.3,3-8.7,2.5c-3.5-0.5-4.5-1.1-7.7-4.6c-0.1,0.1-0.2,0.2-0.2,0.4c0,1.6-0.7,2.9-2.1,3.4
		c-1.4,0.6-2.8,0-4.1-0.9c-1.3-0.9-2.7-1.9-4.4-0.8c-0.3,0.2-0.8,0.1-1.2,0.2c-1.8,0.1-2.2,0.7-1.8,2.4c0.3,1.4,0.8,2.8,1.1,4.3
		c0.1,0.4,0.1,0.8,0,1.2c-1.4-2.5-2.4-5.1-1.8-8c-1.5,1-1,7.1,1,11.5c1.4-1,2.6-2.7,5-1.6c-4.8,0.8-5.4,4.5-6.3,7.9
		c-0.1,0.4,0.4,1,0.8,1.5c0.7-5,2.9-8.3,6.1-8.1c-3.7,1.6-4.8,4.5-5.2,8c2.7,0.2,5.1-0.4,6.6-2.5c2.7-3.8-0.3-6.3-2.8-8.9
		c2.1,0.3,4.1,2.6,4.5,5c0.4,2.4-0.4,4.6-2.3,5.7c-3.3,2.1-6.7,2.2-10.2,0.7c-3.7-1.6-4.9-4.3-3.5-8.1c0.3-0.8,0.7-1.5,1.1-2.6
		c-2.1,1.5-2.3,3.7-3,5.7c-0.6-1.9,0.5-4.2,3-6.8c-0.2-1.3-2-2.4-0.9-4c0.1-0.2,0.8-0.1,0.8-0.1c0,0.8-0.1,1.4,0,2
		c0.4,1.3,1.2,1.7,2.9,0.8l-1.2,1.7l3.4,3.7l0.3-0.2l-2-8.9C61,93.1,57.4,89.4,57.2,85.5z M64.8,109.9l1.8-6.3L62,99.8
		c-1.2,2.1-2.4,4.2-1.4,6.8C61.3,108.7,63.1,109.4,64.8,109.9z M61,81.6c-1.4-0.2-2,0.5-1.3,2c0.2,0.5,0.5,1,0.8,1.4
		c1.3,2.1,2.6,4.2,2.5,6.9c0,0.2,0.3,0.4,0.5,0.6c0.2-0.2,0.6-0.4,0.7-0.6c0.1-0.5,0-0.9-0.2-1.3c-0.8-2-1.7-4-2.4-6.1
		C61.3,83.7,61.2,82.7,61,81.6z"/>
	<path id="XMLID_365_" d="M195.4,128.8c0,0.6,0,1.2-0.1,1.8c-0.5,1.9-1,3.7-1.5,5.6c-0.5,1.9-0.4,3.9,0.4,5.6
		c2.7-2.4,2.9-5.4,2.6-8.6c0.2,0.2,0.4,0.5,0.5,0.8c0.7,3.2-0.1,5.8-2.3,8.3c-1.5,1.7-2.8,3.6-3.8,5.6c-1.1,2.3-0.3,4.5,1.2,6.5
		c-0.6-2.2-0.5-4.5,0.3-6.7c0.6-1.8,1.8-3.3,3.4-4.3c4.1-2.6,5.1-5.2,3.8-9.9c0-0.2,0-0.3,0-0.5c2.9,2.7,1.3,7.9-3.8,11.6
		c1.9,2.4,4.6,2.9,7.5,3.6c-1.4-4.5,2.4-7.7,2.9-11.6l-0.6-0.3l-3.9,4.6c-0.2-1.6,1.8-4.2,4.8-6.1c-0.8-0.4-1.5-0.8-2.2-1.1
		c-0.8-0.3-1.7-0.5-2.6-0.9c-4-1.5-5.2-6.3-2.4-9.8c-0.2,1.7-0.5,3.3-0.5,5c-0.1,1.9,1,3.1,2.7,3.7c-0.5-1.6-1.3-3.2-1.3-4.8
		c-0.1-1.6,0.6-3.3,0.9-4.9c-3.3-2.5-4.3-6.5-2-9.3c-0.1,0.9-0.1,1.5-0.2,2.1c-0.4,2,0.2,3.7,1.4,5.3c1.5,1.8,3.6,1.6,4.7-0.4
		c0.1-0.3,0.3-0.5,0.4-0.8c0.4,2.1-0.6,3.1-3.8,3.5c-0.2,1-0.6,2-0.7,3.1c-0.6,3.3,0.6,5.6,3.6,7.2c1.4,0.8,3.1,1.2,3.8,2.9
		c0.3,0.7,0.5,1.3,0.1,2.3c-1.1,2.9-1.6,5.9-2.2,9c-0.3,1.3,0.1,2.4,1.4,3.3c2.3,1.6,3.4,4.6,2.6,7.4c-0.3-0.8-0.5-1.3-0.6-1.8
		c-1-4.4-2.1-5.4-6.6-5.6c-3.4-0.2-6.6-0.8-9.1-3.5c-2.5,3.3-1.9,8,1.4,10.6c0.6,0.5,1.3,0.9,2,1.1c2.5,0.9,5-1,5.1-3.8
		c0-0.6-0.1-1.3,0.1-2c0.2,0.5,0.5,0.9,0.6,1.4c0.5,3.3-2.5,6-5.7,5.4c-4.5-0.9-6.9-3.9-8.1-8c-0.8-2.9-2.3-5.4-4.2-7.7
		c-0.2-0.2-0.3-0.5-0.2-0.7c2.1,1.5,3.4,3.6,4.5,6.1c0.8-1.6,1.6-3.1,2.3-4.6c0.1-0.3-0.1-0.8-0.3-1.1c-0.8-2.1-1-4.4-0.8-6.6
		l0.4-0.1l0.9,6.8l0.8,0c0-0.4,0.1-0.9,0-1.3c-0.9-2.1-0.7-4.1-0.1-6.2c0.7-2.2,1.3-4.4,1.9-6.6L195.4,128.8z M205.3,148.7l2.6-11.5
		c-2.1,3-3.4,6.4-3.8,10C204,148,204.6,148.7,205.3,148.7L205.3,148.7z M200.4,148.8c-1.6-1.1-3.2-2.3-4.8-3.4c-0.2-0.1-0.5,0-0.8,0
		c0.1,0.3,0,0.6,0.2,0.7C196.5,147.7,198.4,148.6,200.4,148.8L200.4,148.8z"/>
	<path id="XMLID_360_" d="M123.5,64.4l-4.3,2.1l0.2,0.5c0.9-0.3,1.8-0.5,2.7-0.8c3.2-0.8,6.3,0.5,7.7,2.9c0.7,1.1,1.7,1.9,2.7,2.7
		c0.5,0.4,1.1,0.6,1.7,0.6c1.2,0.2,2.4,0.1,3.1-1.2c0.1,0.2,0.2,0.3,0.2,0.3c-1.8,2.2-0.7,4.8-1.1,7.2c-0.9,6.2-7.3,9.8-12.6,6.8
		c-0.3-0.2-0.6-0.4-0.9-0.7c0.2,0,0.4,0,0.6,0c3.3,1.2,5.6,0.7,7.7-3.5c1.3-2.6,1.5-5.3,1.4-8.2c0-0.2-0.2-0.4-0.5-0.7
		c-0.1,4.5-1.5,8.1-5.9,9.7c-1.5,0.6-3.3,0.3-4.6-0.8c4.2,1.1,7-0.5,8.8-4.1c1-1.9,1.2-4.3,0.6-5.5c-0.1,0-0.2,0.1-0.3,0.1
		c-0.7,3.2-2.6,5-5.8,5.7c-1,0.2-2.1,0.5-3.1,0.8c-2.3,0.6-3,1.5-3.2,4c-0.1,1.9,0.7,3.5,2.6,4.2c2.2,0.7,4.4,1.3,6.6,1.7
		c2.8,0.5,5.3,2.1,7,4.4c-0.7-0.2-1.4-0.5-2.1-0.8c-2.9-1.6-6.1-1.3-9.2-1.7c-4.7-0.7-7.5-6.3-5.2-10.4c0.7-1.3,1.5-1.7,5.1-2.6
		c-1.5-1-2-2.3-1.3-3.7c0.6-1.2,1.5-2.3,2.6-3c1.1-0.6,2.7-0.7,4-1c-0.6-3.5-7.7-4.1-12.5,0.5C116.3,67.5,120.4,64.2,123.5,64.4z
		 M125.1,76.7c2.6,0,4.9-2.2,4.7-4.6c-0.1-0.6-0.5-1.1-1-1.4c-2.3-0.8-4.7,0.3-5.8,2.6C122.1,75.3,123,76.7,125.1,76.7z M128.6,85.6
		c4.9,0.1,8.3-6,6.8-12.3h-1.8C133.6,78,132.9,82.4,128.6,85.6z M120.5,87.5c1.1,1.7,5.1,2.7,7.9,1.9L120.5,87.5z"/>
	<path id="XMLID_357_" d="M183.6,156.4c-2.4,3.6-6.4,4.8-9.6,3.3c-2.9-1.4-3.3-4.4-0.8-6.4c1.5-1.2,3.3-1.9,5-2.8
		c0.6-0.3,1.3-0.6,1.9-0.9c2.3-1.1,2.7-2,1.5-4.3c-0.7-1.4-1.6-2.6-2.5-4.1c-0.5,1.7-0.8,3.2-1.3,4.6c-0.5,1.4-1.2,2.7-1.8,4
		l-0.6-0.2c0.1-0.4,0.2-0.9,0.4-1.3c0.6-1.9,1.4-3.8,1.8-5.8c0.4-1.7,0.4-3.6,0.6-5.4c1.5,2.9,3.2,6,4.6,9.1
		c0.6,1.4,0.1,2.8-1.4,3.6c-0.2,0.2-0.5,0.3-0.7,0.5l0.2,0.3c1-0.6,2.2-1,3-1.8c0.5-0.5,0.6-1.6,0.4-2.3c-0.5-1.6-1.3-3.1-1.7-4.8
		c0.2,0.2,0.5,0.3,0.7,0.5c0.6,1,1.2,2.1,1.7,3.2c0.9,1.8,0.6,3.5-0.7,5.1c-0.2,0.3-0.6,0.5-0.7,0.8c-0.2,0.8-0.3,1.6-0.4,2.5
		c0.7,0,1.4,0.1,2.1,0.1c1.1,0,2.1-0.3,3.2-0.1c1.6,0.3,2.1,1.6,1.3,3c-0.6,0.9-1.2,1.7-2,2.5c-1.4,1.7-2.4,3.5-2.6,5.7
		c-0.2,1.7,0.4,2.4,2.1,2.5c0.7,0,1.4,0,2.1-0.1c2.8-0.4,3.9,0.3,4.6,3.1c0.1,0.2,0.2,0.5,0.4,1.1c0.3-1.1,0.4-1.7,0.6-2.5
		c1.8,2.5-1.7,7.9-5.6,8.3l1.3-1c1.9-1.4,2.8-3.8,2.2-6.1c-0.4-1.7-1.5-2.3-3.1-2.1c-1,0.1-2,0.2-3,0.1c-2-0.3-2.8-1.3-2.6-3.4
		c0.2-2.4,1.3-4.5,2.8-6.3c0.6-0.7,1.2-1.5,1.8-2.3c0.6-1,0.3-1.7-0.9-1.8c-1-0.1-1.9,0-2.9,0.2c-2.3,0.7-3.3-0.6-2.5-3
		c0.2-0.4,0.2-0.9,0.2-1.3c-2.2,1.2-4.4,2.2-6.5,3.5c-1,0.6-1.7,1.6-2.4,2.5c-0.7,0.9-0.3,1.6,0.7,2.1c2.1,1.1,4,0.7,5.9-0.4
		C181.4,157.7,182.5,157.1,183.6,156.4z M172.7,155.9l6.6-4.8C176.1,151.4,172.6,154.1,172.7,155.9z"/>
	<path id="XMLID_353_" d="M174.3,175.1c-1.6-1.4-3.2-2.7-4.6-4.1c-0.6-0.6-1.3-1.8-1-2.4c0.2-0.7,1.4-1.1,2.2-1.5
		c0.8-0.3,1.7-0.4,2.5-0.4c3.4,0.2,4.9-1.8,5.9-4.7c0.1-0.2,0.2-0.4,0.3-0.6l0.4,0.1c-0.1,0.6-0.2,1.3-0.4,1.9
		c-0.2,0.6-0.6,1.1-0.7,1.8c2.2-0.9,2.6-2.8,2.7-5.4c0.4,0.6,0.6,0.9,0.7,1.1c0.3,2.1-0.8,4.1-2.6,5.1c-1.3,0.6-2.6,1-4,1.5
		c-0.6,0.2-1.2,0.4-1.8,0.7c-1.1,0.5-1.2,1.3-0.6,2.2c0.9,1.2,1.8,2.4,2.7,3.7l4.4-2l0.2,0.4l-4,2.3l2.2,3l-0.2,0.3
		c-0.8-0.6-1.7-1.2-2.6-1.8c-0.4-0.2-1.3-0.4-1.5-0.1c-0.5,0.5-0.7,1.2-0.8,1.9c0,0.3,0.7,0.8,1.1,0.9c2.5,0.4,4.9,0.8,7,2.4
		c3.5,2.7,4.3,6.5,1.8,9.7c-3.3,4.2-7.6,4.9-11,1.8c-0.7-0.6-1.1-2-1.1-3c-0.1-2.5,1.8-4.8,3.5-5c-0.8,1.2-1.9,2.6-2.6,4.1
		c-0.9,2.3,1,4.6,3.3,3.9c1.7-0.4,3.6-1.3,4.8-2.5c2.4-2.3,1.7-5.7-1.4-7.1c-1.8-0.8-3.9-1-5.8-1.6c-1-0.3-2.3-0.8-2.7-1.5
		c-0.7-1.3,0.2-2.6,1.3-3.6C172.6,176.1,173.3,175.7,174.3,175.1z M172.6,177.3l-0.6,0c-0.2,0.9-0.7,1.8-0.6,2.6
		c0.1,0.4,1.2,0.8,2,1c1.4,0.4,2.9,0.6,4.3,1c2.9,0.7,4.8,2.7,5.1,5.2c0.3,2.3-1.3,4.6-4,5.9c-0.6,0.3-1.3,0.6-1.9,0.9
		c2.9,0.2,6.3-2.4,7-5.1c0.7-2.9,0-4.6-2.3-6.4c-1.9-1.4-4-2.1-6.3-2.4C173.6,179.8,172.6,179.1,172.6,177.3z M172.5,167.6
		c-0.8,0.1-1.6,0.3-2.4,0.5c-0.9,0.3-1.2,0.9-0.5,1.6c1.4,1.3,2.8,2.6,4.3,3.8C173.3,171.6,171.2,170.3,172.5,167.6L172.5,167.6z"/>
	<path id="XMLID_348_" d="M214.8,155.7c-1.5-2.7-3.1-5.1-4-7.7c-0.7-1.9-0.7-4.2-0.4-6.3c0.4-3,1.5-5.9-0.1-9.1
		c1.3,0.9,2,2.7,1.8,4.6c-0.2,1.3-0.4,2.6-0.8,3.9c-0.5,1.6-0.2,2.6,1.3,3.5c1.4,0.8,2.6,1.7,3.8,2.7c2.3,2,2.5,3.5,1.1,6.2
		c-0.4,0.7-0.8,1.3-1.2,2c1.5,1.8,2.9,3.8,2.7,6.2c-0.2,2.2-0.9,4.4-1.4,6.7l1.8,0.8l-2,0.5c0.1,3.7,3.3,4.7,5.8,6.8
		c-4.6-1.6-6-3.1-6.9-6.9c-2.6-0.4-5-1.9-6.4-4.1c-0.7-1-1.1-2.1-0.4-3.1c1-1.6,2.1-3.1,3.2-4.5
		C213.2,156.9,214.1,156.3,214.8,155.7z M216.3,167.9c2.4-5.8,2.1-8.9-0.8-11.6c-1.1,1-2.4,1.8-3.4,2.9c-0.6,0.7-0.8,1.5-0.7,2.4
		C211.8,164.6,213.7,166.4,216.3,167.9L216.3,167.9z M211.2,144.6l-0.4,0.3c0.2,3.9,2.4,6.8,4.5,9.8c2.1-1.9,2.6-4.3,1.2-5.7
		C214.8,147.4,213,146,211.2,144.6L211.2,144.6z M210.1,162.3c-0.8,2,0.9,4.7,3.3,5.2L210.1,162.3z"/>
	<path id="XMLID_132_" d="M109.1,201.4c-0.1,0.4-0.3,0.8-0.4,1.2c-0.5,1.8-1.1,3.5-1.4,5.3c-0.6,4,1.1,6,5.2,6.2
		c1.2,0.1,2.4,0.1,3.6,0.3c2.4,0.4,4.2,1.8,5.3,3.9c1.3,2.4-0.3,6-3.2,7c-0.8,0.3-1.6,0.5-2.3,0.7c-0.5,0.2-0.9,0.5-1.4,0.7l0.1,0.4
		c0.5,0,1.2,0.3,1.5,0c2-1.3,4.3-2.4,6-4c2.4-2.4,1.7-6.2-1-8.2c-1.6-1.1-3.5-1.7-5.4-1.8c-1.7,0-3.4-0.2-5.1-0.5
		c-1.6-0.3-2.1-1.4-2-3.1c0.9,2.4,2.8,2.6,4.8,2.6c2.8,0,5.4,0.1,7.9,1.8c4.1,2.8,4.5,7.8,0.7,10.9c-1,0.9-2.2,1.6-3.4,2.4l4.4,2.1
		c0,0.1-0.1,0.3-0.1,0.4c-0.3-0.1-0.7-0.2-1-0.3c-1.9-0.4-3.8-0.8-5.8-1.2c-0.2-0.1-0.5,0.1-0.8-0.1c-0.7-0.4-1.4-0.8-2.1-1.3
		c0.5-0.6,1-1.4,1.6-1.7c0.9-0.5,1.9-0.7,2.8-1.1c3.4-1.3,4.1-4.6,1.6-7.1c-1.8-1.8-4.2-1.8-6.5-2.1c-1.2-0.1-2.4-0.3-3.6-0.7
		c-1.8-0.7-2.8-2.2-3-4.1c-0.3-2.9,0.4-5.5,1.6-8.1c0.2-0.4,0.5-0.6,0.8-0.9L109.1,201.4z"/>
	<path id="XMLID_131_" d="M252.8,173c2.2,3.6,3.7,7.4,2,11.7c-0.8,2.1-2.4,3.1-4.1,3c-2.7-0.3-4.8-2-5.2-4.2c-0.4-2-0.2-4.1,0.6-6
		c1.3-3.2,0.6-4.9-3.2-6.3c-0.6-0.2-1.3-0.3-1.9-0.5c-1.8-0.5-3.3-2.4-2-4.6c1.6-2.6,0.9-4.8-1.6-6.4c-1.4-0.9-2.8-1.5-4.3-2.3
		c-1.1-0.6-2.2-1.1-3.1-1.9c-1.5-1.3-1.8-3.2-0.9-5c1-1.9,1.3-3.8,0.2-5.8l0.4-0.2c0.4,0.6,1,1.2,1,1.7c0,1.4-0.2,3-0.7,4.3
		c-1,2.4-0.7,3.8,1.6,5.1c2.2,1.3,4.5,2.3,6.6,3.7c2.7,1.8,3.2,4.6,1.7,7.5c-0.8,1.6-0.4,2.5,1.3,3.1c0.9,0.3,1.9,0.4,2.8,0.8
		c3.6,1.6,4.2,3.4,3.3,6.7c-0.5,1.7-0.8,3.5-0.8,5.4c-0.1,2.2,1.6,3.7,4.2,4c1.6,0.2,2.8-0.8,3.4-3c0.7-2.5,0.2-5-0.5-7.5
		C253.4,175.1,253.1,174,252.8,173z"/>
	<path id="XMLID_343_" d="M106.4,225.1c-0.9,2.5-2.2,4.5-5.1,4.7c-4,0.3-6.4-2-8-5.5c-1.6,2.3-3.6,2.8-6,2c-1.9-0.6-2.4-2.3-2.9-4.3
		c0.8,1,1.3,1.7,1.9,2.4c1.2,1.2,3.3,1.6,4.6,0.7c0.6-0.4,1-0.9,1.2-1.6c0.1-0.3-0.7-0.9-1.2-1.2c-1.1-0.6-2.3-1-3.4-1.6
		c-0.7-0.4-1.3-1-1.9-1.5c0.7-0.5,1.4-1.2,2.1-1.3c1.5-0.2,3,0.1,4.5,0c0.6,0,1.4-0.3,1.7-0.7c0.2-0.3,0-1.2-0.3-1.6
		c-0.7-1.1-1.5-2.1-2.2-3.2l0.4-0.3l3.1,3.8c1.4-1.9,2.8-3.9,2.7-6.2c-0.2-2.1-1.3-4.1-2-6.1c2.2,1,3.8,5.1,2.8,7.9
		c-0.5,1.4-1.2,2.7-1.9,3.9c-0.5,0.8-1.2,1.5-0.5,2.6c0.1,0.1-0.5,0.8-0.8,0.8c-0.9,0-1.1,0.5-1.2,1.2c-0.8,4.3,2.7,8.8,6.8,8.5
		c1.3-0.1,2.6-1,3.7-1.7C105.4,226.5,105.8,225.7,106.4,225.1z M86.5,219.4l6.5,2.9c0-0.6,0-1.1,0-1.6s0.1-1.1,0.2-1.6
		C91.2,218.4,88.1,218.5,86.5,219.4L86.5,219.4z"/>
	<path id="XMLID_128_" d="M100,69.6c0.5-3.5,3.2-5.2,5.1-7.6c1-1.3,2.1-2.5,3.1-3.8c1.7-2.1,2.6-4.4,0.5-7c2.2,0.9,2.4,2.3,1.3,6.7
		c4.3-0.3,6.7-3.3,9-6.6c-0.6,3.4-5,7.2-8.6,7.3c-1.2,0.1-1.9,0.5-2.3,1.6c2.8,0.6,6.7-1.9,12-7.5c-0.8,2.2-2.3,3.9-4.2,5.2
		c-2.5,1.8-5.2,3.5-8.5,3.3c-0.3,0-0.5,0.1-0.7,0.3c-1.7,1.9-3.5,3.7-5,5.7c-1.1,1.5-1.4,3.2-0.9,5.2c0.4,1.5,0.1,3.2-0.1,4.8
		c0.4-3.7-2.2-5.9-3.9-8.6c-0.9-1.5-1.7-3.1-1.6-5.2c1.1,2.3,2.1,4.4,3.2,6.4l0.8-0.2c-3.5-4.7-3.6-9.2,0.3-13.6
		C96,60.7,96.5,65.1,100,69.6z"/>
	<path id="XMLID_127_" d="M231.3,167.3c1.3-1.1,1.5-3.6,0.5-5.6c-1.1-2.3-3.1-4.1-5.5-5c-0.4-0.1-0.7-0.3-1-0.6
		c1.6-0.3,3,0.4,4.1,1.3c3.8,2.9,5.5,7.9,2.1,12.1c-1.6,2-3.1,4-3.5,6.7c-0.2,1.4,0,2.6,0.9,3.7c0.6,0.7,1.4,1.4,2,2.1
		c2.4,2.5,2.5,4,0.4,6.3c0.7,1,1.6,1.9,2,3c0.3,1-0.1,2.1-0.2,3.2h-0.5c0-0.8,0-1.6-0.1-2.4c-0.1-1.3-0.5-2.3-2.1-2.1
		c-1.3,0.1-1.2-0.7-0.7-1.5c0.3-0.4,0.7-0.8,1-1.1c1.4-1.3,1.5-2.4,0.2-3.8c-0.8-0.9-1.7-1.6-2.5-2.5c-1.4-1.4-2-3.1-1.5-5.1
		c0.4-1.7,0.7-3.4,0.8-5.1c0.4-3.5-1.2-6.1-3.8-8.1c-0.6-0.5-1.2-0.9-2-1.5c4,0.4,6.7,4.6,6.8,9.9
		C229.8,169.8,231.2,169,231.3,167.3L231.3,167.3z"/>
	<path id="XMLID_126_" d="M149.4,147.6c-1.2,0.7-2.4,1.3-3.5,2.1c-3.4,2.6-7.3,3.9-11.2,5.5c-0.2,0.1-0.5,0.1-0.8-0.2
		c0.7-0.4,1.4-0.8,2.2-1.1c1.4-0.6,2.9-1,4.3-1.7c0.6-0.3,1.1-0.8,1.9-1.4c0.4-0.1,1.2-0.2,1.8-0.6c1.8-1.2,3.6-2.5,5.4-3.8
		c0.2-0.2,0.6-0.5,0.5-0.7c-0.2-0.5-0.4-1-0.6-1.4l-1.1,1c-1.4-0.9-2.4-0.4-2.8,1.4c-0.6-0.3-1.3-0.8-1.9-0.8
		c-1.6,0.1-1.7,0.3-2.1,2.4c-0.5-1.3-1.2-2.3-2.5-1.7c-0.8,0.4-1.4,1.4-2,2.1c-0.3-0.2-1.1-1.1-1.5-0.9c-1.2,0.5-3.2-0.1-3.4,2.4
		c-0.6-1.3-1.3-2.2-2.6-1.7c-0.7,0.3-1.3,0.8-2,1.3c-0.1,0-0.6-0.5-1.1-0.5c-0.4,0-0.8,0.6-1.1,0.9l-3.4-0.3c0.2,1,0.4,1.7,0.6,2.5
		l-3.8-3.2c1-0.2,1.7-0.5,2.2-0.3c1.9,0.5,3.5,0.2,5.3-0.4c1.6-0.5,3.3-0.5,4.9-0.8c1.1-0.2,2.3-0.1,3.3-0.5
		c3.9-1.7,8.2-1.5,12.1-2.8c0.7-0.3,1.4-0.5,2.2-0.6c0.8-0.1,1.7-0.1,2.5,0.1c1,0.2,1.1,1,0.4,1.7c-0.6,0.6-1.2,1.2-1.8,1.8
		L149.4,147.6z"/>
	<path id="XMLID_337_" d="M168.9,93.8c-2.9,0.5-6.3-1.4-7.4-4.5c-0.6-1.6-0.6-3.4-1-5.2c-0.1-0.4-0.2-0.9-0.5-1.1
		c-2.2-1.1-4-2.8-5.1-4.9c-4,0.5-7.7,0.4-10.4-3.5c2.2,1,3.6,3.4,6.2,2.8c0.2-1.3,0.5-2.6,0.7-4c-1.3-1.3-3-0.8-4.8-0.5
		c1.2-1.5,2.7-1.5,5.7-0.1c0.9-1.6,1.8-3.2,2.8-4.8l0.4,0.2c-0.7,1.3-1.4,2.7-2,4c-0.3,0.6-0.3,1.4-0.4,2.1
		c-0.1,1.1-0.3,2.1-0.4,3.3c1.8,0.5,2.4-0.2,3.4-4l0.4,0c-0.2,1-0.1,2.2-0.5,3.1c-0.4,0.9-0.3,1.4,0.2,2c2.2,2.8,4.8,4.6,8.5,4.4
		c0.3,0,0.5,0,0.8,0c0,0,0.1,0.1,0.3,0.2l-2.3,0.7C162.6,88.9,164.2,91.7,168.9,93.8z M161.7,83.5l-0.5,0.3
		c-0.2,2.2,0.1,4.3,1.5,6.3c-0.1-1.9-0.1-3.7-0.3-5.4C162.4,84.3,162,83.9,161.7,83.5L161.7,83.5z"/>
	<path id="XMLID_123_" d="M239.8,112c1.1,0.2,2.3,0.4,3.4,0.7c1.8,0.5,2.6,1.9,1.9,3.9c-0.7,2.1-0.9,4,1.3,5.5
		c-2.4-0.1-3.9-1.8-4-4.2c0-3.1-0.3-3.3-3.4-3.6c-0.8-0.1-1.5-0.2-2.2-0.3c-2.7-0.7-3.6-2.2-2.7-4.9c0.4-1,0.9-2,1.5-3
		c1.7-3,0.5-5.4-2.8-6.2c-0.8-0.2-1.9-1-2.2-1.8c-0.6-1.5,0.2-3.4,1.5-4.2c-0.3,0.9-0.6,1.6-0.8,2.4c-0.5,2,0.1,2.8,2.1,2.9
		c0.9,0.1,1.8,0,2.7,0.1c2.6,0.1,3.5,1,3.7,3.6c0.3,3.7-1,6.2-4.2,7.6c0.6-0.8,1-1.4,1.5-2c1.6-1.7,2.1-3.8,1.7-6.1
		c-0.3-1.9-0.9-2.4-3.1-2.1c2.3,2.2,1.5,4.5,0.2,6.8c-0.1,0.1-0.1,0.2-0.2,0.3c-2.3,4-1.4,5.7,3.2,6c0.1,0,0.2,0,0.3,0
		c3.3,0.3,3.9,0.9,4.2,4.5c1.9-2,1.4-3.9-1.2-4.6c-0.9-0.3-1.8-0.6-2.6-1L239.8,112z"/>
	<path id="XMLID_122_" d="M156.1,81.6c1.4,3.2,2.5,6.2,1.5,9.5c-0.5,1.6-2.1,2.2-4.5,1.9c-3.3-0.3-8.3-4.9-9-8.1c0-0.3,0-0.6,0-1
		c1.2,1.7,2.1,3.2,3.2,4.5c1.8,2.2,4,3.8,7,3.9c2.1,0.1,3.1-1,2.8-3.6c-0.7,1.6-1.5,2.7-3.2,2.1c-1.3-0.5-2.6-0.9-3.7-1.7
		c-2-1.3-3.1-3.4-3.9-5.5c-0.3-0.7-0.6-0.8-1.4-1c-1.9-0.4-3.7-1-5.4-1.7c-0.6-0.2-1-1-1.3-1.6l3.5,2.2c-1-1.8-1.8-3.1-2.5-4.5
		c-0.1-0.2-0.1-0.5-0.2-0.7c1.1,1.3,2,2.9,3.3,4c1,0.9,2.5,1.3,3.8,1.6c0.5,0.1,1.6-0.6,1.6-1c0.1-0.8-0.2-1.5-0.8-2
		c-0.6-0.5-1.6-0.6-2.5-1.2c0.7,0.1,1.4,0,2,0.2c1.2,0.4,2.1,1.3,2,2.6c-0.1,0.9-0.9,1.8-1.6,3.1c1.1,2.6,2.8,5.2,6.2,6.5
		c2.2,0.8,2.9,0.4,3.1-1.9C156.2,86,156.1,84,156.1,81.6z"/>
	<path id="XMLID_121_" d="M117.5,88.6c-0.8-1.7-1.6-3.4-2.5-5.2c-4.2,1.9-8.3,2.8-12.5,0.8c-0.8-0.4-1.3-1.3-1.9-2.1
		c4.1,2.8,9.5,3.1,13.7,0.6c-0.8-1.7-2.2-2.6-3.8-3.2c-1-0.4-2-0.6-3.1-1c-2-0.7-3.6-2-4.3-4.2c2.3,4.1,7.1,3.6,10.7,6.1
		c-1.6-3.6-5.2-3.7-7.4-5.7l0.2-0.4l6.7,3.2c-2.1-4.1-6.6-4-10.2-5.7c3.5-0.6,9,2.1,10.8,5.1c1.2,2.1,2.3,4.3,2.4,6.8
		c0,0.8,0.5,1.5,0.8,2.3c0.3,0.8,0.5,1.6,0.7,2.4L117.5,88.6z"/>
	<path id="XMLID_120_" d="M98.1,86.8c-2.3,1.9-4.8,3.1-7.9,2.5l0,0.6l4.6,0.9c-2.3,1.5-9.1-1-9.6-3.6c4,1.5,7.9,2.4,11.7-0.5
		l-0.1-0.5c-0.5,0.1-1,0.2-1.4,0.3c-2.6,0.9-5.3,1.2-7.9,0.1c-0.8-0.4-1.5-0.9-2.1-1.6c3.3,1.6,6.6,1.9,10.1,0.6
		c-0.7-1.1-1.5-1.1-2.5-0.8c-2.3,0.6-4.5,0.6-6.5-0.9c-0.3-0.2-0.6-0.4-0.8-0.7c-0.1-0.1-0.1-0.3-0.3-0.8c2.4,1.4,4.6,2.4,7.4,1.5
		c-3.5-2-7.2-2.5-11.2-2.8C84.8,79,95.7,82.9,98.1,86.8z"/>
	<path id="XMLID_330_" d="M64.4,184.5c-3.6,0-5.4,3.6-5,9.3c-1.5-2-1.3-5.6,0.6-8c1.6-2,3.6-3,6.1-2.4c0.6,0.1,1.3,0.1,1.9,0
		c2.1-0.3,4.2-0.1,6.2,0.7l0,0.4l-5.9-0.4c0.5,0.6,0.7,0.9,0.9,1.2c0.9,1.4,2,2.8,2.7,4.3c0.7,1.5,0.7,3.2-0.6,4.5
		c-1.3,1.3-3.1,1.4-4.7,0.9c-2.1-0.7-3.7-2.1-4.6-4.2c-0.8-2-0.5-3.9,1.2-5.4C63.7,185.2,64,184.9,64.4,184.5z M68.2,194.4
		c2.5,0,3.7-1.3,3-3.7s-2.1-4.2-3.9-5.6c-0.3-0.3-1.1-0.2-1.5-0.1c-2.3,0.8-3.4,2.6-3,4.7C63.3,192,66.1,194.4,68.2,194.4z"/>
	<path id="XMLID_117_" d="M130.4,98l0.6,0.5l2.3-2.8c0.2,0.5,0.2,0.8,0.3,1l3.6-2l-1.2,2.3l0.3,0.2c0.7-0.9,1.2-2.1,2-2.6
		c0.9-0.6,2.1-0.5,3.4-0.8l-1,1.1c6.9-2.3,13.6-2.1,20.2,1.2c-11.8-4.2-22.1-1.3-31.2,6.7c-0.1-0.6-0.2-1.2-0.4-1.8
		c-0.2-0.6-0.4-1.2-0.2-2l0.8,1.3C130.2,99.5,130.3,98.8,130.4,98z"/>
	<path id="XMLID_116_" d="M247.3,123.5c3.5,1.5,5.6,5.3,3.7,8.4c-0.8,1.2-1.6,2.5-2.3,3.8c-1,1.9-0.7,2.5,1.3,3.1
		c1.8,0.5,3.7,1.1,5.3,2.1c2.3,1.3,2.7,3.6,1.5,5.9c-0.6,1.3-1.4,2.5-2.4,3.6c0.5-1.2,0.9-2.4,1.4-3.5c1.3-2.4,1-4.3-1.4-5.5
		c-2.2-1-4.6-1.4-6.9-2.1c-1.2-0.3-2.4-0.5-3.5-0.9c-2.8-0.8-4.2-3-3.6-5.8c0.6-2.4,1.4-4.7,2.5-6.9c0,0.6,0.1,1.1,0,1.7
		c-0.4,1.5-0.9,2.9-1.4,4.3c-1,2.9,0,5,2.9,5.9c0.9,0.3,1.8,0.5,2.4,0.3c0.8-1.7,1.5-3.5,2.5-5.1c2.1-3.4,2.1-4.5-0.5-7.6
		C248.3,124.7,247.8,124.1,247.3,123.5z"/>
	<path id="XMLID_115_" d="M75.4,212.2c-0.3-2.9-2.2-4.7-4.2-6.4c-1.4-1.2-1.2-3.2,0.5-4c1.1-0.5,2.4-0.7,3.6-1
		c1.4-0.3,2.6-0.7,3-2.2c0.4-1.5-0.2-2.6-1.8-3.6c-1.5-1-2.2-2.3-1.9-3.4c1.2,1.2,2.6,2.4,3.9,3.7c1.3,1.3,1.1,3.5-0.4,5.5
		c1.3-0.2,2.1-1.2,2-2.7c-0.1-1.8-0.6-3.4-2.1-4.7c-2-1.8-2.3-3.9-1-6.1c0,0.4,0,0.8,0,1.2c-0.2,1.7,0.2,3.2,1.7,4.3
		c2,1.5,2.5,3.7,2.4,6c-0.1,2.5-2.9,4.3-5.9,4.1c-0.8-0.1-1.5-0.2-2.3-0.1c-0.6,0.1-1.5,0.5-1.6,1c-0.2,0.5,0.3,1.3,0.7,1.7
		c0.9,1,2,1.8,2.7,2.8c0.7,1.1,1,2.5,1.4,3.8L75.4,212.2z"/>
	<path id="XMLID_114_" d="M155.2,104.5L153,106c-1.2,0.6-2.3-2-3.9,0.2c-0.2-2.9-2.8-1.2-4.2-2.4l3.3-0.6c-2.8-1.8-9.1-0.3-11.2,3.8
		l6.5-3.3c0.1,1-0.1,2,0.3,2.5c0.5,0.5,1.5,0.7,2.3,0.7c1.8,0,3.6-0.2,5.4-0.3l0,0.4l-13.8,1.9l-0.1-0.2l5.5-1.8l-0.7-2.2l-7.4,4.9
		c1.5-4.2,4.2-7.2,8.9-7.8c1.3-0.2,2.7,0.1,4.1,0.3c1.4,0.2,2.8,0.7,4.2,1.1c0.1,0,0.2,0.1,0.2,0.2
		C152.8,104.8,154,104.5,155.2,104.5z"/>
	<path id="XMLID_113_" d="M154.2,27.3c0.1,0.4,0.3,0.8,0.6,1.1c1,1.2,2,2.5,3.2,3.6c1,0.9,2.3,0.9,3.6,0.3c1.1-0.5,2.3-1.1,3.4-1.8
		c0.9-0.5,1.6-1.2,1.3-2.4c-0.1-0.5,0.1-1,0.4-1.4c0.3-0.3,0.9-0.4,1.4-0.5c0.1,0.5,0.5,1,0.3,1.4c-0.2,0.7-0.6,1.2-1.1,2
		c2.6,1.4,5.2,2.6,8.2,1.3c0,0,0.1-0.1,0.1-0.1c4.3-1.9,6.5-0.5,6.6,4.3c0,0.8,0,1.5,0,2.3c0.1,3.1,2.9,4.7,5.4,2.9
		c2.8-2,5.7-4.2,5.7-8.3c0.8,1.5,0.3,3-0.6,4.2c-1.3,1.7-2.9,3.3-4.6,4.6c-2.9,2.1-6,0.8-6.6-2.7c-0.2-1.1-0.2-2.3-0.2-3.5
		c-0.1-3.2-1.5-4.5-4.4-3.3c-3.6,1.5-6.7,0.9-9.9-0.8c-0.3-0.2-0.8,0-1.2,0.2c-1.2,0.6-2.3,1.4-3.6,2c-2.9,1.5-4.7,0.9-7-1.8
		c-0.8-0.9-1.1-2.2-1.7-3.3L154.2,27.3z"/>
	<path id="XMLID_322_" d="M101.9,107.1c-3.1-1.5-6.1-2.9-9-4.4c-1.1-0.6-2-1.6-2.9-2.5c-0.7-0.7-1.5-1.7-0.7-2.7
		c0.7-0.8,1.6-1.2,2.6-1.3c1.5-0.1,3,0.3,4.5,0.5c3.2,0.5,6.4,0.3,9.5-0.7c-3.8,2.6-8.1,1.5-12.3,1.3c4.5,1.5,9,1.8,13.7-0.3
		c-1.4,1.6-4.7,2.5-8.2,2.1c-2.8-0.3-5.6-0.9-8.5-1.4C93.8,101.5,99,102.9,101.9,107.1z M89.9,98.3c0.4,2.1,4.2,5,6.5,4.9L89.9,98.3
		z"/>
	<path id="XMLID_319_" d="M159,34.8c0.2,0.2,0.5,0.4,0.7,0.7c1.1,2,2.8,2.5,4.9,2c1.8-0.4,3.6-0.7,5.3-1.5c5.5-2.4,9.3,0,10.7,5.8
		c0.1,0.4,0.1,0.9,0,1.4c-0.4-0.9-0.8-1.7-1.2-2.6c-1-2.2-1.9-2.9-4.3-2.5c-2.2,0.3-4.3,1.2-6.8,1.9c1.9,1.5,3.7,1.4,5.5,1.7
		c2.9,0.5,5.5,1.5,6.9,4.3c0.9,1.9,0.7,3.9-0.2,6c-0.1-0.3-0.2-0.4-0.2-0.4c1.4-6.4-2.1-8.6-7.1-9.2c-2.1-0.2-4.1-0.5-5.8-1.9
		c-0.3-0.2-0.8-0.2-1.2-0.3c-2.5-0.2-4.6-1.4-6.2-3.1c-0.6-0.6-0.9-1.4-1.3-2.1L159,34.8z M177.3,37.6c-1.4-1.6-3.2-2.1-5.2-1.5
		c-1.9,0.6-3.7,1.2-5.6,1.8c-1.1,0.3-2.2,0.4-3.5,0.6c1.9,1.2,3.8,1.4,5.9,0.8C171.7,38.6,174.2,36.9,177.3,37.6L177.3,37.6z"/>
	<path id="XMLID_108_" d="M185.7,82.4c0.2,2.7-0.5,5.5,1.3,7.8c1.4,1.9,3.1,3.6,4.6,5.4c0.7-2.2,1.4-4.1,2-6l0.6,0.1
		c0,0.4-0.1,0.8-0.2,1.2c-0.3,1.1-0.7,2.1-1,3.2c-0.4,1.3-0.4,2.4,0.7,3.5c1,1.1,1.4,2.5,1.1,3.9c-0.3,1.5-0.4,3-0.6,4.5
		c-0.5,2.6,0.2,4.8,1.8,6.8c-2.4-0.5-4.5-3.1-4.7-6c-0.1-1-0.1-1.9,0-2.9c0.3-2.1,0.1-4.1-1.1-6.1c0.3,0.2,0.7,0.4,0.8,0.6
		c0.4,1.5,0.9,3,1.2,4.5c0.3,1.8,0.2,3.6,0.4,5.4c0.1,0.6,0.5,1.2,1,1.8c-0.8-3,0.1-5.8,0.5-8.7c0.3-1.7-0.4-2.9-1.5-4.1
		c-2-2.2-4.2-4.3-6-6.7c-1.7-2.1-2-4.7-1.5-7.4c0.1-0.2,0.1-0.5,0.2-0.7C185.3,82.6,185.4,82.6,185.7,82.4z"/>
	<path id="XMLID_107_" d="M129.6,201.2l1.4,1.6l0.3-0.1l-1.9-5.3l0.4-0.2l1.9,1.1c-0.2-1-0.3-1.8-0.6-2.4c-0.2-0.5-0.5-1-0.7-1.5
		c-0.4-1,0-1.3,1.2-1.1c-0.5-3.8-1-7.6-1.5-11.3l0.5-0.1c0.4,1.6,0.9,3.1,1.2,4.7c0.4,3.1,0.6,6.3,0.9,9.4c0.1,0.8,0.4,1.5,0.7,2.3
		c0.3,0.7,0.6,1.4,1.1,2.4l-2.3-0.2c0.4,2.1,0.8,4.1,1.2,6.2l-1.4-0.7l-2,6.2l-0.4-0.1c0.3-1.1,0.5-2.2,0.8-3.4
		c0.3-1.2,0.5-2.4,0.7-3.6c0-0.5-0.3-1-0.5-1.5c-0.4-0.7-0.9-1.4-1.3-2.1L129.6,201.2z"/>
	<path id="XMLID_106_" d="M197.9,111.1c-2.3-2.2-2-4.8-1.4-7.5c0.7-2.9,2.9-4.4,5.8-5.3c-2-1.8-2.2-3.7-1-6.1c0,1.3-0.2,2.3,0.1,3.2
		c0.2,0.9,0.9,1.7,1.3,2.5c2.7-1.4,3.3-3.7,2.1-7.6c3.8,1,4.7,7.2,2,9.3c-1,0.8-2.2,1.5-3.4,2c-2.8,1.1-3,1.1-4.6,3.1
		c-0.2-1.4,0.5-2.3,1.6-2.8c1.1-0.5,2.2-1,3.4-1.4c2.7-0.9,4.2-3.8,3.5-6.6c-0.2-0.5-0.4-0.9-0.8-1.3c0.2,4.5-2.8,6.2-6.1,7.9
		c-3.1,1.6-4.2,5.7-3.1,9C197.5,110,197.8,110.5,197.9,111.1z"/>
	<path id="XMLID_105_" d="M179.6,69.2c0,1.1-0.1,2.2,0,3.2c0.2,1.2,0.4,2.4,0.9,3.5c1.1,3,0.9,4-1.7,6c-3,2.4-3,2.7,0.1,5
		c0.9,0.6,1.7,1.2,2.6,1.8l0.3-0.3c-0.7-0.8-1.3-1.7-2.2-2.5c-1.5-1.3-1.5-2.3,0-3.6c0.3-0.2,0.7-0.5,1-0.7c1.7-1.1,2.1-1.7,2.9-4.7
		c0.8,1.3,0.8,2.4-0.3,3.5c-1,0.9-2,1.7-3,2.5c-1.2,1-1.2,1.3,0,2.3c2.7,2.3,3.6,5.4,3.7,8.8c0,0.9-0.1,1.8-0.4,2.6
		c-0.1-0.7-0.2-1.3-0.3-2c-0.2-2.9-1.8-4.9-4.1-6.5c-0.9-0.6-1.7-1.3-2.5-2c-1.5-1.3-1.4-2.8,0.1-4.1c0.7-0.6,1.5-1.2,2.3-1.8
		c1.3-1,1.5-2.2,0.8-3.8c-1-2.1-1.5-4.3-1-6.6c0.1-0.3,0.2-0.6,0.4-0.9L179.6,69.2z"/>
	<path id="XMLID_104_" d="M66.5,124.3c0.3,1.4,1.1,2,2.5,1.6c1.1-0.4,2.2-0.8,3.6-1.3c-2.8,3.3-5.8,3.1-7.3-0.4
		c-1.1-0.1-2,0.2-2.2,1.4c-0.2,1.3,0.6,2,1.8,2.2c1,0.2,2.1,0,3.1,0c-1.3,1.1-2.9,1.4-4.2,0.6c-1.1-0.6-1.7-1.6-1.5-2.9
		c0.1-1.3,0.7-1.7,2.7-2.4c0.1-5,5.9-8.8,9-6.9c-2.2,0.5-4.5,0.3-5.9,2.6H73l0.1,0.4c-2.6,0.7-6.4-0.6-7.1,3.9
		c2.7,0.5,5.4,1.7,7.2-1.6c0.5,1.5-0.3,2.7-2.4,3.1C69.5,124.8,68,124.4,66.5,124.3z"/>
	<path id="XMLID_103_" d="M249.2,142.6c-4.3,1.6-11.2-1.8-11.7-6c-0.2-1.9,0.6-4,0.9-5.9c0.3-1.3,0.7-2.6,0.9-4
		c0.4-3.2-0.9-5.4-3.7-6.8c-2.2-1.1-4.4-2.2-6.3-3.6c-2.6-1.8-4.2-4.3-4.4-7.5c0-0.3,0.1-0.6,0.3-0.9c0.1,0.2,0.1,0.4,0.2,0.6
		c0.3,4.2,3,6.7,6.5,8.5c1,0.6,2,1,3,1.5c5.3,2.1,6.2,6,4.8,11.2c-0.4,1.3-0.9,2.6-1.2,3.9c-0.9,3.6,0.6,6.4,4.1,7.5
		C244.7,141.8,247,142.2,249.2,142.6z"/>
	<path id="XMLID_102_" d="M181.6,22.9c-0.5-1.4,0.4-3.3,1.5-3.7c1.4-0.5,2.7,0.6,2.4,2.2c-0.3,1.3-1,2.6-1.6,3.9
		c3,2.9,5.8,3.2,9.3,0.9c-1,3.2-5,3.1-9.8-0.3c-1.9,0.9-3.6,1.9-5.4,2.4c-1.8,0.5-3.8,0.5-5.7,0.8l-0.1-0.7c1.2-0.1,2.4-0.2,3.6-0.4
		s2.3-0.5,3.7-0.9c-0.8-2.4-1.2-4.7,0.2-6.7c0.7-0.9,1.5-1.8,2.4-2.4c-2.1,2.6-2.7,5.4-1.9,8.7c2-1.3,3.8-2.6,4.3-5
		c0.1-0.5-0.4-1.1-0.6-1.7c-0.5,0.3-1.1,0.6-1.5,1C182,21.5,181.9,22.2,181.6,22.9z"/>
	<path id="XMLID_101_" d="M190.9,25.2c0.7-1.6,1.6-3,3.4-2.6c1.7,0.3,1.9,2,2.1,3.4c0.3,2.6,0.3,5.2,0.6,7.7
		c0.1,0.9,0.5,1.7,0.9,2.5c0.1,0.3,0.7,0.7,0.9,0.6c0.4-0.2,0.7-0.5,0.8-1c0.8-2.5,0.8-5.1,0.2-7.7c-0.1-0.2-0.1-0.5-0.2-0.9
		c1.6,2.8,1.8,6.1,0.6,9.1c-0.7,1.5-2.1,1.8-2.9,0.4c-0.8-1.3-1.1-2.9-1.4-4.4c-0.2-1.4,0-2.8-0.3-4.3c-2.6,3.1-5.8,3.7-9.5,3.4
		c-2-0.2-3.7-1.1-5.2-2.4l0.2-0.4c0.6,0.2,1.1,0.5,1.7,0.7c2.3,1.3,5.1,1.7,7.7,1.1c1.9-0.4,3.4-1.4,4.3-3.1
		c0.4-0.8,0.5-1.7,0.4-2.6c-0.3-1.8-1.3-2.1-2.7-1C192.1,24.3,191.5,24.7,190.9,25.2z"/>
	<path id="XMLID_308_" d="M110.7,134.6c0.1-0.3,0-0.5,0.1-0.6c3.8-2.3,5.3-6.2,6.7-10.1c1.1-2.9,1.9-5.9,2.9-8.8
		c0.5-1.3,0.1-2.5-0.8-3.5c-0.4-0.5-0.9-1-1.3-1.5c-0.7-0.9-0.7-1.6,0.5-2.2c2.1-1,4.4-1.2,6.6-1l0.1,0.5l-4.5,0.6
		c1.8,3.4,0.6,6.7-0.4,9.8c-1.3,4.1-3,8.1-4.7,12C114.8,132.3,112.6,134.1,110.7,134.6z M120.9,112l0.4-0.2l-1-3.6
		c-0.8,0.5-2,0.5-1.3,1.6C119.6,110.6,120.3,111.2,120.9,112z"/>
	<path id="XMLID_98_" d="M137.2,39.6l4.1-2.7l0.5,0.5c-3.9,2.7-7.4,5.7-5.3,11.2c-0.2-0.2-0.4-0.4-0.6-0.6s-0.3-0.5-0.7-1l-2.8,2.9
		l-0.3-0.1c0.5-0.7,0.8-1.5,1.4-2.1c1.1-1,1.4-2.1,1.8-3.4c0.8-2.5,0.9-4.9,1.1-7.5c0.4-3.8,3.2-5.9,6.7-7.1
		c0.9-0.3,1.9-0.5,2.8-0.6c2.2-0.3,4.4-0.5,6.1-2.7c0.2,1.6-0.7,2.2-1.6,2.5c-1.8,0.6-3.7,1-5.6,1.4c-2.8,0.6-5.2,1.8-6.8,4.2
		C136.9,35.9,136.6,37.9,137.2,39.6z"/>
	<path id="XMLID_97_" d="M116.5,42.4c0.1-2.6-0.2-5.1-2.2-7c-4.8-4.4-10.9-4.2-14.4,0.5c-2.1,2.7-1.7,5.6,1.1,7.8
		c0.1,0.1,0.2,0.3,0.3,0.4l-0.4,0.4c-0.8-0.6-1.7-1.1-2.2-1.8c-2.3-3.3-0.8-7.7,3.1-10.1c4.9-2.9,11.6-1.1,14.4,3.9
		C117.1,38.4,117.3,40.5,116.5,42.4z"/>
	<path id="XMLID_96_" d="M100.5,100.5c1.8,0.2,3.5,0.5,5.3,0.6c0.7,0,1.5,1.2,2.1-0.1c0.3,0.2,0.7,0.4,1,0.6
		c0.4,0.3,0.7,0.6,1.3,0.6l-0.9-1.2l2.1,1.1l-0.5-1.5l3.4,2.3l-0.1-1.3l0.9,0.8l0.6-1.5c0.1,1,0.2,1.6,0.3,2.3
		c3.8-1.1,7.6-2.2,11.4-0.5v0.4c-0.5,0-0.9,0-1.4,0c-3.8-0.7-7.5,0-11,1.3c-0.7,0.3-1.4,0.3-2.1,0c-3.7-1.8-7.6-3.1-11.8-3.2
		c-0.2,0-0.5-0.1-0.7-0.2L100.5,100.5z"/>
	<path id="XMLID_95_" d="M151.1,130c-4,0.8-8.1,0.4-11.8-1.2c-3.8-1.6-6.7-4.2-8.5-7.9c-1.2-2.5-2.4-5-3.5-7.6
		c-0.1-0.4-0.2-0.9-0.1-1.3c0.1-1.3,0.3-2.6,0.4-4.1c0.8,0.6,1.2,1.8,0.8,2.7c-0.6,1.7-0.1,3.2,0.6,4.6c1.2,2.3,2.1,4.7,3.6,6.9
		c2.9,4.5,7.3,6.6,12.5,7.2c1.7,0.2,3.3,0.1,5,0.1c0.4,0,0.8,0.1,1.2,0.1L151.1,130z"/>
	<path id="XMLID_301_" d="M105.1,111.9l-2.2-0.7c1.5-2.1,3.7-2.5,5.9-3.1c2.3-0.6,4.6-0.6,6.8,0.9c-3.1-0.9-6.2-0.8-9.2,0.5l0,0.5
		c0.7,0,1.4,0,2.1,0c1.9-0.1,3.9-0.3,5.8-0.3c0.5,0,1,0.3,1.5,0.5l-0.1,0.4l-2.1-0.2c0.1,0.5,0.2,1,0.2,1.4l3.5,0.7l0,0.6
		c-3.2-0.9-6,0.5-9,1.1c-0.9,0.2-1.8-0.1-2.7-0.1v-0.5l2.8-0.2L108,111l-3,1.9L105.1,111.9z M113.1,112.1c-0.3-1.7-1.4-2.2-3.4-1.7
		c-0.9,0.3-1.1,0.9-0.8,1.6c0.3,0.5,0.8,0.8,1.4,0.8C111.2,112.8,112.1,112.4,113.1,112.1z"/>
	<path id="XMLID_92_" d="M175.3,120.1c-2.4,3.6-6.7,3.4-8.8-0.4c-1-1.8-1.6-3.8-1-5.8c0.9-3.2,1.9-6.4,2.8-9.5l0.4,0.1
		c-0.3,1.4-0.6,2.8-0.9,4.1c-0.5,2.1-1.2,4.1-1.5,6.2c-0.2,1.5,0,3.1,1.2,4.3c-1-3.8,0.1-7.1,1.6-10.4l0.5,0.1
		c-0.2,0.6-0.4,1.3-0.6,2c-0.3,2-0.7,4-0.9,6c-0.1,0.8,0.3,1.7,0.6,2.5c1.2,2.8,3.1,3.3,5.6,1.6C174.7,120.5,175,120.3,175.3,120.1z
		"/>
	<path id="XMLID_91_" d="M257.8,111.8c-1.7,1.2-3.5,1.2-5.3,0.2c-2.2-1.2-2.8-3.4-2.6-5.7c-4.2-0.3-6.2-3.6-6.2-9.3l-3.6,2.2
		c-0.1-0.1-0.1-0.2-0.2-0.4l4.9-4.3l0.3,0.1c-0.1,0.4-0.1,0.8-0.2,1.1c-0.7,3-0.4,5.8,1.7,8.1c0.4,0.5,0.9,0.8,1.5,1
		c1.1,0.4,2.1,0.4,2.7-1c0.3-0.6,1-1.1,1.5-1.5c0.1-0.1,0.7,0.4,0.7,0.4c-0.3,0.7-0.4,1.6-1,2c-1.5,1.1-1.6,2.5-1.1,4
		c0.6,1.7,1.8,2.8,3.7,2.9C255.6,111.9,256.6,111.8,257.8,111.8z"/>
	<path id="XMLID_90_" d="M239.6,154c1.5,0,2.5,0.8,3.4,1.8c0.8,1,1.4,2.2,2.1,3.4c0.3-2.1-1.3-5-3.6-6.4c-2.2-1.4-4.6-2.2-7.4-0.9
		c0.8-1.3,2.1-1.8,3.8-1.5c5.4,0.9,9.1,5.5,8.5,11c-0.2,1.7-0.6,3.3-1.3,4.9C245.4,161.2,243.9,157,239.6,154z"/>
	<path id="XMLID_89_" d="M174.5,110.8c-2.8-3.3-3.1-7.3-0.7-9.9c5.7-6.1,2.6-12.7-1.5-16.5c0.5,0.3,1.1,0.5,1.6,0.9
		c2.3,2,3.7,4.6,4,7.6c0.1,1,0.3,1.5,1.3,1.9c1.9,0.9,3.1,2.5,3.8,4.4l-4.8-4.5c-0.3,0.7-0.3,0.8,1.2,2.3l-1.6-0.6
		c-1.3,2-2.7,3.9-4,5.9c-0.9,1.5-1,3.1-0.5,4.7C173.6,108.2,174,109.3,174.5,110.8z"/>
	<path id="XMLID_88_" d="M73.8,204.3c1.6,2.3,4,4.1,4.1,7.4c0,1.4-0.3,2.5-1.5,3.1c-1.4,0.7-2.9,1.1-4.3,1.7
		c-0.9,0.4-1.9,0.7-2.7,1.3c-0.5,0.4-0.7,1.1-0.7,1.7c0,0.3,0.9,0.7,1.4,0.8c2.5,0.3,4.5-0.8,6.6-2c0.6-0.3,1.1-0.7,1.7-1.2
		c-1.5,2.7-5.5,4.6-8.5,4c-0.8-0.2-2.1-0.9-2.1-1.5c0-1,0.4-2,1.1-2.7c0.9-0.8,2.2-1.2,3.4-1.5c4.7-1,5.8-3.1,3.1-7.4l-2.1-3.4
		L73.8,204.3z"/>
	<path id="XMLID_87_" d="M106.5,163.7c0.6-2.1,0.7-4.4,3-5.7c-0.2,0.5-0.4,1-0.7,1.4c-1.5,2.6-1.1,5.1,0.2,7.7
		c1,1.9,1.8,3.8,1.4,6.1c-0.4,2-1.6,3.3-3.8,4.4c0.8-1,1.4-1.7,1.9-2.4c1.7-2.5,1.5-5.1-0.5-7.4c-3.3-3.6-3.7-7.8-1-11.9
		c0.1-0.1,0.2-0.1,0.6-0.3C107.4,158.5,105.6,160.9,106.5,163.7z"/>
	<path id="XMLID_86_" d="M123.5,37.1c3.4-4.8,7.4-6.7,10.3-4.9c-1.1,0.1-2.3,0.2-3.5,0.4c-2.3,0.3-4.2,1.7-5.3,3.7
		c-0.9,1.6-0.8,1.8,0.9,2.6c0.4,0.2,0.8,0.3,1.2,0.5l-0.1,0.5l-2.7-0.6c-0.5,1.8-0.3,2.1,2.6,3.6c-0.9,0.6-2.3,0.2-3-0.8
		c-0.2-0.2-0.3-0.4-0.3-0.7c0-2.3-1.4-4.1-2-6.1c-1-3.1,0.6-7.5,3.3-9.4c0.5-0.3,1-0.6,1.6-0.7C121.9,29.7,120.8,34,123.5,37.1z"/>
	<path id="XMLID_85_" d="M202.6,201.7l-5-0.3c0-0.2-0.1-0.3-0.1-0.5l3.6-0.6c-0.2-0.5-0.3-1.2-0.6-1.6c-1.6-2.1-3.2-4.2-4.9-6.2
		c-1.5-2-3-4.2-2-6.7c0.8-2,2.3-3.7,3.7-5.5c0.5-0.7,1.5-1,2.2-1.4l0.2,0.3c-0.6,0.5-1.2,0.9-1.7,1.5c-1.2,1.6-2.6,3.3-3.4,5.1
		c-0.8,1.6-0.3,3.3,0.8,4.7c1.9,2.5,3.8,4.9,5.6,7.4C201.7,199,202,200.3,202.6,201.7z"/>
	<path id="XMLID_84_" d="M120.1,75.7c-1.1-0.9-2.1-1.7-3.1-2.4c-0.9-0.6-2-0.9-3.5-1.5c2,3.4,3.4,6.5,3.4,10.1
		c-0.2-0.5-0.4-1.1-0.6-1.6c-1.1-4.4-3-8.2-6.8-11c-1-0.7-1.8-1.6-2.5-2.6c-0.4-0.6-0.5-1.4-0.7-2l4.1,4.8l0.5-0.3
		c-0.5-1.9-2.1-3.8-0.4-5.9c0.1,1.2,0,2.3,0.3,3.4c0.8,2.5,2,4.7,5,5.4C117.6,72.5,119.2,73.6,120.1,75.7z"/>
	<path id="XMLID_83_" d="M124.5,46.8c2.8,3.4,3.3,6.8,1,8.2c0.2-1.1,0.3-2.2,0.5-3.5l-3,0.3l-0.1-0.4l2.7-1
		c-0.9-3.6-3.5-4.5-8.1-2.8c2.5-3.3,8.1-2.6,10.1,1.4c0.6,1.1,1.3,1.4,2.4,1.5c2.4,0.2,4.7,0.9,6.5,2.7c-1.3-0.5-2.5-1-3.8-1.4
		c-1.3-0.3-2.6-0.5-4-0.7l-0.5,1.7C127.9,50.1,127.1,47.9,124.5,46.8z"/>
	<path id="XMLID_288_" d="M202.4,58.5l4.2-1.2c-0.6-0.8-1-1.5-1.4-2c-1.1-1.4-1-2.8-0.3-4.3c0.7-1.6,2.2-2.2,3.8-1.8
		c1.6,0.5,2.4,1.9,2,3.6c-0.2,0.8-0.6,1.6-1.1,2.3c-0.5,0.7-1,1.3-1.5,1.9c2.1,2.1,3.9,1.6,7.2-2c-0.1,3-4.1,5-6.8,3.4
		c-0.9-0.6-1.6-0.6-2.6-0.1c-1,0.5-2.2,0.5-3.3,0.7L202.4,58.5z M207.6,56.7c0.8-1.5,1.6-2.7,2.1-4.1c0.4-1-0.1-2.1-1.1-2.5
		c-0.1,0-0.1,0-0.2-0.1c-1.1-0.4-2.1,0-2.7,1.1C204.5,52.9,205,54.5,207.6,56.7L207.6,56.7z"/>
	<path id="XMLID_80_" d="M147.8,60.5c5.7-3.9,5.1-8,0.9-11.5c3.1,0.8,3.7,3,4.2,5.5c0.8-1.5,0.2-2.6-0.5-3.6c-0.8-1.1-1.7-2-2.7-2.8
		c-0.9-0.8-2-1.4-3.3-2.3c2.9-0.2,7.2,3.7,7.6,7.1S151.9,59.9,147.8,60.5z"/>
	<path id="XMLID_79_" d="M164.7,103.9c-0.2,7.3-1.1,14.4-5.2,20.7c-1.4,2.2-3.4,3.5-5.7,4.6c-0.2,0.1-0.4,0-0.8,0
		c0.2-0.4,0.3-0.7,0.5-0.8c6.1-2.7,7.8-8.3,9.3-14c0.7-2.6,0.9-5.4,1.3-8.1C164.3,105.4,164.5,104.7,164.7,103.9z"/>
	<path id="XMLID_78_" d="M210.3,67.2c0.2,0.3,0.4,0.6,0.6,0.9c2.1,3.7,5.3,4.3,9.2,3.4c2.2-0.5,4.5-1,6.7-1.1c3.8-0.1,7.5,4.4,7,8.2
		c0,0.1-0.1,0.1,0.1,0c-1.1-1.8-2-3.8-3.3-5.5c-1.9-2.4-4.5-2-7.1-1.5c-2.6,0.4-5.4,1.1-8.1,1s-4.2-2.2-5.3-4.5
		c-0.1-0.2-0.1-0.4,0-0.6C210.1,67.3,210.2,67.3,210.3,67.2z"/>
	<path id="XMLID_77_" d="M154.2,174.9c2.9-2.6,6-5.2,8.9-8.2s5.4-6.1,8.2-9.3C171.2,161.1,158.2,174,154.2,174.9z"/>
	<path id="XMLID_76_" d="M149.4,147.6l0.3-0.3l2-0.6c-1.2,1.1-2.1,1.8-3,2.7c-2.1,2.1-4.1,4.3-6.3,6.2c-1.9,1.6-4,3-6.1,4.3
		c-3.6,2.3-7.1,1.9-10.5-0.5c-1-0.7-1.8-1.5-2.7-2.3l0.3-0.4c0.8,0.6,1.7,1.2,2.5,1.8c4.1,2.9,6.8,2.7,11,0.2
		C141.9,155.7,145.6,151.6,149.4,147.6z"/>
	<path id="XMLID_75_" d="M183.6,181.8c-2.9-2.4-0.6-6.9,4.5-9.6c-1,0.1-2.1,0.2-3.1,0.3c-2.7,0.3-4.6-0.8-5.1-3.2
		c-0.2-0.7,0.1-1.6,0.2-2.4l0.5,0c0,0.3,0,0.5,0,0.8c-0.3,2.5,1.2,4.1,3.7,4c1-0.1,1.9-0.2,2.9-0.3c0.9-0.1,1.8-0.2,3.1-0.3
		l-1.4,0.7l0.3,0.4l1.7-0.2l0.1,0.3c-1,0.4-1.9,0.8-2.9,1.2c-2.7,1-4.6,2.8-4.7,5.9C183.3,180.1,183.5,180.9,183.6,181.8z"/>
	<path id="XMLID_74_" d="M140.1,48.8c-1.1-2.2-0.7-4.3,0.8-6.1c1.7-1.9,3.2-2.4,5.7-1.5c0.9,0.3,2.1,0.6,2,2.2
		c-1.7,0-3.6-0.5-5.1,0.9l1.6,0.8c-1,0.7-2.5-0.6-2.9,1.1c-0.2,1-0.3,2.1-0.5,3.2c-1.7-3.2,0.4-6.4,5.1-7.3
		c-1.5-0.7-2.8-0.7-3.9-0.1C140.3,43.6,140.3,46.2,140.1,48.8z"/>
	<path id="XMLID_73_" d="M64,120.2c-1.7,1.1-3.1,1.3-4.6,0.5c-1.7-1-2.2-2.5-2.3-4.3c0-0.8-0.3-1.6-0.6-2.4c-0.4-1.3-1-2.5-1.3-3.8
		c-0.1-0.6,0.2-1.3,0.5-1.9c0.1,2.1,0.5,4.1,2,5.8c1.2-1.5,2.1-3.2,4.6-3.7l-4.3,4.5l5.4,2l-0.1,0.3l-5.1-1.2
		C57.2,118.8,59.3,120.5,64,120.2z"/>
	<path id="XMLID_72_" d="M157.4,29.9c-2.2-2-1.6-5.2,0.3-7.3c3.1-3.4,6.9-3.8,10.2-0.7c-3.3-1.1-6.1-0.8-8.1,2.2
		c-1.4,2.1-1.1,4.3,0.4,6.2l-0.3,0.3c-0.4-0.4-1-0.8-1.3-1.3c-1.1-2.5,0.1-6,2.4-7.5c0.5-0.3,1.1-0.6,1.8-1
		C158.7,20.3,155.7,25.1,157.4,29.9z"/>
	<path id="XMLID_71_" d="M77.5,178.1c-1,1.9-3,2.6-5.4,2.2c-4.1-0.7-7.2-3.2-7.7-6.4c1.2,2.4,3.2,3.6,5.7,4.1
		c2.6,0.6,4.7-0.4,6.8-1.9c-0.6,2.1-2.4,2.6-4.2,3.2C74.6,180.1,75.9,178.8,77.5,178.1z"/>
	<path id="XMLID_70_" d="M80.3,183.8c-0.1,0.7-0.2,1.5-0.3,2.2c-0.5,2.3,0.1,4.2,1.2,6.2c1.1,1.8,1.8,3.7,2.3,5.7
		c0.6,2.9-0.7,4.5-3.6,5.4c0-0.1,0-0.2,0-0.2c3-2.4,3.4-3.8,1.9-7.4c-0.4-1.1-1-2.1-1.6-3.1c-1.7-2.6-1.5-5.4-0.7-8.2
		c0.1-0.3,0.3-0.5,0.5-0.7L80.3,183.8z"/>
	<path id="XMLID_69_" d="M115.1,210c-2.9-0.2-4.8-2.5-4.1-5.1c0.5-1.7,1.3-3.3,2.2-4.8c1.7-2.7,3.6-5.2,4.3-8.4
		c0.2-1,0.3-2.1,0.5-3.6c0.9,2,0.4,3.7-0.1,5.1c-0.9,2.3-2.2,4.4-3.4,6.6c-0.8,1.5-1.9,2.8-2.5,4.3c-0.9,2.3-0.2,3.8,1.9,5.1
		L115.1,210z"/>
	<path id="XMLID_68_" d="M218.8,75.1c2.3,0.5,3.7,2.5,3.8,5.2c0,0.8,0,1.6,0,2.4c0,2.4,1.8,4.7,4.1,5.3c2,0.5,3.3-0.6,4.3-2.4
		c-0.1,2.9-2.2,4.2-4.9,3.3c-2.6-1-4.5-3.5-4.4-6.3C221.8,79.6,221.3,77,218.8,75.1z"/>
	<path id="XMLID_67_" d="M162.9,176.8c-1.5,0.1-1.8-0.2-1.1-1.6c0.6-1.1,1.3-2.2,1.7-3.6l-3.2,2.5c0.6-1.9,3.6-4.2,5.9-4.2l-3.8,5.7
		c1.7-0.4,1.7,0.1,1.5,1.4c-0.3,2-0.2,4.1-0.2,6.2c0,0.8,0.1,1.6,0.1,2.3C162.6,182.7,162.5,179.8,162.9,176.8z"/>
	<path id="XMLID_66_" d="M106.4,35.6c3.6-1.9,7.8,2.2,7.4,6.1c-0.4,3.6-4.3,7.1-7.9,7.3c-0.6,0-1.2-0.2-1.7-0.5
		c1.3-0.3,2.7-0.4,3.8-0.9c1.3-0.6,2.5-1.4,3.4-2.4c1.5-1.7,2-3.8,1-5.9c-1-2-2.5-3.4-4.9-3.5C107.2,35.6,106.9,35.6,106.4,35.6z"/>
	<path id="XMLID_65_" d="M53.9,82.3c-0.4,1.3-0.8,2.6-1.3,3.9c-1.6,5.1,0.2,8.5,5.3,10.1c0.1,0,0.1,0.1,0.5,0.6
		c-0.8,0-1.4,0.1-1.8,0c-3.6-1-6.1-4.9-5.5-8.6C51.3,86,52,83.9,53.9,82.3z"/>
	<path id="XMLID_64_" d="M84.2,173.9c0,1.6-0.9,2.4-2,2.8c-1.3,0.5-2.8,0.3-3.9-0.6c-3.6-2.9-2.7-8.6,1.7-10.5
		c1-0.4,2.1-0.6,3.1-0.9l0.2,0.5c-0.8,0.3-1.7,0.7-2.5,1c-2.1,0.9-3.6,2.4-3.9,4.8c-0.3,1.8,0.7,3.8,2.3,4.7
		c1.3,0.7,2.5,0.6,3.6-0.4C83.3,174.9,83.7,174.5,84.2,173.9z"/>
	<path id="XMLID_63_" d="M235.6,98.1c-1.6-0.5-2.1-1.4-1.7-2.9c0.4-1.3,0.8-2.5,1.2-3.7c1.6-4.1,0.9-7-2.3-10
		c-1.1-1-2.1-2.1-3.1-3.2c5.4,3,8.5,8,6.3,13c-0.4,0.9-0.6,1.8-1,2.7C234.5,95.5,234.2,96.9,235.6,98.1z"/>
	<path id="XMLID_62_" d="M189.9,110c-2.1,0.2-3.7-0.8-4.3-2.8c-0.4-1.1-0.5-2.3-0.4-3.4c0.2-2.1,0.9-4.2,1-6.3
		c0-2.1-0.5-4.2-0.7-6.4c0.4,0.8,0.9,1.5,1.1,2.3c0.8,2.5,0.7,5.1,0,7.6c-0.2,0.7-0.4,1.5-0.5,2.2
		C185.4,106.6,186.6,108.7,189.9,110z"/>
	<path id="XMLID_61_" d="M153.4,49.3c-0.2-1.1-0.6-2.3-0.6-3.4c0-1.5-0.4-2-1.9-1.7c-0.3,0-0.5,0-0.8-0.1l-0.1-0.4
		c0.6-0.1,1.3-0.2,1.9-0.4c0.4-0.1,0.8-0.3,1.1-0.5c-0.4-0.2-0.8-0.5-1.2-0.6c-0.4-0.1-0.9-0.1-1.3,0l-0.1-0.4
		c0.4-0.1,0.9-0.4,1.3-0.4c1.5,0.3,1.8-0.6,2.3-1.7c0.6-1.3,1.4-2.5,2.4-3.6c-2.2,4.2-3.4,8.5-2.6,13.3L153.4,49.3z"/>
	<path id="XMLID_60_" d="M155.3,176.6c-2.3,2.9-14.9,6.1-18.9,4.7C142.9,180.2,149.5,179.8,155.3,176.6z"/>
	<path id="XMLID_59_" d="M174.1,103.9c0.5,0.2,0.8,0.3,1.1,0.4c2,0.8,3.6-0.1,3.5-2.3c0-0.9-0.3-1.8-0.6-2.6c-0.2-0.5-0.4-1-0.7-1.5
		c2.5,1.3,2.7,4.1,0.7,7.5c2.2,0.1,2.3-0.1,3.1-4.4c0.9,1.7,0.4,3.9-1.1,4.8C178.4,106.7,175.1,105.8,174.1,103.9z"/>
	<path id="XMLID_58_" d="M101.7,91.3c2.3,2,4.9,3.2,8.1,2.7c3.2-0.5,5-2.6,6.4-5.5c0.5,2.1-1.5,4.7-4.2,5.8
		C108,95.8,103.4,94.6,101.7,91.3z"/>
	<path id="XMLID_57_" d="M114.2,86c0.3,2.4-2.5,5.2-5.3,5.6c-4.3,0.7-7.8-0.9-8.6-4.4c1.9,2.8,4.4,3.7,7.3,3.6
		C110.8,90.7,112.6,88.8,114.2,86z"/>
	<path id="XMLID_56_" d="M205.6,154.7c1.4,2.2,0.1,5.4-3.9,7.4c-2.6,1.4-7.8-0.2-9.3-3.2c0.8,0.4,1.2,0.7,1.6,0.9
		c1.1,0.6,2.2,1.2,3.4,1.7c3.4,1.4,8-2,8.1-5.4C205.5,155.6,205.6,155.2,205.6,154.7z"/>
	<path id="XMLID_55_" d="M205.8,202.9c0.7,2.2,0.5,4.3-1.3,5.8c-2.4,2.2-5.4,3.2-8.5,3.9c-0.4,0-0.8-0.1-1.2-0.3
		C199.6,210.4,205.4,209.8,205.8,202.9z"/>
	<path id="XMLID_54_" d="M215.9,69.8c1.7-0.5,3.7-0.9,5.4-1.8c2.2-1.1,2.3-4.2,0.3-5.4c-0.7-0.4-1.8-0.5-2.7-0.4
		c-1,0.1-2,0.6-3.3,0.9c2.5-2.3,5.3-2.6,7-0.9c1.3,1.3,1.5,2.7,0.9,4.3C222.6,69.2,218.1,70.8,215.9,69.8z"/>
	<path id="XMLID_53_" d="M251.8,150.5c0-0.2,0-0.3,0.1-0.3c1.5-2.2,1.7-3.4,0.6-4.7c-0.9-1.1-2.5-1.2-4.6-0.3
		c-2.1,0.9-3.8,2.2-4.5,4.6l-0.4-0.2c0-0.3,0-0.7,0.1-1c0.9-2.5,4.6-4.9,7.3-4.9c1.7,0,3.2,1.3,3.5,3
		C254.1,148.3,253.2,149.9,251.8,150.5z"/>
	<path id="XMLID_52_" d="M122,169.1c0.6,0.8,1.3,1.6,1.7,2.5c1.6,4.4,4.7,7.1,9,8.6c0.4,0.2,0.8,0.4,1.2,0.6c-2.1,0.3-6-1.3-7.8-3.7
		c-1.8-2.4-3.1-5.1-4.6-7.6L122,169.1z"/>
	<path id="XMLID_51_" d="M111.2,192.2c-0.5,1.2-0.9,2.4-1.6,3.4c-0.7,1.1-1.5,2.1-2.5,3c-2.4,2.1-4,4.5-3.3,8.1
		c-0.9-1.2-1.1-2.8-0.6-4.2c0.4-1,0.9-2,1.7-2.9c2.2-2.3,4.6-4.6,5.7-7.7L111.2,192.2z"/>
	<path id="XMLID_50_" d="M184.7,118.6c3.3-0.5,7.3,2.5,8.7,6.3c1,2.9,0.2,6-2.1,7.3c2-2.7,2.5-5.6,0.7-8.5
		C190.4,121,187.8,119.4,184.7,118.6z"/>
	<path id="XMLID_49_" d="M64.8,129.7c-1.9,0.8-4,0.4-5.1-0.9c-1.2-1.6-1.3-4.2-0.1-5.7c0.8-1.1,2.9-1.7,4.5-1
		c-2.6,0.8-5.1,1.6-4.4,4.8C60.2,129.6,62.8,129.1,64.8,129.7z"/>
	<path id="XMLID_48_" d="M249,129.2c-0.5-2.5-2.7-3.5-4.6-4.6c-2.4-1.5-3.7-3.6-4.1-6.4c0-0.6,0-1.2,0-1.8l0.4,0
		c0.2,0.8,0.3,1.7,0.5,2.5c0.3,1.9,1.4,3.6,3.1,4.7c1.1,0.7,2.2,1.4,3.3,2.2C248.7,126.6,249.4,127.6,249,129.2z"/>
	<path id="XMLID_47_" d="M146.5,40.3c-2.7-0.8-5-0.2-6.8,1.9c-1.8,2.1-1.3,4.8-1.2,7.4c-1.7-2.8-0.9-6.8,0.9-8.4
		C141.8,39.1,144.4,38.6,146.5,40.3z"/>
	<path id="XMLID_46_" d="M186.4,131.4c5.3-3.2,4.3-8.3-2.1-11.6c2.7-0.1,5.8,2.9,6.2,5.9C190.9,128.4,189.3,130.7,186.4,131.4z"/>
	<path id="XMLID_45_" d="M231.3,167.3c-1-4-3.5-6.7-7.4-8c1.5-0.7,2.5-0.5,4.8,1.5C230.6,162.4,232,164.5,231.3,167.3L231.3,167.3z"
		/>
	<path id="XMLID_44_" d="M105.2,51.6c0.9,1.6,0.9,3.2-0.3,4.5c-0.6,0.7-1.2,1.2-1.8,1.8c-1.9,1.8-3.3,3.9-3.5,6.7
		c-0.5-1.8,0-3.3,1-4.7c0.7-1.1,1.5-2.1,2.5-3c1.4-1.3,2.2-2.7,2-4.7C105.1,52,105.1,51.8,105.2,51.6z"/>
	<path id="XMLID_43_" d="M136.6,135.3c-1.7,0.2-3.5,0.2-5.1,0.6c-1.5,0.4-2.8,1.3-4.3,1.8c1.1-2.3,7.9-4.3,9.4-3L136.6,135.3z"/>
	<path id="XMLID_42_" d="M152.5,141.6c-1.1,0.7-13.9,1.1-15.2,0H152.5z"/>
	<path id="XMLID_41_" d="M75.2,120.3c0.3,2.6,0.9,4.8,3.1,6.3c2.3,1.6,4.3,0.8,6.7-0.7c-1.9,2.4-4.2,3-6.3,1.8
		C75.7,126.1,74.1,122.9,75.2,120.3z"/>
	<path id="XMLID_40_" d="M78.3,164.3c-1.2,1.9-2.7,3.4-3.2,5.1c-0.5,1.6,0,3.6,0,5.7c-1.1-1.4-1.6-2.9-1.3-4.5
		C74.3,167.9,75.6,165.8,78.3,164.3z"/>
	<path id="XMLID_39_" d="M76.3,116.9c1.4,8.2,1.7,8.4,8,6.5c-3.2,3.4-6.6,1.9-7.6-0.9C76,120.7,75.6,118.9,76.3,116.9z"/>
	<path id="XMLID_38_" d="M104.6,208.9c-1.5-2.8,0.4-7.7,5-10.2c-1.2,1.5-2.7,2.9-3.6,4.6C105.2,205.1,105,207.1,104.6,208.9z"/>
	<path id="XMLID_37_" d="M86.2,79.9c2.8-2.3,10.3,2.1,12.4,5.7C95.1,82.7,91.5,79.6,86.2,79.9z"/>
	<path id="XMLID_36_" d="M169.6,42.9c2.1,0.6,4.2,1,6.2,1.8c2.3,0.9,3.6,3.7,2.9,6.4c-0.1-0.3-0.2-0.7-0.3-1
		c-0.4-3.2-1.7-4.6-4.9-5.3c-1.4-0.3-2.8-0.9-4.2-1.3L169.6,42.9z"/>
	<path id="XMLID_35_" d="M142.3,186.5c1.9,2.5,3.3,5.5,7.2,6C146.6,193.8,142.4,190.1,142.3,186.5z"/>
	<path id="XMLID_34_" d="M128,138.5c-0.7,1.5-2.1,1.7-4.7,1c-3.5-1-5.3-3.3-4.9-6.6c0.4,2.2,1,4.2,3.2,5.2
		C123.7,138.9,125.7,139.5,128,138.5z"/>
	<path id="XMLID_33_" d="M56.5,149.5c-3.6,4.3-3.6,4.3,1.4,8.5c-2.7-0.4-4.8-2.4-4.7-4.5C53.3,151.5,54.9,149.6,56.5,149.5z"/>
	<path id="XMLID_32_" d="M207.7,108.4c1.8,1.5,2.1,3.9,0.8,5.9c-1.2,1.8-4,2.6-6.1,1.6c2-0.4,4.2,0,5.4-2
		C209,112.1,208.6,110.2,207.7,108.4z"/>
	<path id="XMLID_31_" d="M105.8,174.2c1-3.7-2-5.1-4.4-7.1c2,0,4.4,1.7,5,3.4C107,171.7,107.3,173.1,105.8,174.2z"/>
	<path id="XMLID_30_" d="M110.9,38.9c1.2,2,0.5,3.6-0.4,4.8c-1.6,2-3.7,3.1-6.4,3C107.8,45.6,110.9,43.9,110.9,38.9z"/>
	<path id="XMLID_29_" d="M56.4,163.1c-0.4,4.1,1.3,6.8,6.1,6.5c-1.5,1.2-3.3,1-4.9-0.4C55.6,167.5,55.1,165.4,56.4,163.1z"/>
	<path id="XMLID_28_" d="M118.1,147.8c3.6-0.9,5.8-5.2,10.3-4.1c-3.5-0.2-5.5,2.8-8.3,4c-0.6,0.2-1.2,0.4-1.8,0.6L118.1,147.8z"/>
	<path id="XMLID_27_" d="M186,189.2c1.5,2.7,5,3.5,6.3,6.4C190.2,193.5,186.6,192.8,186,189.2z"/>
	<path id="XMLID_26_" d="M95.2,229.5c2.4,1.9,4.9,2.4,7.7,1.1c-1.3,1.5-2.8,2.1-4.7,1.7C96.7,232,95.6,230.9,95.2,229.5z"/>
	<path id="XMLID_25_" d="M204.1,211c-0.3,1.9-5.5,4.3-7.6,3.4L204.1,211z"/>
	<path id="XMLID_24_" d="M120.5,74.4c-0.5-1.6,0.2-2.8,1.2-3.9c1.4-1.4,3-2.3,5.4-1.8C120.8,70.6,121.7,71.5,120.5,74.4z"/>
	<path id="XMLID_23_" d="M162.1,97c1.5-0.8,4.2-0.7,4.6,0.1c0.8,1.2,1.6,2.4,0,4l-0.6-3.7L162.1,97z"/>
	<path id="XMLID_22_" d="M151.2,200.4c-1.3,1.6-5.4,1.1-6.8-1L151.2,200.4z"/>
	<path id="XMLID_21_" d="M203.9,212.7c-0.6,2.4-4.5,4-7.1,2.9C199.6,215.5,201.9,214.5,203.9,212.7z"/>
	<path id="XMLID_20_" d="M76.6,58.9l-8.3,2C71,59,73.7,58.4,76.6,58.9z"/>
	<path id="XMLID_19_" d="M100,125v-7.8C101.4,118.6,101.4,122.4,100,125z"/>
	<path id="XMLID_18_" d="M140.2,74.6c1.2,2.5,3,4.3,5.8,5.5C143.1,80.1,140.3,77.2,140.2,74.6z"/>
	<path id="XMLID_17_" d="M119.9,123.8c-0.3,2.5-0.6,5-0.8,7.5l-0.6-0.1c0.3-2.5,0.5-5,0.8-7.5L119.9,123.8z"/>
	<path id="XMLID_16_" d="M154.4,106.1h3.8l1,0.9C157.5,107.7,155.4,107.4,154.4,106.1z"/>
	<path id="XMLID_15_" d="M122.1,155.3l-4.5-5.2l0.3-0.2C119.7,151.3,121.7,152.6,122.1,155.3z"/>
	<path id="XMLID_14_" d="M125.8,153.8c0.4,0.6,0.9,1.7,2.2,0.4l0.6,1.6l-5.3-1.3v-0.3L125.8,153.8z"/>
	<path id="XMLID_13_" d="M100.1,128.1c0.5,2,1,4,1.4,5.9C100,133.1,99.3,129.9,100.1,128.1z"/>
	<path id="XMLID_12_" d="M135.7,141.8l-5.5,2C131.1,142,133.7,141.1,135.7,141.8z"/>
	<path id="XMLID_11_" d="M141.2,131c0.3,1.6-1.3,3.4-3.6,3.6L141.2,131z"/>
	<path id="XMLID_10_" d="M125.8,134.5l-1.6,1.4h1.3c-0.9,1-0.9,1-3.1-0.8L125.8,134.5z"/>
	<path id="XMLID_9_" d="M138.5,164.4c-1.2,0.2-2.3,0.4-3.5,0.6c-0.6,0.2-1.2,0.5-1.8,0.8C133.9,164.6,137.3,163.4,138.5,164.4z"/>
	<path id="XMLID_8_" d="M181.4,176.9c-0.3-0.6-0.8-1.1-0.8-1.7c0-1,1.3-1.6,2.6-1.3c-0.6,0.8-2.7,0.9-1,2.8L181.4,176.9z"/>
	<path id="XMLID_7_" d="M142.7,113.1l4.9-0.4C146.1,113.9,144.3,114.1,142.7,113.1z"/>
	<path id="XMLID_6_" d="M134.3,175.4c-2,0.6-2.9,0.2-3.8-1.7L134.3,175.4z"/>
	<path id="XMLID_5_" d="M114.6,150.4c-1.5-1-1.9-2.5-1.2-4C113.8,147.8,114.2,149,114.6,150.4z"/>
	<path id="XMLID_4_" d="M100.4,114l3.6-0.2C102.9,114.9,101.6,115,100.4,114z"/>
	<path id="XMLID_3_" d="M132.7,165l-3,2.5C130.3,165.8,131.3,165.1,132.7,165z"/>
	<path id="XMLID_2_" d="M155.5,138.4c1.7,0.5,2.2,1.2,1.8,2.6L155.5,138.4z"/>
</g>
<g id="XMLID_199_">
</g>
</svg>
