<?xml version="1.0" encoding="utf-8"?>
<!-- Generator: Adobe Illustrator 19.0.0, SVG Export Plug-In . SVG Version: 6.00 Build 0)  -->
<svg version="1.1" id="Ivan_Freaner" xmlns="http://www.w3.org/2000/svg" xmlns:xlink="http://www.w3.org/1999/xlink" x="0px"
	 y="0px" viewBox="0 0 300 250" style="enable-background:new 0 0 300 250;" xml:space="preserve">
<g id="XMLID_156_">
	<path id="XMLID_155_" d="M186.8,194.9c0.1,1.2,0.3,2.4,0.2,3.5c-0.4,2.9,1,5,2.9,7c4,4.3,8.7,7.7,14,10.4c4.5,2.3,9.2,4.2,14.1,5.7
		c0.5,0.2,1,0.3,1.5,0.5c0.1,0,0.2,0.2,0.2,0.3c-12.8-2.2-23.6-8-32.3-17.8c0.5,4.6,1.7,9.1,3.8,13.2c-2.2-1.5-2.6-4.2-3.8-6.3
		l-0.3,0.1c-0.1,1.9-0.2,3.8-0.4,5.8c-0.2,1.9-0.5,3.8-1.6,5.5c0.2-2.2,0.3-4.4,0.5-6.6l-0.4-0.1c-1.2,3.1-1.8,6.5-4.3,9
		c0.1-0.3,0.2-0.6,0.2-0.9c1.1-3.6,2.3-7.2,3.2-10.9c1-4.1,1.7-8.3,1.5-12.6c0-1.5,0-3,0.2-4.5c0.1-0.5,0.2-1,0.3-1.4L186.8,194.9z"
		/>
	<path id="XMLID_154_" d="M209.9,129.6c-0.3,2.8-0.6,5.6-1.1,8.4c-1.1,6.4-2.3,12.7-3.6,19c-0.7,3.2-1.7,6.3-3,9.3
		c-2.5,6.2-5.7,12.1-9.4,17.7c-3.2,4.8-6.8,9.1-11.2,12.9c-3.7,3.1-7.6,5.9-11.5,8.8c-0.3,0.2-0.6,0.3-0.9,0.5L169,206
		c0.3-0.3,0.6-0.6,0.9-0.9c5.3-4.1,10.6-8.1,15.2-12.9c3-3.2,5.6-6.6,7.8-10.4c2.1-3.6,4.2-7.2,6.1-10.9c1.3-2.6,2.5-5.4,3.3-8.2
		c0.5-1.8,0.1-3.8,0-5.7c0-0.9-0.2-1.8-0.3-2.7l0.4-0.1l1.1,2.6l0.4-0.1c-0.3-2.1-0.6-4.3-0.9-6.5l0.5-0.1c0.4,0.7,0.7,1.3,1.3,2.4
		c2-7.7,3-15.3,4.6-22.8L209.9,129.6z"/>
	<path id="XMLID_153_" d="M110,170.3c0.4,1.5,1.1,2.9,1.2,4.4c0.3,4.5,2.2,8.3,4.1,12.2c0.1,0.2,0.2,0.4,0.3,0.7l-0.3,0.2
		c-0.6-0.8-1.3-1.7-1.9-2.5c-0.6-0.9-1.1-1.9-1.6-2.9l-0.5,0.2c0.1,0.7,0,1.4,0.3,2c1.2,2.4,2.4,4.7,3.7,7c0.1,0.2,0.1,0.4,0.2,0.6
		c-2.5-1.5-3.3-4-4.6-6.4c-0.5,1.2-0.8,2.1-1.2,3c-2.3,5.5-5.4,10.6-10,14.5c-3.6,3-7.7,5.5-11.7,8c-2.1,1.3-4.4,2.3-6.7,3.5
		c-0.3,0.1-0.6,0.2-0.9,0.2l-0.2-0.3c1.3-0.8,2.6-1.7,4-2.5c5.7-3.2,11.3-6.7,16-11.3c3.4-3.3,6.1-7.3,7.9-11.7
		c2.2-5.4,2.7-11.3,1.4-17c-0.1-0.5-0.1-1.1-0.2-1.6L110,170.3z"/>
	<path id="XMLID_152_" d="M159.2,54.4c-0.7-0.3-1.3-0.6-1.9-1c-1.8-1.2-3.6-2.5-5.5-3.6c-2.9-1.7-6.2-2-9.4-3
		c-1.5-0.5-3.1-0.9-4.4-1.7c-2.2-1.4-4.5-1.9-7-2c-4.3-0.3-8.2,0.9-11.6,3.5c-0.1,0.1-0.3,0.2-0.4,0.2c0.1-1.4,4-4,7-4.3
		c2.8-0.3,5.7-0.3,8.5-0.5c-0.8-1.3-2.3-2.2-3.8-2.7c-1.6-0.5-3.3-0.6-4.7-0.8c1.4-1,2.9-0.9,7.5,0.9c0.1-0.3,0.1-0.6,0.2-0.9
		c0.1,0.1,0.2,0.2,0.3,0.2c0.6,1.1,1.1,2.3,1.8,3.3c1.8,2.7,4.7,3.5,7.6,4.2c1.9,0.5,3.8,0.8,5.9,1.3c-1.2-1.7-2.3-3.1-3.3-4.5
		c-3.5-4.9-1.3-11,2.6-14.1c0,0,0.1,0,0.4,0.1c-0.7,1-1.3,1.9-1.9,2.8c-1.9,2.7-2.3,5.5-1.2,8.6c0.3,0.8,0.8,1.5,1.4,2.1
		c-1.4-4.5,0.3-8,3.1-11.2c-0.4,0.9-0.7,1.8-1.2,2.7c-2.7,4.9-0.9,9.2,2,13.2c1.8,2.6,4.5,4.4,7.1,6.1l1.3,0.9L159.2,54.4z"/>
	<path id="XMLID_313_" d="M145.2,112.3v-1.8h0.4v1.7l1.7,0.4c-2.6,0.5-5.4,1.2-8.3,1.6c-2.3,0.4-4.5-0.3-6.7-1
		c-0.4-0.1-0.6-0.5-0.9-0.8l0.2-0.4l3.2,1.1l-1.5-4c-3.1,1.9-5.9,4.8-10.5,4.1c0.7-0.2,1.2-0.4,1.6-0.5c2.3-0.5,4.4-1.6,6.3-3
		c2.1-1.6,4.5-2.6,7.1-2.6c2.9,0,5.8,0.6,8.4,1.7c2.1,0.9,4,2.1,5.5,3.9c-1.6-0.8-3.2-1.8-4.8-2.5c-1.6-0.7-3.4-1.2-4.9-1.7
		c-0.2,1.5-0.4,2.8-0.7,4.2L145.2,112.3z M140.7,109.8l-0.4-0.1c-0.6,0.9-1.2,1.8-1.9,2.7c0.6,0.4,1.3,0.2,1.7-0.4
		S140.6,110.6,140.7,109.8L140.7,109.8z M135.8,110.7c0.4-0.6,0.7-0.9,0.7-1.3c0-0.2-0.4-0.5-0.6-0.7c-0.3,0.3-0.7,0.5-0.9,0.8
		C135,109.7,135.4,110.1,135.8,110.7L135.8,110.7z"/>
	<path id="XMLID_148_" d="M94.7,114c-0.2,0.3-0.6,0.7-0.6,1c0,1.4,0.2,2.7,0.3,4c-1-0.7-1.1-0.9-1.6-4.7c-0.2,0.3-0.6,0.6-0.6,0.9
		c0.1,1.4,0.4,2.8,0.6,4.2c0.1,0.5,0.3,1,0.5,1.5c-1.8-1.6-1.9-3.5-2.1-5.3l-0.4-0.1c-0.2,0.4-0.6,0.8-0.5,1.2
		c0.2,1.3,0.5,2.5,0.8,3.8c0.1,0.4,0.3,0.7,0.4,1.1c-1.5-0.8-1.6-2.4-2.1-3.8c-1.2,1.1-1.1,1.6,1.5,6.1l-2.1-1.1
		c0.8,2.7,2.9,4,4.8,5.6c-2.7,0-6.1-4-6.3-7.1c-0.3-4.2,2.9-7.7,7.9-8.4c-1-2.8-1.5-5.8-3.6-8.1c-1-1.1-2.1-2.3-3.2-3.4
		c-1.5-1.4-3.7-1.9-5-1c-0.7,0.5-1.1,1.5-1.6,2.3c-0.2,0.4-0.3,0.8-0.4,1.2c-0.7-3.1,1.2-5.3,4.2-4.8c1,0.2,2,0.5,2.9,1.1
		c4.4,3.1,6.9,7.4,7.8,12.7c0.3,1.5,0.4,3.1,0.6,4.6c0,0.5-0.1,1-0.2,1.5l-0.5,0l-0.8-4.9L94.7,114z"/>
	<path id="XMLID_308_" d="M175.4,114.1c1.5-2.1,3.5-3.3,5.8-4.2c2.9-1.1,6-1.7,9.1-0.9c1.9,0.5,3.6,1.2,5.2,2.3
		c2.3,1.6,4.7,2.1,7.3,2.3c0.3,0,0.5,0.1,0.8,0.3l-2.3,0.4l2.2,1.2c-1.9,0-3.7-0.5-5.2-1.5c-2.1-1.3-4.5-2.4-6.7-3.6
		c-0.1,0-0.2,0-0.3,0c-0.2,1.1-0.3,2.1-0.5,3.3l4.2-1.1c-0.5,1.1-4.3,2-7.3,2.3c-2.8,0.3-4.9-1.6-7.6-1.6c0.8-0.7,0.8-0.7,3.5,0
		c-0.1-1-0.2-1.8-0.4-2.8C180.1,110.9,177.8,112.6,175.4,114.1z M187.6,113.4c0.7,0.2,1.4-0.1,1.8-0.9c0.3-0.6,0.1-1.4-0.3-1.7
		L187.6,113.4z M186.4,110.9c-0.5-0.4-0.8-0.8-1.2-0.9c-0.2,0-0.7,0.5-0.7,0.7c0,0.3,0.4,0.7,0.7,0.7
		C185.5,111.5,185.9,111.2,186.4,110.9L186.4,110.9z"/>
	<path id="XMLID_144_" d="M209.1,92.9c-0.6-1.5-1.1-3.1-1.7-4.6l0.2-0.2l1.9,2.7l0.2-0.1V84l0.5,0c0.2,1.6,0.6,3.1,0.6,4.7
		c0.1,4.7-0.1,9.3,0.1,14c0.1,2.2,0.4,4.3,0.9,6.4c0.8,3.6,0.5,7.2-0.1,10.8c-0.3,1.7-0.8,3.3-1.2,5l-0.6-0.1c0.1-1.3,0.3-2.6,0.4-4
		c0.2-2.7,0.6-5.4,0.5-8.1c-0.1-2.7-0.8-5.3-1-8c-0.2-3-1.2-5.6-2.6-8.1c-0.1-0.3-0.1-0.6,0-0.8l1.6,1.3l0.2-0.1
		c-0.7-1.5-1.3-3.1-1.9-4.6l0.3-0.2l1.3,1L209.1,92.9z"/>
	<path id="XMLID_143_" d="M120.2,54.8c2.6,1.7,5.2,2,7.9-0.3c-2.5-1.4-4.7-2.7-5.5-5.7c1.2,1.2,2.2,2.4,3.4,3.5
		c1.5,1.3,3.3,1.5,5.4,1.4c4.1-0.2,7.5-2.3,11.1-3.7c0.1,0,0.1-0.1,0.2-0.6c-1.3,0.1-2.6,0.1-3.7,0.3c-2.8,0.7-5.6,0.9-8.3-0.5
		c-1-0.5-1.8-1.3-2.6-2l0.2-0.3l4,2l0.3-0.4l-1.4-1.8l0.1-0.2c0.3,0.2,0.7,0.3,1,0.5c2.3,1.3,4.7,1.9,7.3,1.6
		c3.7-0.5,7.2,0.5,10.3,2.5c0.6,0.4,1,1.1,1.4,1.7l-0.3,0.3c-0.3-0.1-0.5-0.3-0.7-0.4c-2.9-2.6-6-2.9-9.4-1.1c-3,1.6-6.2,3.1-9.7,3
		c-1.6,0-2.6,0.6-3.7,1.5c-2.1,1.5-4.7,1.4-6.8-0.3c-0.3-0.3-0.5-0.6-0.7-0.9L120.2,54.8z"/>
	<path id="XMLID_142_" d="M99.4,121.4c0.8,3.3,1.2,6.4,2.2,9.3c1,2.9,2.5,5.6,3.8,8.4c-0.3-0.2-0.6-0.4-0.8-0.6
		c-0.2-0.3-0.5-0.5-0.7-0.8l-0.4,0.3l3.3,5.2l-0.1,0.1l-2.5-1.9c0.4,2.4,2,3.8,2.9,5.7l-0.4,0.3l-1.7-2.4l-0.4,0.3
		c0.2,5.1,0.8,10.2,2.7,15.1c-1.3-1.3-2.2-3-2.5-4.8c-0.6-3.4-1.2-6.9-1.4-10.4c-0.4-4.8-1.5-9.4-3-13.9c-1-2.9-1.6-5.9-1.3-9
		C99.2,122.1,99.3,121.7,99.4,121.4z"/>
	<path id="XMLID_141_" d="M172.8,56.4c-2.4,0.4-4.4,0.2-6.3-1.1c-2.9-2-5-4.6-5.8-8.2c-0.9-4,2.5-10.4,6.8-11.6
		c3.1-0.9,6.1-1.5,8.4-0.7c-1.3,0.2-2.6,0.2-3.7,0.4c-2.9,0.5-5.8,1.1-7.9,3.4c-3.7,4.2-3.7,9.4,0,13.6c1.3,1.4,2.8,2.6,4.8,3
		c-0.3-0.4-0.6-0.8-0.9-1.1c-2.6-2.7-4.1-5.8-3.8-9.5c0.1-1.3,0.5-2.5,1.1-3.6c0.8-1.5,2-2.7,3.7-3.4
		C162.1,45.4,164.8,51.3,172.8,56.4z"/>
	<path id="XMLID_140_" d="M143,165.5c3.5,0.4,6.7-0.4,9.9-1.5c2.2-0.7,4.5-1.4,6.7-2.1c1.5-0.4,2.8-0.2,3.7,0.6
		c-4.6-0.5-8.3,2.1-12.4,3.1c0,0.2,0,0.3,0,0.5c0.6,0,1.3,0.1,1.9,0c3.1-0.6,6-0.1,9,0.5c2.3,0.4,4.8,0,7.2,0c0.6,0,1.2,0,1.8,0
		c-2,1.5-4.4,1.9-6.8,1.6c-2.1-0.2-4.2-0.7-6.2-1c-0.8-0.1-1.7,0.1-2.5,0.1c-3.8,0.3-7.6-0.1-11.3-0.9c-0.4-0.1-0.8-0.3-1.1-0.5
		L143,165.5z"/>
	<path id="XMLID_139_" d="M160.9,218.7c-6.5-0.3-7.5-0.6-7.9-2.1c1.5,0.3,3.1,0.8,4.7,1c2.7,0.3,5.1-0.8,7.5-1.7
		c0.4-0.2,0.8-0.3,1.2-0.3c0.4,0,0.8,0.1,1.2,0.2c-0.2,0.4-0.2,0.9-0.5,1.1c-2,1.1-4,2.2-6.1,3.3c-0.6,0.3-1.2,0.5-1.8,0.7l0,0.3
		c0.6,0,1.2,0,1.8,0.1c0.6,0.1,1.1,0.5,1.6,0.8c-0.3,0.4-0.6,0.9-1,1.2c-0.5,0.4-0.8,0.6-0.1,1.1c1.9,1.2,1.9,2.5-0.3,4.3
		c0.2-0.9,0.4-1.5,0.4-2.1c0-0.3,0-0.9-0.2-1c-1.8-1.3-1.8-1.2-1.1-3c-1.4,0-2.7,0-4,0c-0.4,0-0.8-0.3-1.3-0.4
		c0.3-0.4,0.6-0.9,1-1.1c1.2-0.5,2.4-0.9,3.6-1.4C160.2,219.2,160.6,219,160.9,218.7z"/>
	<path id="XMLID_138_" d="M163.8,54.6c-0.6-0.1-1-0.1-1.4-0.3c-4.7-3-8.1-7.1-9.8-12.5c-1.4-4.7,0.3-7.8,4.4-10.7
		c0.5-0.3,1.1-0.5,1.6-0.8c0.7-0.5,1.4-1.1,1.8-1.8c1.1-1.9,5.3-5,8-4.6c-2.9,1.1-5.4,2.6-7.3,5.1l4.6,0.6c-1.9,0.3-3.6,0.5-5.3,0.9
		c-2.3,0.7-4.4,2.2-5.8,4.1c-2.1,2.7-1.9,5.7-0.6,8.6c1.8,4.2,4.8,7.7,8.6,10.2c0.3,0.2,0.6,0.4,0.9,0.7
		C163.6,54.2,163.6,54.3,163.8,54.6z"/>
	<path id="XMLID_137_" d="M132.1,195.8c2.2,0.3,3.6,1.5,5.1,2.4c4.4,2.7,8.7,5.6,13.3,8c2.2,1.2,4.7,1.8,7.2,2.1
		c2,0.2,4.2-0.5,6.2-0.8c0.5-0.1,1-0.2,1.5-0.2c-1.4,1.2-3,1.7-4.8,2c-4.7,0.7-8.8-0.8-12.6-3.1c-4.1-2.4-8.1-5.1-12.1-7.7
		C134.6,197.8,133.5,196.9,132.1,195.8z"/>
	<path id="XMLID_136_" d="M188.6,54l2.3,0.8l-0.1,0.2l-5.6,0.5l-0.2-0.2c0.6-0.5,1.2-1.1,1.9-1.5c2.2-1.4,4.7-1.5,7.2-1.4
		c2.2,0.1,4.4-0.5,6.2-1.8c1.7-1.2,2.6-2.7,2.6-4.8c0-0.8,0-1.6,0-2.5c1.4,2.2,1,4.9-0.8,7.2c-0.8,1-2.5,1.7-6.9,3
		c1.1,1.5,2.6,2.1,4.2,2.2s3.2-0.2,4.8-0.4c-1.7,2.3-5.6,1.8-8.3,0.2c-1.4-0.8-2.8-1.6-4.3-2.1c-0.9-0.3-1.9,0.2-2.9,0.3L188.6,54z"
		/>
	<path id="XMLID_135_" d="M204.2,107.1c-0.5-0.8-1.4-1-3.1-0.8c-1.1,0.2-2.1,0.4-3.3,0.3l1.1-1l-0.1-0.3l-4.5,1.2
		c0-0.1-0.1-0.2-0.1-0.3l1-1.1c-2.7-0.4-4.7-1.5-5.4-4.3c2.2,1.7,3.9,4.1,7.2,3.9c-1.5-1-3-1.9-3.8-3.7c0.5,0.2,0.9,0.5,1.3,0.8
		c1.1,0.8,2.1,1.7,3.2,2.6c0.3,0.2,0.7,0.2,1.3,0.1l-2.4-3.2l0.2-0.3c0.3,0.1,0.5,0.2,0.7,0.4c0.9,0.9,1.8,1.9,2.6,2.9
		c0.7,0.8,1.4,1.4,2.8,1l-1.8-2.3l0.3-0.3c0.7,0.7,1.5,1.4,2.2,2.2c0.5,0.6,0.9,1.4,1.4,2c0.5,0.6,1.1,1,1.9,1.7l-5.9-0.6
		C201.9,106.9,203.2,107.3,204.2,107.1z"/>
	<path id="XMLID_134_" d="M100.1,116.7c-0.1-0.5-0.1-1.1-0.2-1.6c-0.1-3.2-0.5-6.4-2-9.3c-2.2-4.2-5.9-6.6-10.2-8.1
		c-1.1-0.4-2.4-0.2-3.7-0.2c3.9-2.4,6.7,0.6,10,2c-1.4-2.2-1-4,0.4-5.7l0.4,0c0,0.5,0,1-0.2,1.4c-0.5,1.4-0.5,2.7,0.2,4l-1,0.3
		c2.9,2,4.9,4.4,5.9,7.6C100.7,110.3,101.1,113.5,100.1,116.7z"/>
	<path id="XMLID_133_" d="M182.6,51.9c5.2-0.7,9.6-2.9,13.5-6.4c-1.5,4.3-12.2,8.7-18.7,8c0.2-1,1.1-1.1,1.7-1.5
		c2.7-1.3,5.5-2.4,7.8-4.4c1.3-1.1,2.5-2.3,3.9-3.6C189,47.7,185.8,49.8,182.6,51.9z"/>
	<path id="XMLID_132_" d="M170.3,31.5c-4.4,0.2-7,2.9-9.2,6.3c0.2-2.4,1.8-3.9,3.3-5.5c-2.3,0.2-3.7,1.8-4.9,3.6
		c-1.2,1.7-1.7,3.9-1.3,6c0.3,2.1,0.9,4.1,1.4,6.2c-1.5-1.2-2-3-2.2-4.7c-0.6-4.5,0.5-8.5,4.5-11.2
		C164.6,30.3,167.5,30.7,170.3,31.5z"/>
	<path id="XMLID_131_" d="M110,167.1c0.2,0.3,0.5,0.6,0.7,1c2.4,4,4.8,8.1,7.3,12c2.7,4.2,5.9,8,9.3,11.7c0.2,0.2,0.4,0.5,0.6,0.7
		c0,0,0,0.1-0.1,0.3c-8.8-6.6-13.2-16.3-18.2-25.5L110,167.1z"/>
	<path id="XMLID_130_" d="M192,105.2l-6.5-1.6l1.9,1.3c0,0.1,0,0.2,0,0.2l-3.2-0.6l1.3,1.2c-1.4-0.5-2.6-0.2-3.7,0.9
		c0-0.1-0.1-0.2-0.1-0.3c0.2-0.5,0.3-1,0.5-1.4l-0.3-0.3l-2.8,2l-0.2-0.2l2.3-3.1h1.6c-0.2-0.5-0.4-0.8-0.7-1.4l3.2,1.4
		c-0.2-0.9-0.2-1.4-0.4-2.1l2.6,1.5v-1.3l4.7,3.6C192.1,104.9,192.1,105.1,192,105.2z"/>
	<path id="XMLID_129_" d="M89.9,132.5v2l-0.4,0.1c-0.3-0.9-0.6-1.8-0.9-2.7c-0.4-1.2-0.8-2.4-1.2-3.7c0-0.2,0-0.5,0-0.7l0.4-0.4
		c0.8,1,1.5,2.1,2.4,2.8c1.1,0.9,2.3,1.6,3.6,2.2c2.4,0.9,2.9,0.5,3.5-2c0.2-0.7,0.1-1.4,0.1-2.1c0.7,1.3,0.7,3.2,0,4.3
		c-1,1.8-2.6,1.1-4.2,1c0.1,1,0.2,1.8,0.4,2.7l-0.3,0.1l-1.2-2.3l-0.2,0.1c-0.1,0.7-0.1,1.4-0.2,2.1l-0.2,0.1
		c-0.4-1.2-0.9-2.4-1.3-3.6L89.9,132.5z"/>
	<path id="XMLID_128_" d="M81.3,106.2c0.1,0.8,0.3,1.4,0.2,2c-0.2,3.3,0.6,6.4,1.6,9.6c0.5,1.5,0.8,3.1,0.9,4.6
		c0,3.8,0.6,7.4,2.4,10.7c0.1,0.2,0.2,0.5,0.1,0.8c-1.8-1.6-2.8-3.6-3.2-5.9c-0.2-1.7-0.2-3.5-0.5-5.2c-0.4-2.3-0.8-4.5-1.4-6.8
		c-0.8-2.8-1.5-5.7-0.8-8.6c0.1-0.2,0.1-0.5,0.2-0.7C81,106.5,81.2,106.4,81.3,106.2z"/>
	<path id="XMLID_127_" d="M145.5,220.1c-1.6-0.3-3.3-0.4-4.9-1c-5.4-1.9-10-5-14.2-8.9c-0.8-0.8-1.6-1.5-2.4-2.3l0.3-0.4
		c0.8,0.5,1.6,1,2.3,1.5c3.4,2.7,6.7,5.5,10.6,7.4c2.5,1.2,5.3,2,8,2.9c0.1,0,0.3,0.1,0.4,0.2L145.5,220.1z"/>
	<path id="XMLID_126_" d="M150.8,109c-1.8-0.6-3.5-1.3-5.3-1.9c-3.8-1.2-7.9-1.5-11.9-0.8c-2.4,0.4-4.4,1.8-6.4,3.1
		c-1.1,0.6-2.1,1.2-3.3,1.6c4.8-4.1,9.9-6.9,16.5-6c3.7,0.5,7.3,1.8,10.6,3.7L150.8,109z"/>
	<path id="XMLID_125_" d="M213.6,91.6c0.6,1.5,1.2,3,1.9,4.7l-1.4-0.3c-0.2,1.2-0.3,2.4-0.5,3.6c1.5,0.5,2,1.5,1.4,3.2
		c-0.4,1.5-1.1,2.9-1.9,4.7c-0.8-2.5,1.3-4.4,0.7-6.6c-1.4,0.4-0.6,2.1-2,2.8c0.1-1.1,0.1-2.1,0.2-3c0.3-2,0.8-4,1.1-6
		c0.1-0.5-0.1-1-0.1-1.4c0-0.6,0.1-1.2,0.1-1.7L213.6,91.6z"/>
	<path id="XMLID_124_" d="M87.3,107.6c-0.2-1.3-0.5-2.7-0.8-4.2c1.5,1.8,1.8,3.7,1.4,5.7c-0.2,1-0.5,2-0.8,2.9c-0.4,1.3-0.9,2.6-1,4
		s0,2.7-0.3,4.2c-0.2-0.7-0.5-1.3-0.6-2c0-1.3,0.2-2.6,0.2-3.9c-0.1-1.5-0.4-2.9-0.6-4.3c-0.1-0.5-0.3-1.1-0.4-1.6l0.3-0.2l1.4,2.4
		c0.3-2-0.5-3.4-0.7-5l1.5,2L87.3,107.6z"/>
	<path id="XMLID_123_" d="M204.7,60.7c2.1,2.5,3.6,5.5,6.8,6.9l-0.3,0.4l-2.7-0.8c1.1,4.1,1.8,8.1,1,12.3
		C208.6,73.1,208.2,66.5,204.7,60.7z"/>
	<path id="XMLID_122_" d="M144.5,26.5c0.8-0.9,1.6-1.8,2.3-2.7c0.5-0.5,0.9-1.1,1.4-1.7c0.6-0.9,0.3-1.8-0.6-2.6
		c-0.6,1.9-1.4,3.5-3.3,4.3c0.5-0.7,1-1.3,1.4-2c1.2-2,1.1-2.4-1.3-3.2c0.3,2.3-0.5,4.2-2.6,5.5c0-0.3,0.1-0.6,0.2-0.9
		c0.5-0.9,1.1-1.6,1.4-2.5c0.2-0.4,0-1.1-0.2-1.5c-0.1-0.2-0.8-0.2-1.2-0.1c-1.2,0.3-2.5,0.8-3.7,1.1c0.7-1.4,3.4-2.6,5-2.2
		c0.5,0.1,1,0.2,1.5,0.2c0.9,0,1.7-0.1,2.3,0.8c0.1,0.1,0.3,0.2,0.5,0.2c1.6,0.3,2.2,1.3,1.3,2.6c-1.2,1.7-2.7,3.2-4,4.8L144.5,26.5
		z"/>
	<path id="XMLID_121_" d="M193.2,40.8c0.7-3.3,1.3-6.4,2.2-9.4c0.4-1.6,1.7-2,3.1-1.3c-2.1,0.7-3.1,2.7-2.7,5.7
		c0.4-0.7,0.9-1.4,1.3-2c1-1.4,2.5-2,3.6-1.4c0.3,0.2,0.5,0.4,0.8,0.6c-3-0.5-3.9,1.4-4.9,3.3C195.8,37.9,194.9,39.6,193.2,40.8z"/>
	<path id="XMLID_120_" d="M118.6,29.1c-0.2,0.2-0.3,0.3-0.4,0.3c-3,0.5-4.2,2.8-5.6,5.1c-0.9,1.6-1.7,3.2-2.9,4.6
		c-1.2,1.5-2.6,2.8-5.2,2.8c0.7-0.5,1.2-0.9,1.7-1.2c2.1-1.2,3.4-3,4.5-5.1s2.1-4.2,3.9-5.8C115.9,28.9,117.6,28.5,118.6,29.1z"/>
	<path id="XMLID_119_" d="M150.1,54.5c-0.5,0-0.8,0.1-1,0c-2.6-0.9-5-0.2-7.4,0.9c-2.1,0.9-4.2,1.9-6.3,2.5c-1.4,0.4-3,0.5-4.7-0.6
		c1.5-0.1,2.8,0,4-0.3c2.1-0.7,4.1-1.7,6.2-2.4c1.9-0.7,3.9-1.2,6-1.5C148,52.8,149.1,53.4,150.1,54.5z"/>
	<path id="XMLID_118_" d="M102.2,147.8c-0.9-1.8-2.5-1.7-4.1-1.9c-2.5-0.3-4.3-1.9-5.9-3.6c-1.8-1.8-3.3-3.9-4.9-5.8l0.4-0.3
		c0.8,0.7,1.5,1.5,2.3,2.2c1.9,1.8,3.8,3.7,5.9,5.5c1,0.9,2.4,1.3,3.8,0.9C101.2,144.4,102.2,145.9,102.2,147.8z"/>
	<path id="XMLID_117_" d="M176.2,170.2c0.4-2.1,2.4-2.6,3.3-4.1c-2.4,0.2-4.6,1.4-6.9,0.2c1.4-0.2,2.8-0.5,4.1-0.7
		c0.9-0.2,1.7-0.4,2.6-0.6c1.3-0.4,1.3-0.6,0.3-1.8c1,0,1.9,0,2.9,0c0.3,0,0.7,0.4,0.7,0.5c-0.1,0.4-0.3,0.8-0.6,1.1
		c-1.6,1.4-3.2,2.8-4.8,4.1C177.4,169.3,176.9,169.7,176.2,170.2z"/>
	<path id="XMLID_116_" d="M101.4,42.7c-0.5-2,0.2-3.5,1.9-4.6c2.2-1.3,3.4-3.5,4.7-5.6c1-1.5,2.1-2.9,3.9-3.2c0.5-0.1,1,0.1,1.7,0.1
		c-0.2,0.3-0.3,0.5-0.4,0.5c-2.9,0.7-4.2,3-5.7,5.2c-0.8,1.3-1.9,2.4-3.2,3.2c-1.3,0.8-2.1,1.8-2.6,3.2
		C101.7,42,101.5,42.4,101.4,42.7z"/>
	<path id="XMLID_115_" d="M190.3,34.6c-0.6,0.4-0.8,0.6-1.2,0.8c-3.2,1.2-5.1,3.8-7.2,6.2c-1.7,1.9-3.3,3.9-5.6,5.2
		c-0.4,0.2-0.9,0.4-1.4,0.7l-0.4-0.4c0.5-0.4,1-0.8,1.6-1.2c2.7-1.8,4.6-4.5,6.6-6.9C184.7,36.7,186.8,34.8,190.3,34.6z"/>
	<path id="XMLID_114_" d="M113.7,38.5c0.2-0.2,0.4-0.4,0.6-0.5c2-0.9,3-2.6,3.9-4.5c1.6-3.2,4-5.7,7.3-7.2c0.4-0.1,0.7-0.3,1.1-0.3
		l0.2,0.3c-0.2,0.2-0.4,0.5-0.7,0.6c-3.5,1.8-5.8,4.7-7.5,8.2c-0.9,1.8-2.3,3-4.3,3.4c-0.1,0-0.2,0-0.4,0
		C113.9,38.6,113.8,38.5,113.7,38.5z"/>
	<path id="XMLID_113_" d="M175.4,36.9c-3,1.1-5.3,2.9-6,6.1c-0.7,3.1,0.1,5.9,2.8,7.9l-0.2,0.4c-0.5-0.2-1-0.2-1.4-0.5
		c-1.7-1.3-2.2-3.2-2.4-5.2c-0.5-4.5,2-7.5,6.2-8.7C174.7,36.8,175.1,36.8,175.4,36.9z"/>
	<path id="XMLID_112_" d="M134.2,28.7c0.5,4.3,1.9,8.1,4.6,11.5c-2.8-0.5-7.7-8.2-6.9-10.7c0.6,1.6,0.9,3.2,2.3,4.7
		C134.3,32.2,133.2,30.5,134.2,28.7z"/>
	<path id="XMLID_111_" d="M198.2,53.7c0.6-0.2,1.1-0.4,1.7-0.5c2.2-0.5,4.1-1.4,5.5-3.3c1.3-1.9,1.3-3.8,0-5.8
		c-0.2-0.4-0.5-0.7-0.7-1.1c2-0.1,3.4,2.6,2.6,5.1c-1,3.2-3.3,5-6.4,6C200.1,54.4,199.2,54.8,198.2,53.7z"/>
	<path id="XMLID_110_" d="M94.3,78.7l-1.4,3.6c1.2,0.1,1.3,0.7,0.9,1.5l1.2,0.3c-1.3,2.3-2,4.6-1.1,7.2c-1.1-0.7-1.6-2.1-1.3-3.5
		c0.3-1.4,0.1-2.6-0.7-3.8c-0.1-0.2-0.2-0.5-0.1-0.7C92.1,81.5,92.8,79.9,94.3,78.7z"/>
	<path id="XMLID_109_" d="M188.7,38.4c0.6,2.9-7.4,10.2-12.8,11.2c0.3-0.3,0.7-0.7,1.1-0.9c3.1-1.8,6.2-3.7,8.5-6.4
		C186.6,41,187.6,39.7,188.7,38.4z"/>
	<path id="XMLID_108_" d="M145.4,43.1c-2,0.8-4.9-1.3-6.5-4.3c-1.9-3.5-1.6-8.4,0.9-10.5c-1,3-1.6,5.9-0.5,8.9
		S142.4,42.1,145.4,43.1z"/>
	<path id="XMLID_107_" d="M119.1,40.1c0.1,4.2-6.5,12.1-11.5,13c1.6-1.3,3.2-2.3,4.6-3.6c1.4-1.4,2.8-2.8,3.9-4.4
		C117.2,43.5,118.1,41.7,119.1,40.1z"/>
	<path id="XMLID_106_" d="M128.3,214.8c0.7,0.2,1.3,0.3,1.8,0.6c3.5,2.4,7.1,4.5,11.1,5.9c0.2,0.1,0.3,0.2,0.4,0.3
		C138.2,221.8,129.3,217.3,128.3,214.8z"/>
	<path id="XMLID_105_" d="M185.5,33.4l5.7-4.9c-1.4-0.4-2.4,0.3-3.4,0.9c-1,0.6-1.8,1.6-3.5,1.3c1.9-1.3,3.4-3.3,5.5-3.1
		c1.6,0.2,3.3,0.8,5,1.4c-2.5-0.5-4.1,1.1-5.8,2.4c-1.1,0.8-2.1,1.6-3.2,2.4L185.5,33.4z"/>
	<path id="XMLID_104_" d="M203.8,35.7c-0.2-0.2-0.3-0.5-0.5-0.7c-0.9-1.1-2.1-1.1-2.8,0.1c-1.1,1.8-2.1,3.7-3.2,5.6
		c-1.1,1.9-2.2,3.8-4.6,4.6c0.1-0.3,0.1-0.5,0.2-0.6c2.8-2.2,4.2-5.3,5.7-8.4c0.4-0.7,0.9-1.4,1.4-1.9c0.7-0.7,1.6-1.3,2.5-0.8
		c0.7,0.4,1.1,1.3,1.6,2L203.8,35.7z"/>
	<path id="XMLID_103_" d="M130.9,27c-0.5,0.3-0.9,0.6-1.4,0.8c-2.5,1.1-4.1,3-5.3,5.3c-0.9,1.7-2,3.3-4,4c-0.3,0.1-0.7,0.2-1.2,0.4
		c0.2-0.3,0.3-0.4,0.3-0.4c2.2-1.2,3.4-3.1,4.5-5.3C125.2,28.8,127.5,27.1,130.9,27z"/>
	<path id="XMLID_102_" d="M166.5,150.2c-1-0.1-1.9-0.7-2.4-1.5c-1.1-2-2.8-2.5-4.9-2.8c-0.1,0-0.2,0-0.4,0c-0.6-0.2-1.8,0.1-1.6-0.9
		c0.1-0.4,1.1-1,1.8-1c1.7-0.1,2.9,0.9,3.9,2.1C164.1,147.4,165.3,148.8,166.5,150.2z"/>
	<path id="XMLID_101_" d="M99.2,79.8c0.3-1,0.4-2,0.9-2.9c1.2-2.7,3-5,5.2-7c0.2-0.2,0.4-0.3,0.7-0.4c0.2,0,0.4,0,0.6,0.1
		c0.1,0.1,0,0.4,0,0.5c-0.1,0.2-0.3,0.4-0.4,0.6c-2.6,2.4-4.7,5.4-6.2,8.6c-0.1,0.2-0.2,0.4-0.4,0.6L99.2,79.8z"/>
	<path id="XMLID_100_" d="M172.6,117.7c-1.9-3-2.7-6.4-3.2-9.8c-0.1-1,0-2.3,1.4-3c0.1,0.4,0.2,0.7,0.1,0.9c-1,2.4,0.1,4.6,0.7,6.9
		c0.4,1.6,0.9,3.3,1.4,4.9L172.6,117.7z"/>
	<path id="XMLID_99_" d="M106.6,54.4c4.5-0.2,8.8-1.3,12.6-4.2C118.6,53.6,109,56.3,106.6,54.4z"/>
	<path id="XMLID_98_" d="M198.1,110.7c-2.3-0.8-4.6-2-7.1-2.5s-5-0.6-7.5-0.8C185.7,105.3,196.2,107.8,198.1,110.7z"/>
	<path id="XMLID_97_" d="M143.4,196.4c-4.9-0.2-8.6-3.1-12.5-5.6l0.2-0.5c1,0.5,1.9,0.9,2.9,1.5c2.9,1.7,5.8,3.4,9.2,4
		c0.1,0,0.2,0.2,0.3,0.3L143.4,196.4z"/>
	<path id="XMLID_96_" d="M180.3,31.9c1.9-1.9,3.6-3.6,5.3-5.3c1.1-1.1,2.4-1.9,4-1.6c0.6,0.1,1.2,0.6,1.9,0.9
		c-0.3,0.3-0.4,0.4-0.5,0.4c-2.1-1-3.7-0.3-5.2,1.4c-1,1.2-2.1,2.3-3.3,3.3c-0.5,0.4-1,0.8-1.6,1C180.8,32.1,180.4,31.9,180.3,31.9z
		"/>
	<path id="XMLID_95_" d="M103.1,114.9c-2-2.9-2.4-8.6-0.6-10.5C102.7,108,102.9,111.4,103.1,114.9z"/>
	<path id="XMLID_94_" d="M99.6,74.5c0.8-3.4,5.9-8.8,8.2-8.5L99.6,74.5z"/>
	<path id="XMLID_93_" d="M165.8,16.6c-4.9-0.3-9,1.2-11.8,5.5l-0.3-0.3c0.1-0.4,0-0.8,0.2-1.2c1.7-2.8,7.7-6,11.7-4.3
		C165.6,16.5,165.7,16.5,165.8,16.6z"/>
	<path id="XMLID_92_" d="M141,98.9c-1.9,2.2-4.1,4-7.2,4.7c0.6-0.5,1.3-1.1,2.1-1.8l-1.6,0.2l-0.2-0.2l3.6-2.9l0.3,0.2l-1.3,2.1
		l0.1,0.2l3.9-2.8L141,98.9z"/>
	<path id="XMLID_91_" d="M135.3,167.8c-2.9-3-2-9.4,1.8-10.9C134.9,160.5,133.6,163.9,135.3,167.8z"/>
	<path id="XMLID_90_" d="M171.5,181.9c-3.8-0.2-7.5-0.2-10.9,1.6c-0.1-0.1-0.1-0.2-0.2-0.4c0.2-0.3,0.4-0.7,0.7-0.9
		C163.1,180.7,169.3,180,171.5,181.9z"/>
	<path id="XMLID_89_" d="M186.1,23.2c-2,0.4-4.2,0.6-6.1,1.3c-2,0.8-3.7,2.1-5.5,3.1C175.2,24.5,183.5,21.3,186.1,23.2z"/>
	<path id="XMLID_88_" d="M147,168.5l12.1,4.7C157.2,173.9,148.6,170.8,147,168.5z"/>
	<path id="XMLID_87_" d="M98.9,71.4c0.5-3.9,4.5-8.3,7.3-7.7C102.9,65.6,100.9,68.6,98.9,71.4z"/>
	<path id="XMLID_86_" d="M209.5,45.1c1.9,1.3,2.4,3,1.4,4.9c-0.9,1.9-2.9,3.2-4.4,2.8c0.5-0.4,0.9-0.8,1.2-1.1
		c0.8-0.8,1.7-1.4,2.2-2.4c0.4-0.7,0.1-1.8,0-2.7C209.9,46.2,209.7,45.7,209.5,45.1z"/>
	<path id="XMLID_85_" d="M166.1,22.2c-1.8,0.9-3.8,1.7-5.6,2.9c-1.7,1.2-3.1,2.9-4.6,4.4C155.5,27.2,161.4,22,166.1,22.2z"/>
	<path id="XMLID_84_" d="M109.6,74.4l-7.1,8.3C102.4,80.5,106.9,75,109.6,74.4z"/>
	<path id="XMLID_83_" d="M155.1,120.3c0.2-0.6,0.3-1.2,0.6-1.7c1.1-2,1.3-4.2,1.2-6.4c0-0.4,0.2-0.7,0.4-1.1
		c0.3,0.3,0.8,0.6,0.8,0.9c0,1.3-0.1,2.6-0.3,4C157.4,117.7,156.5,119.3,155.1,120.3z"/>
	<path id="XMLID_82_" d="M177.3,162.9c-0.6-0.1-1.1-0.1-1.7-0.2c-2.1-0.4-3.8,0.8-5.7,1.1c-1.1,0.2-2.3,0-3.5-0.1
		c-0.3,0-0.6-0.4-1.2-0.7c0.5-0.1,0.8-0.2,0.9-0.2c2.1,0.6,4,0.1,6-0.6C173.9,161.6,175.6,161.7,177.3,162.9z"/>
	<path id="XMLID_81_" d="M204.1,57.2c-3,3.5-8.3,2.4-10.4-0.8C197.1,58.5,200.5,59,204.1,57.2z"/>
	<path id="XMLID_80_" d="M110.8,69.7l-6.8,7.6C104.1,74.8,108.4,69.7,110.8,69.7z"/>
	<path id="XMLID_79_" d="M128.3,103.6l0.4,1l-3.6-0.6c0.2,0.5,0.3,0.9,0.4,1.2l-5-0.7c1.4-0.5,2.5-1.3,3.8-1.4
		C125.6,102.9,126.9,103.4,128.3,103.6z"/>
	<path id="XMLID_78_" d="M101.5,89.8c0.5-3.1,4-8.1,6.4-8.8L101.5,89.8z"/>
	<path id="XMLID_77_" d="M110.5,58.4l-8.2,5.2C102.8,61,108.5,57.4,110.5,58.4z"/>
	<path id="XMLID_76_" d="M176.3,102.4c-0.4,1.6-0.7,3.1-1.1,4.6l-0.4,0c-0.1-0.8-0.2-1.6-0.3-2.3l-0.2,0c-0.2,1-0.4,2-0.6,3.1
		c-0.2-0.1-0.5-0.2-0.6-0.3c-0.6-1.2,0.1-3.6,1.4-4.2C175,103,175.6,102.7,176.3,102.4z"/>
	<path id="XMLID_75_" d="M181.2,20c-1.6,0-3.2-0.2-4.7,0c-1.5,0.2-3,0.9-4.5,1.3C173.3,18.7,179,17.9,181.2,20z"/>
	<path id="XMLID_74_" d="M151.3,23.4c-1.2-0.7-1.3-2.1-0.7-4.2c0.7-2.2,2.9-4.2,4.7-4.2C152.4,17.2,150.8,19.8,151.3,23.4z"/>
	<path id="XMLID_73_" d="M96.2,54.5c-1.6-1.9-0.7-3.7,0.1-5.4c0.7-1.5,1.4-3.1,3.4-3.4C97.3,48.2,96,51.1,96.2,54.5z"/>
	<path id="XMLID_72_" d="M161.9,173.7l11.2-1.9C170.7,173.7,163.7,174.9,161.9,173.7z"/>
	<path id="XMLID_71_" d="M125,24.8c2.4-2,9.2-1.6,10.4,0.8c-0.4,0-0.8-0.1-1.2-0.2C130.7,24.2,129.5,23.9,125,24.8z"/>
	<path id="XMLID_70_" d="M104.2,55.3c0.7,2.3-3.3,6.7-6.5,7.3C100.2,60.2,103,58.5,104.2,55.3z"/>
	<path id="XMLID_69_" d="M151.2,139.2c0.1,1.6,0,3.5,0.5,5.2c0.5,1.9,2.6,2.2,4.3,2.9c-1.8,0.5-3.9-0.4-4.8-1.9
		C150.1,143.4,150.2,140.2,151.2,139.2z"/>
	<path id="XMLID_68_" d="M105.8,43.7c0.9,2.5-2.9,8.4-5.8,9.2c1.2-1.4,2.5-2.6,3.4-4.1S105,45.6,105.8,43.7z"/>
	<path id="XMLID_67_" d="M125.1,82c0.1-0.8,0.1-1.5,0.2-2.2c-0.1,0-0.1-0.1-0.2-0.1c-0.5,0-1-0.1-1.6-0.1c0.2-0.5,0.4-1.1,0.7-1.5
		c0.7-0.7,1.5-1.4,2.3-2.1l0.4,0.4l-1.3,1.7c1.8,1.5,0.1,2.8-0.2,4.1L125.1,82z"/>
	<path id="XMLID_66_" d="M210,53.5c2-1.2,5.4,1.1,5.7,3.8L210,53.5z"/>
	<path id="XMLID_65_" d="M174.7,31.4c1-3.2,6.2-6.1,9.4-5.2C180.4,26.9,177.5,28.7,174.7,31.4z"/>
	<path id="XMLID_64_" d="M111,42.5c-0.2,3.9-2.8,6-6,7.7C107.4,47.9,109.9,45.7,111,42.5z"/>
	<path id="XMLID_63_" d="M157.9,240.5c2.3,0.4,4.6,0.6,6.9-0.8c-0.4,1.4-1.4,2.1-3.2,2.2C160.2,242.1,158.8,242,157.9,240.5z"/>
	<path id="XMLID_62_" d="M209.9,55.4c2.4,1.7,4.6,3.6,5.2,6.9l-5.6-6.5L209.9,55.4z"/>
	<path id="XMLID_61_" d="M109.3,114c0,1.6-0.1,3.1,0,4.5c0.1,1.5,0.4,2.9,0.6,4.3C108.2,121.4,107.7,115.7,109.3,114z"/>
	<path id="XMLID_60_" d="M176.3,44c-0.6-1.6,2.6-5.6,5.8-7.3L176.3,44z"/>
	<path id="XMLID_59_" d="M199.1,44.2c-0.1-1.9,0.9-3,1.7-4.1c0.5-0.6,1.2-1.1,1.9-1.5c1.6-0.7,2.4-0.4,3.2,1.2
		c-0.7-0.2-1.5-0.5-2.3-0.5c-1.4,0-2.2,1.1-2.9,2.2C200.3,42.3,199.8,43.1,199.1,44.2z"/>
	<path id="XMLID_58_" d="M169.3,149.9c0.4-0.2,0.8-0.5,1.1-0.8c1-1,2-2.1,2.9-3.2c0.3-0.4,0.5-0.9,0.9-1.1c0.4-0.2,1.1-0.4,1.3-0.3
		c0.6,0.4,0.5,1.1-0.2,1.5c-0.1,0.1-0.2,0.1-0.4,0.2c-0.1-0.2-0.1-0.5-0.3-0.9c-0.4,0.5-0.6,0.8-0.9,1.1c-1,1.1-2.1,2.2-3.2,3.3
		c-0.3,0.3-0.8,0.3-1.2,0.4C169.4,150.1,169.4,150,169.3,149.9z"/>
	<path id="XMLID_57_" d="M153.1,29c-1.1-0.8-0.8-1.8-0.6-2.7c0.6-2.4,2.2-4.1,4.5-5.1C154.7,23.2,152.9,25.6,153.1,29z"/>
	<path id="XMLID_56_" d="M153.8,29.2c0.2-2.4,3.8-6.5,6.2-7C158,24.5,155.9,26.9,153.8,29.2z"/>
	<path id="XMLID_55_" d="M210.3,62.5c-0.9-2-1.8-4.2-2.7-6.4C209.7,56.5,211.2,60.5,210.3,62.5z"/>
	<path id="XMLID_54_" d="M192.2,165.4c0.2-0.9,0.5-1.9,0.4-2.7s-0.9-1.6-1.3-2.4c-0.1-0.2,0.1-0.6,0.1-1
		C194.2,161.2,194.5,164,192.2,165.4z"/>
	<path id="XMLID_53_" d="M175.6,41.5c0.1-2.3,3.6-6.9,5.7-7.1L175.6,41.5z"/>
	<path id="XMLID_52_" d="M176.5,23.6l-7.2,4.5C169.8,26.2,174.1,23.5,176.5,23.6z"/>
	<path id="XMLID_51_" d="M174.1,54.1c-0.2-0.3-0.3-0.4-0.3-0.4c0.4-2.3-0.8-3.8-2.3-5.3c-0.8-0.8-1.3-1.8-0.9-2.8
		c0.8,1.1,1.5,2.2,2.4,3.3c0.8,1.1,1.8,2,1.7,3.5C174.5,53,174.3,53.5,174.1,54.1z"/>
	<path id="XMLID_50_" d="M100.6,96.5L104,90C104.6,91.7,102.7,95.3,100.6,96.5z"/>
	<path id="XMLID_49_" d="M156.9,106.5c-2.2,0.8-2.2,0.8-2.9,0.1l5-1.8c-0.4,0.5-0.7,0.9-1.2,1.5h2
		C158.6,107.6,157.7,107.6,156.9,106.5z"/>
	<path id="XMLID_48_" d="M92.3,77.6c-0.7-2,1.1-6,3.2-6.2C94.4,73.6,93.3,75.7,92.3,77.6z"/>
	<path id="XMLID_47_" d="M132.2,22.7c1.6-1.2,5.7-0.8,6.8,1.1L132.2,22.7z"/>
	<path id="XMLID_46_" d="M128.8,100.9c-0.7,1-1.6,1.4-2.9,1.2c-1.1-0.1-2.2-0.1-3.3-0.2C123.4,101.2,127.8,100.5,128.8,100.9z"/>
	<path id="XMLID_45_" d="M99.5,44.3c-1.2,0.6-2.6,1.1-3.6,2c-1,0.9-1.5,2.2-2.3,3.3C93.2,47.2,97,43.5,99.5,44.3z"/>
	<path id="XMLID_44_" d="M96.5,58.9c-1,2.3-1.9,4.4-2.7,6.5C92.8,63.9,94.1,60.5,96.5,58.9z"/>
	<path id="XMLID_43_" d="M215.8,71.6c-0.5-1.9-1-3.8-1.5-5.6l0.5-0.1c1.6,1.6,1.8,3.5,1.5,5.6L215.8,71.6z"/>
	<path id="XMLID_42_" d="M170.5,17.3l-6.2,3.5C164.6,18.8,167.7,17.1,170.5,17.3z"/>
	<path id="XMLID_41_" d="M176,147.4c2.8-1.3,2.9-4,3.5-6.5C181.1,142.9,178.9,146.8,176,147.4z"/>
	<path id="XMLID_40_" d="M214.3,77c0.7,1.6,1.4,3.1,2.1,4.7C214.3,81.3,213.1,78.6,214.3,77z"/>
	<path id="XMLID_39_" d="M135.1,99.3c-0.9,2-2.5,3.6-4.5,4.6l-0.2-0.2l4.4-4.7L135.1,99.3z"/>
	<path id="XMLID_38_" d="M169,159.3c-0.9,1.1-1.8,1.5-3.1,1.1c-1.1-0.3-1.3-0.5-1.4-1.4L169,159.3z"/>
	<path id="XMLID_37_" d="M147.9,105l3.7-3.7c0.4,1.5-1.5,3.6-3.4,4C148,105.1,147.9,105,147.9,105z"/>
	<path id="XMLID_36_" d="M172.8,124.7c-1.4-1.6-2.8-3.2-2.8-5.5l0.4-0.2l2.7,5.6L172.8,124.7z"/>
	<path id="XMLID_35_" d="M171.3,124.7l3.2,4.7c-1.6-0.3-3.2-2.4-3.6-4.5L171.3,124.7z"/>
	<path id="XMLID_34_" d="M139.9,103.6l5.9-3.7l0.2,0.4c-1.6,1.7-3.7,2.9-6,3.5L139.9,103.6z"/>
	<path id="XMLID_33_" d="M103.4,45.6c0.2,2.1-1.3,4.1-3.7,4.7L103.4,45.6z"/>
	<path id="XMLID_32_" d="M174.1,18l-5.6,2.5C168.9,18.9,171.3,17.7,174.1,18z"/>
	<path id="XMLID_31_" d="M118.8,154.5c-1.3-1.1-1.9-2.3-1.8-3.7c0-0.3,0.4-0.5,0.6-0.8c0.2,0.2,0.5,0.5,0.5,0.7
		C118.4,151.8,118.6,153,118.8,154.5z"/>
	<path id="XMLID_30_" d="M103.6,98.4c0.7,1.9-0.4,3.7-2.5,4.2L103.6,98.4z"/>
	<path id="XMLID_29_" d="M176.9,107.3c-0.9-1.4,0.5-3.9,2.4-4.4C178.6,104.4,177.8,105.8,176.9,107.3z"/>
	<path id="XMLID_28_" d="M216.6,76.3c-1.9-0.6-3.1-2.7-2.3-4.6C215.1,73.3,215.9,74.8,216.6,76.3z"/>
	<path id="XMLID_27_" d="M213.8,86.8c0.5,1.4,1.1,2.8,1.6,4.2c-1-0.1-1.6-0.8-1.8-1.6C213.3,88.6,212.9,87.6,213.8,86.8z"/>
	<path id="XMLID_26_" d="M146.4,104l3.2-2.8c0,1.7-1.1,2.6-2.9,3.1L146.4,104z"/>
	<path id="XMLID_25_" d="M100.7,99l2.8-4.2C103.9,96.5,102.6,98.3,100.7,99z"/>
	<path id="XMLID_24_" d="M180.8,108l-5.6,3.3C176,109.7,178.9,108,180.8,108z"/>
	<path id="XMLID_23_" d="M214.3,82.8c0.2,0.4,0.4,0.6,0.5,0.9l1.7,2.9C214.8,86.4,213.7,84.7,214.3,82.8z"/>
	<path id="XMLID_22_" d="M151.9,106.2l4.4-3.7C156.4,103.9,153.9,105.9,151.9,106.2z"/>
	<path id="XMLID_21_" d="M93.5,71.4c-0.6-1.2,0.6-4.1,2.1-5.2C94.9,67.8,94.3,69.5,93.5,71.4z"/>
	<path id="XMLID_20_" d="M148,100.6c-0.6,1.7-3.1,3.3-4.8,3.1L148,100.6z"/>
	<path id="XMLID_19_" d="M150.1,105.3l3.7-3.1C153.5,103.9,151.8,105.5,150.1,105.3z"/>
	<path id="XMLID_18_" d="M157.1,202.8c0.6-1.8,1.8-2.6,3.6-2.2L157.1,202.8z"/>
	<path id="XMLID_17_" d="M122.7,155.7c-1.8-0.7-2.6-2-2-3.6C121.3,153.2,121.9,154.3,122.7,155.7z"/>
	<path id="XMLID_16_" d="M174.4,116.6l2.2,3.4C174.8,119.6,173.9,118.3,174.4,116.6z"/>
	<path id="XMLID_15_" d="M123.1,106.8l-5.1-0.3C119.7,105.6,121.9,105.7,123.1,106.8z"/>
	<path id="XMLID_14_" d="M178.5,137.5c-1.7-1.5-2.5-4.3-2-5.3C177.2,134,177.9,135.7,178.5,137.5z"/>
	<path id="XMLID_13_" d="M165.5,144l4.2,0.7c-0.8,0.3-1.3,0.8-1.8,0.7C166.8,145.4,165.8,145.1,165.5,144z"/>
	<path id="XMLID_12_" d="M164.4,200.3l-3.4,2.3l-0.2-0.3C161.5,200.8,162.8,200.2,164.4,200.3z"/>
	<path id="XMLID_11_" d="M142.4,100c-2,2.4-2.9,3-4.4,3L142.4,100z"/>
	<path id="XMLID_10_" d="M204.1,109.4c1.3-0.6,2.6,0.1,3.1,1.7L204.1,109.4z"/>
	<path id="XMLID_9_" d="M117.2,108.2c1.5-1.1,2.8-1.1,3.6,0H117.2z"/>
	<path id="XMLID_8_" d="M126.2,73.8c-0.3,1.5-1.4,2.3-2.6,3l-0.3-0.2l2.5-3L126.2,73.8z"/>
	<path id="XMLID_7_" d="M156.5,200.7c-0.9,0.8-1.9,1.7-2.8,2.5C153.9,201.7,154.8,200.9,156.5,200.7z"/>
	<path id="XMLID_6_" d="M161.5,136.4c0.2,1.4-0.7,2.5-2.2,3L161.5,136.4z"/>
	<path id="XMLID_5_" d="M97.2,137.6l2.6-1c-0.1,0.7-0.8,1.7-1.6,1.6C97.8,138.2,97.5,137.8,97.2,137.6z"/>
	<path id="XMLID_4_" d="M128.6,103l2.8-2.6C131.4,101.4,130.2,102.6,128.6,103z"/>
	<path id="XMLID_3_" d="M159.8,132.3l2.6-2.2c-0.2,1.4-1.1,2.1-2.3,2.5L159.8,132.3z"/>
	<path id="XMLID_2_" d="M162.2,127.4c-0.2,1.3-1.2,1.8-2.1,2.3L162.2,127.4z"/>
	<path id="XMLID_1_" d="M159.3,135.5l2.5-2.3l0.4,0.4l-2.6,2.3L159.3,135.5z"/>
</g>
<g id="XMLID_199_">
</g>
</svg>
