<?xml version="1.0" encoding="utf-8"?>
<!-- Generator: Adobe Illustrator 19.0.0, SVG Export Plug-In . SVG Version: 6.00 Build 0)  -->
<svg version="1.1" id="Layer_1" xmlns="http://www.w3.org/2000/svg" xmlns:xlink="http://www.w3.org/1999/xlink" x="0px" y="0px"
	 viewBox="0 0 300 250" style="enable-background:new 0 0 300 250;" xml:space="preserve">
<g id="XMLID_1_">
	<path id="XMLID_171_" d="M165.3,15.2c-3.4,1.9-7.1,2.1-11,1.7c2.1,1,4.5,1.5,6.9,1.3c2.4-0.2,4.7-0.6,7-1l0.1,0.4
		c-1.4,0.5-2.7,1.2-4.2,1.6c-3.4,0.8-6.9,0.5-10.1-0.9c-3.6-1.6-6.6-0.8-9.7,0.9c-1.7,0.9-3.2,2.1-4.9,3.2c-0.3,0.2-0.7,0.4-1.3,0.6
		c0.1-0.6,0.1-1,0.2-1.3c-3.5-0.8-6.5,0.5-9.4,2.4c0.4-1.2,1.2-1.9,2.2-2.5c2.3-1.2,4.9-1.7,7.5-1.3c1.1,0.2,1.8-0.2,2.6-0.9
		c-4.6-1.8-13.3,0.1-18.5,6.5l5.2,1.4c1.2-0.8,2.3-2.5,4.4-2.4c-2.6,1.8-4.8,3.9-6.3,6.8c-1.5,2.8-1.4,6-2.2,9c-1.6-2,0-4-0.1-6
		c-3.6,0.3-7.3,3.5-8.3,7.2l5.1,0.9c-1.4,1.5-6.8,0.4-11.2-1.9c-4.2-2.3-7.1-7-6.1-10.4c1.4,5.8,5,9.5,10.5,11.1l4.6-6.5
		c-2.4,0.4-4.3,1.8-6.1,3.3l-0.3-0.3c0.3-0.5,0.6-1.1,1-1.5c1.8-1.9,4.2-2.8,6.8-3.2c1.5-0.2,2.9-0.2,4.7-0.4
		c0.1-0.3,0.4-0.9,0.6-1.6c-2.4-0.7-4.8-1.1-7.2-0.7c-2.3,0.3-4.6,1.2-7,1.8c0.5-0.5,1-1.1,1.6-1.5c2.8-1.7,6-1.7,9.2-1.4
		c1.3,0.1,2.7,0.4,4.2,0.7l1.5-2.1c-7.6-2.2-14.2-0.6-19.9,4.7l-0.2-0.2c0.3-0.5,0.6-1,1-1.4c2.8-2.9,6.3-4.3,10.2-4.9
		c0.9-0.1,1.8-0.1,2.6-0.3c0.3-0.1,0.6-0.3,0.8-0.5c4.3-5.5,11.4-9.4,18.9-7.6c1.9,0.5,3.2,0.2,4.7-0.5c3.7-1.6,7.5-2.1,11.5-1.7
		c2.4,0.2,4.9-0.4,7.3-0.7c0.3,0,0.6-0.1,0.9-0.1L165.3,15.2z"/>
	<path id="XMLID_170_" d="M126.7,156.5l11.6,10.3c-1.6-0.3-2.8-1.2-4-2.3c-2.9-2.6-5.8-5.2-8.8-7.6c-0.9-0.7-2.1-1.1-3.1-1.7
		c-0.2-0.1-0.4-0.2-0.6-0.4v-0.4c0.7-0.1,1.5-0.2,2.2-0.1c3,0.4,6,0.8,9,1.3c2.7,0.4,5.4,0.7,8.1-0.2c1.2-0.4,2.5-0.2,3.6,0.5
		c-0.1,0.1-0.1,0.2-0.1,0.2c-2.7,0.4-5.5,0.8-8.2,1c-1.5,0.1-3.1-0.2-4.7-0.4c1.3,1.8,9.8,3.8,15.2,3.7c5.3-0.1,10.6-0.4,15.5-3.6
		c-1.7-0.1-3,0-4.3-0.2c-1.3-0.2-2.5-0.5-3.8-0.8c0-0.2,0.1-0.3,0.1-0.5c0.4,0,0.9,0,1.3,0c3.9,0.8,7.7,0.2,11.5-0.8
		c0.7-0.2,1.3-0.4,2-0.5c0.3,0,0.6,0.2,0.8,0.2c-0.2,0.2-0.3,0.6-0.5,0.6c-1.5,0.1-2.1,1.3-2.8,2.4c-2.6,3.7-6.1,6.5-9.7,9.1
		c-0.8,0.6-1.9,0.8-2.9,0.9c4.5-2.9,8.5-6.2,11.6-10.6c-13.1,7.4-26,6.2-39-0.5C126.7,156.3,126.7,156.4,126.7,156.5z"/>
	<path id="XMLID_169_" d="M203.3,185.5c1.2,2.5,2.5,5,3.7,7.4l-0.2,0.2c-0.7-0.6-1.5-1.1-1.9-1.9c-1.5-2.8-2.9-5.8-4.4-8.6
		c-0.8-1.5-1.7-2.9-2.6-4.3c-0.9-1.3-1.9-2.6-2.8-4c-0.3-0.5-0.4-1.1-0.6-1.6l0.4-0.3c0.5,0.4,0.9,0.9,1.3,1.3c2,2.5,3.9,5.1,6,7.6
		c4.1,4.8,9.2,8.5,14.5,11.9c5.5,3.6,11.3,6.6,18,7.6c0.1,0,0.3,0.2,0.4,0.3c-6.8,0.3-12.7-2.5-18.3-5.9l-0.2,0.3l5.2,5.7l-0.2,0.3
		c-0.8-0.5-1.9-0.8-2.5-1.5c-1.8-1.9-3.4-4.1-5.2-6c-1.3-1.5-2.9-2.7-4.3-4.1l-0.4,0.4l5.1,8.3l-0.3,0.2c-0.7-0.7-1.5-1.3-2.1-2
		c-2.1-2.4-3.5-5.3-5-8.1c-0.7-1.4-2-2.5-3-3.8L203.3,185.5z"/>
	<path id="XMLID_168_" d="M206.8,86c-2.1-5-3.1-10.3-6.4-14.7c0.8,4.5,2.5,8.8,2,13.5c-1.6-6.1-2.6-12.4-6-17.9
		c0.4,2.9,1,5.8,1.2,8.7s-0.4,5.8-2.2,8.3c0.1-0.8,0.3-1.6,0.4-2.3c0.1-0.8,0.3-1.5,0.5-2.3c-3.4,0.1-5.9-2.2-5.5-5.3
		c0.8,0.9,1.4,1.9,2.3,2.7c0.9,0.8,2,1.4,3,2.1l0.5-0.3c-0.2-2.2-0.2-4.5-0.5-6.7c-0.6-4.1-1.8-8-4.7-11.1c-3-3.2-6.7-5.1-11.1-5.4
		c-0.6,0-1.1-0.2-1.7-0.2l-0.1-0.3c0.5-0.1,1.1-0.3,1.6-0.4c3.1-0.2,6,0.9,8.4,2.5c2.4,1.6,4.5,3.4,6.5,5.4c2.5,2.7,4.8,5.5,6.9,8.4
		c2.9,4.1,4.3,8.8,5.2,13.7C206.9,84.9,206.8,85.5,206.8,86z"/>
	<path id="XMLID_167_" d="M104.7,174.3c3.5,1.9,3.8,16.4,1.4,19v-12.5c-4.3,4.8-10,7.3-15.4,10.7c0.9,0,1.5-0.1,2.1,0
		c0.5,0.1,1,0.4,1.4,0.7c-0.3,0.4-0.5,1-0.9,1.3c-2.5,1.3-5,2.7-7.6,3.6c-5.9,2-11.9,3.6-17.8,5.4c-1,0.2-2,0.4-3,0.3
		c8.2-3.6,17.2-5.1,25.1-9.6c-0.7,0-1.4,0-2,0c-0.4,0-0.7,0-1.1,0c-0.4-0.1-0.8-0.3-1.1-0.5c0.3-0.3,0.5-0.8,0.9-1
		c3.3-1.8,6.8-3.4,10-5.3c3.1-1.8,6.2-3.8,8.3-6.9c0.5-0.7,0.7-1.6,0.4-2.4C105,176.2,104.9,175.2,104.7,174.3z"/>
	<path id="XMLID_166_" d="M205.9,57c-3.4,0.8-6.2-0.3-8.6-2.6c-2.7-2.6-4.4-5.8-5.8-9.3c-2.2-5.4-5.8-9.3-11.3-11.2
		c-1.8-0.6-3.7-0.7-5.9,0c0.6,0.5,1.3,1,1.8,1.5c1.7,1.8,3.4,3.6,5.1,5.3c1.6,1.6,3.4,2.9,5.8,2.9c0.2,0,0.3,0,0.5,0.1
		c0.1,0,0.1,0.1,0.2,0.2c-1.3,0.8-2.6,0.7-3.9,0.1c-2.2-0.9-3.8-2.8-5.4-4.4c-1.6-1.6-3.1-3.3-4.8-4.8c-2.6-2.2-5.9-2.6-9.2-2.9
		c-0.3,0-0.6-0.1-1-0.1c-0.1,0-0.2-0.1-0.6-0.4c0.6-0.2,1.1-0.4,1.5-0.4c2.2-0.2,4.3,0,6.3,1c1.7,0.8,3.3,0.7,5.2,0
		c-1.6-1.8-3.9-2.9-6.3-3.1c-2.3-0.2-4.7-0.1-7.2-0.1c0.4-0.2,0.8-0.5,1.2-0.7c4.8-1.4,9-0.5,12.8,2.7c0.9,0.7,1.7,1.3,2.9,1.7
		c6.5,1.8,11,5.8,13.4,12.2c1.2,3.1,3,6,5.2,8.5c1.5,1.7,3.5,2.9,5.8,3.3C204.4,56.6,205.2,56.8,205.9,57z"/>
	<path id="XMLID_165_" d="M106,67.4c-2.5-5.7-1.8-11.1,1.4-16.5c-1.2-0.6-2-0.4-3.1,0.8c-1.4,1.5-1.6,3.4-1.9,5.3
		c-0.5,3.1-0.7,6.2-1.3,9.2c-0.3,1.5-1.1,2.9-1.7,4.2c-0.2,0.5-0.7,0.9-1.4,1.2c2.2-4.2,2.4-8.7,2.8-13.3l-0.3-0.3
		c-0.1,0.3-0.2,0.6-0.5,0.8c-1.5,1.3-2.9,2.6-4.4,4c-0.3,0.3-0.6,0.7-0.7,1.1c-0.7,3.6-1.6,7-3.6,10.1c-1.5,2.3-3.2,4.4-5.6,5.5
		c1.7-2.3,3.7-4.4,5-7c1.4-2.6,2.1-5.5,3.1-8.4c-2.6,0.5-4.8,1.5-7.2,0.6c1.4-0.4,2.8-0.7,4.1-1.1c4.5-1.3,7.7-4.3,10.3-8.1
		c0.4-0.5,0.4-1.2,0.6-1.8c0.6-1.6,1.5-3,3-3.8c0.8-0.4,2-0.7,2.8-0.4c1,0.4,1.8,0.5,2.7,0.2c0.3-0.1,0.7,0.1,1.1,0.2
		c-0.2,0.3-0.4,0.7-0.7,0.8c-3.6,1.4-4.3,4.5-4.7,7.8c-0.4,2.9-0.1,5.9,0.6,8.7H106z"/>
	<path d="M183.4,109.2c-0.9,0.6-1.8,1.4-2.9,1.8c-3.6,1.5-7.4,2.2-11.3,1.1c-1.8-0.5-3.8-0.5-5.7-0.7l1.9-1.2l0.5-1.9l0.5-0.2
		c0.2,3.6,3.1,2.1,4.9,3c-1.3-1.4-2-3.3-1.8-5.2c-3.6,1.3-6.2,3.9-9,6.3c0.1-2.5,6.9-7.5,11.9-8.6c6.1-1.4,13,1.2,16.5,6.2
		c-3.5-2-6.6-4.8-11.1-5.3c1.7,2.6,0.9,4.6-1.3,6.7c2.7-0.3,4.7-1.5,6.7-2.5L183.4,109.2z M170.4,106.8c1,0.2,1.9,0.5,2.8,0.6
		s1.5-0.6,1.2-1.4c-0.1-0.5-0.2-0.9-0.3-1.4c-0.2,0-0.4,0-0.5,0.1c-0.2,0.1-0.2,0.5-0.3,0.8l-0.8-1v1l-1.6-0.4l-0.1,0.3l1.3,0.8
		l-0.1,0.3l-1.6-0.5L170.4,106.8z M176.8,109.3l-2-1.5l-0.2,0.2l1.2,2.1L176.8,109.3z M173.5,110.7v-2.6l-1.2,2.2L173.5,110.7z
		 M174.4,108.7l-0.3,0.1v1.9l1.2-0.1L174.4,108.7z"/>
	<path id="XMLID_159_" d="M170.9,43.9c-2.1,0.4-4.2,0.3-6.1-1c-1.2-0.8-2.4-1.7-3.6-2.4c-2.9-1.6-5.8-1-8.7,0.1l1.8,3.2l-0.4,0.3
		c-0.2-0.2-0.4-0.4-0.6-0.6c-1.4-1.3-2.7-2.6-4.1-3.9c-0.7-0.6-1.7-0.7-2.5-0.1c-0.8,0.6-0.9,1.5-0.6,2.4c0.6,1.8,1.4,3.5,1.9,5.4
		c1,4,1.5,8.1-0.4,12.1c-0.5,1-1.2,1.8-1.9,2.7l-0.3-0.2c0.1-0.5,0.3-0.9,0.5-1.3c2.6-5.5,1.9-11-0.4-16.4c-1-2.4-1.1-3.7,0.2-5.8
		c-1.7-0.1-3.1,1.1-3.1,3c0,1.2,0.3,2.5,0.8,3.6c1.4,2.8,2.6,5.7,2.6,9c0,2.2-0.3,4.3-1.5,6.3c-0.3,0.5-0.8,0.9-1.3,1.2
		c0.4-1.3,0.9-2.6,1.1-4c0.7-3.9,0.3-7.7-1.6-11.3c-0.6-1.1-1-2.3-1.3-3.6c-0.4-1.9,0.4-3.7,1.9-4.8c1.6-1.2,3.7-1.1,5.2,0.1
		c2.1,1.6,4,1.8,6.5,1c3.4-1.1,6.5-0.1,9.2,2.2c1.4,1.2,3,2,4.9,2.2c0.6,0,1.3,0.2,1.9,0.3C170.9,43.7,170.9,43.8,170.9,43.9z"/>
	<path d="M128,104.5c-0.4,1.7-0.8,3.2-1.2,4.8c2.2,0.2,4.7-1.1,6.8,1.1c-0.8-0.1-1.6-0.3-2.3-0.3c-1.8,0.2-3.7,0.5-5.5,0.7
		c-4.5,0.6-8.6-0.4-12.5-2.7c-0.3-0.2-0.6-0.4-0.8-0.7l1.5,0.2c0.1-0.8-0.5-1.9,0.9-2.4c0.1,0.6,0.1,1.3,0.1,1.9
		c0,0.7,0.2,1.2,0.9,1.3c1.2,0.3,2.4,0.7,3.7,1c-1.7-3.1-1.7-3.1-0.8-6.4c-3,0.4-5.3,2.4-8.1,3.3c1.4-1.9,3.3-3.3,5.5-4
		c5.2-1.8,10-0.5,14.5,2.5c1.5,1,2.9,2.2,4.3,3.4c0.4,0.3,0.8,0.5,1.1,0.7l-0.5,0.6C132.8,108.3,130.8,105.4,128,104.5z
		 M122.6,103.7c-0.1-0.2,0.4-1.4-0.8-0.7c0.1,0.3,0.2,0.6,0.3,0.9l-0.5,0.4c-0.2-0.5-0.4-1-0.6-1.5l-0.8,0.6
		c0.4,0.7,0.9,1.5,1.4,2.1c0.3,0.3,0.7,0.5,1.1,0.5c0.2,0,0.6-0.5,0.7-0.8c0.2-0.7,0.4-1.4,0.5-2.1L122.6,103.7z M124.4,109.3
		c-0.4-0.7-0.8-1.4-1.1-2l-0.2,0.1v2.2L124.4,109.3z M126.2,104l0-0.3c-0.5,0-1-0.1-1.5,0c-0.3,0.1-0.3,0.7-0.5,1.1l0.3,0.2
		L126.2,104z M124.9,105.4c0,0.1,0.1,0.2,0.1,0.3l1.6,0.2v-1.6L124.9,105.4z M121.1,106.3l-0.1-0.4l-1.9-0.1l0.4,1.4L121.1,106.3z
		 M124,106.8l-0.3,0.2l1.2,2c0.3-0.3,0.5-0.5,0.8-0.7C125.1,107.8,124.6,107.3,124,106.8L124,106.8z M126.1,107.7
		c0.5-1.2,0.3-1.4-1.8-1.4L126.1,107.7z"/>
	<path id="XMLID_150_" d="M147.4,229.1c0.3,0,0.6,0,0.8,0.1c1.8,0.3,2.2,0.9,1.8,2.7c-0.6,3-1.2,6.1-1.8,9.2
		c-1.6-3.4-0.3-6.8,0.6-10.2c-1.4,0-2.7,0-4,0c-0.4,0-0.8-0.3-1.3-0.5c0.2-0.5,0.2-1.2,0.6-1.4c0.7-0.6,1.6-1,2.5-1.5
		c2.9-1.5,5.9-3,8.8-4.5c0.4-0.2,0.7-0.5,0.9-0.8c-1.9,0.3-3.9,0.6-5.8,0.8c-4,0.6-8,0.5-11.9-0.6c-0.8-0.2-1.9-0.3-2.1-1.7
		c0.4,0,0.9,0.1,1.3,0.1c4.9,1.5,10,1.4,15,0.5c1.8-0.3,3.5-0.9,5.3-1.2c0.5-0.1,1.2,0.2,1.7,0.3c-0.2,0.6-0.2,1.5-0.7,1.7
		c-2.2,1.5-4.5,3-6.9,4.3c-1.6,0.9-3.4,1.6-5.1,2.4L147.4,229.1z"/>
	<path id="XMLID_149_" d="M108.2,48l5.4-1v-0.4c-0.6-0.1-1.2-0.1-1.8-0.4c-1.9-0.8-3.7-1.8-5.6-2.6c-0.4-0.2-0.9-0.4-1.2-0.3
		c-2.1,0.9-4,0.3-5.7-0.9c-2.6-1.8-3.6-4.4-3.7-7.4c0-0.7,0.4-1.3,0.8-2c0,3.3,0.8,6.3,3.5,8.4c1.2,0.9,2.6,1.2,4.3,0.8
		c-3.9-3.5-5.5-7.7-4.4-12.7c0.5-2.2,2-4.3,3.3-4.8c-0.4,1-0.7,2-1.2,2.8c-2.6,4.9-0.8,11,4,14.4c3,2.1,6.4,3.4,10.2,3
		c0.6-0.1,1.2,0.2,1.8,0.3c-0.4,0.5-0.8,1.1-1.3,1.5c-1.8,1.4-3.9,1.8-6.2,1.8c-0.8,0-1.6-0.3-2.4-0.4
		C108.1,48.2,108.1,48.1,108.2,48z"/>
	<path id="XMLID_148_" d="M153.4,46.8c1.1-1.5,3.1-2.2,4.9-1.6c2.2,0.7,3.6,2.3,5,3.9c3.3,4,7.3,6.5,12.6,6.8c2.8,0.2,5,1.6,6.9,3.6
		c0.3,0.3,0.6,0.7,0.8,1c1.3,1.7,2.3,3.6,4.4,4.8c1.3,0.7,2.1,2.3,3,3.6c0.8,1.2,1.6,2.3,3.3,2.7c-1.1,0.8-2.1,0.4-2.8-0.3
		c-0.7-0.7-1.3-1.6-1.9-2.5c-0.7-1-1.5-1.8-2.5-2.6c0.5,2.6,1.1,5.2,1.6,7.8l-0.5,0.1c-0.3-0.7-0.6-1.4-0.8-2.1
		c-1-3.1-1.9-6.1-3.6-8.9c-2.2-3.5-5.1-5.9-9.4-6.2c-4.7-0.3-8.1-2.8-11.2-6.1c-1.1-1.2-2.3-2.4-3.5-3.5c-1.3-1.2-2.8-1.7-4.6-0.9
		C154.7,46.6,154.1,46.6,153.4,46.8z"/>
	<path id="XMLID_147_" d="M123.9,45c0-0.3-0.2-0.7-0.1-1c0.6-2.6,1.9-4.8,4.3-6.2c2-1.2,3.9-0.8,5.7,0.4c4,2.7,6.4,6.5,7.4,11.2
		c0.5,2.4,0.8,4.8-0.4,7.4c-0.1-1.6-0.2-2.9-0.3-4.1c-0.4-5.7-2.6-10.4-7.5-13.6c-2.1-1.4-4.5-0.9-6,1.1c0,0.1,0.1,0.2,0.1,0.2
		c4.2-0.5,6.3,2.5,8.3,5.3c1.9,2.7,3,6,3.1,9.3c0,2.6-0.8,5-3.3,6.9c0.2-0.5,0.4-1,0.6-1.5c1.9-3.4,1.9-6.8,0.5-10.4
		c-1.2-3.1-2.9-5.7-5.7-7.7c-2.2-1.6-4.9-0.8-5.9,1.7c-0.2,0.4-0.4,0.7-0.6,1.1L123.9,45z"/>
	<path id="XMLID_146_" d="M138.6,32.4c0.5-0.6,0.9-1.2,1.4-1.7s1.1-1,1.9-1.7c-6,0.5-10.2,3.5-14,7.6l-0.4-0.4
		c0.2-0.5,0.3-1,0.7-1.4c3.3-4,7.6-6.3,12.8-6.9c2.1-0.3,4.3-0.3,6.4-0.9c4.2-1.2,7.7,0.6,11,3.1c2,1.5,3.8,3.4,6.4,4
		c0.9,0.2,1.8,0.4,2.9,0.6c-1.1,0.6-2.5,0.6-3.6,0c-2.2-1.1-4.5-2-6.2-3.6c-4.8-4.2-10-3.8-15-0.9c-1,0.6-1.8,1.3-2.7,2
		c-0.4,0.2-0.8,0.5-1.2,0.7C138.8,32.6,138.7,32.5,138.6,32.4z"/>
	<path id="XMLID_145_" d="M190.6,26.6c-1.7,1.4-3.7,0.9-5.8,1.2l4.6,4.1l-0.4,0.5c-0.5-0.4-1-0.7-1.4-1.1c-2.8-2.4-6-4.4-9.4-5.9
		c-1.8-0.8-3.6-1.3-5.6-0.9c-3.3,0.7-6.6-0.2-9.9-0.5c-2.7-0.3-5.3-0.1-7.8,0.9c-0.3,0.1-0.5,0.1-0.8,0.2l-0.2-0.3
		c0.4-0.3,0.7-0.8,1.2-1c2.7-1.3,5.8-1.7,8.8-1.1c6.6,1.3,12.9,0.8,18.9-2.6c0.2-0.1,0.4-0.1,0.5-0.2l0.2,0.3c-1,0.6-1.9,1.4-3,1.9
		c-1.1,0.6-2.3,1-3.4,1.5C181.2,25.8,185.6,27.5,190.6,26.6z"/>
	<path id="XMLID_144_" d="M160,70.9c-3.4-4.7-5.9-9.5-3.5-15.5c-0.6,7.8,2.2,14,9.2,18.1c-4.6,0.1-9.7-2.4-12-6.6
		c-2.7-5-1.4-13.3,0.7-15.8c0,0.4,0,0.8,0,1.2c-0.3,2.3-0.9,4.6-1,6.9c-0.3,4.3,1.2,8,4.9,10.6c0.3,0.2,0.6,0.4,0.9,0.6
		C159.4,70.7,159.7,70.8,160,70.9z"/>
	<path id="XMLID_143_" d="M185.6,32.1c0.4,0.1,0.8,0.3,1.1,0.5c0.5,0.4,1,0.8,1.5,1.2c2.2,2,4.5,3.8,7,5.5c3.2,2.2,5.2,5.4,7,8.8
		c0,0,0,0.1-0.1,0.4c-2.6-3.1-4.8-6.2-8-8.5c3.3,6.8,6.8,13.6,15.4,15.1l-0.2,0.4c-1.3-0.2-2.6-0.3-3.8-0.7c-3.2-1.2-6-2.8-7.8-6
		c-1.4-2.5-3.1-4.9-4.5-7.4c-1.7-3-4-5.5-6.6-7.7c-0.5-0.4-0.9-0.9-1.3-1.3L185.6,32.1z"/>
	<path id="XMLID_142_" d="M204,130.1c0.3-0.7,0.5-1.4,0.8-2.1c0.7-1.5,1-2.9,0.8-4.6c-0.5-4.3,0.9-8.2,2.5-12.1
		c0.5-1.2,1-2.5,1.6-3.7c1.3-2.6,1.5-5.5,0.7-8.3c-0.2-0.7-0.3-1.4-0.2-2.1c1.1,1,1.6,2.3,2,3.7c0.5,2.3-0.1,4.4-0.9,6.5
		c-1.4,3.6-2.8,7.1-4,10.8c-0.4,1.3-0.4,2.9-0.2,4.3c0.2,2.2,0,4.2-1.1,6.1c-0.4,0.7-1,1.2-1.5,1.8L204,130.1z"/>
	<path id="XMLID_141_" d="M149.7,25.3c-4.4-1.4-8.7-1.1-13,0.7c-4.3,1.8-6.6,5.7-9.6,8.9l-0.4-0.2c0.2-0.5,0.3-1.2,0.6-1.6
		c3.7-5.4,8.3-9.4,15.2-9.8c0.4,0,0.9-0.4,1.2-0.7c1.8-1.7,6.2-3.8,8.7-2.7c-2.6,0.9-5.4,1-7.3,3.2l4.7,1.5L149.7,25.3z"/>
	<path id="XMLID_140_" d="M174.6,66.8c-1.1,1.4-2.4,1.2-3.8,1c-4.4-0.7-7.3-3.5-9.2-7.3c-1.4-2.9-2.3-5.9-3.4-8.9
		c-0.2-0.4-0.3-0.8-0.5-1.2c-0.6-1.4-1.7-1.9-3.2-1.3c-0.7,0.3-1.4,0.7-2.2,1.1c0.5-1.3,2-2.4,3.4-2.4c1.4,0,2.6,0.6,3.1,1.9
		c1.1,2.9,2,5.9,3.2,8.7c1.8,4.4,4.8,7.5,9.7,8.4C172.7,66.9,173.7,66.8,174.6,66.8z"/>
	<path id="XMLID_139_" d="M178.1,64.7c0.7,2.8,2,5.4,0.9,8.5c-0.3-1-0.6-2.1-0.8-3.1c-0.5-2.9-1.6-5.8-3.2-8.3
		c-0.4-0.6-1.2-1-1.8-1.5c-0.9-0.6-1.8-1.1-3-1.7c4.7-1.2,13.4,8.3,13.8,15l-5.4-9.2L178.1,64.7z"/>
	<path id="XMLID_138_" d="M91.7,116.9c-0.5-0.2-0.9-0.3-1.2-0.4c0,0-0.1,0,0,0c0,1.8,0.1,3.6,0,5.3c-0.1,2.2,0.4,4.1,2.1,5.7
		l-0.2,0.3c-0.5-0.2-1.1-0.4-1.6-0.8c-1-0.9-1.6-2.2-1.5-3.6c0.1-3.6,0-7.2-1.2-10.6c-0.7-2-1.3-4-1.8-6c-0.4-1.8-0.5-3.7-0.7-5.5
		c0-0.5,0.1-1.1,0.2-1.6l0.4,0c0.3,1.4,0.6,2.7,0.8,4.1c0.5,4.6,2,8.9,4.6,12.7C91.6,116.5,91.7,116.7,91.7,116.9z"/>
	<path id="XMLID_137_" d="M190.3,51.4c-0.6,0.1-1.2,0.4-1.9,0.4c-3.5,0.2-6.6-0.9-9.3-3c-1.3-1-2.7-1.5-4.5-1.4
		c-3,0.2-5.9,0-8.6-1.5c-1.1-0.6-2.1-1.5-3.2-2.2c0.1-0.1,0.2-0.3,0.2-0.4c0.4,0.1,0.9,0.2,1.3,0.4c3.2,2.1,6.9,2.5,10.6,2.5
		c1.8,0,3.3,0.4,4.7,1.5c3,2.4,6.4,3.6,10.2,3.3c0.1,0,0.3,0.1,0.4,0.1C190.2,51.2,190.2,51.3,190.3,51.4z"/>
	<path id="XMLID_136_" d="M193.4,166.3c0,0.7,0.1,1.4,0,2.1c-0.4,2.3-0.9,4.5-1.2,6.8c-0.6,5-1.1,10,1.1,14.9
		c0.1,0.2,0.1,0.4,0.1,0.6c-0.9-0.5-2.1-2-2.4-3.9c-0.4-2.6-0.9-5.4-0.7-8c0.2-3.6,1-7.2,1.7-10.7c0.1-0.7,0.5-1.3,0.8-1.9
		L193.4,166.3z"/>
	<path id="XMLID_135_" d="M114.5,83.1c0.1,0.5,0.1,0.9,0.1,1.3c1.1,0.7,2.3,1.4,3.5,2.1c0.1,0.1,0.1,0.4,0.1,0.8l-3.6-1.5
		c0.1,0.5,0.1,0.8,0.2,1.1l-6.1-1.1l-0.1-0.3l5.1-1.2l0-0.3l-4.6-0.9l0-0.2l2.4-0.5c0-0.2,0-0.4-0.1-1c1.2,0.2,2.5,0.2,3.4,0.7
		c1.8,1,3.5,2.4,5.2,3.6c0.2,0.2,0.4,0.4,0.5,0.6c0.1,0.4,0.2,0.8,0.3,1.3c-0.4-0.2-0.9-0.3-1.2-0.6C118.1,85.5,116.6,84,114.5,83.1
		z"/>
	<path id="XMLID_134_" d="M141.7,119.8c2.5-9.8-2-16.8-8.6-23.3c3.2,0.6,8.5,7.7,9.9,12.3C144.2,113.1,143.8,117.9,141.7,119.8z"/>
	<path id="XMLID_133_" d="M101.3,154.4c0.6,1.9,1.2,3.9,1.9,5.7c0.8,2.1,1.1,4.1,0.4,6.2c-0.4,0.9-0.2,2,0.4,2.7
		c0.8,1.2,1.7,2.4,2.5,3.7c-2.6-0.6-7.1-8.2-6.1-10.8l2.1,3.7c0.5-1.6,0.3-3.1-0.3-4.5c-0.5-1.4-1-2.8-1.5-4.2
		C100.5,156,100.7,155,101.3,154.4z"/>
	<path id="XMLID_132_" d="M82.7,63.2c1.5-0.3,2.6-0.4,3.8-0.7c3.1-0.8,5.4-2.7,7.3-5.1c1.5-1.8,2.9-3.8,4.4-5.6
		c0.7-0.8,1.7-1.5,2.6-2.1c0.3-0.2,0.8-0.1,1.5-0.1c-0.3,0.4-0.3,0.6-0.4,0.7c-2.3,1-3.4,3-4.7,4.9c-2.3,3.4-5,6.4-9,7.7
		C86.5,63.4,84.8,63.8,82.7,63.2z"/>
	<path id="XMLID_131_" d="M189.9,85c-0.4,0.2-0.9,0.3-1.4,0.4c-2.3,0.4-4.4,1.3-6.3,2.7c-0.4,0.3-1,0.1-1.4,0.4
		c-0.5,0.3-0.9,0.7-1.6,0.9l1.4-3.1c-2.5,1.4-3.5,3.9-5.4,5.9c-0.3-3.2,4.5-7.7,9.8-8.2c-0.8,0.7-1.5,1.3-2.2,2
		C185,85.3,187.2,84.4,189.9,85z"/>
	<path id="XMLID_130_" d="M186.5,163.8l1-1.2c0.1,0.6,0.3,1.1,0.3,1.5c0.1,1.2,0.2,2.5,0.4,3.7c0.3,2.2-0.5,4-2.1,5.4
		c-0.3,0.3-0.7,0.4-1.3,0.5c2.2-2.6,2.4-5.5,1.6-8.6l-1.4,1.3c0-2.6,0-5.2,0.2-7.8c0.1-1.8,1-2.9,2.6-3.3
		C185.9,157.9,185.9,160.7,186.5,163.8z"/>
	<path id="XMLID_129_" d="M206.1,73.9c-1.8-3-3.4-6.1-5.5-8.7c-2.2-2.6-4.9-4.6-7.3-7.1c0.4,0.1,0.9,0.1,1.3,0.3
		c5.9,3.3,10,8.1,11.5,14.8C206.1,73.4,206.1,73.7,206.1,73.9z"/>
	<path id="XMLID_128_" d="M203.6,123.1c-0.8-4.1-1.5-7.9-2.2-12.1l1.8,1.7c0.5-1.8-0.9-3.2-1.2-4.8l0.4-0.2c0.5,0.5,1.2,1,1.4,1.6
		c0.5,1,0.9,2.2,0.9,3.3c0,2.9-0.3,5.8-0.5,8.7C204,121.8,203.8,122.3,203.6,123.1z"/>
	<path id="XMLID_127_" d="M173.2,88.6l-3.3,4.9l-0.3,0l0.2-2.1l-0.2-0.1l-2.9,4.3l-0.4-0.2c0.3-0.8,0.4-1.7,0.9-2.4
		c0.7-1,1.6-1.9,2.5-2.7c0.9-0.9,2-1.6,3-2.4c0.9-0.7,1.7-1.2,2.9-1.2c0.6,0,1.2-0.4,1.9-0.4l-5,5.7l-0.3-0.2l1.1-3L173.2,88.6z"/>
	<path id="XMLID_126_" d="M146.6,173.8c-0.7-1.2-1.5-2.3-2-3.5c-0.7-1.6-2.5-1-3.6-2.2c0.6-0.1,0.9-0.3,1.2-0.2
		c2.8,0.6,5.7,0.6,8.5,0c0.2,0,0.4,0,0.6,0l0.2,0.4l-2.9,1.3c2,1.7,0.7,4.3,1.7,6.5c-1.2-0.5-1.5-1-1.6-2.6c-0.1-1-0.4-1.9-0.7-2.8
		c-0.4-1.1-1.3-1.4-2.2-1.1c0.4,1.4,0.8,2.8,1.2,4.2L146.6,173.8z"/>
	<path id="XMLID_125_" d="M98.1,83c0-0.6-0.1-1,0-1.4c1.3-4.4,2.7-8.9,4-13.3c0.2-0.5,0.5-1,0.8-1.7C104.1,68.9,100.3,81.7,98.1,83z
		"/>
	<path id="XMLID_124_" d="M200,102.2c0.1,5.7-0.8,11.6,1.9,17l-0.6,0.2c-0.6-1.1-1.5-2.2-1.7-3.4c-0.5-2.5-0.8-5-1-7.5
		c-0.1-1.5,0.1-3,0.2-4.5c0.1-0.7,0.3-1.3,0.5-2L200,102.2z"/>
	<path id="XMLID_123_" d="M160.5,101.8c-0.3,0.6-0.6,1.2-0.9,1.8c-1.6,2.8-3,5.6-2.8,9c0.1,2.5,0.9,4.9,2.2,6.9l-0.3,0.3
		c-0.5-0.6-1.2-1.1-1.6-1.8c-1.8-3.4-2-7-0.6-10.5c0.7-1.8,1.9-3.4,2.9-5c0.2-0.3,0.6-0.5,0.8-0.8L160.5,101.8z"/>
	<path id="XMLID_122_" d="M105.4,149.9c0,0.6,0.1,1.3,0,1.9c-0.6,2.5-0.5,4.9,0.7,7.3c1,2.1,1.2,4.3,0.5,6.6
		c-0.2,0.6-0.6,1.2-0.9,1.8l-0.3-0.1c0-0.2,0-0.5,0-0.7c0.6-2.5,0.4-5-0.7-7.3c-1.2-2.7-1.1-5.5-0.2-8.3c0.1-0.4,0.3-0.8,0.5-1.2
		L105.4,149.9z"/>
	<path id="XMLID_121_" d="M92.4,87.2c0.5-1.4,1-2.8,1.5-4.3c0.9-2.4,0.6-4.9,0.6-7.4c0-1,0.2-2,0.4-3c0-0.2,0.4-0.3,0.6-0.4
		c0.1,0.2,0.4,0.5,0.4,0.8c0,2.2,0.1,4.4,0,6.6C96,81.8,95.1,84,94,86c-0.3,0.6-0.9,1-1.3,1.5L92.4,87.2z"/>
	<path id="XMLID_120_" d="M189,47.6c-5,1.3-15.3-4.5-15.4-9c0.5,0.4,0.9,0.7,1.2,1c2.7,2.8,5.6,5.5,9.4,6.7
		C185.8,46.8,187.4,47.1,189,47.6z"/>
	<path id="XMLID_119_" d="M134.3,104.6c-0.6-0.5-1.2-1.1-1.8-1.6c-2.4-2.4-5.2-4.2-8.5-5.1c-2.4-0.7-4.9-0.5-7.3,0.3
		c-0.3,0.1-0.7,0.2-1,0.3l-0.2-0.3c0.8-0.4,1.6-1,2.5-1.3c3.4-1.1,6.5-0.2,9.5,1.4c2.7,1.4,4.7,3.5,6.7,5.7c0.1,0.1,0.2,0.3,0.2,0.5
		L134.3,104.6z"/>
	<path id="XMLID_118_" d="M192.4,150.1c0.2-2.5,0.4-5,0.7-7.5c0.8,0.4,0.8,0.4,1.4,3.2c0.4-1,0.8-1.8,1-2.7c0.3-0.9,0.6-1.8,0.8-2.8
		c0.2-0.9,0.1-1.8,0.4-2.8c0.9,1.1,1,2.4,0.8,3.6c-0.3,1.3-0.7,2.7-1.4,3.8C194.9,146.8,193.4,148.3,192.4,150.1z"/>
	<path id="XMLID_117_" d="M89.7,103.2c-2.3-1.6-2.8-3.9-2.8-6.3c0-0.6,0-1.2,0.2-1.8c0.2-0.6,0.6-1.3,1.1-1.6
		c0.3-0.2,1.1,0.2,1.5,0.6c0.6,0.4,1,1.1,1.5,1.6L91.1,96l-2.3-1.5l-0.2,0.2c0.5,1.1,0.9,2.3,1.4,3.5l-0.5,0.4
		c-0.4-0.6-0.8-1.2-1.2-1.8L88,96.9c0.6,1.2,1.2,2.4,1.9,3.7l-1.1,0.1C89.1,101.5,89.4,102.3,89.7,103.2z"/>
	<path id="XMLID_116_" d="M171.9,100.2c2.6-1.8,5.4-2,8.3-1.2c3.3,1,6.1,2.8,7.4,6.3c-2.2-1.9-4.1-4.1-7-5.1
		S174.8,100.1,171.9,100.2z"/>
	<path id="XMLID_115_" d="M97,138.2c-0.1-1.7-0.1-3.5-0.4-5.2c-0.4-2.3-1.1-4.4-1.6-6.7c-0.2-0.9-0.2-1.9-0.2-2.9
		c0-0.3,0.3-0.7,0.5-1c0.2,0.2,0.4,0.3,0.4,0.4c0.7,3.3,1.6,6.5,2.1,9.8c0.3,1.5-0.1,3.2-0.2,4.8c0,0.3-0.2,0.6-0.4,0.8L97,138.2z"
		/>
	<path id="XMLID_114_" d="M195.7,157.9c-0.2-1.8-0.5-3.4-0.7-5.1c-0.1-0.7-0.4-1.3-0.5-2c0-0.3,0-0.6,0.1-0.9
		c0.3,0.1,0.8,0.2,0.9,0.4c0.4,0.9,0.8,1.8,1.2,2.9c1.1-2.1,0.6-4.3,0.1-6.6c1.5,0.9,2.2,2.8,1.8,4.6c0,0.3-0.1,0.6-0.2,0.8
		C197.4,154,196.6,155.9,195.7,157.9z"/>
	<path id="XMLID_113_" d="M130.8,36.2c0.9-2.1,4.2-2.2,7.6-0.6c1-0.7,1.7-1.5,2.7-2c0.4-0.2,1.2,0.3,1.8,0.5c0,0.1,0,0.2-0.1,0.4
		c-0.3,0-0.6,0.1-0.9,0c-1.7-0.1-2.6,1.3-2,2.9c0.3,0.9,0.4,1.8,0.4,2.7C138.5,35.3,134.9,35.1,130.8,36.2z"/>
	<path id="XMLID_112_" d="M192.3,91c-1.3-1.5-1.8-1.5-6.3-0.5l1.3-1.9l-0.1-0.3l-4.6,1.8c0.9-2.3,6.1-3.6,8.5-2.2l-0.8,0.5
		c1.6,0.6,2.9,1.4,3.1,3.2L192.3,91L192.3,91z"/>
	<path id="XMLID_111_" d="M163.2,52.8c0.3,0.5,0.6,1,0.8,1.5c1.5,3.6,3.4,6.9,6.7,9.2c0.7,0.5,1.5,1,2.4,1.6
		C169.5,65.6,162.9,58.2,163.2,52.8z"/>
	<path id="XMLID_110_" d="M120.7,82.2c0.3,0,0.7,0,1,0.1c2.8,1.6,6.1,2.6,7.1,6.2c0.1,0.4,0.2,0.9,0.3,1.3l-0.3,0.1l-4.2-5.9
		l-0.3,0.2c0.7,1.5,2.1,2.8,1.8,4.7c-1.9-2.1-2.8-5.1-5.6-6.5L120.7,82.2z"/>
	<path id="XMLID_109_" d="M167.3,185.3c0.5,2.2-0.5,4.7,1.7,6.4v-3.8l0.4,0c1,1,1,2.4,0.9,3.7c-0.1,1.4-0.9,2.3-2.5,2.9
		c0.4-0.8,0.6-1.4,0.9-2C166.2,191.2,165.3,187.1,167.3,185.3z"/>
	<path id="XMLID_108_" d="M95,108.5c2.1,2.5,1.1,11.8-1.5,13.8c0.1-0.5,0.1-0.9,0.2-1.3C95.2,117.1,94.7,112.8,95,108.5z"/>
	<path id="XMLID_107_" d="M178.5,180.6c-1.7,0.1-2.7-0.6-3.1-2c-0.4-1.3-0.2-2.7,0.7-3.8c0.7,1.7-0.1,4,2.2,5.1
		c0.1-0.4,0.2-0.8,0.2-1.3c2.2,0.9,1.3,5.1-0.7,6.8c0.1-1,0.2-1.7,0.3-2.4C178.2,182.3,178.3,181.5,178.5,180.6z"/>
	<path id="XMLID_106_" d="M92.5,106.3c-1.9-4.3,0.4-10.6,3.8-12.8c-0.9,2.1-2.1,4.1-2.7,6.2S92.8,104.1,92.5,106.3z"/>
	<path id="XMLID_105_" d="M118.1,161.4c0,0.4,0,0.8,0,1.2c-1.2,5.3-1.2,5.7,0.8,10.8l-0.2,0.2c-0.5-0.5-1.1-0.9-1.4-1.5
		c-1.7-3.3-1.5-6.7-0.2-10.1c0.1-0.3,0.5-0.6,0.7-0.9L118.1,161.4z"/>
	<path id="XMLID_104_" d="M97.5,144.9c-0.8,5-0.8,9.8,1.8,14.4C95.1,156.3,95.3,148.2,97.5,144.9z"/>
	<path id="XMLID_103_" d="M82.6,78.6l7.5-10.8c0,0.6,0.2,1.2,0,1.7c-0.8,1.7-1.7,3.3-2.7,4.8C86.3,76,84.7,77.3,82.6,78.6z"/>
	<path id="XMLID_102_" d="M197.6,86.3c2.1,1.1,3.2,9.4,1.7,12.8C198.7,94.6,198.2,90.5,197.6,86.3z"/>
	<path id="XMLID_101_" d="M116.3,183.4c-2.6-0.9-3.5-2.9-4-5.2c-0.3-1.8-0.6-3.5,0.4-5.1l0.4,0c0.1,0.4,0.4,0.9,0.4,1.3
		c-0.2,3.2,0.5,6.1,2.7,8.5C116.3,182.9,116.3,183,116.3,183.4z"/>
	<path id="XMLID_100_" d="M210.3,60.8c-2.8,2.5-10.4,0.6-11.3-3C202.7,59.9,206.2,61.4,210.3,60.8z"/>
	<path id="XMLID_99_" d="M108.8,88l1.9,1l-0.1,0.4h-3.4l1,1.3c-0.9,0.1-1.5,0.1-2.2,0.2s-1.2,0.3-1.8,0.5l-0.2-0.3
		c0.6-0.4,1.1-0.7,1.7-1.1c0.7-0.4,1.4-0.7,2.1-1.1l-0.2-0.4l-1.6,0.5c-0.1-0.1-0.1-0.2-0.2-0.3c0.5-0.4,0.9-0.9,1.5-1.2
		c1.5-0.8,3.1-1.1,4.8-0.6c0.3,0.1,0.5,0.5,0.7,0.7c-0.3,0.1-0.6,0.2-0.9,0.3C111.1,88.1,110.1,88,108.8,88z"/>
	<path id="XMLID_98_" d="M129.3,194.5l3.2-3.2c0.7,0.5,0.3,1.2,0,1.8c-0.8,1.6-3.1,2.7-5.2,2.5c0.1-0.5,0.2-1,0.3-1.5
		c0.2-1.1,0.4-2.1,0.7-3.2c0.1-0.3,0.3-0.6,0.4-0.9c0.2,0.3,0.7,0.5,0.7,0.8C129.5,191.9,129.4,193,129.3,194.5z"/>
	<path id="XMLID_97_" d="M109.8,167.4c-0.5,4-0.1,7.8,1.7,11.7C107.9,177,107.6,169.8,109.8,167.4z"/>
	<path id="XMLID_96_" d="M140.2,142.2c-1.7-1-3.4-2-5-3.2c-2.3-1.6-2.5-4.6-0.6-6.5c0.2-0.2,0.5-0.3,0.8-0.4l0.2,0.2
		c-0.2,0.4-0.4,0.8-0.6,1.2c-1.1,2.3-0.6,3.8,1.6,5.1C138.7,139.8,139.7,140.8,140.2,142.2z"/>
	<path id="XMLID_95_" d="M181.6,179.6c-1.1-1.2,0.6-2.9-1.4-3.9l1.8-1c-0.3-1.8-0.4-3.7,1.5-5.4v7.1h-1.1
		C182.2,177.6,181.9,178.6,181.6,179.6z"/>
	<path id="XMLID_94_" d="M161.8,194c0,0.3,0.1,0.7,0,1c-0.8,1.7-1.5,3.4-2.4,4.9c-0.5,0.9-0.9,0.8-1.6,0h-3.2c0.3-1,1-1.5,2-1.5
		c0.2,0,0.4,0,0.6,0c0.9-0.4,0.9-0.4,1.6,0.6l2.5-5.1L161.8,194z"/>
	<path id="XMLID_93_" d="M137.1,194.3c0.1,1,0.1,1.9,0.4,2.7s1.1,1.4,1.6,2.1c-2,0.6-2.4-0.1-3.2-2.3c-1.4,0.7-2.8,1.7-4.5,0.7
		L137.1,194.3z"/>
	<path id="XMLID_92_" d="M93.4,111.5c-0.6-1.8-0.6-3.8,0-5.7c0.5-1.6,0.8-3.3,1.2-4.9c0.1-0.5,0.3-1,0.4-1.4h0.5
		c0.1,0.8,0.2,1.6,0.2,2.4c0,0.7-0.2,1.4-0.4,2.1C94.7,106.5,94.1,109,93.4,111.5z"/>
	<path id="XMLID_91_" d="M113.7,73.1c1.5-2.2,3.7-3.2,6.4-3.1c1.2,0.1,2.4,0.5,3.6,0.8c0.2,0.1,0.4,0.5,0.6,0.8
		c-0.3,0.1-0.6,0.2-0.8,0.2C119,71.2,118.6,70.8,113.7,73.1z"/>
	<path id="XMLID_90_" d="M101.4,141.3c2.3,1.9,1.1,9.7-1.7,11.8C101.2,149.4,101.8,145.3,101.4,141.3z"/>
	<path id="XMLID_89_" d="M204.1,96.7c2.1,1.5,2.5,7.9,0.8,11.2C204.6,104,204.3,100.4,204.1,96.7z"/>
	<path id="XMLID_88_" d="M90.8,58.4C89.4,56,92.2,47.7,94.9,47c-0.9,1.9-1.9,3.7-2.6,5.6C91.7,54.4,91.3,56.4,90.8,58.4z"/>
	<path id="XMLID_87_" d="M91.9,94.9c-0.6-0.8-1.1-1.4-1.5-2c-0.4-0.5-0.8-1-1.3-1.5c-0.9-0.8-1.7-0.6-2.1,0.5
		c-0.2,0.4-0.2,0.9-0.4,1.4c-0.1,0.4-0.3,0.8-0.4,1.2l-0.3,0c0-1-0.2-2,0-3c0.4-1.7,1.5-2.2,3.1-1.5C90.8,90.9,92.1,92.9,91.9,94.9z
		"/>
	<path id="XMLID_86_" d="M211.2,84.4l-3.4-9.8C210.3,75.6,212.2,81.2,211.2,84.4z"/>
	<path id="XMLID_85_" d="M158.5,141.7c0.7-0.7,1.4-1.4,2.2-2c0.6-0.5,1.2-0.8,1.8-1.2c1.2-0.8,1.7-1.9,1.5-3.3c0-0.5,0-1,0-1.6
		c1.5,0.7,1.9,2.8,0.8,4.1c-0.6,0.7-1.3,1.3-2.1,1.9c-0.6,0.5-1.4,0.8-2.1,1.3c-0.6,0.4-1.2,0.8-1.9,1.3L158.5,141.7z"/>
	<path id="XMLID_84_" d="M94.3,128.1c0.4,3.5,0.7,6.9,1.1,10.3C93.4,137.2,92.4,130.3,94.3,128.1z"/>
	<path id="XMLID_83_" d="M97.1,85c1.1,2-1.6,8.5-4,9.6C94.5,91.3,95.8,88.1,97.1,85z"/>
	<path id="XMLID_82_" d="M200.3,150.4c-0.5-3.1-0.9-6.3-1.4-9.6c0-0.1,0.2-0.2,0.2-0.4C201.5,141.8,202,148.4,200.3,150.4z"/>
	<path id="XMLID_81_" d="M136.2,93.5l-0.8-4.9l-0.4,0c0,1.2,0.4,2.4-0.7,3.7c-0.3-2.1-0.6-4-0.9-5.9C136.7,88.5,138,91.4,136.2,93.5
		z"/>
	<path id="XMLID_80_" d="M165.3,47.8c1.8,1.1,3.2,2.3,4.9,3.1c1.7,0.8,3.5,1.1,5.2,1.6C172.8,53.9,165.7,50.9,165.3,47.8z"/>
	<path id="XMLID_79_" d="M154.1,116.4c1.8,3.3,3.5,6.3,5.2,9.4C157.1,125.3,153.7,119.4,154.1,116.4z"/>
	<path id="XMLID_78_" d="M152,199.3c0.3-0.6,0.6-1.1,0.7-1.7c0.5-1.4,0.9-2.9,1.4-4.3c0.1-0.4,0.3-0.7,0.5-1
		c0.3,0.2,0.7,0.4,0.8,0.6C156.3,195.6,154.6,198.7,152,199.3z"/>
	<path id="XMLID_77_" d="M98.6,151.1v-9.8C100.5,142,100.7,148.1,98.6,151.1z"/>
	<path id="XMLID_76_" d="M205.3,64.5c2.4,0.1,4.7,3.6,4.6,7.9L205.3,64.5z"/>
	<path id="XMLID_75_" d="M192.6,154.7c2.6,2.8,2.6,7.1-0.2,9.3c0.3-1.5,0.8-3.1,0.8-4.7C193.2,157.7,192.8,156.2,192.6,154.7z"/>
	<path id="XMLID_74_" d="M124.4,184c1.9,0.7,3.2,5.9,1.3,9.2C125.3,190.2,124.9,187.1,124.4,184z"/>
	<path id="XMLID_73_" d="M208.4,82.4c1.7,2.8,2.3,6.2,1.6,9.5c-0.8-3.1-1.5-6.2-2.3-9.4L208.4,82.4z"/>
	<path id="XMLID_72_" d="M172.4,173.3c2.9,1.4,3.5,6.1,0.7,8.6C173.8,178.8,173.7,176,172.4,173.3z"/>
	<path id="XMLID_71_" d="M145.7,33.5c3.6,0.6,6.9-0.4,10.4-1.7C154.5,34.5,147.6,35.6,145.7,33.5z"/>
	<path id="XMLID_70_" d="M94.1,43.2c0.3,0.2,0.5,0.2,0.6,0.3c1.7,2.2,4.2,2.6,6.7,2.5c0.2,0,0.3,0,0.5,0c0.3,0.1,0.5,0.3,0.8,0.4
		c-0.2,0.2-0.4,0.5-0.6,0.6c-0.9,0.1-1.7,0.2-2.6,0.2C96.8,47.1,94.7,45.5,94.1,43.2z"/>
	<path id="XMLID_69_" d="M122.6,191.7c-0.5-2.8-1.7-5.4-3.4-7.7c-0.2-0.3-0.2-0.7-0.2-1.1c0.3,0,0.6,0,0.9,0.2
		c1.7,1.1,3.6,5.9,3.1,7.9C122.8,191.3,122.7,191.5,122.6,191.7z"/>
	<path id="XMLID_68_" d="M189.4,165.9c0.1-1.5,0.3-2.9,0.4-4.3c0-1.3-0.1-2.7-0.2-4.3C192.1,159.7,191.5,164.1,189.4,165.9z"/>
	<path id="XMLID_67_" d="M94.2,140.5c1.8,1.8,1.6,6.3-0.5,8.9C93.9,146.3,94,143.4,94.2,140.5z"/>
	<path id="XMLID_66_" d="M207.1,92.8c1.7,1.9,1.7,6.7,0,9V92.8z"/>
	<path id="XMLID_65_" d="M179.4,166.8c0.1,2.2-1.9,4.9,1,6.7c-0.7,0.7-1.5,0.7-2.2,0C176.9,172,177.6,167.8,179.4,166.8z"/>
	<path id="XMLID_64_" d="M204,132.6c-1.7,0.5-2.7-0.1-3.4-1c-1.1-1.5-1.8-3.2-1.2-5.2C200.8,128.5,200.9,131.4,204,132.6z"/>
	<path id="XMLID_63_" d="M143,31.5l8.6-1.3C150.2,32.2,144.2,33.2,143,31.5z"/>
	<path id="XMLID_62_" d="M121.5,182c-2-0.2-3.2-1.1-3.8-2.7c-0.5-1.3-1-2.7,0.1-4.4c0.4,1.5,0.5,2.9,1.1,4
		C119.5,180,120.6,180.9,121.5,182z"/>
	<path id="XMLID_61_" d="M129,180.8c0.6,2.5,0.8,5.2,2.9,7.3C129.2,187.8,127.3,183,129,180.8z"/>
	<path id="XMLID_60_" d="M177.7,149c0.9,2.5,2.2,4.6,5.1,5c-1.6,0.8-3.1,0.5-4.2-0.7C177.2,151.8,176.8,150.4,177.7,149z"/>
	<path id="XMLID_59_" d="M153.6,190c0.1-0.4,0.2-0.7,0.3-1.1c0.6-1.3,0.7-2.6-0.2-3.9c-0.2-0.3-0.3-0.6-0.3-0.9
		c0-0.2,0.6-0.5,0.6-0.5c0.9,1,2,1.8,1.8,3.4c-0.1,1.4-0.6,2.5-2,3C153.8,190.1,153.8,190.1,153.6,190z"/>
	<path id="XMLID_58_" d="M116.7,69.1l-6.5,3.8c-0.1-0.7,0.4-1.7,1.5-2.5C113.2,69.4,114.8,68.4,116.7,69.1z"/>
	<path id="XMLID_57_" d="M192.3,90.9c0.4,0.8,0.6,1.7,1.5,2.3c0.6,0.4,1,1.2,1.5,1.8l-0.3,0.2c-1.3-0.8-2.6-1.7-4-2.5l1.2-0.4
		l0.1-0.3l-3.4-0.8C189.5,90.2,190.1,90.1,192.3,90.9L192.3,90.9z"/>
	<path id="XMLID_56_" d="M136.7,188.5c-1.7,0-2.6-0.7-3-1.9c-0.5-1.2-0.2-3,0.6-3.6c0.2-0.2,0.4-0.2,0.6-0.2
		c0.2,0.1,0.3,0.3,0.3,0.6C134.5,185.3,135,186.9,136.7,188.5z"/>
	<path id="XMLID_55_" d="M199.3,133.1c0.3,2.2,1.2,3.9,3,4.9c-0.9,0.8-1.8,0.6-2.9-0.5C198.1,136.2,198,134.6,199.3,133.1z"/>
	<path id="XMLID_54_" d="M142.4,201.8c0.8-2.1,1.7-4.1,2.5-6.2c1,1.1,0.7,2.3,0.3,3.4C144.7,200.5,143.8,201.5,142.4,201.8z"/>
	<path id="XMLID_53_" d="M131.4,90.6l-4.5-6.8C128.8,83.8,132.1,88.5,131.4,90.6z"/>
	<path id="XMLID_52_" d="M149.4,197.6c0.8,2.1,1.8,3.5,4.1,3.1c-0.7,1.3-1.9,1.6-3.3,0.9C149,200.9,148.6,199.2,149.4,197.6z"/>
	<path id="XMLID_51_" d="M168.6,101.7c-2.1,1.7-3.6,4.1-6.1,5.4C163.8,104.6,165.9,102.8,168.6,101.7z"/>
	<path id="XMLID_50_" d="M139.8,190.9c0.7,1.8,0.7,3.9,2.6,5c-0.9,0.7-1.8,0.5-2.6-0.4C138.8,194,138.8,191.7,139.8,190.9z"/>
	<path id="XMLID_49_" d="M182.6,162.5c1.2,1.1,1.4,2.3,1.2,3.5c-0.2,1.6-0.8,3-2.5,3.8c0.5-1.3,1-2.4,1.2-3.5
		C182.7,165.1,182.6,163.9,182.6,162.5z"/>
	<path id="XMLID_48_" d="M158,184.6c0.5,1.5-1.3,4,2,4c-1,1.1-2.1,1.2-2.8,0.5C156.2,188,156.3,185.6,158,184.6z"/>
	<path id="XMLID_47_" d="M173,191.4l2.6-6.2C176.9,186.8,175.3,190.5,173,191.4z"/>
	<path id="XMLID_46_" d="M124.1,181c-2-1.2-2.5-4.9-0.8-6.5C123.5,176.7,123.8,178.8,124.1,181z"/>
	<path id="XMLID_45_" d="M171.6,183.3c2,1.6,1.8,5.6,0,6.6V183.3z"/>
	<path id="XMLID_44_" d="M123,87.6c-2-2.2-3.5-4.9-6.5-6C118.7,81.4,123.2,85.1,123,87.6z"/>
	<path id="XMLID_43_" d="M202.2,125.2c-1.2,0.2-1.8-0.6-2.2-1.4c-0.5-1.2-1.4-2.3-0.8-3.7l0.4-0.1
		C200.5,121.7,201.4,123.4,202.2,125.2z"/>
	<path id="XMLID_42_" d="M85.8,87.1c0.5-1.8,1-3.6,1.6-5.4c0.1-0.2,0.5-0.3,0.7-0.5c0.1,0.3,0.4,0.5,0.4,0.8
		c-0.2,1.9-1.1,3.8-2.4,5.2L85.8,87.1z"/>
	<path id="XMLID_41_" d="M119.4,149.3c0.5,2-1.2,4.9-3.5,6C117,153.4,118.1,151.5,119.4,149.3z"/>
	<path id="XMLID_40_" d="M163.9,97.2c-0.4-1.8,1.3-4.7,3.5-5.8l-3.1,6L163.9,97.2z"/>
	<path id="XMLID_39_" d="M143.8,190.4c-1.2,0.5-1.8,0-2.3-0.8c-0.8-1.5-0.7-3.1,0.4-4C142.5,187.2,141.8,189.2,143.8,190.4z"/>
	<path id="XMLID_38_" d="M189.8,155.5l-1-5.7C190.9,150.7,191.3,153.2,189.8,155.5z"/>
	<path id="XMLID_37_" d="M165,192.2c1.1,1.8-0.5,4.1-2.9,4.5L165,192.2z"/>
	<path id="XMLID_36_" d="M176,21.4l-5.7,0.5C170.7,20,173.9,19.7,176,21.4z"/>
	<path id="XMLID_35_" d="M120.2,172c-1.2-0.4-1.8-1.5-2-2.8c-0.1-1,0.1-1.9,1-2.5L120.2,172z"/>
	<path id="XMLID_34_" d="M112.9,156c0.8-1.4,1.5-2.8,2.3-4.2c0-0.1,0.7,0.1,0.8,0.2c0.1,0.4,0.1,0.9,0,1.2c-0.8,1.1-1.7,2.1-2.5,3.2
		L112.9,156z"/>
	<path id="XMLID_33_" d="M137.9,90.1c1.5,1.3,1.7,4.5,0.4,5.7c-0.2,0.2-0.4,0.2-0.6,0.2c-0.2-0.1-0.3-0.4-0.2-0.6
		c0.2-0.9,0.5-1.8,0.6-2.7C138.1,91.9,137.9,91,137.9,90.1z"/>
	<path id="XMLID_32_" d="M117.3,184.1l2.6,4.7C117.9,188.8,116.2,186,117.3,184.1z"/>
	<path id="XMLID_31_" d="M132.9,91.5l-1.9-5.8C132.8,86.4,134,89.5,132.9,91.5z"/>
	<path id="XMLID_30_" d="M173.4,147.1c1.8,0.7,2.6,3.6,1.7,6.2C174.5,151.1,174,149.1,173.4,147.1z"/>
	<path id="XMLID_29_" d="M143.6,140.3c-1.3-0.4-2.6-0.8-3.9-1.3c-0.3-0.1-0.5-0.4-0.7-0.6c0.3-0.2,0.6-0.6,1-0.7
		C141.2,137.6,143.2,139,143.6,140.3z"/>
	<path id="XMLID_28_" d="M162.3,182.6c1.1,0.3,1.5,1.1,1.5,1.9c0.1,1.3-0.6,2.2-2.1,2.8c0.3-0.9,0.6-1.6,0.7-2.4
		C162.6,184.3,162.4,183.5,162.3,182.6z"/>
	<path id="XMLID_27_" d="M127.1,184.1c-1.6-0.3-2.3-2.8-1.8-4.2c0.1-0.2,0.4-0.4,0.6-0.6c0.1,0.2,0.4,0.4,0.4,0.7
		C126.7,181.4,126.9,182.7,127.1,184.1z"/>
	<path id="XMLID_26_" d="M183.6,149.5l-2.8-4.4C183,145,184.5,147.5,183.6,149.5z"/>
	<path id="XMLID_25_" d="M167.2,21c0.6-1.9,3.3-2.5,5.6-1.4L167.2,21z"/>
	<path id="XMLID_24_" d="M155.4,141c0-1.4,1.9-3.2,3.3-2.9c0.2,0,0.5,0.2,0.5,0.3c0,0.3-0.1,0.5-0.4,0.7
		C157.7,139.8,156.5,140.4,155.4,141z"/>
	<path id="XMLID_23_" d="M152.8,174.5c-1.6-1.1-1.8-4.6,0-5.7V174.5z"/>
	<path id="XMLID_22_" d="M156.4,174.8c-0.3-1.8-0.7-3.6-1-5.5C157.2,170,157.6,172.3,156.4,174.8z"/>
	<path id="XMLID_21_" d="M156.8,206.5c-0.2-1,0.5-2.3,1.4-2.6c0.3-0.1,0.6,0,0.9,0.1c0.2,0.2,0.3,0.6,0.2,0.9
		C159.2,205.6,157.7,206.5,156.8,206.5z"/>
	<path id="XMLID_20_" d="M140.3,174.4c-1.3-0.7-1.6-3.4-0.4-4.4c0.2-0.1,0.4-0.2,0.6-0.1c0.1,0.1,0.2,0.4,0.2,0.6
		C140.6,171.8,140.4,173,140.3,174.4z"/>
	<path id="XMLID_19_" d="M146.7,186.4c0.4,0.6,1.1,1.1,1.2,1.7c0.3,1.2,0.1,2.3-1,3.2c-0.1-1.6-0.2-3.2-0.4-4.7L146.7,186.4z"/>
	<path id="XMLID_18_" d="M169.2,183.6c-0.3-1.6-0.6-3.1-0.9-4.8c1.1,0.7,1.7,1.5,1.9,2.7C170.2,182.4,169.9,183.2,169.2,183.6z"/>
	<path id="XMLID_17_" d="M151.5,191.3c1.7,1.5,1.4,3.6-0.6,4.4C151.1,194.2,151.3,192.8,151.5,191.3z"/>
	<path id="XMLID_16_" d="M143.2,171.4c-0.4,1.7-0.6,3.3,0.5,4.9c-1.1-0.2-1.6-0.7-1.8-1.6C141.7,173.4,142.1,172.3,143.2,171.4z"/>
	<path id="XMLID_15_" d="M146,200.4c1,1,1.9,2,3.6,1.1c-1,1.5-2.1,1.9-3,1.2C145.9,202.2,145.4,201.5,146,200.4z"/>
	<path id="XMLID_14_" d="M151.3,144.3c-1.3,1.2-2.6,1.4-3.8,0.6c-0.2-0.2-0.3-0.5-0.4-0.8c0.3-0.1,0.6-0.3,0.8-0.3
		C149,143.9,150.1,144.1,151.3,144.3z"/>
	<path id="XMLID_13_" d="M111.2,112.3l3.6,3.4c-1.7-0.1-3.5-1.6-3.9-3.1L111.2,112.3z"/>
	<path id="XMLID_12_" d="M146.8,156.4l5.1-0.9C150.7,157,148.4,157.4,146.8,156.4z"/>
	<path id="XMLID_11_" d="M89.5,84.1c0.2,1.9-0.5,3.3-2,4.3C87.9,86.9,88.4,85.4,89.5,84.1z"/>
	<path id="XMLID_10_" d="M189.3,112.5c-1,1.2-2.1,1.4-3.2,1.4c-0.3,0-0.6-0.4-0.9-0.6c0.3-0.2,0.5-0.5,0.8-0.6
		C187,112.6,188,112.5,189.3,112.5z"/>
	<path id="XMLID_9_" d="M106.4,109.1c-1.9-0.6-2.8-2.6-1.8-4.2L106.4,109.1z"/>
	<path id="XMLID_8_" d="M182.1,114.9h4.1C185.4,116.1,183.5,116.3,182.1,114.9z"/>
	<path id="XMLID_7_" d="M171,181.3c-0.1-1.5-0.2-2.8-0.3-4.2C172.2,177.8,172.4,179.9,171,181.3z"/>
	<path id="XMLID_6_" d="M115.8,114.1l3.3,2.3c-1.7,0.4-3.2-0.6-3.6-2L115.8,114.1z"/>
	<path id="XMLID_5_" d="M113.6,100.3l-2.9,3.6l-0.4-0.3l2.7-3.7L113.6,100.3z"/>
	<path id="XMLID_4_" d="M196.3,98.5l-3-2.3l0.3-0.3C194.9,96,196.1,97.4,196.3,98.5z"/>
	<path id="XMLID_3_" d="M183,116.8c-1.9,1.1-3.2,1-4.1,0H183z"/>
	<path id="XMLID_2_" d="M106,92.2l-3.2,2.2C102.9,93,104.2,92.1,106,92.2z"/>
</g>
<g id="XMLID_199_">
</g>
</svg>
