<?xml version="1.0" encoding="UTF-8"?>
<svg viewBox="0 0 268 41" version="1.1" xmlns="http://www.w3.org/2000/svg" xmlns:xlink="http://www.w3.org/1999/xlink">
    <defs></defs>
    <g id="Page-1" stroke="none" stroke-width="1" fill="none" fill-rule="evenodd">
        <g id="CompUSA---HOTTEST" transform="translate(-40.000000, -78.000000)" fill="#CB3524">
            <path d="M306.988882,112 L292,112 L292.706846,118 L308,118 L306.988882,112 Z M304.338409,97 L292.624612,97 L293.738658,103.64878 L304.510876,103.843902 L292,110.707317 L292.158484,112 L307,112 L304.338409,97 Z M264,118 L279.390071,118 L282,112 L266.898345,112 L264,118 Z M237.439865,112 L236,114.834621 C240.186097,117.425811 245.883574,119 251.013688,119 C256.801753,119 262.97124,116.679289 267,112 L237.439865,112 Z M270.129696,105 L269.612592,106.078488 C269.695698,105.722384 269.764953,105.361192 269.820357,105 L254.921301,105 C255.096747,105.305233 255.170619,105.696948 255.087513,106.210756 C254.782791,108.138808 252.432739,108.764535 251.019937,108.764535 C247.801889,108.764535 245.054774,107.085756 242.8617,105 L241.66128,105 L238,112 L281.436726,112 L282,110.6875 L273.657083,105 L270.129696,105 Z M218.425415,119 C225.302758,119 231.079537,116.755023 235,112 L204,112 C206.456194,116.755023 211.543349,119 218.425415,119 Z M240,105 L224.984704,105 C224.277991,106.154797 223.161384,106.892442 221.215568,106.892442 C219.269751,106.892442 218.388716,106.154797 218.063628,105 L203.04362,105 C202.87872,107.711483 203.184963,110.041424 203.901099,112 L236.852771,112 C238.214372,110.041424 239.279153,107.711483 240,105 Z M272,104 L284.79071,104 L286.655532,103.959302 L290,97 L275.419624,97 L272,104 Z M249.399727,103.898256 L249.872038,104 L269.973038,104 C270.158258,100.983285 269.380334,98.7042151 267.912465,97 L241,97 C241.967774,100.876453 245.320256,103.084302 249.399727,103.898256 Z M217.340018,101.232558 L218,97 L204.064053,97 L203.175097,102.712936 C203.107752,103.140262 203.049386,103.567587 203,104 L217.025741,104 C217.052679,103.155523 217.191859,102.209302 217.340018,101.232558 Z M240.060777,102.707849 L241,97 L226.271272,97 L225.578713,101.232558 C225.417433,102.204215 225.256152,103.150436 225,104 L239.818856,104 C239.908983,103.572674 239.989623,103.145349 240.060777,102.707849 Z M304,96 L302.79671,89 L279.421857,89 L276,96 L290.580494,96 L291.802585,93.4563953 L292.211516,96 L304,96 Z M241.622707,94.6925872 C241.604133,95.1453488 241.608776,95.5828488 241.636638,96 L267,96 C265.657999,95.1046512 264.037381,94.4534884 262.221732,93.9905523 L259.0873,93.2020349 C258.028558,92.912064 256.273276,92.6882267 256.528674,91.0959302 C256.728349,89.8902616 257.689575,89.2747093 258.68795,89 L242.987927,89 C242.6443,89.8088663 242.36104,90.6482558 242.138147,91.502907 L242.537497,89 L228.123752,89 L227,96 L241.413745,96 L241.622707,94.6925872 Z M219,89 L205.089035,89 L204,96 L217.910965,96 L219,89 Z M261,89 C263.11418,89.425 264.936157,90.595 266.534684,92.01 L268,89 L261,89 Z M270.745349,88 L274,82.3727088 C270.487416,80.0723014 266.482414,79 261.914647,79 C255.044239,79 247.639206,82.1756619 244,88 L270.745349,88 Z M301.346057,79 L284.699916,79 L280,88 L303,88 L301.346057,79 Z M244,79 L229.507585,79 L228,88 L242.487748,88 L244,79 Z M221,79 L206.503795,79 L205,88 L219.496205,88 L221,79 Z M185.938392,92.3132695 C185.409752,95.5690834 182.744529,96 180.352436,96 L179,96 L180.136575,89 L181.436146,89 C183.678458,89 186.44941,89.1580027 185.938392,92.3132695 Z M99.8650987,98.5529628 C99.0862944,102.969604 95.5240708,106 91.1876513,106 C86.85584,106 84.3627444,102.969604 85.1415487,98.5529628 C85.8650534,94.4402825 89.2936359,91 93.8374294,91 C98.3766146,91 100.588603,94.4402825 99.8650987,98.5529628 Z M70.9407839,98.6006098 C70.6888118,99.9954268 70.5768242,101.321646 70.5908227,102.588415 C67.926451,104.6875 65.0987641,106 61.8511237,106 C57.5162703,106 54.3526205,102.734756 55.113203,98.5 C55.8644532,94.3155488 60.0033282,91 64.3381816,91 C67.5298283,91 70.0682139,92.6920732 72,94.7179878 C71.533385,95.9801829 71.1787576,97.2789634 70.9407839,98.6006098 Z M186.104186,78.6175115 L167.796675,78.6175115 L161.346432,114.806452 L161.686409,78.6175115 L146.969609,78.6175115 L139.769555,93.8341014 C139.001115,95.4792627 138.418963,97.281106 137.850783,98.9769585 L137.482863,98.9769585 L135.624634,78.6175115 L120.744832,78.6175115 L115.072344,95.0875576 C115.444922,84.6267281 107.383283,78 96.3317115,78 C85.8622924,78 75.9610534,83.9447005 72.0862506,93.4562212 L74.1587112,79.59447 C71.2852096,78.5668203 68.0111875,78 64.7371654,78 C53.0754993,78 42.3359616,87.0460829 40.3193876,98.359447 C38.3493857,109.410138 45.6844992,118 57.0294747,118 C59.614229,118 65.0771421,117.534562 67.5920382,116.456221 L70.4189677,102.829493 C70.8846891,112.40553 78.6901814,118 89.2015155,118 C97.8313347,118 105.990775,114.225806 110.778392,107.571429 L107.401911,117.382488 L121.378213,117.382488 L126.021457,100.829493 C126.44992,99.2857143 126.841127,97.6912442 127.223018,96.1474654 L127.698054,96.1474654 C127.507108,97.7926267 127.60491,99.3364055 127.730655,100.981567 L129.980089,117.382488 L138.42362,117.382488 L147.272328,100.004608 C147.910367,98.7695853 148.413346,97.4331797 148.907011,96.1474654 L149.172472,96.1474654 L147.337529,117.382488 L174.815098,117.382488 L176.892215,105.709677 L184.283215,105.709677 C192.354169,105.709677 198.301432,100.774194 199.707911,92.8571429 C201.426424,83.2442396 195.390673,78.6175115 186.104186,78.6175115 Z" id="COMPUSA-white"></path>
        </g>
    </g>
</svg>
