<?xml version="1.0" encoding="utf-8"?>
<!-- Generator: Adobe Illustrator 23.1.1, SVG Export Plug-In . SVG Version: 6.00 Build 0)  -->
<svg version="1.1" id="Layer_1" xmlns="http://www.w3.org/2000/svg" xmlns:xlink="http://www.w3.org/1999/xlink" x="0px" y="0px"
	 viewBox="0 0 3861 578.1" style="enable-background:new 0 0 3861 578.1;" xml:space="preserve">
<style type="text/css">
	.st0{fill:#991D20;}
</style>
<g>
	<path d="M402.7,13.6l-19.1,0.8l-1.5,0.8h-24.5l-6.2,0.8l-45.9,0l-5.4,0.8l-63.7,0l-3.8,3.3l-3.2,7.4l-0.9,6.6l-2.8-9.9l-0.9-7.4
		H219l-19.2,6.6L168,38.4l-17,9.1l-37.3,25.6L84,100.5l-17.2,19l-14.9,19.9l-0.8,2.5l-11.9,17.4l-18.4,37.2l-6.5,18.2l-6.6,23.1
		l-4.3,22.3l-2.9,28.1L0,308.9l3.8,37.2l5.6,23.2l5.7,18.2l10.2,24l11.8,22.3l27.5,38l21.7,22.3l30.1,24.8l14.3,9.9l28.7,16.5
		l33.4,13.3l34.2,9.1l18.3,3.3l19.8,1.7l21.4,0l27.6-2.5l76.5,2.5l6.2-2.5l0.1-5l0.8-0.8l3.6-170.7c0,0-4.4-4.2-24.2-4.2
		c-11.5,0-53-4-72.9-14.4c-22.5-11.7-36.2-21.4-52.3-43c-6.5-8.8-2.9-45.1-2.9-45.1s-0.1-14.1,5.9-26.1
		c8.8-17.4,11.3-18.3,35.9-33.9c19.8-12.6,60.1-20.1,80.7-24c28.1-5.4,34-4.6,34-4.6l2.4-112l3.1-36.4l0.6-28.9L402.7,13.6z
		 M316.5,465.2l-2.4,5.8l-2.2-3.3L316.5,465.2z M237.4,155.8h1.5l-0.1,5l-2.2-1.7L237.4,155.8z M241.5,218.7l-4.5-2.5l0.1-2.5
		L241.5,218.7z M233.4,163.3l1.5,0.8l0,1.7l-3.1,0.8L233.4,163.3z M230.4,163.3l0.1-2.5h3L230.4,163.3z M234.6,143.4l-2.3,3.3
		l-3.1-0.8L234.6,143.4z M222.7,165.8h0.8l-4.7,4.1L222.7,165.8z M225.1,195.5l6.9,0.8l-5.6,9.1l-3.1,3.3l-3.9,0.8l7.1-11.6
		l-3.1,1.7h-5.4L225.1,195.5z M231.7,241.9l-4,6.6l-6.2,1.7l1.6-4.2l3.1-3.3L231.7,241.9z M219.3,251l-2.4,4.1l-1.5-2.5L219.3,251z
		 M207.4,237.8l5.4-3.3l4.5,3.3H207.4z M210,223.7l0.1-5l3,0.8l3,2.5L210,223.7z M214.9,205.5l-0.7-1.6l0.8-3.3l2.2,4.9H214.9z
		 M216.2,184h-2.3l2.4-3.3L216.2,184z M211.1,134.3l3,3.3l-3.1,2.5l-0.7-1.7L211.1,134.3z M208.6,178.2h5.4l-5.5,5.8L208.6,178.2z
		 M208.1,165.8l-0.1,2.5l-2.3,1.7l-0.7-1.7L208.1,165.8z M202.4,146.8h2.3l-2.4,3.3L202.4,146.8z M202.4,255.1h9.2l3,3.3l-5.4,2.5
		l-8.3-4.1L202.4,255.1z M210.9,428.8l0.1-4.1l2.3,1.7L210.9,428.8z M212.3,472.6l0,2.5H210l0-2.5H212.3z M201.4,302.2l-2.4,5
		l-4.5-5.8l0.2-7.4l4.5,3.3L201.4,302.2z M193.1,261.7l0.8-1.6l1.5,0.8L193.1,261.7z M194,145.9l-0.8,0.8l-2.2-1.7l1.6-2.5
		L194,145.9z M190.5,129.4l1.5,3.3l-0.8,1.7L189,131L190.5,129.4z M190.7,158.4l-0.8,2.5l-0.8-0.8L190.7,158.4z M179.6,141.8
		l3.1-3.3l0.7,5.8h-4.6L179.6,141.8z M183.9,189l-0.8,1.6l-3-1.6l2.4-2.5L183.9,189z M174,152.6l0.1-2.5h4.6L174,152.6z M177.9,184
		h-2.3l0.1-3.3L177.9,184z M174.3,140.1l0.7,3.3l-0.8,0.8l-1.5-0.8L174.3,140.1z M172.7,175.7l2.2,3.3l-1.5,1.7l-1.5-0.8
		L172.7,175.7z M161.4,240.2l10-3.3l3.2-5.8l-0.6-6.6l-3-4.9l6.1,2.5l7.5,7.4l6.9-2.5l4.5,6.6l-0.8,3.3l-7.6-1.7l-7.7,1.7
		l-20.2,15.7l-2.9-6.7l2.4-4.1L161.4,240.2z M191,289l-3.9,1.7l0.1-2.5L191,289z M181.2,282.4l-6.8-2.5h-3.1l-2.1-9.9l6.9-2.5
		l1.6-1.7l0.1-3.3l2.2,3.3l2.7,18.2L181.2,282.4z M181.8,289l-2.3,1.6l-0.7-0.8l1.6-4.1L181.8,289z M174.8,291.5L174,294l-2.3-2.5
		l0.8-3.3L174.8,291.5z M163.9,265.1l-2.2-2.5l4.7-5l3.2-6.6l5.4-0.8h6.1L163.9,265.1z M164.4,278.3l-1.6,2.5l-0.8-0.8l1.6-4.1
		L164.4,278.3z M161,257.6l-0.7-4.1l3,1.6L161,257.6z M154.1,226.2l3.1-5l0.7,1.7L154.1,226.2z M158.6,157.5l-2.4,5l0.8,0.8
		l-1.5-0.8L158.6,157.5z M153.9,161.7l0,1.7l2.3,1.6l-0.8,2.5l-4.6-2.5L153.9,161.7z M146.9,165.8l2.2,4.1l-2.2-2.5L146.9,165.8z
		 M113.3,308.1l-0.1,3.3l-3.7-4.1L113.3,308.1z M102.4,278.3l0,0.8l-3.1,1.6L102.4,278.3z M88.5,212.1l0.7,1.7l-2.3,2.5l-1.5-0.8
		L88.5,212.1z M78.3,225.4l0.8-0.8l0.7,2.5L78.3,225.4z M85,267.5l-1.5-2.5l5.4-2.5L85,267.5z M87.2,275l0.9-4.1l2.2,2.5l-0.8,2.5
		L87.2,275z M89.9,364.3l0.1-2.5l4.6,1.7l0.7,4.1L89.9,364.3z M97.7,285.7l2.2,2.5h-2.3L97.7,285.7z M99.8,401.5l-0.7-3.3l4.6,2.5
		l1.4,4.1L99.8,401.5z M105.1,294.8l-0.8,1.7l-1.4-5.8l2.4-2.5L105.1,294.8z M107,350.2h2.3l0.7,2.5l-2.4,2.5L107,350.2z
		 M109.5,375.1l-1.5-1.7h3.8L109.5,375.1z M111.1,339.5l1.6-2.5l3,3.3L111.1,339.5z M116,322.1l1.6-3.3l2.3,1.6l0.7,0.8l0.6,5.8
		L116,322.1z M122.7,187.3l2.4-2.5l3,1.7l-6.2,4.1L122.7,187.3z M127.2,190.6l3,2.5l-2.3,2.5l-1.4-5.8L127.2,190.6z M127.8,202.2
		l1.6-5l5.3,1.7l5.2,5.8l5.3,2.5l6.1,0.8l-4.8,7.5h-2.3l-9.8-5l-5.3-5L127.8,202.2z M148.9,252.6l3,2.5l-1.6,2.5l-2.2-3.3
		L148.9,252.6z M131,299.8l-1.5-1.7l1.5,0.8L131,299.8z M132.8,396.6l0.1-2.5l4.6,1.7L132.8,396.6z M145,327.9l-3.8-1.7l-3.7-6.6
		l2.4-3.3l5.2,8.2L145,327.9z M151.7,337l-4.5-5.8l-0.7-4.1l3.9-2.5l0,2.5l-1.6,2.5l3.7,4.1L151.7,337z M150.6,316.3l-0.7-2.5
		l0.1-2.5l3,3.3L150.6,316.3z M150.7,237.8l0.1-3.3h2.3L150.7,237.8z M152.1,173.3l-2.2-2.5l3.1-3.3l0.7,3.4L152.1,173.3z
		 M156.1,236.9l-0.1,2.5l-2.2-2.5H156.1z M161.7,296.5l-4.5-5l-1.5-3.3l4.6,0.8l3.8,2.5l3.7,6.6l-3.1,0L161.7,296.5z M167.2,362.6
		l-2.2-1.7l2.4-4.1l1.5,3.3L167.2,362.6z M167.7,337l-2.2-1.6l0.8-3.3l3,1.7L167.7,337z M171.4,310.5l-2.2-2.5l2.3-1.7l0.7,3.3
		L171.4,310.5z M174.4,347.7l-1.5-2.5l1.6-3.3l0.8,0.8L174.4,347.7z M180.7,341.1l-0.7-2.5l0.8-1.7l2.3,0.8L180.7,341.1z
		 M181.7,327.1l-0.2,7.4l-5.3-3.3l2.5-9.1l4.6,0.8l0.7,4.1H181.7z M188.5,332l-0.9,4.1l-3-1.7L188.5,332z M186,344.4l0.1-5l3,2.5
		L186,344.4z M191.1,318l-0.8-0.8l0.8-2.5l-0.7-3.3l1.6-3.3l1.5,4.1h-2.3l2.2,3.3L191.1,318z M197.8,471l-4.5-5.8l2.3-1.7l5.3,2.5
		l1.5,1.7L197.8,471z M203.4,313.8l-3-5.8h3.1L203.4,313.8z M204.4,270.9l0.1-5.8l2.2,2.5L204.4,270.9z M212.7,491.7l-3-3.3l-1.4-5
		h0.7l-0.7-2.5l0.8-3.3l2.2,1.7l-0.9,6.6h0.8l2.2,1.7L212.7,491.7z M221.6,467.7l-3.9,3.3l-3.7-5l-0.6-5.8l-0.8,1.7l0.8-3.3l3.1-1.6
		l3.1,0.8l2.2,5L221.6,467.7z M220.6,300.6l-1.5-1.7l0.8-2.5l-1.6,2.5l-1.5-1.6l0.8-2.5l2.3,1.7h0.8l1.5,0.8L220.6,300.6z
		 M228.3,263.4l-4.5-5l-0.6-5.8h5.4L228.3,263.4z M232.8,537.2l-1.5-0.8l0.8-3.3l2.2,1.7L232.8,537.2z M235.6,278.3l-1.5-2.5
		l4.6-0.8L235.6,278.3z M239.9,255.9l-1.6,1.6l-1.5-0.8l3.1-3.3L239.9,255.9z M241.5,256.6l-0.7-1.7l0.8-3.3l2.2,3.3L241.5,256.6z
		 M245.8,157.5l-1.4-5l2.2,2.5L245.8,157.5z M262.4,455.2l3.8,1.7l0,0.8l-4.6,1.6L262.4,455.2z M263.8,462.7l0.7,5l-4.5-5
		L263.8,462.7z M252.3,461.9l5.4-1.7l-5.4,3.3l-4.6-0.8L252.3,461.9z M258.8,157.5l3.9-3.3l1.4,3.3H258.8z M266.3,167.4l-1.5-0.8
		l0.8-3.3l1.5,3.3L266.3,167.4z M294.4,102.9l3,3.3l-1.6,2.5l-2.2-2.5L294.4,102.9z M298.6,122.7l-0.8,4.1l-1.5-1.7L298.6,122.7z
		 M272.9,180.6l-2.2-5l4.6,0.8L272.9,180.6z M283.6,179l-5.3-0.8l0.1-4.1l-2.2-3.3l1.6-3.3l4.6,1.7l1.5,4.1L283.6,179z M292.7,185.6
		l-2.2-6.6l4.6,0.8l3,3.3l0.7,5.8L292.7,185.6z M299.1,169.9h-2.3l0.1-2.5h2.3L299.1,169.9z M303,131.8l-2.2-4.1l0.8-0.8l2.2,3.3
		L303,131.8z M304,120.2l-1.5-3.3h3.1L304,120.2z"/>
	<polygon points="2494.9,418.3 2494,420 2496.4,422.5 2497.2,420.9 	"/>
	<path d="M2938.3,404.6l-0.6-6.8l1-47.4l2.7-16.1l-0.6-8.5l-5.3-11l-5.5-2.5h-7.1l-27.9,3.4l-41.2-5.9H2795l-23.1,2.6l-40.5,1.7
		h-40.5l-4,1.7h-35.7l-15-1.7l-41.2-1.7l-51.7,3.4l-12.7,1.7l-34.2,0.9l-0.7-4.2l1.1-53.4l7.7-99.9l0.7-33.9l-4.8-33.9l4.2-85.6
		l-10.2-4.2l-174.7,0.1L2299,0l-4.8,1.7l-3.3,5.1l-1.4,27.1l1.8,27.9l-3.5,49.1l0.5,86.4l-3.1,33.9l-1,47.4l0.7,5.1l-0.8,36.4
		l0.7,5.1l-0.6,30.5l0.6,7.6l0.7,116.9l-1.7,5.1l-0.6,29.6l-0.9,6.8l-0.9,39.8l1.4,6.8l4.7,5.1l11.1,2.5l101.8-5.1l2.4-0.8l65.8,3.3
		l19.1-2.5l118.3-0.1l7.9,1.7l18.3,0.8l30.3-3.4l31.7,1.7l9.5,1.7l47.7-3.4l16.7,0.8l16.6,2.5l70-3.4l40.4,4.2l31.7,1.7l4.8-1.7
		l3.2-3.4l2.6-11l1.6-73.7l-1.3-48.3L2938.3,404.6z M2494.2,412.4l-0.1,5.1l-0.8,0.8l-1.5-3.4L2494.2,412.4z M2378.6,435.3l-1.6,1.7
		l-0.7-2.5l3.2-3.4L2378.6,435.3z M2387.2,365.8l-3.1-0.8l4-3.4L2387.2,365.8z M2398,271.8l-1.6-1.7l2.5-4.3l1.5,3.4L2398,271.8z
		 M2402.1,226.9l1.6-2.6h2.4L2402.1,226.9z M2405.2,453.9l0.9-4.2l0.7,5.1L2405.2,453.9z M2411.9,213.4l-2.3-3.4h2.4L2411.9,213.4z
		 M2420.6,439.5l-2.4,2.5l0-0.8l3.3-4.2L2420.6,439.5z M2424.9,201.5l-1.6-1.7l4.9-3.4L2424.9,201.5z M2431.3,457.3l-2.3-2.5
		l0.8-2.5l1.5,2.5L2431.3,457.3z M2436.1,454.7l-2.4-1.7l2.5-3.4l1.5,2.5l-2.4,1.7L2436.1,454.7z M2445.8,409.9l-0.7-1.7l2.4-2.6
		l0.7,2.6L2445.8,409.9z M2453.7,412.4l-2.4,0l2.4-2.5L2453.7,412.4z M2452.9,373.5l-4.8,0.8l0.9-2.5l4-3.4h1.6L2452.9,373.5z
		 M2457.1,402.2l-2.4-0.9l0.9-3.4l2.3,3.4L2457.1,402.2z M2465.9,399.7l2.4,1.7l-1.7,4.2l-1.5-2.5L2465.9,399.7z M2467,459.8
		l-0.8-0.8l1.7-4.2l1.5,4.2L2467,459.8z M2475.7,425.9l-1.5-1.7l2.4-1.7L2475.7,425.9z M2481.7,478.4l-0.7-4.2l0.8-0.8l2.3,2.5
		L2481.7,478.4z M2487.8,413.2l2.3,2.6l-2.4,1.7l-0.8-1.7L2487.8,413.2z M2496.5,491.1l-4,1.7l-4-0.9l-1.5-2.5l3.4-8.5l1.6,0.9
		l5.4,6.8L2496.5,491.1z M2543.6,478.4l-1.6-0.8l1.7-4.2l1.5,2.5L2543.6,478.4z M2548.4,478.4l-1.6-0.8l0.9-4.2l3.1,2.5
		L2548.4,478.4z M2575.3,405.6l-2.3-3.3l2.4-2.6l1.5,2.5L2575.3,405.6z M2580.1,481.8l-1.5-3.4l2.4-1.7l1.5,2.6L2580.1,481.8z
		 M2586.3,452.1l-1.5-2.5l2.4-3.4L2586.3,452.1z M2606.6,428.5l1.6,1.7l-2.5,3.4l-0.8-1.7L2606.6,428.5z M2599.1,483.5l1.6-1.6
		l0.8,0.8L2599.1,483.5z M2605.5,442l-0.8-1.7l4-0.9L2605.5,442z M2613.1,460.7l-2.3-3.4l2.4-2.5L2613.1,460.7z M2628.7,436.9
		l-1.6-1.7l2.5-4.2l0.7,5.1L2628.7,436.9z M2649.3,398.8l1.7-3.4l0.7,4.2L2649.3,398.8z M2691.4,399.6l-1.6-0.8l1.6-3.4l1.5,2.5
		L2691.4,399.6z M2695.4,397.9l-1.6-0.8l1.7-4.2l1.5,2.5L2695.4,397.9z M2733,384.4l-1.7,5.1l-2.3-4.2L2733,384.4z M2726.9,412.3
		l0.7,3.4l-1.5-2.5L2726.9,412.3z M2708.1,397.9l3.4-8.5h2.4L2708.1,397.9z M2722.2,406.4l0.7,5.9h-3.2L2722.2,406.4z M2725.6,470.8
		l-0.7-4.3l2.4-0.8l0.7,3.4L2725.6,470.8z M2725,463.1l0.1-2.5l1.6,0L2725,463.1z M2729.2,452.1l-6.4,4.2l-0.7-6.8l5.6-1.7l3.2-2.6
		L2729.2,452.1z M2730.3,400.5l-2.4,0.8l0.8-2.5l6.5-6.8L2730.3,400.5z M2758.2,431l0.8,0l-1.6,2.6L2758.2,431z M2754,444.5
		l-1.5-4.2l3.1,1.7L2754,444.5z M2758.6,452.1l-1.5-5.1l2.3,4.2L2758.6,452.1z M2779.8,386.9l-1.5-3.4l0.8-1.7l2.3,2.5L2779.8,386.9
		z M2818.5,399.6l0,0.9l-2.4,1.7l-0.8-0.9L2818.5,399.6z M2818.3,444.5l0,1.7l-2.3-1.7L2818.3,444.5z M2803.8,418.2l-2.5,2.6
		l-1.5-5.1h2.4L2803.8,418.2z M2794.9,389.4l4.7,3.4l0.7,3.4l-5.5-0.8L2794.9,389.4z M2797.4,458.9l-2.4,2.5l0.5,11.9l-5.2-17.8
		l-0.6-8.5l6.4-2.5l-0.8,2.5l3,7.6L2797.4,458.9z M2791.6,430.1l3.2-1.7l0.7,2.5l-2.4,2.5L2791.6,430.1z M2798.9,462.2l0.1-4.2
		l3.2,0.9l0.8,1.7L2798.9,462.2z M2804.1,442l-1.6-1.7l-2.1-11l-2.3-3.4l-2.4-0.9l-1.5-4.2l10.2,5.1l2.3,2.5l1.5,5.9L2804.1,442z
		 M2809.8,472.4l-1.4-7.6l2.4-1.6L2809.8,472.4z M2813.4,449.6l2.3,1.7l-2.5,5.9L2813.4,449.6z M2818.4,477.5l-4.7-2.5l1.7-4.2
		l3.8,5.9L2818.4,477.5z M2822.2,446.2l3.1,3.4l-4,0.8L2822.2,446.2z M2825.8,465.6l-2.3-2.5l1.6-2.5l1.5,4.2L2825.8,465.6z
		 M2829.9,457.2l-1.5-3.4l4-0.8L2829.9,457.2z M2854.3,394.5l-3.1-1.7l1.7-3.4l1.6,0.8l0.7,2.5L2854.3,394.5z M2859.4,378.4
		l-2.4-0.9l0.1-3.4l3.1,1.7L2859.4,378.4z M2863.7,400.4l0-1.7l2.3,3.4L2863.7,400.4z"/>
	<path d="M3426.3,6.5l-13.4-4.2h-56.4L3312,5.7h-34.1l-16.6-2.5l-217.6,0.1l-23.1,2.5l-34.1-2.5l-18.3,2.5l-54.7-2.5l-6.5,5.9
		l0.3,23.7l1.9,21.2l9.4,44.1l6.6,25.4l27.4,91.5l5.1,22.8l3.5,24.5l0.8-0.8l5.3,11l16.9,61.8l13.9,57.6l24.2,92.3l13.4,42.3
		l7.5,19.5l8.4,17l7,7.6l3.1,1.7l5.5,0.8h41.3l15.9-2.5l75.4,0l46,2.5l8.9-9.3l11.5-20.3l19.2-45.7l18.5-50l37.3-111.8l12-41.5h0.8
		l34.3-117.7l27.6-100.8l9.6-39.8l3.7-25.4L3426.3,6.5z M3052.8,165.8l-3.1-4.2l1.6-0.8l2.3,2.5L3052.8,165.8z M3059.1,209l-0.7-6.8
		l3.9,3.4l1.5,4.2L3059.1,209z M3061.5,169.2h-3.2l1.6-1.7l4.8-1.7L3061.5,169.2z M3229,358h0.8l-1.6,0.9L3229,358z M3228.8,369
		l0.7,5.1l-1.5-2.5L3228.8,369z M3228.5,383.4l-2.5,3.4l-0.7-4.2L3228.5,383.4z M3226.3,372.4l-1.6,1.7l-1.5-2.5l4-2.5L3226.3,372.4
		z M3223.5,318.2l-4,2.5l-0.5,21.2h-8.7l3.2-1.7l1.7-5.1l1.1-13.6l5.6-3.4H3223.5z M3216.8,221.7l-0.8,2.5h-0.8l-1.5-5.1
		L3216.8,221.7z M3215.9,226.7l0.7,2.5l-1.6,1.7l-1.6-2.5L3215.9,226.7z M3209.8,325.8l2.3,3.4l-1.6,1.7l-1.5-5.1H3209.8z
		 M3208.5,387.6l1.5,5.1h-0.8l-1.5-3.4L3208.5,387.6z M3207.6,131l-0.2,8.5h-7.1L3207.6,131z M3202.8,393.6l-0.9,4.2l-0.8-0.8
		L3202.8,393.6z M3196.5,281.8l-4.8,2.5l0.9-4.2h3.2L3196.5,281.8z M3189.2,327.5l0.9-4.2l1.4,9.3l0.8-0.9l-1.7,5.1l-1.5-2.5
		l2.4-1.7L3189.2,327.5z M3190.2,277.6l0.8-1.7l0.7,3.4L3190.2,277.6z M3194.6,219.1l-1.6,1.7l-1.5-4.2L3194.6,219.1z M3185.3,209.8
		l-0.1,3.4l-1.6-0.9L3185.3,209.8z M3173.1,60.7l6.4-3.4l-4.1,3.4l0.7,5.9l-4,0.8L3173.1,60.7z M3181.1,258.1l-2.4,2.5l-3-8.5
		l4.8-1.7l-2.4,2.5L3181.1,258.1z M3170.4,166.6l-0.9,3.4l0-0.8l-3.2,2.5l-0.7-1.7L3170.4,166.6z M3166.4,201.4l3.1,1.7l-8,1.7
		L3166.4,201.4z M3161.4,138.6l-3.3,4.3h-4l5.7-5.9L3161.4,138.6z M3157.9,190.3l-0.8,1.7l-0.8-0.8L3157.9,190.3z M3155.9,99.7
		l0.8,0.8l-3.2,2.5L3155.9,99.7z M3156.4,226.8l-1.7,4.2l-2.3-1.7L3156.4,226.8z M3143.5,456.3l-1.7,4.2l-2.3-1.7l1.7-4.2
		L3143.5,456.3z M3138.2,371.6l-1.5-2.5l-9.5-2.5l-1.4-6.8l10.2,3.4l1.6,0.9l3.1,5.9L3138.2,371.6z M3139.1,402.1l-1.6,0l-2.3-2.5
		l-0.7-2.5l0.8-1.7l2.3,2.5L3139.1,402.1z M3133.8,203.9l4-1.7l-0.8,1.7l0-0.8L3133.8,203.9z M3138.6,352.1l-2.4-1.7l2.4-2.5h2.4
		L3138.6,352.1z M3138.8,119.2l-0.8,0.8l-3.1-2.5l3.2-1.7L3138.8,119.2z M3133.4,110.7l2.3,2.6l-1.6,2.5l-1.6-2.5L3133.4,110.7z
		 M3131.6,120.9l-5.7,5.9l-4.6-5.9H3131.6z M3127.8,336.8l-0.9,2.6l-1.5-1.7L3127.8,336.8z M3122.6,246.2l-1.7,4.2l-1.5-2.5
		L3122.6,246.2z M3120.1,286.9l0.7,5.1h-1.6l-0.7-2.5L3120.1,286.9z M3119.2,295.4l2.3,2.5l-0.8,1.7l-2.3-2.6L3119.2,295.4z
		 M3084.7,308.1l-1.6,1.7l-1.5-5.1l2.4,0.9L3084.7,308.1z M3076.8,120.9l3.2,0l-4.1,5.9L3076.8,120.9z M3071.3,121.8l0.8-3.4
		l1.6,0.8l-1.7,3.4l2.3,4.2l-0.9,2.5l-2.4-0.9l0.9-4.2L3071.3,121.8z M3075.2,492.3l-1.6,1.7l-1.6-1.7l1.7-2.5l1.6,0.9L3075.2,492.3
		z M3074.4,236.9l-1.5-2.5l2.4-2.5l0.8,1.7L3074.4,236.9z M3073.9,148.9l-1.6-0.8l3.2-0.8l0.8,0.8L3073.9,148.9z M3074.1,137
		l2.5-6.8l6.4-0.9l-6.6,10.2L3074.1,137z M3077.1,143.8l4.8-3.4l-3.3,5.1L3077.1,143.8z M3081.4,355.5l2.3,1.7l-1.7,3.4l-2.3-0.8
		L3081.4,355.5z M3084.8,440.6l-4.9,5.1l5.7-8.5L3084.8,440.6z M3089.9,215.7h-2.4l2.4-2.5L3089.9,215.7z M3107.6,428.1l-10.4,2.5
		l-3.1-4.2l2.5-7.6l10.3-0.9l2.3,2.5L3107.6,428.1z M3108.3,284.3l-1.5-3.4h3.2L3108.3,284.3z M3110.9,122.6l0.8,1.7l-1.6-0.8
		L3110.9,122.6z M3113.3,310.6l-2.4,3.4l0.9-3.4H3113.3z M3115.4,528.6l-4.7-4.2l0.9-3.4l3.1,4.2l0-0.8l1.5,2.5L3115.4,528.6z
		 M3115.8,378.3l-1.6-1.7l2.4-1.7l0.8,1.7L3115.8,378.3z M3120.5,305.5l0.8,1.7l-1.7,3.4l-1.5-0.8L3120.5,305.5z M3121.1,353.8
		l7.9,1.7l5.6-0.8l-8,3.4h-7.9L3121.1,353.8z M3126.4,405.4l-4,0.9l-2.2-6.8h4.8l5.5,2.5L3126.4,405.4z M3134.1,414.8l0.1-5.1
		l1.5,5.9L3134.1,414.8z M3141.4,482.5l-4.8,2.5l4.1-8.5l1.6-0.9L3141.4,482.5z M3141.6,470.7l0-2.6l2.4,0L3141.6,470.7z
		 M3146.6,460.5h-2.4l2.4-3.4L3146.6,460.5z M3149.3,444.4l0.1-2.5l1.5,2.5H3149.3z M3148.1,354.6l0.8-2.5l2.3,5.9L3148.1,354.6z
		 M3146.2,276.7l0.2-10.2h1.6l3.4-7.6l-4.7-3.4l4.9-6.8l9.6-4.2l-5.1,17.8l-4.2,8.5L3146.2,276.7z M3153.7,313.1l3.3-4.2l-1.7,5.1
		L3153.7,313.1z M3158.6,344.5l-0.9,4.3l-1.6,1.7l-0.7-3.4L3158.6,344.5z M3156.4,411.4l-0.8-0.8l2.4-2.6l0.8,0.8L3156.4,411.4z
		 M3158.9,407.1l-0.7-2.5l0.8-2.5l2.3,2.5L3158.9,407.1z M3159,399.5l-0.8-1.7l4.8-1.7L3159,399.5z M3162.5,386.8l0.1-2.5h3.2
		L3162.5,386.8z M3171.5,334.3l-2.5,5.1l-1.5-1.7L3171.5,334.3z M3170.6,375.8l-2.3-4.3l0.1-3.3l4.6,5.9L3170.6,375.8z
		 M3175.4,338.5l-0.8-1.7l3.2-3.4l0.7,4.3L3175.4,338.5z M3178.1,360.5l0,0.9l-1.6-0.9H3178.1z M3176.4,478.3l-0.8,0l-0.7-5.9
		l1.6,0.9L3176.4,478.3z M3175.8,468.9l0.1-5.9h2.4L3175.8,468.9z M3177.6,457.1l-0.8-0.9l1.7-4.2l0.7,3.4L3177.6,457.1z
		 M3178.4,271.6l-4.6-5.1l2.4-3.4l3.1,4.2L3178.4,271.6z M3181.8,262.3l-1.7,3.4l-0.7-4.2L3181.8,262.3z M3181.4,392.7h2.4l-4.1,5.1
		L3181.4,392.7z M3180.5,473.2l1-7.6l3.1,2.5L3180.5,473.2z M3179.4,227.6l4.9-6.8l4-2.5l5.4,7.6l-8.8,2.5L3179.4,227.6z
		 M3192.6,463l-4.8,2.6l0.9-5.9l3.9,1.7L3192.6,463z M3195.4,333.5l-1.5-3.4l0.8-0.9l3.1,1.7L3195.4,333.5z M3198.2,463l1.7-4.2
		l4.8-1.7L3198.2,463z M3202.5,407.1l0.1-5.1l3.2,1.7L3202.5,407.1z M3213.7,407.1l-7.2,2.6l3.3-5.1l5.5,0.8L3213.7,407.1z
		 M3224.8,448.5l3.9,5.1l-4,0.8l-0.2,7.6l-8,1.7l0.2-8.5l2.5-7.6l3.3-5.1l8-2.5l-4.9,4.2l-2.5,4.2L3224.8,448.5z M3239.7,228.4
		l-0.8-0.8l1.7-3.4l0.7,3.4L3239.7,228.4z M3260.8,204.7l-2.4-0.9l0.9-2.5l3.1,1.7L3260.8,204.7z M3263.3,201.3l-2.3-1.7l3.2-1.7
		L3263.3,201.3z M3272.7,209.8l-0.8-0.8l0.9-4.2l1.6,1.7L3272.7,209.8z M3277.1,71.9l4.9-5.9l0.6,6.8L3277.1,71.9z M3305.2,263.2
		l-2.6,9.3l-2.5,3.4l-2.2-8.5l0.1-5.1l8.9-6.8l-2.5,6.8L3305.2,263.2z M3316.5,124.2l-3.1-4.3l1.7-3.4l1.5,2.5h0.8l1.5,4.2
		L3316.5,124.2z"/>
	<path class="st0" d="M2875.6,67.5l-11.1-24.2l-5.7-7.8l-11.4-13l-6.6-5.2l-12.3-6.9l-16.6-5.2l-12.4-2.6H2782L2762.8,7l-11.8,5.2
		l-15.2,9.5l-28.9,27.7l-4.2,0.9l-4.1-1.7l-26.9-25l-21.4-12.1l-30.7-6h-13.3L2592,8l-26.1,11.2l-17,14.7l-6,6.9l-6,9.5l-4.3,9.1
		l1,0.1l3.2,5.6l-5.1-3.8l-1.7,3.6l-3.6,14.7l-1,9.5l0.3,23.3l2.1,17.3l5.4,20.8l7.9,19.9l9.6,19l11.3,18.2l24.3,31.1l40.8,40.6
		l71.9,64.8l18.7-19.9l62.8-54.5l37.4-34.6l26.5-30.2l16.4-26l7.9-16.4l7.1-19l3.7-18.2l1.4-26.8L2875.6,67.5z M2627.2,61.1l1.9,0.4
		l-4.7,3.1l-0.2-0.9L2627.2,61.1z M2611,72.9l-4.2-7.4l5.8,2.3l0.5,6.5L2611,72.9z M2612.5,63.1l-4.2-2.7l5.1-1.4L2612.5,63.1z
		 M2618.1,55.9l3.8,0.9l-4.4,0.2L2618.1,55.9z M2638.1,82.8l-4-1.8l4-2L2638.1,82.8z M2639.5,73l-4.8-1.6l0.4,1.8L2631,79l-1.8-4.3
		l-7.6,2l-3.6-8.5l8.5-2.2l8.2,0.7l5.8,2.2l4.4,8.3L2639.5,73z M2648.6,73.5l3.5,3.8h-3.6l-2.1-1.3L2648.6,73.5z M2647.5,81.3
		l2.2-2.5l2.7,0.2L2647.5,81.3z M2662.4,75.5l1,0.7l0.2,0.9L2662.4,75.5z M2688,48.9l-2.1-1.4l4.7-3.1l0.2,0.9L2688,48.9z
		 M2703.7,127.5l-1.7-2.8l1-3.7l1.6,2.8L2703.7,127.5z M2775.8,102.7l-2.2,2.4l-0.4-1.8L2775.8,102.7z M2747.8,101.5l0.6,2.7l-3.1-2
		L2747.8,101.5z M2739.2,102.8l1.2,1.6l-6.9,0.9l-3.7-4.7L2739.2,102.8z M2741,121l-2.6,2.8l0.1-5.5L2741,121z M2736.8,156.1
		l-2.7,2.8l-0.8-0.9l0.9-3.7L2736.8,156.1z M2718.5,123.8l3.4,1.8l0,1.9l-3.5,2.8l-0.8-1.8L2718.5,123.8z M2715.3,236.7l-1.7-1.9
		l1.8-3.7l1.7,2.7L2715.3,236.7z M2734.1,215.9l-9.4-2.3l-7.2-4.7l10.1-2.7l0.4,1.8l8.4,1.6l2.2-6.3l7.9,3.6l6.5,9.7L2734.1,215.9z
		 M2757.7,63.6l8.2,0.7l3.3,11.4l-2,3.4l-8,0.2l-5-11L2757.7,63.6z M2756.6,104.9l-0.6-2.7l4,1.8L2756.6,104.9z M2760.1,100.2
		l-4.6-0.7l1.1-3.1l4.6,0.7L2760.1,100.2z M2763.9,209l3.1-6.5h3.5l-3.5,4.7l0.8-0.2l-2.1,2.5L2763.9,209z M2766.7,222.4l5.4,0.4
		l0.6,2.7L2766.7,222.4z M2780.9,217.7l-0.7,1.1l-9.9-0.2l-4-1.8l7.9-4.9l5.1-1.3l8.8,8.1L2780.9,217.7z M2788.7,208.1l-2.3-2.3
		l3.7-3.8l3.3-0.9L2788.7,208.1z M2802.5,210.2l0.5-2l0.4,1.8L2802.5,210.2z M2798.6,79.6l0.5-2l5.1-1.4L2798.6,79.6z M2810.8,103.8
		l-3.1-2l0.6-1.1l3.1,2L2810.8,103.8z M2810.8,69.8l-4.3-3.6l-1.8-4.2l6.2-4.5l1.1,5.4L2810.8,69.8z M2815.6,105.4l-3.1-2l2.3-1.6
		l2.7,0.2L2815.6,105.4z M2816.7,76.7l-3.8,2.9l-0.4-1.8l2-3.3l2.4-1.6l1.9,0.5L2816.7,76.7z M2820.1,101.4l1.5-1.3l2.8,4.9
		L2820.1,101.4z M2830.5,61.6l1.3-2.2l2.3,2.2l-1.5,1.4L2830.5,61.6z M2833.6,101.6l2.5-0.7l0.8,3.6L2833.6,101.6z M2850.8,64.9
		l-0.5,2l-5.2,5.1l-2.3-2.2l2.2-2.5l0.3-11.4l6.4-3.6L2850.8,64.9z"/>
	<path d="M1281.4,399.6l-3.7-4.1l-11.4-3.3h-32.9l-101.1,5h-22.9l-4.6,0.8h-29.1l-3.8-2.5l-1.1-20.1l4.7-5.8l0.8-2.5l85.7-1.1
		l-3.4-67.8l-2.7-35.2l4.5-30l0.1-5.8l-3.7-4.1l-80.5,5l-8.3-5l-3-5l-1.5-3.1l2.7-16.6l4-7.5l6.2-3.3l65.1,0l6,2.5l25.9,4.9l86.5,0
		l11.5-3.3l0-0.8l3.8-1.6l2.9-136.5l3-30.6l-2.9-8.3l-9.1-1.7l-85,0l-3.8,0.8l-75.8,0l-5.4,0.8H1018l-5.4,0.8l-100.2,0l-25.2-2.5
		l-12.3,1.6l-5.5,6.7l-1.7,6.6l1.4,44.6l-10.5,492.1l5.3,5l365-0.1l14.5,2.5h27.6l6.3-5l2.9-136.5l2.7-20.6L1281.4,399.6z
		 M991,167.2l2.2,2.5l-0.8,1.7l-2.3-1.7L991,167.2z M992.1,259.9l-2.4,3.3L989,259L992.1,259.9z M985,265.6l1.7-8.2l-1.7,9.1
		L985,265.6z M985.6,309.5l3,2.5l-3.1,2.5l-0.7-2.5L985.6,309.5z M987,470l-1.6,2.5l-2.3-0.8l0.9-3.3L987,470z M983.3,237.6
		l-0.8,3.3l-1.5-2.5L983.3,237.6z M949.2,457.2l-3.8-2.5l-1.4-5.8l4.6,2.5l1.4,4.1L949.2,457.2z M981.8,540.8l-2.3,2.5l-4.5-5
		l2.3-1.7l3.3-11.6l-7.7,3.3l6.3-6.6l3.9-2.5l6.1-0.8L981.8,540.8z M989.3,389.7l-0.8-0.8l3.1-3.3L989.3,389.7z M990.9,349.2
		l0.1-5.8l2.9,7.5L990.9,349.2z M1000.6,254.1l-2.2-1.6l1.6-4.1l2.2,5L1000.6,254.1z M1029.1,173l0.8-1.7l0.8,0L1029.1,173z
		 M1031.6,166.4l0.8-1.7l2.2,1.7l-2.4,2.5L1031.6,166.4z M1032.7,432.7l0.1-4.1l3.8,1.7L1032.7,432.7z M1037.2,187.9l0.2-8.3
		l2.2,2.5L1037.2,187.9z M1041.9,147.3l-3-0.8l0.8-2.5l3.1,0.8L1041.9,147.3z"/>
	<path d="M831.2,552.7l-5-18.2l-15.9-42.2l-27.8-57.9l-21.3-40.5l-12.6-19.9l-8.2-9.9l-12.6-18.2l-5.1-9.9l-3.6-12.4l0.1-5h3.1
		l13.9-7.5l18.7-16.5l15-19.1l17.5-32.3l6.5-18.2l7.6-32.2l0.9-8.3l-0.9-27.3l-1.9-19.8l-6.2-31.4l-5.7-19.9l-10.9-28.9l-3.7-6.6
		L764.2,35l-12-12.4l-6-4.1l-11.4-3.3l-222.7,0.1L490,12.7H457l-7.7,3.3l-1.6,4.1l-11,516.1l-2.8,22.3l0.6,8.3l1.5,3.3l6.9,1.6
		l32.9-0.8l1.5-0.8l75.8,0l58.9,1.6l83.5-3.3l64.3,0l21.4,2.5l49,0l2.4-5.8L831.2,552.7z M577.1,269.1l-1.5-1.6l4.6-2.5L577.1,269.1
		z M579.8,355.9L579,360l-0.7-1.7L579.8,355.9z M573.1,349.3l2.2,2.5H573L573.1,349.3z M567.2,412.2l-0.8-0.8l3.9-3.3l-0.8,3.3
		l0-0.8L567.2,412.2z M567.5,182.2l3.1-2.5l0,2.5H567.5z M563.1,169l4.5,3.3l0-0.8l2.2,2.5l-0.8,2.5l-3-1.6l0-0.8l-0.8,0.8l-1.5-1.7
		l0-1.7l-6.9,0.8l-2.3-0.8L563.1,169z M561.3,183l0.1-2.5l3,0.8l-1.6,3.3L561.3,183z M562.6,336.1l-0.1,5l-2.3-0.8L562.6,336.1z
		 M554.4,184.7l-0.1,2.5l-1.5,1.7l-0.7-3.3L554.4,184.7z M553.2,310.4l1.5,1.7l-2.3,2.5l-1.5-0.8L553.2,310.4z M507.8,251.7
		l-0.7-1.7l1.6-4.1l1.4,5L507.8,251.7z M513.5,237.7h-2.3l2.3-1.7L513.5,237.7z M518,277.4l-1.5-2.5l0.8-3.3l1.4,5L518,277.4z
		 M541.8,309.6l-2.3-0.8l1.6-3.3l1.5,0.8L541.8,309.6z M541.2,193.8l0.1-2.5l2.2,2.5H541.2z M554.5,466.7l-1.4-5h1.5l0.7,2.5
		L554.5,466.7z M551.5,319.5l-0.7-1.7l5.3,3.3L551.5,319.5z M557.3,192.2l-4.7,1.6l3.2-4.1l1.5,0.9L557.3,192.2z M560.4,332.8
		l-0.8,2.5l-1.4-5.8L560.4,332.8z M561.4,464.3l-2.4,2.5l0.1-5l1.7-5l1.5-0.8L561.4,464.3z M578.5,417.1l-16.3,10.8l-2.4,2.5
		l0.1-4.1l3.2-6.6l4.7-3.3l6.9-1.7l4.6,0L578.5,417.1z M580.9,411.3l-7.6-1.7l0.1-3.3l2.4-3.3l5.3,4.1L580.9,411.3z M579.3,235.1
		l-0.8-0.8l3.9-2.5L579.3,235.1z M580.3,191.3l-0.7-3.3l3.1,0.8L580.3,191.3z M584.8,227.7l0.1-2.5l3,2.5H584.8z M686.4,202l3,1.7
		l0,1.7l-4.6,1.7L686.4,202z M685.3,366.2l2.2,2.5l-2.3,0.8l-1.5-0.8L685.3,366.2z M671.5,149.1l3,4.1l-1.5,0.8l-1.5-2.5
		L671.5,149.1z M667.8,396.8h-1.5l0-0.8l-1.5-1.7l0.8-1.7h2.3l-1.6,3.3L667.8,396.8z M666.2,433.2l3.8,1.6l0,0.8l-3.1,1.7l-1.5-0.8
		L666.2,433.2z M669.5,424.1l-0.7-1.7l1.6-2.5l1.5,2.5L669.5,424.1z M668.6,319.5l-0.7-2.5l4.6-1.7L668.6,319.5z M670.6,299.6
		l0.8-1.7l2.3,1.7l-0.8,2.5L670.6,299.6z M670.5,269l2.2,2.5h-2.3L670.5,269z M670.2,279.8L670,288l-4.5-2.5l-3.8-4.1L670.2,279.8z
		 M655.7,350.5l4.6-2.5h2.3l-5.5,8.2l3.9-1.6l2.3,0.8l3.7,5l-0.9,5.8l-6.2,2.5l-7.4-13.2L655.7,350.5z M659.4,394.4l3.1-4.2l0.7,1.7
		L659.4,394.4z M662.9,410.1l-4.6,2.5l0.8-2.5l2.4-2.5L662.9,410.1z M636.4,395.2l-0.8,4.1l-3.1,3.3l-3.9,0.8l-0.7-4.1l2.5-8.3
		l3,2.5l5.3,0.8L636.4,395.2z M638.4,411.7l-1.6,3.3l-0.8-0.8l0.9-4.1L638.4,411.7z M629.8,381.1l-0.8,2.5l-3.9,4.1l-0.7-6.6H629.8z
		 M621.5,269.1l-0.7-2.5l3.9-1.7L621.5,269.1z M628.1,280.6l0.8-3.3l2.2,1.7l-1.6,3.3L628.1,280.6z M638.5,258.3l-3.1,4.1l3,0.8
		l-0.8,3.3l-2.2-4.1l-1.6,1.7l-1.7,7.5l-3.8-4.1l-0.7-3.3l2.4-4.1l9.2-3.3h2.3L638.5,258.3z M638.6,217.8l0,2.5h-3.1L638.6,217.8z
		 M634.3,243.4l-1.5,1.7l-1.4-5L634.3,243.4z M622.8,243.4l1.5,1.7l-0.8,3.3l-2.2-2.5L622.8,243.4z M620.3,251.7l3.1-1.7l7.7-1.7
		h8.4l-7,4.1l-12.3,1.6L620.3,251.7z M620.9,259.1l-1.6,1.7l-0.7-3.3L620.9,259.1z M613.4,254.2h2.3l-0.1,2.5l-2.3,0L613.4,254.2z
		 M614,261.6l4.6-1.6l-2.3,1.6l-0.8,2.5L614,261.6z M616.9,374.9l1.4,4.1l-2.2-1.7L616.9,374.9z M627.8,438.2h-9.9l2.5-8.3l7.7-2.5
		l-4.7,5.8l5.3,3.3L627.8,438.2z M630,408.8l1.6-3.3l3,2.5L630,408.8z M636.5,463l-1.5-0.8l1.6-4.1l0.7,2.5L636.5,463z M636.9,444
		l-1.5-3.3h4.6L636.9,444z M640.5,420l-0.8-0.8l0.9-4.1l2.3,0.8l0.7,1.7L640.5,420z M645.7,463l3.1-1.7l0,0.8l2.3-0.8l-0.8,2.5
		l-5.4,2.5L645.7,463z M646.9,535.8l0.1-2.5l4.6-2.5L646.9,535.8z M651.3,486.2l-3-4.1l3.8,0.8L651.3,486.2z M654,468l-3-3.3
		l1.6-1.7l2.2,2.5L654,468z M656.6,419.1l2.4-2.5l4.6-1.7l-0.1,4.1l-8.5,5L656.6,419.1z M664,431.6h-2.3l1.5-0.8L664,431.6z
		 M655.3,476.2l0.1-5.7h6.9L655.3,476.2z M663.6,486.1l-0.7-2.5l1.6-2.5l1.5,2.5L663.6,486.1z M670.5,450.6l-1.7,9.1l-1.6,3.3
		l-3.1,2.5l1.6-4.1l-4.5-4.9l-2.2-4.1l10.1-5h3.1L670.5,450.6z M667.5,445.6l3.9-2.5h0.8L667.5,445.6z M674.8,428.2l-3.9,1.7l0.9-5
		l3,1.7L674.8,428.2z M673.2,391.9l-1.4-4.1l0.8-0.8l3,1.7L673.2,391.9z M676.9,145.8l3,1.7l-3.9,3.3L676.9,145.8z M680.6,188
		l-0.8,3.3l-1.5-0.8L680.6,188z M681.5,433.2h-2.3l2.3-2.5L681.5,433.2z M686.2,429.9l-0.8-0.8l0.9-4.1l2.2,2.5L686.2,429.9z
		 M689.6,415h-2.3l2.3-2.5L689.6,415z M690,396.8h-2.3l2.4-7.4L690,396.8z M690.3,383.6l-6.2,2.5l-0.6-6.6h4.6l4.5,5L690.3,383.6z
		 M702,407.6l1.6-3.3l2.2,5h-2.3l2.2,3.3L701,415L702,407.6z M706.1,430.7l-3.1,2.5l0-2.5H706.1z M697,389.4l1.4,4.1l-2.2-2.5
		L697,389.4z M696.2,463l0-1.7h2.3L696.2,463z M704.9,449.7l-3.1,0.8l-1.4-4.9l5.5-5l-3.2,5h6.1L704.9,449.7z M713.5,404.3l3.1-2.5
		l2.2,2.5H713.5z M715.2,396l1.6-4.1l1.5,1.7l-2.4,3.3L715.2,396z M720.2,380.3l-3.9,2.5l3.3-7.4l3.1-2.5L720.2,380.3z"/>
	<path d="M3860.7,411.2l0.3-16.1l-6.2-5.1l-24.6-0.9l-126.4,8.5h-21.4l-5.4-5.9l0.9-5.1l10.6-14.4l78.2-1.3l-1.6-48.7l0.6-29.6
		l-1.9-24.6l9.4-29.7l0.1-6.8l-0.8-1.7l-5.5-3.4l-30.2,0.8l-53.3,3.4l-7.9-1.7l-0.7-5.9l0.7-31.3l4.1-7.6l7.2-4.3l5.6-0.8l19,2.5
		l27.7,1.7l19.1-1.7l37.3,0.8l45.2,3.4l12-4.2l2.5-3.4l3.6-170.2l-4.8-3.7l-382.7,0.1l-3.9,2.9l-0.9,5.9l-0.8,39l0.7,5.9l-1.1,50.8
		l0.6,7.6l-1.2,56.8l0.6,11l-1.4,109.2l-1.4,24.7l-0.7,65.1l-0.7,31.4l1.5,38.1l-0.9,5.9l-0.9,40.6l-0.9,3.4l-1.2,58.4l1.5,4.2
		l4.6,6.8l6.3,1.7h38.1l93-3.4l133.4,0l12.7,2.5l55.6-2.6l46.8,2.5l2.4-1.7l4.2-11l0.9-43.2l-2.5-31.3l1-44.9L3860.7,411.2z
		 M3720.2,34.9l2.2,4.9l-1.2,1.2l-2.2-1.8l-1.1-2.5L3720.2,34.9z M3718.4,41.7l-1.7-1.8l0.6-0.6L3718.4,41.7z M3716.7,36.8l0,2.5
		l-0.5-1.2L3716.7,36.8z M3717,54l-0.7,3.7l-1.1,0.6l-0.6-0.6L3717,54z M3715.9,78l-4-0.6l1.8-3.7L3715.9,78z M3713.4,60.2l-1.7,0.6
		l-0.5-1.2l2.3-1.3L3713.4,60.2z M3711.1,34.9l1.1,2.5l-0.1,3.1l-1.1-1.9L3711.1,34.9z M3709.7,71.9h0.6l-1.2,0.6L3709.7,71.9z
		 M3705.9,36.8l0.5,3.1l-0.6,1.2l-1.7-0.6L3705.9,36.8z M3703.5,42.3l-1.2,1.8l-0.5-1.8H3703.5z M3559.4,163.1l-0.9,2.5h-0.8
		l-1.5-5.9L3559.4,163.1z M3559.5,195.3l-0.8,2.6l-1.6,0l0.8-2.5H3559.5z M3512,33.6l-2.3-2.5l1.7-2.5l1.5,2.5L3512,33.6z
		 M3521.9,132.8l0.9-2.5l2.3,4.2L3521.9,132.8z M3525,89.8l0-1.7l2.4,1.7H3525z M3531.7,485l-2.4-0.8l0.9-4.2l3.1,2.5L3531.7,485z
		 M3557,520.6l-0.7-4.3l1.6,0l1.6,0.8L3557,520.6z M3560.3,384.2h-2.4l2.4-2.5L3560.3,384.2z M3560.8,398.6l0.1-2.5l2.3,3.3
		L3560.8,398.6z M3560.4,116.3l4.1-5.1l0.8,0.9L3560.4,116.3z M3567.5,217.1l4.7,3.4l-4.8,2.5L3567.5,217.1z M3569.8,236.8l3.1,1.6
		l-0.9,3.4h-0.8L3569.8,236.8z M3572,244.5l0.8-2.6l0.7,3.4L3572,244.5z M3573.1,192.8l-3.1-1.7l4-2.5l3.2-1.7l-1.7,4.2
		L3573.1,192.8z M3576.2,230.9h3.2l-3.2,3.4L3576.2,230.9z M3580.1,236.8l-0.1,2.5l-2.4,1.7l-0.8-1.7L3580.1,236.8z M3581.1,323.9
		l-2.4,2.5l-1.5-3.4l4-1.6L3581.1,323.9z M3580.4,224.1l-0.7-5.9l3.1,2.5l1.4,7.6L3580.4,224.1z M3586.9,214.8l-0.1,3.4l-2.3-2.5
		L3586.9,214.8z M3586.7,224.9l3.2-3.4l0.7,2.5l-2.4,2.6L3586.7,224.9z M3590.5,343.5l-0.7-2.5l1.6-1.7l0.7,2.5L3590.5,343.5z
		 M3596.5,174.1l-1.6,2.5l-1.6-0.8l3.3-4.2L3596.5,174.1z M3598.7,147.9h-0.8l-1.5-3.4l0.8-2.6l0.8-1.7h0.8l-1.6,1.7L3598.7,147.9z
		 M3622.2,48.3l0,0.6l-1.2,0.6L3622.2,48.3z M3609.4,126.7l-0.9,2.5h-0.8l-1.5-4.3L3609.4,126.7z M3606.6,484.1l-3.1-3.4l4-2.5
		L3606.6,484.1z M3608.5,468l-2.3-2.5l2.5-2.6L3608.5,468z M3609.6,378.2l0-1.7l-1.6,1.7l-2.4-0.8l4.8-2.6L3609.6,378.2z
		 M3610.6,368.1l-1.5-4.2l3.2,1.7L3610.6,368.1z M3618.3,454.4l-1.5-2.5l1.6-2.5l0.7,4.2L3618.3,454.4z M3622.1,352l-1.6-1.7
		l2.4-2.5l0.7,2.5L3622.1,352z M3635.1,336.7l-4.7-3.4h4.8L3635.1,336.7z M3641.5,484.1l-1.5-2.5l1.7-3.4l1.5,2.5L3641.5,484.1z
		 M3642.8,347.8l-1.5-3.4l2.4-0.8L3642.8,347.8z M3648.5,491.7l-0.8-0.8l4-3.4L3648.5,491.7z"/>
	<path d="M2127.5,20.5l-21.8-4.2l-394.3,4.3l-28.2-4.2l-329.4,0.1l-20.6,1.8l-16.9,0.8l-3.9,2.5L1310,29l13.8,68.6l25.9,115l2,12.4
		l41.5,172.1l16.3,60.4l27.9,90.1l8,17.4l7.4,10.8l2.3,1.7l55.2-2.5l88.7,2.5l9.3-6.6l13.7-31.5l25.3-72.8l34.5-107.5l21.5-75.3
		l7.6-33.1l0.1-5l11.4,5l2.9,5.8l-2.4,3.3l4.5,5.8l2.1,10.8l1,24.8l14.2,50.5l10.5,47.1l24,93.4l20.1,62l8.1,15.7l3.7,5l34.4,3.3
		l62,0l5.4-0.8h48.2l7.9-10.8l12.8-27.3l19.5-53.7l37.7-119.1l23.1-77.8l28.2-101.7l3.4-16.6l35-136.4l1-8.3L2127.5,20.5z
		 M1420.4,124.1l-0.1,4.1l-4.5-4.1H1420.4z M1408.8,133.2l-2.2-2.5l0.8-2.5l2.2,2.5L1408.8,133.2z M1415.7,133.2l-2.2-4.1l1.5-0.8
		l2.3,2.5L1415.7,133.2z M1421.3,153.9l-1.5-1.6l0.8-2.5l1.5,1.6L1421.3,153.9z M1423.8,147.3l0.1-3.3l3.1,0L1423.8,147.3z
		 M1438.7,164.6l2.2,3.3l-2.3,0L1438.7,164.6z M1439.5,340.8l-1.4-5.8l2.3,0.8L1439.5,340.8z M1440.7,320.1l-3-0.8l0.8-3.3l3,1.6
		L1440.7,320.1z M1587.9,95.1h1.5l-1.6,2.5l-1.5,0L1587.9,95.1z M1588.9,228.3l-3.1-0.8l-3.7-5l0.1-2.5l6.1,2.5L1588.9,228.3z
		 M1583.9,105l-2.5,9.1l-0.5-11.6L1583.9,105z M1576.6,86.8l2.2,3.4l-3.9,2.5L1576.6,86.8z M1580.6,222.5l-1.6,3.3l-1.5-2.5l0.9-3.3
		L1580.6,222.5z M1575.1,226.6l3,1.7l-0.8,2.5l-3.1-0.8L1575.1,226.6z M1572.3,182.8l1.5,2.5l-0.8,2.5l-2.3-0.8L1572.3,182.8z
		 M1568.8,200.2l0.7,2.5l-2.4,2.5l-0.7-0.8L1568.8,200.2z M1569.9,220h-2.3v-1.7L1569.9,220z M1561,100.9l3,1.6l-0.8,2.5l-2.3-0.8
		L1561,100.9z M1563.9,143.9l-0.1,3.3l-2.3,0l0.1-3.3L1563.9,143.9z M1550.4,275.4l-1.7,5l-0.7-1.7L1550.4,275.4z M1547.1,283.7
		l0,1.6l-2.4,3.3l-1.5-1.6L1547.1,283.7z M1541.8,210.9l0.7,0.8l-0.9,4.1l-1.5-2.5L1541.8,210.9z M1541.4,336.6l-3.1,3.3l-0.7-4.1
		L1541.4,336.6z M1528.6,149.7l-1.5,1.6l-3.8-1.6H1528.6z M1529.9,196.9l-2.4,3.3l0.1-3.3H1529.9z M1506,131.5l3,3.3l-1.6,1.7
		l-1.5-2.5L1506,131.5z M1493.4,114.2l1.5-1.7l5.2,8.3l-1.7,5l-2.3-1.7l-6.9-0.8L1493.4,114.2z M1494.6,164.6h3.1l-7.7,3.3
		L1494.6,164.6z M1493.6,138.2l2.3-1.7l1.5,2.5l-2.3,2.5L1493.6,138.2z M1469.6,295.3l-1.6,2.5l-1.5-1.7l2.4-3.3L1469.6,295.3z
		 M1466.1,277.9l-1.5-1.6l0.1-3.3l3,1.7L1466.1,277.9z M1463.5,148.9h3.1l-0.1,2.5h-3.1L1463.5,148.9z M1454.4,144.8l2.3-0.8
		l-0.8,4.1l1.5,0.8h-1.5l0-0.8l-2.3-1.7L1454.4,144.8z M1447,315.1l0.1-2.5l1.4,4.2l-2.4,2.5L1447,315.1z M1450.5,329.2l-2.2-2.5
		l2.4-5.8l3.1-3.3l4.6-2.5l3.1-3.3l-2.4,3.3l8.2,8.3l-8.5,4.1L1450.5,329.2z M1466.3,340l-0.7-3.3l0.8-0.8l2.3,1.7L1466.3,340z
		 M1467.4,327.6l0.8-2.5l3.1-1.7l0.7,2.5L1467.4,327.6z M1481.4,279.6l-3-2.5h5.4L1481.4,279.6z M1484.2,115.8l-2.1-7.4l0,1.6
		l-4.6,0l2.4-5l4.6-0.8l0.7,0.8L1484.2,115.8z M1489.8,280.4l-1.5-2.5l1.6-3.3l1.5,3.3l-2.3,0.8L1489.8,280.4z M1492.9,171.3
		l0.8-3.3l2.3,0.8l0.7,1.7L1492.9,171.3z M1497,195.2l0.2-7.4l4.5,1.7l2.2,4.1L1497,195.2z M1511,182.8l-4.7,2.5l-3.7-7.5l-3-3.3
		l6.9-2.5l7.5,6.6L1511,182.8z M1509.7,135.7l12.2,0.8l-0.1,3.3h-6.9L1509.7,135.7z M1517.5,346.6l-1.5-2.5l2.4-3.3l0.7,4.1
		L1517.5,346.6z M1519,349l-1.7,5.8l-1.4-2.5L1519,349z M1519.3,478.1l-3.9,1.6l0.1-3.3h3.8L1519.3,478.1z M1518.2,205.1l0.1-2.5
		h2.3L1518.2,205.1z M1525.8,316l-2.4,5l-2.2-3.3L1525.8,316z M1523.7,342.4l6.9-1.7l0.6,5.8h-10L1523.7,342.4z M1533.9,363.9
		l-12.3,0.9l6.3-8.3l9.4-7.5l3.8,2.5l1.4,7.5l-2.3-0.8l-3.9,1.7L1533.9,363.9z M1550.7,366.4l-3.9,3.3l-10,0.8l4-5l8.5-1.7h2.3
		L1550.7,366.4z M1551.5,292.8l-3.7-4.1l3.9-3.3l3,3.3L1551.5,292.8z M1558,205.1l-1.5-1.7l1.6-3.3l1.4,3.3L1558,205.1z
		 M1565.9,300.2l-4.7,2.5l-0.7-4.1l9.4-7.5l-4,5.8L1565.9,300.2z M1572.8,301.9l1.6-3.3l3.1-2.5l-2.4,7.5l-8.5,1.7L1572.8,301.9z
		 M1574.8,312.7l-0.8,3.3l-4.5-3.3H1574.8z M1577.4,335.8l-2.3-1.7l2.4-2.5L1577.4,335.8z M1576.1,326.7l-3.9,4.1l-0.7-5h3.1l0.1-5
		h3.1L1576.1,326.7z M1577.3,234.1l2.4-3.3l0.7,1.6l-1.6,4.1L1577.3,234.1z M1585.7,304.4l-3.9,3.3l-1.5-4.1L1585.7,304.4z
		 M1583.4,378l-2.2-1.7l2.4-2.5l0.7,2.5l-1.6,0.8L1583.4,378z M1584.3,370.5l-3-3.3l4.6,0.8L1584.3,370.5z M1589.2,319.3l-2.4,1.7
		l-2.2-3.3l0.9-5.8l1.6-4.1l3.7,6.6L1589.2,319.3z M1589.6,232.4l0.8-3.3l1.5,0.8l-0.9,4.1L1589.6,232.4z M1593.6,328.4l0.7,0.8
		l-0.9,4.9l-2.2-2.5L1593.6,328.4z M1594.4,398.6l-1.4-2.5l1.6-3.3l1.5,2.5L1594.4,398.6z M1596,111.7l3.9-3.3l-2.4,4.9L1596,111.7z
		 M1599.6,334.1l-0.7-3.3l1.6-2.5l1.5,3.3L1599.6,334.1z M1602.6,124.1h2.3l0,1.7h-2.3L1602.6,124.1z M1605,334.1l2.3,1.7l-0.8,2.5
		l-3.1-0.8L1605,334.1z M1606.9,387.9l-0.7-2.5l1.5,0L1606.9,387.9z M1614.1,372.2l-1.4-2.5l2.4-6.6L1614.1,372.2z M1613.9,132.3
		l1.6-5l0,1.7l2.3,1.7h0.8L1613.9,132.3z M1619.3,165.4l0.1-2.5l3,0.8l-1.6,4.1L1619.3,165.4z M1624.8,338.2h-3l0.1-2.5h3.1
		L1624.8,338.2z M1621.9,328.4l0.1-2.5h3.1L1621.9,328.4z M1627.5,210.9l-1.5-0.8l3.2-4.1L1627.5,210.9z M1635.4,269.6h-2.3l2.4-2.5
		L1635.4,269.6z M1640.3,257.2l-5.2-6.6l-1.4-7.5l3.1,0.8l5.9,10.8L1640.3,257.2z M1643.6,210.9l-1.5-1.6l2.4-4.1l0.7,4.1
		L1643.6,210.9z M1648.8,255.6l0.8-0.8h0.7L1648.8,255.6z M1667.9,148.9l-1.5-2.5l3.1-2.5l0.7,2.5L1667.9,148.9z M1676.2,153.8
		l-5.3-3.3l3.8,0.8h5.4L1676.2,153.8z M1690.3,100.1l-4.6,1.6l5.4-3.3L1690.3,100.1z M1714.5,185.2l-0.7-4.1l1.5-0.8l2.3,1.7
		L1714.5,185.2z M1740.5,114.9l-1.5-0.8l2.4-4.1l1.5,1.7L1740.5,114.9z M1749.8,109.9l-1.5-0.8l5.4-2.5L1749.8,109.9z M1770.9,196.8
		l-0.7-1.7l2.4-2.5l0.7,2.5L1770.9,196.8z M1782.3,202.6l-2.3-2.5l3.9-2.5L1782.3,202.6z M1938.8,361.3l2.2,4.1l-1.6,1.6l-1.4-2.5
		L1938.8,361.3z M1930.5,143.8l1.5,2.5l-0.8,2.5l-3-1.7L1930.5,143.8z M1923.9,129.8l1.5,3.3l-4.6,0.8L1923.9,129.8z M1921.9,293.5
		l-1.6,4.1l-3-3.3L1921.9,293.5z M1912.3,205l0,0.8l-3.1,1.6L1912.3,205z M1905.5,200.9l3,0.8l-1.6,3.3l-1.5-0.8L1905.5,200.9z
		 M1902.3,207.5l3,4.1l6.1,1.7l-1.5-3.3l2.4-2.4l1.5,1.6l-0.1,2.5l4.7-4.1l-1.7,5.8l-3.2,4.1l-2.3,0.8l-6.1-0.8l-3-2.5l-0.6-5.8
		L1902.3,207.5z M1907.5,288.6l3.2-8.3l2.3,1.7l2.9,7.4L1907.5,288.6z M1914.4,357.2l-0.8,2.5l-1.5-1.7l0.8-2.5L1914.4,357.2z
		 M1905.4,241.4l-0.8,2.5l-2.2-2.5l2.3-2.5L1905.4,241.4z M1901.3,257.1l1.5,2.5l-2.3,2.5l-0.7-2.5L1901.3,257.1z M1894.5,109.9
		l2.2,2.5l-0.8,3.3l-2.2-1.7L1894.5,109.9z M1883.6,367.1l0,2.5l-1.6,2.5l-1.5-2.5L1883.6,367.1z M1878.7,205l0.7,3.3l-3.1,1.7
		L1878.7,205z M1874.2,377.9l2.2,2.5l-3.1,2.5l-0.7-1.6L1874.2,377.9z M1866.6,267.1h0.8l-1.6,2.5L1866.6,267.1z M1836.7,232.3
		l3.9-4.1l4.4,7.5l-0.1,3.3l-8.3-3.3L1836.7,232.3z M1818.5,225.7h0.8l0.6,6.6l-2.2-2.5L1818.5,225.7z M1813.4,178.6l3.9-3.3
		l-0.8,3.3l-2.3,0.8L1813.4,178.6z M1815.9,241.5l0.1-2.5l3,2.5H1815.9z M1821.1,248.9l-1.5-4.1l1.6-0.8l1.5,1.7L1821.1,248.9z
		 M1830.6,195.1l-0.8-0.8l1.6-4.1l1.5,1.7L1830.6,195.1z M1832.5,181.1l0.9-4.1l1.5,3.3l-0.8,2.5L1832.5,181.1z M1844.8,248.1
		l-2.4,6.6l-3.1-0.8l-4.4-6.6l-0.6-5.8l13,0.8l3.1-0.8L1844.8,248.1z M1855.6,390.3l-2.4,2.5l-1.5-1.7l3.9-2.5l-0.8,1.6H1855.6z
		 M1856.5,167l1.6-2.5l0.6,5.8L1856.5,167z M1857.3,129l3.8,1.7l-2.3,2.5L1857.3,129z M1859.5,278.7l3.1-4.1l-3.2,5L1859.5,278.7z
		 M1860.3,312.6l0-1.7l1.5,1.6L1860.3,312.6z M1864.8,317.5l-2.2-1.7l1.6-3.3l0.7,0.8L1864.8,317.5z M1865.8,491.4l-0.7-2.5l1.7-5
		l3.1-3.3l4.5,3.3L1865.8,491.4z M1881.4,398.6l-0.3,12.4l-3-1.7l-3-3.3l-3.6-12.4l2.4-4.1l-2.3-0.8l4.6-1.7l2.3,0.8l2.6-13.3
		l3.5,14.1l-7,4.1L1881.4,398.6z M1890.8,136.4l0.7,2.5l-0.8,1.6h-3.1L1890.8,136.4z M1888.9,334.1l3.1-2.5l-0.1,2.5l-2.3,1.7
		L1888.9,334.1z M1891,341.5l1.6-3.3l0.6,5.8L1891,341.5z M1892.7,334.9l0.8-2.5l3,0.8l-1.6,2.5L1892.7,334.9z M1895.1,474.7l0-0.8
		l3.1-0.8L1895.1,474.7z M1902.1,290.2l-1.6,5l-1.5-2.5L1902.1,290.2z M1900.9,346.5l-0.7-3.3l2.3-2.5l0.7,4.1L1900.9,346.5z
		 M1901.9,334.1h7.7l-3.1,4.1L1901.9,334.1z M1926.5,523.8l-7.9,11.6l-12.1-8.3l0.8-2.5l7-5l7.7-0.8l4.5,2.5L1926.5,523.8z
		 M1929.4,373.8l-1.5-0.8l3.9-1.7l0.7,0.8L1929.4,373.8z M1940.7,383.7l0-0.8l-1.6,1.7l-1.5-0.8l3.9-3.3L1940.7,383.7z
		 M1941.5,199.2l2.3-2.5l-0.9,5.8L1941.5,199.2z M1943.3,440.8l0-1.7l3.1-3.3l0.7,3.3L1943.3,440.8z M1951.1,433.3h-0.8l-1.4-4.1
		l2.3-0.8L1951.1,433.3z M1959.6,248.8l-2.2-2.5l2.3-2.5l0.7,0.8L1959.6,248.8z M1961.1,141.3h-7.6l6.2-4.1l2.3,0l1.5,2.5
		L1961.1,141.3z M1966.9,157.1l-1.5-2.5l2.4-3.3L1966.9,157.1z M1980.5,164.5l2.2,1.6l-0.8,4.1l-2.2-2.5L1980.5,164.5z
		 M1971.6,258.8l-0.7-0.8l2.4-3.3l0.7,1.7L1971.6,258.8z M1977.1,251.3l-1.5-3.3l1.6-1.7l1.5,2.5L1977.1,251.3z M1979.4,254.6
		l0.1-3.3l4.5,3.3H1979.4z M1986.7,234h-3.1l3.9-5.8L1986.7,234z M1992.1,234l-2.2-3.3l0.8-1.6l3,3.3L1992.1,234z M1995.3,264.6
		l-0.8-0.9l2.3-0.8L1995.3,264.6z M2001.9,236.5h-3.1l0.1-2.5l3.1,0L2001.9,236.5z M2065.2,93.8l-6-3.3l0-0.8l-4.6,1.7l-7.6-4.1
		l-2.2-2.5l4.7-3.3l7.6,2.5l9.8,6.6l4.5,5L2065.2,93.8z"/>
</g>
</svg>
