<?xml version="1.0" encoding="utf-8"?>
<!-- Generator: Adobe Illustrator 19.0.0, SVG Export Plug-In . SVG Version: 6.00 Build 0)  -->
<svg version="1.1" id="Layer_1" xmlns="http://www.w3.org/2000/svg" xmlns:xlink="http://www.w3.org/1999/xlink" x="0px" y="0px"
	 viewBox="0 0 383 115" style="enable-background:new 0 0 383 115;" xml:space="preserve">
<style type="text/css">
	.st0{fill:#030303;}
	.st1{fill:#EFCB35;}
</style>
<g id="XMLID_138_">
	<path id="XMLID_136_" class="st0" d="M42,15.6c23.3,0,41.9,18.8,41.9,42.1C83.8,80.5,65.4,99,42.7,99.4C18.6,99.8-0.1,80.2,0,57.4
		C0.1,34.2,18.8,15.6,42,15.6z M42,19.5C21.2,19.2,4,36.4,3.9,57.3C3.8,78,20.6,95.5,41.9,95.5c21.1,0,38-17,38.1-38
		C80,36.1,62.5,19.3,42,19.5z"/>
	<path id="XMLID_128_" class="st1" d="M113.2,76c1.6-3.7,3.1-7.3,4.6-10.9c0.4-1,2-1.6,2.9-1.1c0.4,0.2,0.3,0.6,0.4,0.9
		c0.4,5.4,0.9,10.9,1.3,16.3c0,0.5,0.2,1.2-0.6,1c-0.7-0.1-1.8,0.6-2-0.8c-0.3-3.9-0.6-7.7-0.9-11.6c0-0.3,0-0.6-0.1-1
		c-1.4,3.2-2.8,6.1-4,9.2c-0.4,0.9-0.9,1.1-1.7,1.1c-0.9,0-1.3-0.3-1.6-1.1c-1.3-3-2.6-6-4-9.2c-0.2,3.1-0.4,6-0.7,8.9
		c-0.1,1.2-0.3,2.4-0.2,3.6c0,1.4-0.8,1-1.6,1.1c-1,0.1-1-0.4-1-1.2c0.4-4.9,0.8-9.9,1.1-14.8c0-0.2,0-0.4,0.1-0.6
		c0.2-0.6-0.4-1.6,0.7-1.7c1.1-0.1,2.1-0.3,2.7,1.2C110.1,68.8,111.7,72.3,113.2,76z"/>
	<path id="XMLID_127_" class="st0" d="M256,46.6c0-4.4,0.1-8.6,0-12.8c0-1.2,0.5-1.2,1.4-1.3c1,0,1.3,0.3,1.2,1.3
		c0,5.2,0,10.3,0,15.5c0,0.5,0.4,1.4-0.4,1.5c-0.9,0.1-2,0.5-2.7-0.7c-1.1-1.8-2.4-3.4-3.5-5.2c-1.7-2.6-3.6-5.1-5.4-8.1
		c0,1.8,0,3.3,0,4.8c0,2.7-0.1,5.5,0,8.2c0,1.2-0.6,1-1.3,1.1c-0.8,0-1.3,0-1.3-1.1c0.1-5.2,0-10.4,0.1-15.6c0-0.5-0.4-1.4,0.4-1.5
		c0.9-0.1,2-0.5,2.7,0.7c2.1,3.2,4.3,6.4,6.5,9.5C254.4,44.1,255.1,45.3,256,46.6z"/>
	<path id="XMLID_126_" class="st1" d="M255.7,77.7c0-4.3,0-8.5,0-12.7c0-0.9,0.2-1.2,1-1.1c0.7,0.1,1.6-0.3,1.6,1.1
		c-0.1,5.2,0,10.5,0,15.7c0,0.5,0.3,1.3-0.4,1.4c-0.9,0.1-2,0.6-2.7-0.6c-0.5-0.9-1.1-1.7-1.7-2.5c-2.4-3.5-4.8-7-7.2-10.5
		c-0.3,0.2-0.1,0.6-0.1,0.9c0,3.9,0,7.8,0,11.8c0,1.1-0.5,1.1-1.3,1c-0.7,0-1.4,0.2-1.4-1c0.1-5.2,0-10.5,0-15.7
		c0-0.5-0.4-1.4,0.4-1.5c0.8-0.1,1.8-0.5,2.5,0.6c2.8,4.2,5.7,8.4,8.5,12.6C255.3,77.4,255.3,77.7,255.7,77.7z"/>
	<path id="XMLID_135_" class="st0" d="M231.2,41.7c0,5.3-4.1,9.5-9.3,9.5c-5.3,0-9.4-4.2-9.4-9.6c0-5.3,4.1-9.3,9.4-9.3
		C227.2,32.4,231.2,36.4,231.2,41.7z M228.5,41.8c0.1-3.8-2.8-7-6.5-7.1c-3.7-0.1-6.7,2.9-6.9,6.8c-0.1,3.9,2.9,7.3,6.6,7.4
		C225.4,48.9,228.4,45.8,228.5,41.8z"/>
	<path id="XMLID_134_" class="st0" d="M162.7,41.7c0-2.7,0-5.4,0-8.1c0-0.8,0.1-1.1,1-1c1.7,0.1,3.4,0,5.1,0
		c6.5,0.1,10.2,4.6,9.1,11.1c-0.7,4.1-3.5,6.7-7.6,7.1c-2.3,0.2-4.5,0.1-6.8,0.1c-0.8,0-0.8-0.4-0.8-0.9
		C162.7,47.2,162.7,44.5,162.7,41.7z M165.3,41.8c0,1.1,0,2.3,0,3.4c0,1.1-0.5,2.5,0.2,3.2c0.7,0.7,2.1,0.2,3.2,0.2
		c3.7,0,6.1-2.1,6.6-5.8c0.6-4.7-2.1-7.9-6.8-7.9c-0.7,0-1.5,0.1-2.2,0c-0.8-0.1-1,0.3-1,1C165.3,37.9,165.3,39.8,165.3,41.8z"/>
	<path id="XMLID_133_" class="st1" d="M162.8,73c0-2.6,0-5.3,0-7.9c0-0.8,0.2-1.3,1.1-1.2c2.3,0.1,4.5-0.1,6.8,0.2
		c4.1,0.5,7,3.5,7.4,7.6c0.3,3.4-0.3,6.6-3.2,8.8c-1.5,1.2-3.3,1.6-5.1,1.7c-2,0.1-3.9,0-5.9,0c-0.8,0-1-0.2-1-1
		C162.8,78.5,162.8,75.8,162.8,73z M165.5,73.1c0,1.3,0,2.6,0,3.8c0,3,0,3,3,3c4.4,0,6.6-2.1,7-6.5c0.3-4.3-2.3-7.2-6.6-7.2
		c-0.8,0-1.5,0-2.3,0c-0.8-0.1-1.1,0.2-1.1,1.1C165.5,69.3,165.5,71.2,165.5,73.1z"/>
	<path id="XMLID_132_" class="st1" d="M141.6,82.5c-5.3,0-9.4-4.1-9.4-9.4c0-5.3,4.1-9.4,9.4-9.4c5.3,0,9.4,4.1,9.4,9.3
		C150.9,78.4,146.9,82.5,141.6,82.5z M141.6,66.1c-3.8,0-6.7,3-6.7,6.9c0,4,3,7.2,6.8,7.2c3.7,0,6.5-3.2,6.6-7.1
		C148.2,69.1,145.4,66.1,141.6,66.1z"/>
	<path id="XMLID_131_" class="st1" d="M230.2,82.2c-0.9,0-1.5,0-2.1,0c-0.7,0.1-1-0.2-1.3-0.8c-0.9-1.7-1.9-3.4-2.7-5.2
		c-0.4-0.9-1-1.3-2-1.3c-2.4,0.1-2.4,0-2.4,2.4c0,1.3,0,2.6,0,4c0,1.2-0.9,0.8-1.4,0.8c-0.6,0-1.3,0.2-1.3-0.9c0-5.5,0-11,0-16.5
		c0-0.7,0.3-1,1-0.9c2.1,0.1,4.3,0,6.4,0.1c2.3,0.1,3.9,1.4,4.5,3.5c0.7,2.4,0,4.9-1.9,6.2c-0.9,0.6-0.8,1-0.4,1.8
		C227.7,77.7,228.9,79.9,230.2,82.2z M219.6,69.5c0,3.3,0,3.3,3.3,3.3c2.2,0,3.5-1.2,3.4-3.3c0-2.1-1.1-3.1-3.5-3.1
		C219.6,66.2,219.6,66.2,219.6,69.5z"/>
	<path id="XMLID_115_" class="st0" d="M106.1,41.8c0-2.6,0.1-5.3,0-7.9c-0.1-1.2,0.5-1.2,1.4-1.2c1.1-0.1,1.3,0.3,1.2,1.3
		c-0.1,2,0,3.9,0,5.9c0,0.7,0.2,0.9,0.9,0.9c2.6,0,5.1,0,7.7,0c0.8,0,0.9-0.3,0.9-1c0-2,0-4.1,0-6.1c0-1.1,0.6-0.9,1.2-0.9
		c0.6,0.1,1.4-0.5,1.4,0.8c0,5.5,0,11.1,0,16.6c0,1.3-0.9,0.8-1.4,0.8c-0.6,0.1-1.3,0.2-1.2-0.9c0.1-2,0-4.1,0-6.1c0-0.8-0.3-1-1-1
		c-2.5,0-5,0-7.4,0c-0.8,0-1,0.2-1,1c0.1,2-0.1,3.9,0.1,5.9c0.1,1.2-0.5,1.1-1.4,1.2c-0.8,0-1.3,0-1.3-1.1
		C106.2,47.2,106.1,44.5,106.1,41.8z"/>
	<path id="XMLID_114_" class="st0" d="M134.5,39.7c0-2.2,0.1-4.1,0-5.9c-0.1-1.2,0.5-1.2,1.4-1.3c1.1-0.1,1.2,0.4,1.2,1.3
		c0,3.4,0,6.7,0,10.1c0,3.5,2.1,5.2,5.6,4.7c2.2-0.3,3.5-1.7,3.6-4c0.1-2.8,0-5.5,0.1-8.3c0-0.8,0.1-1.6,0-2.4
		c-0.1-1.1,0.2-1.4,1.4-1.4c1,0,1.3,0.3,1.2,1.3c-0.1,3.5,0,7.1,0,10.6c0,3.8-2.5,6.3-6.5,6.7c-3.8,0.4-7.1-1.8-7.7-5.2
		C134.3,43.8,134.6,41.6,134.5,39.7z"/>
	<path id="XMLID_113_" class="st1" d="M190.7,73c0-2.6,0-5.3,0-7.9c0-0.9,0.2-1.2,1.1-1.2c2.9,0.1,5.7,0.1,8.6,0c1.1,0,1,0.6,1,1.3
		c0,0.8-0.2,1.1-1.1,1.1c-2-0.1-4,0-6,0c-0.7,0-1,0.2-1,1c0,1.2,0,2.5,0,3.7c0,0.7,0.2,0.9,0.9,0.9c1.6,0,3.2,0,4.7,0
		c1.1,0,0.8,0.7,0.9,1.3c0,0.7,0,1.2-0.9,1.1c-1.5-0.1-3,0-4.5,0c-0.8,0-1.2,0.2-1.1,1.1c0.1,1.2,0.1,2.5,0,3.7c0,0.8,0.3,1,1,1
		c2.1,0,4.3,0,6.4,0c1,0,1,0.5,1.1,1.2c0,0.9-0.3,1.1-1.1,1.1c-3,0-6.1,0-9.1,0c-0.8,0-1-0.3-1-1C190.7,78.5,190.7,75.8,190.7,73z"
		/>
	<path id="XMLID_112_" class="st0" d="M195.7,32.3c1.6,0.1,3.1,0.5,4.4,1.3c1.2,0.8,0,1.4-0.2,2c-0.2,0.8-0.7,0.4-1.1,0.1
		c-1.3-0.9-2.7-1.3-4.3-0.9c-1.2,0.3-2,1-2.2,2.2c-0.2,1.2,0.5,2,1.5,2.4c1.2,0.6,2.6,1.2,3.8,1.8c1.5,0.8,2.9,1.7,3.3,3.5
		c0.7,2.7-0.8,5.3-3.5,6.1c-2.8,0.8-5.3,0.2-7.6-1.5c-1.1-0.8,0-1.2,0.3-1.7c0.3-0.5,0.5-0.9,1.2-0.3c1.2,1,2.7,1.6,4.4,1.4
		c1.4-0.1,2.4-0.9,2.7-2c0.3-1.3-0.3-2.2-1.4-2.9c-0.8-0.5-1.7-0.9-2.6-1.3c-0.9-0.4-1.8-0.8-2.6-1.4c-2.8-1.8-2.8-5.5-0.2-7.6
		C192.8,32.7,194.2,32.3,195.7,32.3z"/>
	<path id="XMLID_110_" class="st1" d="M30,46.9c0.5,1.2,1.6,2,2.4,2.9c2.9,3.4,6,6.7,9,10.1c0.4,0.5,0.7,0.3,1-0.1
		c2.2-2.4,4.4-4.9,6.6-7.3c1.6-1.6,2.8-3.6,4.7-4.9c0,1.8,0,3.6,0,5.5c-1.3,1-2.2,2.3-3.3,3.5c-2.6,2.8-5.1,5.7-7.6,8.6
		c-0.6,0.7-1,0.7-1.7,0c-3.5-3.9-7-7.7-10.4-11.6c-0.2-0.2-0.3-0.4-0.6-0.4c-0.1-0.2-0.3-0.3-0.4-0.5c-1.5-1.7-1.5-1.7-2.9,0
		c-0.2,0.3-0.4,0.6-0.7,0.9c-1.3,0.8-2,2.2-2.9,3.3c-2.6,3.2-5.2,6.4-7.7,9.6c-0.4,0.6-0.9,0.6-1.3,0.1c0,0-0.1-0.1-0.1-0.1
		c-0.6-0.6-1.9-1-1.9-1.8c0-0.7,1-1.4,1.5-2.1c4.1-5,8.1-10,12.2-15c0.2-0.2,0.3-0.5,0.4-0.8C28.1,44.8,28.1,44.8,30,46.9z"/>
	<path id="XMLID_106_" class="st0" d="M53.8,53.2c0-1.8,0-3.6,0-5.5c0-4.1,0.1-8.2,0.1-12.2c0-1,0.3-1.2,1.3-1.2
		c2.6,0.1,2.6,0,2.6,2.7c0,3.6,0,7.1,0.1,10.7c0,1.9,0,3.8,0,5.7c0,0.8-0.1,1.6-0.1,2.4c0,8.6,0,17.2,0,25.8c0,0.9-0.1,1.3-1.1,1.2
		c-2.8-0.1-2.8,0-2.8-2.8c0-8.5,0-17,0-25.4C53.8,54.1,53.8,53.7,53.8,53.2z"/>
	<path id="XMLID_76_" class="st0" d="M26.1,53.7c0.2-0.3,0.4-0.6,0.7-0.9c1.4-1.7,1.4-1.7,2.9,0c0.1,0.2,0.3,0.3,0.4,0.5
		c0,9.3-0.1,18.6,0,27.9c0,1.3-0.2,1.7-1.6,1.7c-2.3-0.1-2.3,0-2.3-2.4c0-8.4,0-16.9,0-25.3C26.2,54.6,26.1,54.2,26.1,53.7z"/>
	<path id="XMLID_75_" class="st1" d="M57.8,53.3c0-1.9,0-3.8,0-5.7c1,0.4,1.4,1.4,2.1,2.2c3.6,4.1,7.2,8.2,10.8,12.4
		c-0.8,0.7-1.5,1.4-2.2,2c-0.4,0.4-0.7,0.4-1.2-0.1c-2.8-3.3-5.7-6.6-8.5-9.8C58.4,53.9,58.1,53.6,57.8,53.3z"/>
	<path id="XMLID_72_" class="st0" d="M30,46.9c-1.9-2.2-1.9-2.2-3.7-0.1c0-4-0.1-8-0.1-12c0-0.4,0.1-0.7,0.6-0.6c0.1,0,0.3,0,0.4,0
		c2.9-0.1,2.9-0.1,2.9,2.8C30,40.4,30,43.7,30,46.9z"/>
</g>
</svg>
