<?xml version="1.0" encoding="utf-8"?>
<!-- Generator: Adobe Illustrator 19.0.0, SVG Export Plug-In . SVG Version: 6.00 Build 0)  -->
<svg version="1.1" id="Layer_1" xmlns="http://www.w3.org/2000/svg" xmlns:xlink="http://www.w3.org/1999/xlink" x="0px" y="0px"
	 viewBox="0 0 383 115" style="enable-background:new 0 0 383 115;" xml:space="preserve">
<style type="text/css">
	.st0{fill:#1D1D1B;}
</style>
<g id="XMLID_14_">
	<path id="XMLID_13_" class="st0" d="M79,58.8c0.2,0,0.3,0.1,0.5,0.1c0.2,0,0.4,0,0.6-0.1c0.4-0.1,0.6-0.4,0.7-0.8
		c1.5-3.5,3.1-7,4.6-10.4c0-0.1,0-0.2,0-0.3c0-0.2-0.1-0.3-0.2-0.4c-0.1,0-0.1-0.1-0.2-0.1c-0.3-0.2-0.6-0.2-0.9-0.1
		c-0.5,0.1-0.8,0.5-1,0.9c-1.5,3.3-3.1,6.8-4.6,10.4c0,0.1,0,0.2,0,0.3c0,0.1,0.1,0.3,0.2,0.4C78.8,58.7,78.9,58.7,79,58.8z"/>
	<path id="XMLID_12_" class="st0" d="M209.7,61.1c0.2,0,0.3,0.1,0.5,0.1c0.2,0,0.4,0,0.6-0.1c0.4-0.1,0.6-0.4,0.7-0.8
		c1.5-3.5,3.1-7,4.6-10.4c0-0.1,0-0.2,0-0.3c0-0.2-0.1-0.3-0.2-0.4c-0.1,0-0.1-0.1-0.2-0.1c-0.3-0.2-0.6-0.2-0.9-0.1
		c-0.5,0.1-0.8,0.5-1,0.9c-1.5,3.3-3.1,6.8-4.6,10.4c0,0.1,0,0.2,0,0.3c0,0.1,0.1,0.3,0.2,0.4C209.5,61,209.6,61.1,209.7,61.1z"/>
	<path id="XMLID_164_" class="st0" d="M90.3,101.9c-1.1,0-3.1-0.3-3.5-1.6c-2.4-4,2.1-17.9,3.5-22.5c0.2-0.6,0.3-1,0.4-1.3
		c0.3-0.8,0.9-2.3,1.6-4.1c0.6-1.5,1.4-3.4,2.1-5.3c0.8-2.4,1.6-4.4,2.5-6.5c2.2-4.3,4.5-8.6,6.7-12.8c7.2-13.5,14-26.3,18.5-38
		c0.1-0.3,2.6-6.4,2.3-9.3c0-0.1-0.1-0.2-0.1-0.2c-0.4-0.3-0.9-0.4-1.5-0.2C119.3,1.2,94.9,60.5,94.7,61c-0.3,0.5-0.6,1.1-0.9,1.7
		c-0.2,0.3-0.2,0.6-0.2,0.9c-0.4,1-0.8,1.9-1.1,2.8l0,0l-1.7,1l-9.5,6.1c-1.7,0.9-3.5,1.5-5.4,2.1c-0.4,0.1-1.4-0.3-1.9-0.5
		c0-0.1-0.1-0.2-0.1-0.2c-0.1-0.2-0.2-0.4-0.2-0.7c0,0,0-0.1,0-0.2c0-0.1,0-0.2,0-0.3c0.4-3.7,2.2-6.1,3.1-7.3
		c0.2-0.3,0.4-0.6,0.6-0.8c0.1-0.2,0.7-0.9,1.1-1.3c0.8-0.8,1-1,1-1.3c0-0.1-0.1-0.2-0.2-0.3c0-0.3-0.2-0.5-0.4-0.6
		c-0.9-0.4-1.4,0-2,0.6c-0.2,0.3-0.5,0.6-0.7,0.8c-0.3,0.3-0.5,0.6-0.8,0.9c-0.8,1-1.4,2-2,3.1c-0.5,0.3-1.3,0.8-2.4,1.5
		c-3.7,2.4-9.8,6.5-14.4,8.7c-4,2-6.5,2.6-8.1,2c-1.8-0.7-2.9-2.8-4.1-5.6c-0.8-1.9-1.9-2.9-3.3-3.3c-2.9-0.8-6.4,1.8-10.1,4.6
		c-2.9,2.1-5.9,4.4-8.7,5c0,0-0.1,0-0.1,0c-0.1-0.2-0.2-0.4-0.2-0.7c0.1-1.6,0.4-3.2,0.7-4.8c0.4-2.3,0.7-3.7,0.4-4.5
		c0-0.1,0-0.2-0.1-0.3c-1.7-2.2-4.7-1.3-7.7,0.1c-3.8,1.5-8.7,4.6-12.4,7c0.2-0.4,0.4-0.9,0.6-1.2c0.6-1.3,1.4-2.7,2.1-3.8
		c0.4-0.6,0.7-1.2,0.9-1.5c0,0,0-0.1,0-0.1l0-0.2c0.1-0.5-0.2-1-0.6-1.3c-0.2-0.1-0.3-0.1-0.5-0.1c-0.6,0.1-1.2,1-1.5,1.5
		c-0.2,0.3-4.2,6.7-4,9.8c0,0.1,0.1,0.2,0.1,0.3C0.7,81,1.6,80.7,2,80.4c6.1-4.7,16.7-10.6,18.6-9.9c0.6,0.2,0.6,0.3,0.7,0.7
		c0,0.1-0.1,0.5-0.2,1.1c-1.1,5.7-1.3,8-1,8.6c0.3,0.6,0.7,1,1.4,1.2c0.2,0.1,0.5,0.1,0.8,0.1c1.2,0,3-0.7,5.3-2
		c1-0.5,2.5-1.7,4.3-3c2.9-2.2,6.5-4.9,8.1-4.9c0.7,0,1.4,0.6,1.6,0.8c0.8,1,1.5,2.2,2.1,3.4c1.6,3.2,3.3,6.5,9.4,4.4
		c7.8-2.6,18.5-10,18.6-10.1l0.5-0.3c-0.2,0.7-0.4,1.5-0.5,2.3c0,0.1,0,0.2,0,0.3c-0.2,0.9,0,1.9,0.5,2.7c0.1,0.1,0.2,0.2,0.3,0.4
		l0.1,0.1c0.6,0.7,1.5,1.2,2.7,1.3c0.2,0,0.3,0,0.5,0c0.2,0,0.4,0,0.6,0c0.1,0,0.2,0,0.3,0c0.5-0.1,1-0.2,1.5-0.4l0.5-0.2
		c0.5-0.2,1-0.4,1.6-0.6c0.9-0.4,1.8-0.9,2.6-1.4l8.6-5.5L90.6,71l-0.4,1.5c-0.3,0.7-7.9,21-5.5,28.2c1.1,2.1,2.8,3.2,5.1,3.3
		c0.9-0.1,1.6-0.7,1.7-1.5c0-0.1,0-0.3-0.2-0.4C91,102,90.7,101.9,90.3,101.9z M101.8,48.1c9.4-21.5,19.3-42.6,21-45.5
		c-1.6,5.7-5.4,13.9-5.4,14C114.9,22.2,106.7,39.1,101.8,48.1L101.8,48.1z"/>
	<path id="XMLID_161_" class="st0" d="M105.4,100.8c-0.2,0-0.3,0-0.5,0h-0.2c-1.3,0-2.2-0.1-2.5-1c-2.7-5.6,0.9-16.9,2.5-21.8
		c0.3-0.8,0.5-1.4,0.6-1.8c0.3-1.1,2.9-7.4,4.6-11.5c0.7-1.6,1.2-3,1.5-3.6l3-6.1c7.5-15.2,15.2-31,19.9-44.4c0.1-0.3,2.4-6.3,2-9.1
		c0-0.1-0.1-0.2-0.1-0.2c-0.4-0.3-0.9-0.4-1.5-0.3c-2.8,0.9-31.5,75-31.6,75.7l-0.1,0.3c-1.2,4-4.9,16.3-2.9,22.8
		c0,0.2,0.1,0.3,0.2,0.4c1,1.8,2.4,2.6,4.7,2.7c0.9-0.1,1.6-0.7,1.7-1.4c0-0.1,0-0.3-0.2-0.4C106.1,100.9,105.8,100.8,105.4,100.8z
		 M115.6,48.7c8.1-20.4,16.5-39.8,18.8-44.8c0,0.2,0,0.3,0,0.4c-1.1,3.5-4,11.3-4,11.4C128,21.6,120.6,38.7,115.6,48.7z"/>
	<path id="XMLID_7_" class="st0" d="M126.8,43.1c-0.5,0.1-0.8,0.5-1,0.9c-1.5,3.3-3.1,6.8-4.6,10.4c0,0.1,0,0.2,0,0.3
		c0,0.1,0.1,0.3,0.2,0.4c0.1,0.1,0.2,0.1,0.3,0.2c0.2,0,0.3,0.1,0.5,0.1c0.6,0,1.2-0.3,1.3-0.9c1.5-3.5,3.1-7,4.6-10.4
		c0-0.1,0-0.2,0-0.3c0-0.2-0.1-0.3-0.2-0.4c-0.1,0-0.1-0.1-0.2-0.1C127.4,43.1,127.1,43,126.8,43.1z"/>
	<path id="XMLID_153_" class="st0" d="M246.6,75.5c2.8-2.2,5.1-4,6.4-4.9c0.1,0.5,0.2,1.1,0.3,1.6l0.1,0.2c0,0.1,0.1,0.3,0.1,0.4
		c0.6,1.4,1.6,2.3,3,2.7c3.9,1,9.9-2.8,11.7-4.3c0.7-0.5,1.4-1,2-1.4c1-0.7,1.9-1.3,3-2.1l0.1-0.1c0.2-0.2,0.6-0.5,0.2-1.1
		c0,0,0,0,0,0c-0.1-0.2-0.3-0.3-0.5-0.4c-0.3-0.2-0.8-0.3-1.1-0.1c-0.3,0.2-0.6,0.4-0.9,0.6c-0.3,0.2-0.6,0.4-0.9,0.6
		c-0.5,0.4-1.1,0.8-1.6,1.2c-3.5,2.6-7.6,5.6-11.8,5c-0.6-0.1-1.4-1.1-1.6-1.8c-0.1-0.3-0.1-0.7-0.1-1c1.1,0.1,2.9,0.2,3.9-0.5
		c0.4-0.3,0.6-0.7,0.7-1.2c0-0.4,0-0.8-0.1-1.1c-0.1-0.3-0.3-0.7-0.5-0.9c-0.7-1-1.5-1.1-2.4-0.9c-0.6,0.1-1.6,1.1-2.6,2.1l-0.2,0.2
		l-0.1,0.1c-0.5,0.2-0.9,0.4-1.3,0.7c-0.7,0.4-2.5,1.9-5.1,3.9c-6.3,4.9-16.8,13.1-22,15.8c-0.6,0.3-1.1,0.4-1.4,0.2
		c-0.3-0.2-0.3-0.5-0.2-0.8c0.2-3.7,1.4-7.6,1.4-7.6c2-7.1,2.2-9.5,1.1-11.3c-0.6-1-1.5-1.4-2.4-1.7c0,0,0-0.1,0.1-0.1
		c0.1-0.1,0.1-0.3,0.2-0.4c0.1-0.8-0.1-1.5-0.7-2c-0.6-0.5-1.5-0.6-2.4-0.2c-0.8,0.4-1.2,1-1.2,1.8v0.1c0,0.5,0,1.2,0.8,1.7l-1,0.6
		l-9.2,5.6c-1.7,0.8-3.4,1.4-5.2,1.9c-0.4,0.1-1.4-0.3-1.8-0.5c0-0.1-0.1-0.1-0.1-0.2c-0.1-0.2-0.2-0.4-0.2-0.6c0,0,0-0.1,0-0.1
		c0-0.1,0-0.2,0-0.3c0.4-3.4,2.1-5.5,3-6.7c0.2-0.2,0.4-0.5,0.6-0.8c0.1-0.2,0.7-0.8,1.1-1.2c0.8-0.7,1-1,1-1.2
		c0-0.1-0.1-0.2-0.1-0.3c0-0.2-0.2-0.4-0.4-0.6c-0.8-0.4-1.4,0-1.9,0.5c-0.2,0.3-0.5,0.5-0.7,0.8c-0.3,0.3-0.5,0.5-0.8,0.8
		c-0.7,0.9-1.4,1.8-2,2.8l-1.5,0.8c-1.6,0.9-3.1,1.7-4.8,2.4c-2.6,1.1-4.6,1.4-6,0.8c-0.8-0.4-1.4-1.1-1.7-1.9l-0.1-0.4
		c-0.1-0.4-0.2-0.7-0.4-1c-0.1-0.5-0.4-1-0.7-1.5c-0.1-0.1-0.2-0.3-0.4-0.3c-0.1-0.1-0.1-0.1-0.2-0.2c-0.4-0.4-0.8-0.7-1.7-0.6
		c-0.8,0.1-1.7,0.4-2.4,0.9c-0.3,0.1-0.7,0.3-1,0.4c-0.7,0.2-1.5,0.5-2.4,0.8c-9.5,2.9-15.7,4.2-18.4,3.8c0-0.2,0.1-0.4,0.1-0.6
		c0-0.1,0-0.2,0-0.3c0.1-0.8-0.6-1.3-1-1.6c-0.1-0.1-0.2-0.1-0.3-0.2c-1.1-1-4.2,0.4-8.9,2.5c-1.9,0.9-4.5,2.1-5.2,2.1
		c0-0.1,0-0.1,0.1-0.1c0.3-0.6,1.1-1.6,1.6-2.2c0.2-0.2,0.3-0.4,0.5-0.6c0.3-0.4,0.7-0.9,1-1.3c0.2-0.2,0.3-0.6,0.2-0.9
		c-0.1-0.4-0.3-0.7-0.6-0.9c-0.1-0.1-0.1-0.1-0.2-0.2l-0.1-0.1c-0.2-0.1-0.4-0.1-0.5,0c-0.1,0.1-0.2,0.3-0.2,0.4c0,0,0,0.1,0,0.1
		c0,0-0.1,0.1-0.1,0.1c-0.2,0.1-0.3,0.2-0.5,0.3l-0.2,0c-0.3,0.1-0.6,0.1-0.9,0.2c-0.2,0-0.3,0.1-0.5,0.1l-0.4,0.1
		c-0.7,0.1-1.5,0.3-2.2,0.4c-0.3,0.1-0.6,0.1-0.9,0.1c-0.1,0-0.3,0-0.4,0c0.3-0.7,0.5-1.5,0.6-2.3c0.1-0.6-0.1-1.3-0.4-1.8
		c-0.2-0.4-0.4-0.7-0.7-0.9c-0.1-0.1-0.1-0.1-0.2-0.2c-0.4-0.2-0.8-0.4-1.2-0.5c-0.2,0-0.4,0-0.5,0c-0.2,0-0.4,0-0.6,0.1
		c-0.6,0.1-1.1,0.3-1.5,0.7l-1.4,0.6c0,0-0.1,0-0.1,0l-1.1,0.5l-1.5,0.9l-2.1,1.4c-0.1,0.1-9.7,6.5-13.6,6.7c-0.6,0-1.3-0.3-1.5-0.5
		l0,0c0-0.1-0.1-0.2-0.1-0.3c-0.1-0.2-0.2-0.4-0.2-0.6c0,0,0-0.1,0-0.1c0-0.1,0-0.1,0-0.2c0.1-0.6,1.8-3.6,3.1-5.8
		c2.7-4.7,2.7-4.7,2.2-5c-0.7-0.3-1.6-0.2-2.1,0.4c-0.3,0.4-5.1,8.5-5.3,9.5c0,0.1,0,0.2,0,0.3c-0.2,0.8,0,1.7,0.4,2.5
		c0.1,0.1,0.2,0.2,0.3,0.3l0.1,0.1c0.6,0.7,1.5,1.1,2.6,1.2c0.3,0,0.7,0,1,0c0.1,0,0.2,0,0.3,0c0.5-0.1,1-0.2,1.5-0.3
		c0.2-0.1,0.6-0.2,0.9-0.4c0.6-0.2,1.2-0.5,1.7-0.6c2.2-1,7.3-4.3,10.3-6.1c-1.2,1.7-1.9,3.4-1.8,4.8c0,0.1,0,0.3,0,0.4
		c0,0.1,0,0.1,0.1,0.3c0,0.1,0,0.2,0.1,0.2c0.1,0.2,0.2,0.4,0.3,0.5c0.1,0.1,0.2,0.2,0.3,0.4c0,0.1,0.1,0.1,0.1,0.1
		c1.6,1.5,5.1,0.3,7.9-2.7c0.5-0.5,0.9-1,1.3-1.6c1.9-0.1,3.9-0.3,5.8-0.7l-0.1,0.2c-0.8,1.1-1.6,2.2-1.7,3
		c-0.1,0.5,0.1,0.9,0.4,1.3c0.4,0.4,1,0.5,1.8,0.4c0.6-0.1,1.9-0.7,4.1-1.7c2.8-1.4,7.6-3.7,8.5-3.1c0.8,0.8,0.7,1,0.6,1.3
		c-0.1,0.2-0.2,0.4-0.2,0.6c0,0.2,0.1,0.3,0.2,0.4c0,0.2,0,0.4,0.1,0.5c0.2,0.2,0.6,0.3,1.6,0.3c5-0.3,12.3-1.9,17.2-3.4
		c0.3-0.1,0.7-0.2,1-0.3c-0.3,0.2-0.5,0.5-0.7,0.7c-1.4,1.7-2.6,3.2-2.4,4.8c0,0.1,0,0.1,0.1,0.2c0.1,0.1,0.1,0.2,0.1,0.3
		c0.1,0.3,0.3,0.5,0.5,0.7c2.4,1.5,7.1-3.2,9.5-6.5c0.6,2.3,2.4,3.7,4.8,3.9c2.9,0.3,6.1-1.2,10-3.3c-0.2,0.7-0.4,1.5-0.6,2.3
		c0,0.1,0,0.2,0,0.3c-0.2,0.8,0,1.7,0.4,2.5c0.1,0.1,0.2,0.2,0.3,0.3l0.1,0.1c0.6,0.7,1.5,1.1,2.6,1.2c0.4,0,0.7,0,1.1,0
		c0.1,0,0.2,0,0.3,0c0.5-0.1,1-0.2,1.5-0.3l0.4-0.2c0.5-0.2,1-0.4,1.5-0.6c0.9-0.4,1.7-0.8,2.5-1.3l10.4-6.3l0.1,0
		c0.1,0,0.5-0.1,0.6-0.2c0.1,0,0.3,0.1,0.4,0.1c0.1,0,0.3,0.1,0.4,0.1c0.2,0.1,0.5,0.3,0.6,0.6c0.4,0.4,0.5,2.2,0.1,5.2
		c-0.2,1.3-0.5,2.5-0.9,3.8c-1,3.6-2.2,8-1.6,10.6c0.2,0.9,0.9,0.9,1.6,1c0.2,0,0.4,0,0.6,0.1c0.1,0,0.2,0,0.2,0
		C226.9,90.8,236.3,83.6,246.6,75.5z M133.5,71.2c0.3-0.4,0.6-0.8,0.9-1.1c1,0.8,2.2,1.4,3.4,1.7c0.1,0,0.2,0.1,0.3,0.1
		c0.1,0,0.2,0.1,0.3,0.1c-0.1,0.1-0.3,0.3-0.4,0.4s-0.3,0.2-0.4,0.3l-0.1,0.1c-1.6,1.4-3.3,2.4-4.3,2.5H133c0,0-0.1,0-0.1,0h-0.1
		c-0.1,0-0.1,0-0.2-0.1c-0.3-0.3-0.3-0.4-0.3-0.5C132.3,74.1,132.7,72.6,133.5,71.2z M140.1,66.7c0.3,0.3,0.4,0.9,0.1,1.7l0,0
		c-0.3,0.6-0.6,1.2-0.9,1.8c-2.1-0.4-3.3-1.1-3.8-1.4c1.5-1.6,2.6-2.6,3.9-2.5C139.7,66.5,139.9,66.6,140.1,66.7z M256.4,67.6
		l0.3,0.2c0.2-0.2,0.6-0.2,0.8,0.1c0.1,0.1,0.1,0.2,0.1,0.3c0,0.3-0.2,0.5-0.5,0.6l-0.4,0l-0.8-0.1l0.7-0.8L256.4,67.6L256.4,67.6z
		 M222.4,66.5c0,0.3-0.2,0.6-0.5,0.7c-0.3,0-0.6-0.2-0.7-0.5c0-0.3,0.2-0.6,0.5-0.7c0,0,0.1,0,0.1,0C222.1,66,222.3,66.2,222.4,66.5
		z M185.8,68.7c0.1,0.4-0.9,2.1-3.3,4.4c-2.4,2.3-3.9,3-4.2,2.8c-0.1-0.3,0.7-1.9,3-4.2C183.6,69.6,185.4,68.7,185.8,68.7
		L185.8,68.7z"/>
</g>
</svg>
