<?xml version="1.0" encoding="utf-8"?>
<!-- Generator: Adobe Illustrator 19.0.0, SVG Export Plug-In . SVG Version: 6.00 Build 0)  -->
<svg version="1.1" id="Layer_1" xmlns="http://www.w3.org/2000/svg" xmlns:xlink="http://www.w3.org/1999/xlink" x="0px" y="0px"
	 viewBox="0 0 383 115" style="enable-background:new 0 0 383 115;" xml:space="preserve">
<style type="text/css">
	.st0{fill:#231F20;}
	.st1{fill:#FCCE0D;}
	.st2{fill:#6E6F71;}
</style>
<g id="XMLID_34_">
	<g id="XMLID_32_">
		<path id="XMLID_39_" class="st0" d="M41.9,55.1L22.6,35.8L3.3,55.1L0,51.7l20.9-20.9c0.4-0.4,1-0.7,1.7-0.7c0,0,0,0,0,0
			c0.6,0,1.2,0.2,1.7,0.7l21,20.9L41.9,55.1z"/>
	</g>
	<g id="XMLID_31_">
		<path id="XMLID_36_" class="st1" d="M22.6,75.1c-8,0-14.6-6.5-14.6-14.6S14.6,46,22.6,46c8,0,14.6,6.5,14.6,14.6
			S30.6,75.1,22.6,75.1z M22.6,50.7c-5.4,0-9.9,4.4-9.9,9.9s4.4,9.9,9.9,9.9c5.4,0,9.9-4.4,9.9-9.9S28,50.7,22.6,50.7z"/>
	</g>
	<g id="XMLID_30_">
		<path id="XMLID_35_" class="st0" d="M22.5,84c-0.2,0-0.5,0-0.7,0c-8.3-0.2-15.9-3.6-20.2-9.3l3.7-2.9c3.4,4.4,9.8,7.3,16.6,7.4
			c7.2,0.1,13.7-2.6,17.8-7.5l3.6,3C38.4,80.7,30.8,84,22.5,84z"/>
	</g>
	<g id="XMLID_40_">
		<path id="XMLID_29_" class="st0" d="M78,73.5H58.8V71l14.8-22.5H59.2v-2.9h18.4v2.5L62.7,70.6H78V73.5z"/>
		<path id="XMLID_56_" class="st0" d="M91.8,73.9c-3.1,0-5.5-1-7.3-2.8c-1.8-1.9-2.7-4.5-2.7-7.9s0.8-6.1,2.5-8c1.7-2,3.9-3,6.7-3
			c2.6,0,4.7,0.9,6.2,2.6c1.5,1.7,2.3,4,2.3,6.9v2H85.1c0.1,2.5,0.7,4.3,1.9,5.6s2.8,1.9,5,1.9c2.3,0,4.5-0.5,6.7-1.4v2.8
			c-1.1,0.5-2.2,0.8-3.2,1C94.4,73.8,93.2,73.9,91.8,73.9z M90.9,54.9c-1.7,0-3,0.5-4,1.6c-1,1.1-1.6,2.6-1.8,4.6h11
			c0-2-0.4-3.5-1.3-4.6C93.9,55.4,92.6,54.9,90.9,54.9z"/>
		<path id="XMLID_26_" class="st0" d="M114.5,52.2c0.9,0,1.8,0.1,2.5,0.2l-0.4,2.9c-0.9-0.2-1.6-0.3-2.3-0.3c-1.7,0-3.2,0.7-4.4,2.1
			c-1.2,1.4-1.8,3.1-1.8,5.2v11.3h-3.2v-21h2.6l0.4,3.9h0.1c0.8-1.4,1.7-2.4,2.8-3.2C112,52.6,113.2,52.2,114.5,52.2z"/>
		<path id="XMLID_52_" class="st0" d="M139,63.1c0,3.4-0.9,6.1-2.6,8c-1.7,1.9-4.1,2.9-7.1,2.9c-1.9,0-3.5-0.4-5-1.3
			c-1.5-0.9-2.6-2.1-3.4-3.8c-0.8-1.6-1.2-3.6-1.2-5.8c0-3.4,0.9-6.1,2.6-8c1.7-1.9,4.1-2.9,7.1-2.9c2.9,0,5.3,1,7,2.9
			C138.2,57.1,139,59.7,139,63.1z M123.1,63.1c0,2.7,0.5,4.7,1.6,6.1s2.7,2.1,4.7,2.1c2.1,0,3.7-0.7,4.7-2.1
			c1.1-1.4,1.6-3.4,1.6-6.1c0-2.7-0.5-4.7-1.6-6.1c-1.1-1.4-2.7-2.1-4.8-2.1c-2.1,0-3.6,0.7-4.7,2.1
			C123.6,58.3,123.1,60.3,123.1,63.1z"/>
		<path id="XMLID_23_" class="st2" d="M161,45.6h3.5l-10.1,28h-3.2l-10-28h3.5l6.4,18.1c0.7,2.1,1.3,4.1,1.8,6.1
			c0.4-2.1,1.1-4.1,1.8-6.2L161,45.6z"/>
		<path id="XMLID_48_" class="st2" d="M179.6,73.5l-0.6-3h-0.1c-1,1.3-2.1,2.2-3.1,2.7c-1,0.5-2.3,0.7-3.9,0.7
			c-2.1,0-3.7-0.5-4.9-1.6c-1.2-1.1-1.8-2.6-1.8-4.6c0-4.2,3.4-6.5,10.2-6.6l3.5-0.1v-1.3c0-1.6-0.4-2.9-1.1-3.6
			c-0.7-0.8-1.8-1.2-3.4-1.2c-1.8,0-3.7,0.5-5.9,1.6l-1-2.4c1-0.6,2.2-1,3.4-1.3c1.2-0.3,2.5-0.5,3.7-0.5c2.5,0,4.4,0.6,5.6,1.7
			c1.2,1.1,1.8,2.9,1.8,5.3v14.3L179.6,73.5L179.6,73.5z M172.5,71.3c2,0,3.5-0.5,4.6-1.6c1.1-1.1,1.7-2.6,1.7-4.6v-1.9l-3.2,0.1
			c-2.5,0.1-4.4,0.5-5.5,1.2c-1.1,0.7-1.7,1.8-1.7,3.2c0,1.2,0.4,2,1,2.6C170.2,71,171.2,71.3,172.5,71.3z"/>
		<path id="XMLID_20_" class="st2" d="M196.9,73.9c-3,0-5.4-0.9-7.1-2.8c-1.7-1.9-2.5-4.5-2.5-7.9c0-3.5,0.8-6.2,2.5-8.1
			c1.7-1.9,4.1-2.9,7.2-2.9c1,0,2,0.1,3,0.3c1,0.2,1.8,0.5,2.4,0.8l-1,2.7c-0.7-0.3-1.5-0.5-2.3-0.7s-1.5-0.3-2.2-0.3
			c-4.3,0-6.4,2.7-6.4,8.2c0,2.6,0.5,4.6,1.5,5.9s2.6,2.1,4.6,2.1c1.8,0,3.5-0.4,5.4-1.1v2.8C200.8,73.6,199,73.9,196.9,73.9z"/>
		<path id="XMLID_44_" class="st2" d="M220.1,73.5l-0.6-3h-0.1c-1,1.3-2.1,2.2-3.1,2.7s-2.3,0.7-3.9,0.7c-2.1,0-3.7-0.5-4.9-1.6
			s-1.8-2.6-1.8-4.6c0-4.2,3.4-6.5,10.2-6.6l3.5-0.1v-1.3c0-1.6-0.4-2.9-1.1-3.6c-0.7-0.8-1.8-1.2-3.4-1.2c-1.8,0-3.7,0.5-5.9,1.6
			l-1-2.4c1-0.6,2.2-1,3.4-1.3c1.2-0.3,2.5-0.5,3.7-0.5c2.5,0,4.4,0.6,5.6,1.7c1.2,1.1,1.8,2.9,1.8,5.3v14.3L220.1,73.5L220.1,73.5z
			 M212.9,71.3c2,0,3.5-0.5,4.6-1.6c1.1-1.1,1.7-2.6,1.7-4.6v-1.9l-3.2,0.1c-2.5,0.1-4.4,0.5-5.5,1.2s-1.7,1.8-1.7,3.2
			c0,1.2,0.4,2,1,2.6C210.6,71,211.6,71.3,212.9,71.3z"/>
		<path id="XMLID_17_" class="st2" d="M243.3,73.5V60c0-1.7-0.4-3-1.2-3.8c-0.8-0.8-2-1.3-3.7-1.3c-2.2,0-3.8,0.6-4.8,1.8
			c-1,1.2-1.5,3.2-1.5,5.9v11h-3.2v-21h2.6l0.5,2.9h0.1c0.7-1,1.5-1.8,2.7-2.4c1.2-0.6,2.5-0.9,3.9-0.9c2.5,0,4.4,0.6,5.7,1.8
			c1.3,1.2,1.9,3.2,1.9,5.8v13.7L243.3,73.5L243.3,73.5z"/>
		<path id="XMLID_16_" class="st2" d="M261.4,73.9c-3,0-5.4-0.9-7.1-2.8c-1.7-1.9-2.5-4.5-2.5-7.9c0-3.5,0.8-6.2,2.5-8.1
			c1.7-1.9,4.1-2.9,7.2-2.9c1,0,2,0.1,3,0.3c1,0.2,1.8,0.5,2.4,0.8l-1,2.7c-0.7-0.3-1.5-0.5-2.3-0.7s-1.5-0.3-2.2-0.3
			c-4.3,0-6.4,2.7-6.4,8.2c0,2.6,0.5,4.6,1.5,5.9c1,1.4,2.6,2.1,4.6,2.1c1.8,0,3.5-0.4,5.4-1.1v2.8
			C265.3,73.6,263.5,73.9,261.4,73.9z"/>
		<path id="XMLID_15_" class="st2" d="M270.9,52.6h3.4l4.6,11.9c1,2.7,1.6,4.7,1.9,5.9h0.1c0.2-0.7,0.5-1.8,1-3.3
			c0.5-1.6,2.3-6.4,5.2-14.5h3.4l-9,23.9c-0.9,2.4-1.9,4-3.1,5c-1.2,1-2.7,1.5-4.4,1.5c-1,0-1.9-0.1-2.9-0.3v-2.5
			c0.7,0.1,1.5,0.2,2.4,0.2c2.2,0,3.7-1.2,4.7-3.7l1.2-3L270.9,52.6z"/>
	</g>
</g>
</svg>
