<svg id="Layer_1" data-name="Layer 1" xmlns="http://www.w3.org/2000/svg" viewBox="0 0 300 90"><defs><style>.cls-1{fill:#020202;}.cls-2{fill:#b22a26;}</style></defs><title>Logos</title><polygon class="cls-1" points="2.56 27.6 14.66 68.68 23.88 68.68 31.17 46.03 39.05 68.61 48.45 68.61 60.17 27.64 49.22 27.64 43.46 49.13 36.36 27.64 26.57 27.64 19.84 48.35 14.85 27.6 2.56 27.6"/><polygon class="cls-2" points="60.17 41.66 56.52 55.29 70.73 55.29 70.73 68.59 84.36 68.59 84.36 55.09 98.18 55.09 98.18 41.66 84.36 41.66 84.36 27.64 70.73 27.64 70.73 41.66 60.17 41.66"/><polygon class="cls-1" points="102.36 27.68 102.36 68.59 130.39 68.59 130.39 57.98 115.13 57.98 115.13 27.64 102.36 27.68"/></svg>