<?xml version="1.0" encoding="utf-8"?>
<!-- Generator: Adobe Illustrator 19.0.0, SVG Export Plug-In . SVG Version: 6.00 Build 0)  -->
<svg version="1.1" id="Layer_1" xmlns="http://www.w3.org/2000/svg" xmlns:xlink="http://www.w3.org/1999/xlink" x="0px" y="0px"
	 viewBox="0 0 383 115" style="enable-background:new 0 0 383 115;" xml:space="preserve">
<g id="XMLID_65_">
	<g id="XMLID_73_">
		<path id="XMLID_63_" d="M63.3,49.9v25.4h-6.6V49.9H63.3z"/>
		<path id="XMLID_62_" d="M68.7,75.3V49.9h6.6l12.2,15.5V49.9H94v25.4h-6.6L75.2,59.8v15.5H68.7z"/>
		<path id="XMLID_61_" d="M113.8,55.5h-7.9v4.3h7.2v5.6h-7.2v9.9h-6.6V49.9h14.5L113.8,55.5L113.8,55.5z"/>
		<path id="XMLID_86_" d="M132.2,70.9h-9.4l-1.5,4.4h-7l9.6-25.4h7.2l9.6,25.4h-7L132.2,70.9z M130.4,65.8l-2.9-8.4l-2.9,8.4H130.4z
			"/>
		<path id="XMLID_58_" d="M160.9,58.4c-1.5-1.9-3.4-2.8-5.6-2.8c-1,0-1.9,0.2-2.7,0.5c-0.8,0.4-1.6,0.8-2.1,1.5
			c-0.6,0.6-1.1,1.3-1.4,2.2c-0.3,0.8-0.5,1.8-0.5,2.7c0,1,0.2,1.9,0.5,2.8c0.3,0.8,0.8,1.6,1.4,2.2c0.6,0.6,1.3,1.1,2.1,1.5
			c0.8,0.4,1.7,0.5,2.7,0.5c2.1,0,4-0.9,5.7-2.7v7.8l-0.7,0.3c-1,0.3-1.9,0.6-2.8,0.8c-0.9,0.2-1.7,0.3-2.6,0.3c-1.7,0-3.4-0.3-5-1
			c-1.6-0.7-3-1.6-4.3-2.8c-1.2-1.2-2.2-2.6-2.9-4.3c-0.8-1.6-1.1-3.5-1.1-5.4c0-1.9,0.4-3.7,1.1-5.3c0.7-1.6,1.7-3,2.9-4.2
			s2.7-2.1,4.3-2.7c1.6-0.7,3.3-1,5.1-1c1,0,2,0.1,3,0.3c1,0.2,2,0.5,3.1,1L160.9,58.4L160.9,58.4z"/>
		<path id="XMLID_57_" d="M179.5,55.5h-7.8v4.3h7.4v5.6h-7.4v4.4h7.8v5.6h-14.4V49.9h14.4V55.5z"/>
		<path id="XMLID_55_" d="M183.4,72c0-0.5,0.1-1.1,0.3-1.5c0.2-0.5,0.5-0.9,0.8-1.3c0.3-0.4,0.8-0.6,1.3-0.8c0.5-0.2,1-0.3,1.5-0.3
			s1.1,0.1,1.5,0.3c0.5,0.2,0.9,0.5,1.3,0.8c0.4,0.4,0.6,0.8,0.8,1.3c0.2,0.5,0.3,1,0.3,1.5c0,0.5-0.1,1.1-0.3,1.5
			c-0.2,0.5-0.5,0.9-0.8,1.3c-0.4,0.4-0.8,0.6-1.3,0.8c-0.5,0.2-1,0.3-1.5,0.3s-1.1-0.1-1.5-0.3c-0.5-0.2-0.9-0.5-1.3-0.8
			c-0.4-0.3-0.6-0.8-0.8-1.3C183.5,73.1,183.4,72.6,183.4,72z"/>
		<path id="XMLID_54_" d="M194.5,75.3l4.3-25.4h6.5l5.1,13.5l5.1-13.5h6.5l4.3,25.4h-6.6l-2.2-14.6l-6,14.6h-2.6l-5.7-14.6
			l-2.2,14.6H194.5z"/>
		<path id="XMLID_53_" d="M244.9,55.5H237v4.3h7.4v5.6H237v4.4h7.8v5.6h-14.4V49.9h14.4V55.5z"/>
		<path id="XMLID_78_" d="M249.6,49.9h9.7c1.7,0,3.3,0.3,4.8,1.1c1.5,0.7,2.8,1.6,4,2.8c1.1,1.1,2,2.5,2.7,4c0.6,1.5,1,3.2,1,4.8
			c0,1.6-0.3,3.2-1,4.8c-0.6,1.5-1.5,2.9-2.7,4c-1.1,1.2-2.4,2.1-4,2.8c-1.5,0.7-3.2,1.1-4.9,1.1h-9.7L249.6,49.9L249.6,49.9z
			 M256.2,69.7h1.5c1.1,0,2.1-0.2,3.1-0.5c0.9-0.4,1.6-0.8,2.3-1.5s1.1-1.4,1.4-2.2c0.3-0.8,0.5-1.8,0.5-2.8c0-1-0.2-1.9-0.5-2.8
			c-0.3-0.9-0.8-1.6-1.4-2.2c-0.6-0.6-1.4-1.1-2.3-1.5c-0.9-0.3-1.9-0.5-3-0.5h-1.5L256.2,69.7L256.2,69.7z"/>
		<path id="XMLID_49_" d="M282.6,49.9v25.4H276V49.9H282.6z"/>
		<path id="XMLID_74_" d="M303.5,70.9h-9.4l-1.5,4.4h-7l9.6-25.4h7.2l9.6,25.4h-7L303.5,70.9z M301.7,65.8l-2.9-8.4l-2.9,8.4H301.7z
			"/>
	</g>
	<g id="XMLID_66_">
		<path id="XMLID_70_" d="M36.6,46H23l8.3-8.3c0.5-0.5,0.5-1.3,0-1.9c-0.5-0.5-1.3-0.5-1.9,0l-8.3,8.3l-8.3-8.3
			c-0.5-0.5-1.3-0.5-1.9,0c-0.5,0.5-0.5,1.3,0,1.9l8.3,8.3H5.6C2.5,46,0,48.5,0,51.6V72c0,3.1,2.5,5.6,5.6,5.6h31
			c3.1,0,5.6-2.5,5.6-5.6V51.6C42.2,48.5,39.7,46,36.6,46z M36.6,75h-31c-1.6,0-3-1.3-3-3V51.6c0-1.6,1.3-3,3-3h31c1.6,0,3,1.3,3,3
			V72C39.6,73.6,38.2,75,36.6,75z"/>
		<circle id="XMLID_42_" cx="29" cy="57.8" r="4.8"/>
		<path id="XMLID_41_" d="M31.8,63.2h-6.1c-2.5,0-4.6,2.1-4.6,4.6v4.6h15.3v-4.6C36.4,65.2,34.4,63.2,31.8,63.2z"/>
		<polygon id="XMLID_33_" points="6.4,53 6.4,72.3 16.4,62.3 		"/>
	</g>
</g>
</svg>
