<svg id="Layer_1" data-name="Layer 1" xmlns="http://www.w3.org/2000/svg" viewBox="0 0 300 90"><defs><style>.cls-1{fill:#1d1d1b;}</style></defs><title>Logos</title><path class="cls-1" d="M61,49a1.26,1.26,0,0,0,.38.06,1.22,1.22,0,0,0,.43-.08.9.9,0,0,0,.56-.62c1.15-2.63,2.3-5.2,3.45-7.73a.63.63,0,0,0,0-.19.35.35,0,0,0-.17-.3l-.14-.08a.84.84,0,0,0-.64-.08,1.28,1.28,0,0,0-.77.69c-1.13,2.49-2.3,5-3.47,7.75a1.36,1.36,0,0,0,0,.2.39.39,0,0,0,.15.28A.51.51,0,0,0,61,49Z"/><path class="cls-1" d="M158.55,50.75a1.74,1.74,0,0,0,.39,0,1.29,1.29,0,0,0,.43-.07.92.92,0,0,0,.55-.62c1.15-2.64,2.31-5.21,3.46-7.73a1.36,1.36,0,0,0,0-.2.38.38,0,0,0-.17-.3.61.61,0,0,0-.14-.07.84.84,0,0,0-.64-.08,1.24,1.24,0,0,0-.77.68c-1.13,2.49-2.3,5.06-3.47,7.76a1.37,1.37,0,0,0,0,.19.37.37,0,0,0,.15.28A.53.53,0,0,0,158.55,50.75Z"/><path class="cls-1" d="M69.46,81.19c-.86,0-2.32-.2-2.62-1.19-1.75-3,1.56-13.36,2.65-16.77.13-.42.24-.75.3-1,.22-.63.66-1.69,1.22-3,.48-1.15,1-2.51,1.6-3.93.62-1.8,1.2-3.3,1.86-4.86,1.65-3.18,3.38-6.41,5-9.52,5.37-10.1,10.44-19.63,13.78-28.38.08-.19,2-4.8,1.73-6.94a.31.31,0,0,0-.09-.18,1.2,1.2,0,0,0-1.16-.18c-2.67.82-20.84,45.06-21,45.48a8.23,8.23,0,0,0-.67,1.24,1,1,0,0,0-.16.66c-.3.72-.58,1.41-.85,2.08h0l-1.27.74L62.64,60a23.42,23.42,0,0,1-4,1.54,3.32,3.32,0,0,1-1.4-.4L57.16,61a1.26,1.26,0,0,1-.12-.5v-.11a1.48,1.48,0,0,1,0-.21,10.55,10.55,0,0,1,2.32-5.48,5.47,5.47,0,0,0,.44-.63,5.44,5.44,0,0,1,.85-1c.58-.6.75-.78.74-1a.32.32,0,0,0-.11-.24.54.54,0,0,0-.3-.44c-.64-.32-1.07,0-1.46.41a8.11,8.11,0,0,1-.55.62,7.21,7.21,0,0,0-.58.66,15.77,15.77,0,0,0-1.52,2.27L55.12,56.5A116.19,116.19,0,0,1,44.37,63c-3,1.48-4.82,1.92-6.08,1.46s-2.16-2.1-3.09-4.16a3.94,3.94,0,0,0-2.45-2.48c-2.14-.56-4.76,1.37-7.52,3.41-2.18,1.6-4.42,3.25-6.48,3.7,0,0-.07,0-.09,0a.82.82,0,0,1-.11-.51,29.2,29.2,0,0,1,.53-3.6,8.89,8.89,0,0,0,.34-3.33.36.36,0,0,0-.06-.2c-1.25-1.67-3.5-1-5.73,0a58.6,58.6,0,0,0-9.24,5.26c.14-.33.3-.66.42-.91.48-1,1.07-2,1.55-2.8.28-.47.51-.87.64-1.13a.42.42,0,0,0,0-.1v-.13a.94.94,0,0,0-.48-.94.53.53,0,0,0-.39-.06c-.44.11-.89.77-1.12,1.15-.13.2-3.14,5-3,7.33a.3.3,0,0,0,.1.2,1.17,1.17,0,0,0,1.38-.06c4.57-3.52,12.43-7.9,13.89-7.39.43.16.48.25.48.52,0,.07-.06.36-.14.79-.78,4.22-1,6-.74,6.43a1.62,1.62,0,0,0,1,.89,1.76,1.76,0,0,0,.56.07,8.91,8.91,0,0,0,4-1.49,30.64,30.64,0,0,0,3.19-2.24c2.15-1.62,4.83-3.63,6-3.63a1.76,1.76,0,0,1,1.19.62,12.84,12.84,0,0,1,1.54,2.54c1.2,2.38,2.44,4.84,7,3.3C47.32,63.63,55.34,58.08,55.4,58l.4-.24a17.33,17.33,0,0,0-.39,1.75v.22a3,3,0,0,0,.34,2L56,62l.06.07a3,3,0,0,0,2,1l.39,0,.44,0,.24,0a4.34,4.34,0,0,0,1.13-.27l.34-.14c.4-.16.77-.32,1.21-.46a14.35,14.35,0,0,0,1.94-1l6.4-4.07-.42,1-.31,1.16c-.21.56-5.92,15.67-4.14,21a4.21,4.21,0,0,0,3.79,2.47,1.34,1.34,0,0,0,1.3-1.11.31.31,0,0,0-.12-.27A1.24,1.24,0,0,0,69.46,81.19ZM78,41.07C85,25,92.45,9.28,93.72,7.09a99.68,99.68,0,0,1-4,10.44c-1.84,4.18-8,16.78-11.67,23.54Z"/><path class="cls-1" d="M80.73,80.4h-.52c-1,0-1.67-.06-1.88-.75-2-4.17.7-12.63,1.86-16.25.19-.59.34-1,.42-1.34.26-.84,2.17-5.52,3.44-8.62.49-1.21.9-2.2,1.09-2.68l2.24-4.58C93,34.8,98.72,23,102.26,13c.08-.19,1.79-4.7,1.52-6.81a.22.22,0,0,0-.09-.17,1.14,1.14,0,0,0-1.13-.2c-2.11.67-23.47,56-23.59,56.52l-.07.24c-.91,3-3.68,12.16-2.15,17a1.3,1.3,0,0,0,.14.32,3.64,3.64,0,0,0,3.47,2,1.28,1.28,0,0,0,1.24-1.07.31.31,0,0,0-.12-.27A1.12,1.12,0,0,0,80.73,80.4Zm7.64-38.88c6-15.25,12.29-29.73,14-33.4,0,.11,0,.22,0,.3-.79,2.58-3,8.45-3,8.51C97.62,21.26,92.05,34,88.37,41.52Z"/><path class="cls-1" d="M96.71,37.32a1.26,1.26,0,0,0-.77.68c-1.12,2.48-2.3,5-3.47,7.76a1.21,1.21,0,0,0,0,.19.34.34,0,0,0,.14.28.71.71,0,0,0,.21.11,1.31,1.31,0,0,0,.39,0,1,1,0,0,0,1-.69c1.15-2.64,2.31-5.21,3.46-7.73a1.36,1.36,0,0,0,0-.2.34.34,0,0,0-.17-.3.61.61,0,0,0-.14-.07A.76.76,0,0,0,96.71,37.32Z"/><path class="cls-1" d="M186.09,61.52c2.11-1.67,3.8-3,4.74-3.67a5.3,5.3,0,0,0,.26,1.18l0,.12a2.11,2.11,0,0,0,.1.3,3.22,3.22,0,0,0,2.25,2c2.93.74,7.42-2.13,8.74-3.18.53-.36,1-.71,1.5-1,.72-.51,1.39-1,2.25-1.54l.07-.06a.58.58,0,0,0,.16-.82l0,0a1.22,1.22,0,0,0-.34-.3.92.92,0,0,0-.85-.07l-.64.45-.64.45c-.39.28-.8.57-1.21.88-2.65,1.94-5.65,4.15-8.83,3.75a2,2,0,0,1-1.21-1.37,2.31,2.31,0,0,1-.09-.74,4.45,4.45,0,0,0,2.94-.4,1.25,1.25,0,0,0,.5-.91,3,3,0,0,0-.08-.85,2.58,2.58,0,0,0-.34-.71,1.61,1.61,0,0,0-1.82-.66,5.54,5.54,0,0,0-1.95,1.59l-.17.18-.09,0a9.25,9.25,0,0,0-1,.49c-.49.31-1.87,1.4-3.79,2.89-4.68,3.65-12.52,9.78-16.41,11.77-.45.23-.85.3-1,.17a.55.55,0,0,1-.17-.56,26.38,26.38,0,0,1,1-5.67c1.46-5.28,1.64-7.09.83-8.43A3,3,0,0,0,169,55.47l0-.09a1.3,1.3,0,0,0,.13-.3,1.6,1.6,0,0,0-.54-1.51,1.66,1.66,0,0,0-1.77-.15,1.39,1.39,0,0,0-.87,1.32v.09a1.43,1.43,0,0,0,.63,1.3l-.79.43L159,60.73a23.06,23.06,0,0,1-3.85,1.41,3.21,3.21,0,0,1-1.35-.36l-.07-.16a.89.89,0,0,1-.12-.45v-.1a1.34,1.34,0,0,1,0-.2,9.36,9.36,0,0,1,2.23-5,6.13,6.13,0,0,0,.42-.58,6.39,6.39,0,0,1,.81-.88c.58-.55.73-.72.72-.92a.27.27,0,0,0-.11-.22.5.5,0,0,0-.28-.42,1.11,1.11,0,0,0-1.39.39c-.16.19-.34.38-.52.56a8.08,8.08,0,0,0-.57.6,15.75,15.75,0,0,0-1.46,2.07l-1.1.6a38.79,38.79,0,0,1-3.58,1.82c-2,.85-3.47,1-4.48.62a2.33,2.33,0,0,1-1.26-1.42l-.1-.28a4.27,4.27,0,0,0-.31-.77,3.42,3.42,0,0,0-.52-1.09.84.84,0,0,0-.28-.25l-.12-.13a1.3,1.3,0,0,0-1.25-.42,5.23,5.23,0,0,0-1.79.66c-.25.1-.51.2-.77.32l-1.77.56c-7.13,2.16-11.75,3.13-13.75,2.87,0-.16,0-.32.07-.47a1.17,1.17,0,0,1,0-.22c.1-.6-.41-.95-.75-1.18l-.23-.17c-.81-.74-3.16.26-6.66,1.89A18.13,18.13,0,0,1,111,61a.49.49,0,0,1,0-.11,9.08,9.08,0,0,1,1.19-1.66c.14-.17.26-.31.34-.42l.74-.95a.79.79,0,0,0,.14-.65,1.25,1.25,0,0,0-.45-.69l-.15-.13-.1-.05a.36.36,0,0,0-.4,0,.35.35,0,0,0-.12.31v.07a.3.3,0,0,0-.08.08,1,1,0,0,1-.39.21l-.16,0-.66.15-.37.1-.31.07c-.56.11-1.09.22-1.65.31a2.21,2.21,0,0,1-.68,0h-.28a5,5,0,0,0,.43-1.7,2.4,2.4,0,0,0-.81-2.05,1.09,1.09,0,0,0-.17-.13,2,2,0,0,0-.89-.36,2.48,2.48,0,0,0-.88,0,2.83,2.83,0,0,0-1.15.5l-1,.47-.07,0-.81.4-1.12.66-1.54,1c-.07,0-7.22,4.88-10.13,5a1.48,1.48,0,0,1-1.11-.39v0a.88.88,0,0,1-.09-.2.86.86,0,0,1-.12-.44v-.11a.86.86,0,0,1,0-.16,40.27,40.27,0,0,1,2.32-4.32c2-3.48,2-3.49,1.64-3.72a1.38,1.38,0,0,0-1.59.32,72.61,72.61,0,0,0-4,7.08,1.34,1.34,0,0,0,0,.2,2.61,2.61,0,0,0,.33,1.83,1.64,1.64,0,0,0,.21.24l.06.06a2.91,2.91,0,0,0,1.93.87,5.08,5.08,0,0,0,.78,0l.24,0a5,5,0,0,0,1.08-.24l.65-.27c.41-.17.88-.37,1.23-.48,1.66-.77,5.49-3.18,7.66-4.57a6.18,6.18,0,0,0-1.35,3.61,1.53,1.53,0,0,0,0,.3,1.08,1.08,0,0,0,0,.19c0,.06,0,.12,0,.18a2.69,2.69,0,0,0,.19.38,1.35,1.35,0,0,0,.2.27l.09.11c1.2,1.12,3.79.24,5.91-2a11.74,11.74,0,0,0,.94-1.17,26,26,0,0,0,4.31-.54l-.1.13a5.54,5.54,0,0,0-1.28,2.25,1.07,1.07,0,0,0,.29.93,1.61,1.61,0,0,0,1.37.29,16.5,16.5,0,0,0,3-1.3c2.12-1,5.67-2.73,6.34-2.3.61.59.53.77.41,1a1.18,1.18,0,0,0-.14.45.59.59,0,0,0,.12.31.44.44,0,0,0,.11.39c.16.17.45.22,1.2.19a61.69,61.69,0,0,0,12.86-2.56l.78-.25a5.71,5.71,0,0,0-.55.55c-1.07,1.24-1.94,2.36-1.79,3.56a.35.35,0,0,0,.06.14,1.14,1.14,0,0,1,.1.19,1.21,1.21,0,0,0,.38.54c1.79,1.15,5.28-2.37,7.1-4.89a3.81,3.81,0,0,0,3.59,2.9c2.14.22,4.56-.91,7.44-2.49-.14.55-.29,1.13-.41,1.75v.19a2.61,2.61,0,0,0,.33,1.83,1.55,1.55,0,0,0,.19.24l.06.07a2.9,2.9,0,0,0,1.94.86,3.39,3.39,0,0,0,.78,0l.23,0a5.05,5.05,0,0,0,1.09-.24l.32-.12c.38-.15.75-.3,1.15-.43a13,13,0,0,0,1.87-.93l7.74-4.68.11,0c.09,0,.34-.1.46-.12l.27.1a2.31,2.31,0,0,1,.28.1,1.57,1.57,0,0,1,.48.41c.26.29.39,1.62.06,3.85a27.41,27.41,0,0,1-.69,2.81c-.73,2.65-1.64,6-1.2,7.93.14.64.7.69,1.19.74l.47.06.17,0C171.44,73,178.46,67.55,186.09,61.52Zm-84.39-3.2a4.07,4.07,0,0,1,.67-.82,6.9,6.9,0,0,0,2.53,1.25l.2.06.25.08-.28.28-.29.25-.11.1a7,7,0,0,1-3.24,1.85h-.26a.33.33,0,0,1-.16-.07c-.24-.22-.25-.33-.25-.34A6.56,6.56,0,0,1,101.7,58.32Zm5-3.35c.26.19.29.7.07,1.28h0a14.56,14.56,0,0,1-.7,1.36,9.1,9.1,0,0,1-2.86-1.07c1.09-1.23,2-2,2.93-1.84A2.89,2.89,0,0,1,106.66,55Zm86.76.62.23.18a.42.42,0,0,1,.6,0,.44.44,0,0,1,.1.26.42.42,0,0,1-.34.42l-.28,0-.6-.06.51-.61-.22-.19ZM168,54.78a.45.45,0,0,1-.38.5.45.45,0,0,1-.5-.38.44.44,0,0,1,.38-.5h.06A.42.42,0,0,1,168,54.78Zm-27.29,1.67c.07.26-.68,1.59-2.46,3.28s-2.94,2.21-3.14,2.12.49-1.4,2.27-3.1a8.91,8.91,0,0,1,3.3-2.31Z"/></svg>