<svg id="Layer_1" data-name="Layer 1" xmlns="http://www.w3.org/2000/svg" viewBox="0 0 300 90"><defs><style>.cls-1,.cls-2{fill:none;stroke-linejoin:round;stroke-width:2.17px;}.cls-1{stroke:#231f20;}.cls-2{stroke:#fcce0d;}.cls-3{fill:#231f20;}.cls-4{fill:#6e6f71;}</style></defs><title>Logos</title><polyline class="cls-1" points="1.74 43.83 19.22 26.32 36.77 43.83"/><circle class="cls-2" cx="19.25" cy="49.8" r="10.22"/><path class="cls-1" d="M3.21,60.48c6.68,8.64,23.44,10,31.87,0"/><path class="cls-3" d="M65.58,60.69H49.5V58.56L61.92,39.75h-12V37.3H65.23v2.13L52.82,58.23H65.58Z"/><path class="cls-3" d="M77.12,61A8.07,8.07,0,0,1,71,58.64a9.15,9.15,0,0,1-2.24-6.57,10.19,10.19,0,0,1,2.08-6.74,7,7,0,0,1,5.61-2.49A6.63,6.63,0,0,1,81.65,45a8.33,8.33,0,0,1,1.92,5.72V52.4H71.49a6.93,6.93,0,0,0,1.56,4.69,5.37,5.37,0,0,0,4.17,1.6,14.07,14.07,0,0,0,5.59-1.18v2.37a14.42,14.42,0,0,1-2.66.87A15.47,15.47,0,0,1,77.12,61ZM76.4,45.06A4.34,4.34,0,0,0,73,46.44a6.29,6.29,0,0,0-1.48,3.8h9.17A5.8,5.8,0,0,0,79.6,46.4,4,4,0,0,0,76.4,45.06Z"/><path class="cls-3" d="M96.09,42.84a10.3,10.3,0,0,1,2.1.19l-.37,2.46a9,9,0,0,0-1.92-.24A4.68,4.68,0,0,0,92.26,47a6.29,6.29,0,0,0-1.51,4.3v9.41H88.09V43.16h2.2l.3,3.24h.13a7.69,7.69,0,0,1,2.35-2.64A5.37,5.37,0,0,1,96.09,42.84Z"/><path class="cls-3" d="M116.61,51.91a9.65,9.65,0,0,1-2.16,6.69,7.6,7.6,0,0,1-6,2.41,8,8,0,0,1-4.18-1.1,7.31,7.31,0,0,1-2.81-3.17,10.94,10.94,0,0,1-1-4.83,9.65,9.65,0,0,1,2.15-6.68,7.56,7.56,0,0,1,6-2.39,7.43,7.43,0,0,1,5.85,2.44A9.68,9.68,0,0,1,116.61,51.91Zm-13.36,0A8.31,8.31,0,0,0,104.59,57a5.33,5.33,0,0,0,7.91,0,8.3,8.3,0,0,0,1.35-5.13,8.14,8.14,0,0,0-1.35-5.08,4.74,4.74,0,0,0-4-1.74,4.69,4.69,0,0,0-3.94,1.71A8.3,8.3,0,0,0,103.25,51.91Z"/><path class="cls-4" d="M135,37.3H138l-8.43,23.39h-2.69L118.45,37.3h2.88l5.37,15.14a40.86,40.86,0,0,1,1.47,5.07,43.29,43.29,0,0,1,1.51-5.17Z"/><path class="cls-4" d="M150.57,60.69l-.53-2.5h-.13a7.45,7.45,0,0,1-2.62,2.24A7.94,7.94,0,0,1,144,61,5.89,5.89,0,0,1,140,59.67a4.9,4.9,0,0,1-1.48-3.83q0-5.31,8.5-5.56l3-.1V49.09a4.43,4.43,0,0,0-.89-3.05,3.67,3.67,0,0,0-2.84-1,11.67,11.67,0,0,0-5,1.34l-.81-2a12.82,12.82,0,0,1,5.93-1.5A6.68,6.68,0,0,1,151,44.26a5.81,5.81,0,0,1,1.51,4.46v12Zm-6-1.87a5.36,5.36,0,0,0,3.89-1.36,5,5,0,0,0,1.42-3.81V52.07l-2.66.11a9.66,9.66,0,0,0-4.57,1,3,3,0,0,0-1.4,2.72,2.71,2.71,0,0,0,.88,2.19A3.62,3.62,0,0,0,144.57,58.82Z"/><path class="cls-4" d="M165,61a7.47,7.47,0,0,1-5.89-2.34A9.62,9.62,0,0,1,157,52c0-2.94.7-5.2,2.12-6.8a7.62,7.62,0,0,1,6-2.4,12.16,12.16,0,0,1,2.53.27,8.06,8.06,0,0,1,2,.64L168.88,46a12.06,12.06,0,0,0-1.92-.58,8.78,8.78,0,0,0-1.84-.23q-5.34,0-5.34,6.81a8.16,8.16,0,0,0,1.3,5A4.53,4.53,0,0,0,165,58.69a11.75,11.75,0,0,0,4.49-.94V60.1A9.54,9.54,0,0,1,165,61Z"/><path class="cls-4" d="M184.39,60.69l-.53-2.5h-.13a7.35,7.35,0,0,1-2.61,2.24,8,8,0,0,1-3.26.58,5.89,5.89,0,0,1-4.09-1.34,4.93,4.93,0,0,1-1.48-3.83q0-5.31,8.5-5.56l3-.1V49.09a4.48,4.48,0,0,0-.88-3.05,3.69,3.69,0,0,0-2.84-1,11.6,11.6,0,0,0-5,1.34l-.82-2a12.82,12.82,0,0,1,5.94-1.5,6.64,6.64,0,0,1,4.64,1.39,5.81,5.81,0,0,1,1.52,4.46v12Zm-6-1.87a5.36,5.36,0,0,0,3.89-1.36,5,5,0,0,0,1.42-3.81V52.07l-2.66.11a9.59,9.59,0,0,0-4.56,1,3,3,0,0,0-1.4,2.72,2.73,2.73,0,0,0,.87,2.19A3.62,3.62,0,0,0,178.39,58.82Z"/><path class="cls-4" d="M203.83,60.69V49.35a4.57,4.57,0,0,0-1-3.2,4,4,0,0,0-3-1.06,5.07,5.07,0,0,0-4,1.49q-1.27,1.48-1.28,4.91v9.2h-2.65V43.16H194l.43,2.4h.13a5.29,5.29,0,0,1,2.29-2,7.33,7.33,0,0,1,3.27-.71,6.68,6.68,0,0,1,4.77,1.52q1.6,1.53,1.6,4.89V60.69Z"/><path class="cls-4" d="M219,61a7.49,7.49,0,0,1-5.9-2.34A9.67,9.67,0,0,1,211,52c0-2.94.71-5.2,2.12-6.8a7.65,7.65,0,0,1,6-2.4,12.09,12.09,0,0,1,2.53.27,8.06,8.06,0,0,1,2,.64L222.82,46a12.72,12.72,0,0,0-1.92-.58,8.94,8.94,0,0,0-1.84-.23q-5.34,0-5.35,6.81A8.1,8.1,0,0,0,215,57a4.51,4.51,0,0,0,3.86,1.73,11.83,11.83,0,0,0,4.5-.94V60.1A9.57,9.57,0,0,1,219,61Z"/><path class="cls-4" d="M226.88,43.16h2.85l3.84,10a38.16,38.16,0,0,1,1.57,4.94h.13q.21-.83.87-2.79t4.34-12.15h2.85l-7.53,20a9.88,9.88,0,0,1-2.62,4.2,5.55,5.55,0,0,1-3.67,1.24,10.77,10.77,0,0,1-2.4-.27V66.16a9.08,9.08,0,0,0,2,.19q2.73,0,3.9-3.07l1-2.49Z"/></svg>