<?xml version="1.0" encoding="utf-8"?>
<!-- Generator: Adobe Illustrator 19.0.0, SVG Export Plug-In . SVG Version: 6.00 Build 0)  -->
<svg version="1.1" id="Layer_1" xmlns="http://www.w3.org/2000/svg" xmlns:xlink="http://www.w3.org/1999/xlink" x="0px" y="0px"
	 viewBox="0 0 383 115" style="enable-background:new 0 0 383 115;" xml:space="preserve">
<style type="text/css">
	.st0{fill:#0C86BC;}
</style>
<g id="XMLID_104_">
	<g id="XMLID_105_">
		<path id="XMLID_79_" class="st0" d="M159.4,16.3c0,0.3-0.1,0.6-0.1,0.9c0,8.8,0,17.6,0,26.4c0,0.3,0,0.6,0,1.1
			c0.3-0.3,0.4-0.3,0.5-0.4c3-5.4,7.7-8.2,13.7-9c3.9-0.5,7.7-0.4,11.4,1.1c5.5,2.3,8.6,6.6,9.8,12.3c0.4,1.9,0.5,3.8,0.5,5.7
			c0.1,9.6,0,19.1,0,28.7c0,1.1,0,1.1-1.1,1.1c-3.2,0-6.3,0-9.5,0c-1.2,0-1.2,0-1.2-1.2c0-8.6,0-17.1,0-25.7c0-2.5-0.4-4.9-1.8-7
			c-1.7-2.6-4.2-3.9-7.2-4.3c-3.3-0.4-6.4,0.1-9.1,1.9c-3.3,2.2-5.1,5.5-5.6,9.3c-0.2,1.2-0.2,2.5-0.2,3.7c0,7.3,0,14.7,0,22
			c0,0.8-0.2,1.1-1,1.1c-3.2,0-6.3,0-9.5,0c-1.1,0-1.1,0-1.1-1.1c0-21.8,0-43.6,0-65.5c0-0.4,0-0.8-0.1-1.3
			C151.6,16.3,155.5,16.3,159.4,16.3z"/>
		<path id="XMLID_77_" class="st0" d="M0,58.2c0.3-6.6,2.7-12.4,7.6-17c3.3-3,7.2-4.9,11.6-5.6c6-1,11.8-0.6,17.4,1.8
			c3.3,1.4,6.1,3.5,8.4,6.5c-2.3,2.2-4.6,4.4-6.9,6.6c-1.2-0.9-2.2-1.9-3.4-2.6c-4.3-2.7-9-3.4-13.8-2c-4,1.1-6.7,3.8-8.1,7.7
			c-1.9,5.4-1.7,10.7,1.5,15.6c2.3,3.5,5.8,5.3,10.1,5.5c3.4,0.1,6.8-0.3,9.8-2.1c1.5-0.9,2.9-2.2,4.5-3.4c2.2,1.8,4.5,3.7,7,5.8
			c-0.5,0.6-0.9,1.2-1.4,1.7c-3.6,4.1-8.3,6.5-13.6,7.5c-6.3,1.1-12.5,0.8-18.3-2.3C5.9,78.5,2.1,73.1,0.6,66
			c-0.3-1.6-0.4-3.3-0.6-4.9C0,60.8,0,58.6,0,58.2z"/>
		<g id="XMLID_80_">
			<path id="XMLID_111_" class="st0" d="M94.6,53.1c0-1.4-0.1-2.7-0.3-4.1c-0.9-6.4-4.6-10.5-10.6-12.7c-4.5-1.6-9.3-1.6-14-1.2
				c-5.7,0.5-10.9,2.7-15.9,5.4c-0.5,0.3-0.6,0.5-0.3,1c1,1.9,2,3.8,3,5.7c0.3,0.5,0.5,1,0.9,1.6c0.4-0.2,0.8-0.4,1.1-0.6
				c5.1-2.8,10.4-4.5,16.3-3.7c5.3,0.7,8.3,4.1,8.4,9.3c0,0.8-0.2,1.1-1,1.1c-4.1,0-8.1-0.1-12.2,0c-3,0-5.9,0.2-8.8,1
				c-7.9,2.2-12,8.3-10.7,16.2c0.9,5.6,4.3,9.3,9.5,11.3c3.4,1.3,6.9,1.4,10.5,1c3.8-0.4,7.3-1.6,10.2-4c0.8-0.7,1.5-1.4,2.4-2.3
				c0,0.4,0,0.7,0.1,1c0,1.3,0,2.7,0,4c0,0.7,0.2,0.9,0.9,0.9c3.1,0,6.3,0,9.4,0c1.2,0,1.2,0,1.2-1.2C94.7,73,94.7,63.1,94.6,53.1z
				 M83.1,67.6c-0.4,2.6-2.1,4.4-4.2,5.8c-2.4,1.6-5,2.3-7.8,2.4c-1.9,0.1-3.8,0-5.6-0.7c-4.6-1.8-5.1-6.9-3.3-9.6
				c1.1-1.7,2.9-2.2,4.8-2.5c1.6-0.2,3.2-0.3,4.7-0.3c1.6-0.1,3.1,0,4.7,0c1.9,0,3.8,0,5.6,0c1.1,0,1.1,0,1.1,1.2
				C83.2,65.1,83.3,66.4,83.1,67.6z"/>
		</g>
		<path id="XMLID_109_" class="st0" d="M273.4,59.8c-0.2,6-1.7,11.4-5.5,16.1c-3.8,4.7-8.8,7.3-14.7,8.3c-4.8,0.8-9.6,0.7-14.3-0.7
			c-9.2-2.8-14.8-9-16.6-18.5c-0.9-5-0.6-10,1.2-14.7c2.6-6.8,7.4-11.4,14.3-13.6c7.6-2.4,15.1-2.3,22.4,1.2
			c6.9,3.3,11,8.9,12.5,16.4C273,56,273.1,57.9,273.4,59.8z M233.5,59.9c0.1,1,0.1,2,0.3,3c0.6,3.8,2.3,7,5.4,9.3
			c3,2.2,6.4,2.9,10.1,2.5c5.2-0.6,8.8-3.3,11-8c1.5-3.2,1.6-6.7,1-10.1c-0.7-4.3-2.9-7.8-6.7-10c-2.7-1.5-5.6-1.9-8.6-1.6
			c-3.5,0.4-6.4,1.7-8.7,4.4C234.6,52.4,233.6,55.9,233.5,59.9z"/>
		<path id="XMLID_68_" class="st0" d="M104.9,69.9c1.3,0.8,2.4,1.6,3.6,2.3c4.1,2.3,8.6,3.5,13.4,3.5c1.7,0,3.3-0.2,4.8-1.1
			c2.6-1.5,3.1-5.2,0.6-6.9c-1.5-1.1-3.3-1.8-5.1-2.5c-2.9-1.1-5.9-1.9-8.8-2.9c-2.9-1-5.4-2.5-7.4-4.8c-1.4-1.6-2.2-3.5-2.4-5.5
			c-0.5-4.3,0-8.4,3.2-11.7c2.3-2.4,5.1-3.8,8.3-4.5c8.4-1.8,16.2-0.5,23.6,3.8c0.7,0.4,0.8,0.7,0.4,1.4c-1.3,2.4-2.5,4.9-3.8,7.5
			c-0.9-0.4-1.7-0.8-2.5-1.2c-3.5-1.8-7.2-2.9-11.1-3.2c-1.7-0.1-3.4,0.1-5,0.8c-1.5,0.6-2.4,1.7-2.5,3.4c-0.1,1.6,0.5,3,2,3.7
			c1.7,0.8,3.4,1.5,5.1,2.1c3.4,1.2,6.9,2.3,10.3,3.6c4.1,1.7,7.3,4.6,8.2,9.2c1.4,7-1.2,12.7-8.1,15.8c-3.1,1.4-6.3,2-9.7,2.1
			c-5.5,0.1-10.7-0.8-15.6-3.2c-1.8-0.9-3.4-2.1-5-3.2c-0.2-0.1-0.4-0.6-0.3-0.8C102.4,74.9,103.7,72.4,104.9,69.9z"/>
		<path id="XMLID_67_" class="st0" d="M203.4,35.8c3.9,1.8,7.7,1.8,11.6-0.1c0,0.2,0,0.5,0,0.7c0,15.6,0,31.1,0,46.7
			c0,0.8-0.2,1.1-1,1.1c-3.2,0-6.5,0-9.7,0c-0.7,0-0.9-0.2-0.9-0.9c0-15.7,0-31.3,0-47C203.4,36.1,203.4,36,203.4,35.8z"/>
		<path id="XMLID_64_" class="st0" d="M215.7,24.6c-0.1,3-1.7,5.6-4.3,6.5c-4.2,1.5-8.3-1.1-8.9-5.4c-0.4-2.8,0.3-5.2,2.7-6.9
			c3.4-2.5,9.2-1.2,10.3,4C215.6,23.4,215.7,24,215.7,24.6z"/>
	</g>
</g>
</svg>
