<svg xmlns="http://www.w3.org/2000/svg" width="62.23" height="16.373" viewBox="0 0 62.23 16.373"><path d="M7368.4,859.476c-.37-.044-.74-.081-1.11-.109-1.1-.081-2.192-.162-3.289-.227-.349-.02-.769-.135-.923.4-.738,2.525-2.568,4.115-4.711,5.412q-1.379.834-2.829,1.543c-.217.106-.754.327-.994.182-.325-.2-.252-.769-.14-1.06a13.335,13.335,0,0,1,3.665-4.675c.411-.389.826-.773,1.237-1.16.143-.135.409-.291.405-.5a.278.278,0,0,0-.308-.285c-.326,0-.657.043-.982.065-.653.044-1.307.095-1.958.17-1.759.2-3.515.444-5.272.672a.751.751,0,0,0-.777.74,6.478,6.478,0,0,1-1.79,3.465c-1.08,1.105-2.239,2.134-3.366,3.193a1.793,1.793,0,0,1-.361.271c-.578.316-1.02.089-.947-.564a8.774,8.774,0,0,1,.5-2.075,8.306,8.306,0,0,1,2.284-3.325c.173-.154.759-.722.362-.9a1.4,1.4,0,0,0-.766.057c-1.407.269-2.8.6-4.215.832-.625.1-.757.516-.9.99a10.108,10.108,0,0,1-4.052,5.151,1.8,1.8,0,0,1-.484.29c-.189.059-.464.144-.634,0a.744.744,0,0,1-.177-.7,7.535,7.535,0,0,1,2.649-4.1c.161-.154.621-.561.3-.772-.186-.121-.476-.007-.674.025-1.711.272-3.42.559-5.133.824a2.081,2.081,0,0,0-1.411.781,10.933,10.933,0,0,1-5.286,3.328,9.547,9.547,0,0,1-3.618.8c-.382-.028-.982-.154-1.068-.387a1.59,1.59,0,0,1,.234-1.225,9.362,9.362,0,0,1,4.924-3.792c1.6-.55,3.21-.2,4.82-.053a8.3,8.3,0,0,0,1.664.046c1.019-.117,2.03-.3,3.042-.466.12-.02.409-.024.441-.181.046-.229-.415-.287-.551-.329q-.836-.26-1.674-.517c-1.1-.341-2.208-.683-3.307-1.045a1.26,1.26,0,0,1-.588-.42c-.182-.33.353-.637.6-.7a10.89,10.89,0,0,1,8.493,1.253,3.95,3.95,0,0,0,3.263.6c.929-.237,1.87-.424,2.812-.6.465-.089.932-.177,1.4-.269a3.664,3.664,0,0,0,.612-.1c.183-.07.379-.355.1-.452-2.2-.765-4.412-1.52-6.61-2.3a4.538,4.538,0,0,1-1.2-.621.824.824,0,0,1-.369-.705c.02-.253.341-.413.576-.437a12.818,12.818,0,0,1,4.6.1,10.432,10.432,0,0,1,5.422,3.289,1.355,1.355,0,0,0,1.384.457c1.828-.259,3.664-.467,5.5-.7.144-.018.405-.126.316-.318-.075-.161-.43-.253-.577-.323q-.683-.326-1.339-.708a18.785,18.785,0,0,1-2.463-1.721,20.693,20.693,0,0,1-1.562-1.433,5.887,5.887,0,0,1-.783-.961c-.39-.616-.218-.954.5-.89a19.3,19.3,0,0,1,3.016.46c.98.249,1.913.682,2.874,1.014a13,13,0,0,1,5.326,4.078,2.063,2.063,0,0,0,1.624.829c1.129.013,2.256.143,3.385.211a.517.517,0,0,0,.255-.052c.112-.06.1-.041.049-.15-.078-.17-.272-.25-.422-.34-.213-.128-.418-.272-.62-.418a11.834,11.834,0,0,1-1.107-.91,14.79,14.79,0,0,1-1.88-2.139c-.326-.446-.612-.916-.925-1.37-.223-.325-.563-.985-.393-1.394.189-.454.8-.21,1.112-.086a13.285,13.285,0,0,1,6.921,5.56,4.57,4.57,0,0,0,3.388,2.428,12.985,12.985,0,0,1,2.213.671c.266.1.534.19.8.284.118.041.278.12.4.061.163-.075.035-.221-.054-.329a25.587,25.587,0,0,1-2.142-2.624c-.788-1.274-1.391-2.663-2.062-4.007-.219-.44-.125-1.025.451-1.095a.6.6,0,0,1,.559.148c.17.155.344.308.517.462.354.314.709.628,1.061.945.685.617,1.356,1.25,1.977,1.934a12.285,12.285,0,0,1,3.249,6.111,1.829,1.829,0,0,0,.653.84c.45.4.914.787,1.374,1.176q.354.3.7.6c.165.145.361.333.039.459-.151.06-.221-.018-.335-.109q-.409-.326-.815-.655c-.533-.431-1.063-.865-1.6-1.3-.357-.29-.617-.275-.934.127a8.5,8.5,0,0,1-6.388,3.169c-.343.026-.608-.022-.757-.359a.686.686,0,0,1,.112-.735,6.278,6.278,0,0,1,1.65-1.5c1.162-.6,2.421-1.011,3.638-1.508.235-.1.668-.256.364-.541a1.8,1.8,0,0,0-.637-.284q-.711-.26-1.424-.515-1.408-.5-2.821-1c-.381-.134-.6-.026-.762.394-1.44,3.748-4.617,5.4-8.119,6.622a.872.872,0,0,1-.857-.232c-.221-.211-.112-.582,0-.836a8.872,8.872,0,0,1,3.022-3.735c.631-.436,1.255-.882,1.877-1.331l.96-.7c.158-.114.32-.221.473-.341.1-.08.279-.149.333-.276.152-.365-.84-.342-1.013-.367C7369.2,859.579,7368.8,859.524,7368.4,859.476Zm-15.514-6.549a5.17,5.17,0,0,0-.966-.13c-.206-.005-.419.074-.437.309-.031.42.531.746.79,1,.388.378.79.742,1.207,1.088a16.271,16.271,0,0,0,4.973,2.859c.116.04.413.157.5.02.1-.166-.245-.377-.339-.456s-.2-.119-.276-.2c-.33-.319-1.033-.552-.7-1.1.317-.528.894-.094,1.315.081.368.153.717.347,1.067.536a1.509,1.509,0,0,0,.554.251.278.278,0,0,0,.273-.122c.087-.146-.025-.222-.126-.325a8.419,8.419,0,0,0-1.361-1.256A19.777,19.777,0,0,0,7352.888,852.927Zm-24.914,12.2a.371.371,0,0,1-.4-.248.573.573,0,0,1,.047-.5c.089-.139.278-.185.426-.246.395-.166.8-.313,1.2-.467.156-.06.509-.126.615-.262a.251.251,0,0,0-.147-.371c-3.36-.415-6.27,1.919-7.614,4-.3.467-.172.653.418.685a4.232,4.232,0,0,0,.564-.03,16.563,16.563,0,0,0,5.454-1.776,9.164,9.164,0,0,0,1.492-1.038c.179-.129.209-.4-.08-.4a1.937,1.937,0,0,0-.6.212c-.354.121-.708.244-1.062.366A1.284,1.284,0,0,1,7327.974,865.123Zm26.937,1.025c.132.09.317-.016.463-.106,1.566-.966,3.205-1.84,4.666-2.948a6.344,6.344,0,0,0,1.275-1.415c.2-.273.384-.552.58-.825.091-.127.194-.2.126-.364a.313.313,0,0,0-.286-.21c-.161.018-.356.316-.462.428-.321.34-.635.686-.972,1.01a11.166,11.166,0,0,1-.875.746c-.2.157-.562.55-.81.278-.333-.366.238-.938.485-1.182.458-.451.98-.844,1.418-1.315a.426.426,0,0,0,.064-.608c-.157-.186-.346.006-.48.131-1.35,1.253-2.687,2.528-3.936,3.88a6.443,6.443,0,0,0-.893,1.361c-.13.243-.253.491-.4.728-.063.105-.12.159-.064.284A.289.289,0,0,0,7354.911,866.147Zm16.936-4.218a.135.135,0,0,0-.026-.083c-.08-.107-.236-.029-.322.037-.158.12-.31.248-.464.372-.308.249-.617.5-.946.717a10.39,10.39,0,0,1-1.481.8.512.512,0,0,1-.48-.136.553.553,0,0,1,.07-.494,3.336,3.336,0,0,1,.635-.638c.326-.257.657-.506.989-.756l.5-.375a2.11,2.11,0,0,0,.455-.354c.185-.268-.177-.362-.371-.289a2.225,2.225,0,0,0-.53.337c-1.051.794-2.1,1.59-3.138,2.4a8.221,8.221,0,0,0-2.2,2.833c-.074.145-.209.441-.045.565a.635.635,0,0,0,.5.019,14.972,14.972,0,0,0,4.487-2.337,18,18,0,0,0,2.114-2.179A.892.892,0,0,0,7371.847,861.929Zm-8.5-9.506c-.163.026-.378.031-.365.244a.945.945,0,0,0,.193.378q.219.355.449.7c.3.458.625.906.968,1.337a11.862,11.862,0,0,0,4.2,3.429c.2.094.409.177.617.255.1.038.355.126.4-.008.077-.2-.588-.641-.715-.768-.426-.424-.855-.845-1.247-1.3a.341.341,0,0,1,.025-.407.327.327,0,0,1,.388-.144c.156.029.275.177.435.2.306.046.155-.2.036-.322q-.509-.528-1.068-1a15.309,15.309,0,0,0-2.391-1.66A17.6,17.6,0,0,0,7363.347,852.424Zm10.274,1.146c-.1.024-.16.1-.109.246.189.532.391,1.06.616,1.578a16.745,16.745,0,0,0,3.441,4.867c.163.17.42.087.3-.163a4.753,4.753,0,0,1-.318-.6.776.776,0,0,1-.022-.556c.155-.263.541.024.693.158a5.614,5.614,0,0,1,.613.809c.151.2.271.48.493.608.152.087.228.048.19-.125a3.182,3.182,0,0,0-.266-.755,13.3,13.3,0,0,0-1.661-2.481,21.374,21.374,0,0,0-2.046-2.1c-.365-.33-.737-.653-1.112-.971-.187-.157-.369-.332-.567-.474A.308.308,0,0,0,7373.621,853.569Zm-30.074,2.227a3.477,3.477,0,0,0-.874.029l-.933.033a3.729,3.729,0,0,0-.922.041.35.35,0,0,0-.2.467c.093.142.451.213.6.276q.712.291,1.426.578,1.411.568,2.829,1.118c.351.135.559.113.359-.406s.288-.559.6-.454c.437.148.864.325,1.29.5.267.112.618.4.926.307s.067-.26-.077-.386a6.033,6.033,0,0,0-.575-.444,9.311,9.311,0,0,0-2.593-1.152C7344.792,856.121,7344.167,855.965,7343.547,855.8Zm.838,10.7a.4.4,0,0,0,.058.373c.229.241.575-.049.748-.211.316-.3.646-.582.968-.874.636-.576,1.265-1.162,1.849-1.791a7.273,7.273,0,0,0,.813-1.106c.123-.2.242-.4.363-.593.109-.178.276-.319.114-.518-.087-.107-.07-.088-.173-.013a3.62,3.62,0,0,0-.418.431c-.262.272-.524.544-.8.8-.232.211-.888.1-.7-.314.058-.131.175-.262.248-.39.056-.1.427-.672.205-.745-.148-.049-.406.249-.5.339a10.6,10.6,0,0,0-1.68,2.076,8.364,8.364,0,0,0-.608,1.216q-.13.327-.233.665A6.938,6.938,0,0,0,7344.385,866.491Zm-7.632-4.938.018,0c.278.054.52.234.811.087.34-.171-.083-.314-.243-.374a4.935,4.935,0,0,1-.828-.355c-.31-.187-.188-.527.068-.7.161-.108.244-.057.414-.013.218.057.444.093.665.144l.468.108c.1.022.3.106.4.07.216-.079,0-.267-.113-.324a4.179,4.179,0,0,0-.461-.145c-.451-.159-.91-.3-1.375-.412a12.227,12.227,0,0,0-3.225-.359c-.276.007-.552.025-.826.052a1.631,1.631,0,0,0-.735.169c-.562.374.557.609.788.687l1.4.468.187.062,1.643.546A7.943,7.943,0,0,0,7336.753,861.554Zm40.993,1.979a.155.155,0,0,0-.074-.052c-.165-.067-.433.123-.574.19l-.932.441c-.609.29-1.216.587-1.812.9a3.97,3.97,0,0,0-.91.834.309.309,0,0,0,.264.52l.059-.007a10.424,10.424,0,0,0,2.787-.667,6.487,6.487,0,0,0,1.256-.689c.146-.1.5-.293.562-.466.105-.284-.216-.15-.334-.091-.157.079-.311.164-.474.228-.36.143-.828.6-1.094.151-.288-.49.376-.6.675-.823C7377.229,863.941,7377.842,863.685,7377.746,863.532Zm-37.851.608a.221.221,0,0,0-.183-.151c-.072,0-.152.091-.2.137-.122.113-.221.247-.344.358a.529.529,0,0,1-.675.054c-.121-.066-.38-.236-.485-.069q-.464.737-.919,1.481-.226.372-.45.746c-.091.154-.354.449-.176.625a.316.316,0,0,0,.3.063c.174-.048.234-.172.346-.293.153-.166.342-.311.508-.465.576-.531,1.147-1.066,1.705-1.616a3.364,3.364,0,0,0,.44-.58c.053-.082.15-.172.136-.27A.155.155,0,0,0,7339.9,864.14Z" transform="translate(-7321.571 -851.839)"/></svg>