<svg id="Layer_1" data-name="Layer 1" xmlns="http://www.w3.org/2000/svg" viewBox="0 0 300 90"><defs><style>.cls-1{fill:#020202;}.cls-2{fill:#b22a26;}</style></defs><polygon class="cls-1" points="63.73 17.59 80.54 74.69 93.35 74.69 103.49 43.21 114.43 74.59 127.51 74.59 143.79 17.64 128.58 17.64 120.57 47.51 110.7 17.64 97.09 17.64 87.75 46.44 80.81 17.59 63.73 17.59"/><polygon class="cls-2" points="143.79 37.13 138.72 56.07 158.47 56.07 158.47 74.56 177.42 74.56 177.42 55.81 196.63 55.81 196.63 37.13 177.42 37.13 177.42 17.64 158.47 17.64 158.47 37.13 143.79 37.13"/><polygon class="cls-1" points="202.44 17.69 202.44 74.56 241.4 74.56 241.4 59.81 220.19 59.81 220.19 17.64 202.44 17.69"/></svg>