<svg id="Layer_1" data-name="Layer 1" xmlns="http://www.w3.org/2000/svg" viewBox="0 0 300 90"><defs><style>.cls-1{fill:#3476bb;}</style></defs><path class="cls-1" d="M76.25,42.3A8.17,8.17,0,0,0,70,44.93a9.62,9.62,0,0,0-2.42,6.81A9.79,9.79,0,0,0,70,58.67a8.17,8.17,0,0,0,6.3,2.63q5.73,0,8.6-3.76l4.84,4A14.14,14.14,0,0,1,84,66.32,19,19,0,0,1,75.83,68a17,17,0,0,1-8.39-2,14.26,14.26,0,0,1-5.71-5.71,17.21,17.21,0,0,1-2-8.45,17.3,17.3,0,0,1,2.06-8.54,14.41,14.41,0,0,1,5.74-5.74,17.1,17.1,0,0,1,8.45-2A19.14,19.14,0,0,1,83.75,37a14.2,14.2,0,0,1,5.59,4.33l-4.72,4.48A10.83,10.83,0,0,0,76.25,42.3Z"/><path class="cls-1" d="M114,67.69V63.81a10.52,10.52,0,0,1-4.3,3.17,15.94,15.94,0,0,1-6,1.07,12.94,12.94,0,0,1-5.89-1.28,9.39,9.39,0,0,1-3.91-3.56,9.56,9.56,0,0,1-1.38-5.08,8.53,8.53,0,0,1,3.17-7q3.17-2.53,9-2.6H114v-.83a5.37,5.37,0,0,0-1.85-4.36,8.14,8.14,0,0,0-5.38-1.56,18.52,18.52,0,0,0-9.5,3l-2.81-5.38a35.63,35.63,0,0,1,6.85-3,25.34,25.34,0,0,1,7.2-.92q6.21,0,9.65,3a10.66,10.66,0,0,1,3.49,8.36l.06,20.91Zm-2.75-7.2A5.48,5.48,0,0,0,114,56.58V53.71h-8.06a8.7,8.7,0,0,0-4.57.93,3.29,3.29,0,0,0-1.47,3,3.9,3.9,0,0,0,1.52,3.23,6.56,6.56,0,0,0,4.16,1.2A10.09,10.09,0,0,0,111.26,60.49Z"/><path class="cls-1" d="M143.32,42.24a15.32,15.32,0,0,0-4.57-.78,6.14,6.14,0,0,0-3.14.69,2.31,2.31,0,0,0-1.16,2.12,2.5,2.5,0,0,0,1.46,2.3,23.1,23.1,0,0,0,4.63,1.7,44.92,44.92,0,0,1,5.5,2,10.27,10.27,0,0,1,3.73,2.92,7.83,7.83,0,0,1,1.59,5.11,8.22,8.22,0,0,1-3.59,7.17,15.31,15.31,0,0,1-9,2.51,23.08,23.08,0,0,1-7.23-1.16,17.23,17.23,0,0,1-6-3.32l2.69-5.44a15.8,15.8,0,0,0,5.14,2.9A17.11,17.11,0,0,0,139.05,62a6.76,6.76,0,0,0,3.43-.75A2.43,2.43,0,0,0,143.77,59a2.7,2.7,0,0,0-1.5-2.51,26.31,26.31,0,0,0-4.84-1.85,42.52,42.52,0,0,1-5.25-1.88A9.59,9.59,0,0,1,128.65,50a7.68,7.68,0,0,1-1.49-4.93,8.32,8.32,0,0,1,3.43-7.2,14.41,14.41,0,0,1,8.64-2.48,22.46,22.46,0,0,1,6.24.89,19.74,19.74,0,0,1,5.47,2.51l-2.81,5.62A22.86,22.86,0,0,0,143.32,42.24Z"/><path class="cls-1" d="M184,38.74q3.17,3.32,3.17,9V67.69h-7.83V50a7.23,7.23,0,0,0-1.91-5.29,7,7,0,0,0-5.2-1.94,8,8,0,0,0-6.16,2.63A9.56,9.56,0,0,0,163.78,52V67.69H156V23.36h7.76V41.82q3.28-6.27,11.54-6.39A11.41,11.41,0,0,1,184,38.74Z"/><path class="cls-1" d="M199.28,25.45a4.66,4.66,0,0,1,1.25,3.34,4.6,4.6,0,0,1-1.25,3.29,4.49,4.49,0,0,1-6.34,0,4.6,4.6,0,0,1-1.25-3.29,4.66,4.66,0,0,1,1.25-3.34,4.47,4.47,0,0,1,6.34,0Z"/><path class="cls-1" d="M192.29,35.73a7.51,7.51,0,0,0,7.76,0v32h-7.76Z"/><path class="cls-1" d="M235.93,43.22a14.61,14.61,0,0,0-5.91-5.7,18.21,18.21,0,0,0-8.76-2,18.51,18.51,0,0,0-8.84,2,14.65,14.65,0,0,0-5.95,5.7,16.66,16.66,0,0,0-2.12,8.46,16.91,16.91,0,0,0,2.12,8.54A14.62,14.62,0,0,0,212.42,66a18.51,18.51,0,0,0,8.84,2A18.21,18.21,0,0,0,230,66a14.58,14.58,0,0,0,5.91-5.74,16.81,16.81,0,0,0,2.12-8.54A16.56,16.56,0,0,0,235.93,43.22Zm-8.21,15.57a8.47,8.47,0,0,1-6.46,2.69,8.57,8.57,0,0,1-6.57-2.69,9.84,9.84,0,0,1-2.51-7,9.84,9.84,0,0,1,2.51-7,8.57,8.57,0,0,1,6.57-2.69,8.47,8.47,0,0,1,6.46,2.69,9.84,9.84,0,0,1,2.51,7A9.84,9.84,0,0,1,227.72,58.79Z"/></svg>