<svg id="Layer_1" data-name="Layer 1" xmlns="http://www.w3.org/2000/svg" viewBox="0 0 300 90"><defs><style>.cls-1{fill:#1d1d1b;}</style></defs><path class="cls-1" d="M106,49.41a1.84,1.84,0,0,0,.41.05,1.17,1.17,0,0,0,.46-.08,1,1,0,0,0,.6-.67c1.24-2.84,2.49-5.6,3.73-8.33l0-.2a.42.42,0,0,0-.19-.33l-.15-.08a.88.88,0,0,0-.69-.09,1.38,1.38,0,0,0-.83.74c-1.22,2.69-2.48,5.45-3.74,8.36a1.49,1.49,0,0,0,0,.21.43.43,0,0,0,.16.3A1,1,0,0,0,106,49.41Z"/><path class="cls-1" d="M211.11,51.28a1.92,1.92,0,0,0,.41,0,1.26,1.26,0,0,0,.47-.08,1,1,0,0,0,.6-.67c1.24-2.84,2.49-5.6,3.72-8.33l0-.2a.42.42,0,0,0-.19-.33l-.15-.08a.93.93,0,0,0-.69-.09,1.38,1.38,0,0,0-.83.74c-1.22,2.68-2.48,5.45-3.74,8.36a.74.74,0,0,0,0,.21.38.38,0,0,0,.15.3A1,1,0,0,0,211.11,51.28Z"/><path class="cls-1" d="M115.11,84.08c-.92,0-2.5-.22-2.81-1.28-1.9-3.24,1.67-14.4,2.84-18.07.14-.46.26-.82.33-1.06.23-.68.71-1.82,1.31-3.28.52-1.24,1.13-2.7,1.73-4.24.67-1.93,1.29-3.55,2-5.23,1.77-3.43,3.63-6.9,5.41-10.26,5.79-10.87,11.25-21.15,14.85-30.57.09-.21,2.12-5.18,1.86-7.48a.32.32,0,0,0-.1-.2,1.26,1.26,0,0,0-1.24-.19c-2.88.89-22.46,48.55-22.64,49a8.64,8.64,0,0,0-.72,1.34,1.12,1.12,0,0,0-.18.71l-.91,2.24h0l-1.37.8-7.68,4.92a25.22,25.22,0,0,1-4.31,1.65,3.41,3.41,0,0,1-1.5-.43,1.51,1.51,0,0,1-.09-.18,1.26,1.26,0,0,1-.13-.54v-.12a1.62,1.62,0,0,1,0-.22,11.3,11.3,0,0,1,2.5-5.91,7.51,7.51,0,0,0,.47-.68,6.75,6.75,0,0,1,.92-1c.63-.64.81-.84.8-1.07a.37.37,0,0,0-.12-.26A.62.62,0,0,0,106,52a1.24,1.24,0,0,0-1.58.45,7.32,7.32,0,0,1-.59.66c-.22.23-.43.46-.63.71a17.84,17.84,0,0,0-1.64,2.46c-.43.27-1,.67-1.89,1.24a125.29,125.29,0,0,1-11.58,7c-3.23,1.59-5.19,2.07-6.55,1.57s-2.33-2.26-3.33-4.49a4.21,4.21,0,0,0-2.65-2.66c-2.3-.6-5.12,1.47-8.1,3.67-2.34,1.72-4.76,3.5-7,4,0,0-.07,0-.09,0a.89.89,0,0,1-.12-.55,29.74,29.74,0,0,1,.57-3.88c.36-1.82.56-3,.36-3.59a.27.27,0,0,0-.06-.21c-1.35-1.8-3.77-1-6.18,0a64.08,64.08,0,0,0-10,5.66c.15-.35.32-.7.45-1,.51-1,1.16-2.13,1.67-3,.3-.51.55-.94.7-1.22l0-.11v-.14a1,1,0,0,0-.51-1,.52.52,0,0,0-.42-.06c-.48.11-1,.82-1.21,1.24-.13.21-3.39,5.35-3.22,7.9a.31.31,0,0,0,.11.2,1.23,1.23,0,0,0,1.48-.06c4.93-3.79,13.4-8.51,15-8,.47.17.52.27.52.56,0,.08-.07.39-.15.85-.85,4.55-1.07,6.43-.8,6.93a1.74,1.74,0,0,0,1.08,1,2.49,2.49,0,0,0,.61.08,9.59,9.59,0,0,0,4.27-1.61A33.39,33.39,0,0,0,68,64.2c2.31-1.75,5.2-3.92,6.47-3.92a1.91,1.91,0,0,1,1.28.67,13.9,13.9,0,0,1,1.66,2.74c1.29,2.56,2.64,5.21,7.57,3.56,6.24-2.09,14.88-8.07,15-8.12l.42-.26c-.15.6-.3,1.22-.41,1.89V61a3.16,3.16,0,0,0,.36,2.15,3.11,3.11,0,0,0,.23.28l.07.07a3.23,3.23,0,0,0,2.17,1l.41,0a3.87,3.87,0,0,0,.48,0l.26,0a5.56,5.56,0,0,0,1.22-.29l.37-.15c.42-.17.83-.34,1.29-.5a15,15,0,0,0,2.1-1.1l6.9-4.39-.45,1.14-.34,1.25c-.23.6-6.39,16.89-4.47,22.66a4.54,4.54,0,0,0,4.1,2.65,1.42,1.42,0,0,0,1.39-1.18.31.31,0,0,0-.13-.29A1.3,1.3,0,0,0,115.11,84.08Zm9.23-43.24C131.9,23.53,139.88,6.6,141.26,4.23a107.85,107.85,0,0,1-4.35,11.25c-2,4.51-8.59,18.08-12.57,25.36Z"/><path class="cls-1" d="M127.25,83.22h-.55c-1.08,0-1.81-.06-2-.8-2.16-4.49.76-13.62,2-17.51.2-.63.36-1.13.45-1.45.27-.9,2.34-6,3.7-9.28.54-1.31,1-2.38,1.18-2.89l2.41-4.94c6-12.26,12.22-24.93,16-35.71.08-.21,1.93-5.07,1.64-7.34a.27.27,0,0,0-.1-.19,1.21,1.21,0,0,0-1.22-.21c-2.27.72-25.29,60.34-25.42,60.89l-.08.27c-1,3.24-4,13.1-2.31,18.32a1.51,1.51,0,0,0,.14.35,4,4,0,0,0,3.75,2.14,1.36,1.36,0,0,0,1.33-1.15.29.29,0,0,0-.13-.29A1.28,1.28,0,0,0,127.25,83.22Zm8.24-41.89c6.49-16.43,13.24-32,15.12-36,0,.12,0,.24,0,.33-.86,2.77-3.19,9.1-3.21,9.16C145.46,19.5,139.46,33.24,135.49,41.33Z"/><path class="cls-1" d="M144.48,36.8a1.38,1.38,0,0,0-.83.74c-1.22,2.68-2.48,5.44-3.74,8.36a1.49,1.49,0,0,0,0,.21.39.39,0,0,0,.16.3,1,1,0,0,0,.23.12,1.84,1.84,0,0,0,.41,0,1,1,0,0,0,1.06-.75q1.86-4.26,3.72-8.33a.76.76,0,0,0,0-.21.38.38,0,0,0-.18-.32.48.48,0,0,0-.16-.08A.89.89,0,0,0,144.48,36.8Z"/><path class="cls-1" d="M240.78,62.88c2.28-1.79,4.1-3.24,5.12-4a5.45,5.45,0,0,0,.27,1.26l0,.14a3.07,3.07,0,0,0,.11.32,3.49,3.49,0,0,0,2.42,2.14c3.16.8,8-2.29,9.42-3.42.58-.39,1.1-.76,1.62-1.13.77-.55,1.5-1.07,2.42-1.67l.08-.06a.62.62,0,0,0,.17-.88s0,0,0,0a1.44,1.44,0,0,0-.38-.32,1,1,0,0,0-.91-.08l-.69.48-.69.49-1.31.94c-2.85,2.1-6.08,4.47-9.51,4-.52-.08-1.14-.87-1.3-1.47a2.41,2.41,0,0,1-.1-.8,4.87,4.87,0,0,0,3.17-.42,1.39,1.39,0,0,0,.54-1,3.55,3.55,0,0,0-.09-.92,2.68,2.68,0,0,0-.37-.76,1.7,1.7,0,0,0-2-.7,5.93,5.93,0,0,0-2.1,1.7l-.18.19-.1,0a8.19,8.19,0,0,0-1.07.53c-.53.33-2,1.5-4.09,3.12-5,3.93-13.49,10.53-17.68,12.67a1.31,1.31,0,0,1-1.12.19.61.61,0,0,1-.19-.6,28.2,28.2,0,0,1,1.12-6.12c1.57-5.69,1.76-7.64.89-9.08a3.29,3.29,0,0,0-1.93-1.37l.05-.1a1.27,1.27,0,0,0,.13-.32,1.71,1.71,0,0,0-.58-1.62,1.76,1.76,0,0,0-1.91-.16,1.47,1.47,0,0,0-.93,1.41v.1a1.53,1.53,0,0,0,.67,1.4l-.84.46L211.59,62a24.24,24.24,0,0,1-4.15,1.52,3.54,3.54,0,0,1-1.45-.39.87.87,0,0,1-.07-.17,1.06,1.06,0,0,1-.14-.48v-.12a1.23,1.23,0,0,1,0-.2,10.07,10.07,0,0,1,2.4-5.4,4.68,4.68,0,0,0,.45-.62,6.25,6.25,0,0,1,.88-1c.62-.59.78-.77.78-1a.29.29,0,0,0-.12-.23.56.56,0,0,0-.31-.45,1.2,1.2,0,0,0-1.5.42,6.32,6.32,0,0,1-.56.6,7.45,7.45,0,0,0-.61.65,16.3,16.3,0,0,0-1.57,2.23l-1.19.65c-1.29.71-2.5,1.37-3.86,2-2.11.91-3.74,1.13-4.83.66a2.45,2.45,0,0,1-1.35-1.52l-.11-.31a4.89,4.89,0,0,0-.34-.82,3.47,3.47,0,0,0-.56-1.18,1.06,1.06,0,0,0-.29-.27,1.85,1.85,0,0,0-.14-.14,1.39,1.39,0,0,0-1.34-.45,5.55,5.55,0,0,0-1.93.71c-.27.1-.55.21-.83.34-.56.19-1.21.4-1.91.61-7.68,2.32-12.66,3.37-14.81,3.09,0-.17,0-.35.07-.51a1.29,1.29,0,0,1,0-.23c.11-.65-.44-1-.81-1.27l-.25-.19c-.87-.8-3.4.29-7.17,2a19.74,19.74,0,0,1-4.16,1.66.61.61,0,0,1,0-.12,9.91,9.91,0,0,1,1.27-1.79l.37-.45c.27-.36.54-.7.8-1a.82.82,0,0,0,.15-.71,1.32,1.32,0,0,0-.48-.74l-.17-.14-.1,0a.39.39,0,0,0-.44,0,.4.4,0,0,0-.13.33.09.09,0,0,1,0,.07l-.08.08a1.14,1.14,0,0,1-.41.24l-.18,0-.71.16-.4.11-.34.07c-.59.12-1.17.24-1.77.34a2.57,2.57,0,0,1-.73.05l-.31,0a5.67,5.67,0,0,0,.47-1.84,2.62,2.62,0,0,0-.3-1.48,2.29,2.29,0,0,0-.58-.73.86.86,0,0,0-.18-.14,2.23,2.23,0,0,0-1-.38,2,2,0,0,0-.43,0,2.31,2.31,0,0,0-.52.06,3.11,3.11,0,0,0-1.24.53l-1.1.51a.2.2,0,0,0-.08,0l-.87.42-1.22.71-1.65,1.11c-.08.06-7.78,5.27-10.91,5.41a1.57,1.57,0,0,1-1.2-.42v0a2,2,0,0,1-.1-.21,1,1,0,0,1-.13-.48v-.11a1.09,1.09,0,0,1,0-.18,44.46,44.46,0,0,1,2.5-4.65c2.16-3.76,2.14-3.77,1.77-4a1.48,1.48,0,0,0-1.71.34,76.43,76.43,0,0,0-4.27,7.64,1.27,1.27,0,0,0,0,.2,2.8,2.8,0,0,0,.36,2,1.78,1.78,0,0,0,.22.26l.06.06a3.17,3.17,0,0,0,2.08.94,4,4,0,0,0,.85,0,1.07,1.07,0,0,0,.25,0,5.19,5.19,0,0,0,1.17-.25l.7-.29c.44-.19.95-.4,1.33-.52,1.78-.83,5.9-3.42,8.24-4.93a6.75,6.75,0,0,0-1.45,3.89l0,.33a.71.71,0,0,0,0,.2,1.46,1.46,0,0,0,.05.2,3.17,3.17,0,0,0,.21.41,1.94,1.94,0,0,0,.21.29l.1.12c1.3,1.2,4.09.26,6.36-2.14a11.12,11.12,0,0,0,1-1.25,29,29,0,0,0,4.64-.59l-.11.15a6.14,6.14,0,0,0-1.38,2.41,1.18,1.18,0,0,0,.32,1,1.75,1.75,0,0,0,1.47.31,17.4,17.4,0,0,0,3.28-1.4c2.28-1.1,6.11-2.94,6.83-2.48.66.64.57.83.45,1.06a1,1,0,0,0-.15.48.5.5,0,0,0,.12.33A.52.52,0,0,0,171,62c.17.18.49.23,1.29.2a66.09,66.09,0,0,0,13.86-2.76l.84-.27a5.48,5.48,0,0,0-.59.59c-1.16,1.34-2.1,2.55-1.93,3.84a.3.3,0,0,0,.07.15,1,1,0,0,1,.1.21,1.25,1.25,0,0,0,.42.57c1.92,1.25,5.68-2.55,7.64-5.26a4.1,4.1,0,0,0,3.87,3.12c2.31.25,4.91-1,8-2.68-.16.6-.32,1.22-.44,1.89a.67.67,0,0,0,0,.2,2.8,2.8,0,0,0,.35,2,1.71,1.71,0,0,0,.21.26l.06.06a3.17,3.17,0,0,0,2.09.94,3.93,3.93,0,0,0,.84,0,1.9,1.9,0,0,0,.25,0,5.19,5.19,0,0,0,1.17-.25l.35-.14c.41-.16.81-.31,1.24-.45a16.55,16.55,0,0,0,2-1l8.33-5,.12,0c.1,0,.37-.12.49-.14l.3.11.3.11a1.57,1.57,0,0,1,.51.45c.29.31.43,1.74.07,4.15a28.72,28.72,0,0,1-.74,3c-.79,2.87-1.77,6.43-1.3,8.55.16.69.76.75,1.28.8.16,0,.33,0,.51.07h.19C225,75.2,232.56,69.38,240.78,62.88Zm-90.93-3.44a4.5,4.5,0,0,1,.73-.89,7.47,7.47,0,0,0,2.72,1.35l.22.06.26.08c-.09.1-.2.21-.3.3l-.31.28-.12.1a7.6,7.6,0,0,1-3.48,2h-.29a.38.38,0,0,1-.17-.08c-.26-.24-.27-.35-.27-.36A7.09,7.09,0,0,1,149.85,59.44Zm5.35-3.62c.27.21.3.75.07,1.38h0a14.53,14.53,0,0,1-.75,1.47,9.51,9.51,0,0,1-3.09-1.16c1.18-1.32,2.13-2.11,3.17-2A3.32,3.32,0,0,1,155.2,55.82Zm93.48.68.25.18a.47.47,0,0,1,.65,0,.49.49,0,0,1,.11.28.45.45,0,0,1-.37.45l-.3,0-.65-.07.55-.66-.24-.19Zm-27.37-.88a.47.47,0,1,1-.53-.41h.06A.45.45,0,0,1,221.31,55.62Zm-29.41,1.8c.09.28-.72,1.71-2.64,3.54s-3.17,2.37-3.38,2.27.52-1.51,2.44-3.34,3.23-2.48,3.55-2.48Z"/></svg>