<svg id="Layer_1" data-name="Layer 1" xmlns="http://www.w3.org/2000/svg" viewBox="0 0 300 90"><defs><style>.cls-1{fill:#010101;}</style></defs><path class="cls-1" d="M72.31,41.46V62.9H66.74V41.46Z"/><path class="cls-1" d="M76.81,62.9V41.46h5.57L92.67,54.57V41.46h5.55V62.9H92.67L82.38,49.8V62.9Z"/><path class="cls-1" d="M115,46.18h-6.72v3.59h6.12v4.72h-6.12V62.9h-5.57V41.46H115Z"/><path class="cls-1" d="M130.58,59.18h-8l-1.28,3.72h-6l8.16-21.44h6.09L137.8,62.9h-5.94Zm-1.48-4.24-2.5-7.13-2.51,7.13Z"/><path class="cls-1" d="M154.89,48.63a6,6,0,0,0-4.78-2.36,5.87,5.87,0,0,0-2.31.45A5.68,5.68,0,0,0,146,48a5.81,5.81,0,0,0-1.21,1.86,6.21,6.21,0,0,0-.44,2.34,6.27,6.27,0,0,0,.44,2.36,5.75,5.75,0,0,0,3.06,3.12,5.55,5.55,0,0,0,2.27.46,6.44,6.44,0,0,0,4.81-2.28v6.6l-.57.2a16.5,16.5,0,0,1-2.39.67,11.76,11.76,0,0,1-2.19.21,11.19,11.19,0,0,1-7.83-3.2,11.86,11.86,0,0,1-2.49-3.61,11.07,11.07,0,0,1-.94-4.56,10.94,10.94,0,0,1,.93-4.54,11.33,11.33,0,0,1,10.36-6.72,11.86,11.86,0,0,1,2.52.27,15.31,15.31,0,0,1,2.6.84Z"/><path class="cls-1" d="M170.61,46.18H164v3.59h6.26v4.72H164v3.69h6.62V62.9H158.42V41.46h12.19Z"/><path class="cls-1" d="M173.88,60.17a3.34,3.34,0,0,1,.26-1.29,3.39,3.39,0,0,1,.71-1.07,3.28,3.28,0,0,1,1.07-.71,3.33,3.33,0,0,1,1.29-.25,3.32,3.32,0,0,1,2.36,1,3.39,3.39,0,0,1,.71,1.07,3.36,3.36,0,0,1,0,2.59,3.24,3.24,0,0,1-.71,1.06,3.16,3.16,0,0,1-1.07.72,3.26,3.26,0,0,1-1.29.25,3.33,3.33,0,0,1-1.29-.25,3.16,3.16,0,0,1-1.07-.72,3.24,3.24,0,0,1-.71-1.06A3.35,3.35,0,0,1,173.88,60.17Z"/><path class="cls-1" d="M183.32,62.9,187,41.46h5.52l4.3,11.43L201,41.46h5.52L210.2,62.9h-5.55L202.8,50.56,197.74,62.9h-2.22l-4.8-12.34L188.87,62.9Z"/><path class="cls-1" d="M225.92,46.18H219.3v3.59h6.25v4.72H219.3v3.69h6.62V62.9h-12.2V41.46h12.2Z"/><path class="cls-1" d="M229.93,41.46h8.25a9.63,9.63,0,0,1,4.1.89,11.21,11.21,0,0,1,3.36,2.34,11,11,0,0,1,2.26,3.41,10.45,10.45,0,0,1,0,8.14,10.51,10.51,0,0,1-2.24,3.42A10.92,10.92,0,0,1,242.31,62a9.75,9.75,0,0,1-4.13.88h-8.25Zm5.57,16.72h1.28a7,7,0,0,0,2.59-.45,5.46,5.46,0,0,0,1.92-1.25,5.29,5.29,0,0,0,1.19-1.89,7,7,0,0,0,0-4.79,5.35,5.35,0,0,0-3.13-3.16,6.91,6.91,0,0,0-2.56-.46H235.5Z"/><path class="cls-1" d="M257.85,41.46V62.9h-5.57V41.46Z"/><path class="cls-1" d="M275.48,59.18h-8l-1.28,3.72H260.3l8.16-21.44h6.08L282.7,62.9h-5.94ZM274,54.94l-2.5-7.13L269,54.94Z"/><path class="cls-1" d="M49.68,38.09H38.15l7-7a1.13,1.13,0,0,0,0-1.58,1.11,1.11,0,0,0-1.58,0l-7,7-7-7A1.11,1.11,0,1,0,28,31.06l7,7H23.47a4.75,4.75,0,0,0-4.75,4.75V60.12a4.75,4.75,0,0,0,4.75,4.76H49.68a4.75,4.75,0,0,0,4.75-4.76V42.84A4.75,4.75,0,0,0,49.68,38.09Zm0,24.55H23.47A2.52,2.52,0,0,1,21,60.12V42.84a2.52,2.52,0,0,1,2.52-2.52H49.68a2.53,2.53,0,0,1,2.52,2.52V60.12A2.52,2.52,0,0,1,49.68,62.64Z"/><circle class="cls-1" cx="43.23" cy="48.1" r="4.08"/><path class="cls-1" d="M45.65,52.63H40.47a3.9,3.9,0,0,0-3.89,3.89v3.89h13V56.52A3.9,3.9,0,0,0,45.65,52.63Z"/><polygon class="cls-1" points="24.16 44.02 24.16 60.37 32.63 51.9 24.16 44.02"/></svg>