<svg id="Layer_1" data-name="Layer 1" xmlns="http://www.w3.org/2000/svg" viewBox="0 0 300 90"><defs><style>.cls-1,.cls-2{fill:none;stroke-linejoin:round;stroke-width:2.31px;}.cls-1{stroke:#231f20;}.cls-2{stroke:#fcce0d;}.cls-3{fill:#231f20;}.cls-4{fill:#6e6f71;}</style></defs><polyline class="cls-1" points="23.36 43.6 41.99 24.93 60.69 43.6"/><circle class="cls-2" cx="42.02" cy="49.95" r="10.89"/><path class="cls-1" d="M24.93,61.34c7.12,9.21,25,10.61,34,0"/><path class="cls-3" d="M91.4,61.56H74.26V59.29l13.24-20H74.67V36.63H91V38.9l-13.23,20H91.4Z"/><path class="cls-3" d="M103.7,61.9a8.57,8.57,0,0,1-6.54-2.52,9.76,9.76,0,0,1-2.4-7A10.82,10.82,0,0,1,97,45.19a7.38,7.38,0,0,1,6-2.66,7,7,0,0,1,5.56,2.31,8.85,8.85,0,0,1,2,6.1v1.79H97.69a7.41,7.41,0,0,0,1.67,5,5.76,5.76,0,0,0,4.44,1.7,15.1,15.1,0,0,0,6-1.26v2.52a14.65,14.65,0,0,1-2.84.93A15.84,15.84,0,0,1,103.7,61.9Zm-.77-17a4.62,4.62,0,0,0-3.59,1.47,6.79,6.79,0,0,0-1.58,4.06h9.77a6.19,6.19,0,0,0-1.19-4.1A4.2,4.2,0,0,0,102.93,44.9Z"/><path class="cls-3" d="M123.92,42.53a10.77,10.77,0,0,1,2.23.21l-.39,2.62a9.57,9.57,0,0,0-2-.25A5,5,0,0,0,119.84,47a6.71,6.71,0,0,0-1.62,4.59v10h-2.83V42.87h2.34l.32,3.47h.14a8.16,8.16,0,0,1,2.51-2.82A5.61,5.61,0,0,1,123.92,42.53Z"/><path class="cls-3" d="M145.78,52.2a10.33,10.33,0,0,1-2.3,7.14,8.12,8.12,0,0,1-6.36,2.56,8.45,8.45,0,0,1-4.45-1.17,7.73,7.73,0,0,1-3-3.38,11.7,11.7,0,0,1-1.06-5.15,10.31,10.31,0,0,1,2.28-7.12,8.1,8.1,0,0,1,6.35-2.55,7.91,7.91,0,0,1,6.23,2.61A10.26,10.26,0,0,1,145.78,52.2Zm-14.24,0A8.84,8.84,0,0,0,133,57.66a5,5,0,0,0,4.21,1.87,5,5,0,0,0,4.22-1.86,8.85,8.85,0,0,0,1.44-5.47,8.68,8.68,0,0,0-1.44-5.41,5,5,0,0,0-4.26-1.85A5,5,0,0,0,133,46.76,8.75,8.75,0,0,0,131.54,52.2Z"/><path class="cls-4" d="M165.41,36.63h3.12l-9,24.93h-2.86l-8.94-24.93h3.07l5.73,16.13a46.28,46.28,0,0,1,1.57,5.41,45.22,45.22,0,0,1,1.6-5.51Z"/><path class="cls-4" d="M182,61.56l-.56-2.66h-.13a8,8,0,0,1-2.79,2.38,8.45,8.45,0,0,1-3.47.62,6.21,6.21,0,0,1-4.36-1.43,5.21,5.21,0,0,1-1.58-4.07q0-5.67,9.06-5.94l3.17-.1V49.2a4.74,4.74,0,0,0-.95-3.25,3.88,3.88,0,0,0-3-1.05,12.3,12.3,0,0,0-5.29,1.44l-.87-2.17a13.55,13.55,0,0,1,3-1.18,13.21,13.21,0,0,1,3.3-.42,7.09,7.09,0,0,1,5,1.48q1.6,1.48,1.61,4.76V61.56Zm-6.39-2a5.76,5.76,0,0,0,4.15-1.45,5.36,5.36,0,0,0,1.51-4.06V52.37l-2.83.12a10.32,10.32,0,0,0-4.87,1,3.17,3.17,0,0,0-1.49,2.89,2.94,2.94,0,0,0,.93,2.34A3.89,3.89,0,0,0,175.58,59.57Z"/><path class="cls-4" d="M197.37,61.9a8,8,0,0,1-6.28-2.49c-1.48-1.67-2.23-4-2.23-7.07s.76-5.54,2.26-7.25a8.16,8.16,0,0,1,6.44-2.56,12.88,12.88,0,0,1,2.69.29,9.28,9.28,0,0,1,2.12.68l-.87,2.41a13,13,0,0,0-2.05-.62,8.83,8.83,0,0,0-2-.25q-5.7,0-5.69,7.26a8.64,8.64,0,0,0,1.39,5.29,4.8,4.8,0,0,0,4.11,1.84,12.47,12.47,0,0,0,4.8-1v2.51A10.24,10.24,0,0,1,197.37,61.9Z"/><path class="cls-4" d="M218,61.56l-.56-2.66h-.14a7.85,7.85,0,0,1-2.78,2.38,8.45,8.45,0,0,1-3.47.62,6.21,6.21,0,0,1-4.36-1.43,5.21,5.21,0,0,1-1.58-4.07q0-5.67,9.06-5.94l3.17-.1V49.2a4.74,4.74,0,0,0-1-3.25,3.89,3.89,0,0,0-3-1.05,12.26,12.26,0,0,0-5.28,1.44l-.87-2.17a13.55,13.55,0,0,1,3-1.18,13.19,13.19,0,0,1,3.29-.42,7.14,7.14,0,0,1,5,1.48q1.61,1.48,1.61,4.76V61.56Zm-6.39-2a5.78,5.78,0,0,0,4.15-1.45,5.36,5.36,0,0,0,1.51-4.06V52.37l-2.83.12a10.29,10.29,0,0,0-4.87,1,3.17,3.17,0,0,0-1.49,2.89,2.94,2.94,0,0,0,.93,2.34A3.87,3.87,0,0,0,211.63,59.57Z"/><path class="cls-4" d="M238.74,61.56V49.47a4.9,4.9,0,0,0-1-3.41,4.24,4.24,0,0,0-3.26-1.12,5.39,5.39,0,0,0-4.29,1.58q-1.36,1.59-1.37,5.24v9.8H226V42.87h2.3l.46,2.56h.14a5.79,5.79,0,0,1,2.44-2.14,8,8,0,0,1,3.49-.76,7.14,7.14,0,0,1,5.09,1.63c1.13,1.09,1.7,2.82,1.7,5.21V61.56Z"/><path class="cls-4" d="M254.85,61.9a8,8,0,0,1-6.28-2.49q-2.22-2.5-2.22-7.07c0-3.13.75-5.54,2.25-7.25A8.17,8.17,0,0,1,255,42.53a13,13,0,0,1,2.7.29,9.34,9.34,0,0,1,2.11.68L259,45.91a12.66,12.66,0,0,0-2.05-.62,8.83,8.83,0,0,0-2-.25q-5.68,0-5.69,7.26a8.64,8.64,0,0,0,1.39,5.29,4.82,4.82,0,0,0,4.12,1.84,12.46,12.46,0,0,0,4.79-1v2.51A10.21,10.21,0,0,1,254.85,61.9Z"/><path class="cls-4" d="M263.31,42.87h3l4.09,10.66a39.13,39.13,0,0,1,1.67,5.27h.14c.15-.58.46-1.57.93-3s2-5.72,4.63-13h3l-8,21.28A10.46,10.46,0,0,1,270,68.63,5.91,5.91,0,0,1,266.11,70a11,11,0,0,1-2.56-.29V67.39a9.7,9.7,0,0,0,2.1.21q2.91,0,4.16-3.27l1-2.67Z"/></svg>